<svg id="Layer_1" data-name="Layer 1" xmlns="http://www.w3.org/2000/svg" viewBox="0 0 1366 371.42"><defs><style>.cls-1,.cls-2{stroke:#000;stroke-miterlimit:10;}.cls-1{stroke-width:0.5px;}.cls-2{fill:none;stroke-width:0.75px;}.cls-3{opacity:0.43;}</style></defs><title>footer-asset</title><path class="cls-1" d="M882.39,234.74h0v-7.59H918V108.25a5.6,5.6,0,0,1-4.1-5.39,5.38,5.38,0,0,1,.12-1.14l-40.27-21.4a5.58,5.58,0,0,1-3,4.08l30.48,46.2H835.27l30.48-46.2a5.59,5.59,0,0,1,2.48-10.61,5.86,5.86,0,0,1,.63.06l.08-.12.28.16a5.69,5.69,0,0,1,3,1.62l43.4,23.07.16.08a5.59,5.59,0,0,1,8.19,7.5v121h36.07v7.59C933.57,234.82,882.39,234.74,882.39,234.74Z"/><path class="cls-1" d="M218.78,226.79h6.5a3.2,3.2,0,0,0,3.21-3.2V160.75a3.2,3.2,0,0,0-3.21-3.2H190.83a3.19,3.19,0,0,0-3.2,3.2v62.84a3.19,3.19,0,0,0,3.2,3.2h6.5v20.52h21.45ZM192,220.94V161.22h32.49v59.72Zm16.1,4.85a1.77,1.77,0,1,1,1.76-1.76A1.76,1.76,0,0,1,208.06,225.79Z"/><polygon class="cls-1" points="1331.86 233.99 1313.68 233.99 1236.51 233.99 1134.12 233.99 1081.91 233.99 1060.4 233.99 1024.86 233.99 1004.57 233.99 969.47 233.99 958.24 233.99 906.33 233.99 866.93 233.99 785.11 233.99 682.71 233.99 621.64 233.99 603.02 233.99 551.01 233.99 533.98 233.99 475.2 233.99 453.69 233.99 374.43 233.99 354.13 233.99 284.68 233.99 284.68 233.97 182.28 233.99 96.45 233.99 57.05 233.99 0.36 233.99 -0.36 370.79 1365.63 370.79 1366.37 233.99 1331.86 233.99"/><path d="M465.94,196.31c0-2.74-.2-5.39.06-8a4.16,4.16,0,0,0-2.26-4.37,26.22,26.22,0,0,0-3.12-1.48c-3.23-1.41-6.28-3-8.7-5.74-2.26-2.58-4.91-4.76-8.58-5.27l.12-1.23c-1.51-2.21-2.67-4.21-4.14-5.95a35.74,35.74,0,0,0-4.18-3.56l.45-1.5-3-1,.75-2.4-3.17-1.18,1-1.63c-.54-2.1-2.79-1.75-4.05-3l1.9-2.29L426,145.34l1.68-2.31-3.57-2.59,1.83-2-3.64-2.74,2.68-1-.29-1-2.85-3.09c2.42-1.92.92-3.7-.91-5.77l2.57-1.31-1.7-3.2a3.75,3.75,0,0,0,2.36-4.15l5.48-2.42c4.06,2.44,5.53,6.66,7,11.38-.29,1-1.06,2.71,1.07,3.41l-.35,3,2.24,1.38-.89,2.64,2.5.85-1.12,2.75,2.56,1.2c-.38,1.08-.73,2-1.15,3.21l2.54.6-.78,3.33,2,1-1,2.5c1.91.21,1.71,1.45,1.25,2.83l1.74.71-.43,2.32c1,1.61,2,3.2,3.09,5l1.62.23v2.66l4.13,3.84c.22-.52.81-1.23.64-1.58-1.53-3.25-2-6.73-2.45-10.22,0-.4-.43-.75-.31-1.14v-4.15l0,0,.25-4c.39-1.35.8-2.8,1.21-4.25l-.37-.14,4.47-6.24L457.4,135l1.26-2.12L457.12,131l1.52-2.69-1.47-2,.91-2.46-1.44-1.93,1.08-2.61L456.08,117l1.52-2.5-2.28-2.12,1.45-2.91-1.92-2.82,1.82-2.68-1.32-3.15c2.25-3.2,2.25-3.2-.34-5.8.4-.44.78-.91,1.22-1.32,1.15-1.08,1.15-2-.1-3.1a10.72,10.72,0,0,1-1.48-2c.75-.69,1.34-1.19,1.88-1.74a2.61,2.61,0,0,0,.31-.82,3.71,3.71,0,0,0-.59-1.09c-1.37-1.22-1.75-2.38-.18-3.75.9-.79.72-1.72,0-2.59-.44-.54-.86-1.09-1.27-1.62.73-1.11,1.79-2.06,1.9-3.1s-.78-2.09-1.3-3.31c2.11-1.5,2.95-3.39.6-5.63,2.05-1.68,2.34-3.54,1.6-5.09.79-2.06,1.42-3.66,2-5.27.17-.46.11-1.08.4-1.41,1.31-1.52,2.71-3,4.32-4.67l1.85,2.67,2.66-1.1,3.81,1.66c.06,2.08-.91,4.55,2.51,5.16l-2.27,3.78,2.79,2.25-2.27,3,2.65,2.14c-.73,1-2,2.07-2,3.13,0,.9,1.36,1.84,2.26,2.91l-2.75,3.15L477,79.69,473.35,83l3.51,2.49-4,3.08,2.84,2.6L472.2,95l3.88,2.13-3.69,3.46,3.14,2.38-2.82,3.32,2.35,2.72-2.94,2.55,3.16,1.94-3.21,2.28,1.91,2.43-2.5,2.37,3.12,1.62-2.46,2.92c.51.32,1,.61,1.46.93s.83.62,1.5,1.12l-3.24,2.6,2.49,1.23c.52,2-1.71,2-3.13,3.39l2.74,1.73-3.11,1.29,4.42,3.3.77-.38,1,2.79,2.29,1.09c.63,1.82,1.11,3.24,1.67,4.86L479.63,151l1.24,1.77-2.19,1.79,1.2,1.87-2,1.66c.12.53.24,1.1.37,1.67a7.43,7.43,0,0,0-2.2,6.21l-1.34,1.57.94,1.41-1.22,1.32v3.47l1.11.47-1.2,2.21,3.26,1.66.58-.43-.56-3.1,2-1.36-.63-2.42,1.49-.75,1.27-3.59-1-1.13,1.72-1.56L480.9,162l1.87-1.21-.78-2.36c1.68-1.07,1.48-2.55.49-4.24,1.9-1.47,1.18-3.12.31-4.74,1.76-1.92,1.76-1.92.81-4.49,1.62-1.28,1.78-2.85.13-4.53a3.35,3.35,0,0,0,1.08-3.81,18.35,18.35,0,0,1-.25-4.65,49.93,49.93,0,0,1-.05-6c.51-5,.85-3.7,3.78-7.42l4.8.46c.29-3.63,3.26-5,4.52-7.37.56.51,1,1.28,1.68,1.44a5.52,5.52,0,0,0,2.19-.37c2.62.84,1.67,4.9,5,4.78l-.83,3.09,2.69,2.12-1.6,3.18,2.62,1.87L507,131.4l2.7,1-2.86,3.55,2.6,1.32-3.12,2.89,2.66,1.61-3,3.42,2.63,1.45-2.9,3.16.83,1.31-.5,9.7c-1,.5-1.67,1.52-1.08,2.51-.57,1.27-.94,2.15-1.36,3-.63,1.31-1.25,2.62-1.95,3.89a20.82,20.82,0,0,1-1.59,2.29c-1.27,1.7-2.63,3.35-3.82,5.11a10.19,10.19,0,0,0-.84,2.54c-2.07,1.23-2.07,1.23-2.43,3.94a6.22,6.22,0,0,0-4.22,2.64c-1.12,1.42-3.11,2.15-5,3.4l-.48,2.1-4.39.9-.12,2.79c2,.35,3.95.59,5.82,1a26.49,26.49,0,0,1,4.81,1.47c3.09,1.36,3.32,2.61,1.3,5-.08,2.65.31,5.17-1,7.59a8.82,8.82,0,0,0-.65,3.36Q488,224.7,487.19,235c-.14,1.71-.78,2.53-2.5,3.47-5,2.74-10.26,2.51-15.51,2-1.91-.17-3.81-.89-5.84-1-2.56-.19-3.91-2-4.2-4.66-.75-7.05-1.42-14.11-2.28-21.15-.3-2.41-1.09-4.76-1.63-7.14-.34-1.49,0-3-1-4.51s.39-2.64,1.64-3.08c2.74-1,5.57-1.7,8.38-2.46A8,8,0,0,1,465.94,196.31Z"/><path d="M97.15,202.54s3.61,0,5.41,0c1.64.06,3.28.26,4.92.38a24.08,24.08,0,0,1,4.85.88,11.2,11.2,0,0,1,1.89.81A1.37,1.37,0,0,1,115,206a3.08,3.08,0,0,0,0,.43c0,.42.2.54.61.46,1.11-.22,2.2-.5,3.32-.64a6.28,6.28,0,0,1,4.06.59,4.93,4.93,0,0,1,2.42,4,7.14,7.14,0,0,1-2.12,5.83A28.4,28.4,0,0,1,119,220c-2.18,1.6-4.4,3.14-6.53,4.8a36,36,0,0,0-3.6,3.17,30.44,30.44,0,0,1-2.75,2.3,7.34,7.34,0,0,1-1.57,1.11,11.31,11.31,0,0,1-2.42.68,25.32,25.32,0,0,1-2.89.34,21.93,21.93,0,0,1-4.51,0c-.86-.13-1.74-.1-2.6-.22a6.53,6.53,0,0,1-4-1.74c-.8-.81-1.76-1.46-2.62-2.21A10.84,10.84,0,0,1,83,225.08a27.82,27.82,0,0,1-2.1-5.51,33.3,33.3,0,0,1-.88-5.33c-.12-1.09-.31-2.17-.44-3.26s-.22-2.13-.31-3.2c0-.51-.06-1-.1-1.55a1.43,1.43,0,0,1,.64-1.38A7.6,7.6,0,0,1,83,203.66c1.66-.3,3.34-.51,5-.74.75-.1,1.51-.16,2.27-.2C92.54,202.6,97.15,202.54,97.15,202.54Zm15.65,19.38.09.07a4.54,4.54,0,0,0,.53-.3c1.83-1.35,3.68-2.66,5.46-4.06,1.17-.92,2.28-1.93,3.35-3a4.12,4.12,0,0,0,1.27-3.81,2.64,2.64,0,0,0-1.65-2.27,5.49,5.49,0,0,0-4.19.25,4.57,4.57,0,0,0-2.3,2.14,9.9,9.9,0,0,0-1.13,3.12c-.07.47,0,1-.13,1.43-.28,1.58-.57,3.15-.88,4.73C113.11,220.82,112.94,221.36,112.8,221.92Z"/><path d="M67.38,230.52c.9,2.23,13.51,4,28.94,4s28-1.77,28.94-4Z"/><path d="M98.54,199.05a3.18,3.18,0,0,1-1.81-.53,4.61,4.61,0,0,1-1.37-1.44,5.21,5.21,0,0,1-.54-4.07c.8-2.8,3.21-4.69,5.57-5.77s4.71-1.68,6.51-2.69a7.75,7.75,0,0,0,2.27-1.74,4.63,4.63,0,0,0,1.09-2.27,11.91,11.91,0,0,0-.79-6c-.34-1.05-.81-2.13-1.25-3.22s-.93-2.16-1.42-3.22c-2-4.3-4.26-8.45-6.71-12.66a47.06,47.06,0,0,1,9.48,11.16q1,1.57,1.83,3.21a36.6,36.6,0,0,1,1.62,3.39,14.41,14.41,0,0,1,1.16,8.12,8.47,8.47,0,0,1-2.07,4.11,11.18,11.18,0,0,1-3.51,2.5c-2.51,1.16-4.95,1.51-7,2.21a11.28,11.28,0,0,0-2.87,1.34,5.86,5.86,0,0,0-2,2.19,3.88,3.88,0,0,0-.28,2.95A3.51,3.51,0,0,0,98.54,199.05Z"/><path d="M94.65,191.43A8.07,8.07,0,0,1,96,186.92a8.86,8.86,0,0,1,3.65-3.12,8.29,8.29,0,0,1,2.37-.66c.8-.1,1.58-.14,2.33-.25,1.44-.18,2.92-.83,3.31-2.11s-.18-2.78-.82-4.14-1.35-2.83-2-4.26l-1.94-4.28c-.61-1.44-1.26-2.87-1.84-4.32.79,1.35,1.52,2.74,2.28,4.11l2.19,4.16c.74,1.38,1.43,2.78,2.14,4.18a11.93,11.93,0,0,1,.9,2.27,4.65,4.65,0,0,1,0,2.59,3.62,3.62,0,0,1-1.73,2,6.65,6.65,0,0,1-2.41.73c-.81.09-1.6.1-2.35.18a8.36,8.36,0,0,0-2.17.5A8.64,8.64,0,0,0,94.65,191.43Z"/><path d="M104.85,190.86a10,10,0,0,0,2.11.1,9.27,9.27,0,0,0,2-.44,10.06,10.06,0,0,0,3.54-2.09A11.45,11.45,0,0,0,116,181.2a18.78,18.78,0,0,0-1-8.19,29.44,29.44,0,0,0-1.6-3.91c-.59-1.29-1.27-2.54-1.93-3.8a33,33,0,0,1,4.25,7.44,17.54,17.54,0,0,1,1.24,8.58,11.56,11.56,0,0,1-4,7.69,10.43,10.43,0,0,1-3.9,2A7.9,7.9,0,0,1,104.85,190.86Z"/><path d="M297.81,90.16v108h72.94v-108Zm46.47,11a4,4,0,1,1-4,4A4,4,0,0,1,344.28,101.16Zm-6.5,85a7.5,7.5,0,1,1,7.5-7.5A7.5,7.5,0,0,1,337.78,186.16ZM364.12,191l-20.73-35.9A21.49,21.49,0,1,1,322,118l-9.9-17.16,4.33-2.5,10.47,18.15a21.48,21.48,0,0,1,20.24,35.05l21.29,36.87Z"/><ellipse cx="334.28" cy="79.75" rx="3" ry="2.06"/><line class="cls-2" x1="298.28" y1="90.42" x2="334.08" y2="79.31"/><line class="cls-2" x1="334.77" y1="79.31" x2="370.78" y2="90.66"/><path d="M1300.37,197.37l.75-2.44,13-27.93-1.08-.51-9.46,20.37,6.51-21.58,1-5.82-3.32,5.14-9.9,32.75H1297l4.3-34.42v-7.25l-2.37,7-4.35,34.71h-12.52c-3.91.28-3-.9-3.3,3.3v41.43h24.7V200.65C1303.48,196.33,1303.91,197.45,1300.37,197.37Z"/><path d="M1055.2,132.79l-8.51-3.72a4.7,4.7,0,0,0,.43,1.16c1.15,1.47,2.34,2.9,3.52,4.34.25.3.58.52.85.81,1.43,1.51,1.39,2,0,3.43a42.73,42.73,0,0,0-3,3.45,6.93,6.93,0,0,0-1.52,5.63,6.77,6.77,0,0,1-1.39,5.28c-1.54,2.08-1.46,3.36.38,5.11,1.55,1.46,3.22,2.81,4.88,4.15a3.44,3.44,0,0,0,3.46.51,20.25,20.25,0,0,1,2.5-.53,37.14,37.14,0,0,0-1.65,5c-.43,2.43-.51,4.93-.85,7.38a5.69,5.69,0,0,1-.93,2.6,34.87,34.87,0,0,0-6.49,14c-.63,2.84-1.84,5.59-2.16,8.46a88.18,88.18,0,0,1-2.1,11.6c-1.32,5.22-.15,10.39,1.89,15.32.57,1.4,1.24,2.76,1.94,4.32-1.1,0-2.08,0-3.06,0-3.65.15-7.33.13-11,.58a51.93,51.93,0,0,0-7.43,2,6.78,6.78,0,0,0-1,.39c-3.19,1.51-3.47,3.47-1.41,6.7a2.55,2.55,0,0,0,1.76.91c5.34.37,10.69.66,16,1a1.67,1.67,0,0,0,.9-.1c.59-.38,1.32-.75,1.58-1.32.14-.3-.56-1-.92-1.51a2.71,2.71,0,0,0-.58-.47l0-.43h6.7a11.58,11.58,0,0,1,4.34.57,17.33,17.33,0,0,0,4.37.6c1.19.13,2,.46,2,2a2.26,2.26,0,0,0,2.26,2.29c3.08.3,6.16.64,9-1.08.32-.2.9.05,1.37.07,2.38.08,4.76.27,7.14.16.83,0,1.61-.86,2.44-1.27a3.42,3.42,0,0,1,1.36-.45c2.52-.12,3.1-.61,3.77-3a3.09,3.09,0,0,1,1.08-1.71c3.11-1.94,4.22-5,4.78-8.35.64-3.73,1.06-7.5,1.63-11.24.64-4.25-.77-7.94-2.74-11.59-1.71-3.19-2.55-6.72-3.65-10.16-1.17-3.62-.49-7.16-.72-10.7s.49-7.1,1-10.62a20.1,20.1,0,0,0-1.53-12.22,51.22,51.22,0,0,1-2.13-6.41c-.8-2.44-1.63-4.86-2.46-7.29a33.07,33.07,0,0,0-2.14-6c-2.18-3.77-5.06-7.06-9.61-7.84a9.59,9.59,0,0,1-5.52-2.83,12.58,12.58,0,0,0-6-3.48c-2.68-.64-3.73.47-3,3.15.1.41.22.81.33,1.22Z"/><path d="M1060.65,239.31a67.19,67.19,0,0,1-30.35-2.09,62.58,62.58,0,0,1-14.5-6.15c-4.64-2.83-9.22-6.88-11.62-12.66a16.81,16.81,0,0,1-1.08-9.52,16,16,0,0,1,4.49-8.35,16.71,16.71,0,0,1,8-4.39,20.12,20.12,0,0,1,8.7-.1,16.66,16.66,0,0,1,8,4,10.81,10.81,0,0,1,2.81,4.14,8.4,8.4,0,0,1,.51,2.77,7.59,7.59,0,0,1-.57,2.91,8.77,8.77,0,0,1-8.77,5.4,8.44,8.44,0,0,1-5-2.19,6.65,6.65,0,0,1-1.8-2.64,5.54,5.54,0,0,1,0-3.87,3,3,0,1,1,5.59,2.18c0-.1,0-.31,0-.29a.78.78,0,0,0,.25.34,2.59,2.59,0,0,0,1.52.7,2.54,2.54,0,0,0,.39,0,3.4,3.4,0,0,0,.46-.08,3.17,3.17,0,0,0,.87-.37,2.9,2.9,0,0,0,1.16-1.34,1.42,1.42,0,0,0,.11-.64,2.8,2.8,0,0,0-.19-.8,5.1,5.1,0,0,0-1.36-1.79,9.81,9.81,0,0,0-5.06-2.18,13,13,0,0,0-5.79.41,9.53,9.53,0,0,0-4.43,2.9,8.28,8.28,0,0,0-1.92,4.55,8.66,8.66,0,0,0,1.07,4.73,15.76,15.76,0,0,0,3.52,4.36,27.37,27.37,0,0,0,5.06,3.48,65.46,65.46,0,0,0,12.49,4.9c4.42,1.31,8.91,2.41,13.47,3.33s9.18,1.61,13.91,2.37h.07a3,3,0,0,1,.05,6Z"/><path d="M1184.54,224a6.56,6.56,0,0,0,2.53,1.73,9.48,9.48,0,0,0,9.44-1.86,11,11,0,0,0,2.36-2.25,9.48,9.48,0,0,0,.93-1.89,10.09,10.09,0,0,0-.12-4.53c-.25-1.43-.56-2.84-.86-4.32l-2.32.4a23.09,23.09,0,0,1-6.27.2,21.68,21.68,0,0,1-18.84-16.39,20.46,20.46,0,0,1-.55-4.4,19.74,19.74,0,0,1,.25-3.17,14.69,14.69,0,0,1,4-8.53,37.31,37.31,0,0,1,3.17-2.87c2-1.54,4.06-3,6.1-4.47l4.72-3.5c.13-.1.25-.22.38-.34-.25-1.17-.51-2.31-.73-3.46a45,45,0,0,1-1-10.17,21.87,21.87,0,0,1,1.78-8.32,13.64,13.64,0,0,1,4.77-5.63,4.46,4.46,0,0,1,.89-.47c1.7-.69,2.31-.55,3.62.72a12.31,12.31,0,0,1,1.73,2.26,21.56,21.56,0,0,1,2.76,6.82,21.79,21.79,0,0,1,.48,5.17,27,27,0,0,1-.92,6.63,30.28,30.28,0,0,1-5.95,11.09c-.74.86-1.6,1.64-2.43,2.43-.38.37-.8.7-1.21,1a.64.64,0,0,0-.26.73c.37,1.32.72,2.64,1.1,4,.61-.08,1.18-.15,1.75-.24a15.45,15.45,0,0,1,5.34.2,11.63,11.63,0,0,1,4.19,1.65,14.88,14.88,0,0,1,2.48,2,14.66,14.66,0,0,1,3.85,7.06,16.3,16.3,0,0,1-1.74,11.91A15.06,15.06,0,0,1,1207,207a14.38,14.38,0,0,1-4.35,2.81l-1.47.58c0,.23,0,.47.09.71a48.52,48.52,0,0,1,.75,6.24,9.06,9.06,0,0,1-4.14,8.23,15.92,15.92,0,0,1-5.78,2.61,13,13,0,0,1-1.66.21,13.77,13.77,0,0,1-7.64-1.5,8.92,8.92,0,0,1-4.51-5.69,5.5,5.5,0,0,1,1.61-5.75,6.94,6.94,0,0,1,7.36-1.72,5.36,5.36,0,0,1,3.85,4.89,4.91,4.91,0,0,1-2.58,4.66,5.07,5.07,0,0,1-3,.81Zm6.75-46.69c-.38.26-.66.44-.92.64a61.35,61.35,0,0,0-8.67,7.91,17.16,17.16,0,0,0-4.27,8,11.43,11.43,0,0,0,.78,7.53,14.94,14.94,0,0,0,4.82,5.5,16,16,0,0,0,4.88,2.38,18.12,18.12,0,0,0,7.13.73c1.15-.1,2.28-.29,3.46-.44l-5.6-24.16a1.87,1.87,0,0,0-.45.05,9.36,9.36,0,0,0-2.56,1.39,8,8,0,0,0-2.58,7.77,17.6,17.6,0,0,0,2.78,7.23,6.71,6.71,0,0,0,2.66,2.38,4.43,4.43,0,0,1,.67.48c-.14.65-.52.86-1,.8a6.76,6.76,0,0,1-1.54-.36,10.13,10.13,0,0,1-4.19-3.27,14,14,0,0,1-3.08-10.35,10.09,10.09,0,0,1,1.27-4.23,15.25,15.25,0,0,1,6.17-5.53c.31-.17.64-.33,1-.51Zm3.93,7.65c1.84,7.92,3.67,15.78,5.51,23.66.51-.27,1-.51,1.44-.76a7.33,7.33,0,0,0,3.07-3.35,11.63,11.63,0,0,0,1-5.81,17.11,17.11,0,0,0-4.63-11,8.7,8.7,0,0,0-5.74-2.82A3.66,3.66,0,0,0,1195.22,185Zm-4-18.37c.33-.2.53-.3.71-.42a20.71,20.71,0,0,0,4.24-3.91,20.21,20.21,0,0,0,4.18-7.56,8.31,8.31,0,0,0-.06-4.79,3,3,0,0,0-3-2.17,5.1,5.1,0,0,0-4.08,2.44,14.23,14.23,0,0,0-2.4,6.11,17.43,17.43,0,0,0-.16,3.75c.1,1.26.11,2.52.21,3.77C1190.88,164.73,1191,165.61,1191.18,166.63Z"/><rect x="1161.22" y="227.62" width="54.48" height="9.24"/><path d="M785.67,41.36H562.33c-6.26,0-11.33,6.06-11.33,13.53V188.8c0,7.46,5.07,13.53,11.33,13.53H650V225.2H596.77l-9,16.57H760.23l-9-16.57H698V202.33h87.69c6.26,0,11.33-6.07,11.33-13.53V54.89C797,47.42,791.93,41.36,785.67,41.36ZM674,198.18a6.24,6.24,0,1,1,6.23-6.24A6.23,6.23,0,0,1,674,198.18ZM787.12,179.8H560.88V54.89H787.12Z"/></svg>