<svg id="Layer_1" data-name="Layer 1" xmlns="http://www.w3.org/2000/svg" viewBox="0 0 592.62 651.11"><defs><style>.cls-1,.cls-2{stroke:#000;stroke-miterlimit:10;}.cls-1{stroke-width:0.5px;}.cls-2{fill:none;stroke-width:0.75px;}.cls-3{opacity:0.43;}</style></defs><title>footer-asset-mob</title><polygon class="cls-1" points="359.62 436.06 225.59 436.06 0 436.06 0 651.11 592.62 651.11 592.62 436.06 359.62 436.06"/><path d="M124.43,386.74a103.6,103.6,0,0,1,.09-10.45,5.44,5.44,0,0,0-3-5.73,34.46,34.46,0,0,0-4.07-1.93c-4.23-1.85-8.23-3.91-11.39-7.51-3-3.38-6.43-6.24-11.24-6.9l.17-1.61c-2-2.89-3.5-5.51-5.43-7.79-1.43-1.68-3.39-2.92-5.47-4.66l.59-2-3.88-1.3,1-3.15-4.15-1.54L79,330.08c-.72-2.74-3.65-2.28-5.31-3.93l2.5-3L72.11,320l2.2-3-4.68-3.39L72,311l-4.77-3.59,3.52-1.28-.38-1.27-3.74-4c3.18-2.51,1.2-4.84-1.18-7.55l3.36-1.72-2.23-4.19a4.91,4.91,0,0,0,3.09-5.43l7.17-3.16c5.32,3.19,7.25,8.71,9.18,14.89-.38,1.36-1.39,3.54,1.39,4.46L87,302l2.92,1.8-1.17,3.46L92,308.36,90.57,312l3.34,1.58c-.5,1.41-1,2.66-1.5,4.19l3.33.79-1,4.35,2.62,1.27L96,327.4c2.51.28,2.25,1.89,1.65,3.7L100,332c-.2,1.09-.39,2.08-.57,3l4,6.55,2.12.29v3.49l5.41,5c.29-.68,1-1.6.84-2.07-2-4.25-2.6-8.8-3.2-13.37-.07-.52-.57-1-.41-1.5v-5.42l-.07,0,.33-5.27,1.58-5.56-.49-.18c1.9-2.64,3.79-5.29,5.85-8.17l-2.14-2.46,1.64-2.79-2-2.42,2-3.52L113,295.15l1.18-3.22-1.87-2.54,1.41-3.4-2.15-3,2-3.27-3-2.77,1.9-3.81-2.52-3.7,2.39-3.5-1.74-4.13c3-4.18,3-4.18-.44-7.58.53-.58,1-1.19,1.6-1.73,1.51-1.42,1.5-2.67-.13-4.06a13.48,13.48,0,0,1-1.94-2.65c1-.9,1.76-1.55,2.46-2.27a3.32,3.32,0,0,0,.41-1.07,5.15,5.15,0,0,0-.78-1.44c-1.79-1.59-2.29-3.11-.23-4.91,1.17-1,.94-2.25,0-3.39-.58-.7-1.12-1.43-1.66-2.11.95-1.46,2.34-2.7,2.48-4.07s-1-2.73-1.69-4.33c2.76-2,3.86-4.43.77-7.36,2.69-2.2,3.08-4.64,2.1-6.66,1-2.7,1.86-4.79,2.64-6.9.22-.61.14-1.41.51-1.85,1.72-2,3.56-3.86,5.66-6.11l2.42,3.49,3.49-1.44,5,2.18c.08,2.72-1.2,6,3.28,6.75l-3,4.94,3.66,2.95-3,3.91,3.46,2.81c-.95,1.36-2.6,2.7-2.64,4.09,0,1.18,1.79,2.41,3,3.82l-3.6,4.11,4.5,3.2-4.77,4.37,4.59,3.26-5.22,4,3.72,3.41-4.6,5,5.07,2.79-4.83,4.53,4.12,3.11c-1.14,1.34-2.36,2.77-3.69,4.35l3.08,3.56c-1.13,1-2.14,1.85-3.85,3.34l4.14,2.53-4.21,3,2.5,3.19-3.28,3.1,4.09,2.13-3.22,3.81c.66.42,1.3.8,1.91,1.22s1.1.82,2,1.47l-4.23,3.4,3.25,1.61c.68,2.67-2.23,2.6-4.09,4.44l3.58,2.27-4.07,1.68,5.78,4.32,1-.5,1.38,3.65,3,1.43c.82,2.39,1.46,4.24,2.18,6.36l-1.85,2.46,1.61,2.31L141.11,332l1.57,2.45L140,336.65c.15.69.32,1.44.48,2.19-1.94,2.21-3.32,4.62-2.88,8.13l-1.75,2,1.23,1.84-1.6,1.74v4.53l1.46.62-1.57,2.9,4.26,2.17.77-.56c-.23-1.26-.46-2.52-.75-4.07.74-.49,1.64-1.09,2.65-1.78-.27-1.06-.53-2-.82-3.16l1.95-1c.63-1.79,1.11-3.18,1.66-4.71l-1.33-1.47,2.26-2-2.05-2.2,2.46-1.57-1-3.09c2.2-1.4,1.94-3.35.64-5.56,2.5-1.91,1.56-4.07.41-6.19,2.3-2.52,2.3-2.52,1.07-5.89,2.11-1.67,2.32-3.73.17-5.93a4.37,4.37,0,0,0,1.4-5c-.55-1.89-.27-4-.32-6.07a64.31,64.31,0,0,1-.07-7.85c.67-6.54,1.11-4.84,4.95-9.71l6.28.6c.38-4.75,4.27-6.56,5.91-9.65.74.67,1.37,1.68,2.2,1.89s2-.31,2.87-.49c3.44,1.11,2.18,6.42,6.56,6.26-.45,1.68-.74,2.76-1.09,4l3.52,2.77c-.69,1.38-1.34,2.68-2.09,4.16l3.43,2.46c-1,1.52-2,3-3.16,4.74l3.53,1.3-3.75,4.64,3.4,1.73-4.08,3.79,3.48,2.11-3.9,4.47,3.43,1.9-3.8,4.13,1.1,1.72c-.23,4.4-.44,8.33-.66,12.7-1.31.64-2.18,2-1.41,3.28-.75,1.67-1.24,2.81-1.78,3.93-.82,1.71-1.63,3.43-2.56,5.09a27.56,27.56,0,0,1-2.08,3c-1.66,2.23-3.44,4.39-5,6.69a13.52,13.52,0,0,0-1.09,3.33c-2.72,1.61-2.72,1.61-3.19,5.16a8.1,8.1,0,0,0-5.52,3.44c-1.47,1.86-4.07,2.82-6.62,4.46l-.61,2.75-5.75,1.17c0,1.21-.1,2.31-.16,3.66,2.66.46,5.17.77,7.62,1.33a35.29,35.29,0,0,1,6.3,1.93c4,1.78,4.34,3.41,1.69,6.55-.1,3.48.41,6.78-1.29,9.94a11.57,11.57,0,0,0-.85,4.4q-1.22,13.51-2.32,27c-.18,2.24-1,3.31-3.27,4.54-6.55,3.59-13.43,3.28-20.3,2.67-2.5-.22-5-1.16-7.64-1.35-3.36-.24-5.13-2.6-5.5-6.1-1-9.23-1.86-18.47-3-27.68a95.64,95.64,0,0,0-2.14-9.35c-.44-1.95,0-3.95-1.35-5.9-1.22-1.78.5-3.45,2.15-4,3.58-1.28,7.29-2.21,11-3.22A11.76,11.76,0,0,1,124.43,386.74Z"/><path d="M257.92,86.11V227.47h95.47V86.11Zm60.82,14.39a5.24,5.24,0,1,1-5.23,5.24A5.25,5.25,0,0,1,318.74,100.5Zm-8.51,111.26a9.82,9.82,0,1,1,9.82-9.82A9.82,9.82,0,0,1,310.23,211.76ZM344.7,218l-27.12-47a28.13,28.13,0,1,1-28-48.45l-13-22.46,5.67-3.27L296,120.61a28.91,28.91,0,0,1,5.05-.47,28.13,28.13,0,0,1,21.44,46.35l27.86,48.26Z"/><ellipse cx="305.65" cy="72.48" rx="3.93" ry="2.69"/><line class="cls-2" x1="258.53" y1="86.45" x2="305.39" y2="71.91"/><line class="cls-2" x1="306.29" y1="71.91" x2="353.43" y2="86.76"/><path d="M394.05,272H206.82c-5.25,0-9.5,5.08-9.5,11.34V395.63c0,6.25,4.25,11.34,9.5,11.34h73.51v19.17H235.69L228.14,440H372.73l-7.55-13.89H320.54V407h73.51c5.25,0,9.5-5.09,9.5-11.34V283.37C403.55,277.11,399.3,272,394.05,272ZM300.44,403.49a5.23,5.23,0,1,1,5.22-5.23A5.23,5.23,0,0,1,300.44,403.49Zm94.82-15.41H205.61V283.37H395.26Z"/><path d="M47.72,404.08s3.61-.05,5.41,0c1.64.07,3.28.27,4.92.39a24.07,24.07,0,0,1,4.85.87,11.25,11.25,0,0,1,1.89.82,1.37,1.37,0,0,1,.74,1.37,3.09,3.09,0,0,0,0,.43c0,.42.2.54.61.46,1.1-.22,2.2-.5,3.31-.64a6.3,6.3,0,0,1,4.07.59,4.88,4.88,0,0,1,2.41,3.95,7.11,7.11,0,0,1-2.11,5.84,28.4,28.4,0,0,1-4.24,3.41c-2.18,1.59-4.41,3.13-6.53,4.8a34.89,34.89,0,0,0-3.6,3.17,30.44,30.44,0,0,1-2.75,2.3A7.59,7.59,0,0,1,55.13,433a12.6,12.6,0,0,1-2.42.68,25.32,25.32,0,0,1-2.89.34,21.93,21.93,0,0,1-4.51,0c-.86-.13-1.74-.1-2.61-.22a6.56,6.56,0,0,1-4-1.74c-.8-.81-1.76-1.46-2.62-2.21a10.68,10.68,0,0,1-2.57-3.21,27.07,27.07,0,0,1-2.1-5.52,34.35,34.35,0,0,1-.89-5.32c-.11-1.09-.3-2.17-.43-3.26s-.22-2.13-.32-3.2c0-.51-.05-1-.09-1.55a1.43,1.43,0,0,1,.63-1.38,7.43,7.43,0,0,1,3.18-1.19c1.66-.3,3.34-.51,5-.74.75-.1,1.51-.16,2.27-.2C43.11,404.14,47.72,404.08,47.72,404.08Zm15.64,19.38.1.07a4.54,4.54,0,0,0,.53-.3c1.83-1.35,3.68-2.66,5.46-4.07a40.74,40.74,0,0,0,3.35-3,4.12,4.12,0,0,0,1.27-3.8,2.64,2.64,0,0,0-1.65-2.27,5.49,5.49,0,0,0-4.19.25,4.57,4.57,0,0,0-2.3,2.14,9.9,9.9,0,0,0-1.13,3.12c-.07.47,0,1-.13,1.42-.28,1.59-.57,3.16-.88,4.74C63.68,422.36,63.51,422.9,63.36,423.46Z"/><path d="M18,432.06c.9,2.23,13.51,4,28.94,4s28-1.77,28.94-4Z"/><path d="M49.11,400.59a3.26,3.26,0,0,1-1.81-.53,4.61,4.61,0,0,1-1.37-1.44,5.21,5.21,0,0,1-.54-4.07c.8-2.8,3.21-4.69,5.56-5.77s4.72-1.68,6.52-2.69a7.75,7.75,0,0,0,2.27-1.74,4.63,4.63,0,0,0,1.09-2.27,11.91,11.91,0,0,0-.79-6c-.34-1-.81-2.13-1.25-3.22s-.93-2.16-1.42-3.23c-2-4.29-4.26-8.44-6.71-12.66a47,47,0,0,1,9.47,11.17c.65,1.05,1.27,2.12,1.84,3.21a35.41,35.41,0,0,1,1.62,3.39,14.4,14.4,0,0,1,1.16,8.12A8.55,8.55,0,0,1,62.68,387a11.1,11.1,0,0,1-3.51,2.49c-2.51,1.17-5,1.52-7,2.22A11.61,11.61,0,0,0,49.26,393a6,6,0,0,0-2,2.2,3.87,3.87,0,0,0-.28,2.95A3.51,3.51,0,0,0,49.11,400.59Z"/><path d="M45.22,393a8.14,8.14,0,0,1,1.36-4.51,9,9,0,0,1,3.66-3.12,8,8,0,0,1,2.37-.66c.8-.1,1.58-.14,2.32-.25,1.45-.18,2.93-.84,3.32-2.11s-.18-2.78-.82-4.14-1.35-2.83-2-4.26l-1.94-4.28c-.61-1.44-1.26-2.87-1.84-4.32.78,1.35,1.52,2.74,2.28,4.11l2.19,4.16c.74,1.38,1.43,2.78,2.14,4.18a11.93,11.93,0,0,1,.9,2.27,4.65,4.65,0,0,1,0,2.59,3.62,3.62,0,0,1-1.73,2,6.44,6.44,0,0,1-2.41.72c-.81.1-1.6.11-2.35.19a8,8,0,0,0-2.17.5A8.64,8.64,0,0,0,45.22,393Z"/><path d="M55.42,392.4a9.35,9.35,0,0,0,2.11.09,8.84,8.84,0,0,0,2-.44A9.76,9.76,0,0,0,63.1,390a11.46,11.46,0,0,0,3.49-7.23,18.84,18.84,0,0,0-1-8.2,31.33,31.33,0,0,0-1.6-3.9c-.59-1.29-1.27-2.54-1.93-3.8a33.35,33.35,0,0,1,4.25,7.44,17.54,17.54,0,0,1,1.24,8.58,11.53,11.53,0,0,1-4,7.69,10.39,10.39,0,0,1-3.89,2A8,8,0,0,1,55.42,392.4Z"/><path d="M531.86,334.71,523.34,331a4.33,4.33,0,0,0,.44,1.16c1.15,1.46,2.33,2.9,3.52,4.33.25.3.58.53.85.82,1.42,1.51,1.38,2,0,3.43a40.82,40.82,0,0,0-3,3.44,7,7,0,0,0-1.52,5.63,6.72,6.72,0,0,1-1.39,5.29c-1.54,2.08-1.45,3.36.39,5.1,1.55,1.47,3.22,2.81,4.88,4.16a3.4,3.4,0,0,0,3.45.5,22.22,22.22,0,0,1,2.51-.52,35.32,35.32,0,0,0-1.65,4.95c-.43,2.43-.51,4.92-.86,7.37a5.68,5.68,0,0,1-.92,2.6,35.13,35.13,0,0,0-6.5,14c-.62,2.84-1.83,5.59-2.16,8.45a87.58,87.58,0,0,1-2.1,11.6c-1.32,5.23-.14,10.39,1.89,15.33.58,1.4,1.24,2.76,2,4.32-1.11,0-2.09,0-3.06,0-3.66.16-7.33.13-10.95.58a53.83,53.83,0,0,0-7.44,2,5.68,5.68,0,0,0-1,.39c-3.2,1.51-3.48,3.46-1.42,6.69a2.56,2.56,0,0,0,1.77.91c5.34.38,10.68.67,16,1a1.53,1.53,0,0,0,.89-.11c.59-.37,1.33-.75,1.59-1.31.14-.3-.57-1-.93-1.51a3,3,0,0,0-.57-.48l0-.42h6.7a11.35,11.35,0,0,1,4.33.57,17.47,17.47,0,0,0,4.38.6c1.18.13,2,.45,2,2a2.27,2.27,0,0,0,2.26,2.29c3.08.29,6.17.63,9-1.09.33-.19.91.06,1.37.07,2.38.08,4.77.28,7.14.17.83,0,1.61-.86,2.44-1.28a3.83,3.83,0,0,1,1.36-.45c2.52-.11,3.1-.6,3.78-3a3,3,0,0,1,1.08-1.72c3.11-1.94,4.21-5,4.78-8.34.63-3.73,1.06-7.5,1.63-11.24.64-4.25-.78-7.94-2.75-11.59-1.71-3.19-2.54-6.73-3.65-10.17-1.17-3.62-.49-7.15-.71-10.69s.49-7.1,1-10.62a20.13,20.13,0,0,0-1.54-12.23,49.46,49.46,0,0,1-2.12-6.4q-1.22-3.66-2.46-7.29a34,34,0,0,0-2.15-6c-2.18-3.77-5.05-7.06-9.6-7.84a9.49,9.49,0,0,1-5.52-2.82,12.49,12.49,0,0,0-6-3.48c-2.67-.64-3.73.47-3,3.15l.34,1.21Z"/><path d="M537.3,441.22A67.05,67.05,0,0,1,507,439.14a63.64,63.64,0,0,1-14.5-6.15c-4.64-2.83-9.22-6.88-11.61-12.66a16.75,16.75,0,0,1-1.09-9.52,16,16,0,0,1,4.5-8.35,16.78,16.78,0,0,1,8-4.4A20.16,20.16,0,0,1,501,398a16.8,16.8,0,0,1,8,4,10.87,10.87,0,0,1,2.82,4.14,8.45,8.45,0,0,1,.51,2.77,7.6,7.6,0,0,1-.58,2.92,8.78,8.78,0,0,1-8.76,5.4,8.5,8.5,0,0,1-5.05-2.19,6.63,6.63,0,0,1-1.81-2.65,5.57,5.57,0,0,1,0-3.86,3,3,0,1,1,5.59,2.17.43.43,0,0,0,0-.28.81.81,0,0,0,.24.34,2.55,2.55,0,0,0,1.52.69,1.79,1.79,0,0,0,.4,0,3.73,3.73,0,0,0,.46-.09,3.41,3.41,0,0,0,.86-.36,3,3,0,0,0,1.16-1.34,1.48,1.48,0,0,0,.11-.65,2.32,2.32,0,0,0-.19-.8,5.07,5.07,0,0,0-1.36-1.78,9.81,9.81,0,0,0-5.06-2.18,12.93,12.93,0,0,0-5.78.41,9.46,9.46,0,0,0-4.44,2.9,8.28,8.28,0,0,0-1.92,4.55,8.65,8.65,0,0,0,1.07,4.72,16,16,0,0,0,3.52,4.37,27.52,27.52,0,0,0,5.06,3.47,66.25,66.25,0,0,0,12.5,4.91c4.42,1.31,8.9,2.4,13.46,3.32s9.19,1.62,13.92,2.37h.06a3,3,0,0,1,0,6Z"/><path class="cls-1" d="M420.17,436.13v-7.58h35.6V219.64a5.59,5.59,0,0,1-4.1-5.38,5.47,5.47,0,0,1,.12-1.15l-40.27-21.4a5.59,5.59,0,0,1-3,4.09L439,242H373.05l30.48-46.19A5.59,5.59,0,0,1,406,185.19a6.33,6.33,0,0,1,.64.06l.07-.12.28.15a5.69,5.69,0,0,1,3,1.62L453.45,210l.15.08a5.58,5.58,0,0,1,9.27,4.2,5.59,5.59,0,0,1-1.08,3.29v211h36.07v7.59C471.35,436.21,420.72,436.13,420.17,436.13Z"/></svg>