<?xml version="1.0" encoding="utf-8"?>
<!-- Generator: Adobe Illustrator 23.0.6, SVG Export Plug-In . SVG Version: 6.00 Build 0)  -->
<svg version="1.1" id="Layer_1" xmlns="http://www.w3.org/2000/svg" xmlns:xlink="http://www.w3.org/1999/xlink" x="0px" y="0px"
	 viewBox="0 0 88.6 88.6" style="enable-background:new 0 0 88.6 88.6;" xml:space="preserve">
<title>icon-linked</title>
<path d="M44.3,0C19.8,0,0,19.8,0,44.3c0,24.5,19.8,44.3,44.3,44.3c24.5,0,44.3-19.8,44.3-44.3C88.6,19.8,68.8,0,44.3,0z M33.2,66.2
	c0,0.5,0,0.5-0.5,0.5h-9.7V34.6c0-0.4,0-0.4,0.5-0.4h9.2c0.5,0,0.5,0,0.5,0.5V66.2z M28.2,29.8c-3.3,0-5.9-2.7-5.9-5.9c0,0,0,0,0,0
	c0-3.2,2.6-5.9,5.9-5.9c0,0,0,0,0,0c3.3,0,5.9,2.7,5.9,5.9C34.1,27.2,31.4,29.8,28.2,29.8z M71.1,66.2v0.5h-9.7
	c-0.4,0-0.4,0-0.4-0.4c0-5.7,0-11.3,0-17c0.1-1.5-0.2-2.9-0.7-4.3c-0.6-1.5-2-2.6-3.7-2.7c-1-0.1-2,0-2.9,0.3
	c-1.6,0.4-2.8,1.6-3.3,3.2c-0.4,1.1-0.6,2.2-0.6,3.3c0,5.7,0,11.4-0.1,17.1c0,0.6,0.1,0.5-0.5,0.5H40c-0.4,0-0.4,0-0.4-0.4
	c0-10.6,0-21.1,0-31.7c0-0.4,0-0.5,0.5-0.5h8.8c0.5,0,0.5,0,0.5,0.5v3.7c0,0.1,0,0.2,0,0.3l0.1,0l0.5-0.7c0.9-1.3,2-2.4,3.4-3.1
	c1.6-0.9,3.5-1.4,5.4-1.4c1.9-0.1,3.9,0.2,5.7,0.8c2,0.7,3.7,2.1,4.7,3.9c0.9,1.5,1.4,3.2,1.7,4.9c0.2,1.1,0.3,2.2,0.3,3.3
	c0.1,2.5,0.1,5.1,0.1,7.6C71.1,58,71.1,62.1,71.1,66.2z"/>
</svg>
