<?xml version="1.0" encoding="utf-8"?>
<!-- Generator: Adobe Illustrator 23.0.6, SVG Export Plug-In . SVG Version: 6.00 Build 0)  -->
<svg version="1.1" id="Layer_1" xmlns="http://www.w3.org/2000/svg" xmlns:xlink="http://www.w3.org/1999/xlink" x="0px" y="0px"
	 viewBox="0 0 88.6 88.6" style="enable-background:new 0 0 88.6 88.6;" xml:space="preserve">
<title>icon-insta</title>
<path d="M44.3,0C19.8,0,0,19.8,0,44.3c0,24.5,19.8,44.3,44.3,44.3c24.5,0,44.3-19.8,44.3-44.3C88.6,19.8,68.8,0,44.3,0z M69.5,54.3
	c0.1,8.3-6.5,15.1-14.8,15.2c-0.2,0-0.3,0-0.5,0c-6.8,0-13.6,0-20.4,0c-6.4-0.1-12-4.2-14-10.3c-0.3-1.2-0.6-2.5-0.8-3.7V33
	c0-0.2,0.1-0.5,0.1-0.7C20,24.6,26.6,18.9,34.3,19c6.7,0,13.3,0,20,0c0.8,0,1.6,0,2.4,0.1c7.4,1.1,13,7.5,12.9,15
	C69.6,40.9,69.6,47.6,69.5,54.3z"/>
<path d="M44.2,36.5c-4.3,0-7.8,3.6-7.8,7.9c0,4.3,3.5,7.8,7.8,7.8c4.3,0,7.9-3.5,7.9-7.8c0,0,0-0.1,0-0.1
	C52.1,39.9,48.6,36.4,44.2,36.5z"/>
<path d="M64.1,32.7c-0.7-4.9-4.9-8.5-9.9-8.4c-6.6,0-13.1,0-19.7,0c-6.2,0-10.4,4.2-10.4,10.3c0.1,3.2,0.1,6.5,0.1,9.8
	c0,3.4,0,6.8,0,10.2c-0.1,5.4,4.3,9.9,9.7,9.9c0.1,0,0.2,0,0.3,0c6.7,0,13.3,0,20,0c5.4,0.1,9.9-4.2,10-9.7c0-0.1,0-0.2,0-0.3
	c0-6.7,0-13.5,0-20.2C64.2,33.7,64.2,33.2,64.1,32.7z M44.3,57.4c-7.2,0-13.1-5.8-13.1-13c0-7.2,5.8-13.1,13.1-13.2
	c7.2,0,13.1,5.9,13.1,13.1S51.5,57.4,44.3,57.4z M60.5,31.4c0,1.8-1.4,3.2-3.2,3.2s-3.2-1.4-3.2-3.2s1.4-3.2,3.2-3.2c0,0,0,0,0,0
	C59.1,28.2,60.5,29.6,60.5,31.4C60.5,31.3,60.5,31.3,60.5,31.4z"/>
</svg>
