<svg id="Layer_1" data-name="Layer 1" xmlns="http://www.w3.org/2000/svg" viewBox="0 0 88.76 88.6"><title>icon-pinterest</title><path d="M31.3,87.11c4.61-6.55,6.28-14,8.1-21.58,6.37,5.69,14,6.09,21.44,1.47,12.24-7.63,17.45-30.5,4.07-42.74A27.55,27.55,0,0,0,47,16.94c-7.47-.34-14.48,1.15-20.64,5.63C15.68,30.35,12.68,46.1,20,56.5a24.34,24.34,0,0,0,4.64,4.31c.92.75,1.72.45,2-.82s.77-2.78,1-4.2a3,3,0,0,0-.38-1.93c-7-9.92-1.85-26,12.67-28.73a20.73,20.73,0,0,1,11.91,1.05c6,2.51,9.65,7.06,10.49,13.54.87,6.63-.24,12.92-4.32,18.4a11,11,0,0,1-10,4.8,6.1,6.1,0,0,1-5.95-6.25,5.92,5.92,0,0,1,.18-1.33c.93-4,2.2-8,3.24-12a13.21,13.21,0,0,0,.35-3.25c0-2.41-.77-4.52-3.11-5.55a6.18,6.18,0,0,0-6.67,1,10.09,10.09,0,0,0-3.77,7.7,49.79,49.79,0,0,0,.6,6.68A11.47,11.47,0,0,1,33,53.23C31.57,59.7,29.8,66.1,28.55,72.61c-.66,3.47-.5,7.1-.66,10.67A25.63,25.63,0,0,0,28.1,86,42.83,42.83,0,0,1,10.16,73,43.13,43.13,0,0,1,.45,39,44.28,44.28,0,0,1,50.12.9c1.16.15,2.32.35,3.47.6C78.83,6.92,94.24,32.63,86.94,57.23A44.26,44.26,0,0,1,32.06,87.34Z"/></svg>