<svg id="Layer_1" data-name="Layer 1" xmlns="http://www.w3.org/2000/svg" viewBox="0 0 88.68 90.21"><defs><style>.cls-1{stroke:#000;stroke-miterlimit:10;}</style></defs><title>icon-email</title><path class="cls-1" d="M51.82,58.47c-.23-.09-.33,0-.41.21a18.66,18.66,0,0,1-2.71,5.1,12.17,12.17,0,0,1-8.63,4.89,16.29,16.29,0,0,1-7.55-.87,14.22,14.22,0,0,1-6-4.43,18.72,18.72,0,0,1-3.77-8.14,34.3,34.3,0,0,1-.65-8.58,39,39,0,0,1,1.25-8.54,27.39,27.39,0,0,1,4.44-9.25,21.66,21.66,0,0,1,6.52-6,16.54,16.54,0,0,1,6.35-2.17,15.76,15.76,0,0,1,6.08.29,8.22,8.22,0,0,1,6,5.5c0,.12,0,.37.33.31l.49-5.3h11.8c0,.48-.08,1-.13,1.4C65,25,64.82,27,64.62,29.07q-.27,2.85-.54,5.73c-.15,1.62-.28,3.24-.41,4.88s-.27,3.24-.37,4.88a71.63,71.63,0,0,0-.24,8.79,9.72,9.72,0,0,0,.9,3.9,3.34,3.34,0,0,0,3.69,2,6.71,6.71,0,0,0,4.45-2.73A17.83,17.83,0,0,0,75,50.68a31.71,31.71,0,0,0,1.3-6.25,47.74,47.74,0,0,0,.27-8,29.25,29.25,0,0,0-3-12A25.49,25.49,0,0,0,61.47,12.51,29,29,0,0,0,54,10.2a41.91,41.91,0,0,0-9.29-.5,32,32,0,0,0-18.51,6.93A37,37,0,0,0,15.52,30.17a36.48,36.48,0,0,0-2.81,9.43,45.2,45.2,0,0,0-.51,9.58,36.77,36.77,0,0,0,2,10.49A27.65,27.65,0,0,0,21.5,70.92,28.66,28.66,0,0,0,32.7,77.3a37,37,0,0,0,6.83,1.4,53.17,53.17,0,0,0,8.92.24A49.49,49.49,0,0,0,62,76.33c1.54-.54,3-1.21,4.55-1.82l.27-.11v10a.41.41,0,0,1-.29.43,44.41,44.41,0,0,1-9,2.64,69.39,69.39,0,0,1-9.76,1.08c-2.58.1-5.16.13-7.72,0a48.43,48.43,0,0,1-15.79-3.49,40.07,40.07,0,0,1-10.94-6.83,37.26,37.26,0,0,1-7.58-9,38.36,38.36,0,0,1-4.25-10A44.18,44.18,0,0,1,.31,52.32a58.08,58.08,0,0,1-.19-9.23A49.45,49.45,0,0,1,2.18,31.45,43.94,43.94,0,0,1,8.54,18.76,45.52,45.52,0,0,1,20.86,7,42.7,42.7,0,0,1,35,1.2a52.33,52.33,0,0,1,7.58-1,58.81,58.81,0,0,1,7.51,0,55.08,55.08,0,0,1,7.67,1,43,43,0,0,1,11,3.72A38.45,38.45,0,0,1,78,11.4,34.06,34.06,0,0,1,84,19a33.55,33.55,0,0,1,3.67,9.46,43.33,43.33,0,0,1,1,11.24,41.43,41.43,0,0,1-1.39,9.59,29,29,0,0,1-4.86,9.91,24.55,24.55,0,0,1-8.74,7.38,21,21,0,0,1-6.44,2,21.8,21.8,0,0,1-5,.17A11.41,11.41,0,0,1,54,64.54a10.06,10.06,0,0,1-2.12-5.18C51.88,59.06,51.85,58.76,51.82,58.47ZM52,40.26v-1.4a12.24,12.24,0,0,0-1.07-5,6.77,6.77,0,0,0-9-3.38,4.65,4.65,0,0,0-.63.32,9.29,9.29,0,0,0-3.21,3,22.14,22.14,0,0,0-3.22,7.6,28.84,28.84,0,0,0-.61,9.4,12.17,12.17,0,0,0,1.38,4.76,7.11,7.11,0,0,0,2.93,3,6.57,6.57,0,0,0,5,.37,8,8,0,0,0,4.46-3.36,20.12,20.12,0,0,0,3-7.28A41.05,41.05,0,0,0,52,40.26Z"/></svg>