<?xml version="1.0" encoding="utf-8"?>
<!-- Generator: Adobe Illustrator 24.0.2, SVG Export Plug-In . SVG Version: 6.00 Build 0)  -->
<svg version="1.1" id="Layer_1" xmlns="http://www.w3.org/2000/svg" xmlns:xlink="http://www.w3.org/1999/xlink" x="0px" y="0px"
	 viewBox="0 0 1443 465" style="enable-background:new 0 0 1443 465;" xml:space="preserve">
<g>
	<path d="M136.4,230.7v69.7c0,11.5,1.2,19.8,3.5,25c2.3,5.2,6.6,8.7,12.7,10.5c6.2,1.8,15.9,2.7,29.3,2.7v9.4
		c-36.9-0.8-65.1-1.2-84.5-1.2c-12.9,0-30.8,0.3-53.7,0.8l-19.7,0.4v-8.2c8.7-0.5,15.1-1.6,19.1-3.3c4-1.6,6.6-4.8,8-9.4
		c1.4-4.6,2-12.2,2-22.5V101.1c0-10.4-0.8-17.9-2.3-22.6c-1.5-4.6-4.2-7.8-8-9.4c-3.8-1.6-10.1-2.7-18.9-3.3v-8.2
		c15.6,0.8,39.1,1.2,70.5,1.2l47.2-0.4c5.5-0.3,11.7-0.4,18.9-0.4c40.4,0,71.1,7.3,92,21.9c20.9,14.6,31.4,34.2,31.4,58.8
		c0,15-4.1,29.5-12.3,43.3c-8.2,13.8-22.1,25.4-41.8,34.6c-19.7,9.3-45.8,13.9-78.3,13.9H136.4z M144.4,68.7
		c-3.1,1.9-5.3,5.3-6.4,10.3c-1.1,4.9-1.6,12.3-1.6,22.1v121.4h11.1c19.1,0,32.3-7.1,39.6-21.3c7.2-14.2,10.9-33.5,10.9-57.8
		c0-26.5-3-46.1-9-58.6c-6-12.6-16.1-18.9-30.3-18.9C152.3,65.8,147.6,66.8,144.4,68.7z"/>
	<path d="M306.8,336.6c-8.9-9.4-13.3-21.2-13.3-35.5c0-12.3,3.2-22.5,9.6-30.5c6.4-8.1,14-14.3,22.8-18.7c8.7-4.4,20.1-8.9,34-13.5
		c14.8-4.9,25.6-9.4,32.4-13.5c6.8-4.1,10.3-9.8,10.3-17.2v-36.5c0-8.7-2.2-16.5-6.6-23.4c-4.4-6.8-11.9-10.3-22.5-10.3
		c-8.5,0-16.1,2.3-23,7c9.3,3.3,16.2,8.1,20.7,14.6c4.5,6.4,6.8,13.6,6.8,21.5c0,10.7-3.8,19.2-11.3,25.6
		c-7.5,6.4-16.6,9.6-27.3,9.6c-10.7,0-19.1-3.3-25.2-10c-6.1-6.7-9.2-15.2-9.2-25.6c0-8.2,2-15.3,6.2-21.3
		c4.1-6,10.5-11.5,19.3-16.4c15.3-8.7,37.2-13.1,65.6-13.1c15,0,28,1.4,39,4.3c10.9,2.9,20.2,8.3,27.9,16.2
		c5.5,5.7,9.1,12.9,10.9,21.5c1.8,8.6,2.7,20.6,2.7,35.9v109.9c0,6.8,0.5,11.5,1.4,13.9c1,2.5,2.7,3.7,5.1,3.7c1.9,0,4-0.6,6.1-1.8
		c2.2-1.2,4.2-2.7,6.2-4.3l4.1,7c-11.8,10.1-28.6,15.2-50.4,15.2c-16.4,0-27.9-2.8-34.4-8.4c-6.6-5.6-10.1-13.2-10.7-22.8
		c-12.9,20.8-32,31.2-57.4,31.2C328.9,350.8,315.7,346.1,306.8,336.6z M402.5,311v-86.5c-2.5,4.1-7,9.4-13.5,16
		c-7.4,7.1-13,14-16.8,20.7c-3.8,6.7-5.7,15.8-5.7,27.3c0,19.7,7,29.5,20.9,29.5C393.1,318,398.2,315.7,402.5,311z"/>
	<path d="M726.8,303.2c0,12.6,1.7,21.7,5.1,27.5c3.4,5.7,9.4,8.6,17.8,8.6v8.6c-8.5-0.8-17-1.2-25.4-1.2c-28.4,0-52.2,1.9-71.3,5.7
		v-29.5c-12.3,20.5-34,30.8-65.2,30.8c-21.9,0-37.3-5.5-46.3-16.4c-4.1-4.9-7.1-11.5-9-19.9c-1.9-8.3-2.9-19.3-2.9-33V179.8
		c0-12.6-1.7-21.7-5.1-27.5c-3.4-5.7-9.4-8.6-17.8-8.6v-8.6c8.5,0.8,16.9,1.2,25.4,1.2c28.4,0,52.2-1.9,71.3-5.7v175.9
		c0,8.8,1.6,15.2,4.7,19.5c3.1,4.2,8.3,6.4,15.4,6.4c7.9,0,14.8-2.8,20.7-8.4c5.9-5.6,8.8-12.6,8.8-21.1v-123
		c0-12.6-1.7-21.7-5.1-27.5c-3.4-5.7-9.4-8.6-17.8-8.6v-8.6c8.5,0.8,16.9,1.2,25.4,1.2c28.4,0,52.2-1.9,71.3-5.7V303.2z"/>
	<path d="M861.3,309.8c0,11.2,1.7,18.9,5.1,23.2c3.4,4.2,9.4,6.4,17.8,6.4v8.6c-29.5-1.1-48.9-1.6-58.2-1.6
		c-9.3,0-29.8,0.6-61.5,1.6v-8.6c8.5,0,14.4-2.1,17.8-6.4c3.4-4.2,5.1-12,5.1-23.2V76.5c0-12.6-1.7-21.7-5.1-27.5
		c-3.4-5.7-9.4-8.6-17.8-8.6v-8.6C773,32.6,781.5,33,790,33c28.4,0,52.2-1.9,71.3-5.7V309.8z"/>
	<path d="M914,336.6c-8.9-9.4-13.3-21.2-13.3-35.5c0-12.3,3.2-22.5,9.6-30.5c6.4-8.1,14-14.3,22.8-18.7c8.7-4.4,20.1-8.9,34-13.5
		c14.8-4.9,25.6-9.4,32.4-13.5c6.8-4.1,10.3-9.8,10.3-17.2v-36.5c0-8.7-2.2-16.5-6.6-23.4c-4.4-6.8-11.9-10.3-22.5-10.3
		c-8.5,0-16.1,2.3-23,7c9.3,3.3,16.2,8.1,20.7,14.6c4.5,6.4,6.8,13.6,6.8,21.5c0,10.7-3.8,19.2-11.3,25.6
		c-7.5,6.4-16.6,9.6-27.3,9.6c-10.7,0-19.1-3.3-25.2-10c-6.1-6.7-9.2-15.2-9.2-25.6c0-8.2,2-15.3,6.2-21.3
		c4.1-6,10.5-11.5,19.3-16.4c15.3-8.7,37.2-13.1,65.6-13.1c15,0,28,1.4,39,4.3c10.9,2.9,20.2,8.3,27.9,16.2
		c5.5,5.7,9.1,12.9,10.9,21.5c1.8,8.6,2.7,20.6,2.7,35.9v109.9c0,6.8,0.5,11.5,1.4,13.9c1,2.5,2.7,3.7,5.1,3.7c1.9,0,4-0.6,6.1-1.8
		c2.2-1.2,4.2-2.7,6.2-4.3l4.1,7c-11.8,10.1-28.6,15.2-50.4,15.2c-16.4,0-27.9-2.8-34.4-8.4c-6.6-5.6-10.1-13.2-10.7-22.8
		c-12.9,20.8-32,31.2-57.4,31.2C936.1,350.8,922.9,346.1,914,336.6z M1009.7,311v-86.5c-2.5,4.1-7,9.4-13.5,16
		c-7.4,7.1-13,14-16.8,20.7c-3.8,6.7-5.7,15.8-5.7,27.3c0,19.7,7,29.5,20.9,29.5C1000.3,318,1005.4,315.7,1009.7,311z"/>
	<path d="M1212.3,152.8v159.9c0,44.8-7.7,79-23.2,102.5c-15.4,23.5-40.7,35.3-75.6,35.3c-22.7,0-39.3-4.5-49.8-13.5
		c-10.5-9-15.8-19.5-15.8-31.6c0-12,3.6-21.3,10.7-27.7c7.1-6.4,16-9.6,26.6-9.6c10.7,0,18.7,2.9,24,8.8c5.3,5.9,8,12.4,8,19.5
		c0,7.1-0.8,13.9-2.5,20.5h-15.6c-4.4,7.4-5,13.7-1.8,18.9c3.1,5.2,8.9,7.8,17.2,7.8s14-4.7,17-14.1c3-9.4,4.5-28.9,4.5-58.4V160.1
		h-26.7v-7.4H1212.3z M1173.3,124.5c-14.5,0-24.8-3.7-31-11.1c-6.1-7.4-9.2-16.5-9.2-27.5c0-10.9,3.3-19.9,10-27.1
		c6.7-7.1,16.9-10.7,30.5-10.7c13.7,0,24,3.2,31.2,9.6c7.1,6.4,10.7,15.6,10.7,27.5c0,11.9-3.4,21.4-10.3,28.5
		C1198.5,120.9,1187.8,124.5,1173.3,124.5z"/>
	<path d="M1361.7,132.9c9.4,2.3,16.6,4.9,21.5,7.6c3,1.6,5.5,2.5,7.4,2.5c5.7,0,9.2-4.4,10.3-13.1h8.2c-1.1,14.2-1.6,38.8-1.6,73.8
		h-8.2c-2.2-18-7.3-33.3-15.4-45.7c-8.1-12.4-19.8-18.7-35.1-18.7c-6.8,0-12.6,2-17.2,6.1c-4.7,4.1-7,9.7-7,16.8c0,9,3,17,9,24
		c6,7,15.4,15.5,28.3,25.6c0.5,0.3,4.5,3.4,11.9,9.4c15.3,12.6,26.5,23.7,33.6,33.4c7.1,9.7,10.7,21.7,10.7,35.9
		c0,12-3.7,22.9-11.1,32.6c-7.4,9.7-17.4,17.2-30.1,22.5s-26.6,8-41.6,8c-17.2,0-31.3-3.4-42.2-10.3c-4.7-2.5-8.5-4.2-11.5-5.3
		c-3-1.1-6-1.6-9-1.6c-5.2,0-9,4.8-11.5,14.4h-8.2c1.1-15.6,1.6-42.9,1.6-82h8.2c2.5,22.4,8.5,40.5,18,54.1
		c9.6,13.7,21.6,20.5,36.1,20.5c6.8,0,12.5-1.9,17-5.7c4.5-3.8,6.8-9.4,6.8-16.8c0-7.6-1.6-14.5-4.7-20.5c-3.1-6-7-11.4-11.5-16.2
		c-4.5-4.8-11.8-11.7-21.9-20.7c-11.5-10.7-20.2-19.1-26.2-25.4c-6-6.3-11.1-13.6-15.4-21.9c-4.2-8.3-6.4-17.6-6.4-27.7
		c0-11.7,3.5-22.1,10.7-31.2c7.1-9,16.5-15.9,28.3-20.7c11.7-4.8,24.5-7.2,38.1-7.2C1342.2,129.4,1352.3,130.5,1361.7,132.9z"/>
</g>
</svg>
