<?xml version="1.0" encoding="utf-8"?>
<!-- Generator: Adobe Illustrator 23.1.0, SVG Export Plug-In . SVG Version: 6.00 Build 0)  -->
<svg version="1.1" id="post_its" xmlns="http://www.w3.org/2000/svg" xmlns:xlink="http://www.w3.org/1999/xlink" x="0px" y="0px"
	 viewBox="0 0 411.2 387.6" style="enable-background:new 0 0 411.2 387.6;" xml:space="preserve">
<style type="text/css">
	.st0{fill:#FFFFFF;stroke:#000000;stroke-miterlimit:10;}
	.st1{fill:none;stroke:#000000;stroke-miterlimit:10;}
	.st2{fill:#00FFC8;stroke:#000000;stroke-miterlimit:10;}
</style>
<title>postit2</title>
<path class="st0" d="M201,65.8l136.9-5.5l3.3,71.5c0,0,0.5,73.5,0,88.3s-3.2,41.7-3.2,41.7s-2,22.5-12.6,31.7s-48,34.4-98.4,45.6
	s-55.1,10.5-55.1,10.5l-93.3,3.8c-0.8-19.4-2.1-47.1-4.1-80.7c-0.7-11.6-1.2-19.9-1.4-21.8c-1.8-27.3-3.3-77.9-3.2-177.7l96.2-5.1"
	/>
<path class="st1" d="M325.3,293.5c0,0-24,3.6-42.9-10.4c0,0-10.9,34.8-66.9,58.5"/>
<path class="st2" d="M194.9,57.7c0.3,0.4,6.3,7.4,3.9,14.9c-1.7,5.1-6.1,7.4-7.8,8.3c-4.3,2.2-9.2,2.7-13.8,1.2
	c-6.1-2.1-11.4-8-11.5-15c0.1-3.9,1.5-7.6,4.2-10.5c2.2-2.4,5.1-4.1,8.2-5"/>
<path class="st1" d="M194.9,57.7c0.3,0.4,6.3,7.4,3.9,14.9c-1.7,5.1-6.1,7.4-7.8,8.3c-4.3,2.2-9.2,2.7-13.8,1.2
	c-6.1-2.1-11.4-8-11.5-15c0.1-3.9,1.5-7.6,4.2-10.5c2.2-2.4,5.1-4.1,8.2-5"/>
<line class="st1" x1="173.1" y1="96.3" x2="175.9" y2="81.8"/>
<line class="st1" x1="173.1" y1="96.3" x2="179.7" y2="82.8"/>
<path class="st2" d="M199.7,40.7c2.9,5.7,0.6,12.7-5.1,15.6c0,0,0,0,0,0c-0.5,0.3-1.1,0.5-1.6,0.7c-4.3,1.3-11.1-0.3-13.9-6
	c-2.8-5.7-0.6-12.7,5.1-15.6C189.9,32.6,196.8,35,199.7,40.7C199.7,40.7,199.7,40.7,199.7,40.7z"/>
<path class="st1" d="M199.7,40.7c2.9,5.7,0.6,12.7-5.1,15.6c0,0,0,0,0,0c-0.5,0.3-1.1,0.5-1.6,0.7c-4.3,1.3-11.1-0.3-13.9-6
	c-2.8-5.7-0.6-12.7,5.1-15.6C189.9,32.6,196.8,35,199.7,40.7C199.7,40.7,199.7,40.7,199.7,40.7z"/>
<path class="st1" d="M170.3,62.1c2.8-0.9,5.1-2.7,6.5-5.3c1.4-2.5,1.9-5.5,1.3-8.4"/>
<path class="st1" d="M192.5,69.3c-0.8,2.1-1.2,2.4-1.4,2.4c-0.8-0.2-1.5-7.2,2.3-12.5c1.3-1.8,2.7-3.5,4.2-5"/>
<path d="M92.2,196.5c0.1-2,1.4-3.7,3.2-4.3l0.5,1c-1.3,0.6-2.3,1.8-2.3,3.3l0.3,1.6l-1-1.4c0.3-0.4,0.8-0.6,1.3-0.6
	c0.8,0,1.3,0.7,1.3,1.4c0,0,0,0.1,0,0.1c0,0.8-0.7,1.4-1.5,1.4c0,0-0.1,0-0.1,0C92.8,199,92.1,198,92.2,196.5z"/>
<path d="M101.9,193.6l1.7,0.1l-0.4,5.5l5.4,0.4l0.4-5.5l1.7,0.1l-1,13.1l-1.7-0.1l0.5-6.1l-5.4-0.4l-0.5,6.1l-1.7-0.1L101.9,193.6z"
	/>
<path d="M112.2,211.5l0.4-1.3c0.3,0.1,0.6,0.2,0.9,0.2c1.2,0.1,2.4-0.7,2.8-1.8l0.3-0.7l-3.7-10.1l1.7,0.1l1.9,5.5
	c0.3,0.9,0.7,1.9,1,2.9h0.1c0.4-0.9,0.9-1.9,1.3-2.7l2.5-5.2l1.6,0.1l-5.1,10.1c-0.9,1.9-2.2,3.2-4.4,3
	C113.1,211.8,112.6,211.7,112.2,211.5z"/>
<path d="M124.4,210.3c0.2-0.9,0.9-1.7,1.8-2v-0.1c-0.6-0.3-0.9-1-0.9-1.7c0.1-0.8,0.6-1.4,1.3-1.7v-0.1c-0.7-0.7-1.1-1.6-1-2.6
	c0.2-2,1.9-3.4,3.9-3.2c0.1,0,0.1,0,0.2,0c0.5,0,1,0.1,1.4,0.4l4,0.3L135,201l-2.5-0.2c0.5,0.6,0.7,1.3,0.7,2c-0.2,2.1-1.9,3.2-4,3
	c-0.6-0.1-1.1-0.2-1.6-0.5c-0.4,0.2-0.8,0.5-0.8,1c-0.1,0.8,0.6,1.2,1.9,1.3l2.2,0.2c2.5,0.2,3.6,0.9,3.5,2.6
	c-0.1,1.8-2.4,3.2-5.6,3C125.9,213.1,124.3,212,124.4,210.3z M132.7,210.5c0.1-0.9-0.6-1.2-2.1-1.4l-1.9-0.1c-0.5,0-1-0.1-1.5-0.3
	c-1,0.4-1.3,1-1.4,1.5c-0.1,1,1,1.8,3,1.9C131.2,212.4,132.6,211.5,132.7,210.5z M131.7,202.6c0.1-1.2-0.9-2.3-2.1-2.4
	c-1.2-0.1-2.3,0.9-2.4,2.1c-0.1,1.2,0.9,2.3,2.1,2.3c1.2,0.1,2.3-0.8,2.4-2C131.7,202.7,131.7,202.6,131.7,202.6L131.7,202.6z"/>
<path d="M136.4,211.3c0.2-0.9,0.9-1.7,1.8-2v-0.1c-0.6-0.3-0.9-1-0.9-1.7c0.1-0.7,0.6-1.4,1.3-1.7v-0.1c-0.7-0.7-1.1-1.6-1-2.6
	c0.2-2,1.9-3.4,3.9-3.2c0.1,0,0.1,0,0.2,0c0.5,0,1,0.1,1.4,0.4l4,0.3L147,202l-2.5-0.2c0.5,0.6,0.7,1.3,0.7,2c-0.2,2.1-1.9,3.2-4,3
	c-0.6-0.1-1.1-0.2-1.6-0.5c-0.5,0.2-0.8,0.6-0.8,1.1c-0.1,0.8,0.6,1.2,1.9,1.3l2.2,0.2c2.5,0.2,3.6,0.9,3.5,2.6
	c-0.1,1.8-2.4,3.2-5.6,3C137.8,214.1,136.3,213,136.4,211.3z M144.7,211.5c0.1-0.9-0.6-1.2-2.1-1.4l-1.9-0.1c-0.5,0-1-0.1-1.5-0.3
	c-1,0.4-1.3,1-1.4,1.5c-0.1,1,1,1.7,3,1.9C143.1,213.3,144.6,212.5,144.7,211.5L144.7,211.5z M143.7,203.6c0.1-1.2-0.9-2.3-2.1-2.4
	s-2.3,0.9-2.4,2.1c-0.1,1.2,0.8,2.3,2.1,2.4c1.2,0.1,2.3-0.8,2.4-2C143.7,203.7,143.7,203.6,143.7,203.6L143.7,203.6z"/>
<path d="M148.8,205.6c0.1-2.7,2.4-4.8,5.1-4.7c0.1,0,0.2,0,0.3,0c2.3,0,4.2,1.9,4.1,4.2c0,0.2,0,0.4-0.1,0.7c0,0.3-0.1,0.7-0.2,1
	l-8.2-0.6l0.1-1.3l7.2,0.6l-0.5,0.4c0.2-2.3-0.9-3.5-2.6-3.7s-3.5,1.1-3.7,3.5c-0.3,1.9,1,3.7,3,4c0.2,0,0.4,0,0.6,0
	c1,0.1,2.1-0.2,3-0.7l0.5,1.1c-1.2,0.7-2.5,1-3.8,0.9c-2.7,0-4.9-2.3-4.9-5C148.8,205.9,148.8,205.8,148.8,205.6z"/>
<path d="M164,203.7c1.3-0.6,2.3-1.8,2.4-3.3l-0.3-1.6l1,1.4c-0.3,0.3-0.8,0.5-1.3,0.5c-0.8,0-1.3-0.7-1.3-1.4c0,0,0-0.1,0-0.1
	c0-0.8,0.7-1.5,1.5-1.4c0,0,0.1,0,0.1,0c1.1,0.1,1.7,1,1.6,2.6c-0.1,1.9-1.4,3.6-3.2,4.3L164,203.7z"/>
<path d="M184.8,210.8c0.2-2.2,2.3-3.1,7.3-3.1c0.2-1.3-0.7-2.4-2-2.6c-0.1,0-0.3,0-0.4,0c-1.2,0-2.4,0.3-3.5,0.9l-0.6-1.2
	c1.4-0.7,2.9-1.1,4.4-1c2.6,0.2,3.8,1.9,3.6,4.3l-0.5,6l-1.4-0.1v-1.3h-0.1c-1.1,0.8-2.5,1.3-3.9,1.3
	C186,213.7,184.6,212.5,184.8,210.8z M191.8,211.3l0.2-2.5c-4.2,0-5.5,0.7-5.6,2c-0.1,1.1,0.9,1.6,2,1.7
	C189.6,212.6,190.8,212.1,191.8,211.3L191.8,211.3z"/>
<path d="M199.3,210.7l0.4-4.6l-2.7-0.2l0.1-1.2l2.8,0.1l0.5-3.1l1.4,0.1l-0.3,3.1l4.7,0.4l-0.1,1.3l-4.8-0.4l-0.4,4.6
	c-0.1,1.7,0.4,2.7,2.3,2.8c0.8,0.1,1.6,0,2.3-0.3l0.3,1.3c-1,0.3-2,0.4-3.1,0.3C199.9,214.8,199.1,213.1,199.3,210.7z"/>
<path d="M223.3,212.6l0.4-4.6l-2.8-0.2l0.1-1.2l2.8,0.1l0.5-3.1l1.4,0.1l-0.3,3.1l4.8,0.4l-0.1,1.3l-4.7-0.4l-0.4,4.6
	c-0.1,1.7,0.4,2.7,2.2,2.8c0.8,0.1,1.6,0,2.4-0.3l0.3,1.3c-1,0.3-2,0.4-3.1,0.3C223.9,216.7,223.1,215,223.3,212.6z"/>
<path d="M233.8,203l1.6,0.1l-0.3,3.9l-0.3,2.3h0.1c1-1.1,2.3-1.7,3.8-1.6c2.3,0.2,3.2,1.6,3,4.2l-0.5,6l-1.7-0.1l0.5-5.8
	c0.1-1.8-0.4-2.7-2-2.9c-1.2-0.1-2,0.4-3.2,1.5l-0.5,6.8l-1.7-0.1L233.8,203z"/>
<path d="M244.5,213.2c0.1-2.7,2.4-4.8,5.1-4.7c0.1,0,0.2,0,0.3,0c2.3,0,4.2,1.9,4.1,4.2c0,0.2,0,0.4-0.1,0.7c0,0.3-0.1,0.7-0.2,1
	l-8.2-0.6l0.1-1.3l7.2,0.6l-0.4,0.4c0.2-2.3-0.9-3.5-2.6-3.7s-3.5,1.1-3.6,3.5c-0.3,1.9,1,3.7,2.9,4c0.2,0,0.4,0,0.6,0
	c1,0.1,2.1-0.2,3-0.7l0.5,1.1c-1.2,0.7-2.5,1-3.8,0.9c-2.7-0.1-4.9-2.3-4.8-5C244.5,213.5,244.5,213.4,244.5,213.2z"/>
<path d="M269.5,210.4l2.8,0.1l5.7,0.4l-0.1,1.3l-8.5-0.7L269.5,210.4z M272.4,209.8c0.2-2.4,1.5-3.8,4.2-3.6c1,0.1,1.9,0.3,2.8,0.8
	l-0.5,1.2c-0.7-0.4-1.4-0.6-2.2-0.6c-1.7-0.1-2.5,0.8-2.6,2.3l-0.9,10.6l-1.6-0.1L272.4,209.8z"/>
<path d="M280.5,218.4c0.2-2.2,2.3-3.1,7.3-3.1c0.2-1.3-0.7-2.4-2-2.6c-0.1,0-0.3,0-0.4,0c-1.2,0-2.4,0.3-3.5,0.9l-0.6-1.2
	c1.4-0.8,2.9-1.1,4.4-1.1c2.6,0.2,3.8,1.9,3.6,4.3l-0.5,5.9l-1.4-0.1v-1.3h-0.1c-1.1,0.8-2.5,1.3-3.9,1.3
	C281.7,221.3,280.3,220.2,280.5,218.4z M287.5,219l0.2-2.5c-4.2,0-5.5,0.7-5.6,2c-0.1,1.1,0.9,1.6,2,1.7
	C285.3,220.2,286.5,219.8,287.5,219L287.5,219z"/>
<path d="M294.3,212.3l1.4,0.1v2.3l0,0c1-1.5,2.7-2.3,4.5-2.2c0.7,0,1.3,0.2,1.9,0.6l-0.5,1.4c-0.6-0.3-1.2-0.4-1.8-0.5
	c-1.5-0.1-2.9,0.5-4.2,2.5l-0.5,5.7l-1.6-0.1L294.3,212.3z"/>
<path d="M304.5,213.1l1.3,0.1v1.3l0,0c0.4-0.9,1.4-1.4,2.3-1.3c1,0.1,1.5,0.7,1.7,1.8c0.6-1,1.3-1.6,2.4-1.5
	c1.4,0.1,2.1,1.2,1.9,3.2l-0.5,6.9l-1.6-0.1l0.5-6.8c0.1-1.1-0.2-1.7-0.9-1.8s-1.1,0.4-1.7,1.4l-0.6,7l-1.5-0.1l0.5-6.8
	c0.1-1.1-0.1-1.7-0.9-1.8s-1.2,0.4-1.7,1.4l-0.6,7l-1.6-0.1L304.5,213.1z"/>
</svg>
