<?xml version="1.0" encoding="utf-8"?>
<!-- Generator: Adobe Illustrator 23.1.0, SVG Export Plug-In . SVG Version: 6.00 Build 0)  -->
<svg version="1.1" id="post_its" xmlns="http://www.w3.org/2000/svg" xmlns:xlink="http://www.w3.org/1999/xlink" x="0px" y="0px"
	 viewBox="0 0 411.2 387.6" style="enable-background:new 0 0 411.2 387.6;" xml:space="preserve">
<style type="text/css">
	.st0{fill:#FFFFFF;stroke:#000000;stroke-miterlimit:10;}
	.st1{fill:none;stroke:#000000;stroke-miterlimit:10;}
	.st2{fill:#00FFC8;stroke:#000000;stroke-miterlimit:10;}
</style>
<title>postit4</title>
<path class="st0" d="M206.2,347.1h-137c0,0,3.8-38.6,5.2-79.1s-0.4-74-0.2-80.5c0.6-14.8,3-41.7,3-41.7s2.9-22.4,13.8-31.2
	S140.4,82.2,191.2,73s55.5-8.3,55.5-8.3H340c6.3,49.1-4.3,107.6-6.3,147.9s2.2,53.3,3.7,132.4L206.2,347.1"/>
<path class="st1" d="M91,114.6c0,0,24.1-2.6,42.4,12.1c0,0,12.3-34.3,69.2-55.8"/>
<path class="st2" d="M251.7,76.8c0.1,0.5,2.7,9.4-2.6,15.1c-3.6,4-8.7,4.3-10.6,4.4c-4.8,0.3-9.5-1.4-13.1-4.6
	c-4.7-4.4-7.1-12-4.3-18.4c1.7-3.5,4.6-6.3,8.1-7.8c3-1.2,6.3-1.6,9.5-1.2"/>
<line class="st1" x1="215.9" y1="102.9" x2="224.5" y2="90.9"/>
<line class="st1" x1="215.9" y1="102.9" x2="227.5" y2="93.3"/>
<path class="st2" d="M263.1,63.3c0.3,6.4-4.7,11.8-11.1,12.1c-0.6,0-1.2,0-1.8-0.1c-4.4-0.6-10-4.8-10.2-11.2
	c-0.6-6.3,4-12,10.3-12.6s12,4,12.6,10.3C263,62.3,263.1,62.8,263.1,63.3L263.1,63.3z"/>
<path class="st1" d="M227.5,70.6c2.9,0.4,5.8-0.4,8.1-2.1s4-4.2,4.6-7.1"/>
<path class="st1" d="M244.8,86.3c-1.6,1.6-2.1,1.7-2.2,1.6c-0.7-0.5,1.6-7.2,7.3-10.5c1.9-1.1,3.9-2,5.9-2.8"/>
<path d="M120.4,191.1l-3.7-0.2l0.1-1.2l8.8,0.4l-0.1,1.2l-3.7-0.2l-0.5,9.9l-1.4-0.1L120.4,191.1z"/>
<path d="M127.9,189.4l1.4,0.1l-0.2,3.3l-0.2,2l0,0c0.8-1,2-1.5,3.2-1.5c1.9,0.1,2.8,1.3,2.7,3.5l-0.3,5.1l-1.4-0.1l0.3-4.9
	c0.1-1.6-0.4-2.3-1.8-2.4c-1,0-1.7,0.4-2.7,1.4l-0.3,5.8l-1.4-0.1L127.9,189.4z"/>
<path d="M137.3,197.8c0-2.3,1.9-4.1,4.2-4.1c0.1,0,0.2,0,0.2,0c2,0,3.6,1.5,3.6,3.5c0,0.2,0,0.4,0,0.6c0,0.3,0,0.6-0.1,0.8l-7-0.4
	l0.1-1.1l6.1,0.3l-0.4,0.4c0.1-2-0.8-3-2.3-3.1c-1.6,0-3,1.2-3,2.8c0,0.1,0,0.2,0,0.2c-0.2,1.6,0.9,3.1,2.6,3.4c0.2,0,0.3,0,0.5,0
	c0.9,0,1.8-0.2,2.6-0.7l0.5,0.9c-1,0.6-2.1,0.9-3.2,0.8c-2.3,0-4.2-1.8-4.2-4.1C137.3,198.1,137.3,197.9,137.3,197.8z"/>
<path d="M157.5,198.8c0.1-2.7,2-4.3,3.9-4.2c0.9,0.1,1.8,0.5,2.4,1.2l0,0v-1.5l0.2-3.2l1.4,0.1l-0.6,12.1l-1.1-0.1l-0.1-1.1h-0.1
	c-0.7,0.7-1.7,1.1-2.8,1.1C158.7,203.2,157.4,201.6,157.5,198.8z M163.6,201l0.2-4.1c-0.5-0.6-1.3-1-2.1-1.1c-1.4-0.1-2.6,1.1-2.7,3
	s0.8,3.2,2.3,3.3C162.1,202.1,163,201.7,163.6,201L163.6,201z"/>
<path d="M167.8,199.3c0-2.3,1.9-4.1,4.2-4.1c0.1,0,0.1,0,0.2,0c2,0,3.6,1.5,3.6,3.5c0,0.2,0,0.4,0,0.6c0,0.3,0,0.6-0.1,0.9l-7-0.4
	v-1.1l6.1,0.3l-0.4,0.4c0.1-2-0.8-3-2.3-3c-1.6-0.1-2.9,1.2-3,2.8c0,0.1,0,0.2,0,0.3c-0.2,1.6,0.9,3.1,2.6,3.4c0.2,0,0.3,0,0.5,0
	c0.9,0,1.8-0.2,2.6-0.7l0.5,0.9c-1,0.6-2.1,0.9-3.2,0.8c-2.3,0-4.2-1.9-4.2-4.2C167.8,199.6,167.8,199.4,167.8,199.3z"/>
<path d="M177.9,202.9l0.7-0.9c1,0.8,2.2,1.3,3.5,1.3c1.4,0.1,2.1-0.5,2.1-1.2s-0.3-1.1-2.5-1.7s-3.2-1.3-3.1-2.6s1.3-2.3,3.5-2.2
	c1.2,0.1,2.3,0.5,3.3,1.2l-0.7,0.9c-0.8-0.6-1.7-0.9-2.7-1c-1.4-0.1-1.9,0.5-2,1.1s0.7,1.1,2.3,1.5c2.7,0.7,3.3,1.4,3.3,2.7
	s-1.4,2.4-3.8,2.3C180.4,204.3,179.1,203.7,177.9,202.9z"/>
<path d="M192.6,197.6l-3.8-0.2l0.1-1.1l5.2,0.3l-0.4,8.3l-1.4-0.1L192.6,197.6z M192.2,193.6c0-0.6,0.5-1.1,1.2-1.1
	c0.6,0,1.1,0.5,1.1,1.2s-0.5,1.1-1.2,1.1l0,0C192.7,194.7,192.2,194.2,192.2,193.6L192.2,193.6L192.2,193.6z"/>
<path d="M199.9,196.8l1.2,0.1v2l0,0c0.8-1.3,2.3-2,3.8-2c0.6,0,1.1,0.2,1.6,0.4l-0.4,1.2c-0.5-0.2-1-0.3-1.5-0.4
	c-1.2-0.1-2.4,0.5-3.5,2.2l-0.2,4.8l-1.4-0.1L199.9,196.8z"/>
<path d="M208.6,201.3c0-2.3,1.9-4.1,4.2-4.1c0.1,0,0.2,0,0.2,0c2,0,3.6,1.5,3.6,3.5c0,0.2,0,0.4,0,0.6c0,0.3,0,0.6-0.1,0.9l-7-0.4
	l0.1-1.1l6.1,0.3l-0.4,0.4c0.1-2-0.8-3-2.3-3c-1.6-0.1-3,1.2-3,2.8c0,0.1,0,0.2,0,0.2c-0.2,1.6,0.9,3.1,2.6,3.4c0.2,0,0.3,0,0.5,0
	c0.9,0,1.8-0.2,2.6-0.7l0.5,0.9c-1,0.6-2.1,0.9-3.2,0.8c-2.3,0-4.2-1.8-4.3-4.1C208.6,201.6,208.6,201.5,208.6,201.3z"/>
<path d="M231.3,203.4l0.2-3.9l-2.4-0.1l0.1-1.1h2.4l0.3-2.6l1.2,0.1l-0.1,2.6l4,0.2l-0.1,1.1l-4-0.2l-0.2,3.9
	c-0.1,1.5,0.4,2.3,2,2.3c0.7,0,1.4-0.1,2-0.3l0.3,1.1c-0.8,0.3-1.7,0.4-2.6,0.4C231.9,206.9,231.2,205.4,231.3,203.4z"/>
<path d="M239,202.9c0.2-2.2,2.3-3.9,4.5-3.6s3.9,2.3,3.6,4.5c-0.2,2.1-2.1,3.7-4.3,3.6c-2.2-0.1-4-1.9-3.9-4.1
	C239,203.2,239,203,239,202.9z M245.7,203.2c0.1-1.9-0.9-3.2-2.5-3.3s-2.7,1.1-2.8,3s0.9,3.2,2.5,3.3S245.6,205.1,245.7,203.2z"/>
<path d="M260.2,199.8h1.1l0.1,1.1l0,0c0.8-0.7,1.8-1.1,2.9-1.1c2.2,0.1,3.3,1.8,3.2,4.4c-0.1,2.8-2,4.4-4,4.3
	c-0.9-0.1-1.8-0.5-2.4-1.2l0,0v1.6l-0.1,2.8l-1.4-0.1L260.2,199.8z M266.1,204.1c0.1-1.8-0.5-3.1-2.2-3.1c-0.9,0-1.8,0.4-2.5,1.1
	l-0.2,4.1c0.6,0.6,1.3,1,2.1,1.1C264.8,207.3,266,206.1,266.1,204.1L266.1,204.1z"/>
<path d="M269.8,206.4c0.1-1.9,1.9-2.7,6.1-2.8c0.1-1.1-0.7-2.1-1.8-2.2c-0.1,0-0.2,0-0.3,0c-1,0-2.1,0.3-2.9,0.8l-0.5-1
	c1.1-0.7,2.4-1,3.7-1c1.7-0.1,3.1,1.2,3.2,2.9c0,0.2,0,0.4,0,0.7l-0.3,5.1l-1.2-0.1l-0.1-1.1l0,0c-1,0.7-2.1,1.1-3.3,1.2
	C271,208.8,269.7,207.9,269.8,206.4z M275.8,206.7l0.1-2.1c-3.5,0.1-4.6,0.7-4.7,1.8s0.8,1.4,1.7,1.4
	C274,207.7,275,207.4,275.8,206.7L275.8,206.7z"/>
<path d="M279.8,207.9l0.7-0.9c1,0.8,2.2,1.3,3.5,1.3c1.4,0.1,2.1-0.5,2.1-1.2s-0.3-1.1-2.5-1.6s-3.2-1.3-3.1-2.6s1.3-2.3,3.5-2.2
	c1.2,0.1,2.3,0.5,3.3,1.2l-0.7,0.9c-0.8-0.6-1.7-1-2.7-1c-1.4-0.1-1.9,0.5-2,1.1s0.7,1,2.3,1.5c2.7,0.7,3.3,1.4,3.3,2.7
	s-1.4,2.4-3.8,2.3C282.3,209.3,280.9,208.8,279.8,207.9z"/>
<path d="M290,208.5l0.7-0.9c1,0.8,2.2,1.3,3.5,1.3c1.4,0.1,2.1-0.5,2.1-1.2s-0.3-1.1-2.5-1.6s-3.2-1.3-3.1-2.6s1.3-2.3,3.5-2.2
	c1.2,0.1,2.3,0.5,3.3,1.2l-0.7,0.9c-0.8-0.6-1.7-1-2.7-1c-1.4-0.1-1.9,0.5-2,1.1s0.7,1.1,2.3,1.5c2.7,0.7,3.3,1.4,3.3,2.7
	s-1.4,2.4-3.8,2.3C292.5,209.9,291.1,209.3,290,208.5z"/>
<path d="M118.2,218.2l0.2-3.9l-2.3-0.1v-1.1h2.4l0.3-2.6l1.2,0.1l-0.1,2.6l4,0.2l-0.1,1.1l-4-0.2l-0.2,3.9c-0.1,1.5,0.4,2.3,2,2.3
	c0.7,0,1.4-0.1,2-0.3l0.3,1c-0.8,0.3-1.7,0.4-2.6,0.4C118.8,221.6,118.1,220.2,118.2,218.2z"/>
<path d="M126.9,209.7l1.4,0.1l-0.2,3.3l-0.2,1.9l0,0c0.8-0.9,1.9-1.5,3.2-1.5c1.9,0.1,2.8,1.3,2.7,3.5l-0.3,5.1l-1.3-0.1l0.2-4.9
	c0.1-1.6-0.4-2.3-1.8-2.4c-1,0-1.7,0.4-2.7,1.4l-0.3,5.8l-1.4-0.1L126.9,209.7z"/>
<path d="M136.4,220.2c0.1-1.9,1.9-2.7,6.1-2.8c0.1-1.1-0.7-2.1-1.8-2.2c-0.1,0-0.2,0-0.3,0c-1,0-2.1,0.3-2.9,0.8l-0.5-1
	c1.1-0.7,2.4-1,3.7-1c1.7-0.1,3.1,1.2,3.2,2.9c0,0.2,0,0.4,0,0.7l-0.3,5.1l-1.2-0.1l-0.1-1.1h-0.1c-0.9,0.7-2.1,1.1-3.3,1.2
	C137.5,222.6,136.3,221.6,136.4,220.2z M142.4,220.4l0.1-2.1c-3.6,0.1-4.6,0.7-4.7,1.8c-0.1,0.9,0.8,1.4,1.7,1.4
	C140.5,221.5,141.6,221.1,142.4,220.4L142.4,220.4z"/>
<path d="M148.7,219.7l0.2-3.9l-2.3-0.1l0.1-1h2.4l0.3-2.6l1.2,0.1l-0.1,2.6l4,0.2l-0.1,1.1l-4-0.2l-0.1,3.9c-0.1,1.5,0.4,2.3,2,2.3
	c0.7,0,1.4-0.1,2-0.3l0.3,1.1c-0.8,0.3-1.7,0.4-2.6,0.4C149.3,223.2,148.6,221.7,148.7,219.7z"/>
<path d="M166.7,219.7c0.2-2.2,2.3-3.9,4.5-3.6s3.9,2.3,3.6,4.5c-0.2,2.2-2.1,3.8-4.3,3.6c-2.2-0.1-4-2-3.9-4.2
	C166.7,219.9,166.7,219.8,166.7,219.7z M173.4,220c0.1-1.9-0.9-3.2-2.5-3.3s-2.7,1.1-2.8,3s0.9,3.2,2.5,3.3S173.3,221.9,173.4,220
	L173.4,220z"/>
<path d="M177.6,216.1l1.2,0.1v1.4h0.1c0.8-0.9,2-1.4,3.2-1.4c2,0.1,2.8,1.3,2.7,3.5l-0.3,5.1l-1.4-0.1l0.3-4.9
	c0.1-1.6-0.4-2.3-1.8-2.4c-1-0.1-1.7,0.4-2.7,1.3l-0.3,5.8l-1.4-0.2L177.6,216.1z"/>
<path d="M199.7,222.3l0.2-3.9l-2.3-0.1v-1.1h2.4l0.3-2.6l1.2,0.1l-0.1,2.6l4.1,0.2l-0.1,1.1l-4-0.2l-0.2,3.9c-0.1,1.5,0.4,2.3,2,2.3
	c0.7,0,1.4-0.1,2-0.3l0.3,1c-0.8,0.3-1.7,0.4-2.6,0.4C200.3,225.7,199.6,224.3,199.7,222.3z"/>
<path d="M207.4,221.7c0.2-2.2,2.2-3.9,4.5-3.6c2.2,0.2,3.9,2.2,3.6,4.5c-0.2,2.2-2.1,3.8-4.3,3.7s-4-2-3.9-4.2
	C207.4,221.9,207.4,221.8,207.4,221.7z M214.1,222.1c0.1-1.9-0.9-3.2-2.5-3.3s-2.7,1.1-2.8,3s0.9,3.2,2.5,3.3S214,223.9,214.1,222.1
	z"/>
<path d="M230.2,223.8l0.2-3.9l-2.3-0.1l0.1-1h2.4l0.3-2.6l1.2,0.1l-0.1,2.6l4,0.2l-0.1,1.1l-4-0.2l-0.2,3.9c-0.1,1.5,0.4,2.3,2,2.4
	c0.7,0,1.4-0.1,2-0.3l0.3,1.1c-0.8,0.3-1.7,0.4-2.6,0.4C230.8,227.2,230.1,225.8,230.2,223.8z"/>
<path d="M239,215.3l1.4,0.1l-0.2,3.3l-0.2,1.9h0.1c0.8-0.9,1.9-1.5,3.1-1.5c2,0.1,2.8,1.3,2.7,3.5l-0.3,5.1l-1.4-0.1l0.2-4.9
	c0.1-1.6-0.4-2.3-1.8-2.4c-1-0.1-1.7,0.4-2.7,1.4l-0.3,5.8l-1.4-0.1L239,215.3z"/>
<path d="M248.3,223.7c0-2.3,1.9-4.1,4.2-4.1c0.1,0,0.1,0,0.2,0c2,0,3.6,1.5,3.6,3.5c0,0.2,0,0.4,0,0.6c0,0.3-0.1,0.6-0.1,0.8l-7-0.3
	l0.1-1.1l6.1,0.3l-0.4,0.4c0.1-2-0.8-3-2.3-3.1c-1.6,0-3,1.2-3,2.8c0,0.1,0,0.2,0,0.2c-0.2,1.6,0.9,3.1,2.6,3.4c0.2,0,0.3,0,0.5,0
	c0.9,0,1.8-0.2,2.6-0.7l0.5,0.9c-1,0.6-2.1,0.9-3.2,0.8c-2.3,0-4.2-1.8-4.2-4.1C248.3,224,248.3,223.9,248.3,223.7z"/>
<path d="M262.8,221.5l-3.8-0.2l0.1-1.1l5.2,0.3l-0.4,8.3l-1.4-0.1L262.8,221.5z M262.5,217.5c0-0.6,0.5-1.1,1.2-1.1
	c0.6,0,1.1,0.5,1.1,1.2s-0.5,1.1-1.2,1.1l0,0c-0.6,0-1.1-0.5-1.1-1C262.5,217.6,262.5,217.5,262.5,217.5L262.5,217.5z"/>
<path d="M270.2,220.7l1.2,0.1v2l0,0c0.8-1.3,2.3-2,3.8-2c0.6,0,1.1,0.2,1.6,0.4l-0.4,1.2c-0.5-0.2-1-0.3-1.5-0.4
	c-1.2-0.1-2.4,0.5-3.5,2.2l-0.2,4.8l-1.4-0.1L270.2,220.7z"/>
<path d="M115.1,237.6c0.1-2.8,2.3-4.2,4.8-4.1c1.1,0,2.2,0.5,2.9,1.4l-0.7,0.9c-0.6-0.6-1.4-0.9-2.2-1c-1.7-0.1-3.2,1.2-3.4,2.9
	c-0.1,1.7,1.2,3.2,2.9,3.4c0,0,0,0,0.1,0c0.9,0,1.9-0.3,2.6-0.9l0.6,0.9c-0.9,0.8-2.1,1.2-3.3,1.1
	C116.8,242,114.9,240.3,115.1,237.6z"/>
<path d="M125.9,230.1l1.4,0.1l-0.2,3.3l-0.2,2h0.1c0.8-0.9,1.9-1.5,3.2-1.5c1.9,0.1,2.8,1.3,2.7,3.5l-0.3,5.1l-1.4-0.1l0.3-4.9
	c0.1-1.6-0.4-2.3-1.8-2.4c-1,0-1.7,0.4-2.7,1.4l-0.3,5.8l-1.4-0.1L125.9,230.1z"/>
<path d="M139.6,235.8l-3.8-0.2l0.1-1.1l5.2,0.3l-0.4,8.3l-1.4-0.1L139.6,235.8z M139.2,231.8c0-0.6,0.5-1.1,1.2-1.1
	c0.6,0,1.1,0.5,1.1,1.2s-0.5,1.1-1.2,1.1l0,0c-0.6,0-1.1-0.5-1.1-1C139.2,231.8,139.2,231.8,139.2,231.8L139.2,231.8z"/>
<path d="M148.4,240.6l0.4-8.2l-2.9-0.1l0.1-1.1l4.3,0.2l-0.5,9.4c-0.2,0.8,0.4,1.6,1.2,1.8c0.1,0,0.2,0,0.4,0c0.5,0,1.1-0.1,1.6-0.3
	l0.3,1.1c-0.7,0.3-1.5,0.4-2.2,0.4C149.2,243.6,148.3,242.5,148.4,240.6z"/>
<path d="M155.5,239.6c0.1-2.7,2-4.3,3.9-4.2c0.9,0.1,1.8,0.5,2.4,1.2l0,0v-1.5l0.1-3.2l1.4,0.1l-0.6,12.1l-1.1-0.1l-0.1-1.1h-0.1
	c-0.7,0.7-1.7,1.1-2.8,1.1C156.7,243.9,155.3,242.3,155.5,239.6z M161.6,241.8l0.2-4.1c-0.5-0.6-1.3-1-2.1-1.1
	c-1.4-0.1-2.6,1.1-2.7,3s0.8,3.2,2.3,3.3C160.1,242.9,161,242.5,161.6,241.8L161.6,241.8z"/>
<path d="M167.3,236l1.2,0.1v2l0,0c0.8-1.3,2.3-2,3.8-2c0.6,0,1.1,0.2,1.6,0.4l-0.4,1.2c-0.5-0.2-1-0.3-1.5-0.4
	c-1.3-0.1-2.4,0.5-3.5,2.2l-0.3,4.8h-1.3L167.3,236z"/>
<path d="M176,240.6c0-2.3,1.9-4.1,4.2-4.1c0.1,0,0.2,0,0.2,0c2,0,3.6,1.5,3.6,3.5c0,0.2,0,0.4,0,0.6c0,0.3-0.1,0.6-0.1,0.8l-7-0.4
	l0.1-1.1l6.1,0.3l-0.4,0.4c0.1-2-0.8-3-2.3-3.1c-1.6,0-3,1.2-3,2.8c0,0.1,0,0.2,0,0.2c-0.2,1.6,0.9,3.1,2.6,3.4c0.2,0,0.3,0,0.5,0
	c0.9,0,1.8-0.2,2.6-0.7l0.5,0.9c-1,0.6-2.1,0.9-3.2,0.8c-2.3,0-4.2-1.8-4.2-4.1C176,240.9,176,240.7,176,240.6z"/>
<path d="M186.8,237l1.2,0.1l0.1,1.4h0.1c0.8-0.9,2-1.4,3.2-1.4c2,0.1,2.8,1.3,2.7,3.5l-0.3,5.1l-1.4-0.1l0.3-4.9
	c0.1-1.6-0.4-2.3-1.8-2.4c-1-0.1-1.7,0.4-2.7,1.4l-0.3,5.8l-1.4-0.1L186.8,237z"/>
</svg>
