<?xml version="1.0" encoding="utf-8"?>
<!-- Generator: Adobe Illustrator 24.0.2, SVG Export Plug-In . SVG Version: 6.00 Build 0)  -->
<svg version="1.1" id="Layer_1" xmlns="http://www.w3.org/2000/svg" xmlns:xlink="http://www.w3.org/1999/xlink" x="0px" y="0px"
	 viewBox="0 0 609 1211" style="enable-background:new 0 0 609 1211;" xml:space="preserve">
<style type="text/css">
	.st0{fill:#0C0C0B;}
	.st1{fill:#FFFFFF;}
	.st2{fill:none;stroke:#E418E6;stroke-width:2;stroke-miterlimit:10;}
	.st3{fill:none;stroke:#63DBDB;stroke-miterlimit:10;}
	.st4{fill:none;stroke:#02ED60;stroke-miterlimit:10;}
	.st5{fill:none;stroke:#DD3E3E;stroke-miterlimit:10;}
	.st6{fill:none;stroke:#DD3E3E;stroke-width:1.5;stroke-miterlimit:10;}
	.st7{fill:#63DBDB;}
	.st8{fill:#DD3E3E;}
	.st9{fill:#363A37;}
	.st10{fill:none;stroke:#DD3E3E;stroke-width:2;stroke-miterlimit:10;}
	.st11{clip-path:url(#SVGID_2_);}
	.st12{fill:#3B8383;}
	.st13{clip-path:url(#SVGID_4_);}
	.st14{fill:#337272;}
	.st15{clip-path:url(#SVGID_6_);}
	.st16{clip-path:url(#SVGID_8_);}
	.st17{clip-path:url(#SVGID_10_);}
	.st18{clip-path:url(#SVGID_12_);}
	.st19{fill:#397F7F;}
	.st20{fill:#377B7B;}
	.st21{fill:#357676;}
	.st22{clip-path:url(#SVGID_14_);}
	.st23{clip-path:url(#SVGID_16_);}
	.st24{clip-path:url(#SVGID_18_);}
	.st25{clip-path:url(#SVGID_20_);}
	.st26{clip-path:url(#SVGID_22_);}
	.st27{clip-path:url(#SVGID_24_);}
	.st28{clip-path:url(#SVGID_26_);}
	.st29{clip-path:url(#SVGID_28_);}
	.st30{clip-path:url(#SVGID_30_);}
	.st31{fill:#070707;}
	.st32{clip-path:url(#SVGID_32_);}
	.st33{fill:#060606;}
	.st34{fill:#070706;}
	.st35{fill:#0B0B0A;}
	.st36{clip-path:url(#SVGID_34_);}
	.st37{clip-path:url(#SVGID_36_);}
	.st38{fill:#732020;}
	.st39{clip-path:url(#SVGID_38_);}
	.st40{fill:#852525;}
	.st41{clip-path:url(#SVGID_40_);}
	.st42{fill:#59C6C6;}
	.st43{clip-path:url(#SVGID_42_);}
	.st44{fill:#772121;}
	.st45{fill:#7C2323;}
	.st46{fill:#802424;}
	.st47{fill:#C73838;}
	.st48{clip-path:url(#SVGID_44_);}
	.st49{clip-path:url(#SVGID_46_);}
	.st50{clip-path:url(#SVGID_48_);}
	.st51{clip-path:url(#SVGID_50_);}
	.st52{clip-path:url(#SVGID_52_);}
	.st53{clip-path:url(#SVGID_54_);}
	.st54{clip-path:url(#SVGID_56_);}
	.st55{clip-path:url(#SVGID_58_);}
	.st56{clip-path:url(#SVGID_60_);}
	.st57{clip-path:url(#SVGID_62_);}
	.st58{clip-path:url(#SVGID_64_);}
	.st59{clip-path:url(#SVGID_66_);}
	.st60{clip-path:url(#SVGID_68_);}
	.st61{clip-path:url(#SVGID_70_);}
	.st62{clip-path:url(#SVGID_72_);}
	.st63{clip-path:url(#SVGID_74_);}
	.st64{clip-path:url(#SVGID_76_);}
	.st65{clip-path:url(#SVGID_78_);}
	.st66{clip-path:url(#SVGID_80_);}
	.st67{clip-path:url(#SVGID_82_);}
	.st68{clip-path:url(#SVGID_84_);}
	.st69{clip-path:url(#SVGID_86_);}
	.st70{clip-path:url(#SVGID_88_);}
	.st71{clip-path:url(#SVGID_90_);}
	.st72{clip-path:url(#SVGID_92_);}
	.st73{clip-path:url(#SVGID_94_);}
	.st74{clip-path:url(#SVGID_96_);}
	.st75{clip-path:url(#SVGID_98_);}
	.st76{clip-path:url(#SVGID_100_);}
	.st77{clip-path:url(#SVGID_102_);}
	.st78{clip-path:url(#SVGID_104_);}
	.st79{clip-path:url(#SVGID_106_);}
	.st80{clip-path:url(#SVGID_108_);}
	.st81{clip-path:url(#SVGID_110_);}
	.st82{clip-path:url(#SVGID_112_);}
	.st83{clip-path:url(#SVGID_114_);}
	.st84{clip-path:url(#SVGID_116_);}
	.st85{clip-path:url(#SVGID_118_);}
</style>
<rect x="-1.6" y="606.9" class="st0" width="611" height="603.7"/>
<rect x="-0.5" y="3.5" class="st1" width="610.7" height="603"/>
<circle class="st0" cx="124.1" cy="900.1" r="67.4"/>
<image style="overflow:visible;enable-background:new    ;" width="186" height="186" xlink:href="8C19B21E.png"  transform="matrix(1 0 0 1 30.4743 806.5521)">
</image>
<image style="overflow:visible;enable-background:new    ;" width="155" height="116" xlink:href="8C19B219.png"  transform="matrix(1 0 0 1 45.4743 841.5521)">
</image>
<image style="overflow:visible;enable-background:new    ;" width="111" height="110" xlink:href="8C19B218.png"  transform="matrix(1 0 0 1 68.4743 844.5521)">
</image>
<image style="overflow:visible;enable-background:new    ;" width="88" height="87" xlink:href="8C19B217.png"  transform="matrix(1 0 0 1 80.4743 856.5521)">
</image>
<circle class="st2" cx="123.6" cy="899.5" r="55.6"/>
<path class="st2" d="M163.2,900.7v0.2c-0.1,0.1-0.2,0.2-0.3,0.2c-5.8,7-13,12.5-21.3,16.3c-4.2,1.9-8.7,3.1-13.3,3.6l-2.3,0.2H122
	c-0.2,0-0.3-0.1-0.5-0.1c-2.1-0.1-4.3-0.4-6.3-0.9c-5.9-1.3-11.5-3.7-16.5-7c-5.4-3.5-10.3-7.6-14.7-12.2l-0.3-0.3
	c0.1-0.1,0.2-0.2,0.3-0.3c4.9-5.1,10.4-9.6,16.6-13.1c6.3-3.8,13.3-6.2,20.6-7.1c4-0.4,8.1-0.2,12.1,0.6c5.5,1.2,10.8,3.4,15.4,6.6
	c4.9,3.3,9.4,7.3,13.2,11.9C162.4,899.7,162.8,900.2,163.2,900.7z"/>
<path class="st2" d="M124.2,916.6c3.4,0,6.7-1,9.5-2.9c7.8-4.9,10.2-15.3,5.2-23.1c-0.8-1.2-1.7-2.4-2.8-3.4
	c-6.3-5.8-15.8-6.3-22.8-1.3c-6.2,4.4-8.7,12.4-6,19.5C110.2,912.3,116.9,916.8,124.2,916.6z"/>
<path class="st2" d="M117.8,900c0.1-3.1,2.4-5.8,5.5-6.3c2.9-0.5,5.7,1,7,3.6c1.5,3.2,0.1,6.9-3.1,8.4c-0.4,0.2-0.9,0.4-1.4,0.5
	c-3.4,0.8-6.8-1.2-7.7-4.6C117.9,901.1,117.9,900.6,117.8,900z"/>
<circle class="st0" cx="303.5" cy="900.1" r="67.4"/>
<image style="overflow:visible;enable-background:new    ;" width="186" height="186" xlink:href="8C19B226.png"  transform="matrix(1 0 0 1 210.4743 806.5521)">
</image>
<image style="overflow:visible;enable-background:new    ;" width="120" height="109" xlink:href="8C19B229.png"  transform="matrix(1 0 0 1 243.4743 821.5521)">
</image>
<image style="overflow:visible;enable-background:new    ;" width="130" height="114" xlink:href="8C19B228.png"  transform="matrix(1 0 0 1 238.4743 855.5521)">
</image>
<circle class="st3" cx="303.5" cy="901.3" r="55.6"/>
<path class="st3" d="M289.7,893.5h-9c0.1-4.8-0.3-9.7,0.2-14.5c1.1-9.6,9.4-18,18.9-19.3c12.2-1.9,23.7,6.2,25.9,18.3
	c0.6,3,0.4,6,0.4,8.9c0,2.2,0,4.4,0,6.5h-9.1c0-3.2,0-6.5,0-9.7c0.1-1.7-0.1-3.4-0.5-5.1c-1.9-7.3-9.3-11.7-16.6-9.8
	c-6,1.5-10.2,6.9-10.3,13.1C289.7,885.8,289.8,889.7,289.7,893.5z"/>
<path class="st3" d="M326.2,893.5c0.8,0,1.5,0,2.3,0c1.2-0.1,2.2,0.8,2.3,2c0,0.1,0,0.2,0,0.3c0,11.4,0,22.8,0,34.2
	c0,1.1-0.7,1.7-1.4,2.3h-51.8c-1-0.8-1.6-2.1-1.4-3.4c0-10.6,0-21.2,0-31.8c0-2.9,0.5-3.5,3.5-3.5l1.1,0L326.2,893.5L326.2,893.5z
	 M303.4,925.5h3.3c2.7,0,2.9-0.2,2.4-3c0-0.2-0.1-0.5-0.2-0.7c-0.6-2.3-1.2-4.6-1.8-6.9c-0.4-1-0.1-2.1,0.7-2.8
	c2.1-2,1.9-5.5-0.4-7.8c-1.9-2.1-5.1-2.4-7.3-0.5c-0.2,0.1-0.3,0.3-0.4,0.4c-2.4,2.3-2.6,5.8-0.4,7.9c0.8,0.6,1,1.7,0.7,2.7
	c-0.5,1.8-1,3.6-1.5,5.5c-0.4,1.4-0.7,2.8-0.7,4.2c0,0.8,0.3,1,1,1C300.3,925.5,301.8,925.5,303.4,925.5z"/>
<circle class="st0" cx="483.7" cy="900.1" r="67.4"/>
<image style="overflow:visible;enable-background:new    ;" width="186" height="186" xlink:href="8C19B22F.png"  transform="matrix(1 0 0 1 390.4743 807.5521)">
</image>
<image style="overflow:visible;enable-background:new    ;" width="138" height="144" xlink:href="8C19B22E.png"  transform="matrix(1 0 0 1 416.4744 830.5521)">
</image>
<circle class="st4" cx="483.6" cy="900.9" r="55.6"/>
<circle class="st0" cx="124.1" cy="1095.9" r="69.9"/>
<image style="overflow:visible;enable-background:new    ;" width="190" height="190" xlink:href="3FB6BE37.png"  transform="matrix(1 0 0 1 28.4743 1000.5521)">
</image>
<image style="overflow:visible;enable-background:new    ;" width="158" height="118" xlink:href="3FB6BE33.png"  transform="matrix(1 0 0 1 44.4743 1036.5521)">
</image>
<image style="overflow:visible;enable-background:new    ;" width="111" height="110" xlink:href="3FB6BE2E.png"  transform="matrix(1 0 0 1 68.4743 1040.5521)">
</image>
<image style="overflow:visible;enable-background:new    ;" width="88" height="88" xlink:href="3FB6BE2F.png"  transform="matrix(1 0 0 1 80.4743 1051.5521)">
</image>
<circle class="st5" cx="123.6" cy="1095.3" r="57.7"/>
<path class="st6" d="M164.7,1094.6v0.2c-0.1,0.1-0.2,0.2-0.3,0.3c-6,7.2-13.5,13-22,16.9c-4.4,2-9,3.3-13.8,3.8l-2.4,0.3h-4.2
	c-0.2,0-0.3-0.1-0.5-0.1c-2.2-0.1-4.4-0.4-6.6-0.9c-6.1-1.4-11.9-3.9-17.1-7.3c-5.6-3.6-10.7-7.9-15.3-12.7l-0.3-0.3l0.3-0.3
	c5-5.3,10.8-9.9,17.2-13.6c6.5-3.9,13.8-6.4,21.4-7.3c4.2-0.4,8.4-0.2,12.6,0.6c5.7,1.2,11.2,3.5,16,6.8c5.1,3.5,9.7,7.6,13.7,12.3
	L164.7,1094.6z"/>
<path class="st5" d="M124.3,1113.1c3.5,0,7-1.1,9.9-3c8.1-5.1,10.5-15.8,5.4-23.9c-0.8-1.3-1.8-2.5-2.9-3.5
	c-6.6-6-16.5-6.6-23.7-1.4c-6.4,4.6-9,12.9-6.2,20.3C109.6,1108.6,116.6,1113.2,124.3,1113.1z"/>
<path class="st5" d="M117.6,1095.8c0.1-3.3,2.5-6,5.7-6.5c3-0.5,5.9,1,7.3,3.7c1.5,3.3,0.1,7.2-3.2,8.7c-0.5,0.2-0.9,0.4-1.4,0.5
	c-3.5,0.8-7-1.3-8-4.7C117.7,1096.9,117.6,1096.4,117.6,1095.8z"/>
<circle class="st0" cx="303.5" cy="1095.9" r="69.9"/>
<image style="overflow:visible;enable-background:new    ;" width="190" height="190" xlink:href="3FB6BE4F.png"  transform="matrix(1 0 0 1 208.4743 1000.5521)">
</image>
<image style="overflow:visible;enable-background:new    ;" width="122" height="110" xlink:href="3FB6BE53.png"  transform="matrix(1 0 0 1 242.4743 1016.5521)">
</image>
<image style="overflow:visible;enable-background:new    ;" width="132" height="115" xlink:href="3FB6BE57.png"  transform="matrix(1 0 0 1 237.4743 1051.5521)">
</image>
<circle class="st3" cx="303.5" cy="1097.2" r="57.7"/>
<path class="st3" d="M289.2,1089.1h-9.4c0.1-5-0.3-10,0.3-15c1.1-9.9,9.8-18.7,19.6-20.1c13-1.7,24.2,6.2,26.9,19
	c0.6,3.1,0.4,6.2,0.4,9.3c0,2.3,0,4.5,0,6.8h-9.4c0-3.3,0-6.7,0-10c0.1-1.8-0.1-3.5-0.5-5.3c-1.9-7.6-9.6-12.2-17.2-10.3
	c-6.2,1.6-10.6,7.1-10.7,13.5C289.2,1081.1,289.2,1085.1,289.2,1089.1z"/>
<path class="st3" d="M327,1089.1c0.8,0,1.6,0,2.4,0c1.3-0.1,2.3,0.9,2.4,2.1c0,0.1,0,0.2,0,0.3c0,11.8,0,23.6,0,35.4
	c0,1.2-0.8,1.7-1.5,2.4h-53.8c-1.1-0.9-1.6-2.2-1.5-3.6c0-11,0-22,0-33c0-3,0.6-3.6,3.6-3.6l1.2,0L327,1089.1L327,1089.1z
	 M303.4,1122.2h3.4c2.8,0,3-0.2,2.5-3.1c0-0.2-0.1-0.5-0.2-0.7c-0.6-2.4-1.2-4.8-1.9-7.1c-0.4-1-0.1-2.2,0.7-2.9
	c2.2-2.1,2-5.7-0.4-8.1c-2-2.2-5.4-2.4-7.6-0.5c-0.1,0.1-0.3,0.3-0.4,0.4c-2.5,2.4-2.7,6-0.4,8.2c0.8,0.7,1.1,1.8,0.7,2.8
	c-0.6,1.9-1.1,3.8-1.6,5.7c-0.4,1.4-0.7,2.9-0.7,4.3c0,0.8,0.3,1,1,1C300.1,1122.2,301.8,1122.2,303.4,1122.2z"/>
<circle class="st0" cx="483.7" cy="1095.9" r="69.9"/>
<image style="overflow:visible;enable-background:new    ;" width="190" height="190" xlink:href="3FB6BE55.png"  transform="matrix(1 0 0 1 388.4743 1001.5521)">
</image>
<image style="overflow:visible;enable-background:new    ;" width="141" height="146" xlink:href="3FB6BE5C.png"  transform="matrix(1 0 0 1 415.4744 1025.5521)">
</image>
<circle class="st5" cx="483.6" cy="1098.6" r="57.7"/>
<path class="st5" d="M453.1,1079.8c0-1.5,0-3,0-4.5s0.2-1.5,1.5-1.6c4.3-0.3,8.5-1,12.6-2.1c6.4-1.7,12.4-4.4,17.8-8.2
	c1-0.7,1.1-0.7,2,0c7.3,5.1,15.7,8.5,24.6,9.8c2,0.3,4,0.4,5.9,0.6c0.8,0.1,1.1,0.3,1.1,1.2c-0.2,10.5-1.7,20.8-5.9,30.5
	c-3.9,9.2-10.2,17.3-18.2,23.4c-2.6,2-5.3,3.6-8,5.4c-0.4,0.3-0.9,0.3-1.3,0.1c-7.2-3.3-13.6-8-18.9-14c-4.6-5.4-8-11.6-10.1-18.4
	c-1.7-5.4-2.7-11-3-16.6C453.2,1083.5,453.1,1081.6,453.1,1079.8L453.1,1079.8z M513.1,1079.8v-0.7c0-1.2-0.2-1.3-1.4-1.5
	c-1.8-0.2-3.6-0.3-5.4-0.6c-6.7-1.1-13.1-3.8-18.6-7.8c-0.4-0.3-0.8-0.6-1.3-0.3c-0.5,0.3-0.5,0.8-0.5,1.3v33.4c0,7.7,0,15.4,0,23.1
	c0,1.2,0.7,1.6,1.7,1c0.8-0.5,1.6-1,2.4-1.5c7.9-5.1,14.1-12.4,17.9-21C511.4,1097.1,512.8,1088.7,513.1,1079.8L513.1,1079.8z"/>
<path class="st7" d="M330.2,708.9c0.9,0,1.8,0,2.7,0.1c1.4-0.1,2.6,0.9,2.7,2.3c0,0.1,0,0.2,0,0.4c0,13.4,0,26.8,0,40.2
	c0,1.3-0.8,2-1.7,2.7h-61c-1.2-1-1.8-2.5-1.7-4c0.1-12.5,0-25,0-37.4c0-3.4,0.7-4.1,4.1-4.1c0.4,0,0.9,0,1.3-0.1L330.2,708.9
	L330.2,708.9z M303.4,746.5h3.8c3.2,0,3.4-0.3,2.8-3.5c0-0.3-0.1-0.5-0.2-0.8c-0.7-2.7-1.4-5.4-2.2-8.1c-0.5-1.1-0.2-2.5,0.8-3.3
	c2.5-2.4,2.3-6.4-0.4-9.1c-2.2-2.5-6.1-2.8-8.6-0.6c-0.2,0.2-0.3,0.3-0.5,0.5c-2.8,2.7-3,6.8-0.5,9.3c0.9,0.8,1.2,2,0.8,3.1
	c-0.6,2.1-1.2,4.3-1.8,6.4c-0.5,1.6-0.8,3.3-0.8,4.9c0,0.9,0.3,1.1,1.2,1.1C299.7,746.5,301.6,746.5,303.4,746.5z"/>
<path class="st8" d="M287.4,708.9h-10.6c0.1-5.7-0.4-11.4,0.3-17c1.3-11.3,11.1-21.2,22.3-22.7c14.7-2,27.5,7,30.5,21.6
	c0.7,3.5,0.4,7,0.5,10.5c0,2.6,0,5.1,0,7.7h-10.7c0-3.8,0-7.6,0-11.4c0.1-2-0.1-4-0.5-6c-2.2-8.6-11-13.7-19.6-11.5
	c-7,1.8-11.9,8.1-12,15.3C287.3,699.9,287.4,704.4,287.4,708.9z"/>
<path class="st9" d="M303.4,746.5c-1.8,0-3.7,0-5.5,0c-0.9,0-1.1-0.2-1.2-1.1c0-1.7,0.3-3.3,0.8-4.9c0.6-2.2,1.2-4.3,1.8-6.4
	c0.4-1.1,0.1-2.4-0.8-3.1c-2.6-2.5-2.3-6.5,0.5-9.3c2.3-2.5,6.1-2.7,8.6-0.4c0.2,0.2,0.3,0.3,0.5,0.5c2.7,2.7,2.9,6.8,0.4,9.1
	c-1,0.8-1.3,2.1-0.8,3.3c0.8,2.7,1.5,5.4,2.2,8.1c0.1,0.3,0.1,0.5,0.2,0.8c0.7,3.2,0.4,3.5-2.8,3.5L303.4,746.5z"/>
<path class="st8" d="M170.9,711.8v0.2c-0.1,0.1-0.2,0.2-0.3,0.3c-6.8,8.2-15.3,14.7-25,19.1c-4.9,2.2-10.2,3.7-15.6,4.3l-2.7,0.3
	h-4.8c-0.2,0-0.4-0.1-0.6-0.1c-2.5-0.1-5-0.5-7.5-1c-6.9-1.6-13.5-4.4-19.4-8.3c-6.3-4.1-12.1-8.9-17.3-14.4l-0.3-0.4l0.3-0.4
	c5.7-6.1,12.3-11.3,19.5-15.4c7.4-4.5,15.7-7.3,24.2-8.3c4.8-0.5,9.6-0.3,14.2,0.7c6.5,1.4,12.7,4,18.2,7.7
	c5.8,3.9,11,8.6,15.6,13.9C169.9,710.7,170.4,711.2,170.9,711.8z M124.9,731.9c4,0,7.9-1.2,11.2-3.4c9.2-5.8,11.9-18,6.1-27.1
	c-0.9-1.5-2-2.8-3.3-4c-7.4-6.8-18.6-7.5-26.8-1.6c-7.3,5.2-10.2,14.6-7,23C108.4,726.8,116.2,732,124.9,731.9L124.9,731.9z"/>
<path class="st7" d="M124.9,731.9c-8.7,0.2-16.6-5.1-19.8-13.2c-3.2-8.4-0.3-17.8,7-23c8.2-5.9,19.4-5.2,26.8,1.6
	c8,7.4,8.5,19.8,1.1,27.8c-1.2,1.3-2.5,2.4-4,3.3C132.8,730.6,128.9,731.8,124.9,731.9z M113.1,712c0.2,1,0.2,1.9,0.5,2.9
	c1.7,6,7.8,9.5,13.8,8.1c6.1-1.2,10.1-7.2,8.8-13.3c-0.2-0.9-0.4-1.7-0.8-2.5c-2.8-5.8-9.8-8.2-15.6-5.4
	C115.8,703.7,113.3,707.6,113.1,712L113.1,712z"/>
<path class="st9" d="M113.1,712c0.2-6.5,5.6-11.5,12-11.4c4.4,0.1,8.3,2.7,10.2,6.6c2.6,5.7,0.1,12.4-5.5,15
	c-0.8,0.4-1.6,0.6-2.5,0.8c-6,1.4-12.1-2.2-13.8-8.1C113.3,713.9,113.2,712.9,113.1,712z"/>
<path class="st8" d="M446.6,690.2c0-1.7,0-3.4,0-5.1s0.2-1.7,1.7-1.8c4.8-0.3,9.6-1.1,14.3-2.4c7.2-1.9,14-5,20.2-9.3
	c1.2-0.8,1.2-0.8,2.3,0c8.3,5.8,17.8,9.6,27.9,11.1c2.2,0.3,4.5,0.4,6.7,0.6c1,0.1,1.3,0.4,1.2,1.3c-0.2,11.9-1.9,23.6-6.7,34.6
	c-4.4,10.5-11.5,19.6-20.6,26.5c-2.9,2.2-6.1,4.1-9.1,6.1c-0.4,0.3-1,0.4-1.5,0.1c-8.2-3.7-15.5-9.1-21.4-15.8
	c-5.2-6.1-9.1-13.2-11.4-20.8c-1.9-6.1-3.1-12.4-3.4-18.8c-0.1-2.1-0.2-4.3-0.3-6.4L446.6,690.2z M514.6,690.3v-0.9
	c0-1.3-0.2-1.5-1.5-1.7c-2-0.2-4.1-0.3-6.1-0.7c-7.6-1.3-14.8-4.3-21.1-8.9c-0.5-0.3-0.9-0.7-1.5-0.4s-0.6,0.9-0.6,1.5
	c0,12.7,0,25.3,0,37.9c0,8.7,0,17.4,0,26.2c0,1.4,0.7,1.8,1.9,1.1c0.9-0.5,1.8-1.1,2.7-1.7c8.9-5.8,16-14,20.3-23.8
	C512.7,709.9,514.3,700.3,514.6,690.3L514.6,690.3z"/>
<path class="st7" d="M514.6,690.3c-0.3,10-1.9,19.6-5.9,28.7c-4.3,9.7-11.4,18-20.3,23.8c-0.9,0.6-1.8,1.2-2.7,1.7
	c-1.2,0.7-1.9,0.3-1.9-1.1c0-8.7,0-17.4,0-26.2c0-12.7,0-25.3,0-37.9c0-0.6,0-1.2,0.6-1.5c0.6-0.3,1.1,0.1,1.5,0.4
	c6.2,4.6,13.5,7.6,21.1,8.9c2,0.3,4.1,0.5,6.1,0.7c1.4,0.1,1.5,0.3,1.5,1.7V690.3z"/>
<path class="st7" d="M337.1,296.3c0.9,0,1.8,0,2.7,0.1c1.4-0.1,2.6,0.9,2.7,2.3c0,0.1,0,0.2,0,0.4c0,13.4,0,26.8,0,40.2
	c0,1.3-0.9,2-1.7,2.7h-61c-1.2-1-1.9-2.5-1.7-4c0.1-12.5,0-25,0-37.4c0-3.4,0.6-4,4.1-4.1c0.5,0,0.9,0,1.3-0.1L337.1,296.3
	L337.1,296.3z M310.3,333.9h3.9c3.2,0,3.4-0.3,2.8-3.5c-0.1-0.3-0.1-0.5-0.2-0.8c-0.7-2.7-1.4-5.4-2.2-8.1c-0.5-1.1-0.2-2.5,0.8-3.3
	c2.5-2.4,2.3-6.4-0.4-9.1c-2.2-2.5-6.1-2.8-8.6-0.6c-0.2,0.2-0.3,0.3-0.5,0.5c-2.8,2.7-3,6.8-0.5,9.2c0.9,0.8,1.2,2,0.8,3.1
	c-0.6,2.1-1.2,4.3-1.8,6.4c-0.5,1.6-0.8,3.3-0.8,4.9c0,0.9,0.3,1.1,1.2,1.1C306.6,333.9,308.5,333.9,310.3,333.9z"/>
<path class="st9" d="M294.3,296.3h-10.6c0.1-5.7-0.4-11.4,0.3-17c1.3-11.3,11.1-21.2,22.3-22.7c14.7-2,27.5,7,30.5,21.6
	c0.7,3.5,0.4,7,0.5,10.5c0,2.6,0,5.1,0,7.7h-10.7c0-3.8,0-7.6,0-11.4c0.1-2-0.1-4-0.5-6c-2.2-8.6-10.9-13.8-19.5-11.6
	c-7.1,1.8-12.1,8.1-12.1,15.4C294.2,287.3,294.3,291.8,294.3,296.3z"/>
<path class="st0" d="M310.3,333.9c-1.8,0-3.7,0-5.5,0c-0.9,0-1.1-0.2-1.2-1.1c0-1.7,0.3-3.3,0.8-4.9c0.6-2.1,1.1-4.3,1.8-6.4
	c0.4-1.1,0.1-2.4-0.8-3.1c-2.6-2.5-2.3-6.5,0.5-9.2c2.3-2.5,6.1-2.7,8.6-0.4c0.2,0.2,0.3,0.3,0.5,0.5c2.7,2.7,2.9,6.8,0.4,9.1
	c-1,0.8-1.3,2.1-0.8,3.3c0.8,2.7,1.5,5.4,2.2,8.1c0.1,0.3,0.1,0.5,0.2,0.8c0.6,3.2,0.4,3.5-2.8,3.5L310.3,333.9z"/>
<path class="st9" d="M202.4,299.2v0.2c-0.1,0.1-0.2,0.2-0.3,0.3c-6.8,8.2-15.3,14.7-25,19.1c-4.9,2.3-10.2,3.7-15.6,4.3l-2.8,0.3
	h-4.8c-0.2,0-0.4-0.1-0.6-0.1c-2.5-0.2-5-0.5-7.5-1c-6.9-1.6-13.5-4.4-19.4-8.3c-6.3-4.1-12.1-8.9-17.3-14.4l-0.3-0.4l0.3-0.4
	c5.7-6.1,12.3-11.2,19.5-15.4c7.4-4.5,15.7-7.3,24.3-8.3c4.8-0.5,9.6-0.3,14.3,0.7c6.5,1.4,12.7,4,18.2,7.7c5.8,3.9,11,8.7,15.6,14
	C201.4,298.1,201.9,298.6,202.4,299.2z M156.4,319.2c4,0,7.9-1.2,11.2-3.4c9.2-5.8,11.9-18,6.1-27.1c-0.9-1.5-2-2.8-3.3-4
	c-7.4-6.8-18.7-7.5-26.9-1.6c-7.3,5.2-10.2,14.6-7,23C139.8,314.2,147.7,319.4,156.4,319.2L156.4,319.2z"/>
<path class="st7" d="M156.4,319.2c-8.7,0.2-16.6-5.1-19.8-13.1c-3.2-8.4-0.3-17.8,7-23c8.2-5.9,19.4-5.2,26.9,1.6
	c8,7.4,8.5,19.8,1.1,27.8c-1.2,1.3-2.5,2.4-4,3.3C164.3,318,160.4,319.2,156.4,319.2z M144.5,299.3c0.1,1,0.3,1.9,0.5,2.9
	c1.7,6,7.8,9.5,13.8,8.1c6.1-1.3,10-7.2,8.8-13.3c-0.2-0.8-0.4-1.7-0.8-2.5c-2.8-5.8-9.8-8.2-15.6-5.4
	C147.2,291.1,144.7,295,144.5,299.3L144.5,299.3z"/>
<path d="M144.5,299.3c0.2-6.5,5.6-11.5,12-11.3c4.4,0.1,8.3,2.7,10.2,6.6c2.6,5.6,0.2,12.3-5.5,15c-0.8,0.4-1.6,0.6-2.5,0.8
	c-6,1.4-12.1-2.2-13.8-8.1C144.8,301.3,144.6,300.3,144.5,299.3z"/>
<path class="st9" d="M426.7,277.6c0-1.7,0-3.4,0-5.1s0.2-1.7,1.7-1.8c4.8-0.3,9.6-1.1,14.3-2.4c7.2-1.9,14-5.1,20.2-9.3
	c1.2-0.8,1.2-0.8,2.3,0c8.3,5.8,17.8,9.6,27.9,11.1c2.2,0.3,4.5,0.4,6.7,0.6c1,0.1,1.2,0.4,1.2,1.3c-0.2,11.9-1.9,23.6-6.7,34.6
	c-4.4,10.5-11.5,19.6-20.6,26.5c-2.9,2.2-6.1,4.1-9.1,6.1c-0.4,0.3-1,0.4-1.5,0.1c-8.2-3.7-15.5-9.1-21.4-15.8
	c-5.2-6.1-9.1-13.2-11.4-20.8c-1.9-6.1-3.1-12.4-3.5-18.8c-0.1-2.1-0.2-4.3-0.4-6.4L426.7,277.6z M494.7,277.7v-0.9
	c0-1.3-0.2-1.5-1.5-1.6c-2-0.2-4.1-0.4-6.1-0.7c-7.6-1.3-14.8-4.3-21.1-8.9c-0.5-0.3-0.9-0.7-1.5-0.4s-0.6,0.9-0.6,1.5
	c0,12.7,0,25.3,0,37.9c0,8.7,0,17.4,0,26.1c0,1.4,0.7,1.8,1.9,1.1c0.9-0.6,1.8-1.1,2.7-1.7c8.9-5.8,16-14,20.3-23.8
	C492.8,297.3,494.3,287.7,494.7,277.7L494.7,277.7z"/>
<path class="st7" d="M494.6,277.7c-0.3,10-1.9,19.6-5.9,28.7c-4.3,9.7-11.4,18-20.3,23.8c-0.9,0.6-1.8,1.2-2.7,1.7
	c-1.2,0.7-1.9,0.3-1.9-1.1c0-8.7,0-17.4,0-26.1c0-12.7,0-25.3,0-37.9c0-0.6,0-1.1,0.6-1.5s1.1,0.1,1.5,0.4
	c6.2,4.5,13.5,7.6,21.1,8.9c2,0.3,4.1,0.5,6.1,0.7c1.4,0.1,1.5,0.3,1.5,1.6L494.6,277.7z"/>
<path class="st10" d="M202.4,112.2v0.2c-0.1,0.1-0.2,0.2-0.3,0.3c-6.8,8.2-15.3,14.7-25,19.1c-4.9,2.3-10.2,3.7-15.6,4.3l-2.8,0.3
	h-4.8c-0.2,0-0.4-0.1-0.6-0.1c-2.5-0.1-5-0.5-7.5-1c-6.9-1.6-13.5-4.4-19.4-8.3c-6.3-4.1-12.1-8.9-17.3-14.4l-0.3-0.3l0.3-0.4
	c5.7-6.1,12.3-11.2,19.5-15.4c7.4-4.5,15.7-7.3,24.3-8.3c4.8-0.5,9.6-0.3,14.3,0.7c6.5,1.4,12.7,4,18.2,7.7
	c5.8,3.9,11,8.6,15.6,13.9C201.4,111.1,201.9,111.6,202.4,112.2z M156.4,132.3c4,0,7.9-1.2,11.2-3.4c9.2-5.8,11.9-17.9,6.2-27.1
	c-0.9-1.5-2-2.8-3.3-4c-7.4-6.8-18.6-7.5-26.8-1.6c-7.3,5.2-10.2,14.6-7,23C139.8,127.2,147.7,132.4,156.4,132.3L156.4,132.3z"/>
<path class="st3" d="M156.4,132.3c-8.7,0.2-16.6-5.1-19.8-13.2c-3.2-8.4-0.3-17.8,7-23c8.2-5.9,19.4-5.2,26.9,1.6
	c8,7.3,8.5,19.8,1.2,27.8c-1.2,1.3-2.5,2.4-4,3.3C164.3,131,160.4,132.2,156.4,132.3z M144.5,112.4c0.1,1,0.3,1.9,0.5,2.9
	c1.7,6,7.8,9.5,13.8,8.2c6.1-1.3,10-7.2,8.8-13.3c-0.2-0.8-0.4-1.7-0.8-2.4c-2.8-5.8-9.8-8.2-15.6-5.4
	C147.2,104.1,144.7,108,144.5,112.4L144.5,112.4z"/>
<path class="st0" d="M150.9,111.9c0-2.6,2.2-4.7,4.8-4.7c1.8,0,3.4,1.1,4.2,2.7c1.1,2.3,0.1,5-2.2,6c-0.3,0.1-0.6,0.3-1,0.3
	c-2.4,0.6-4.9-0.9-5.6-3.3C151,112.7,150.9,112.3,150.9,111.9z"/>
<path class="st10" d="M426.7,90.6c0-1.7,0-3.4,0-5.1s0.2-1.7,1.7-1.8c4.8-0.3,9.6-1.1,14.3-2.4c7.2-1.9,14-5.1,20.2-9.3
	c1.2-0.8,1.2-0.8,2.3,0c8.3,5.8,17.8,9.6,27.9,11.1c2.2,0.3,4.5,0.4,6.7,0.6c1,0.1,1.2,0.4,1.2,1.3c-0.2,11.9-1.9,23.6-6.7,34.6
	c-4.4,10.5-11.5,19.6-20.6,26.5c-2.9,2.2-6.1,4.1-9.1,6.1c-0.4,0.3-1,0.4-1.5,0.1c-8.2-3.7-15.5-9.1-21.4-15.8
	c-5.2-6.1-9.1-13.2-11.4-20.8c-1.9-6.1-3.1-12.4-3.4-18.8c-0.1-2.1-0.2-4.3-0.4-6.4L426.7,90.6z M494.7,90.7v-0.9
	c0-1.3-0.2-1.5-1.5-1.7c-2-0.2-4.1-0.3-6.1-0.7c-7.6-1.3-14.8-4.3-21.1-8.9c-0.5-0.3-0.9-0.7-1.5-0.4s-0.6,0.9-0.6,1.5
	c0,12.7,0,25.3,0,37.9c0,8.7,0,17.4,0,26.2c0,1.4,0.7,1.8,1.9,1.1c0.9-0.6,1.8-1.1,2.7-1.7c8.9-5.8,16-14,20.3-23.8
	C492.8,110.3,494.3,100.7,494.7,90.7L494.7,90.7z"/>
<path class="st3" d="M494.6,90.7c-0.3,10.1-1.9,19.6-5.9,28.7c-4.3,9.7-11.4,18-20.3,23.8c-0.9,0.6-1.8,1.1-2.7,1.7
	c-1.2,0.7-1.9,0.3-1.9-1.1c0-8.7,0-17.4,0-26.2c0-12.7,0-25.3,0-37.9c0-0.6,0-1.2,0.6-1.5s1.1,0.1,1.5,0.4
	c6.2,4.5,13.5,7.6,21.1,8.9c2,0.3,4.1,0.5,6.1,0.7c1.4,0.1,1.5,0.3,1.5,1.7L494.6,90.7z"/>
<path class="st10" d="M294.3,109.3h-10.6c0.1-5.7-0.4-11.4,0.3-17c1.3-11.3,11.1-21.2,22.3-22.7c14.7-2,27.5,7.1,30.5,21.6
	c0.7,3.5,0.4,7,0.5,10.5c0,2.6,0,5.1,0,7.7h-10.7c0-3.8,0-7.6,0-11.4c0.1-2-0.1-4-0.5-6c-2.2-8.6-10.9-13.8-19.5-11.6
	c-7.1,1.8-12.1,8.1-12.1,15.4C294.2,100.3,294.3,104.8,294.3,109.3z"/>
<path class="st3" d="M294.3,109.3h-10.6c0.1-5.7-0.4-11.4,0.3-17c1.3-11.3,11.1-21.2,22.3-22.7c14.7-2,27.5,7.1,30.5,21.6
	c0.7,3.5,0.4,7,0.5,10.5c0,2.6,0,5.1,0,7.7h-10.7c0-3.8,0-7.6,0-11.4c0.1-2-0.1-4-0.5-6c-2.2-8.6-10.9-13.8-19.5-11.6
	c-7.1,1.8-12.1,8.1-12.1,15.4C294.2,100.3,294.3,104.8,294.3,109.3z"/>
<path class="st10" d="M337.1,109.3c0.9,0,1.8,0,2.7,0.1c1.4-0.1,2.6,1,2.7,2.4c0,0.1,0,0.2,0,0.4c0,13.4,0,26.8,0,40.2
	c0,1.3-0.9,2-1.7,2.7h-61c-1.2-1-1.9-2.5-1.7-4.1c0.1-12.5,0-24.9,0-37.4c0-3.4,0.6-4.1,4.1-4.1c0.5,0,0.9,0,1.3-0.1L337.1,109.3
	L337.1,109.3z M310.3,146.9h3.9c3.2,0,3.4-0.3,2.8-3.5c-0.1-0.3-0.1-0.5-0.2-0.8c-0.7-2.7-1.4-5.4-2.2-8.1c-0.5-1.1-0.2-2.5,0.8-3.3
	c2.5-2.4,2.3-6.4-0.4-9.1c-2.2-2.5-6.1-2.8-8.6-0.6c-0.2,0.2-0.3,0.3-0.5,0.5c-2.8,2.7-3,6.8-0.5,9.3c0.9,0.8,1.2,2,0.8,3.1
	c-0.6,2.1-1.2,4.3-1.8,6.4c-0.5,1.6-0.8,3.3-0.8,4.9c0,0.9,0.3,1.1,1.2,1.1C306.6,146.9,308.5,146.9,310.3,146.9z"/>
<g>
	<g>
		<g>
			<defs>
				<path id="SVGID_1_" d="M337.1,494.2l4,1.3c-0.3-0.1-0.6-0.2-0.9-0.2c-0.8,0-1.7,0-2.5,0l-4-1.3c0.8,0,1.7,0,2.5,0
					C336.5,494.1,336.8,494.1,337.1,494.2z"/>
			</defs>
			<clipPath id="SVGID_2_">
				<use xlink:href="#SVGID_1_"  style="overflow:visible;"/>
			</clipPath>
			<g class="st11">
				<g>
					<path class="st12" d="M337.7,495.4l-4-1.3c0.8,0,1.7,0,2.5,0c0.3,0,0.6,0.1,0.9,0.2l4,1.3c-0.3-0.1-0.6-0.2-0.9-0.2
						C339.4,495.4,338.5,495.4,337.7,495.4"/>
				</g>
			</g>
		</g>
	</g>
	<g>
		<g>
			<defs>
				<polygon id="SVGID_3_" points="318,531.6 318,531.6 317.6,531.4 317.1,531.3 316.7,531.1 316.2,531 315.8,530.8 315.3,530.7 
					314.9,530.5 314.4,530.4 316.2,531 				"/>
			</defs>
			<clipPath id="SVGID_4_">
				<use xlink:href="#SVGID_3_"  style="overflow:visible;"/>
			</clipPath>
			<g class="st13">
				<g>
					<path class="st14" d="M317.7,532.4l-4-1.3c0.2-0.3,0.3-0.6,0.3-0.9c0-0.7-0.1-1.4-0.2-2.1c0-0.3-0.1-0.5-0.2-0.8
						c-0.6-2.7-1.2-5.3-1.8-8c-0.1-0.4-0.2-0.8-0.2-1.2c0-0.6,0.2-1.1,0.6-1.6l4,1.3c-0.4,0.4-0.6,1-0.6,1.6c0,0.4,0.1,0.8,0.2,1.2
						c0.6,2.7,1.2,5.3,1.8,8c0.1,0.3,0.1,0.5,0.2,0.8c0.1,0.7,0.2,1.4,0.2,2.1C318,531.9,317.9,532.2,317.7,532.4"/>
				</g>
			</g>
		</g>
	</g>
	<g>
		<g>
			<defs>
				<polygon id="SVGID_5_" points="313.8,528.2 313.8,528.2 317.8,529.5 317.8,529.5 317.3,529.4 316.8,529.2 316.3,529 
					315.8,528.8 315.2,528.7 314.7,528.5 314.2,528.3 313.8,528.2 				"/>
			</defs>
			<clipPath id="SVGID_6_">
				<use xlink:href="#SVGID_5_"  style="overflow:visible;"/>
			</clipPath>
			<g class="st15">
				<g>
					<path class="st14" d="M317.7,532.4l-4-1.3c0.2-0.3,0.3-0.6,0.3-0.9c0-0.7-0.1-1.4-0.2-2.1c0-0.3-0.1-0.5-0.2-0.8
						c-0.6-2.7-1.2-5.3-1.8-8c-0.1-0.4-0.2-0.8-0.2-1.2c0-0.6,0.2-1.1,0.6-1.6l4,1.3c-0.4,0.4-0.6,1-0.6,1.6c0,0.4,0.1,0.8,0.2,1.2
						c0.6,2.7,1.2,5.3,1.8,8c0.1,0.3,0.1,0.5,0.2,0.8c0.1,0.7,0.2,1.4,0.2,2.1C318,531.9,317.9,532.2,317.7,532.4"/>
				</g>
			</g>
		</g>
	</g>
	<g>
		<g>
			<defs>
				<path id="SVGID_7_" d="M313.8,528.2c0-0.3-0.1-0.5-0.2-0.8l4,1.3c0.1,0.3,0.1,0.5,0.2,0.8l-0.5-0.2l-0.5-0.2l-0.5-0.2l-0.5-0.2
					l-0.5-0.2l-0.5-0.2l-0.5-0.2L313.8,528.2z"/>
			</defs>
			<clipPath id="SVGID_8_">
				<use xlink:href="#SVGID_7_"  style="overflow:visible;"/>
			</clipPath>
			<g class="st16">
				<g>
					<path class="st14" d="M317.7,532.4l-4-1.3c0.2-0.3,0.3-0.6,0.3-0.9c0-0.7-0.1-1.4-0.2-2.1c0-0.3-0.1-0.5-0.2-0.8
						c-0.6-2.7-1.2-5.3-1.8-8c-0.1-0.4-0.2-0.8-0.2-1.2c0-0.6,0.2-1.1,0.6-1.6l4,1.3c-0.4,0.4-0.6,1-0.6,1.6c0,0.4,0.1,0.8,0.2,1.2
						c0.6,2.7,1.2,5.3,1.8,8c0.1,0.3,0.1,0.5,0.2,0.8c0.1,0.7,0.2,1.4,0.2,2.1C318,531.9,317.9,532.2,317.7,532.4"/>
				</g>
			</g>
		</g>
	</g>
	<g>
		<g>
			<defs>
				<polygon id="SVGID_9_" points="313.6,527.4 313.6,527.4 317.6,528.7 317.6,528.7 317.1,528.6 316.6,528.4 316.1,528.2 
					315.6,528 315.1,527.9 314.6,527.7 314.1,527.5 313.6,527.4 				"/>
			</defs>
			<clipPath id="SVGID_10_">
				<use xlink:href="#SVGID_9_"  style="overflow:visible;"/>
			</clipPath>
			<g class="st17">
				<g>
					<path class="st14" d="M317.7,532.4l-4-1.3c0.2-0.3,0.3-0.6,0.3-0.9c0-0.7-0.1-1.4-0.2-2.1c0-0.3-0.1-0.5-0.2-0.8
						c-0.6-2.7-1.2-5.3-1.8-8c-0.1-0.4-0.2-0.8-0.2-1.2c0-0.6,0.2-1.1,0.6-1.6l4,1.3c-0.4,0.4-0.6,1-0.6,1.6c0,0.4,0.1,0.8,0.2,1.2
						c0.6,2.7,1.2,5.3,1.8,8c0.1,0.3,0.1,0.5,0.2,0.8c0.1,0.7,0.2,1.4,0.2,2.1C318,531.9,317.9,532.2,317.7,532.4"/>
				</g>
			</g>
		</g>
	</g>
	<g>
		<g>
			<defs>
				<path id="SVGID_11_" d="M314,530.2c0-0.7-0.1-1.4-0.2-2.1l4,1.3c0.1,0.7,0.2,1.4,0.2,2.1l0,0L314,530.2l4,1.3
					c0,1.3-0.8,1.4-2.9,1.4l-4-1.3C313.2,531.7,313.9,531.5,314,530.2z"/>
			</defs>
			<clipPath id="SVGID_12_">
				<use xlink:href="#SVGID_11_"  style="overflow:visible;"/>
			</clipPath>
			<g class="st18">
				<g>
					<path class="st12" d="M315,533l-4-1.3c0.7,0,1.3,0,2-0.2l4,1.3C316.4,533,315.7,533,315,533"/>
					<path class="st19" d="M317,532.8l-4-1.3c0.1,0,0.3-0.1,0.4-0.1l4,1.3C317.3,532.8,317.2,532.8,317,532.8"/>
					<path class="st20" d="M317.4,532.7l-4-1.3l0.2-0.1l4,1.3C317.6,532.6,317.5,532.7,317.4,532.7"/>
					<path class="st21" d="M317.6,532.6l-4-1.3c0,0,0.1-0.1,0.1-0.1l4,1.3L317.6,532.6"/>
					<path class="st14" d="M317.7,532.4l-4-1.3c0.2-0.3,0.3-0.6,0.3-0.9c0-0.7-0.1-1.4-0.2-2.1c0-0.3-0.1-0.5-0.2-0.8
						c-0.6-2.7-1.2-5.3-1.8-8c-0.1-0.4-0.2-0.8-0.2-1.2c0-0.6,0.2-1.1,0.6-1.6l4,1.3c-0.4,0.4-0.6,1-0.6,1.6c0,0.4,0.1,0.8,0.2,1.2
						c0.6,2.7,1.2,5.3,1.8,8c0.1,0.3,0.1,0.5,0.2,0.8c0.1,0.7,0.2,1.4,0.2,2.1C318,531.9,317.9,532.2,317.7,532.4"/>
				</g>
			</g>
		</g>
	</g>
	<g>
		<g>
			<defs>
				<path id="SVGID_13_" d="M313.6,527.4c-0.6-2.7-1.2-5.3-1.8-8l4,1.3c0.6,2.7,1.2,5.3,1.8,8l-0.5-0.2l-0.5-0.2l-0.5-0.2l-0.5-0.2
					l-0.5-0.2l-0.5-0.2l-0.5-0.2L313.6,527.4z"/>
			</defs>
			<clipPath id="SVGID_14_">
				<use xlink:href="#SVGID_13_"  style="overflow:visible;"/>
			</clipPath>
			<g class="st22">
				<g>
					<path class="st14" d="M317.7,532.4l-4-1.3c0.2-0.3,0.3-0.6,0.3-0.9c0-0.7-0.1-1.4-0.2-2.1c0-0.3-0.1-0.5-0.2-0.8
						c-0.6-2.7-1.2-5.3-1.8-8c-0.1-0.4-0.2-0.8-0.2-1.2c0-0.6,0.2-1.1,0.6-1.6l4,1.3c-0.4,0.4-0.6,1-0.6,1.6c0,0.4,0.1,0.8,0.2,1.2
						c0.6,2.7,1.2,5.3,1.8,8c0.1,0.3,0.1,0.5,0.2,0.8c0.1,0.7,0.2,1.4,0.2,2.1C318,531.9,317.9,532.2,317.7,532.4"/>
				</g>
			</g>
		</g>
	</g>
	<g>
		<g>
			<defs>
				<path id="SVGID_15_" d="M311.6,518.2c0-0.8,0.4-1.5,1-2l4,1.3c-0.6,0.5-1,1.2-1,2c0,0.4,0.1,0.8,0.2,1.2l0,0l-0.5-0.2l-0.5-0.2
					l-0.5-0.2l-0.5-0.2l-0.5-0.2l-0.5-0.2l-0.5-0.2l-0.5-0.2l0,0C311.6,519,311.6,518.6,311.6,518.2z"/>
			</defs>
			<clipPath id="SVGID_16_">
				<use xlink:href="#SVGID_15_"  style="overflow:visible;"/>
			</clipPath>
			<g class="st23">
				<g>
					<path class="st14" d="M317.7,532.4l-4-1.3c0.2-0.3,0.3-0.6,0.3-0.9c0-0.7-0.1-1.4-0.2-2.1c0-0.3-0.1-0.5-0.2-0.8
						c-0.6-2.7-1.2-5.3-1.8-8c-0.1-0.4-0.2-0.8-0.2-1.2c0-0.6,0.2-1.1,0.6-1.6l4,1.3c-0.4,0.4-0.6,1-0.6,1.6c0,0.4,0.1,0.8,0.2,1.2
						c0.6,2.7,1.2,5.3,1.8,8c0.1,0.3,0.1,0.5,0.2,0.8c0.1,0.7,0.2,1.4,0.2,2.1C318,531.9,317.9,532.2,317.7,532.4"/>
					<path class="st21" d="M316.2,517.9l-4-1.3c0.1-0.2,0.3-0.3,0.4-0.5c0.2-0.2,0.4-0.4,0.5-0.6l4,1.3c-0.2,0.2-0.3,0.4-0.5,0.6
						C316.4,517.6,316.3,517.8,316.2,517.9"/>
				</g>
			</g>
		</g>
	</g>
	<g>
		<g>
			<defs>
				<path id="SVGID_17_" d="M314.3,512c0-1.8-0.7-3.6-1.9-4.9l4,1.3c1.3,1.3,1.9,3.1,1.9,4.9L314.3,512l4,1.4c0,1.6-0.7,3-1.8,4.1
					l-0.5-0.2l-0.5-0.2l-0.5-0.2l-0.5-0.2l-0.5-0.2l-0.5-0.2l-0.5-0.2l-0.5-0.2C313.7,515.1,314.3,513.6,314.3,512z"/>
			</defs>
			<clipPath id="SVGID_18_">
				<use xlink:href="#SVGID_17_"  style="overflow:visible;"/>
			</clipPath>
			<g class="st24">
				<g>
					<path class="st21" d="M316.2,517.9l-4-1.3c0.1-0.2,0.3-0.3,0.4-0.5c0.2-0.2,0.4-0.4,0.5-0.6l4,1.3c-0.2,0.2-0.3,0.4-0.5,0.6
						C316.4,517.6,316.3,517.8,316.2,517.9"/>
					<path class="st14" d="M317.1,516.9l-4-1.3c0.8-1,1.2-2.3,1.2-3.5c0-1.8-0.7-3.6-1.9-4.9c-0.2-0.2-0.5-0.5-0.7-0.7
						c-0.6-0.5-1.2-0.8-1.9-1.1l4,1.3c0.7,0.2,1.3,0.6,1.9,1.1c0.2,0.2,0.5,0.4,0.7,0.7c1.3,1.3,1.9,3.1,1.9,4.9
						C318.3,514.6,317.9,515.9,317.1,516.9"/>
				</g>
			</g>
		</g>
	</g>
	<g>
		<g>
			<defs>
				<path id="SVGID_19_" d="M312.4,507.1c-0.2-0.2-0.5-0.5-0.7-0.7l4,1.3c0.2,0.2,0.5,0.4,0.7,0.7l0,0l-0.5-0.1l-0.5-0.2l-0.5-0.2
					l-0.5-0.2l-0.5-0.2l-0.5-0.2l-0.5-0.2L312.4,507.1z"/>
			</defs>
			<clipPath id="SVGID_20_">
				<use xlink:href="#SVGID_19_"  style="overflow:visible;"/>
			</clipPath>
			<g class="st25">
				<g>
					<path class="st14" d="M317.1,516.9l-4-1.3c0.8-1,1.2-2.3,1.2-3.5c0-1.8-0.7-3.6-1.9-4.9c-0.2-0.2-0.5-0.5-0.7-0.7
						c-0.6-0.5-1.2-0.8-1.9-1.1l4,1.3c0.7,0.2,1.3,0.6,1.9,1.1c0.2,0.2,0.5,0.4,0.7,0.7c1.3,1.3,1.9,3.1,1.9,4.9
						C318.3,514.6,317.9,515.9,317.1,516.9"/>
				</g>
			</g>
		</g>
	</g>
	<g>
		<g>
			<defs>
				<path id="SVGID_21_" d="M306.1,533.1l-4-1.3h0.1h0.5c0.5,0,1,0,1.5,0h3.3h3.6l4,1.3h-3.6c-1.1,0-2.2,0-3.3,0h-1.5H306.1
					L306.1,533.1z"/>
			</defs>
			<clipPath id="SVGID_22_">
				<use xlink:href="#SVGID_21_"  style="overflow:visible;"/>
			</clipPath>
			<g class="st26">
				<g>
					<path class="st12" d="M306.1,533.1l-4-1.3h0.1h0.5c0.5,0,1,0,1.5,0h3.3h3.6l4,1.3h-3.6c-1.1,0-2.2,0-3.3,0h-1.5H306.1"/>
				</g>
			</g>
		</g>
	</g>
	<g>
		<g>
			<defs>
				<polygon id="SVGID_23_" points="302,531.8 302.1,531.8 306.1,533.1 306,533.1 305.5,533 305,532.8 304.5,532.6 304,532.5 
					303.5,532.3 302.9,532.1 302.4,531.9 302,531.8 				"/>
			</defs>
			<clipPath id="SVGID_24_">
				<use xlink:href="#SVGID_23_"  style="overflow:visible;"/>
			</clipPath>
			<g class="st27">
				<g>
					<path class="st12" d="M305.6,533.1l-4-1.3c0.1,0,0.3,0.1,0.4,0.1h0.1l4,1.3H306C305.8,533.1,305.7,533.1,305.6,533.1"/>
				</g>
			</g>
		</g>
	</g>
	<g>
		<g>
			<defs>
				<path id="SVGID_25_" d="M301.6,531.7c0.1,0,0.3,0.1,0.4,0.1l4,1.3c-0.1,0-0.3,0-0.4-0.1L301.6,531.7z"/>
			</defs>
			<clipPath id="SVGID_26_">
				<use xlink:href="#SVGID_25_"  style="overflow:visible;"/>
			</clipPath>
			<g class="st28">
				<g>
					<path class="st12" d="M305.6,533.1l-4-1.3c0.1,0,0.3,0.1,0.4,0.1h0.1l4,1.3H306C305.8,533.1,305.7,533.1,305.6,533.1"/>
				</g>
			</g>
		</g>
	</g>
	<g>
		<g>
			<defs>
				<path id="SVGID_27_" d="M311.7,506.4c-0.6-0.5-1.2-0.8-1.9-1.1l4,1.3c0.7,0.2,1.3,0.6,1.9,1.1l-0.5-0.1l-0.5-0.2l-0.5-0.2
					l-0.5-0.2l-0.5-0.2l-0.5-0.2l-0.3-0.1l-0.5-0.2C311.9,506.4,311.8,506.4,311.7,506.4z"/>
			</defs>
			<clipPath id="SVGID_28_">
				<use xlink:href="#SVGID_27_"  style="overflow:visible;"/>
			</clipPath>
			<g class="st29">
				<g>
					<path class="st14" d="M317.1,516.9l-4-1.3c0.8-1,1.2-2.3,1.2-3.5c0-1.8-0.7-3.6-1.9-4.9c-0.2-0.2-0.5-0.5-0.7-0.7
						c-0.6-0.5-1.2-0.8-1.9-1.1l4,1.3c0.7,0.2,1.3,0.6,1.9,1.1c0.2,0.2,0.5,0.4,0.7,0.7c1.3,1.3,1.9,3.1,1.9,4.9
						C318.3,514.6,317.9,515.9,317.1,516.9"/>
				</g>
			</g>
		</g>
	</g>
	<g>
		<g>
			<defs>
				<path id="SVGID_29_" d="M309.8,505.3l4,1.3c-0.5-0.2-1-0.2-1.5-0.3h-0.1l-4-1.3h0.1C308.8,505,309.3,505.1,309.8,505.3z"/>
			</defs>
			<clipPath id="SVGID_30_">
				<use xlink:href="#SVGID_29_"  style="overflow:visible;"/>
			</clipPath>
			<g class="st30">
				<g>
					<path class="st31" d="M312.2,506.4l-4-1.3h0.1c0.5,0,1,0.1,1.5,0.3l4,1.3c-0.5-0.2-1-0.2-1.5-0.3L312.2,506.4"/>
				</g>
			</g>
		</g>
	</g>
	<g>
		<g>
			<defs>
				<path id="SVGID_31_" d="M305.6,533.1l-4-1.3c-0.3-0.1-0.5-0.4-0.5-0.9v-0.5c0.1-1.6,0.4-3.1,0.9-4.6c0.6-2.1,1.2-4.3,1.9-6.4
					c0.1-0.3,0.2-0.7,0.2-1.1c0-0.8-0.3-1.5-0.9-2c-1.1-1.1-1.7-2.6-1.6-4.2c0.1-1.9,0.9-3.7,2.3-5c0.2-0.2,0.3-0.3,0.5-0.5
					c0.9-0.9,2.1-1.4,3.4-1.5c0.1,0,0.3,0,0.4,0l4,1.3h-0.4c-1.3,0.2-2.4,0.7-3.4,1.5c-0.2,0.1-0.3,0.3-0.5,0.5
					c-1.3,1.3-2.2,3.1-2.3,5c-0.1,1.5,0.5,3.1,1.6,4.2c0.6,0.5,0.9,1.2,0.9,2c0,0.4-0.1,0.7-0.2,1.1c-0.6,2.1-1.2,4.3-1.8,6.4
					c-0.5,1.5-0.8,3-0.9,4.6c0,0.1,0,0.2,0,0.3v0.2C305.1,532.7,305.3,533,305.6,533.1z"/>
			</defs>
			<clipPath id="SVGID_32_">
				<use xlink:href="#SVGID_31_"  style="overflow:visible;"/>
			</clipPath>
			<g class="st32">
				<g>
					<path class="st33" d="M305.6,533.1l-4-1.3c-0.3-0.1-0.5-0.4-0.5-0.9v-0.5c0.1-1.6,0.4-3.1,0.9-4.6c0.6-2.1,1.2-4.3,1.9-6.4
						c0.1-0.3,0.2-0.7,0.2-1.1c0-0.8-0.3-1.5-0.9-2c-1.1-1.1-1.7-2.6-1.6-4.2c0.1-1.6,0.6-3.1,1.6-4.3l4,1.3c-1,1.2-1.5,2.7-1.6,4.3
						c-0.1,1.5,0.5,3.1,1.6,4.2c0.6,0.5,0.9,1.2,0.9,2c0,0.4-0.1,0.7-0.2,1.1c-0.6,2.1-1.2,4.3-1.8,6.4c-0.5,1.5-0.8,3-0.9,4.6
						c0,0.1,0,0.2,0,0.3v0.2C305.1,532.7,305.3,533,305.6,533.1"/>
					<path class="st33" d="M307.2,509.2l-4-1.3c0.2-0.3,0.4-0.5,0.7-0.8c0.2-0.2,0.3-0.3,0.5-0.5l0.1-0.1l4,1.3l-0.1,0.1
						c-0.2,0.1-0.3,0.3-0.5,0.5C307.6,508.6,307.4,508.9,307.2,509.2"/>
					<path class="st34" d="M308.4,507.9l-4-1.3c0.4-0.3,0.8-0.6,1.2-0.8l4,1.3C309.2,507.3,308.8,507.6,308.4,507.9"/>
					<path class="st34" d="M309.6,507.1l-4-1.3c0.4-0.2,0.8-0.4,1.3-0.5l4,1.3C310.4,506.7,310,506.9,309.6,507.1"/>
					<path class="st31" d="M310.9,506.6l-4-1.3c0.3-0.1,0.6-0.1,0.9-0.1c0.1,0,0.3,0,0.4,0l4,1.3h-0.4
						C311.5,506.4,311.2,506.5,310.9,506.6"/>
				</g>
			</g>
		</g>
	</g>
	<path class="st35" d="M312.2,506.4h0.1c1.3,0,2.5,0.5,3.4,1.3c0.2,0.2,0.5,0.4,0.7,0.7c1.3,1.3,1.9,3.1,1.9,4.9
		c0,1.6-0.7,3-1.8,4.1c-0.6,0.5-1,1.2-1,2c0,0.4,0.1,0.8,0.2,1.2c0.6,2.7,1.2,5.3,1.8,8c0.1,0.3,0.1,0.5,0.2,0.8
		c0.1,0.7,0.2,1.4,0.2,2.1c0,1.3-0.8,1.4-2.9,1.4l-3.6,0.1c-1.1,0-2.2,0-3.3,0h-1.5H306c-0.6,0-0.8-0.3-0.9-1V532c0-0.1,0-0.2,0-0.3
		c0.1-1.6,0.4-3.1,0.9-4.6c0.6-2.2,1.2-4.3,1.8-6.4c0.1-0.3,0.2-0.7,0.2-1.1c0-0.8-0.3-1.5-0.9-2c-1.1-1.1-1.7-2.6-1.6-4.2
		c0.1-1.9,0.9-3.7,2.3-5c0.2-0.2,0.3-0.3,0.5-0.5c0.9-0.9,2.1-1.4,3.4-1.5L312.2,506.4z"/>
	<g>
		<g>
			<defs>
				<polygon id="SVGID_33_" points="287.3,496 283.3,494.6 293.3,494.5 323.6,494.2 333.7,494.1 337.7,495.4 327.7,495.5 
					297.3,495.9 				"/>
			</defs>
			<clipPath id="SVGID_34_">
				<use xlink:href="#SVGID_33_"  style="overflow:visible;"/>
			</clipPath>
			<g class="st36">
				<g>
					<path class="st12" d="M287.3,496l-4-1.3l10-0.1l30.4-0.4l10-0.1l4,1.3l-10,0.1l-30.4,0.4L287.3,496"/>
				</g>
			</g>
		</g>
	</g>
	<g>
		<g>
			<defs>
				<path id="SVGID_35_" d="M313.8,465.7l4,1.3c5,1.8,8.7,6,9.8,11.2c0.4,2,0.5,3.9,0.3,5.9c-0.1,3.8-0.2,7.5-0.3,11.3l-4-1.3
					c0.1-3.8,0.2-7.5,0.3-11.3c0.1-2,0-4-0.3-5.9C322.5,471.7,318.8,467.5,313.8,465.7z"/>
			</defs>
			<clipPath id="SVGID_36_">
				<use xlink:href="#SVGID_35_"  style="overflow:visible;"/>
			</clipPath>
			<g class="st37">
				<g>
					<path class="st38" d="M327.6,495.5l-4-1.3c0.1-3.8,0.2-7.5,0.3-11.3c0.1-2,0-4-0.3-5.9c-1.1-5.2-4.8-9.4-9.8-11.2l4,1.3
						c5,1.8,8.7,6,9.8,11.2c0.4,2,0.5,3.9,0.3,5.9C327.8,488,327.7,491.7,327.6,495.5"/>
				</g>
			</g>
		</g>
	</g>
	<g>
		<g>
			<defs>
				<path id="SVGID_37_" d="M317.4,455.8l4,1.3c-2.6-0.8-5.3-1.3-8-1.2l-4-1.3C312.2,454.5,314.9,454.9,317.4,455.8z"/>
			</defs>
			<clipPath id="SVGID_38_">
				<use xlink:href="#SVGID_37_"  style="overflow:visible;"/>
			</clipPath>
			<g class="st39">
				<g>
					<path class="st40" d="M313.4,455.9l-4-1.3c2.7,0,5.4,0.4,8,1.2l4,1.3C318.9,456.3,316.2,455.8,313.4,455.9"/>
				</g>
			</g>
		</g>
	</g>
	<g>
		<g>
			<defs>
				<path id="SVGID_39_" d="M282.5,541.4l-4-1.3c-1.3-1-1.5-2.3-1.5-4c0.4-12.4,0.7-24.8,1-37.2c0.1-3.4,0.7-4,4-4.1
					c0.4,0,0.8,0,1.3-0.1l4,1.3c-0.4,0-0.8,0.1-1.3,0.1c-3.3,0.1-3.9,0.7-4,4.1c-0.3,12.4-0.6,24.8-1,37.2
					C281,539,281.2,540.4,282.5,541.4z"/>
			</defs>
			<clipPath id="SVGID_40_">
				<use xlink:href="#SVGID_39_"  style="overflow:visible;"/>
			</clipPath>
			<g class="st41">
				<g>
					<path class="st14" d="M282.5,541.4l-4-1.3c-1.3-1-1.5-2.3-1.5-4c0.4-12.4,0.7-24.8,1-37.2c-0.1-1.1,0.1-2.2,0.7-3.1l4,1.3
						c-0.5,1-0.8,2.1-0.7,3.1c-0.3,12.4-0.6,24.8-1,37.2C281,539,281.2,540.4,282.5,541.4"/>
					<path class="st21" d="M282.7,497l-4-1.3c0.1-0.1,0.2-0.2,0.3-0.3l4,1.3C282.9,496.8,282.8,496.9,282.7,497"/>
					<path class="st20" d="M283,496.7l-4-1.3c0.1-0.1,0.2-0.2,0.3-0.2l4,1.3C283.2,496.6,283.1,496.6,283,496.7"/>
					<path class="st19" d="M283.3,496.5l-4-1.3c0.2-0.1,0.4-0.2,0.6-0.2l4,1.3C283.7,496.3,283.5,496.4,283.3,496.5"/>
					<path class="st12" d="M283.9,496.3l-4-1.3c0.7-0.2,1.4-0.2,2.1-0.2c0.4,0,0.8,0,1.3-0.1l4,1.3c-0.4,0-0.8,0.1-1.3,0.1
						C285.3,496,284.6,496.1,283.9,496.3"/>
				</g>
			</g>
		</g>
	</g>
	<path class="st42" d="M342.7,498.1c-0.3,13.3-0.7,26.6-1.1,39.9c-0.1,1.1-0.7,2.1-1.7,2.7l-57.5,0.7c-1.3-1-1.5-2.3-1.5-4
		c0.4-12.4,0.7-24.8,1-37.2c0.1-3.4,0.7-4,4-4.1c0.4,0,0.8,0,1.3-0.1l10-0.1l30.4-0.4l10-0.1c0.9,0,1.7,0,2.5,0
		c1.3-0.1,2.5,0.8,2.6,2.1C342.7,497.7,342.7,497.9,342.7,498.1z M315,533c2.2,0,2.9-0.2,2.9-1.4c0-0.7-0.1-1.4-0.2-2.1
		c0-0.3-0.1-0.5-0.2-0.8c-0.6-2.7-1.2-5.3-1.8-8c-0.1-0.4-0.2-0.8-0.2-1.2c0-0.8,0.4-1.5,1-2c1.1-1.1,1.7-2.6,1.8-4.1
		c0-1.8-0.7-3.6-1.9-4.9c-0.2-0.2-0.5-0.5-0.7-0.7c-1-0.8-2.2-1.3-3.4-1.3h-0.1h-0.4c-1.3,0.2-2.4,0.7-3.4,1.5
		c-0.2,0.1-0.3,0.3-0.5,0.5c-1.3,1.3-2.2,3.1-2.3,5c-0.1,1.5,0.5,3.1,1.6,4.2c0.6,0.5,0.9,1.2,0.9,2c0,0.4-0.1,0.7-0.2,1.1
		c-0.6,2.1-1.2,4.3-1.8,6.4c-0.5,1.5-0.8,3-0.9,4.6c0,0.1,0,0.2,0,0.3v0.2c0,0.7,0.3,0.9,0.9,1h0.7h1.5c1.1,0,2.2,0,3.3,0L315,533"
		/>
	<g>
		<g>
			<defs>
				<path id="SVGID_41_" d="M287.3,496l-4-1.3c0.2-5.6,0-11.3,0.7-17c1.5-11.2,11-21.2,21.6-22.8c1.2-0.2,2.5-0.3,3.8-0.3l4,1.3
					c-1.3,0-2.5,0.1-3.8,0.3c-10.6,1.6-20.1,11.6-21.6,22.8C287.2,484.7,287.5,490.3,287.3,496z"/>
			</defs>
			<clipPath id="SVGID_42_">
				<use xlink:href="#SVGID_41_"  style="overflow:visible;"/>
			</clipPath>
			<g class="st43">
				<g>
					<path class="st38" d="M287.3,496l-4-1.3c0.2-5.6,0-11.3,0.7-17c0.7-4.7,2.5-9.1,5.4-12.8l4,1.3c-2.9,3.7-4.8,8.1-5.5,12.8
						C287.2,484.7,287.5,490.3,287.3,496"/>
					<path class="st44" d="M293.4,466.3l-4-1.3c1.3-1.6,2.7-3.2,4.3-4.5l4,1.3C296.1,463.1,294.7,464.6,293.4,466.3"/>
					<path class="st45" d="M297.8,461.8l-4-1.3c1.4-1.1,2.9-2.2,4.5-3l4,1.3C300.7,459.6,299.2,460.6,297.8,461.8"/>
					<path class="st46" d="M302.3,458.7l-4-1.3c1.6-0.9,3.3-1.5,5.1-2l4,1.3C305.6,457.2,303.9,457.9,302.3,458.7"/>
					<path class="st40" d="M307.3,456.7l-4-1.3c0.8-0.2,1.5-0.4,2.3-0.5c1.2-0.2,2.5-0.3,3.8-0.3l4,1.3c-1.3,0-2.5,0.1-3.8,0.3
						C308.8,456.3,308.1,456.5,307.3,456.7"/>
				</g>
			</g>
		</g>
	</g>
	<path class="st47" d="M313.4,455.9c12.2-0.1,22.1,8.3,24.4,21.4c0.6,3.4,0.2,7,0.1,10.4c0,2.5-0.1,5.1-0.2,7.6l-10,0.1
		c0.1-3.8,0.2-7.5,0.3-11.3c0.1-2,0-4-0.3-5.9c-1.6-7.1-7.6-12-14.3-11.9c-0.6,0-1.1,0-1.7,0.1c-7.9,1.2-13.8,7.9-14,15.9
		c-0.2,4.5-0.3,9-0.4,13.5l-10,0.1c0.2-5.6,0-11.3,0.7-17c1.5-11.2,11-21.2,21.6-22.8C310.9,456,312.2,455.9,313.4,455.9z"/>
</g>
<g>
	<g>
		<g>
			<defs>
				<path id="SVGID_43_" d="M164.4,513.6c5.6-3.8,9-10,9.1-16.8l4,1.3c-0.2,6.7-3.5,13-9.1,16.8L164.4,513.6z"/>
			</defs>
			<clipPath id="SVGID_44_">
				<use xlink:href="#SVGID_43_"  style="overflow:visible;"/>
			</clipPath>
			<g class="st48">
				<g>
					<path class="st45" d="M168.4,514.9l-4-1.3c0.6-0.4,1.1-0.8,1.7-1.3l4,1.3C169.6,514.1,169,514.5,168.4,514.9"/>
					<path class="st44" d="M170.1,513.7l-4-1.3c1.2-1,2.2-2.1,3.1-3.3l4,1.3C172.3,511.6,171.3,512.7,170.1,513.7"/>
					<path class="st38" d="M173.2,510.4l-4-1.3c2.7-3.5,4.2-7.8,4.3-12.3c0.2-5.3-1.9-10.4-5.6-14.2c-2-2-4.5-3.6-7.2-4.5l4,1.3
						c2.7,0.9,5.2,2.4,7.2,4.5c3.7,3.8,5.7,8.9,5.6,14.2C177.5,502.6,175.9,506.9,173.2,510.4"/>
				</g>
			</g>
		</g>
	</g>
	<g>
		<g>
			<defs>
				<path id="SVGID_45_" d="M173.6,496.8c0.2-5.3-1.9-10.4-5.6-14.2l4,1.3c3.7,3.8,5.7,8.9,5.6,14.2l-0.5-0.2l-0.5-0.2l-0.5-0.2
					l-0.5-0.2l-0.5-0.2l-0.5-0.2L174,497L173.6,496.8z"/>
			</defs>
			<clipPath id="SVGID_46_">
				<use xlink:href="#SVGID_45_"  style="overflow:visible;"/>
			</clipPath>
			<g class="st49">
				<g>
					<path class="st38" d="M173.2,510.4l-4-1.3c2.7-3.5,4.2-7.8,4.3-12.3c0.2-5.3-1.9-10.4-5.6-14.2c-2-2-4.5-3.6-7.2-4.5l4,1.3
						c2.7,0.9,5.2,2.4,7.2,4.5c3.7,3.8,5.7,8.9,5.6,14.2C177.5,502.6,175.9,506.9,173.2,510.4"/>
				</g>
			</g>
		</g>
	</g>
	<g>
		<g>
			<defs>
				<path id="SVGID_47_" d="M153.8,517.1c3.8-0.1,7.5-1.3,10.7-3.5l4,1.3c-3.1,2.2-6.9,3.4-10.7,3.5l-0.5-0.2l-0.5-0.2l-0.5-0.2
					l-0.5-0.2l-0.5-0.2l-0.5-0.2l-0.5-0.2L153.8,517.1z"/>
			</defs>
			<clipPath id="SVGID_48_">
				<use xlink:href="#SVGID_47_"  style="overflow:visible;"/>
			</clipPath>
			<g class="st50">
				<g>
					<path class="st40" d="M151.3,517.5l-4-1.3c2.1,0.7,4.2,1,6.4,1c1.5,0,3-0.2,4.5-0.7l4,1.3c-1.5,0.4-3,0.6-4.5,0.7
						C155.6,518.5,153.4,518.1,151.3,517.5"/>
					<path class="st46" d="M162.3,517.8l-4-1.3c1.5-0.4,2.9-1,4.3-1.7l4,1.3C165.2,516.8,163.8,517.4,162.3,517.8"/>
					<path class="st45" d="M166.6,516.1l-4-1.3c0.6-0.3,1.3-0.7,1.9-1.2l4,1.3C167.8,515.4,167.2,515.7,166.6,516.1"/>
				</g>
			</g>
		</g>
	</g>
	<g>
		<g>
			<defs>
				<path id="SVGID_49_" d="M164.2,492.5c-0.4-1-0.9-1.9-1.6-2.7l4,1.3c0.7,0.8,1.2,1.7,1.6,2.7c0.6,1.5,0.9,3.1,0.9,4.7
					c-0.1,5.3-3.7,9.8-8.8,11.1l-4-1.3c5.1-1.3,8.7-5.9,8.8-11.1C165.2,495.6,164.9,494,164.2,492.5z"/>
			</defs>
			<clipPath id="SVGID_50_">
				<use xlink:href="#SVGID_49_"  style="overflow:visible;"/>
			</clipPath>
			<g class="st51">
				<g>
					<path class="st12" d="M160.3,509.6l-4-1.3l0.3-0.1l4,1.3L160.3,509.6"/>
					<path class="st19" d="M160.6,509.5l-4-1.3c0.8-0.2,1.6-0.5,2.4-0.9l4,1.3C162.2,509,161.5,509.3,160.6,509.5"/>
					<path class="st20" d="M163,508.6l-4-1.3c0.7-0.4,1.3-0.8,1.9-1.3l4,1.3C164.3,507.8,163.7,508.2,163,508.6"/>
					<path class="st21" d="M164.9,507.3l-4-1.3c0.6-0.5,1.2-1.1,1.7-1.8l4,1.3C166.1,506.1,165.5,506.8,164.9,507.3"/>
					<path class="st14" d="M166.6,505.5l-4-1.3c1.5-2,2.4-4.5,2.5-7c0-1.6-0.3-3.2-0.9-4.6c-1.1-2.8-3.4-4.9-6.3-5.9l4,1.3
						c2.8,1,5.1,3.1,6.3,5.9c0.6,1.5,0.9,3.1,0.9,4.7C169,501,168.2,503.5,166.6,505.5"/>
				</g>
			</g>
		</g>
	</g>
	<g>
		<g>
			<defs>
				<path id="SVGID_51_" d="M152.6,517.1c0.4,0,0.8,0,1.1,0l4,1.3c-0.4,0-0.8,0-1.1,0l-0.5-0.2l-0.5-0.2l-0.5-0.2l-0.5-0.2l-0.5-0.2
					l-0.5-0.2l-0.5-0.2L152.6,517.1z"/>
			</defs>
			<clipPath id="SVGID_52_">
				<use xlink:href="#SVGID_51_"  style="overflow:visible;"/>
			</clipPath>
			<g class="st52">
				<g>
					<path class="st40" d="M151.3,517.5l-4-1.3c2.1,0.7,4.2,1,6.4,1c1.5,0,3-0.2,4.5-0.7l4,1.3c-1.5,0.4-3,0.6-4.5,0.7
						C155.6,518.5,153.4,518.1,151.3,517.5"/>
				</g>
			</g>
		</g>
	</g>
	<g>
		<g>
			<defs>
				<path id="SVGID_53_" d="M156.3,508.3c0.1,0,0.2,0,0.2,0.1l0.5,0.2l3.3,1.1c-0.8,0.2-1.5,0.3-2.3,0.3l-4-1.3
					C154.8,508.5,155.6,508.4,156.3,508.3z"/>
			</defs>
			<clipPath id="SVGID_54_">
				<use xlink:href="#SVGID_53_"  style="overflow:visible;"/>
			</clipPath>
			<g class="st53">
				<g>
					<path class="st12" d="M157.9,509.9l-4-1.3h0.1c0.8,0,1.5-0.1,2.3-0.3l4,1.3c-0.8,0.2-1.5,0.3-2.3,0.3L157.9,509.9"/>
				</g>
			</g>
		</g>
	</g>
	<g>
		<g>
			<defs>
				<polygon id="SVGID_55_" points="154,508.6 154,508.6 158,509.9 157.9,509.9 153.9,508.6 				"/>
			</defs>
			<clipPath id="SVGID_56_">
				<use xlink:href="#SVGID_55_"  style="overflow:visible;"/>
			</clipPath>
			<g class="st54">
				<g>
					<path class="st12" d="M157.9,509.9l-4-1.3h0.1c0.8,0,1.5-0.1,2.3-0.3l4,1.3c-0.8,0.2-1.5,0.3-2.3,0.3L157.9,509.9"/>
				</g>
			</g>
		</g>
	</g>
	<g>
		<g>
			<defs>
				<path id="SVGID_57_" d="M162.6,489.8c-1.2-1.5-2.8-2.6-4.7-3.2l4,1.3c1.8,0.6,3.4,1.7,4.7,3.2l-0.5-0.1l-0.5-0.2l-0.5-0.2
					l-0.5-0.2l-0.5-0.2l-0.3-0.1l-0.5-0.2l-0.2-0.1C162.9,490,162.8,489.9,162.6,489.8z"/>
			</defs>
			<clipPath id="SVGID_58_">
				<use xlink:href="#SVGID_57_"  style="overflow:visible;"/>
			</clipPath>
			<g class="st55">
				<g>
					<path class="st14" d="M166.6,505.5l-4-1.3c1.5-2,2.4-4.5,2.5-7c0-1.6-0.3-3.2-0.9-4.6c-1.1-2.8-3.4-4.9-6.3-5.9l4,1.3
						c2.8,1,5.1,3.1,6.3,5.9c0.6,1.5,0.9,3.1,0.9,4.7C169,501,168.2,503.5,166.6,505.5"/>
				</g>
			</g>
		</g>
	</g>
	<g>
		<g>
			<defs>
				<path id="SVGID_59_" d="M168,482.7c-2-2-4.5-3.6-7.2-4.5l4,1.3c2.7,0.9,5.2,2.4,7.2,4.5l-0.5-0.1l-0.5-0.2l-0.5-0.2l-0.5-0.2
					l-0.5-0.2l-0.5-0.2l-0.3-0.1l-0.3-0.1C168.3,482.8,168.1,482.7,168,482.7z"/>
			</defs>
			<clipPath id="SVGID_60_">
				<use xlink:href="#SVGID_59_"  style="overflow:visible;"/>
			</clipPath>
			<g class="st56">
				<g>
					<path class="st38" d="M173.2,510.4l-4-1.3c2.7-3.5,4.2-7.8,4.3-12.3c0.2-5.3-1.9-10.4-5.6-14.2c-2-2-4.5-3.6-7.2-4.5l4,1.3
						c2.7,0.9,5.2,2.4,7.2,4.5c3.7,3.8,5.7,8.9,5.6,14.2C177.5,502.6,175.9,506.9,173.2,510.4"/>
				</g>
			</g>
		</g>
	</g>
	<g>
		<g>
			<defs>
				<path id="SVGID_61_" d="M152.7,508.5c0.4,0,0.8,0.1,1.1,0l4,1.3c-0.4,0-0.8,0-1.1,0c-0.8-0.1-1.6-0.2-2.3-0.5l-4-1.3
					C151.2,508.3,152,508.4,152.7,508.5l4,1.3l0,0L152.7,508.5L152.7,508.5z"/>
			</defs>
			<clipPath id="SVGID_62_">
				<use xlink:href="#SVGID_61_"  style="overflow:visible;"/>
			</clipPath>
			<g class="st57">
				<g>
					<path class="st12" d="M154.4,509.4l-4-1.3c1.1,0.4,2.3,0.5,3.4,0.5l4,1.3c-0.4,0-0.8,0-1.1,0
						C156,509.8,155.2,509.6,154.4,509.4"/>
				</g>
			</g>
		</g>
	</g>
	<g>
		<g>
			<defs>
				<path id="SVGID_63_" d="M147.3,516.1c1.7,0.6,3.5,0.9,5.3,1l4,1.3c-1.8-0.1-3.6-0.4-5.3-1L147.3,516.1z"/>
			</defs>
			<clipPath id="SVGID_64_">
				<use xlink:href="#SVGID_63_"  style="overflow:visible;"/>
			</clipPath>
			<g class="st58">
				<g>
					<path class="st40" d="M151.3,517.5l-4-1.3c2.1,0.7,4.2,1,6.4,1c1.5,0,3-0.2,4.5-0.7l4,1.3c-1.5,0.4-3,0.6-4.5,0.7
						C155.6,518.5,153.4,518.1,151.3,517.5"/>
				</g>
			</g>
		</g>
	</g>
	<g>
		<g>
			<defs>
				<path id="SVGID_65_" d="M158,486.6l4,1.3c-1.1-0.4-2.2-0.5-3.3-0.5h-0.2l-4-1.3h0.2C155.8,486.1,156.9,486.3,158,486.6z"/>
			</defs>
			<clipPath id="SVGID_66_">
				<use xlink:href="#SVGID_65_"  style="overflow:visible;"/>
			</clipPath>
			<g class="st59">
				<g>
					<path class="st31" d="M158.4,487.4l-4-1.3h0.2c1.1,0,2.3,0.2,3.3,0.5l4,1.3c-1.1-0.4-2.2-0.5-3.3-0.5H158.4"/>
				</g>
			</g>
		</g>
	</g>
	<g>
		<g>
			<defs>
				<path id="SVGID_67_" d="M157.5,487.5l-4-1.3c0.3,0,0.5,0,0.8,0h0.1l4,1.3h-0.1L157.5,487.5z"/>
			</defs>
			<clipPath id="SVGID_68_">
				<use xlink:href="#SVGID_67_"  style="overflow:visible;"/>
			</clipPath>
			<g class="st60">
				<g>
					<path class="st31" d="M157.5,487.5l-4-1.3c0.3,0,0.5,0,0.8,0h0.1l4,1.3h-0.1L157.5,487.5"/>
				</g>
			</g>
		</g>
	</g>
	<g>
		<g>
			<defs>
				<path id="SVGID_69_" d="M156.7,487.6l-4-1.3c0.3,0,0.6-0.1,0.9-0.1l4,1.3L156.7,487.6z"/>
			</defs>
			<clipPath id="SVGID_70_">
				<use xlink:href="#SVGID_69_"  style="overflow:visible;"/>
			</clipPath>
			<g class="st61">
				<g>
					<path class="st31" d="M156.7,487.6l-4-1.3c0.3,0,0.6-0.1,0.9-0.1l4,1.3L156.7,487.6"/>
				</g>
			</g>
		</g>
	</g>
	<g>
		<g>
			<defs>
				<path id="SVGID_71_" d="M160.8,478.2l4,1.3c-1.9-0.7-4-1-6-1h-0.2l-4-1.3h0.2C156.8,477.2,158.8,477.5,160.8,478.2z"/>
			</defs>
			<clipPath id="SVGID_72_">
				<use xlink:href="#SVGID_71_"  style="overflow:visible;"/>
			</clipPath>
			<g class="st62">
				<g>
					<path class="st12" d="M158.5,478.6l-4-1.3h0.2c2,0,4.1,0.3,6,1l4,1.3c-1.9-0.7-4-1-6-1H158.5"/>
				</g>
			</g>
		</g>
	</g>
	<g>
		<g>
			<defs>
				<path id="SVGID_73_" d="M154.4,509.4l-4-1.3c-3.4-1.2-6-4-6.8-7.5c0-0.1,0-0.2,0-0.2c-0.2-0.9-0.3-1.9-0.4-2.8l4,1.3
					c0.1,1,0.2,1.9,0.4,2.8l0.1,0.2C148.5,505.4,151,508.2,154.4,509.4z"/>
			</defs>
			<clipPath id="SVGID_74_">
				<use xlink:href="#SVGID_73_"  style="overflow:visible;"/>
			</clipPath>
			<g class="st63">
				<g>
					<path class="st33" d="M154.4,509.4l-4-1.3c-3.4-1.2-6-4-6.8-7.5c0-0.1,0-0.2,0-0.2c-0.2-0.9-0.3-1.9-0.4-2.8l4,1.3
						c0.1,1,0.2,1.9,0.4,2.8l0.1,0.2C148.5,505.4,151.1,508.2,154.4,509.4"/>
				</g>
			</g>
		</g>
	</g>
	<g>
		<g>
			<defs>
				<path id="SVGID_75_" d="M147.2,498.8l-4-1.3c0.2-5.5,4.3-10.4,9.5-11.2l4,1.3C151.4,488.4,147.4,493.3,147.2,498.8z"/>
			</defs>
			<clipPath id="SVGID_76_">
				<use xlink:href="#SVGID_75_"  style="overflow:visible;"/>
			</clipPath>
			<g class="st64">
				<g>
					<path class="st33" d="M147.2,498.8l-4-1.3c0.1-2.5,1-4.9,2.5-6.9l4,1.3C148.2,493.9,147.3,496.3,147.2,498.8"/>
					<path class="st33" d="M149.7,491.9l-4-1.3c0.5-0.7,1.1-1.3,1.8-1.9l4,1.3C150.8,490.6,150.2,491.2,149.7,491.9"/>
					<path class="st34" d="M151.5,490l-4-1.3c0.6-0.5,1.2-0.9,1.9-1.3l4,1.3C152.7,489.1,152.1,489.5,151.5,490"/>
					<path class="st34" d="M153.4,488.7l-4-1.3c0.7-0.4,1.5-0.7,2.3-0.9l4,1.3C154.9,488,154.2,488.3,153.4,488.7"/>
					<path class="st31" d="M155.7,487.8l-4-1.3c0.3-0.1,0.6-0.1,1-0.2l4,1.3C156.3,487.6,156,487.7,155.7,487.8"/>
				</g>
			</g>
		</g>
	</g>
	<g>
		<g>
			<defs>
				<path id="SVGID_77_" d="M151.3,517.5l-4-1.3c-5.6-1.8-10.1-6.2-11.9-11.9c-0.7-2.2-1-4.4-1-6.7c0.2-6.4,3.2-12.3,8.3-16.2
					c0.3-0.3,0.7-0.5,1-0.7c3.1-2.1,6.7-3.3,10.5-3.4h0.4l4,1.3h-0.4c-3.7,0.1-7.4,1.3-10.5,3.4c-0.3,0.2-0.7,0.5-1,0.7
					c-5.1,3.9-8.1,9.8-8.3,16.2c0,2.3,0.3,4.5,1,6.7C141.3,511.2,145.7,515.6,151.3,517.5z"/>
			</defs>
			<clipPath id="SVGID_78_">
				<use xlink:href="#SVGID_77_"  style="overflow:visible;"/>
			</clipPath>
			<g class="st65">
				<g>
					<path class="st14" d="M151.3,517.5l-4-1.3c-5.6-1.8-10.1-6.2-11.9-11.9c-0.7-2.2-1-4.4-1-6.7c0.1-4.5,1.6-8.8,4.4-12.3l4,1.3
						c-2.7,3.5-4.2,7.8-4.3,12.3c0,2.3,0.3,4.5,1,6.7C141.3,511.2,145.7,515.6,151.3,517.5"/>
					<path class="st21" d="M142.8,486.6l-4-1.3c0.9-1.2,2-2.3,3.1-3.3l4,1.3C144.8,484.3,143.7,485.4,142.8,486.6"/>
					<path class="st20" d="M145.9,483.3l-4-1.3l0.8-0.6c0.3-0.3,0.7-0.5,1-0.7c0.6-0.4,1.1-0.7,1.7-1l4,1.3c-0.6,0.3-1.1,0.6-1.7,1
						c-0.3,0.2-0.7,0.5-1,0.7L145.9,483.3"/>
					<path class="st19" d="M149.4,481l-4-1.3c1.4-0.7,2.8-1.3,4.3-1.7l4,1.3C152.2,479.6,150.8,480.2,149.4,481"/>
					<path class="st12" d="M153.7,479.2l-4-1.3c1.5-0.4,3-0.6,4.5-0.7h0.4l4,1.3h-0.4C156.6,478.6,155.1,478.8,153.7,479.2"/>
				</g>
			</g>
		</g>
	</g>
	<g>
		<g>
			<defs>
				<path id="SVGID_79_" d="M143.1,520.2l-4-1.3c-4.7-1.6-9.3-3.9-13.4-6.7c-5.9-4-11.3-8.8-16-14.1l-0.3-0.4l4,1.3l0.3,0.4
					c4.7,5.3,10.1,10.1,16,14.1C133.8,516.3,138.4,518.6,143.1,520.2z"/>
			</defs>
			<clipPath id="SVGID_80_">
				<use xlink:href="#SVGID_79_"  style="overflow:visible;"/>
			</clipPath>
			<g class="st66">
				<g>
					<path class="st38" d="M143.1,520.2l-4-1.3c-4.7-1.6-9.3-3.9-13.4-6.7c-5.9-4-11.3-8.8-16-14.1l-0.3-0.4l4,1.3l0.3,0.4
						c4.7,5.3,10.1,10.1,16,14.1C133.8,516.3,138.3,518.6,143.1,520.2"/>
				</g>
			</g>
		</g>
	</g>
	<path class="st47" d="M200.3,496.4l1.4,1.6c-0.1,0.2-0.2,0.3-0.3,0.5c-6.5,8.1-14.7,14.7-24.1,19.3c-4.7,2.3-9.7,3.8-14.9,4.4
		l-2.6,0.3l-4.5,0c-0.2,0-0.4-0.1-0.5-0.1c-2.4-0.1-4.7-0.5-7-1c-6.5-1.5-12.6-4.2-18.1-8c-5.9-4-11.3-8.8-16-14.1l-0.3-0.3l0.3-0.4
		c5.5-6,11.8-11.3,18.8-15.5c7-4.5,14.9-7.4,23.1-8.5c1.5-0.2,3.1-0.3,4.7-0.3c2.9,0,5.9,0.3,8.8,0.8c6.1,1.3,11.8,3.9,16.9,7.5
		C191.4,486.6,196.2,491.2,200.3,496.4z M168.4,514.9c5.6-3.8,9-10,9.1-16.8c0.1-5.3-1.9-10.4-5.6-14.2c-3.5-3.5-8.2-5.4-13.2-5.4
		h-0.6c-3.7,0.1-7.4,1.3-10.5,3.4c-0.3,0.2-0.7,0.5-1,0.7c-5.1,3.9-8.1,9.8-8.3,16.2c0,2.3,0.3,4.5,1,6.7c2.6,7.8,10,13.1,18.3,12.9
		C161.6,518.4,165.3,517.1,168.4,514.9"/>
	<path class="st42" d="M172,484c3.7,3.8,5.7,8.9,5.6,14.2c-0.2,6.7-3.6,13-9.1,16.8c-3.1,2.2-6.9,3.4-10.7,3.5
		c-8.3,0.2-15.7-5-18.3-12.9c-0.7-2.2-1-4.4-1-6.7c0.2-6.4,3.2-12.3,8.3-16.2c0.3-0.3,0.7-0.5,1-0.7c3.1-2.1,6.7-3.3,10.5-3.4h0.6
		C163.7,478.5,168.5,480.5,172,484z M160.3,509.6c5.1-1.3,8.7-5.9,8.8-11.1c0-1.6-0.3-3.2-0.9-4.7c-1.6-3.9-5.4-6.4-9.6-6.4h-0.3
		h-0.8l-0.9,0.1c-5.2,0.9-9.3,5.7-9.5,11.2c0.1,1,0.2,1.9,0.4,2.8l0.1,0.2c1,4.4,4.7,7.6,9.1,8c0.4,0,0.8,0.1,1.1,0h0.1
		C158.8,509.9,159.6,509.8,160.3,509.6"/>
	<path class="st35" d="M158.4,487.4h0.2c4.2,0,8,2.5,9.6,6.4c0.6,1.5,0.9,3.1,0.9,4.7c-0.1,5.3-3.7,9.8-8.8,11.1
		c-0.8,0.2-1.5,0.3-2.3,0.3h-0.1c-0.4,0-0.8,0-1.1,0c-4.4-0.4-8.1-3.6-9.1-8l-0.1-0.2c-0.2-0.9-0.3-1.9-0.4-2.8
		c0.2-5.5,4.3-10.4,9.5-11.2l0.9-0.1h0.8H158.4z"/>
	<g>
		<g>
			<defs>
				<path id="SVGID_81_" d="M169.9,475.1l4,1.3c-4.3-1.4-8.9-2.1-13.4-2.1c-1.6,0-3.1,0.1-4.7,0.3c-8.2,1.1-16.1,4-23.1,8.5
					c-7,4.3-13.3,9.5-18.8,15.5l-4-1.3c5.5-6,11.8-11.2,18.8-15.5c7-4.5,14.9-7.4,23.1-8.5c1.5-0.2,3.1-0.3,4.7-0.3
					c2.9,0,5.9,0.2,8.8,0.8C166.8,474.2,168.3,474.6,169.9,475.1z"/>
			</defs>
			<clipPath id="SVGID_82_">
				<use xlink:href="#SVGID_81_"  style="overflow:visible;"/>
			</clipPath>
			<g class="st67">
				<g>
					<path class="st44" d="M113.8,498.7l-4-1.3c2.6-2.8,5.4-5.5,8.3-8l4,1.3C119.2,493.2,116.4,495.8,113.8,498.7"/>
					<path class="st45" d="M122.1,490.7l-4-1.3c3.3-2.8,6.8-5.3,10.5-7.5c1.1-0.7,2.3-1.4,3.4-2l4,1.3c-1.2,0.6-2.3,1.3-3.5,2
						C128.9,485.4,125.4,487.9,122.1,490.7"/>
					<path class="st46" d="M136.1,481.2l-4-1.3c4-2.2,8.3-3.9,12.7-5.2l4,1.3C144.4,477.2,140.1,479,136.1,481.2"/>
					<path class="st40" d="M148.8,476l-4-1.3c2.3-0.6,4.6-1.1,6.9-1.4c1.5-0.2,3.1-0.3,4.7-0.3c2.9,0,5.9,0.2,8.8,0.8
						c1.6,0.3,3.2,0.8,4.7,1.3l4,1.3c-4.3-1.4-8.9-2.2-13.4-2.1c-1.6,0-3.1,0.1-4.7,0.3C153.4,474.9,151.1,475.4,148.8,476"/>
				</g>
			</g>
		</g>
	</g>
	<g>
		<g>
			<defs>
				<path id="SVGID_83_" d="M113.4,499.1l-4-1.3c0.1-0.1,0.2-0.3,0.3-0.4l4,1.3L113.4,499.1z"/>
			</defs>
			<clipPath id="SVGID_84_">
				<use xlink:href="#SVGID_83_"  style="overflow:visible;"/>
			</clipPath>
			<g class="st68">
				<g>
					<path class="st44" d="M113.4,499.1l-4-1.3c0.1-0.1,0.2-0.3,0.3-0.4l4,1.3L113.4,499.1"/>
				</g>
			</g>
		</g>
	</g>
</g>
<g>
	<g>
		<g>
			<defs>
				<path id="SVGID_85_" d="M497,468.7l4,1.3c-0.2-0.1-0.4-0.1-0.5-0.1l-4-1.3C496.7,468.6,496.8,468.7,497,468.7z"/>
			</defs>
			<clipPath id="SVGID_86_">
				<use xlink:href="#SVGID_85_"  style="overflow:visible;"/>
			</clipPath>
			<g class="st69">
				<g>
					<path class="st40" d="M500.4,469.9l-4-1.3c0.2,0,0.4,0.1,0.5,0.1l4,1.3C500.8,470,500.6,470,500.4,469.9"/>
				</g>
			</g>
		</g>
	</g>
	<g>
		<g>
			<defs>
				<polygon id="SVGID_87_" points="491.4,475.5 491.4,474.6 495.4,475.9 495.4,476.8 				"/>
			</defs>
			<clipPath id="SVGID_88_">
				<use xlink:href="#SVGID_87_"  style="overflow:visible;"/>
			</clipPath>
			<g class="st70">
				<g>
					<path class="st38" d="M495.4,476.8l-4-1.3v-0.9c0-1,0-1.3-0.6-1.5l4,1.3c0.5,0.2,0.6,0.5,0.6,1.5V476.8"/>
				</g>
			</g>
		</g>
	</g>
	<g>
		<g>
			<defs>
				<path id="SVGID_89_" d="M491.5,474.6c0-1,0-1.3-0.6-1.5l4,1.3c0.5,0.2,0.6,0.5,0.6,1.5l-2-0.7l-0.5-0.2l-0.5-0.2l-0.5-0.2
					L491.5,474.6z"/>
			</defs>
			<clipPath id="SVGID_90_">
				<use xlink:href="#SVGID_89_"  style="overflow:visible;"/>
			</clipPath>
			<g class="st71">
				<g>
					<path class="st38" d="M495.4,476.8l-4-1.3v-0.9c0-1,0-1.3-0.6-1.5l4,1.3c0.5,0.2,0.6,0.5,0.6,1.5V476.8"/>
				</g>
			</g>
		</g>
	</g>
	<g>
		<g>
			<defs>
				<path id="SVGID_91_" d="M485.1,504.1c4-9,5.8-18.6,6.3-28.5l4,1.3c-0.6,10-2.3,19.5-6.3,28.5c-4.3,9.6-11.1,17.9-19.8,23.8
					c-0.9,0.6-1.7,1.2-2.6,1.7l-0.2,0.1l-0.3,0.1c-0.1,0-0.2,0.1-0.4,0.1l-0.4-0.1L465,531l-0.5-0.2l-0.5-0.2l-0.5-0.2l-0.5-0.2
					l-0.4-0.1l-0.4-0.2h-0.1h-0.1h-0.1h-0.1h-0.1H462H462h-0.1c0.1,0,0.3,0,0.4-0.1c0.1,0,0.2-0.1,0.2-0.1c0.1,0,0.1-0.1,0.2-0.1
					c0.9-0.5,1.8-1.1,2.6-1.7C474,522,480.9,513.8,485.1,504.1z"/>
			</defs>
			<clipPath id="SVGID_92_">
				<use xlink:href="#SVGID_91_"  style="overflow:visible;"/>
			</clipPath>
			<g class="st72">
				<g>
					<path class="st40" d="M465.8,531.3l-4-1.3l0.3-0.1l4,1.3C466,531.3,465.9,531.3,465.8,531.3"/>
					<path class="st46" d="M466.1,531.2l-4-1.3l0.2,0c0.1,0,0.2-0.1,0.2-0.1l4,1.3l-0.2,0.1L466.1,531.2"/>
					<path class="st45" d="M466.5,531.1l-4-1.3l0,0c0.1,0,0.1-0.1,0.2-0.1c0.9-0.5,1.8-1.1,2.6-1.7c1.5-1.1,3-2.2,4.4-3.3l4,1.3
						c-1.4,1.2-2.9,2.3-4.4,3.3c-0.9,0.6-1.7,1.2-2.6,1.7L466.5,531.1L466.5,531.1"/>
					<path class="st44" d="M473.7,525.9l-4-1.3c3.1-2.6,6-5.6,8.5-8.8l4,1.3C479.7,520.3,476.8,523.3,473.7,525.9"/>
					<path class="st38" d="M482.2,517.1l-4-1.3c2.8-3.6,5.1-7.5,7-11.7c4-9,5.8-18.6,6.3-28.5l4,1.3c-0.6,10-2.3,19.5-6.3,28.5
						C487.3,509.6,484.9,513.5,482.2,517.1"/>
				</g>
			</g>
		</g>
	</g>
	<g>
		<g>
			<defs>
				<path id="SVGID_93_" d="M461.9,530c0.1,0,0.2,0,0.2,0.1l0,0l0.3,0.1l3.5,1.2h-0.1l-4-1.3H461.9z"/>
			</defs>
			<clipPath id="SVGID_94_">
				<use xlink:href="#SVGID_93_"  style="overflow:visible;"/>
			</clipPath>
			<g class="st73">
				<g>
					<path class="st40" d="M465.8,531.3l-4-1.3l0.3-0.1l4,1.3C466,531.3,465.9,531.3,465.8,531.3"/>
				</g>
			</g>
		</g>
	</g>
	<g>
		<g>
			<defs>
				<polygon id="SVGID_95_" points="461.6,529.9 461.6,529.9 465.6,531.3 465.6,531.3 465.1,531.1 464.6,531 464.1,530.8 
					463.6,530.6 463.1,530.4 462.5,530.3 462,530.1 				"/>
			</defs>
			<clipPath id="SVGID_96_">
				<use xlink:href="#SVGID_95_"  style="overflow:visible;"/>
			</clipPath>
			<g class="st74">
				<g>
					<path class="st40" d="M465.5,531.3l-4-1.3h0L465.5,531.3L465.5,531.3"/>
				</g>
			</g>
		</g>
	</g>
	<g>
		<g>
			<defs>
				<polygon id="SVGID_97_" points="461.5,529.9 461.6,529.9 465.6,531.3 465.5,531.3 				"/>
			</defs>
			<clipPath id="SVGID_98_">
				<use xlink:href="#SVGID_97_"  style="overflow:visible;"/>
			</clipPath>
			<g class="st75">
				<g>
					<path class="st40" d="M465.5,531.3l-4-1.3h0L465.5,531.3L465.5,531.3"/>
				</g>
			</g>
		</g>
	</g>
	<g>
		<g>
			<defs>
				<path id="SVGID_99_" d="M461.6,529.9c0.1,0,0.1,0,0.2,0l4,1.3c-0.1,0-0.1,0-0.2,0L461.6,529.9z"/>
			</defs>
			<clipPath id="SVGID_100_">
				<use xlink:href="#SVGID_99_"  style="overflow:visible;"/>
			</clipPath>
			<g class="st76">
				<g>
					<path class="st40" d="M465.6,531.3l-4-1.3c0.1,0,0.1,0,0.2,0l4,1.3C465.7,531.3,465.6,531.3,465.6,531.3"/>
				</g>
			</g>
		</g>
	</g>
	<g>
		<g>
			<defs>
				<path id="SVGID_101_" d="M484.2,467.1l-4-1.3c3.2,1.1,6.6,1.8,9.9,2.3c2.1,0.3,4.2,0.4,6.3,0.5l4,1.3c-2.1-0.2-4.2-0.3-6.3-0.5
					C490.8,468.9,487.4,468.2,484.2,467.1z"/>
			</defs>
			<clipPath id="SVGID_102_">
				<use xlink:href="#SVGID_101_"  style="overflow:visible;"/>
			</clipPath>
			<g class="st77">
				<g>
					<path class="st40" d="M484.2,467.1l-4-1.3c3.2,1.1,6.6,1.8,9.9,2.3c2.1,0.3,4.2,0.4,6.3,0.5l4,1.3c-2.1-0.2-4.2-0.3-6.3-0.5
						C490.8,468.9,487.4,468.2,484.2,467.1"/>
				</g>
			</g>
		</g>
	</g>
	<g>
		<g>
			<defs>
				<path id="SVGID_103_" d="M481.8,472.1l-4-1.3c2.1,0.7,4.3,1.2,6.5,1.6c1.9,0.3,3.8,0.4,5.8,0.6c0.3,0,0.6,0.1,0.9,0.1l4,1.3
					c-0.3-0.1-0.6-0.1-0.8-0.1c-1.9-0.2-3.9-0.3-5.8-0.6C486.1,473.3,483.9,472.8,481.8,472.1z"/>
			</defs>
			<clipPath id="SVGID_104_">
				<use xlink:href="#SVGID_103_"  style="overflow:visible;"/>
			</clipPath>
			<g class="st78">
				<g>
					<path class="st12" d="M481.8,472.1l-4-1.3c2.1,0.7,4.3,1.2,6.5,1.6c1.9,0.3,3.8,0.4,5.8,0.6c0.3,0,0.6,0.1,0.9,0.1l4,1.3
						c-0.3-0.1-0.6-0.1-0.8-0.1c-1.9-0.2-3.9-0.3-5.8-0.6C486.1,473.3,483.9,472.8,481.8,472.1"/>
				</g>
			</g>
		</g>
	</g>
	<g>
		<g>
			<defs>
				<path id="SVGID_105_" d="M477.8,470.8c-4.7-1.6-9.2-4-13.1-7l4,1.3c4,3,8.4,5.4,13.1,7L477.8,470.8z"/>
			</defs>
			<clipPath id="SVGID_106_">
				<use xlink:href="#SVGID_105_"  style="overflow:visible;"/>
			</clipPath>
			<g class="st79">
				<g>
					<path class="st38" d="M481.8,472.1l-4-1.3c-4.7-1.6-9.2-4-13.1-7c-0.2-0.2-0.5-0.3-0.7-0.5l4,1.3c0.3,0.1,0.5,0.3,0.7,0.5
						C472.7,468.1,477.1,470.5,481.8,472.1"/>
				</g>
			</g>
		</g>
	</g>
	<g>
		<g>
			<defs>
				<path id="SVGID_107_" d="M464.7,463.8c-0.2-0.2-0.5-0.3-0.7-0.5l4,1.3c0.3,0.1,0.5,0.3,0.7,0.5l0,0l-0.5-0.1l-0.5-0.2l-0.5-0.2
					l-0.5-0.2l-0.5-0.2l-0.5-0.2l-0.5-0.2L464.7,463.8L464.7,463.8z"/>
			</defs>
			<clipPath id="SVGID_108_">
				<use xlink:href="#SVGID_107_"  style="overflow:visible;"/>
			</clipPath>
			<g class="st80">
				<g>
					<path class="st38" d="M481.8,472.1l-4-1.3c-4.7-1.6-9.2-4-13.1-7c-0.2-0.2-0.5-0.3-0.7-0.5l4,1.3c0.3,0.1,0.5,0.3,0.7,0.5
						C472.7,468.1,477.1,470.5,481.8,472.1"/>
				</g>
			</g>
		</g>
	</g>
	<g>
		<g>
			<defs>
				<path id="SVGID_109_" d="M467.7,464.6l-4-1.3c0.1,0,0.2,0,0.3,0l4,1.3C467.9,464.6,467.8,464.6,467.7,464.6z"/>
			</defs>
			<clipPath id="SVGID_110_">
				<use xlink:href="#SVGID_109_"  style="overflow:visible;"/>
			</clipPath>
			<g class="st81">
				<g>
					<path class="st12" d="M467.7,464.6l-4-1.3c0.1,0,0.2,0,0.3,0l4,1.3C467.9,464.6,467.8,464.6,467.7,464.6"/>
				</g>
			</g>
		</g>
	</g>
	<g>
		<g>
			<defs>
				<polygon id="SVGID_111_" points="464,463.3 468,464.7 468,464.7 464,463.3 				"/>
			</defs>
			<clipPath id="SVGID_112_">
				<use xlink:href="#SVGID_111_"  style="overflow:visible;"/>
			</clipPath>
			<g class="st82">
				<g>
					<polyline class="st12" points="468,464.7 464,463.3 464,463.3 468,464.7 468,464.7 					"/>
				</g>
			</g>
		</g>
	</g>
	<g>
		<g>
			<defs>
				<path id="SVGID_113_" d="M465.5,531.3l-4-1.3c-0.3-0.1-0.5-0.5-0.5-0.8c0-0.2,0-0.4,0-0.5c0.2-8.7,0.5-17.3,0.7-26l1-37.7
					c0-0.1,0-0.1,0-0.2c-0.1-0.5,0.2-1,0.6-1.3c0.1-0.1,0.3-0.1,0.4-0.1l4,1.3c-0.2,0-0.3,0.1-0.5,0.1c-0.4,0.3-0.7,0.8-0.6,1.3v0.2
					l-1,37.7c-0.2,8.7-0.5,17.3-0.7,26c0,0.2,0,0.4,0,0.5C465,530.8,465.2,531.1,465.5,531.3z"/>
			</defs>
			<clipPath id="SVGID_114_">
				<use xlink:href="#SVGID_113_"  style="overflow:visible;"/>
			</clipPath>
			<g class="st83">
				<g>
					<path class="st14" d="M465.5,531.3l-4-1.3c-0.3-0.1-0.5-0.5-0.5-0.8c0-0.2,0-0.4,0-0.5c0.2-8.7,0.5-17.3,0.7-26l1-37.7
						c0-0.1,0-0.1,0-0.2c0-0.4,0.1-0.7,0.2-1l4,1.3c-0.2,0.3-0.3,0.6-0.3,1v0.2l-1,37.7c-0.2,8.7-0.5,17.3-0.7,26c0,0.2,0,0.4,0,0.5
						C465,530.8,465.2,531.1,465.5,531.3"/>
					<path class="st21" d="M466.9,465l-4-1.3c0-0.1,0.1-0.1,0.1-0.1l4,1.3L466.9,465"/>
					<path class="st20" d="M467.1,464.9l-4-1.3c0.1-0.1,0.1-0.1,0.2-0.1l0,0l4,1.3l0,0L467.1,464.9"/>
					<path class="st19" d="M467.3,464.7l-4-1.3l0.2-0.1l4,1.3C467.4,464.7,467.3,464.7,467.3,464.7"/>
					<path class="st12" d="M467.5,464.6l-4-1.3h0.2l4,1.3C467.6,464.6,467.6,464.6,467.5,464.6"/>
				</g>
			</g>
		</g>
	</g>
	<path class="st42" d="M467.7,464.6c0.1,0,0.2,0,0.3,0c0.3,0.1,0.5,0.3,0.7,0.5c5.7,4.4,12.5,7.4,19.6,8.6c1.9,0.3,3.8,0.4,5.8,0.6
		c1.3,0.1,1.5,0.3,1.4,1.6v0.9c-0.6,10-2.3,19.5-6.3,28.5c-4.3,9.6-11.1,17.9-19.8,23.8c-0.9,0.6-1.7,1.2-2.6,1.7l-0.2,0.1l-0.3,0.1
		c-0.1,0-0.2,0.1-0.3,0.1c-0.1,0-0.2,0-0.4,0c-0.3-0.1-0.5-0.4-0.6-0.8c0-0.2,0-0.4,0-0.5c0.2-8.7,0.5-17.3,0.7-26l1-37.7V466
		c-0.1-0.5,0.2-1,0.6-1.3C467.4,464.7,467.5,464.6,467.7,464.6z"/>
	<g>
		<g>
			<defs>
				<path id="SVGID_115_" d="M464.3,538.7l-4-1.3c-0.1,0-0.2,0-0.2-0.1c-14.9-6.9-25.9-20.2-29.9-36.1c-1.6-6.1-2.5-12.4-2.7-18.7
					c-0.1-2.1-0.1-4.2-0.2-6.4l4,1.3c0,2.1,0.1,4.3,0.1,6.4c0.2,6.3,1.1,12.6,2.7,18.7c4,15.9,15,29.2,29.9,36.1L464.3,538.7z"/>
			</defs>
			<clipPath id="SVGID_116_">
				<use xlink:href="#SVGID_115_"  style="overflow:visible;"/>
			</clipPath>
			<g class="st84">
				<g>
					<path class="st38" d="M464.3,538.7l-4-1.3c-0.1,0-0.2,0-0.2-0.1c-14.9-6.9-25.9-20.2-29.9-36.1c-1.6-6.1-2.5-12.4-2.7-18.7
						c-0.1-2.1-0.1-4.2-0.2-6.4l4,1.3c0,2.1,0.1,4.3,0.1,6.4c0.2,6.3,1.1,12.6,2.7,18.7c4,15.9,15,29.2,29.9,36.1L464.3,538.7"/>
				</g>
			</g>
		</g>
	</g>
	<path class="st47" d="M500.4,469.9c0.9,0.1,1.2,0.4,1.1,1.3c-0.5,11.9-2.5,23.5-7.2,34.5c-4.4,10.4-11.3,19.5-20.1,26.6
		c-2.8,2.2-5.8,4.1-8.8,6.2c-0.2,0.2-0.5,0.3-0.8,0.3c-0.2,0-0.4-0.1-0.6-0.2c-14.9-6.9-25.9-20.2-29.9-36.1
		c-1.6-6.1-2.5-12.4-2.7-18.7c-0.1-2.1-0.1-4.3-0.1-6.4c0.1-1.7,0.2-3.4,0.3-5.1c0.1-1.5,0.2-1.7,1.7-1.8c4.6-0.4,9.1-1.3,13.5-2.6
		c6.9-2,13.4-5.2,19.3-9.4c0.5-0.4,0.8-0.6,1.1-0.6s0.5,0.2,1.1,0.6c7.6,5.7,16.6,9.4,26,10.7C496.2,469.7,498.4,469.8,500.4,469.9z
		 M495.4,476.8v-0.9c0-1.3-0.1-1.5-1.4-1.6c-1.9-0.2-3.9-0.3-5.8-0.6c-7.1-1.2-13.9-4.2-19.6-8.6c-0.2-0.2-0.5-0.3-0.7-0.5
		c-0.1,0-0.2,0-0.3,0c-0.2,0-0.3,0.1-0.5,0.1c-0.4,0.3-0.7,0.8-0.6,1.3v0.2l-1,37.7c-0.2,8.7-0.5,17.3-0.7,26c0,0.2,0,0.4,0,0.5
		c0.1,0.5,0.3,0.8,0.6,0.8c0.1,0,0.1,0,0.2,0c0.2,0,0.3,0,0.5-0.1l0.3-0.1l0.2-0.1c0.9-0.5,1.8-1.1,2.6-1.7
		c8.7-6,15.5-14.2,19.8-23.8C493.1,496.3,494.8,486.8,495.4,476.8"/>
	<g>
		<g>
			<defs>
				<path id="SVGID_117_" d="M463.3,456.8l4,1.3h-0.2c-0.3,0-0.6,0.2-1.1,0.6c-5.8,4.2-12.4,7.4-19.3,9.4c-4.4,1.3-9,2.1-13.6,2.5
					c-1.4,0.1-1.6,0.3-1.7,1.8c-0.1,1.7-0.1,3.4-0.3,5.1l-4-1.3c0.1-1.7,0.2-3.4,0.3-5.1c0.1-1.5,0.2-1.7,1.7-1.8
					c4.6-0.4,9.1-1.2,13.6-2.5c6.9-2,13.4-5.2,19.3-9.4c0.5-0.4,0.8-0.6,1.1-0.6L463.3,456.8z"/>
			</defs>
			<clipPath id="SVGID_118_">
				<use xlink:href="#SVGID_117_"  style="overflow:visible;"/>
			</clipPath>
			<g class="st85">
				<g>
					<path class="st38" d="M431.3,477.5l-4-1.3c0.1-1.7,0.2-3.4,0.3-5.1c0-0.5,0.1-0.9,0.3-1.4l4,1.3c-0.2,0.4-0.3,0.9-0.3,1.4
						C431.4,474.1,431.4,475.8,431.3,477.5"/>
					<path class="st44" d="M431.8,471.1l-4-1.3c0,0,0.1-0.1,0.1-0.1l4,1.3L431.8,471.1"/>
					<path class="st45" d="M431.9,471l-4-1.3l0.1-0.1l4,1.3L431.9,471"/>
					<path class="st46" d="M432,470.9l-4-1.3c0.1,0,0.2-0.1,0.3-0.1l4,1.3L432,470.9"/>
					<path class="st40" d="M432.3,470.8l-4-1.3c0.3-0.1,0.6-0.1,0.9-0.1c4.1-0.3,8.2-1.1,12.3-2.2l4,1.3c-4,1.1-8.1,1.8-12.3,2.1
						C432.9,470.7,432.6,470.7,432.3,470.8"/>
					<path class="st46" d="M445.4,468.5l-4-1.3l1.3-0.4c4.3-1.2,8.4-2.9,12.3-5l4,1.3c-3.9,2.1-8,3.8-12.3,5L445.4,468.5"/>
					<path class="st45" d="M459,463.1l-4-1.3c2.4-1.3,4.8-2.8,7-4.4c0.3-0.2,0.5-0.4,0.7-0.5l4,1.3c-0.2,0.1-0.5,0.3-0.7,0.5
						C463.8,460.3,461.5,461.8,459,463.1"/>
					<path class="st46" d="M466.7,458.3l-4-1.3c0.1,0,0.2-0.1,0.3-0.1l4,1.3C466.9,458.2,466.8,458.2,466.7,458.3"/>
					<path class="st40" d="M467,458.1l-4-1.3h0.2h0.2l4,1.3h-0.2C467.1,458.1,467,458.1,467,458.1"/>
				</g>
			</g>
		</g>
	</g>
</g>
</svg>
