<svg id="Layer_1" data-name="Layer 1" xmlns="http://www.w3.org/2000/svg" viewBox="0 0 1223.04 603.46"><defs><style>.cls-1{fill:#161616;}.cls-10,.cls-2,.cls-7{font-size:79.06px;}.cls-10,.cls-13,.cls-2,.cls-3,.cls-4,.cls-5,.cls-7,.cls-8{fill:#fff;}.cls-2{font-family:Consolas;}.cls-4{font-size:85.21px;font-family:RobotoMono-Regular, Roboto Mono;}.cls-12,.cls-5,.cls-6,.cls-8,.cls-9{stroke:#fff;stroke-miterlimit:10;}.cls-5{stroke-width:0.25px;}.cls-12,.cls-6,.cls-9{fill:none;}.cls-11,.cls-7{font-family:RobotoMono-Medium, Roboto Mono;font-weight:500;}.cls-9{stroke-width:0.75px;}.cls-10{font-family:RobotoMono-Light, Roboto Mono;}.cls-10,.cls-14{font-weight:300;}.cls-12{stroke-width:2px;}.cls-13{font-size:70.45px;font-family:Poppins-Bold, Poppins;font-weight:700;}.cls-14{font-size:80.52px;font-family:Poppins-Light, Poppins;}.cls-15{font-size:81.63px;}.cls-16{font-size:90.58px;font-family:CourierNewPSMT, Courier New;font-weight:400;}.cls-17{font-size:33.55px;font-family:Poppins-Regular, Poppins;letter-spacing:-0.01em;}.cls-18{letter-spacing:0.07em;}</style></defs><title>skansing-logos</title><rect class="cls-1" x="0.22" y="0.06" width="1223.15" height="604.18"/><text class="cls-2" transform="translate(644.06 340.65)">Skansing it</text><rect class="cls-1" x="1042.22" y="277.31" width="30.06" height="21"/><path class="cls-3" d="M1064.67,284.1a16.31,16.31,0,0,1-.62,4.76,9.56,9.56,0,0,1-1.79,3.45,7.49,7.49,0,0,1-2.85,2.09,10.44,10.44,0,0,1-7.57,0,7.6,7.6,0,0,1-2.86-2.09,9.93,9.93,0,0,1-1.82-3.45,15.94,15.94,0,0,1-.64-4.76v-6.66a16.29,16.29,0,0,1,.63-4.76,9.67,9.67,0,0,1,1.81-3.45,7.62,7.62,0,0,1,2.86-2.1,9.58,9.58,0,0,1,3.76-.71,9.73,9.73,0,0,1,3.79.71,7.55,7.55,0,0,1,2.86,2.1,9.51,9.51,0,0,1,1.81,3.45,16.29,16.29,0,0,1,.63,4.76Zm-13.55-1.74,8.92-6.65a7.34,7.34,0,0,0-1.25-4.22,3.9,3.9,0,0,0-3.21-1.37,3.8,3.8,0,0,0-3.35,1.59,8.61,8.61,0,0,0-1.11,4.88Zm9-3.05-8.92,6.65q.33,5.48,4.46,5.47c3,0,4.46-2.17,4.46-6.53Z"/><text class="cls-4" transform="translate(58.48 346.83)"><tspan xml:space="preserve">SKANSING  </tspan></text><path class="cls-5" d="M534.09,298.48V330.3H541a2.05,2.05,0,0,1,1.36.36,1.24,1.24,0,0,1,.42,1,1.26,1.26,0,0,1-.42,1A2,2,0,0,1,541,333H524.46a2,2,0,0,1-1.36-.38,1.26,1.26,0,0,1-.42-1,1.24,1.24,0,0,1,.42-1,2.05,2.05,0,0,1,1.36-.36h6.93V298.48H520.46v9.24a2.16,2.16,0,0,1-.36,1.4,1.26,1.26,0,0,1-1,.41,1.28,1.28,0,0,1-1-.41,2.09,2.09,0,0,1-.38-1.4V295.81h29.89v11.91a2.1,2.1,0,0,1-.37,1.4,1.34,1.34,0,0,1-1.93,0,2.1,2.1,0,0,1-.37-1.4v-9.24Z"/><path class="cls-5" d="M513,305.68a10.28,10.28,0,0,1-.4,3,6,6,0,0,1-1.13,2.18,4.66,4.66,0,0,1-1.81,1.33,6.2,6.2,0,0,1-2.41.45,6.1,6.1,0,0,1-2.39-.45,4.62,4.62,0,0,1-1.82-1.33,6.2,6.2,0,0,1-1.16-2.18,10.28,10.28,0,0,1-.4-3v-4.23a10.3,10.3,0,0,1,.4-3,5.88,5.88,0,0,1,1.15-2.18,4.69,4.69,0,0,1,1.81-1.33,6.6,6.6,0,0,1,4.79,0,4.72,4.72,0,0,1,1.82,1.33,6,6,0,0,1,1.15,2.18,10.3,10.3,0,0,1,.4,3Zm-8.61-1.11,5.67-4.22a4.66,4.66,0,0,0-.8-2.68,2.78,2.78,0,0,0-4.16.14,5.46,5.46,0,0,0-.71,3.1Zm5.69-1.93-5.66,4.21c.14,2.32,1.09,3.48,2.83,3.48s2.83-1.38,2.83-4.14Z"/><path class="cls-5" d="M509.51,334.89h-2.93V320.78l-4.52,1.65v-2.55l7.27-2.68h.18Z"/><circle class="cls-6" cx="525.25" cy="312.66" r="38.46"/><path class="cls-3" d="M1072.86,81.62h25.79v5.92h-9.38v31.53h9.38V125h-25.79v-5.9H1082V87.54h-9.17Z"/><path class="cls-3" d="M1137.13,87.51h-13.31V125h-7.12V87.51h-13.22V81.62h33.65Z"/><text class="cls-7" transform="translate(652.06 129.08)">SKANSING</text><circle class="cls-6" cx="1104.99" cy="100" r="45.29"/><path class="cls-3" d="M1101.23,109.59a1.22,1.22,0,0,0,1.28-1.58c-.17-1.26-.42-2.5-.58-3.76a1.3,1.3,0,0,1,.31-.93,3.64,3.64,0,0,0,.79-4.48,3.53,3.53,0,0,0-4.12-1.72,3.41,3.41,0,0,0-2.5,2.51,3.33,3.33,0,0,0,1,3.55,1.11,1.11,0,0,1,.41,1.22c-.24,1.16-.42,2.33-.55,3.51s.31,1.68,1.59,1.68h1C1100.32,109.59,1100.77,109.61,1101.23,109.59Z"/><path class="cls-3" d="M95.67,127.41a17.63,17.63,0,0,1-7.82,6.27,30.13,30.13,0,0,1-12.15,2.23q-13.74,0-21.81-7.9l5.5-6.09A23.16,23.16,0,0,0,75.7,128.1a14.72,14.72,0,0,0,8.8-2.49,8.15,8.15,0,0,0,3.48-7,8.65,8.65,0,0,0-1.07-4.47,9.39,9.39,0,0,0-3.65-3.22A40.49,40.49,0,0,0,75.88,108q-9.88-2.92-14.52-7A13.43,13.43,0,0,1,56.73,90.4,14,14,0,0,1,59.35,82a17.08,17.08,0,0,1,7.25-5.67,26.08,26.08,0,0,1,10.48-2q11.92,0,19.83,7.12L91.68,87.4a20.9,20.9,0,0,0-14-5.24,13.81,13.81,0,0,0-7.77,2,6.4,6.4,0,0,0-3,5.67,6.31,6.31,0,0,0,1.24,4,10.61,10.61,0,0,0,4.21,3,71.76,71.76,0,0,0,8.37,3q8.58,2.56,13.09,6.61t4.51,11.76A16.43,16.43,0,0,1,95.67,127.41Z"/><path class="cls-3" d="M110.31,134.8V75.55h10V134.8Zm30.91-59.25h11l-20.69,27,22.32,32.29H141.91L120.7,103.11Z"/><path class="cls-3" d="M169.3,120.54l-4.12,14.26H155l18.89-59.25h12.36L205.1,134.8H194.54l-4.12-14.26Zm19.06-7.73-8.5-29.53-8.5,29.53Z"/><path class="cls-3" d="M219.36,84.39q1.37,14.08,1.37,23.53V134.8h-8.84V75.55h13L243.74,126q-.6-6.35-1-11.46t-.39-12v-27h8.84V134.8h-13Z"/><path class="cls-3" d="M301.75,127.41a17.63,17.63,0,0,1-7.82,6.27,30.13,30.13,0,0,1-12.15,2.23Q268,135.91,260,128l5.5-6.09a23.16,23.16,0,0,0,16.31,6.18,14.72,14.72,0,0,0,8.8-2.49,8.15,8.15,0,0,0,3.48-7A8.65,8.65,0,0,0,293,114.1a9.39,9.39,0,0,0-3.65-3.22A40.49,40.49,0,0,0,282,108q-9.88-2.92-14.52-7a13.43,13.43,0,0,1-4.63-10.65A14,14,0,0,1,265.43,82a17.08,17.08,0,0,1,7.25-5.67,26.08,26.08,0,0,1,10.48-2q11.93,0,19.83,7.12l-5.23,5.93a20.9,20.9,0,0,0-14-5.24,13.81,13.81,0,0,0-7.77,2,6.4,6.4,0,0,0-3,5.67,6.31,6.31,0,0,0,1.24,4,10.61,10.61,0,0,0,4.21,3,71.76,71.76,0,0,0,8.37,3q8.58,2.56,13.09,6.61t4.51,11.76A16.43,16.43,0,0,1,301.75,127.41Z"/><path class="cls-3" d="M352.45,83.1H339.57v44.05h12.88v7.65H316.73v-7.65h12.88V83.1H316.73V75.55h35.72Z"/><path class="cls-3" d="M373.92,84.39q1.36,14.08,1.37,23.53V134.8h-8.84V75.55h13L398.3,126q-.6-6.35-1-11.46t-.39-12v-27h8.84V134.8h-13Z"/><path class="cls-3" d="M421.36,128.06q-6.32-7.86-6.31-23a37.1,37.1,0,0,1,3.48-16.75,24.53,24.53,0,0,1,9.36-10.47,24.79,24.79,0,0,1,13-3.52A25.83,25.83,0,0,1,450.73,76a25.39,25.39,0,0,1,7.77,5.2L452.92,87a19.54,19.54,0,0,0-5.54-3.65,16.16,16.16,0,0,0-6.23-1.16,13.83,13.83,0,0,0-11.29,5.54q-4.42,5.53-4.42,17.39,0,12.19,3.48,17.64t10.69,5.45a19,19,0,0,0,9.78-2.49V109.38h-10l-1-7.64H459.1V130.5a45.09,45.09,0,0,1-9.32,4,37.3,37.3,0,0,1-10.6,1.41Q427.67,135.91,421.36,128.06Z"/><path class="cls-3" d="M545.57,134.8h-10V83.62H517.75V75.55h45.94l-1,8.07H545.57Z"/><circle class="cls-8" cx="496.4" cy="124.22" r="10.01"/><circle class="cls-9" cx="496.4" cy="82.61" r="10.85"/><line class="cls-6" x1="496.4" y1="129.48" x2="496.4" y2="93.05"/><circle class="cls-3" cx="496.4" cy="82.61" r="3.9"/><text class="cls-10" transform="translate(658.44 524.8)">SKANSING<tspan class="cls-11" x="379.55" y="0"> </tspan></text><circle class="cls-12" cx="1069.76" cy="478.72" r="11.06"/><line class="cls-12" x1="1069.71" y1="525.78" x2="1069.71" y2="489.78"/><line class="cls-12" x1="1080.82" y1="476.87" x2="1121.41" y2="476.87"/><line class="cls-12" x1="1101.11" y1="525.39" x2="1101.11" y2="476.87"/><path class="cls-3" d="M1072.37,478.73a1.82,1.82,0,0,1-.7-3.5,4.37,4.37,0,1,0,2.14,2.78A1.79,1.79,0,0,1,1072.37,478.73Z"/><text class="cls-13" transform="translate(63.14 530.65)">SKANSING</text><rect class="cls-3" x="455.71" y="464.59" width="102" height="85"/><text class="cls-14" transform="translate(451.03 533.7)"> <tspan class="cls-15" x="20.93" y="0"> </tspan><tspan class="cls-16" x="42.16" y="0">T</tspan></text><text class="cls-17" transform="translate(472.19 504.46)">0<tspan class="cls-18"><tspan x="5.49" y="29.08">1</tspan></tspan></text></svg>