<?xml version="1.0" encoding="utf-8"?>
<!-- Generator: Adobe Illustrator 24.0.2, SVG Export Plug-In . SVG Version: 6.00 Build 0)  -->
<svg version="1.1" id="Layer_1" xmlns="http://www.w3.org/2000/svg" xmlns:xlink="http://www.w3.org/1999/xlink" x="0px" y="0px"
	 viewBox="0 0 1223 603.5" style="enable-background:new 0 0 1223 603.5;" xml:space="preserve">
<style type="text/css">
	.st0{fill:#161616;}
	.st1{enable-background:new    ;}
	.st2{fill:#FFFFFF;}
	.st3{fill:#FFFFFF;stroke:#FFFFFF;stroke-width:0.25;stroke-miterlimit:10;}
	.st4{fill:none;stroke:#FFFFFF;stroke-miterlimit:10;}
	.st5{fill:#FFFFFF;stroke:#FFFFFF;stroke-miterlimit:10;}
	.st6{fill:none;stroke:#FFFFFF;stroke-width:0.75;stroke-miterlimit:10;}
	.st7{fill:none;stroke:#FFFFFF;stroke-width:2;stroke-miterlimit:10;}
</style>
<title>skansing-logos</title>
<rect x="0.2" y="0.1" class="st0" width="1223.2" height="604.2"/>
<g class="st1">
	<path class="st2" d="M682.5,327c0,2.4-0.5,4.5-1.5,6.3c-1,1.8-2.3,3.3-4.1,4.5s-3.9,2.1-6.3,2.7s-5.2,0.9-8.1,0.9
		c-1.3,0-2.7-0.1-4-0.2c-1.3-0.1-2.6-0.2-3.8-0.4s-2.4-0.3-3.5-0.5c-1.1-0.2-2.1-0.4-2.9-0.7V333c1.9,0.7,4.1,1.3,6.5,1.7
		c2.4,0.4,5.1,0.6,8.2,0.6c2.2,0,4.1-0.2,5.7-0.5c1.6-0.3,2.8-0.9,3.8-1.5c1-0.7,1.7-1.5,2.2-2.5c0.5-1,0.7-2.1,0.7-3.4
		c0-1.4-0.4-2.5-1.1-3.5c-0.8-1-1.8-1.8-3-2.6s-2.6-1.5-4.2-2.1c-1.6-0.6-3.2-1.3-4.8-1.9c-1.6-0.7-3.3-1.4-4.8-2.2
		c-1.6-0.8-3-1.7-4.2-2.8c-1.2-1.1-2.2-2.3-3-3.8c-0.8-1.4-1.1-3.2-1.1-5.1c0-1.7,0.4-3.4,1.1-5.1s1.8-3.2,3.4-4.5
		c1.5-1.3,3.5-2.3,5.8-3.1c2.4-0.8,5.2-1.2,8.5-1.2c0.8,0,1.8,0,2.8,0.1c1,0.1,2,0.2,3,0.3c1,0.1,2,0.3,3,0.5c1,0.2,1.9,0.4,2.8,0.6
		v6.2c-2-0.6-4-1-5.9-1.3c-2-0.3-3.9-0.4-5.8-0.4c-3.9,0-6.8,0.7-8.7,2c-1.9,1.3-2.8,3.1-2.8,5.3c0,1.4,0.4,2.5,1.1,3.5
		c0.8,1,1.8,1.9,3,2.6c1.2,0.8,2.6,1.5,4.2,2.1c1.6,0.6,3.2,1.3,4.8,1.9c1.6,0.7,3.3,1.4,4.8,2.2c1.6,0.8,3,1.7,4.2,2.8
		s2.2,2.4,3,3.8C682.2,323.2,682.5,325,682.5,327z"/>
	<path class="st2" d="M728.6,340.7h-9.2l-18.1-20.8v20.8h-6.7v-54.5h6.7v33.5l17.4-17.7h8.9l-18.2,17.9L728.6,340.7z"/>
	<path class="st2" d="M762.1,340.7l-0.2-5.2c-2.1,2.1-4.3,3.6-6.4,4.5c-2.2,0.9-4.5,1.4-6.9,1.4c-2.2,0-4.1-0.3-5.7-0.8
		c-1.6-0.6-2.9-1.3-3.9-2.3c-1-1-1.8-2.2-2.2-3.5c-0.5-1.3-0.7-2.8-0.7-4.4c0-3.9,1.4-6.9,4.3-9.1c2.9-2.2,7.2-3.3,12.8-3.3h8v-3.4
		c0-2.3-0.7-4.1-2.2-5.5s-3.7-2.1-6.7-2.1c-2.2,0-4.3,0.2-6.5,0.7c-2.1,0.5-4.3,1.2-6.6,2.1v-6.1c0.8-0.3,1.8-0.6,2.8-0.9
		c1-0.3,2.1-0.6,3.3-0.8s2.4-0.4,3.6-0.6c1.3-0.1,2.5-0.2,3.8-0.2c2.3,0,4.5,0.3,6.3,0.8s3.5,1.3,4.8,2.4c1.3,1.1,2.3,2.4,3,4
		c0.7,1.6,1,3.5,1,5.6v26.7H762.1z M761.3,323h-8.5c-1.7,0-3.1,0.2-4.3,0.5c-1.2,0.3-2.2,0.8-3,1.4c-0.8,0.6-1.3,1.4-1.7,2.2
		c-0.4,0.9-0.6,1.8-0.6,2.9c0,0.7,0.1,1.5,0.3,2.1c0.2,0.7,0.6,1.3,1.1,1.8c0.5,0.5,1.2,0.9,2,1.3c0.8,0.3,1.8,0.5,3,0.5
		c1.5,0,3.3-0.5,5.3-1.4s4.1-2.4,6.3-4.5V323z"/>
	<path class="st2" d="M780.6,301.9h6l0.3,6.3c1.1-1.3,2.2-2.5,3.3-3.3c1.1-0.9,2.1-1.6,3.1-2.1c1-0.5,2.1-0.9,3.1-1.1
		c1.1-0.2,2.1-0.3,3.3-0.3c4,0,7,1.2,9.1,3.5c2,2.4,3.1,5.9,3.1,10.6v25.3h-6.7v-24.7c0-3-0.6-5.3-1.7-6.7c-1.1-1.5-2.8-2.2-5.1-2.2
		c-0.8,0-1.6,0.1-2.4,0.4c-0.8,0.2-1.6,0.7-2.5,1.3c-0.8,0.6-1.8,1.4-2.8,2.5c-1,1-2.1,2.3-3.3,3.9v25.7h-6.7V301.9z"/>
	<path class="st2" d="M854.8,330.1c0,1.4-0.2,2.6-0.7,3.7c-0.5,1.1-1.1,2-1.9,2.9c-0.8,0.8-1.7,1.6-2.8,2.1
		c-1.1,0.6-2.2,1.1-3.4,1.5c-1.2,0.4-2.4,0.7-3.7,0.8c-1.3,0.2-2.5,0.3-3.7,0.3c-2.6,0-5-0.1-7.2-0.3s-4.4-0.6-6.5-1.1v-6.2
		c2.3,0.6,4.5,1.1,6.8,1.5c2.2,0.3,4.5,0.5,6.7,0.5c3.2,0,5.6-0.4,7.1-1.3s2.3-2.1,2.3-3.7c0-0.7-0.1-1.3-0.4-1.9
		c-0.2-0.6-0.7-1.1-1.3-1.6c-0.6-0.5-1.6-1-3-1.6c-1.4-0.5-3.2-1.2-5.5-1.9c-1.8-0.5-3.4-1.1-4.8-1.8c-1.5-0.7-2.8-1.4-3.8-2.3
		s-1.9-2-2.5-3.2c-0.6-1.2-0.9-2.6-0.9-4.3c0-1.1,0.3-2.3,0.8-3.6c0.5-1.3,1.4-2.5,2.6-3.6c1.2-1.1,2.8-2,4.9-2.8
		c2.1-0.7,4.6-1.1,7.7-1.1c1.5,0,3.2,0.1,5.1,0.3c1.9,0.2,3.8,0.5,5.8,0.9v6c-2.1-0.5-4.1-0.9-6-1.1c-1.9-0.2-3.5-0.4-4.9-0.4
		c-1.7,0-3.1,0.1-4.2,0.4c-1.1,0.3-2.1,0.6-2.8,1.1c-0.7,0.5-1.2,1-1.5,1.6c-0.3,0.6-0.5,1.3-0.5,2c0,0.7,0.1,1.3,0.4,1.9
		s0.8,1.1,1.5,1.6s1.8,1.1,3.1,1.6c1.3,0.5,3,1.1,5.1,1.7c2.3,0.7,4.2,1.4,5.8,2.1s2.8,1.6,3.8,2.5c1,0.9,1.7,1.9,2.1,3
		S854.8,328.6,854.8,330.1z"/>
	<path class="st2" d="M880.8,307.5h-11.5v-5.6h18.3v33.2h11.5v5.6H868v-5.6h12.7V307.5z M883.1,285.6c0.7,0,1.4,0.1,2.1,0.4
		s1.2,0.7,1.7,1.1c0.5,0.5,0.8,1,1.1,1.7s0.4,1.3,0.4,2.1c0,0.7-0.1,1.4-0.4,2c-0.3,0.6-0.6,1.2-1.1,1.7c-0.5,0.5-1,0.9-1.7,1.1
		s-1.3,0.4-2.1,0.4c-0.7,0-1.4-0.1-2.1-0.4c-0.6-0.3-1.2-0.6-1.7-1.1c-0.5-0.5-0.8-1.1-1.1-1.7c-0.3-0.6-0.4-1.3-0.4-2
		c0-0.7,0.1-1.4,0.4-2.1s0.6-1.2,1.1-1.7c0.5-0.5,1-0.9,1.7-1.1C881.7,285.8,882.4,285.6,883.1,285.6z"/>
	<path class="st2" d="M911,301.9h6l0.3,6.3c1.1-1.3,2.2-2.5,3.3-3.3c1.1-0.9,2.1-1.6,3.1-2.1c1-0.5,2.1-0.9,3.1-1.1
		c1.1-0.2,2.1-0.3,3.3-0.3c4,0,7,1.2,9.1,3.5c2,2.4,3.1,5.9,3.1,10.6v25.3h-6.7v-24.7c0-3-0.6-5.3-1.7-6.7c-1.1-1.5-2.8-2.2-5.1-2.2
		c-0.8,0-1.6,0.1-2.4,0.4c-0.8,0.2-1.6,0.7-2.5,1.3c-0.8,0.6-1.8,1.4-2.8,2.5c-1,1-2.1,2.3-3.3,3.9v25.7H911V301.9z"/>
	<path class="st2" d="M982.4,307.4c0.7,0.9,1.3,1.9,1.7,3.1c0.4,1.2,0.6,2.5,0.6,3.9c0,2-0.4,3.8-1.1,5.5c-0.7,1.7-1.8,3.1-3.1,4.3
		s-2.9,2.1-4.8,2.8c-1.9,0.7-3.9,1-6.2,1c-1.6,0-3.1-0.2-4.6-0.5c-1.4-0.3-2.5-0.8-3.4-1.3c-0.5,0.7-0.9,1.4-1.2,2
		c-0.3,0.6-0.5,1.4-0.5,2.2c0,1,0.5,1.8,1.4,2.4c0.9,0.6,2.2,1,3.7,1l10.2,0.4c1.9,0.1,3.7,0.3,5.3,0.7c1.6,0.4,3,1.1,4.2,1.9
		c1.2,0.8,2.1,1.8,2.7,3c0.7,1.2,1,2.6,1,4.2c0,1.7-0.4,3.4-1.1,4.9c-0.7,1.5-1.9,2.9-3.5,4.1c-1.6,1.2-3.5,2.1-5.9,2.8
		c-2.4,0.7-5.2,1-8.5,1c-3.1,0-5.8-0.3-8-0.8s-4-1.2-5.4-2.1s-2.4-1.9-3.1-3.2c-0.6-1.2-1-2.6-1-4c0-1.9,0.4-3.5,1.3-4.9
		c0.9-1.4,2.2-2.8,4.1-4.1c-0.7-0.3-1.2-0.7-1.7-1.2s-0.9-1-1.2-1.5c-0.3-0.6-0.5-1.1-0.7-1.8c-0.2-0.6-0.2-1.2-0.2-1.8
		c0-1.7,0.4-3.2,1.2-4.6c0.8-1.4,1.7-2.7,2.8-3.9c-0.5-0.6-0.9-1.2-1.3-1.7c-0.4-0.6-0.7-1.2-1-1.8c-0.3-0.7-0.5-1.4-0.6-2.1
		c-0.1-0.8-0.2-1.6-0.2-2.6c0-2,0.4-3.8,1.1-5.5s1.8-3.1,3.1-4.3s2.9-2.1,4.8-2.8s3.9-1,6.2-1c1,0,1.9,0.1,2.7,0.2s1.6,0.3,2.3,0.5
		h14.1v5.5H982.4z M959.1,346.2c0,1.8,1,3.2,2.9,4c1.9,0.8,4.6,1.3,8,1.3c2.1,0,3.9-0.2,5.4-0.6s2.6-0.9,3.5-1.5
		c0.9-0.6,1.5-1.4,1.9-2.2c0.4-0.8,0.6-1.6,0.6-2.5c0-1.6-0.6-2.7-1.9-3.5c-1.3-0.7-3.3-1.2-5.9-1.3l-10.1-0.3
		c-0.8,0.6-1.6,1.1-2.1,1.7c-0.6,0.5-1,1.1-1.3,1.6c-0.3,0.6-0.5,1.1-0.7,1.7S959.1,345.7,959.1,346.2z M961.1,314.6
		c0,1.2,0.2,2.4,0.6,3.4c0.4,1,1,1.9,1.7,2.6c0.7,0.7,1.6,1.3,2.6,1.7c1,0.4,2.1,0.6,3.4,0.6c1.3,0,2.5-0.2,3.6-0.7
		c1-0.5,1.9-1.1,2.6-1.8c0.7-0.8,1.2-1.7,1.6-2.7c0.4-1,0.6-2,0.6-3.1c0-1.2-0.2-2.4-0.6-3.4c-0.4-1-1-1.9-1.7-2.6
		c-0.7-0.7-1.6-1.3-2.6-1.7c-1-0.4-2.1-0.6-3.4-0.6c-1.3,0-2.5,0.2-3.6,0.7c-1,0.5-1.9,1.1-2.6,1.8c-0.7,0.8-1.2,1.6-1.6,2.6
		S961.1,313.5,961.1,314.6z"/>
	<path class="st2" d="M1054.6,307.5h-11.5v-5.6h18.3v33.2h11.5v5.6h-31.1v-5.6h12.7V307.5z M1057,285.6c0.7,0,1.4,0.1,2.1,0.4
		s1.2,0.7,1.7,1.1c0.5,0.5,0.8,1,1.1,1.7s0.4,1.3,0.4,2.1c0,0.7-0.1,1.4-0.4,2c-0.3,0.6-0.6,1.2-1.1,1.7c-0.5,0.5-1,0.9-1.7,1.1
		s-1.3,0.4-2.1,0.4c-0.7,0-1.4-0.1-2.1-0.4c-0.6-0.3-1.2-0.6-1.7-1.1c-0.5-0.5-0.8-1.1-1.1-1.7c-0.3-0.6-0.4-1.3-0.4-2
		c0-0.7,0.1-1.4,0.4-2.1s0.6-1.2,1.1-1.7c0.5-0.5,1-0.9,1.7-1.1C1055.6,285.8,1056.3,285.6,1057,285.6z"/>
	<path class="st2" d="M1116.1,340.1c-1.5,0.4-3.1,0.7-4.7,0.8c-1.6,0.2-3.3,0.3-4.9,0.3c-4.9,0-8.5-1.1-10.9-3.3
		c-2.4-2.2-3.6-5.6-3.6-10.1v-20.2h-10.8v-5.6h10.8v-10.7l6.7-1.7v12.4h17.4v5.6h-17.4v19.7c0,2.8,0.7,4.9,2.2,6.2s3.7,2.1,6.5,2.1
		c1.2,0,2.6-0.1,4.1-0.3s3-0.5,4.6-0.9V340.1z"/>
</g>
<rect x="1042.2" y="277.3" class="st0" width="30.1" height="21"/>
<path class="st2" d="M1064.7,284.1c0,1.6-0.2,3.2-0.6,4.8c-0.4,1.3-1,2.4-1.8,3.5c-0.8,0.9-1.7,1.6-2.8,2.1c-2.4,0.9-5.1,0.9-7.6,0
	c-1.1-0.5-2.1-1.2-2.9-2.1c-0.8-1-1.4-2.2-1.8-3.5c-0.5-1.5-0.7-3.2-0.6-4.8v-6.7c0-1.6,0.2-3.2,0.6-4.8c0.4-1.3,1-2.4,1.8-3.5
	c0.8-0.9,1.8-1.6,2.9-2.1c1.2-0.5,2.5-0.7,3.8-0.7c1.3,0,2.6,0.2,3.8,0.7c1.1,0.5,2.1,1.2,2.9,2.1c0.8,1,1.5,2.2,1.8,3.5
	c0.4,1.5,0.7,3.2,0.6,4.8L1064.7,284.1z M1051.1,282.4l8.9-6.6c0-1.5-0.4-3-1.3-4.2c-0.8-0.9-2-1.4-3.2-1.4
	c-1.3-0.1-2.6,0.5-3.3,1.6c-0.8,1.5-1.2,3.2-1.1,4.9L1051.1,282.4z M1060.1,279.3l-8.9,6.6c0.2,3.7,1.7,5.5,4.5,5.5
	c3,0,4.5-2.2,4.5-6.5L1060.1,279.3z"/>
<g class="st1">
	<path class="st2" d="M97.4,331.5c0-1.9-0.4-3.4-1.3-4.7c-0.8-1.3-1.9-2.4-3.3-3.2c-1.3-0.9-2.8-1.6-4.4-2.2
		c-1.6-0.6-3.1-1.1-4.6-1.6c-2.1-0.7-4.3-1.5-6.5-2.5c-2.2-1-4.2-2.2-6-3.6c-1.8-1.4-3.3-3.1-4.5-5c-1.2-1.9-1.7-4.2-1.7-6.8
		c0-2.6,0.6-4.9,1.7-7c1.2-2.1,2.7-3.8,4.5-5.2c1.9-1.4,4-2.5,6.3-3.2c2.4-0.7,4.7-1.1,7.1-1.1c2.6,0,5.2,0.4,7.6,1.3
		c2.4,0.9,4.6,2.1,6.5,3.7s3.4,3.5,4.5,5.7c1.1,2.2,1.7,4.8,1.8,7.5h-7.9c-0.2-1.7-0.7-3.3-1.3-4.8c-0.6-1.4-1.5-2.7-2.5-3.7
		c-1.1-1-2.3-1.8-3.8-2.4c-1.5-0.6-3.1-0.9-4.9-0.9c-1.5,0-2.9,0.2-4.3,0.6c-1.4,0.4-2.6,1-3.7,1.9c-1.1,0.8-2,1.9-2.6,3.1
		c-0.7,1.2-1,2.6-1,4.2c0,1.7,0.5,3.2,1.3,4.4c0.9,1.2,1.9,2.2,3.3,3.1c1.3,0.8,2.7,1.5,4.3,2.1c1.5,0.6,3,1,4.3,1.5
		c1.5,0.5,3,1,4.5,1.6c1.5,0.6,3,1.3,4.4,2.1s2.7,1.7,4,2.6c1.2,1,2.3,2.1,3.2,3.3c0.9,1.2,1.6,2.6,2.1,4.1c0.5,1.5,0.8,3.1,0.8,4.9
		c0,2.7-0.6,5.1-1.8,7.1c-1.2,2-2.8,3.7-4.7,5.1c-1.9,1.3-4.1,2.4-6.5,3c-2.4,0.7-4.8,1-7.2,1c-2.7,0-5.3-0.4-7.9-1.2
		s-4.9-2-6.9-3.6c-2-1.6-3.7-3.5-5-5.7c-1.3-2.3-2-4.8-2-7.7h7.9c0.3,1.9,0.8,3.6,1.5,5c0.8,1.5,1.8,2.7,3,3.7
		c1.2,1,2.6,1.8,4.2,2.3c1.6,0.5,3.3,0.8,5.2,0.8c1.5,0,3-0.2,4.4-0.6s2.8-1,3.9-1.7c1.1-0.8,2.1-1.8,2.8-3
		C97.1,334.6,97.4,333.2,97.4,331.5z"/>
	<path class="st2" d="M131.4,318.7l-6.7,7.7v20.5h-7.9v-60.6h7.9v29.6l5.9-7.3l17.8-22.3h9.4l-21.2,26.5l22.6,34.1h-9.4L131.4,318.7
		z"/>
	<path class="st2" d="M196.9,331.1h-20.2l-4.9,15.7h-7.7l19.6-60.6h6.4l19.2,60.6h-7.7L196.9,331.1z M178.8,324.4h16.1l-8-26.3
		L178.8,324.4z"/>
	<path class="st2" d="M257.1,346.8h-7.8l-23.5-45.3l-0.1,45.3h-7.8v-60.6h7.8l23.5,45.2l0.1-45.2h7.8V346.8z"/>
	<path class="st2" d="M302,331.5c0-1.9-0.4-3.4-1.3-4.7c-0.8-1.3-1.9-2.4-3.3-3.2c-1.3-0.9-2.8-1.6-4.4-2.2
		c-1.6-0.6-3.1-1.1-4.6-1.6c-2.1-0.7-4.3-1.5-6.5-2.5c-2.2-1-4.2-2.2-6-3.6c-1.8-1.4-3.3-3.1-4.5-5c-1.2-1.9-1.7-4.2-1.7-6.8
		c0-2.6,0.6-4.9,1.7-7c1.2-2.1,2.7-3.8,4.5-5.2c1.9-1.4,4-2.5,6.3-3.2c2.4-0.7,4.7-1.1,7.1-1.1c2.6,0,5.2,0.4,7.6,1.3
		c2.4,0.9,4.6,2.1,6.5,3.7s3.4,3.5,4.5,5.7c1.1,2.2,1.7,4.8,1.8,7.5h-7.9c-0.2-1.7-0.7-3.3-1.3-4.8c-0.6-1.4-1.5-2.7-2.5-3.7
		c-1.1-1-2.3-1.8-3.8-2.4c-1.5-0.6-3.1-0.9-4.9-0.9c-1.5,0-2.9,0.2-4.3,0.6c-1.4,0.4-2.6,1-3.7,1.9c-1.1,0.8-2,1.9-2.6,3.1
		c-0.7,1.2-1,2.6-1,4.2c0,1.7,0.5,3.2,1.3,4.4c0.9,1.2,1.9,2.2,3.3,3.1c1.3,0.8,2.7,1.5,4.3,2.1c1.5,0.6,3,1,4.3,1.5
		c1.5,0.5,3,1,4.5,1.6c1.5,0.6,3,1.3,4.4,2.1s2.7,1.7,4,2.6c1.2,1,2.3,2.1,3.2,3.3c0.9,1.2,1.6,2.6,2.1,4.1c0.5,1.5,0.8,3.1,0.8,4.9
		c0,2.7-0.6,5.1-1.8,7.1c-1.2,2-2.8,3.7-4.7,5.1c-1.9,1.3-4.1,2.4-6.5,3c-2.4,0.7-4.8,1-7.2,1c-2.7,0-5.3-0.4-7.9-1.2
		s-4.9-2-6.9-3.6c-2-1.6-3.7-3.5-5-5.7c-1.3-2.3-2-4.8-2-7.7h7.9c0.3,1.9,0.8,3.6,1.5,5c0.8,1.5,1.8,2.7,3,3.7
		c1.2,1,2.6,1.8,4.2,2.3c1.6,0.5,3.3,0.8,5.2,0.8c1.5,0,3-0.2,4.4-0.6s2.8-1,3.9-1.7c1.1-0.8,2.1-1.8,2.8-3
		C301.6,334.6,302,333.2,302,331.5z"/>
	<path class="st2" d="M321.4,286.3H358v6.7h-14.5v47.2H358v6.7h-36.6v-6.7h14.2V293h-14.2V286.3z"/>
	<path class="st2" d="M410.5,346.8h-7.8l-23.5-45.3l-0.1,45.3h-7.8v-60.6h7.8l23.5,45.2l0.1-45.2h7.8V346.8z"/>
	<path class="st2" d="M462.9,338.9c-2.6,3-5.5,5.2-8.8,6.7c-3.3,1.4-6.9,2.1-10.9,2.1c-2.5,0-4.8-0.4-6.9-1.1c-2.1-0.7-4-1.7-5.6-3
		c-1.7-1.3-3.1-2.8-4.4-4.6s-2.3-3.6-3.1-5.7c-0.8-2-1.5-4.2-1.9-6.4c-0.4-2.2-0.7-4.5-0.7-6.8v-7c0-2.2,0.2-4.5,0.6-6.7
		c0.4-2.2,0.9-4.4,1.7-6.4c0.8-2.1,1.7-4,2.9-5.7c1.2-1.8,2.6-3.3,4.2-4.6s3.5-2.3,5.5-3.1s4.4-1.1,6.9-1.1c2.8,0,5.4,0.4,7.8,1.3
		c2.4,0.9,4.5,2.1,6.2,3.7c1.8,1.6,3.2,3.6,4.3,5.9c1.1,2.3,1.7,4.8,2,7.7h-7.6c-0.3-1.7-0.8-3.4-1.4-4.8c-0.6-1.5-1.5-2.8-2.5-3.8
		s-2.3-1.9-3.7-2.5c-1.4-0.6-3.1-0.9-5-0.9c-1.8,0-3.5,0.3-4.9,0.9s-2.6,1.5-3.7,2.5c-1.1,1.1-1.9,2.3-2.6,3.7
		c-0.7,1.4-1.3,2.9-1.7,4.4c-0.4,1.6-0.8,3.1-1,4.7c-0.2,1.6-0.3,3.2-0.3,4.7v7.1c0,1.5,0.2,3.1,0.4,4.7c0.2,1.6,0.6,3.2,1.1,4.8
		c0.5,1.6,1.1,3,1.9,4.4c0.8,1.4,1.7,2.6,2.8,3.7c1.1,1.1,2.4,1.9,3.8,2.5c1.4,0.6,3.1,1,4.9,1c1.1,0,2.2,0,3.3-0.1
		c1.2-0.1,2.3-0.3,3.3-0.7c1.1-0.3,2.1-0.8,3-1.4s1.7-1.3,2.4-2.2l0.1-13.6h-12.3v-6.5h19.6L462.9,338.9z"/>
</g>
<path class="st3" d="M534.1,298.5v31.8h6.9c0.5,0,1,0.1,1.4,0.4c0.3,0.3,0.4,0.6,0.4,1c0,0.4-0.1,0.7-0.4,1
	c-0.4,0.3-0.9,0.4-1.4,0.3h-16.5c-0.5,0-1-0.1-1.4-0.4c-0.3-0.3-0.4-0.6-0.4-1c0-0.4,0.1-0.7,0.4-1c0.4-0.3,0.9-0.4,1.4-0.4h6.9
	v-31.8h-10.9v9.2c0,0.5-0.1,1-0.4,1.4c-0.3,0.3-0.6,0.4-1,0.4c-0.4,0-0.7-0.1-1-0.4c-0.3-0.4-0.4-0.9-0.4-1.4v-11.9h29.9v11.9
	c0,0.5-0.1,1-0.4,1.4c-0.5,0.5-1.4,0.5-1.9,0c0,0,0,0,0,0c-0.3-0.4-0.4-0.9-0.4-1.4v-9.2H534.1z"/>
<path class="st3" d="M513,305.7c0,1-0.1,2-0.4,3c-0.2,0.8-0.6,1.5-1.1,2.2c-0.5,0.6-1.1,1-1.8,1.3c-0.8,0.3-1.6,0.5-2.4,0.5
	c-0.8,0-1.6-0.1-2.4-0.5c-0.7-0.3-1.3-0.7-1.8-1.3c-0.5-0.6-0.9-1.4-1.2-2.2c-0.3-1-0.4-2-0.4-3v-4.2c0-1,0.1-2,0.4-3
	c0.2-0.8,0.6-1.5,1.1-2.2c0.5-0.6,1.1-1,1.8-1.3c1.5-0.6,3.2-0.6,4.8,0c0.7,0.3,1.3,0.7,1.8,1.3c0.5,0.6,0.9,1.4,1.2,2.2
	c0.3,1,0.4,2,0.4,3V305.7z M504.4,304.6l5.7-4.2c0-1-0.3-1.9-0.8-2.7c-1.1-1.1-2.8-1.2-3.9-0.1c-0.1,0.1-0.2,0.2-0.2,0.2
	c-0.5,0.9-0.8,2-0.7,3.1L504.4,304.6z M510.1,302.6l-5.7,4.2c0.1,2.3,1.1,3.5,2.8,3.5s2.8-1.4,2.8-4.1L510.1,302.6z"/>
<path class="st3" d="M509.5,334.9h-2.9v-14.1l-4.5,1.6v-2.5l7.3-2.7h0.2V334.9z"/>
<ellipse transform="matrix(0.1602 -0.9871 0.9871 0.1602 132.4915 781.0451)" class="st4" cx="525.3" cy="312.7" rx="38.5" ry="38.5"/>
<path class="st2" d="M1072.9,81.6h25.8v5.9h-9.4v31.5h9.4v5.9h-25.8v-5.9h9.1V87.5h-9.2L1072.9,81.6z"/>
<path class="st2" d="M1137.1,87.5h-13.3V125h-7.1V87.5h-13.2v-5.9h33.7V87.5z"/>
<g class="st1">
	<path class="st2" d="M687,114.6c0-1.3-0.3-2.5-0.8-3.5c-0.6-1-1.3-1.9-2.4-2.7c-1-0.8-2.2-1.4-3.6-2c-1.4-0.6-2.9-1.1-4.6-1.6
		c-2.2-0.6-4.4-1.4-6.5-2.4c-2.1-1-4.1-2.1-5.8-3.5s-3-3-4.1-4.8s-1.6-4-1.6-6.4c0-2.4,0.5-4.6,1.6-6.5s2.4-3.5,4.2-4.9
		c1.8-1.3,3.8-2.4,6.1-3.1s4.7-1.1,7.3-1.1c2.7,0,5.2,0.4,7.6,1.3c2.4,0.8,4.4,2,6.2,3.5c1.8,1.5,3.2,3.3,4.2,5.4s1.6,4.4,1.6,7H687
		c-0.1-1.4-0.4-2.7-0.9-3.9c-0.5-1.2-1.1-2.2-2-3c-0.9-0.8-1.9-1.5-3.1-2c-1.2-0.5-2.7-0.7-4.3-0.7c-1.4,0-2.7,0.2-3.9,0.5
		s-2.2,0.9-3.1,1.6c-0.9,0.7-1.5,1.5-2,2.5c-0.5,1-0.7,2.1-0.7,3.3c0,1.3,0.3,2.5,1,3.4s1.5,1.8,2.6,2.5c1.1,0.7,2.3,1.3,3.7,1.9
		c1.4,0.5,2.9,1,4.4,1.4c2.3,0.7,4.6,1.6,6.7,2.6c2.1,1,4,2.2,5.6,3.7s2.9,3.1,3.9,5s1.4,4,1.4,6.4c0,2.5-0.5,4.7-1.6,6.6
		c-1.1,1.9-2.5,3.5-4.2,4.8c-1.8,1.3-3.8,2.3-6.2,2.9c-2.3,0.7-4.8,1-7.3,1c-1.7,0-3.4-0.2-5.1-0.5c-1.7-0.3-3.3-0.8-4.9-1.5
		c-1.6-0.7-3-1.5-4.3-2.5c-1.3-1-2.5-2.1-3.5-3.4c-1-1.3-1.8-2.8-2.3-4.4c-0.6-1.6-0.9-3.4-0.9-5.3h9.3c0.1,1.7,0.5,3.2,1.1,4.4
		c0.6,1.3,1.4,2.3,2.5,3.1c1,0.8,2.2,1.5,3.6,1.9c1.4,0.4,2.9,0.6,4.6,0.6c1.4,0,2.7-0.2,3.9-0.5c1.2-0.3,2.3-0.8,3.2-1.5
		c0.9-0.7,1.6-1.5,2.1-2.4S687,115.8,687,114.6z"/>
	<path class="st2" d="M720.6,104.6l-6,6.8v17.7h-9.4V72.9h9.4v26.3l5.1-6.7l14.8-19.6h11.3l-19.1,24.7l20.1,31.5h-11.1L720.6,104.6z
		"/>
	<path class="st2" d="M780,116h-17.6l-3.9,13H749l18.3-56.2h8.1l17.9,56.2h-9.5L780,116z M764.7,108.1h12.9l-6.4-22L764.7,108.1z"/>
	<path class="st2" d="M836.5,129.1h-9.3l-18.3-38.7l0,38.7h-9.4V72.9h9.4l18.2,38.6l0.1-38.6h9.4V129.1z"/>
	<path class="st2" d="M876.8,114.6c0-1.3-0.3-2.5-0.8-3.5c-0.6-1-1.3-1.9-2.4-2.7s-2.2-1.4-3.6-2s-2.9-1.1-4.6-1.6
		c-2.2-0.6-4.4-1.4-6.5-2.4c-2.1-1-4.1-2.1-5.8-3.5c-1.7-1.4-3-3-4.1-4.8c-1-1.8-1.6-4-1.6-6.4c0-2.4,0.5-4.6,1.6-6.5
		c1-1.9,2.4-3.5,4.2-4.9c1.7-1.3,3.8-2.4,6.1-3.1c2.3-0.7,4.7-1.1,7.3-1.1c2.7,0,5.2,0.4,7.6,1.3c2.4,0.8,4.4,2,6.2,3.5
		c1.8,1.5,3.2,3.3,4.2,5.4s1.6,4.4,1.6,7h-9.3c-0.1-1.4-0.4-2.7-0.9-3.9c-0.5-1.2-1.1-2.2-2-3c-0.9-0.8-1.9-1.5-3.1-2
		c-1.2-0.5-2.7-0.7-4.3-0.7c-1.4,0-2.7,0.2-3.9,0.5c-1.2,0.4-2.2,0.9-3.1,1.6c-0.9,0.7-1.5,1.5-2,2.5c-0.5,1-0.7,2.1-0.7,3.3
		c0,1.3,0.3,2.5,1,3.4c0.7,1,1.5,1.8,2.6,2.5c1.1,0.7,2.3,1.3,3.7,1.9s2.9,1,4.4,1.4c2.3,0.7,4.6,1.6,6.7,2.6c2.1,1,4,2.2,5.6,3.7
		c1.6,1.4,2.9,3.1,3.9,5c1,1.9,1.4,4,1.4,6.4c0,2.5-0.5,4.7-1.6,6.6c-1.1,1.9-2.5,3.5-4.2,4.8c-1.8,1.3-3.8,2.3-6.2,2.9
		s-4.8,1-7.3,1c-1.7,0-3.4-0.2-5.1-0.5s-3.3-0.8-4.9-1.5c-1.6-0.7-3-1.5-4.3-2.5c-1.3-1-2.5-2.1-3.5-3.4c-1-1.3-1.8-2.8-2.3-4.4
		s-0.9-3.4-0.9-5.3h9.3c0.1,1.7,0.5,3.2,1.1,4.4c0.6,1.3,1.4,2.3,2.5,3.1c1,0.8,2.2,1.5,3.6,1.9s2.9,0.6,4.6,0.6
		c1.4,0,2.7-0.2,3.9-0.5c1.2-0.3,2.3-0.8,3.2-1.5c0.9-0.7,1.6-1.5,2.1-2.4C876.5,116.9,876.8,115.8,876.8,114.6z"/>
	<path class="st2" d="M896.3,72.9h33.4v7.7h-12.2v40.9h12.2v7.6h-33.4v-7.6h11.9V80.6h-11.9V72.9z"/>
	<path class="st2" d="M978.8,129.1h-9.3l-18.3-38.7l0,38.7h-9.4V72.9h9.4l18.2,38.6l0.1-38.6h9.4V129.1z"/>
	<path class="st2" d="M1027.6,122.1c-1,1.1-2.1,2.2-3.4,3.1c-1.3,1-2.7,1.8-4.3,2.5c-1.6,0.7-3.3,1.2-5.2,1.6
		c-1.9,0.4-3.9,0.6-6,0.6c-3.4,0-6.4-0.7-9-2c-2.6-1.3-4.8-3.1-6.6-5.4c-1.8-2.3-3.2-5-4.1-8c-0.9-3.1-1.4-6.4-1.4-10v-6.9
		c0-3.6,0.5-6.9,1.4-10c0.9-3.1,2.3-5.8,4-8.1c1.7-2.3,3.9-4.1,6.4-5.4s5.4-2,8.6-2c2.9,0,5.5,0.4,7.8,1.2c2.3,0.8,4.3,1.9,5.9,3.5
		c1.6,1.5,3,3.3,3.9,5.5c1,2.2,1.6,4.6,1.8,7.3h-9.1c-0.2-1.5-0.6-2.9-1.1-4.1c-0.5-1.2-1.1-2.2-2-3.1c-0.8-0.8-1.8-1.5-3-1.9
		s-2.6-0.7-4.1-0.7c-2,0-3.6,0.5-5,1.4c-1.4,1-2.6,2.3-3.5,3.9c-0.9,1.6-1.6,3.5-2,5.7c-0.4,2.1-0.7,4.4-0.7,6.7v7
		c0,2.3,0.3,4.6,0.7,6.7c0.4,2.1,1.2,4,2.1,5.7c1,1.6,2.2,2.9,3.7,3.9c1.5,1,3.3,1.5,5.5,1.5c0.9,0,1.8-0.1,2.7-0.2
		c0.9-0.1,1.8-0.3,2.6-0.6c0.8-0.3,1.6-0.6,2.3-1c0.7-0.4,1.3-0.9,1.7-1.5l0.1-11.2h-10.2v-7.2h19.2L1027.6,122.1z"/>
</g>
<circle class="st4" cx="1105" cy="100" r="45.3"/>
<path class="st2" d="M1101.2,109.6c0.7,0.1,1.3-0.4,1.3-1.1c0-0.2,0-0.3-0.1-0.5c-0.2-1.3-0.4-2.5-0.6-3.8c0-0.3,0.1-0.7,0.3-0.9
	c1.3-1.1,1.6-3,0.8-4.5c-0.8-1.5-2.5-2.2-4.1-1.7c-1.2,0.3-2.2,1.3-2.5,2.5c-0.4,1.3,0,2.7,1,3.6c0.4,0.3,0.5,0.8,0.4,1.2
	c-0.2,1.2-0.4,2.3-0.6,3.5s0.3,1.7,1.6,1.7h1C1100.3,109.6,1100.8,109.6,1101.2,109.6z"/>
<path class="st2" d="M95.7,127.4c-1.9,2.8-4.7,5-7.8,6.3c-3.9,1.6-8,2.3-12.2,2.2c-9.2,0-16.4-2.6-21.8-7.9l5.5-6.1
	c4.4,4.1,10.3,6.3,16.3,6.2c3.1,0.1,6.2-0.7,8.8-2.5c2.3-1.6,3.6-4.2,3.5-7c0.1-1.6-0.3-3.1-1.1-4.5c-0.9-1.4-2.2-2.5-3.7-3.2
	c-2.4-1.2-4.8-2.2-7.4-2.9c-6.6-1.9-11.4-4.3-14.5-7c-3.1-2.7-4.8-6.5-4.6-10.6c-0.1-3,0.9-6,2.6-8.4c1.9-2.5,4.4-4.5,7.3-5.7
	c3.3-1.4,6.9-2.1,10.5-2c7.9,0,14.6,2.4,19.8,7.1l-5.2,5.9c-3.9-3.4-8.8-5.3-14-5.2c-2.7-0.1-5.4,0.6-7.8,2c-1.9,1.2-3.1,3.4-3,5.7
	c-0.1,1.4,0.4,2.8,1.2,4c1.1,1.3,2.6,2.4,4.2,3c2.7,1.2,5.5,2.2,8.4,3c5.7,1.7,10.1,3.9,13.1,6.6s4.5,6.6,4.5,11.8
	C98.4,121.5,97.5,124.7,95.7,127.4z"/>
<path class="st2" d="M110.3,134.8V75.6h10v59.3H110.3z M141.2,75.6h11l-20.7,27l22.3,32.3h-11.9l-21.2-31.7L141.2,75.6z"/>
<path class="st2" d="M169.3,120.5l-4.1,14.3H155l18.9-59.3h12.4l18.9,59.3h-10.6l-4.1-14.3H169.3z M188.4,112.8l-8.5-29.5l-8.5,29.5
	H188.4z"/>
<path class="st2" d="M219.4,84.4c0.9,9.4,1.4,17.2,1.4,23.5v26.9h-8.8V75.6h13l18.9,50.4c-0.4-4.2-0.7-8.1-1-11.5
	c-0.3-3.4-0.4-7.4-0.4-12v-27h8.8v59.3h-13L219.4,84.4z"/>
<path class="st2" d="M301.8,127.4c-1.9,2.8-4.7,5-7.8,6.3c-3.9,1.6-8,2.3-12.1,2.2c-9.2,0-16.4-2.6-21.8-7.9l5.5-6.1
	c4.4,4.1,10.3,6.3,16.3,6.2c3.1,0.1,6.2-0.7,8.8-2.5c2.3-1.6,3.6-4.2,3.5-7c0.1-1.6-0.3-3.1-1.1-4.5c-0.9-1.4-2.2-2.5-3.6-3.2
	c-2.4-1.2-4.8-2.2-7.4-2.9c-6.6-1.9-11.4-4.3-14.5-7c-3.1-2.7-4.8-6.6-4.6-10.7c-0.1-3,0.9-5.9,2.6-8.3c1.9-2.5,4.4-4.5,7.3-5.7
	c3.3-1.4,6.9-2.1,10.5-2c8,0,14.6,2.4,19.8,7.1l-5.2,5.9c-3.9-3.4-8.8-5.3-14-5.2c-2.7-0.1-5.4,0.6-7.8,2c-1.9,1.2-3.1,3.4-3,5.7
	c-0.1,1.4,0.4,2.8,1.2,4c1.1,1.3,2.6,2.4,4.2,3c2.7,1.2,5.5,2.2,8.4,3c5.7,1.7,10.1,3.9,13.1,6.6c3,2.7,4.5,6.6,4.5,11.8
	C304.5,121.5,303.5,124.7,301.8,127.4z"/>
<path class="st2" d="M352.5,83.1h-12.9v44h12.9v7.6h-35.7v-7.7h12.9v-44h-12.9v-7.5h35.7V83.1z"/>
<path class="st2" d="M373.9,84.4c0.9,9.4,1.4,17.2,1.4,23.5v26.9h-8.8V75.6h13l18.8,50.4c-0.4-4.2-0.7-8.1-1-11.5
	c-0.3-3.4-0.4-7.4-0.4-12v-27h8.8v59.3h-13L373.9,84.4z"/>
<path class="st2" d="M421.4,128.1c-4.2-5.2-6.3-12.9-6.3-23c-0.2-5.8,1-11.5,3.5-16.8c2-4.3,5.3-8,9.4-10.5c3.9-2.4,8.4-3.6,13-3.5
	c3.4-0.1,6.7,0.5,9.8,1.7c2.9,1.2,5.5,3,7.8,5.2l-5.6,5.8c-1.6-1.5-3.5-2.8-5.5-3.7c-2-0.8-4.1-1.2-6.2-1.2c-4.4-0.1-8.6,2-11.3,5.5
	c-2.9,3.7-4.4,9.5-4.4,17.4c0,8.1,1.2,14,3.5,17.6c2.3,3.6,5.9,5.4,10.7,5.4c3.4,0.1,6.8-0.8,9.8-2.5v-16.3h-10l-1-7.6h20.7v28.8
	c-2.9,1.7-6.1,3-9.3,4c-3.4,1-7,1.5-10.6,1.4C431.5,135.9,425.6,133.3,421.4,128.1z"/>
<path class="st2" d="M545.6,134.8h-10V83.6h-17.8v-8.1h45.9l-1,8.1h-17.1V134.8z"/>
<circle class="st5" cx="496.4" cy="124.2" r="10"/>
<circle class="st6" cx="496.4" cy="82.6" r="10.9"/>
<line class="st4" x1="496.4" y1="129.5" x2="496.4" y2="93.1"/>
<circle class="st2" cx="496.4" cy="82.6" r="3.9"/>
<g class="st1">
	<path class="st2" d="M696.7,511c0-1.3-0.2-2.5-0.6-3.5c-0.4-1-1-2-1.7-2.8c-0.7-0.8-1.5-1.5-2.5-2.2s-1.9-1.2-3-1.7
		c-1.1-0.5-2.1-0.9-3.2-1.3c-1.1-0.4-2.2-0.7-3.2-1.1c-1.3-0.4-2.6-0.9-4-1.4c-1.4-0.5-2.7-1.1-3.9-1.7c-1.3-0.7-2.5-1.4-3.6-2.2
		c-1.1-0.8-2.1-1.8-2.9-2.8c-0.8-1.1-1.5-2.2-2-3.5c-0.5-1.3-0.7-2.7-0.7-4.3c0-2.3,0.5-4.4,1.6-6.2s2.4-3.3,4.1-4.6
		c1.7-1.2,3.6-2.2,5.7-2.8c2.1-0.6,4.2-0.9,6.3-0.9c2.4,0,4.7,0.4,6.8,1.2c2.2,0.8,4.1,1.9,5.7,3.3c1.6,1.4,2.9,3.1,3.9,5.2
		c1,2,1.5,4.3,1.6,6.7h-4.7c-0.2-1.8-0.7-3.5-1.4-5c-0.7-1.5-1.6-2.8-2.8-3.9c-1.2-1.1-2.5-1.9-4.1-2.5c-1.6-0.6-3.3-0.9-5.2-0.9
		c-1.6,0-3.1,0.2-4.7,0.6c-1.5,0.4-2.9,1.1-4.1,1.9s-2.2,1.9-3,3.2s-1.1,2.8-1.1,4.6c0,1.9,0.4,3.5,1.3,4.8s2,2.4,3.4,3.3
		c1.4,0.9,2.9,1.7,4.5,2.3c1.6,0.6,3.2,1.1,4.7,1.6c1.4,0.4,2.7,0.9,4.1,1.4s2.7,1.1,4,1.8c1.3,0.7,2.5,1.5,3.6,2.3
		c1.1,0.9,2.1,1.8,3,3c0.8,1.1,1.5,2.3,2,3.7c0.5,1.4,0.7,2.9,0.7,4.5c0,2.5-0.5,4.6-1.6,6.4c-1.1,1.8-2.5,3.4-4.2,4.6
		c-1.7,1.2-3.6,2.1-5.8,2.7c-2.2,0.6-4.3,0.9-6.6,0.9c-2.5,0-4.9-0.4-7.2-1.1c-2.3-0.7-4.4-1.8-6.2-3.2c-1.8-1.4-3.3-3.1-4.4-5.2
		s-1.7-4.4-1.8-7h4.7c0.2,2,0.8,3.8,1.6,5.3c0.8,1.6,1.9,2.9,3.2,3.9c1.3,1,2.8,1.8,4.6,2.4c1.7,0.5,3.6,0.8,5.6,0.8
		c1.6,0,3.3-0.2,4.8-0.6c1.6-0.4,3-1,4.3-1.9c1.3-0.9,2.3-2,3-3.3C696.3,514.4,696.7,512.8,696.7,511z"/>
	<path class="st2" d="M725.5,497l-7.2,7.7v20.2h-4.7v-56.2h4.7v30.1l6.9-8l19-22.1h5.8l-21.3,25l22.9,31.2h-5.6L725.5,497z"/>
	<path class="st2" d="M788.3,509.1h-21.4l-5,15.7h-4.7l18.3-56.2h4.2l18.1,56.2h-4.6L788.3,509.1z M768.2,505H787l-9.3-29.6
		L768.2,505z"/>
	<path class="st2" d="M842,524.8h-4.6l-25.8-47.4l0,47.4H807v-56.2h4.6l25.8,47.4l0-47.4h4.6V524.8z"/>
	<path class="st2" d="M886.4,511c0-1.3-0.2-2.5-0.6-3.5c-0.4-1-1-2-1.7-2.8c-0.7-0.8-1.5-1.5-2.5-2.2c-0.9-0.6-1.9-1.2-3-1.7
		c-1.1-0.5-2.1-0.9-3.2-1.3c-1.1-0.4-2.2-0.7-3.2-1.1c-1.3-0.4-2.6-0.9-4-1.4c-1.4-0.5-2.7-1.1-3.9-1.7c-1.3-0.7-2.5-1.4-3.6-2.2
		c-1.1-0.8-2.1-1.8-2.9-2.8c-0.8-1.1-1.5-2.2-2-3.5c-0.5-1.3-0.7-2.7-0.7-4.3c0-2.3,0.5-4.4,1.6-6.2c1-1.8,2.4-3.3,4.1-4.6
		s3.6-2.2,5.7-2.8c2.1-0.6,4.2-0.9,6.4-0.9c2.4,0,4.7,0.4,6.8,1.2c2.2,0.8,4.1,1.9,5.7,3.3c1.6,1.4,2.9,3.1,3.9,5.2
		c1,2,1.5,4.3,1.6,6.7h-4.7c-0.2-1.8-0.7-3.5-1.4-5c-0.7-1.5-1.6-2.8-2.8-3.9c-1.2-1.1-2.5-1.9-4.1-2.5c-1.6-0.6-3.3-0.9-5.2-0.9
		c-1.6,0-3.1,0.2-4.7,0.6c-1.5,0.4-2.9,1.1-4.1,1.9c-1.2,0.9-2.2,1.9-3,3.2c-0.8,1.3-1.1,2.8-1.1,4.6c0,1.9,0.4,3.5,1.3,4.8
		c0.9,1.3,2,2.4,3.4,3.3c1.4,0.9,2.9,1.7,4.5,2.3c1.6,0.6,3.2,1.1,4.7,1.6c1.4,0.4,2.7,0.9,4.1,1.4s2.7,1.1,4,1.8
		c1.3,0.7,2.5,1.5,3.6,2.3s2.1,1.8,3,3s1.5,2.3,2,3.7s0.7,2.9,0.7,4.5c0,2.5-0.5,4.6-1.6,6.4c-1.1,1.8-2.5,3.4-4.1,4.6
		c-1.7,1.2-3.6,2.1-5.8,2.7c-2.2,0.6-4.3,0.9-6.6,0.9c-2.5,0-4.9-0.4-7.2-1.1c-2.3-0.7-4.4-1.8-6.2-3.2s-3.3-3.1-4.4-5.2
		c-1.1-2-1.7-4.4-1.8-7h4.7c0.2,2,0.8,3.8,1.6,5.3c0.8,1.6,1.9,2.9,3.2,3.9c1.3,1,2.8,1.8,4.6,2.4c1.7,0.5,3.6,0.8,5.6,0.8
		c1.6,0,3.3-0.2,4.8-0.6c1.6-0.4,3-1,4.3-1.9c1.3-0.9,2.3-2,3-3.3C886,514.4,886.4,512.8,886.4,511z"/>
	<path class="st2" d="M903.1,468.6h32.5v4.2h-14.1v47.9h14.1v4.1h-32.5v-4.1h13.7v-47.9h-13.7V468.6z"/>
	<path class="st2" d="M984.3,524.8h-4.6L954,477.4l0,47.4h-4.6v-56.2h4.6l25.8,47.4l0-47.4h4.6V524.8z"/>
	<path class="st2" d="M1032.9,518.1c-1.1,1.3-2.3,2.4-3.7,3.4s-2.8,1.7-4.3,2.3c-1.5,0.6-3.1,1-4.7,1.3c-1.6,0.3-3.3,0.4-5,0.4
		c-2.2,0-4.3-0.4-6.2-1.1c-1.9-0.7-3.5-1.6-5-2.8c-1.5-1.2-2.8-2.6-3.9-4.2c-1.1-1.6-2-3.3-2.8-5.2c-0.7-1.9-1.3-3.8-1.7-5.8
		c-0.4-2-0.6-4-0.6-6v-7.9c0-2,0.2-3.9,0.6-5.9c0.3-2,0.9-3.9,1.6-5.7c0.7-1.8,1.6-3.6,2.6-5.1c1.1-1.6,2.3-3,3.7-4.2
		c1.4-1.2,3.1-2.1,4.9-2.8c1.8-0.7,3.8-1,6.1-1c2.5,0,4.8,0.4,6.9,1.2c2.1,0.8,4,1.9,5.6,3.4c1.6,1.5,2.9,3.2,3.9,5.2
		c1,2,1.6,4.3,1.9,6.8h-4.6c-0.4-1.8-0.9-3.5-1.6-5s-1.7-2.9-2.8-4c-1.1-1.1-2.5-2-4-2.6c-1.5-0.6-3.3-0.9-5.2-0.9
		c-1.8,0-3.4,0.3-4.9,0.9c-1.4,0.6-2.7,1.4-3.8,2.4s-2,2.2-2.8,3.6c-0.8,1.4-1.4,2.8-1.9,4.3s-0.9,3.1-1.1,4.7
		c-0.2,1.6-0.4,3.2-0.4,4.7v8c0,1.6,0.2,3.2,0.4,4.8c0.3,1.6,0.7,3.2,1.2,4.8c0.5,1.6,1.2,3,2,4.4c0.8,1.4,1.8,2.6,3,3.6
		c1.1,1,2.5,1.9,3.9,2.5c1.5,0.6,3.1,0.9,5,0.9c1.2,0,2.4,0,3.6-0.2s2.4-0.4,3.6-0.8c1.2-0.4,2.3-0.9,3.3-1.5c1-0.6,1.9-1.5,2.6-2.4
		l0-14.5h-13.3v-4h17.7L1032.9,518.1z"/>
</g>
<circle class="st7" cx="1069.8" cy="478.7" r="11.1"/>
<line class="st7" x1="1069.7" y1="525.8" x2="1069.7" y2="489.8"/>
<line class="st7" x1="1080.8" y1="476.9" x2="1121.4" y2="476.9"/>
<line class="st7" x1="1101.1" y1="525.4" x2="1101.1" y2="476.9"/>
<path class="st2" d="M1072.4,478.7c-1,0-1.8-0.8-1.8-1.8c0-0.7,0.4-1.4,1.1-1.7c-2.1-1.2-4.8-0.4-5.9,1.7c-1.2,2.1-0.4,4.8,1.7,5.9
	c2.1,1.2,4.8,0.4,5.9-1.7c0.5-1,0.7-2.1,0.4-3.2C1073.5,478.5,1072.9,478.7,1072.4,478.7z"/>
<g class="st1">
	<path class="st2" d="M101.1,523.9c-1.3,2.2-3.3,4-5.9,5.3c-2.6,1.3-5.8,2-9.5,2c-5.6,0-10.2-1.4-13.8-4.1
		c-3.6-2.7-5.6-6.5-5.9-11.4h12.8c0.2,1.9,0.9,3.4,2,4.4c1.1,1.1,2.6,1.6,4.4,1.6c1.5,0,2.8-0.4,3.7-1.3c0.9-0.8,1.3-2,1.3-3.4
		c0-1.3-0.4-2.3-1.2-3.2c-0.8-0.8-1.8-1.5-3.1-2.1c-1.2-0.5-2.9-1.2-5.1-1.9c-3.1-1.1-5.7-2.1-7.7-3.1c-2-1-3.7-2.5-5.1-4.5
		c-1.4-2-2.1-4.6-2.1-7.8c0-3,0.8-5.5,2.3-7.7c1.5-2.2,3.6-3.8,6.2-5c2.7-1.2,5.7-1.7,9.1-1.7c5.5,0,9.9,1.3,13.2,3.9
		c3.3,2.6,5.1,6.2,5.5,10.8h-13c-0.2-1.6-0.8-2.9-1.8-3.9c-1-1-2.3-1.4-3.9-1.4c-1.4,0-2.5,0.4-3.4,1.1c-0.9,0.8-1.3,1.9-1.3,3.3
		c0,1.2,0.4,2.2,1.2,3c0.8,0.8,1.7,1.5,2.9,2c1.2,0.5,2.9,1.2,5.1,2c3.2,1.1,5.8,2.1,7.8,3.2c2,1.1,3.8,2.6,5.2,4.6
		c1.5,2,2.2,4.7,2.2,7.9C103.1,519.3,102.4,521.7,101.1,523.9z"/>
	<path class="st2" d="M133.2,505.2l20.1,25.4h-14.6l-16.9-22.3v22.3h-12v-49.8h12v21.9l17-21.9h14.4L133.2,505.2z"/>
	<path class="st2" d="M189.2,521.6h-18.7l-3.1,9.1h-12.7l18.2-49.5h13.9l18.2,49.5h-12.8L189.2,521.6z M186.1,512.4l-6.2-18.3
		l-6.3,18.3H186.1z"/>
	<path class="st2" d="M254.1,530.7h-12l-20.1-30.6v30.6h-12v-49.8h12l20.1,30.9v-30.9h12V530.7z"/>
	<path class="st2" d="M296.2,523.9c-1.3,2.2-3.3,4-5.9,5.3c-2.6,1.3-5.8,2-9.5,2c-5.6,0-10.2-1.4-13.8-4.1
		c-3.6-2.7-5.6-6.5-5.9-11.4h12.8c0.2,1.9,0.9,3.4,2,4.4c1.1,1.1,2.6,1.6,4.4,1.6c1.5,0,2.8-0.4,3.7-1.3c0.9-0.8,1.3-2,1.3-3.4
		c0-1.3-0.4-2.3-1.2-3.2c-0.8-0.8-1.8-1.5-3.1-2.1c-1.2-0.5-2.9-1.2-5.1-1.9c-3.1-1.1-5.7-2.1-7.7-3.1c-2-1-3.7-2.5-5.1-4.5
		c-1.4-2-2.1-4.6-2.1-7.8c0-3,0.8-5.5,2.3-7.7c1.5-2.2,3.6-3.8,6.2-5c2.7-1.2,5.7-1.7,9.1-1.7c5.5,0,9.9,1.3,13.2,3.9
		c3.3,2.6,5.1,6.2,5.5,10.8h-13c-0.2-1.6-0.8-2.9-1.8-3.9c-1-1-2.3-1.4-3.9-1.4c-1.4,0-2.5,0.4-3.4,1.1c-0.9,0.8-1.3,1.9-1.3,3.3
		c0,1.2,0.4,2.2,1.2,3c0.8,0.8,1.7,1.5,2.9,2c1.2,0.5,2.9,1.2,5.1,2c3.2,1.1,5.8,2.1,7.8,3.2c2,1.1,3.8,2.6,5.2,4.6
		c1.5,2,2.2,4.7,2.2,7.9C298.2,519.3,297.5,521.7,296.2,523.9z"/>
	<path class="st2" d="M316.9,480.8v49.8h-12v-49.8H316.9z"/>
	<path class="st2" d="M369.5,530.7h-12l-20.1-30.6v30.6h-12v-49.8h12l20.1,30.9v-30.9h12V530.7z"/>
	<path class="st2" d="M416.5,484.9c4,3.1,6.6,7.2,7.5,12.4h-12.8c-0.8-1.8-2.1-3.2-3.9-4.3c-1.7-1.1-3.8-1.6-6.3-1.6
		c-3.8,0-6.9,1.3-9.2,3.8c-2.3,2.6-3.5,6-3.5,10.4c0,4.7,1.2,8.4,3.6,10.9c2.4,2.5,5.9,3.8,10.3,3.8c2.9,0,5.4-0.8,7.5-2.4
		c2.2-1.6,3.7-3.8,4.6-6.7h-15.2v-8.7h25.3v11.9c-0.9,2.9-2.4,5.6-4.5,8.1c-2.1,2.5-4.7,4.5-7.9,6.1c-3.2,1.5-6.9,2.3-11,2.3
		c-5,0-9.4-1.1-13.2-3.2c-3.8-2.1-6.7-5.1-8.7-9c-2-3.8-3.1-8.2-3.1-13.2s1-9.3,3.1-13.2c2-3.9,4.9-6.8,8.7-9
		c3.7-2.1,8.1-3.2,13.1-3.2C407.3,480.3,412.5,481.9,416.5,484.9z"/>
</g>
<rect x="455.7" y="464.6" class="st2" width="102" height="85"/>
<g class="st1">
	<path d="M522.2,485.7V530h9.6c0.9,0,1.5,0.2,1.9,0.5c0.4,0.3,0.6,0.8,0.6,1.3c0,0.5-0.2,1-0.6,1.3c-0.4,0.4-1,0.5-1.9,0.5h-23
		c-0.9,0-1.5-0.2-1.9-0.5c-0.4-0.4-0.6-0.8-0.6-1.3c0-0.6,0.2-1,0.6-1.3c0.4-0.3,1-0.5,1.9-0.5h9.6v-44.3h-15.2v12.9
		c0,0.9-0.2,1.6-0.5,1.9c-0.3,0.4-0.8,0.6-1.3,0.6c-0.5,0-1-0.2-1.3-0.6c-0.4-0.4-0.5-1-0.5-1.9V482h41.6v16.6
		c0,0.9-0.2,1.6-0.5,1.9c-0.3,0.4-0.8,0.6-1.3,0.6s-1-0.2-1.3-0.6c-0.3-0.4-0.5-1-0.5-1.9v-12.9H522.2z"/>
</g>
<g class="st1">
	<path d="M474.1,492.5c0-3.8,0.6-6.7,1.9-8.8c1.3-2.1,3.4-3.2,6.5-3.2s5.3,1.1,6.5,3.2s1.9,5.1,1.9,8.8c0,3.8-0.6,6.8-1.9,8.9
		c-1.3,2.1-3.4,3.2-6.5,3.2s-5.3-1.1-6.5-3.2C474.7,499.2,474.1,496.3,474.1,492.5z M487.9,492.5c0-1.9-0.1-3.5-0.4-4.8
		c-0.3-1.3-0.8-2.3-1.6-3.1c-0.8-0.8-1.9-1.2-3.4-1.2c-1.5,0-2.6,0.4-3.4,1.2c-0.8,0.8-1.3,1.8-1.6,3.1c-0.3,1.3-0.4,2.9-0.4,4.8
		c0,1.9,0.1,3.6,0.4,4.9s0.8,2.4,1.6,3.1c0.8,0.8,1.9,1.2,3.4,1.2c1.5,0,2.6-0.4,3.4-1.2c0.8-0.8,1.3-1.8,1.6-3.1
		C487.8,496.1,487.9,494.4,487.9,492.5z"/>
</g>
<g class="st1">
	<path d="M478.1,512.7v-2.9h6.8v23.7h-3.2v-20.8H478.1z"/>
</g>
</svg>
