<?xml version="1.0" encoding="utf-8"?>
<!-- Generator: Adobe Illustrator 24.0.2, SVG Export Plug-In . SVG Version: 6.00 Build 0)  -->
<svg version="1.1" id="Layer_1" xmlns="http://www.w3.org/2000/svg" xmlns:xlink="http://www.w3.org/1999/xlink" x="0px" y="0px"
	 viewBox="0 0 667 1195" style="enable-background:new 0 0 667 1195;" xml:space="preserve">
<style type="text/css">
	.st0{fill:#161616;}
	.st1{enable-background:new    ;}
	.st2{fill:#FFFFFF;}
	.st3{fill:#FFFFFF;stroke:#FFFFFF;stroke-width:0.25;stroke-miterlimit:10;}
	.st4{fill:none;stroke:#FFFFFF;stroke-miterlimit:10;}
	.st5{fill:#FFFFFF;stroke:#FFFFFF;stroke-miterlimit:10;}
	.st6{fill:none;stroke:#FFFFFF;stroke-width:0.75;stroke-miterlimit:10;}
	.st7{fill:none;stroke:#FFFFFF;stroke-width:2;stroke-miterlimit:10;}
</style>
<rect x="0.4" y="0.4" class="st0" width="668.6" height="1194.6"/>
<g class="st1">
	<path class="st2" d="M132.9,901.2c0,2.4-0.5,4.5-1.5,6.3c-1,1.8-2.3,3.3-4.1,4.5c-1.8,1.2-3.9,2.1-6.3,2.7
		c-2.5,0.6-5.2,0.9-8.1,0.9c-1.3,0-2.7-0.1-4-0.2c-1.3-0.1-2.6-0.2-3.8-0.4c-1.2-0.2-2.4-0.3-3.5-0.5c-1.1-0.2-2.1-0.4-2.9-0.7v-6.6
		c1.9,0.7,4.1,1.3,6.5,1.7c2.4,0.4,5.1,0.6,8.2,0.6c2.2,0,4.1-0.2,5.7-0.5c1.6-0.3,2.8-0.9,3.8-1.5c1-0.7,1.7-1.5,2.2-2.5
		c0.5-1,0.7-2.1,0.7-3.4c0-1.4-0.4-2.5-1.1-3.5c-0.8-1-1.8-1.8-3-2.6s-2.6-1.5-4.2-2.1c-1.6-0.6-3.2-1.3-4.8-1.9s-3.3-1.4-4.8-2.2
		c-1.6-0.8-3-1.7-4.2-2.8c-1.2-1.1-2.2-2.3-3-3.8c-0.8-1.4-1.1-3.2-1.1-5.1c0-1.7,0.4-3.4,1.1-5.1c0.7-1.7,1.8-3.2,3.4-4.5
		c1.5-1.3,3.5-2.3,5.8-3.1c2.4-0.8,5.2-1.2,8.5-1.2c0.8,0,1.8,0,2.8,0.1c1,0.1,2,0.2,3,0.3c1,0.1,2,0.3,3,0.5c1,0.2,1.9,0.4,2.8,0.6
		v6.2c-2-0.6-4-1-5.9-1.3c-2-0.3-3.9-0.4-5.8-0.4c-3.9,0-6.8,0.7-8.7,2s-2.8,3.1-2.8,5.3c0,1.4,0.4,2.5,1.1,3.5c0.8,1,1.8,1.9,3,2.6
		c1.2,0.8,2.6,1.5,4.2,2.1c1.6,0.6,3.2,1.3,4.8,1.9c1.6,0.7,3.3,1.4,4.8,2.2c1.6,0.8,3,1.7,4.2,2.8s2.2,2.4,3,3.8
		C132.5,897.4,132.9,899.2,132.9,901.2z"/>
	<path class="st2" d="M178.9,914.9h-9.2l-18.1-20.8v20.8h-6.7v-54.5h6.7v33.5l17.4-17.7h8.9L159.7,894L178.9,914.9z"/>
	<path class="st2" d="M212.4,914.9l-0.2-5.2c-2.1,2.1-4.3,3.6-6.4,4.5c-2.2,0.9-4.5,1.4-6.9,1.4c-2.2,0-4.1-0.3-5.7-0.8
		c-1.6-0.6-2.9-1.3-3.9-2.3c-1-1-1.8-2.2-2.2-3.5c-0.5-1.3-0.7-2.8-0.7-4.4c0-3.9,1.4-6.9,4.3-9.1c2.9-2.2,7.2-3.3,12.8-3.3h8v-3.4
		c0-2.3-0.7-4.1-2.2-5.5c-1.5-1.4-3.7-2.1-6.7-2.1c-2.2,0-4.3,0.2-6.5,0.7c-2.1,0.5-4.3,1.2-6.6,2.1v-6.1c0.8-0.3,1.8-0.6,2.8-0.9
		c1-0.3,2.1-0.6,3.3-0.8c1.2-0.2,2.4-0.4,3.6-0.6c1.3-0.1,2.5-0.2,3.8-0.2c2.3,0,4.5,0.3,6.3,0.8c1.9,0.5,3.5,1.3,4.8,2.4
		c1.3,1.1,2.3,2.4,3,4s1,3.5,1,5.6v26.7H212.4z M211.7,897.2h-8.5c-1.7,0-3.1,0.2-4.3,0.5c-1.2,0.3-2.2,0.8-3,1.4
		c-0.8,0.6-1.3,1.4-1.7,2.2c-0.4,0.9-0.6,1.8-0.6,2.9c0,0.7,0.1,1.5,0.3,2.1c0.2,0.7,0.6,1.3,1.1,1.8c0.5,0.5,1.2,0.9,2,1.3
		c0.8,0.3,1.8,0.5,3,0.5c1.5,0,3.3-0.5,5.3-1.4c2-0.9,4.1-2.4,6.3-4.5V897.2z"/>
	<path class="st2" d="M231,876.1h6l0.3,6.3c1.1-1.3,2.2-2.5,3.3-3.3c1.1-0.9,2.1-1.6,3.1-2.1c1-0.5,2.1-0.9,3.1-1.1
		c1.1-0.2,2.1-0.3,3.3-0.3c4,0,7,1.2,9.1,3.5c2,2.4,3.1,5.9,3.1,10.6v25.3h-6.7v-24.7c0-3-0.6-5.3-1.7-6.7c-1.1-1.5-2.8-2.2-5.1-2.2
		c-0.8,0-1.6,0.1-2.4,0.4c-0.8,0.2-1.6,0.7-2.5,1.3c-0.8,0.6-1.8,1.4-2.8,2.5c-1,1-2.1,2.3-3.3,3.9v25.7H231V876.1z"/>
	<path class="st2" d="M305.2,904.3c0,1.4-0.2,2.6-0.7,3.7s-1.1,2-1.9,2.9c-0.8,0.8-1.7,1.6-2.8,2.1c-1.1,0.6-2.2,1.1-3.4,1.5
		s-2.4,0.7-3.7,0.8c-1.3,0.2-2.5,0.3-3.7,0.3c-2.6,0-5-0.1-7.2-0.3c-2.2-0.2-4.4-0.6-6.5-1.1v-6.2c2.3,0.6,4.5,1.1,6.8,1.5
		c2.2,0.3,4.5,0.5,6.7,0.5c3.2,0,5.6-0.4,7.1-1.3s2.3-2.1,2.3-3.7c0-0.7-0.1-1.3-0.4-1.9c-0.2-0.6-0.7-1.1-1.3-1.6
		c-0.6-0.5-1.6-1-3-1.6c-1.4-0.5-3.2-1.2-5.5-1.9c-1.8-0.5-3.4-1.1-4.8-1.8c-1.5-0.7-2.8-1.4-3.8-2.3s-1.9-2-2.5-3.2
		c-0.6-1.2-0.9-2.6-0.9-4.3c0-1.1,0.3-2.3,0.8-3.6c0.5-1.3,1.4-2.5,2.6-3.6c1.2-1.1,2.8-2,4.9-2.8s4.6-1.1,7.7-1.1
		c1.5,0,3.2,0.1,5.1,0.3c1.9,0.2,3.8,0.5,5.8,0.9v6c-2.1-0.5-4.1-0.9-6-1.1c-1.9-0.2-3.5-0.4-4.9-0.4c-1.7,0-3.1,0.1-4.2,0.4
		c-1.1,0.3-2.1,0.6-2.8,1.1c-0.7,0.5-1.2,1-1.5,1.6c-0.3,0.6-0.5,1.3-0.5,2c0,0.7,0.1,1.3,0.4,1.9c0.3,0.6,0.8,1.1,1.5,1.6
		s1.8,1.1,3.1,1.6c1.3,0.5,3,1.1,5.1,1.7c2.3,0.7,4.2,1.4,5.8,2.1c1.6,0.7,2.8,1.6,3.8,2.5c1,0.9,1.7,1.9,2.1,3
		C305,901.6,305.2,902.8,305.2,904.3z"/>
	<path class="st2" d="M331.1,881.7h-11.5v-5.6h18.3v33.2h11.5v5.6h-31.1v-5.6h12.7V881.7z M333.5,859.8c0.7,0,1.4,0.1,2.1,0.4
		c0.6,0.3,1.2,0.7,1.7,1.1c0.5,0.5,0.8,1,1.1,1.7c0.3,0.6,0.4,1.3,0.4,2.1c0,0.7-0.1,1.4-0.4,2c-0.3,0.6-0.6,1.2-1.1,1.7
		c-0.5,0.5-1,0.9-1.7,1.1c-0.6,0.3-1.3,0.4-2.1,0.4c-0.7,0-1.4-0.1-2.1-0.4c-0.6-0.3-1.2-0.6-1.7-1.1s-0.8-1.1-1.1-1.7
		c-0.3-0.6-0.4-1.3-0.4-2c0-0.7,0.1-1.4,0.4-2.1c0.3-0.6,0.6-1.2,1.1-1.7c0.5-0.5,1-0.9,1.7-1.1C332.1,860,332.8,859.8,333.5,859.8z
		"/>
	<path class="st2" d="M361.4,876.1h6l0.3,6.3c1.1-1.3,2.2-2.5,3.3-3.3c1.1-0.9,2.1-1.6,3.1-2.1c1-0.5,2.1-0.9,3.1-1.1
		c1.1-0.2,2.1-0.3,3.3-0.3c4,0,7,1.2,9.1,3.5c2,2.4,3.1,5.9,3.1,10.6v25.3h-6.7v-24.7c0-3-0.6-5.3-1.7-6.7c-1.1-1.5-2.8-2.2-5.1-2.2
		c-0.8,0-1.6,0.1-2.4,0.4c-0.8,0.2-1.6,0.7-2.5,1.3c-0.8,0.6-1.8,1.4-2.8,2.5c-1,1-2.1,2.3-3.3,3.9v25.7h-6.7V876.1z"/>
	<path class="st2" d="M432.8,881.6c0.7,0.9,1.3,1.9,1.7,3.1c0.4,1.2,0.6,2.5,0.6,3.9c0,2-0.4,3.8-1.1,5.5c-0.7,1.7-1.8,3.1-3.1,4.3
		c-1.3,1.2-2.9,2.1-4.8,2.8c-1.9,0.7-3.9,1-6.2,1c-1.6,0-3.1-0.2-4.6-0.5c-1.4-0.3-2.5-0.8-3.4-1.3c-0.5,0.7-0.9,1.4-1.2,2
		c-0.3,0.6-0.5,1.4-0.5,2.2c0,1,0.5,1.8,1.4,2.4c0.9,0.6,2.2,1,3.7,1l10.2,0.4c1.9,0.1,3.7,0.3,5.3,0.7c1.6,0.4,3,1.1,4.2,1.9
		c1.2,0.8,2.1,1.8,2.7,3c0.7,1.2,1,2.6,1,4.2c0,1.7-0.4,3.4-1.1,4.9c-0.7,1.5-1.9,2.9-3.5,4.1c-1.6,1.2-3.5,2.1-5.9,2.8
		c-2.4,0.7-5.2,1-8.5,1c-3.1,0-5.8-0.3-8-0.8c-2.2-0.5-4-1.2-5.4-2.1c-1.4-0.9-2.4-1.9-3.1-3.2c-0.6-1.2-1-2.6-1-4
		c0-1.9,0.4-3.5,1.3-4.9c0.9-1.4,2.2-2.8,4.1-4.1c-0.7-0.3-1.2-0.7-1.7-1.2c-0.5-0.5-0.9-1-1.2-1.5c-0.3-0.6-0.5-1.1-0.7-1.8
		c-0.2-0.6-0.2-1.2-0.2-1.8c0-1.7,0.4-3.2,1.2-4.6c0.8-1.4,1.7-2.7,2.8-3.9c-0.5-0.6-0.9-1.2-1.3-1.7c-0.4-0.6-0.7-1.2-1-1.8
		c-0.3-0.7-0.5-1.4-0.6-2.1c-0.1-0.8-0.2-1.6-0.2-2.6c0-2,0.4-3.8,1.1-5.5c0.7-1.7,1.8-3.1,3.1-4.3c1.3-1.2,2.9-2.1,4.8-2.8
		c1.9-0.7,3.9-1,6.2-1c1,0,1.9,0.1,2.7,0.2c0.9,0.1,1.6,0.3,2.3,0.5H439v5.5H432.8z M409.5,920.5c0,1.8,1,3.2,2.9,4
		c1.9,0.8,4.6,1.3,8,1.3c2.1,0,3.9-0.2,5.4-0.6s2.6-0.9,3.5-1.5c0.9-0.6,1.5-1.4,1.9-2.2c0.4-0.8,0.6-1.6,0.6-2.5
		c0-1.6-0.6-2.7-1.9-3.5c-1.3-0.7-3.3-1.2-5.9-1.3l-10.1-0.3c-0.8,0.6-1.6,1.1-2.1,1.7c-0.6,0.5-1,1.1-1.3,1.6
		c-0.3,0.6-0.5,1.1-0.7,1.7C409.5,919.3,409.5,919.9,409.5,920.5z M411.5,888.8c0,1.2,0.2,2.4,0.6,3.4c0.4,1,1,1.9,1.7,2.6
		c0.7,0.7,1.6,1.3,2.6,1.7c1,0.4,2.1,0.6,3.4,0.6c1.3,0,2.5-0.2,3.6-0.7s1.9-1.1,2.6-1.8c0.7-0.8,1.2-1.7,1.6-2.7
		c0.4-1,0.6-2,0.6-3.1c0-1.2-0.2-2.4-0.6-3.4c-0.4-1-1-1.9-1.7-2.6c-0.7-0.7-1.6-1.3-2.6-1.7c-1-0.4-2.1-0.6-3.4-0.6
		c-1.3,0-2.5,0.2-3.6,0.7c-1,0.5-1.9,1.1-2.6,1.8c-0.7,0.8-1.2,1.6-1.6,2.6S411.5,887.7,411.5,888.8z"/>
	<path class="st2" d="M505,881.7h-11.5v-5.6h18.3v33.2h11.5v5.6h-31.1v-5.6H505V881.7z M507.4,859.8c0.7,0,1.4,0.1,2.1,0.4
		c0.6,0.3,1.2,0.7,1.7,1.1c0.5,0.5,0.8,1,1.1,1.7c0.3,0.6,0.4,1.3,0.4,2.1c0,0.7-0.1,1.4-0.4,2c-0.3,0.6-0.6,1.2-1.1,1.7
		c-0.5,0.5-1,0.9-1.7,1.1c-0.6,0.3-1.3,0.4-2.1,0.4c-0.7,0-1.4-0.1-2.1-0.4c-0.6-0.3-1.2-0.6-1.7-1.1s-0.8-1.1-1.1-1.7
		c-0.3-0.6-0.4-1.3-0.4-2c0-0.7,0.1-1.4,0.4-2.1c0.3-0.6,0.6-1.2,1.1-1.7c0.5-0.5,1-0.9,1.7-1.1C505.9,860,506.6,859.8,507.4,859.8z
		"/>
	<path class="st2" d="M566.5,914.3c-1.5,0.4-3.1,0.7-4.7,0.8c-1.6,0.2-3.3,0.3-4.9,0.3c-4.9,0-8.5-1.1-10.9-3.3
		c-2.4-2.2-3.6-5.6-3.6-10.1v-20.2h-10.8v-5.6h10.8v-10.7l6.7-1.7v12.4h17.4v5.6h-17.4v19.7c0,2.8,0.7,4.9,2.2,6.2
		c1.5,1.4,3.7,2.1,6.5,2.1c1.2,0,2.6-0.1,4.1-0.3s3-0.5,4.6-0.9V914.3z"/>
</g>
<rect x="492.6" y="851.5" class="st0" width="30.1" height="21"/>
<path class="st2" d="M515,858.3c0,1.6-0.2,3.2-0.6,4.8c-0.4,1.3-1,2.4-1.8,3.5c-0.8,0.9-1.7,1.6-2.8,2.1c-2.4,0.9-5.1,0.9-7.6,0
	c-1.1-0.5-2.1-1.2-2.9-2.1c-0.8-1-1.4-2.2-1.8-3.5c-0.5-1.5-0.7-3.2-0.6-4.8v-6.7c0-1.6,0.2-3.2,0.6-4.8c0.4-1.3,1-2.4,1.8-3.5
	c0.8-0.9,1.8-1.6,2.9-2.1c1.2-0.5,2.5-0.7,3.8-0.7c1.3,0,2.6,0.2,3.8,0.7c1.1,0.5,2.1,1.2,2.9,2.1c0.8,1,1.5,2.2,1.8,3.5
	c0.4,1.5,0.7,3.2,0.6,4.8L515,858.3z M501.5,856.6l8.9-6.7c0-1.5-0.4-3-1.3-4.2c-0.8-0.9-2-1.4-3.2-1.4c-1.3-0.1-2.6,0.5-3.3,1.6
	c-0.8,1.5-1.2,3.2-1.1,4.9L501.5,856.6z M510.5,853.5l-8.9,6.6c0.2,3.7,1.7,5.5,4.5,5.5c3,0,4.5-2.2,4.5-6.5L510.5,853.5z"/>
<g class="st1">
	<path class="st2" d="M116.8,315.9c0-1.9-0.4-3.4-1.3-4.7c-0.8-1.3-1.9-2.4-3.3-3.2c-1.3-0.9-2.8-1.6-4.4-2.2
		c-1.6-0.6-3.1-1.1-4.6-1.6c-2.1-0.7-4.3-1.5-6.5-2.5c-2.2-1-4.2-2.2-6-3.6c-1.8-1.4-3.3-3.1-4.5-5c-1.2-1.9-1.7-4.2-1.7-6.8
		c0-2.6,0.6-4.9,1.7-7c1.2-2.1,2.7-3.8,4.5-5.2c1.9-1.4,4-2.5,6.3-3.2c2.4-0.7,4.7-1.1,7.1-1.1c2.6,0,5.2,0.4,7.6,1.3
		c2.4,0.9,4.6,2.1,6.5,3.7s3.4,3.5,4.5,5.7c1.1,2.2,1.7,4.8,1.8,7.5h-7.9c-0.2-1.7-0.7-3.3-1.3-4.8c-0.6-1.4-1.5-2.7-2.5-3.7
		c-1.1-1-2.3-1.8-3.8-2.4c-1.5-0.6-3.1-0.9-4.9-0.9c-1.5,0-2.9,0.2-4.3,0.6c-1.4,0.4-2.6,1-3.7,1.9c-1.1,0.8-2,1.9-2.6,3.1
		c-0.7,1.2-1,2.6-1,4.2c0,1.7,0.5,3.2,1.3,4.4c0.9,1.2,1.9,2.2,3.3,3.1c1.3,0.8,2.7,1.5,4.3,2.1c1.5,0.6,3,1,4.3,1.5
		c1.5,0.5,3,1,4.5,1.6c1.5,0.6,3,1.3,4.4,2.1s2.7,1.7,4,2.6c1.2,1,2.3,2.1,3.2,3.3c0.9,1.2,1.6,2.6,2.1,4.1c0.5,1.5,0.8,3.1,0.8,4.9
		c0,2.7-0.6,5.1-1.8,7.1c-1.2,2-2.8,3.7-4.7,5.1c-1.9,1.3-4.1,2.4-6.5,3c-2.4,0.7-4.8,1-7.2,1c-2.7,0-5.3-0.4-7.9-1.2
		s-4.9-2-6.9-3.6c-2-1.6-3.7-3.5-5-5.7c-1.3-2.3-2-4.8-2-7.7h7.9c0.3,1.9,0.8,3.6,1.5,5c0.8,1.5,1.8,2.7,3,3.7
		c1.2,1,2.6,1.8,4.2,2.3c1.6,0.5,3.3,0.8,5.2,0.8c1.5,0,3-0.2,4.4-0.6s2.8-1,3.9-1.7c1.1-0.8,2.1-1.8,2.8-3
		C116.4,319,116.8,317.6,116.8,315.9z"/>
	<path class="st2" d="M150.7,303.1l-6.7,7.7v20.5h-7.9v-60.6h7.9v29.6l5.9-7.3l17.8-22.3h9.4l-21.2,26.5l22.6,34.1H169L150.7,303.1z
		"/>
	<path class="st2" d="M216.3,315.6H196l-4.9,15.7h-7.7l19.6-60.6h6.4l19.2,60.6H221L216.3,315.6z M198.1,308.9h16.1l-8-26.3
		L198.1,308.9z"/>
	<path class="st2" d="M276.4,331.2h-7.8L245.1,286l-0.1,45.3h-7.8v-60.6h7.8l23.5,45.2l0.1-45.2h7.8V331.2z"/>
	<path class="st2" d="M321.3,315.9c0-1.9-0.4-3.4-1.3-4.7c-0.8-1.3-1.9-2.4-3.3-3.2c-1.3-0.9-2.8-1.6-4.4-2.2
		c-1.6-0.6-3.1-1.1-4.6-1.6c-2.1-0.7-4.3-1.5-6.5-2.5c-2.2-1-4.2-2.2-6-3.6c-1.8-1.4-3.3-3.1-4.5-5c-1.2-1.9-1.7-4.2-1.7-6.8
		c0-2.6,0.6-4.9,1.7-7c1.2-2.1,2.7-3.8,4.5-5.2c1.9-1.4,4-2.5,6.3-3.2c2.4-0.7,4.7-1.1,7.1-1.1c2.6,0,5.2,0.4,7.6,1.3
		c2.4,0.9,4.6,2.1,6.5,3.7s3.4,3.5,4.5,5.7c1.1,2.2,1.7,4.8,1.8,7.5h-7.9c-0.2-1.7-0.7-3.3-1.3-4.8c-0.6-1.4-1.5-2.7-2.5-3.7
		c-1.1-1-2.3-1.8-3.8-2.4c-1.5-0.6-3.1-0.9-4.9-0.9c-1.5,0-2.9,0.2-4.3,0.6c-1.4,0.4-2.6,1-3.7,1.9c-1.1,0.8-2,1.9-2.6,3.1
		c-0.7,1.2-1,2.6-1,4.2c0,1.7,0.5,3.2,1.3,4.4c0.9,1.2,1.9,2.2,3.3,3.1c1.3,0.8,2.7,1.5,4.3,2.1c1.5,0.6,3,1,4.3,1.5
		c1.5,0.5,3,1,4.5,1.6c1.5,0.6,3,1.3,4.4,2.1s2.7,1.7,4,2.6c1.2,1,2.3,2.1,3.2,3.3c0.9,1.2,1.6,2.6,2.1,4.1c0.5,1.5,0.8,3.1,0.8,4.9
		c0,2.7-0.6,5.1-1.8,7.1c-1.2,2-2.8,3.7-4.7,5.1c-1.9,1.3-4.1,2.4-6.5,3c-2.4,0.7-4.8,1-7.2,1c-2.7,0-5.3-0.4-7.9-1.2
		s-4.9-2-6.9-3.6c-2-1.6-3.7-3.5-5-5.7c-1.3-2.3-2-4.8-2-7.7h7.9c0.3,1.9,0.8,3.6,1.5,5c0.8,1.5,1.8,2.7,3,3.7
		c1.2,1,2.6,1.8,4.2,2.3c1.6,0.5,3.3,0.8,5.2,0.8c1.5,0,3-0.2,4.4-0.6s2.8-1,3.9-1.7c1.1-0.8,2.1-1.8,2.8-3
		C320.9,319,321.3,317.6,321.3,315.9z"/>
	<path class="st2" d="M340.7,270.7h36.6v6.7h-14.5v47.2h14.5v6.7h-36.6v-6.7h14.2v-47.2h-14.2V270.7z"/>
	<path class="st2" d="M429.8,331.2H422L398.5,286l-0.1,45.3h-7.8v-60.6h7.8l23.5,45.2l0.1-45.2h7.8V331.2z"/>
	<path class="st2" d="M482.2,323.3c-2.6,3-5.5,5.2-8.8,6.7c-3.3,1.4-6.9,2.1-10.9,2.1c-2.5,0-4.8-0.4-6.9-1.1c-2.1-0.7-4-1.7-5.6-3
		c-1.7-1.3-3.1-2.8-4.4-4.6s-2.3-3.6-3.1-5.7c-0.8-2-1.5-4.2-1.9-6.4c-0.4-2.2-0.7-4.5-0.7-6.8v-7c0-2.2,0.2-4.5,0.6-6.7
		c0.4-2.2,0.9-4.4,1.7-6.4c0.8-2.1,1.7-4,2.9-5.7c1.2-1.8,2.6-3.3,4.2-4.6s3.5-2.3,5.5-3.1s4.4-1.1,6.9-1.1c2.8,0,5.4,0.4,7.8,1.3
		c2.4,0.9,4.5,2.1,6.2,3.7c1.8,1.6,3.2,3.6,4.3,5.9c1.1,2.3,1.7,4.8,2,7.7h-7.6c-0.3-1.7-0.8-3.4-1.4-4.8c-0.6-1.5-1.5-2.8-2.5-3.8
		s-2.3-1.9-3.7-2.5c-1.4-0.6-3.1-0.9-5-0.9c-1.8,0-3.5,0.3-4.9,0.9s-2.6,1.5-3.7,2.5c-1.1,1.1-1.9,2.3-2.6,3.7
		c-0.7,1.4-1.3,2.9-1.7,4.4c-0.4,1.6-0.8,3.1-1,4.7c-0.2,1.6-0.3,3.2-0.3,4.7v7.1c0,1.5,0.2,3.1,0.4,4.7c0.2,1.6,0.6,3.2,1.1,4.8
		c0.5,1.6,1.1,3,1.9,4.4c0.8,1.4,1.7,2.6,2.8,3.7c1.1,1.1,2.4,1.9,3.8,2.5c1.4,0.6,3.1,1,4.9,1c1.1,0,2.2,0,3.3-0.1
		c1.2-0.1,2.3-0.3,3.3-0.7c1.1-0.3,2.1-0.8,3-1.4s1.7-1.3,2.4-2.2l0.1-13.6h-12.3v-6.5h19.6L482.2,323.3z"/>
</g>
<path class="st3" d="M553.4,282.9v31.8h6.9c0.5,0,1,0.1,1.4,0.4c0.3,0.3,0.4,0.6,0.4,1c0,0.4-0.1,0.7-0.4,1
	c-0.4,0.3-0.9,0.4-1.4,0.3h-16.5c-0.5,0-1-0.1-1.4-0.4c-0.3-0.3-0.4-0.6-0.4-1c0-0.4,0.1-0.7,0.4-1c0.4-0.3,0.9-0.4,1.4-0.4h6.9
	v-31.8h-10.9v9.2c0,0.5-0.1,1-0.4,1.4c-0.3,0.3-0.6,0.4-1,0.4c-0.4,0-0.7-0.1-1-0.4c-0.3-0.4-0.4-0.9-0.4-1.4v-11.9H567v11.9
	c0,0.5-0.1,1-0.4,1.4c-0.5,0.5-1.4,0.5-1.9,0c0,0,0,0,0,0c-0.3-0.4-0.4-0.9-0.4-1.4v-9.2H553.4z"/>
<path class="st3" d="M532.3,290.1c0,1-0.1,2-0.4,3c-0.2,0.8-0.6,1.5-1.1,2.2c-0.5,0.6-1.1,1-1.8,1.3c-0.8,0.3-1.6,0.5-2.4,0.5
	c-0.8,0-1.6-0.1-2.4-0.5c-0.7-0.3-1.3-0.7-1.8-1.3c-0.5-0.6-0.9-1.4-1.2-2.2c-0.3-1-0.4-2-0.4-3v-4.2c0-1,0.1-2,0.4-3
	c0.2-0.8,0.6-1.5,1.1-2.2c0.5-0.6,1.1-1,1.8-1.3c1.5-0.6,3.2-0.6,4.8,0c0.7,0.3,1.3,0.7,1.8,1.3c0.5,0.6,0.9,1.4,1.2,2.2
	c0.3,1,0.4,2,0.4,3V290.1z M523.7,289l5.7-4.2c0-1-0.3-1.9-0.8-2.7c-1.1-1.1-2.8-1.2-3.9-0.1c-0.1,0.1-0.2,0.2-0.2,0.2
	c-0.5,0.9-0.8,2-0.7,3.1V289z M529.4,287.1l-5.7,4.2c0.1,2.3,1.1,3.5,2.8,3.5s2.8-1.4,2.8-4.1L529.4,287.1z"/>
<path class="st3" d="M528.9,319.3h-2.9v-14.1l-4.5,1.6v-2.5l7.3-2.7h0.2V319.3z"/>
<ellipse transform="matrix(0.1602 -0.9871 0.9871 0.1602 164.1264 787.0535)" class="st4" cx="544.6" cy="297.1" rx="38.5" ry="38.5"/>
<path class="st2" d="M505.2,676.8H531v5.9h-9.4v31.5h9.4v5.9h-25.8v-5.9h9.1v-31.6h-9.2L505.2,676.8z"/>
<path class="st2" d="M569.5,682.7h-13.3v37.5H549v-37.5h-13.2v-5.9h33.7V682.7z"/>
<g class="st1">
	<path class="st2" d="M119.3,709.8c0-1.3-0.3-2.5-0.8-3.5c-0.6-1-1.3-1.9-2.4-2.7c-1-0.8-2.2-1.4-3.6-2c-1.4-0.6-2.9-1.1-4.6-1.6
		c-2.2-0.6-4.4-1.4-6.5-2.4c-2.1-1-4.1-2.1-5.8-3.5c-1.7-1.4-3-3-4.1-4.8c-1-1.8-1.6-4-1.6-6.4c0-2.4,0.5-4.6,1.6-6.5
		c1-1.9,2.4-3.5,4.2-4.9c1.7-1.3,3.8-2.4,6.1-3.1c2.3-0.7,4.7-1.1,7.3-1.1c2.7,0,5.2,0.4,7.6,1.3c2.4,0.8,4.4,2,6.2,3.5
		c1.8,1.5,3.2,3.3,4.2,5.4s1.6,4.4,1.6,7h-9.3c-0.1-1.4-0.4-2.7-0.9-3.9c-0.5-1.2-1.1-2.2-2-3c-0.9-0.8-1.9-1.5-3.1-2
		c-1.2-0.5-2.7-0.7-4.3-0.7c-1.4,0-2.7,0.2-3.9,0.5c-1.2,0.4-2.2,0.9-3.1,1.6c-0.9,0.7-1.5,1.5-2,2.5c-0.5,1-0.7,2.1-0.7,3.3
		c0,1.3,0.3,2.5,1,3.4c0.7,1,1.5,1.8,2.6,2.5c1.1,0.7,2.3,1.3,3.7,1.9c1.4,0.5,2.9,1,4.4,1.4c2.3,0.7,4.6,1.6,6.7,2.6
		c2.1,1,4,2.2,5.6,3.7c1.6,1.4,2.9,3.1,3.9,5c1,1.9,1.4,4,1.4,6.4c0,2.5-0.5,4.7-1.6,6.6s-2.5,3.5-4.2,4.8s-3.8,2.3-6.2,2.9
		c-2.3,0.7-4.8,1-7.3,1c-1.7,0-3.4-0.2-5.1-0.5c-1.7-0.3-3.3-0.8-4.9-1.5c-1.6-0.7-3-1.5-4.3-2.5c-1.3-1-2.5-2.1-3.5-3.4
		c-1-1.3-1.8-2.8-2.3-4.4c-0.6-1.6-0.9-3.4-0.9-5.3h9.3c0.1,1.7,0.5,3.2,1.1,4.4c0.6,1.3,1.4,2.3,2.5,3.1c1,0.8,2.2,1.5,3.6,1.9
		c1.4,0.4,2.9,0.6,4.6,0.6c1.4,0,2.7-0.2,3.9-0.5c1.2-0.3,2.3-0.8,3.2-1.5c0.9-0.7,1.6-1.5,2.1-2.4
		C119.1,712.1,119.3,711,119.3,709.8z"/>
	<path class="st2" d="M152.9,699.8l-6,6.8v17.7h-9.4v-56.2h9.4v26.3l5.1-6.7l14.8-19.6h11.3L159,692.7l20.1,31.5H168L152.9,699.8z"
		/>
	<path class="st2" d="M212.3,711.2h-17.6l-3.9,13h-9.6l18.3-56.2h8.1l17.9,56.2h-9.5L212.3,711.2z M197.1,703.3H210l-6.4-22
		L197.1,703.3z"/>
	<path class="st2" d="M268.8,724.3h-9.3l-18.3-38.7l0,38.7h-9.4v-56.2h9.4l18.2,38.6l0.1-38.6h9.4V724.3z"/>
	<path class="st2" d="M309.1,709.8c0-1.3-0.3-2.5-0.8-3.5c-0.6-1-1.3-1.9-2.4-2.7c-1-0.8-2.2-1.4-3.6-2c-1.4-0.6-2.9-1.1-4.6-1.6
		c-2.2-0.6-4.4-1.4-6.5-2.4c-2.1-1-4.1-2.1-5.8-3.5c-1.7-1.4-3-3-4.1-4.8c-1-1.8-1.6-4-1.6-6.4c0-2.4,0.5-4.6,1.6-6.5
		c1-1.9,2.4-3.5,4.2-4.9c1.7-1.3,3.8-2.4,6.1-3.1c2.3-0.7,4.7-1.1,7.3-1.1c2.7,0,5.2,0.4,7.6,1.3c2.4,0.8,4.4,2,6.2,3.5
		c1.8,1.5,3.2,3.3,4.2,5.4s1.6,4.4,1.6,7h-9.3c-0.1-1.4-0.4-2.7-0.9-3.9c-0.5-1.2-1.1-2.2-2-3c-0.9-0.8-1.9-1.5-3.1-2
		c-1.2-0.5-2.7-0.7-4.3-0.7c-1.4,0-2.7,0.2-3.9,0.5c-1.2,0.4-2.2,0.9-3.1,1.6c-0.9,0.7-1.5,1.5-2,2.5c-0.5,1-0.7,2.1-0.7,3.3
		c0,1.3,0.3,2.5,1,3.4c0.7,1,1.5,1.8,2.6,2.5c1.1,0.7,2.3,1.3,3.7,1.9c1.4,0.5,2.9,1,4.4,1.4c2.3,0.7,4.6,1.6,6.7,2.6
		c2.1,1,4,2.2,5.6,3.7c1.6,1.4,2.9,3.1,3.9,5c1,1.9,1.4,4,1.4,6.4c0,2.5-0.5,4.7-1.6,6.6s-2.5,3.5-4.2,4.8s-3.8,2.3-6.2,2.9
		c-2.3,0.7-4.8,1-7.3,1c-1.7,0-3.4-0.2-5.1-0.5c-1.7-0.3-3.3-0.8-4.9-1.5c-1.6-0.7-3-1.5-4.3-2.5c-1.3-1-2.5-2.1-3.5-3.4
		c-1-1.3-1.8-2.8-2.3-4.4c-0.6-1.6-0.9-3.4-0.9-5.3h9.3c0.1,1.7,0.5,3.2,1.1,4.4c0.6,1.3,1.4,2.3,2.5,3.1c1,0.8,2.2,1.5,3.6,1.9
		c1.4,0.4,2.9,0.6,4.6,0.6c1.4,0,2.7-0.2,3.9-0.5c1.2-0.3,2.3-0.8,3.2-1.5c0.9-0.7,1.6-1.5,2.1-2.4
		C308.8,712.1,309.1,711,309.1,709.8z"/>
	<path class="st2" d="M328.6,668.1H362v7.7h-12.2v40.9H362v7.6h-33.4v-7.6h11.9v-40.9h-11.9V668.1z"/>
	<path class="st2" d="M411.2,724.3h-9.3l-18.3-38.7l0,38.7h-9.4v-56.2h9.4l18.2,38.6l0.1-38.6h9.4V724.3z"/>
	<path class="st2" d="M460,717.3c-1,1.1-2.1,2.2-3.4,3.1c-1.3,1-2.7,1.8-4.3,2.5c-1.6,0.7-3.3,1.2-5.2,1.6c-1.9,0.4-3.9,0.6-6,0.6
		c-3.4,0-6.4-0.7-9-2c-2.6-1.3-4.8-3.1-6.6-5.4c-1.8-2.3-3.2-5-4.1-8c-0.9-3.1-1.4-6.4-1.4-10v-6.9c0-3.6,0.5-6.9,1.4-10
		c0.9-3.1,2.3-5.8,4-8.1c1.7-2.3,3.9-4.1,6.4-5.4c2.5-1.3,5.4-2,8.6-2c2.9,0,5.5,0.4,7.8,1.2c2.3,0.8,4.3,1.9,5.9,3.5
		c1.6,1.5,3,3.3,3.9,5.5c1,2.2,1.6,4.6,1.8,7.3h-9.1c-0.2-1.5-0.6-2.9-1.1-4.1c-0.5-1.2-1.1-2.2-2-3.1c-0.8-0.8-1.8-1.5-3-1.9
		c-1.2-0.5-2.6-0.7-4.1-0.7c-2,0-3.6,0.5-5,1.4c-1.4,1-2.6,2.3-3.5,3.9c-0.9,1.6-1.6,3.5-2,5.7c-0.4,2.1-0.7,4.4-0.7,6.7v7
		c0,2.3,0.3,4.6,0.7,6.7c0.4,2.1,1.2,4,2.1,5.7c1,1.6,2.2,2.9,3.7,3.9c1.5,1,3.3,1.5,5.5,1.5c0.9,0,1.8-0.1,2.7-0.2
		c0.9-0.1,1.8-0.3,2.6-0.6c0.8-0.3,1.6-0.6,2.3-1c0.7-0.4,1.3-0.9,1.7-1.5l0.1-11.2h-10.2v-7.2h19.2L460,717.3z"/>
</g>
<circle class="st4" cx="537.3" cy="695.2" r="45.3"/>
<path class="st2" d="M533.6,704.8c0.7,0.1,1.3-0.4,1.3-1.1c0-0.2,0-0.3-0.1-0.5c-0.2-1.3-0.4-2.5-0.6-3.8c0-0.3,0.1-0.7,0.3-0.9
	c1.3-1.1,1.6-3,0.8-4.5c-0.8-1.5-2.5-2.2-4.1-1.7c-1.2,0.3-2.2,1.3-2.5,2.5c-0.4,1.3,0,2.7,1,3.5c0.4,0.3,0.5,0.8,0.4,1.2
	c-0.2,1.2-0.4,2.3-0.6,3.5c-0.1,1.2,0.3,1.7,1.6,1.7h1C532.7,704.8,533.1,704.8,533.6,704.8z"/>
<path class="st2" d="M120.4,145.9c-1.9,2.8-4.7,5-7.8,6.3c-3.9,1.6-8,2.3-12.2,2.2c-9.2,0-16.4-2.6-21.8-7.9l5.5-6.1
	c4.4,4.1,10.3,6.3,16.3,6.2c3.1,0.1,6.2-0.7,8.8-2.5c2.3-1.6,3.6-4.2,3.5-7c0.1-1.6-0.3-3.1-1.1-4.5c-0.9-1.4-2.2-2.5-3.7-3.2
	c-2.4-1.2-4.8-2.2-7.4-2.9c-6.6-1.9-11.4-4.3-14.5-7c-3.1-2.7-4.8-6.5-4.6-10.6c-0.1-3,0.9-6,2.6-8.4c1.9-2.5,4.4-4.5,7.3-5.7
	c3.3-1.4,6.9-2.1,10.5-2c7.9,0,14.6,2.4,19.8,7.1l-5.2,5.9c-3.9-3.4-8.8-5.3-14-5.2c-2.7-0.1-5.4,0.6-7.8,2c-1.9,1.2-3.1,3.4-3,5.7
	c-0.1,1.4,0.4,2.8,1.2,4c1.1,1.3,2.6,2.4,4.2,3c2.7,1.2,5.5,2.2,8.4,3c5.7,1.7,10.1,3.9,13.1,6.6s4.5,6.6,4.5,11.8
	C123.1,140,122.2,143.2,120.4,145.9z"/>
<path class="st2" d="M135,153.3V94.1h10v59.3H135z M165.9,94.1h11l-20.7,27l22.3,32.3h-11.9l-21.2-31.7L165.9,94.1z"/>
<path class="st2" d="M194,139l-4.1,14.3h-10.2l18.9-59.3H211l18.9,59.3h-10.6l-4.1-14.3H194z M213.1,131.3l-8.5-29.5l-8.5,29.5
	H213.1z"/>
<path class="st2" d="M244.1,102.9c0.9,9.4,1.4,17.2,1.4,23.5v26.9h-8.8V94.1h13l18.9,50.4c-0.4-4.2-0.7-8.1-1-11.5
	c-0.3-3.4-0.4-7.4-0.4-12V94h8.8v59.3h-13L244.1,102.9z"/>
<path class="st2" d="M326.5,145.9c-1.9,2.8-4.7,5-7.8,6.3c-3.9,1.6-8,2.3-12.1,2.2c-9.2,0-16.4-2.6-21.8-7.9l5.5-6.1
	c4.4,4.1,10.3,6.3,16.3,6.2c3.1,0.1,6.2-0.7,8.8-2.5c2.3-1.6,3.6-4.2,3.5-7c0.1-1.6-0.3-3.1-1.1-4.5c-0.9-1.4-2.2-2.5-3.6-3.2
	c-2.4-1.2-4.8-2.2-7.4-2.9c-6.6-1.9-11.4-4.3-14.5-7c-3.1-2.7-4.8-6.6-4.6-10.7c-0.1-3,0.9-5.9,2.6-8.3c1.9-2.5,4.4-4.5,7.3-5.7
	c3.3-1.4,6.9-2.1,10.5-2c8,0,14.6,2.4,19.8,7.1l-5.2,5.9c-3.9-3.4-8.8-5.3-14-5.2c-2.7-0.1-5.4,0.6-7.8,2c-1.9,1.2-3.1,3.4-3,5.7
	c-0.1,1.4,0.4,2.8,1.2,4c1.1,1.3,2.6,2.4,4.2,3c2.7,1.2,5.5,2.2,8.4,3c5.7,1.7,10.1,3.9,13.1,6.6c3,2.7,4.5,6.6,4.5,11.8
	C329.2,140,328.2,143.2,326.5,145.9z"/>
<path class="st2" d="M377.2,101.6h-12.9v44h12.9v7.6h-35.7v-7.6h12.9v-44h-12.9v-7.5h35.7V101.6z"/>
<path class="st2" d="M398.6,102.9c0.9,9.4,1.4,17.2,1.4,23.5v26.9h-8.8V94.1h13l18.8,50.4c-0.4-4.2-0.7-8.1-1-11.5
	c-0.3-3.4-0.4-7.4-0.4-12V94h8.8v59.3h-13L398.6,102.9z"/>
<path class="st2" d="M446.1,146.6c-4.2-5.2-6.3-12.9-6.3-23c-0.2-5.8,1-11.5,3.5-16.8c2-4.3,5.3-8,9.4-10.5c3.9-2.4,8.4-3.6,13-3.5
	c3.4-0.1,6.7,0.5,9.8,1.7c2.9,1.2,5.5,3,7.8,5.2l-5.6,5.8c-1.6-1.5-3.5-2.8-5.5-3.7c-2-0.8-4.1-1.2-6.2-1.2c-4.4-0.1-8.6,2-11.3,5.5
	c-2.9,3.7-4.4,9.5-4.4,17.4c0,8.1,1.2,14,3.5,17.6c2.3,3.6,5.9,5.4,10.7,5.4c3.4,0.1,6.8-0.8,9.8-2.5v-16.3h-10l-1-7.6h20.7V149
	c-2.9,1.7-6.1,3-9.3,4c-3.4,1-7,1.5-10.6,1.4C456.2,154.4,450.3,151.8,446.1,146.6z"/>
<path class="st2" d="M570.3,153.3h-10v-51.2h-17.8v-8.1h45.9l-1,8.1h-17.1V153.3z"/>
<circle class="st5" cx="521.1" cy="142.7" r="10"/>
<circle class="st6" cx="521.1" cy="101.1" r="10.9"/>
<line class="st4" x1="521.1" y1="148" x2="521.1" y2="111.6"/>
<circle class="st2" cx="521.1" cy="101.1" r="3.9"/>
<g class="st1">
	<path class="st2" d="M140.2,1087.5c0-1.3-0.2-2.5-0.6-3.5c-0.4-1-1-2-1.7-2.8c-0.7-0.8-1.5-1.5-2.5-2.2c-0.9-0.6-1.9-1.2-3-1.7
		c-1.1-0.5-2.1-0.9-3.2-1.3c-1.1-0.4-2.2-0.7-3.2-1.1c-1.3-0.4-2.6-0.9-4-1.4s-2.7-1.1-3.9-1.7s-2.5-1.4-3.6-2.2s-2.1-1.8-2.9-2.8
		c-0.8-1.1-1.5-2.2-2-3.5c-0.5-1.3-0.7-2.7-0.7-4.3c0-2.3,0.5-4.4,1.6-6.2c1-1.8,2.4-3.3,4.1-4.6c1.7-1.2,3.6-2.2,5.7-2.8
		c2.1-0.6,4.2-0.9,6.4-0.9c2.4,0,4.7,0.4,6.8,1.2c2.2,0.8,4.1,1.9,5.7,3.3c1.6,1.4,2.9,3.1,3.9,5.2c1,2,1.5,4.3,1.6,6.7H140
		c-0.2-1.8-0.7-3.5-1.4-5c-0.7-1.5-1.6-2.8-2.8-3.9c-1.2-1.1-2.5-1.9-4.1-2.5c-1.6-0.6-3.3-0.9-5.2-0.9c-1.6,0-3.1,0.2-4.7,0.6
		c-1.5,0.4-2.9,1.1-4.1,1.9c-1.2,0.9-2.2,1.9-3,3.2c-0.8,1.3-1.1,2.8-1.1,4.6c0,1.9,0.4,3.5,1.3,4.8c0.9,1.3,2,2.4,3.4,3.3
		c1.4,0.9,2.9,1.7,4.5,2.3c1.6,0.6,3.2,1.1,4.7,1.6c1.4,0.4,2.7,0.9,4.1,1.4s2.7,1.1,4,1.8c1.3,0.7,2.5,1.5,3.6,2.3
		c1.1,0.9,2.1,1.8,3,3c0.8,1.1,1.5,2.3,2,3.7c0.5,1.4,0.7,2.9,0.7,4.5c0,2.5-0.5,4.6-1.6,6.4c-1.1,1.8-2.5,3.4-4.1,4.6
		c-1.7,1.2-3.6,2.1-5.8,2.7s-4.3,0.9-6.6,0.9c-2.5,0-4.9-0.4-7.2-1.1c-2.3-0.7-4.4-1.8-6.2-3.2c-1.8-1.4-3.3-3.1-4.4-5.2
		c-1.1-2-1.7-4.4-1.8-7h4.7c0.2,2,0.8,3.8,1.6,5.3c0.8,1.6,1.9,2.9,3.2,3.9c1.3,1,2.8,1.8,4.6,2.4c1.7,0.5,3.6,0.8,5.6,0.8
		c1.6,0,3.3-0.2,4.8-0.6c1.6-0.4,3-1,4.3-1.9c1.3-0.9,2.3-2,3-3.3C139.8,1090.9,140.2,1089.3,140.2,1087.5z"/>
	<path class="st2" d="M169.1,1073.5l-7.2,7.7v20.2h-4.7v-56.2h4.7v30.1l6.9-8l19-22.1h5.8l-21.3,25l22.9,31.2h-5.6L169.1,1073.5z"/>
	<path class="st2" d="M231.8,1085.6h-21.4l-5,15.7h-4.7l18.3-56.2h4.2l18.1,56.2h-4.6L231.8,1085.6z M211.8,1081.5h18.8l-9.3-29.6
		L211.8,1081.5z"/>
	<path class="st2" d="M285.6,1101.3H281l-25.8-47.4l0,47.4h-4.6v-56.2h4.6l25.8,47.4l0-47.4h4.6V1101.3z"/>
	<path class="st2" d="M330,1087.5c0-1.3-0.2-2.5-0.6-3.5c-0.4-1-1-2-1.7-2.8c-0.7-0.8-1.5-1.5-2.5-2.2c-0.9-0.6-1.9-1.2-3-1.7
		c-1.1-0.5-2.1-0.9-3.2-1.3c-1.1-0.4-2.2-0.7-3.2-1.1c-1.3-0.4-2.6-0.9-4-1.4s-2.7-1.1-3.9-1.7s-2.5-1.4-3.6-2.2s-2.1-1.8-2.9-2.8
		c-0.8-1.1-1.5-2.2-2-3.5c-0.5-1.3-0.7-2.7-0.7-4.3c0-2.3,0.5-4.4,1.6-6.2c1-1.8,2.4-3.3,4.1-4.6c1.7-1.2,3.6-2.2,5.7-2.8
		c2.1-0.6,4.2-0.9,6.4-0.9c2.4,0,4.7,0.4,6.8,1.2c2.2,0.8,4.1,1.9,5.7,3.3c1.6,1.4,2.9,3.1,3.9,5.2c1,2,1.5,4.3,1.6,6.7h-4.7
		c-0.2-1.8-0.7-3.5-1.4-5c-0.7-1.5-1.6-2.8-2.8-3.9c-1.2-1.1-2.5-1.9-4.1-2.5c-1.6-0.6-3.3-0.9-5.2-0.9c-1.6,0-3.1,0.2-4.7,0.6
		c-1.5,0.4-2.9,1.1-4.1,1.9c-1.2,0.9-2.2,1.9-3,3.2c-0.8,1.3-1.1,2.8-1.1,4.6c0,1.9,0.4,3.5,1.3,4.8c0.9,1.3,2,2.4,3.4,3.3
		c1.4,0.9,2.9,1.7,4.5,2.3c1.6,0.6,3.2,1.1,4.7,1.6c1.4,0.4,2.7,0.9,4.1,1.4s2.7,1.1,4,1.8c1.3,0.7,2.5,1.5,3.6,2.3
		c1.1,0.9,2.1,1.8,3,3c0.8,1.1,1.5,2.3,2,3.7c0.5,1.4,0.7,2.9,0.7,4.5c0,2.5-0.5,4.6-1.6,6.4c-1.1,1.8-2.5,3.4-4.1,4.6
		c-1.7,1.2-3.6,2.1-5.8,2.7s-4.3,0.9-6.6,0.9c-2.5,0-4.9-0.4-7.2-1.1c-2.3-0.7-4.4-1.8-6.2-3.2c-1.8-1.4-3.3-3.1-4.4-5.2
		c-1.1-2-1.7-4.4-1.8-7h4.7c0.2,2,0.8,3.8,1.6,5.3c0.8,1.6,1.9,2.9,3.2,3.9c1.3,1,2.8,1.8,4.6,2.4c1.7,0.5,3.6,0.8,5.6,0.8
		c1.6,0,3.3-0.2,4.8-0.6c1.6-0.4,3-1,4.3-1.9c1.3-0.9,2.3-2,3-3.3C329.6,1090.9,330,1089.3,330,1087.5z"/>
	<path class="st2" d="M346.7,1045.1h32.5v4.2h-14.1v47.9h14.1v4.1h-32.5v-4.1h13.7v-47.9h-13.7V1045.1z"/>
	<path class="st2" d="M427.9,1101.3h-4.6l-25.8-47.4l0,47.4h-4.6v-56.2h4.6l25.8,47.4l0-47.4h4.6V1101.3z"/>
	<path class="st2" d="M476.5,1094.6c-1.1,1.3-2.3,2.4-3.7,3.4c-1.3,1-2.8,1.7-4.3,2.3s-3.1,1-4.7,1.3c-1.6,0.3-3.3,0.4-5,0.4
		c-2.2,0-4.3-0.4-6.2-1.1c-1.9-0.7-3.5-1.6-5-2.8c-1.5-1.2-2.8-2.6-3.9-4.2c-1.1-1.6-2-3.3-2.8-5.2c-0.7-1.9-1.3-3.8-1.7-5.8
		s-0.6-4-0.6-6v-7.9c0-2,0.2-3.9,0.6-5.9c0.3-2,0.9-3.9,1.6-5.7c0.7-1.8,1.6-3.6,2.6-5.1c1.1-1.6,2.3-3,3.7-4.2
		c1.4-1.2,3.1-2.1,4.9-2.8c1.8-0.7,3.8-1,6.1-1c2.5,0,4.8,0.4,6.9,1.2c2.1,0.8,4,1.9,5.6,3.4c1.6,1.5,2.9,3.2,3.9,5.2
		s1.6,4.3,1.9,6.8h-4.6c-0.4-1.8-0.9-3.5-1.6-5c-0.7-1.5-1.7-2.9-2.8-4c-1.1-1.1-2.5-2-4-2.6c-1.5-0.6-3.3-0.9-5.2-0.9
		c-1.8,0-3.4,0.3-4.9,0.9c-1.4,0.6-2.7,1.4-3.8,2.4s-2,2.2-2.8,3.6c-0.8,1.4-1.4,2.8-1.9,4.3s-0.9,3.1-1.1,4.7
		c-0.2,1.6-0.4,3.2-0.4,4.7v8c0,1.6,0.2,3.2,0.4,4.8c0.3,1.6,0.7,3.2,1.2,4.8c0.5,1.6,1.2,3,2,4.4c0.8,1.4,1.8,2.6,3,3.6
		c1.1,1,2.5,1.9,3.9,2.5c1.5,0.6,3.1,0.9,5,0.9c1.2,0,2.4,0,3.6-0.2s2.4-0.4,3.6-0.8c1.2-0.4,2.3-0.9,3.3-1.5c1-0.6,1.9-1.5,2.6-2.4
		l0-14.5h-13.3v-4h17.7L476.5,1094.6z"/>
</g>
<circle class="st7" cx="513.3" cy="1055.2" r="11.1"/>
<line class="st7" x1="513.3" y1="1102.3" x2="513.3" y2="1066.3"/>
<line class="st7" x1="524.4" y1="1053.4" x2="565" y2="1053.4"/>
<line class="st7" x1="544.7" y1="1101.9" x2="544.7" y2="1053.4"/>
<path class="st2" d="M515.9,1055.2c-1,0-1.8-0.8-1.8-1.8c0-0.7,0.4-1.4,1.1-1.7c-2.1-1.2-4.8-0.4-5.9,1.7c-1.2,2.1-0.4,4.8,1.7,5.9
	c2.1,1.2,4.8,0.4,5.9-1.7c0.5-1,0.7-2.1,0.4-3.2C517,1055,516.5,1055.2,515.9,1055.2z"/>
<g class="st1">
	<path class="st2" d="M124.2,501.6c-1.3,2.2-3.3,4-5.9,5.3c-2.6,1.3-5.8,2-9.5,2c-5.6,0-10.2-1.4-13.8-4.1
		c-3.6-2.7-5.6-6.5-5.9-11.4h12.8c0.2,1.9,0.9,3.4,2,4.4c1.1,1.1,2.6,1.6,4.4,1.6c1.5,0,2.8-0.4,3.7-1.3c0.9-0.8,1.3-2,1.3-3.4
		c0-1.3-0.4-2.3-1.2-3.2c-0.8-0.8-1.8-1.5-3.1-2.1c-1.2-0.5-2.9-1.2-5.1-1.9c-3.1-1.1-5.7-2.1-7.7-3.1c-2-1-3.7-2.5-5.1-4.5
		c-1.4-2-2.1-4.6-2.1-7.8c0-3,0.8-5.5,2.3-7.7c1.5-2.2,3.6-3.8,6.2-5c2.7-1.2,5.7-1.7,9.1-1.7c5.5,0,9.9,1.3,13.2,3.9
		c3.3,2.6,5.1,6.2,5.5,10.8h-13c-0.2-1.6-0.8-2.9-1.8-3.9c-1-1-2.3-1.4-3.9-1.4c-1.4,0-2.5,0.4-3.4,1.1c-0.9,0.8-1.3,1.9-1.3,3.3
		c0,1.2,0.4,2.2,1.2,3c0.8,0.8,1.7,1.5,2.9,2c1.2,0.5,2.9,1.2,5.1,2c3.2,1.1,5.8,2.1,7.8,3.2c2,1.1,3.8,2.6,5.2,4.6
		c1.5,2,2.2,4.7,2.2,7.9C126.2,497,125.5,499.4,124.2,501.6z"/>
	<path class="st2" d="M156.3,482.9l20.1,25.4h-14.6L144.9,486v22.3h-12v-49.8h12v21.9l17-21.9h14.4L156.3,482.9z"/>
	<path class="st2" d="M212.3,499.3h-18.7l-3.1,9.1h-12.7l18.2-49.5H210l18.2,49.5h-12.8L212.3,499.3z M209.2,490.1l-6.2-18.3
		l-6.3,18.3H209.2z"/>
	<path class="st2" d="M277.1,508.4h-12l-20.1-30.6v30.6h-12v-49.8h12l20.1,30.9v-30.9h12V508.4z"/>
	<path class="st2" d="M319.2,501.6c-1.3,2.2-3.3,4-5.9,5.3c-2.6,1.3-5.8,2-9.5,2c-5.6,0-10.2-1.4-13.8-4.1
		c-3.6-2.7-5.6-6.5-5.9-11.4h12.8c0.2,1.9,0.9,3.4,2,4.4c1.1,1.1,2.6,1.6,4.4,1.6c1.5,0,2.8-0.4,3.7-1.3c0.9-0.8,1.3-2,1.3-3.4
		c0-1.3-0.4-2.3-1.2-3.2c-0.8-0.8-1.8-1.5-3.1-2.1c-1.2-0.5-2.9-1.2-5.1-1.9c-3.1-1.1-5.7-2.1-7.7-3.1c-2-1-3.7-2.5-5.1-4.5
		c-1.4-2-2.1-4.6-2.1-7.8c0-3,0.8-5.5,2.3-7.7c1.5-2.2,3.6-3.8,6.2-5c2.7-1.2,5.7-1.7,9.1-1.7c5.5,0,9.9,1.3,13.2,3.9
		c3.3,2.6,5.1,6.2,5.5,10.8h-13c-0.2-1.6-0.8-2.9-1.8-3.9c-1-1-2.3-1.4-3.9-1.4c-1.4,0-2.5,0.4-3.4,1.1c-0.9,0.8-1.3,1.9-1.3,3.3
		c0,1.2,0.4,2.2,1.2,3c0.8,0.8,1.7,1.5,2.9,2c1.2,0.5,2.9,1.2,5.1,2c3.2,1.1,5.8,2.1,7.8,3.2c2,1.1,3.8,2.6,5.2,4.6
		c1.5,2,2.2,4.7,2.2,7.9C321.2,497,320.6,499.4,319.2,501.6z"/>
	<path class="st2" d="M340,458.6v49.8h-12v-49.8H340z"/>
	<path class="st2" d="M392.5,508.4h-12l-20.1-30.6v30.6h-12v-49.8h12l20.1,30.9v-30.9h12V508.4z"/>
	<path class="st2" d="M439.6,462.6c4,3.1,6.6,7.2,7.5,12.4h-12.8c-0.8-1.8-2.1-3.2-3.9-4.3c-1.7-1.1-3.8-1.6-6.3-1.6
		c-3.8,0-6.9,1.3-9.2,3.8c-2.3,2.6-3.5,6-3.5,10.4c0,4.7,1.2,8.4,3.6,10.9c2.4,2.5,5.9,3.8,10.3,3.8c2.9,0,5.4-0.8,7.5-2.4
		c2.2-1.6,3.7-3.8,4.6-6.7h-15.2v-8.7h25.3v11.9c-0.9,2.9-2.4,5.6-4.5,8.1c-2.1,2.5-4.7,4.5-7.9,6.1c-3.2,1.5-6.9,2.3-11,2.3
		c-5,0-9.4-1.1-13.2-3.2c-3.8-2.1-6.7-5.1-8.7-9c-2-3.8-3.1-8.2-3.1-13.2s1-9.3,3.1-13.2c2-3.9,4.9-6.8,8.7-9
		c3.7-2.1,8.1-3.2,13.1-3.2C430.4,458.1,435.5,459.6,439.6,462.6z"/>
</g>
<rect x="478.8" y="442.3" class="st2" width="102" height="85"/>
<g>
	<g>
		<path class="st0" d="M545.3,463.4v44.3h9.6c0.9,0,1.5,0.2,1.9,0.5c0.4,0.3,0.6,0.8,0.6,1.3c0,0.5-0.2,1-0.6,1.3
			c-0.4,0.4-1,0.5-1.9,0.5h-23c-0.9,0-1.5-0.2-1.9-0.5c-0.4-0.4-0.6-0.8-0.6-1.3c0-0.6,0.2-1,0.6-1.3c0.4-0.3,1-0.5,1.9-0.5h9.6
			v-44.3h-15.2v12.9c0,0.9-0.2,1.6-0.5,1.9c-0.3,0.4-0.8,0.6-1.3,0.6c-0.5,0-1-0.2-1.3-0.6c-0.4-0.4-0.5-1-0.5-1.9v-16.6h41.6v16.6
			c0,0.9-0.2,1.6-0.5,1.9c-0.3,0.4-0.8,0.6-1.3,0.6s-1-0.2-1.3-0.6c-0.3-0.4-0.5-1-0.5-1.9v-12.9H545.3z"/>
	</g>
</g>
<g>
	<g class="st1">
		<path d="M545.3,463.4v44.3h9.6c0.9,0,1.5,0.2,1.9,0.5c0.4,0.3,0.6,0.8,0.6,1.3c0,0.5-0.2,1-0.6,1.3c-0.4,0.4-1,0.5-1.9,0.5h-23
			c-0.9,0-1.5-0.2-1.9-0.5c-0.4-0.4-0.6-0.8-0.6-1.3c0-0.6,0.2-1,0.6-1.3c0.4-0.3,1-0.5,1.9-0.5h9.6v-44.3h-15.2v12.9
			c0,0.9-0.2,1.6-0.5,1.9c-0.3,0.4-0.8,0.6-1.3,0.6c-0.5,0-1-0.2-1.3-0.6c-0.4-0.4-0.5-1-0.5-1.9v-16.6h41.6v16.6
			c0,0.9-0.2,1.6-0.5,1.9c-0.3,0.4-0.8,0.6-1.3,0.6s-1-0.2-1.3-0.6c-0.3-0.4-0.5-1-0.5-1.9v-12.9H545.3z"/>
	</g>
</g>
<g>
	<g>
		<path class="st0" d="M497.2,470.2c0-3.8,0.6-6.7,1.9-8.8c1.3-2.1,3.4-3.2,6.5-3.2s5.3,1.1,6.5,3.2s1.9,5.1,1.9,8.8
			c0,3.8-0.6,6.8-1.9,8.9c-1.3,2.1-3.4,3.2-6.5,3.2s-5.3-1.1-6.5-3.2C497.8,477,497.2,474,497.2,470.2z M511,470.2
			c0-1.9-0.1-3.5-0.4-4.8c-0.3-1.3-0.8-2.3-1.6-3.1c-0.8-0.8-1.9-1.2-3.4-1.2c-1.5,0-2.6,0.4-3.4,1.2c-0.8,0.8-1.3,1.8-1.6,3.1
			s-0.4,2.9-0.4,4.8c0,1.9,0.1,3.6,0.4,4.9s0.8,2.4,1.6,3.1c0.8,0.8,1.9,1.2,3.4,1.2c1.5,0,2.6-0.4,3.4-1.2c0.8-0.8,1.3-1.8,1.6-3.1
			C510.8,473.8,511,472.2,511,470.2z"/>
	</g>
	<g>
		<path class="st0" d="M501.2,490.5v-2.9h6.8v23.7h-3.2v-20.8H501.2z"/>
	</g>
</g>
<g>
	<g class="st1">
		<path d="M497.2,470.2c0-3.8,0.6-6.7,1.9-8.8c1.3-2.1,3.4-3.2,6.5-3.2s5.3,1.1,6.5,3.2s1.9,5.1,1.9,8.8c0,3.8-0.6,6.8-1.9,8.9
			c-1.3,2.1-3.4,3.2-6.5,3.2s-5.3-1.1-6.5-3.2C497.8,477,497.2,474,497.2,470.2z M511,470.2c0-1.9-0.1-3.5-0.4-4.8
			c-0.3-1.3-0.8-2.3-1.6-3.1c-0.8-0.8-1.9-1.2-3.4-1.2c-1.5,0-2.6,0.4-3.4,1.2c-0.8,0.8-1.3,1.8-1.6,3.1s-0.4,2.9-0.4,4.8
			c0,1.9,0.1,3.6,0.4,4.9s0.8,2.4,1.6,3.1c0.8,0.8,1.9,1.2,3.4,1.2c1.5,0,2.6-0.4,3.4-1.2c0.8-0.8,1.3-1.8,1.6-3.1
			C510.8,473.8,511,472.2,511,470.2z"/>
	</g>
	<g class="st1">
		<path d="M501.2,490.5v-2.9h6.8v23.7h-3.2v-20.8H501.2z"/>
	</g>
</g>
</svg>
