<?xml version="1.0" encoding="utf-8"?>
<!-- Generator: Adobe Illustrator 24.0.2, SVG Export Plug-In . SVG Version: 6.00 Build 0)  -->
<svg version="1.1" id="Layer_1" xmlns="http://www.w3.org/2000/svg" xmlns:xlink="http://www.w3.org/1999/xlink" x="0px" y="0px"
	 viewBox="0 0 677 912" style="enable-background:new 0 0 677 912;" xml:space="preserve">
<style type="text/css">
	.st0{fill:#FFFFFF;}
</style>
<g>
	<g>
		<g>
			<path class="st0" d="M133.9,225.9c1.9,0,1.9-3,0-3C131.9,222.9,131.9,225.9,133.9,225.9L133.9,225.9z"/>
		</g>
	</g>
	<g>
		<g>
			<path class="st0" d="M67.6,461c1.9,0,1.9-3,0-3C65.7,458,65.7,461,67.6,461L67.6,461z"/>
		</g>
	</g>
	<g>
		<g>
			<path class="st0" d="M144.7,370c1.9,0,1.9-3,0-3C142.8,367,142.8,370,144.7,370L144.7,370z"/>
		</g>
	</g>
	<g>
		<g>
			<path class="st0" d="M83.5,113.9c1.9,0,1.9-3,0-3C81.6,110.9,81.6,113.9,83.5,113.9L83.5,113.9z"/>
		</g>
	</g>
	<g>
		<g>
			<path class="st0" d="M252.7,90.9c1.9,0,1.9-3,0-3C250.8,87.9,250.8,90.9,252.7,90.9L252.7,90.9z"/>
		</g>
	</g>
	<g>
		<g>
			<path class="st0" d="M252.7,492c1.9,0,1.9-3,0-3C250.8,489,250.8,492,252.7,492L252.7,492z"/>
		</g>
	</g>
	<g>
		<g>
			<path class="st0" d="M94,182.9c1.9,0,1.9-3,0-3C92,179.9,92,182.9,94,182.9L94,182.9z"/>
		</g>
	</g>
	<g>
		<g>
			<path class="st0" d="M244.8,218.6c1.9,0,1.9-3,0-3C242.9,215.6,242.9,218.6,244.8,218.6L244.8,218.6z"/>
		</g>
	</g>
	<g>
		<g>
			<path class="st0" d="M338.3,275.9c1.9,0,1.9-3,0-3C336.3,272.9,336.3,275.9,338.3,275.9L338.3,275.9z"/>
		</g>
	</g>
	<g>
		<g>
			<path class="st0" d="M421.9,417.3c1.9,0,1.9-3,0-3C420,414.3,420,417.3,421.9,417.3L421.9,417.3z"/>
		</g>
	</g>
	<g>
		<g>
			<path class="st0" d="M449.8,185.2c1.9,0,1.9-3,0-3C447.8,182.2,447.8,185.2,449.8,185.2L449.8,185.2z"/>
		</g>
	</g>
	<g>
		<g>
			<path class="st0" d="M414.2,142.5c1.9,0,1.9-3,0-3C412.2,139.5,412.2,142.5,414.2,142.5L414.2,142.5z"/>
		</g>
	</g>
	<g>
		<g>
			<path class="st0" d="M149.3,718.1c1.9,0,1.9-3,0-3C147.4,715.1,147.4,718.1,149.3,718.1L149.3,718.1z"/>
		</g>
	</g>
	<g>
		<g>
			<path class="st0" d="M113.7,482c1.9,0,1.9-3,0-3C111.8,479,111.8,482,113.7,482L113.7,482z"/>
		</g>
	</g>
	<g>
		<g>
			<path class="st0" d="M546.6,259.9c1.9,0,1.9-3,0-3C544.6,256.9,544.6,259.9,546.6,259.9L546.6,259.9z"/>
		</g>
	</g>
	<g>
		<g>
			<path class="st0" d="M627.9,119.9c1.9,0,1.9-3,0-3C625.9,116.9,625.9,119.9,627.9,119.9L627.9,119.9z"/>
		</g>
	</g>
	<g>
		<g>
			<path class="st0" d="M535.7,97.9c1.9,0,1.9-3,0-3C533.8,94.9,533.8,97.9,535.7,97.9L535.7,97.9z"/>
		</g>
	</g>
	<g>
		<g>
			<path class="st0" d="M500.9,714.1c1.9,0,1.9-3,0-3C499,711.1,498.9,714.1,500.9,714.1L500.9,714.1z"/>
		</g>
	</g>
	<g>
		<g>
			<path class="st0" d="M493.9,474c1.9,0,1.9-3,0-3C492,471,492,474,493.9,474L493.9,474z"/>
		</g>
	</g>
	<g>
		<g>
			<path class="st0" d="M422.7,714.1c1.9,0,1.9-3,0-3C420.7,711.1,420.7,714.1,422.7,714.1L422.7,714.1z"/>
		</g>
	</g>
	<g>
		<g>
			<path class="st0" d="M342.1,630.1c1.9,0,1.9-3,0-3C340.2,627.1,340.2,630.1,342.1,630.1L342.1,630.1z"/>
		</g>
	</g>
	<g>
		<g>
			<path class="st0" d="M437.4,484c0.5,0,1,0,1.5,0c0.2,0,0.4,0,0.6-0.1c0.2-0.1,0.3-0.2,0.5-0.3c0.1-0.1,0.2-0.3,0.3-0.5
				c0.1-0.2,0.1-0.4,0.1-0.6c0-0.1,0-0.3-0.1-0.4c-0.1-0.3-0.2-0.5-0.4-0.7c-0.3-0.3-0.7-0.4-1.1-0.4c-0.5,0-1,0-1.5,0
				c-0.2,0-0.4,0-0.6,0.1c-0.2,0.1-0.3,0.2-0.5,0.3c-0.1,0.1-0.2,0.3-0.3,0.5c-0.1,0.2-0.1,0.4-0.1,0.6c0,0.1,0,0.3,0.1,0.4
				c0.1,0.3,0.2,0.5,0.4,0.7C436.6,483.8,437,484,437.4,484L437.4,484z"/>
		</g>
	</g>
	<g>
		<g>
			<path class="st0" d="M625.6,374c1.9,0,1.9-3,0-3C623.6,371,623.6,374,625.6,374L625.6,374z"/>
		</g>
	</g>
	<g>
		<g>
			<path class="st0" d="M586.1,512c1.9,0,1.9-3,0-3C584.1,509,584.1,512,586.1,512L586.1,512z"/>
		</g>
	</g>
	<g>
		<g>
			<path class="st0" d="M209.7,548c1.9,0,1.9-3,0-3C207.8,545,207.8,548,209.7,548L209.7,548z"/>
		</g>
	</g>
	<g>
		<g>
			<path class="st0" d="M61.8,650.1c1.9,0,1.9-3,0-3C59.9,647.1,59.9,650.1,61.8,650.1L61.8,650.1z"/>
		</g>
	</g>
	<g>
		<g>
			<path class="st0" d="M517.9,624.1c1.9,0,1.9-3,0-3C516,621.1,516,624.1,517.9,624.1L517.9,624.1z"/>
		</g>
	</g>
	<g>
		<g>
			<path class="st0" d="M609.3,718.1c1.9,0,1.9-3,0-3C607.4,715.1,607.4,718.1,609.3,718.1L609.3,718.1z"/>
		</g>
	</g>
	<g>
		<g>
			<path class="st0" d="M365.4,392c1.9,0,1.9-3,0-3C363.4,389,363.4,392,365.4,392L365.4,392z"/>
		</g>
	</g>
	<g>
		<g>
			<path class="st0" d="M325.9,81.9c1.9,0,1.9-3,0-3C324,78.9,324,81.9,325.9,81.9L325.9,81.9z"/>
		</g>
	</g>
	<g>
		<g>
			<path class="st0" d="M484.6,59.8c1.9,0,1.9-3,0-3C482.7,56.8,482.7,59.8,484.6,59.8L484.6,59.8z"/>
		</g>
	</g>
	<g>
		<g>
			<path class="st0" d="M549.7,189.9c1.9,0,1.9-3,0-3C547.7,186.9,547.7,189.9,549.7,189.9L549.7,189.9z"/>
		</g>
	</g>
	<g>
		<g>
			<path class="st0" d="M238.4,758.1c1.9,0,1.9-3,0-3C236.5,755.1,236.5,758.1,238.4,758.1L238.4,758.1z"/>
		</g>
	</g>
	<g>
		<g>
			<path class="st0" d="M183.4,149.4c6.4,0,6.4-10,0-10C177,139.4,177,149.4,183.4,149.4L183.4,149.4z"/>
		</g>
	</g>
	<g>
		<g>
			<path class="st0" d="M456,311.4c6.4,0,6.4-10,0-10C449.5,301.4,449.5,311.4,456,311.4L456,311.4z"/>
		</g>
	</g>
	<g>
		<g>
			<path class="st0" d="M56.4,325.4c6.4,0,6.4-10,0-10C50,315.4,50,325.4,56.4,325.4L56.4,325.4z"/>
		</g>
	</g>
	<g>
		<g>
			<path class="st0" d="M601.5,421.5c6.4,0,6.4-10,0-10C595.1,411.5,595.1,421.5,601.5,421.5L601.5,421.5z"/>
		</g>
	</g>
	<g>
		<g>
			<path class="st0" d="M384.2,576.9c6.4,0,6.4-10,0-10C377.8,566.9,377.8,576.9,384.2,576.9L384.2,576.9z"/>
		</g>
	</g>
	<g>
		<g>
			<path class="st0" d="M191.7,492.8c6.4,0,6.4-10,0-10C185.2,482.8,185.2,492.8,191.7,492.8L191.7,492.8z"/>
		</g>
	</g>
	<g>
		<g>
			<path class="st0" d="M209.2,257.3c1.9,0,1.9-3,0-3C207.3,254.3,207.3,257.3,209.2,257.3L209.2,257.3z"/>
		</g>
	</g>
	<g>
		<g>
			<path class="st0" d="M35.8,75.8c1.9,0,1.9-3,0-3C33.8,72.8,33.8,75.8,35.8,75.8L35.8,75.8z"/>
		</g>
	</g>
	<g>
		<g>
			<path class="st0" d="M450.8,524c1.9,0,1.9-3,0-3C448.9,521,448.9,524,450.8,524L450.8,524z"/>
		</g>
	</g>
	<g>
		<g>
			<path class="st0" d="M583,165.9c1.9,0,1.9-3,0-3C581,162.9,581,165.9,583,165.9L583,165.9z"/>
		</g>
	</g>
	<g>
		<g>
			<path class="st0" d="M161.7,356c1.9,0,1.9-3,0-3C159.8,353,159.8,356,161.7,356L161.7,356z"/>
		</g>
	</g>
	<g>
		<g>
			<path class="st0" d="M614.5,697.4c1.9,0,1.9-3,0-3C612.5,694.4,612.5,697.4,614.5,697.4L614.5,697.4z"/>
		</g>
	</g>
	<g>
		<g>
			<path class="st0" d="M589.2,646.7c1.9,0,1.9-3,0-3C587.2,643.7,587.2,646.7,589.2,646.7L589.2,646.7z"/>
		</g>
	</g>
	<g>
		<g>
			<path class="st0" d="M611.9,74c6.4,0,6.4-10,0-10C605.4,64,605.4,74,611.9,74L611.9,74z"/>
		</g>
	</g>
	<g>
		<g>
			<path class="st0" d="M121.5,698.3c6.4,0,6.4-10,0-10C115,688.3,115,698.3,121.5,698.3L121.5,698.3z"/>
		</g>
	</g>
	<g>
		<g>
			<path class="st0" d="M47.9,215.9c1.9,0,1.9-3,0-3C46,212.9,46,215.9,47.9,215.9L47.9,215.9z"/>
		</g>
	</g>
	<g>
		<g>
			<path class="st0" d="M145.5,41.8c1.9,0,1.9-3,0-3C143.5,38.8,143.5,41.8,145.5,41.8L145.5,41.8z"/>
		</g>
	</g>
	<g>
		<g>
			<path class="st0" d="M440.5,49.8c1.9,0,1.9-3,0-3C438.6,46.8,438.6,49.8,440.5,49.8L440.5,49.8z"/>
		</g>
	</g>
	<g>
		<g>
			<path class="st0" d="M370,167.9c1.9,0,1.9-3,0-3C368.1,164.9,368.1,167.9,370,167.9L370,167.9z"/>
		</g>
	</g>
	<g>
		<g>
			<path class="st0" d="M428.1,277.9c1.9,0,1.9-3,0-3C426.2,274.9,426.2,277.9,428.1,277.9L428.1,277.9z"/>
		</g>
	</g>
	<g>
		<g>
			<path class="st0" d="M294.1,43.8c1.9,0,1.9-3,0-3C292.2,40.8,292.2,43.8,294.1,43.8L294.1,43.8z"/>
		</g>
	</g>
	<g>
		<g>
			<path class="st0" d="M609.3,253.9c1.9,0,1.9-3,0-3C607.4,250.9,607.4,253.9,609.3,253.9L609.3,253.9z"/>
		</g>
	</g>
	<g>
		<g>
			<path class="st0" d="M80.4,830.1c1.9,0,1.9-3,0-3C78.5,827.1,78.5,830.1,80.4,830.1L80.4,830.1z"/>
		</g>
	</g>
	<g>
		<g>
			<path class="st0" d="M188.8,826.1c1.9,0,1.9-3,0-3C186.9,823.1,186.9,826.1,188.8,826.1L188.8,826.1z"/>
		</g>
	</g>
	<g>
		<g>
			<path class="st0" d="M447.5,864.2c1.9,0,1.9-3,0-3C445.5,861.2,445.5,864.2,447.5,864.2L447.5,864.2z"/>
		</g>
	</g>
	<g>
		<g>
			<path class="st0" d="M555.1,790.1c1.9,0,1.9-3,0-3C553.2,787.1,553.2,790.1,555.1,790.1L555.1,790.1z"/>
		</g>
	</g>
	<g>
		<g>
			<path class="st0" d="M632.5,888.2c1.9,0,1.9-3,0-3C630.6,885.2,630.6,888.2,632.5,888.2L632.5,888.2z"/>
		</g>
	</g>
	<g>
		<g>
			<path class="st0" d="M639.5,496c1.9,0,1.9-3,0-3C637.6,493,637.6,496,639.5,496L639.5,496z"/>
		</g>
	</g>
	<g>
		<g>
			<path class="st0" d="M172.1,275.3c1.9,0,1.9-3,0-3C170.1,272.3,170.1,275.3,172.1,275.3L172.1,275.3z"/>
		</g>
	</g>
	<g>
		<g>
			<path class="st0" d="M206.9,396c1.9,0,1.9-3,0-3C205,393,205,396,206.9,396L206.9,396z"/>
		</g>
	</g>
	<g>
		<g>
			<path class="st0" d="M35.5,422c1.9,0,1.9-3,0-3C33.6,419,33.6,422,35.5,422L35.5,422z"/>
		</g>
	</g>
	<g>
		<g>
			<path class="st0" d="M462.2,352c1.9,0,1.9-3,0-3C460.2,349,460.2,352,462.2,352L462.2,352z"/>
		</g>
	</g>
	<g>
		<g>
			<path class="st0" d="M346,482c1.9,0,1.9-3,0-3C344.1,479,344.1,482,346,482L346,482z"/>
		</g>
	</g>
	<g>
		<g>
			<path class="st0" d="M297.2,554c1.9,0,1.9-3,0-3C295.3,551,295.3,554,297.2,554L297.2,554z"/>
		</g>
	</g>
	<g>
		<g>
			<path class="st0" d="M291.8,762.1c1.9,0,1.9-3,0-3C289.9,759.1,289.9,762.1,291.8,762.1L291.8,762.1z"/>
		</g>
	</g>
	<g>
		<g>
			<path class="st0" d="M239.9,638.1c1.9,0,1.9-3,0-3C238,635.1,238,638.1,239.9,638.1L239.9,638.1z"/>
		</g>
	</g>
	<g>
		<g>
			<path class="st0" d="M507.9,171.9c1.9,0,1.9-3,0-3C505.9,168.9,505.9,171.9,507.9,171.9L507.9,171.9z"/>
		</g>
	</g>
	<g>
		<g>
			<path class="st0" d="M468.4,67.8c0.3,0,0.5,0,0.8,0c0.2,0,0.4,0,0.6-0.1c0.2-0.1,0.3-0.2,0.5-0.3c0.1-0.1,0.2-0.3,0.3-0.5
				c0.1-0.2,0.1-0.4,0.1-0.6c0-0.1,0-0.3-0.1-0.4c-0.1-0.3-0.2-0.5-0.4-0.7c-0.1-0.1-0.2-0.2-0.3-0.2c-0.2-0.1-0.5-0.2-0.8-0.2
				c-0.3,0-0.5,0-0.8,0c-0.2,0-0.4,0-0.6,0.1c-0.2,0.1-0.3,0.2-0.5,0.3c-0.1,0.1-0.2,0.3-0.3,0.5c-0.1,0.2-0.1,0.4-0.1,0.6
				c0,0.1,0,0.3,0.1,0.4c0.1,0.3,0.2,0.5,0.4,0.7c0.1,0.1,0.2,0.2,0.3,0.2C467.8,67.8,468.1,67.8,468.4,67.8L468.4,67.8z"/>
		</g>
	</g>
	<g>
		<g>
			<path class="st0" d="M637.2,125.9c1.9,0,1.9-3,0-3C635.2,122.9,635.2,125.9,637.2,125.9L637.2,125.9z"/>
		</g>
	</g>
	<g>
		<g>
			<path class="st0" d="M480.8,626.1c1.9,0,1.9-3,0-3C478.8,623.1,478.8,626.1,480.8,626.1L480.8,626.1z"/>
		</g>
	</g>
</g>
</svg>
