<?xml version="1.0" encoding="utf-8"?>
<!-- Generator: Adobe Illustrator 23.1.0, SVG Export Plug-In . SVG Version: 6.00 Build 0)  -->
<svg version="1.1" id="stars" xmlns="http://www.w3.org/2000/svg" xmlns:xlink="http://www.w3.org/1999/xlink" x="0px" y="0px"
	 viewBox="0 0 934 704" style="enable-background:new 0 0 934 704;" xml:space="preserve">
<style type="text/css">
	.st0{fill:#FFFFFF;}
	.st1{fill:none;stroke:#FFFFFF;stroke-width:3;stroke-miterlimit:10;}
</style>
<g>
	<g>
		<path d="M181.8,156.5"/>
		<g>
			<path class="st0" d="M181.8,158c1.9,0,1.9-3,0-3C179.9,155,179.9,158,181.8,158L181.8,158z"/>
		</g>
	</g>
	<g>
		<path d="M92.4,288.8"/>
		<g>
			<path class="st0" d="M92.4,290.3c1.9,0,1.9-3,0-3S90.5,290.3,92.4,290.3L92.4,290.3z"/>
		</g>
	</g>
	<g>
		<path d="M196.5,237.6"/>
		<g>
			<path class="st0" d="M196.5,239.1c1.9,0,1.9-3,0-3C194.5,236.1,194.5,239.1,196.5,239.1L196.5,239.1z"/>
		</g>
	</g>
	<g>
		<path d="M113.8,93.4"/>
		<g>
			<path class="st0" d="M113.8,94.9c1.9,0,1.9-3,0-3S111.9,94.9,113.8,94.9L113.8,94.9z"/>
		</g>
	</g>
	<g>
		<path d="M342.4,80.5"/>
		<g>
			<path class="st0" d="M342.4,82c1.9,0,1.9-3,0-3S340.5,82,342.4,82L342.4,82z"/>
		</g>
	</g>
	<g>
		<path d="M342.4,306.3"/>
		<g>
			<path class="st0" d="M342.4,307.8c1.9,0,1.9-3,0-3S340.5,307.8,342.4,307.8L342.4,307.8z"/>
		</g>
	</g>
	<g>
		<path d="M128,132.3"/>
		<g>
			<path class="st0" d="M128,133.8c1.9,0,1.9-3,0-3C126,130.8,126,133.8,128,133.8L128,133.8z"/>
		</g>
	</g>
	<g>
		<path d="M331.8,152.4"/>
		<g>
			<path class="st0" d="M331.8,153.9c1.9,0,1.9-3,0-3C329.8,150.9,329.8,153.9,331.8,153.9L331.8,153.9z"/>
		</g>
	</g>
	<g>
		<path d="M458,184.6"/>
		<g>
			<path class="st0" d="M458,186.1c1.9,0,1.9-3,0-3C456,183.1,456,186.1,458,186.1L458,186.1z"/>
		</g>
	</g>
	<g>
		<path d="M570.9,264.2"/>
		<g>
			<path class="st0" d="M570.9,265.7c1.9,0,1.9-3,0-3S569,265.7,570.9,265.7L570.9,265.7z"/>
		</g>
	</g>
	<g>
		<path d="M608.6,133.6"/>
		<g>
			<path class="st0" d="M608.6,135.1c1.9,0,1.9-3,0-3C606.7,132.1,606.7,135.1,608.6,135.1L608.6,135.1z"/>
		</g>
	</g>
	<g>
		<path d="M560.5,109.6"/>
		<g>
			<path class="st0" d="M560.5,111.1c1.9,0,1.9-3,0-3S558.6,111.1,560.5,111.1L560.5,111.1z"/>
		</g>
	</g>
	<g>
		<path d="M202.8,433.6"/>
		<g>
			<path class="st0" d="M202.8,435.1c1.9,0,1.9-3,0-3C200.8,432.1,200.8,435.1,202.8,435.1L202.8,435.1z"/>
		</g>
	</g>
	<g>
		<path d="M154.6,300.7"/>
		<g>
			<path class="st0" d="M154.6,302.2c1.9,0,1.9-3,0-3C152.7,299.2,152.7,302.2,154.6,302.2L154.6,302.2z"/>
		</g>
	</g>
	<g>
		<path d="M739.4,175.6"/>
		<g>
			<path class="st0" d="M739.4,177.1c1.9,0,1.9-3,0-3C737.4,174.1,737.4,177.1,739.4,177.1L739.4,177.1z"/>
		</g>
	</g>
	<g>
		<path d="M849.2,96.8"/>
		<g>
			<path class="st0" d="M849.2,98.3c1.9,0,1.9-3,0-3S847.3,98.3,849.2,98.3L849.2,98.3z"/>
		</g>
	</g>
	<g>
		<path d="M724.7,84.4"/>
		<g>
			<path class="st0" d="M724.7,85.9c1.9,0,1.9-3,0-3S722.8,85.9,724.7,85.9L724.7,85.9z"/>
		</g>
	</g>
	<g>
		<path d="M677.6,431.3"/>
		<g>
			<path class="st0" d="M677.6,432.8c1.9,0,1.9-3,0-3C675.7,429.8,675.7,432.8,677.6,432.8L677.6,432.8z"/>
		</g>
	</g>
	<g>
		<path d="M668.2,296.2"/>
		<g>
			<path class="st0" d="M668.2,297.7c1.9,0,1.9-3,0-3S666.3,297.7,668.2,297.7L668.2,297.7z"/>
		</g>
	</g>
	<g>
		<path d="M572,431.3"/>
		<g>
			<path class="st0" d="M572,432.8c1.9,0,1.9-3,0-3S570.1,432.8,572,432.8L572,432.8z"/>
		</g>
	</g>
	<g>
		<path d="M463.2,384"/>
		<g>
			<path class="st0" d="M463.2,385.5c1.9,0,1.9-3,0-3C461.3,382.5,461.3,385.5,463.2,385.5L463.2,385.5z"/>
		</g>
	</g>
	<g>
		<path d="M591.9,301.8c0.7,0,1.4,0,2.1,0"/>
		<g>
			<path class="st0" d="M591.9,303.3c0.7,0,1.4,0,2.1,0c0.4,0,0.8-0.2,1.1-0.4c0.1-0.1,0.2-0.3,0.3-0.5s0.1-0.4,0.1-0.6
				c0-0.4-0.1-0.8-0.4-1.1c-0.3-0.3-0.7-0.4-1.1-0.4c-0.7,0-1.4,0-2.1,0c-0.4,0-0.8,0.2-1.1,0.4c-0.1,0.1-0.2,0.3-0.3,0.5
				s-0.1,0.4-0.1,0.6c0,0.4,0.1,0.8,0.4,1.1C591.1,303.1,591.5,303.3,591.9,303.3L591.9,303.3z"/>
		</g>
	</g>
	<g>
		<path d="M846,239.8"/>
		<g>
			<path class="st0" d="M846,241.3c1.9,0,1.9-3,0-3S844.1,241.3,846,241.3L846,241.3z"/>
		</g>
	</g>
	<g>
		<path d="M792.7,317.6"/>
		<g>
			<path class="st0" d="M792.7,319.1c1.9,0,1.9-3,0-3S790.8,319.1,792.7,319.1L792.7,319.1z"/>
		</g>
	</g>
	<g>
		<path d="M284.3,337.8"/>
		<g>
			<path class="st0" d="M284.3,339.3c1.9,0,1.9-3,0-3S282.4,339.3,284.3,339.3L284.3,339.3z"/>
		</g>
	</g>
	<g>
		<path d="M84.6,395.3"/>
		<g>
			<path class="st0" d="M84.6,396.8c1.9,0,1.9-3,0-3C82.6,393.8,82.6,396.8,84.6,396.8L84.6,396.8z"/>
		</g>
	</g>
	<g>
		<path d="M700.7,380.6"/>
		<g>
			<path class="st0" d="M700.7,382.1c1.9,0,1.9-3,0-3C698.7,379.1,698.7,382.1,700.7,382.1L700.7,382.1z"/>
		</g>
	</g>
	<g>
		<path d="M824.1,433.6"/>
		<g>
			<path class="st0" d="M824.1,435.1c1.9,0,1.9-3,0-3C822.2,432.1,822.1,435.1,824.1,435.1L824.1,435.1z"/>
		</g>
	</g>
	<g>
		<path d="M494.6,250"/>
		<g>
			<path class="st0" d="M494.6,251.5c1.9,0,1.9-3,0-3S492.7,251.5,494.6,251.5L494.6,251.5z"/>
		</g>
	</g>
	<g>
		<path d="M441.2,75.4"/>
		<g>
			<path class="st0" d="M441.2,76.9c1.9,0,1.9-3,0-3C439.3,73.9,439.3,76.9,441.2,76.9L441.2,76.9z"/>
		</g>
	</g>
	<g>
		<path d="M655.7,63"/>
		<g>
			<path class="st0" d="M655.7,64.5c1.9,0,1.9-3,0-3C653.7,61.5,653.7,64.5,655.7,64.5L655.7,64.5z"/>
		</g>
	</g>
	<g>
		<path d="M743.5,136.2"/>
		<g>
			<path class="st0" d="M743.5,137.7c1.9,0,1.9-3,0-3S741.6,137.7,743.5,137.7L743.5,137.7z"/>
		</g>
	</g>
	<g>
		<path d="M323,456.1"/>
		<g>
			<path class="st0" d="M323,457.6c1.9,0,1.9-3,0-3S321.1,457.6,323,457.6L323,457.6z"/>
		</g>
	</g>
	<g>
		<path d="M248.8,111.4"/>
		<g>
			<path class="st0" d="M248.8,116.4c6.4,0,6.4-10,0-10C242.3,106.4,242.3,116.4,248.8,116.4L248.8,116.4z"/>
		</g>
	</g>
	<g>
		<path d="M617,202.7"/>
		<g>
			<path class="st0" d="M617,207.7c6.4,0,6.4-10,0-10C610.5,197.7,610.5,207.7,617,207.7L617,207.7z"/>
		</g>
	</g>
	<g>
		<path d="M77.2,210.6"/>
		<g>
			<path class="st0" d="M77.2,215.6c6.4,0,6.4-10,0-10C70.8,205.6,70.8,215.6,77.2,215.6L77.2,215.6z"/>
		</g>
	</g>
	<g>
		<path d="M778.6,206.6"/>
		<g>
			<path class="st0" d="M778.6,211.6c6.4,0,6.4-10,0-10C772.2,201.6,772.2,211.6,778.6,211.6L778.6,211.6z"/>
		</g>
	</g>
	<g>
		<path d="M520,352.1"/>
		<g>
			<path class="st0" d="M520,357.1c6.4,0,6.4-10,0-10S513.6,357.1,520,357.1L520,357.1z"/>
		</g>
	</g>
	<g>
		<path d="M259.9,304.8"/>
		<g>
			<path class="st0" d="M259.9,309.8c6.4,0,6.4-10,0-10S253.5,309.8,259.9,309.8L259.9,309.8z"/>
		</g>
	</g>
	<g>
		<path d="M283.6,174.1"/>
		<g>
			<path class="st0" d="M283.6,175.6c1.9,0,1.9-3,0-3S281.7,175.6,283.6,175.6L283.6,175.6z"/>
		</g>
	</g>
	<g>
		<path d="M49.3,72"/>
		<g>
			<path class="st0" d="M49.3,73.5c1.9,0,1.9-3,0-3C47.4,70.5,47.4,73.5,49.3,73.5L49.3,73.5z"/>
		</g>
	</g>
	<g>
		<path d="M610,324.3"/>
		<g>
			<path class="st0" d="M610,325.8c1.9,0,1.9-3,0-3S608.1,325.8,610,325.8L610,325.8z"/>
		</g>
	</g>
	<g>
		<path d="M788.5,122.7"/>
		<g>
			<path class="st0" d="M788.5,124.2c1.9,0,1.9-3,0-3S786.6,124.2,788.5,124.2L788.5,124.2z"/>
		</g>
	</g>
	<g>
		<path d="M219.5,229.7"/>
		<g>
			<path class="st0" d="M219.5,231.2c1.9,0,1.9-3,0-3S217.6,231.2,219.5,231.2L219.5,231.2z"/>
		</g>
	</g>
	<g>
		<path d="M831.1,421.9"/>
		<g>
			<path class="st0" d="M831.1,423.4c1.9,0,1.9-3,0-3C829.1,420.4,829.1,423.4,831.1,423.4L831.1,423.4z"/>
		</g>
	</g>
	<g>
		<path d="M796.9,393.4"/>
		<g>
			<path class="st0" d="M796.9,394.9c1.9,0,1.9-3,0-3S795,394.9,796.9,394.9L796.9,394.9z"/>
		</g>
	</g>
	<g>
		<path d="M827.6,69"/>
		<g>
			<path class="st0" d="M827.6,74c6.4,0,6.4-10,0-10C821.1,64,821.1,74,827.6,74L827.6,74z"/>
		</g>
	</g>
	<g>
		<path d="M65.7,150.9"/>
		<g>
			<path class="st0" d="M65.7,152.4c1.9,0,1.9-3,0-3C63.8,149.4,63.8,152.4,65.7,152.4L65.7,152.4z"/>
		</g>
	</g>
	<g>
		<path d="M197.5,52.9"/>
		<g>
			<path class="st0" d="M197.5,54.4c1.9,0,1.9-3,0-3S195.6,54.4,197.5,54.4L197.5,54.4z"/>
		</g>
	</g>
	<g>
		<path d="M596.1,57.4"/>
		<g>
			<path class="st0" d="M596.1,58.9c1.9,0,1.9-3,0-3C594.1,55.9,594.1,58.9,596.1,58.9L596.1,58.9z"/>
		</g>
	</g>
	<g>
		<path d="M500.9,123.8"/>
		<g>
			<path class="st0" d="M500.9,125.3c1.9,0,1.9-3,0-3C498.9,122.3,498.9,125.3,500.9,125.3L500.9,125.3z"/>
		</g>
	</g>
	<g>
		<path d="M579.3,185.8"/>
		<g>
			<path class="st0" d="M579.3,187.3c1.9,0,1.9-3,0-3C577.4,184.3,577.4,187.3,579.3,187.3L579.3,187.3z"/>
		</g>
	</g>
	<g>
		<path d="M398.4,54"/>
		<g>
			<path class="st0" d="M398.4,55.5c1.9,0,1.9-3,0-3C396.4,52.5,396.4,55.5,398.4,55.5L398.4,55.5z"/>
		</g>
	</g>
	<g>
		<path d="M824.1,172.3"/>
		<g>
			<path class="st0" d="M824.1,173.8c1.9,0,1.9-3,0-3C822.2,170.8,822.1,173.8,824.1,173.8L824.1,173.8z"/>
		</g>
	</g>
	<g>
		<path d="M109.7,496.6"/>
		<g>
			<path class="st0" d="M109.7,498.1c1.9,0,1.9-3,0-3C107.7,495.1,107.7,498.1,109.7,498.1L109.7,498.1z"/>
		</g>
	</g>
	<g>
		<path d="M256.1,494.4"/>
		<g>
			<path class="st0" d="M256.1,495.9c1.9,0,1.9-3,0-3C254.2,492.9,254.2,495.9,256.1,495.9L256.1,495.9z"/>
		</g>
	</g>
	<g>
		<path d="M605.5,515.8"/>
		<g>
			<path class="st0" d="M605.5,517.3c1.9,0,1.9-3,0-3C603.5,514.3,603.5,517.3,605.5,517.3L605.5,517.3z"/>
		</g>
	</g>
	<g>
		<path d="M750.9,474.1"/>
		<g>
			<path class="st0" d="M750.9,475.6c1.9,0,1.9-3,0-3C748.9,472.6,748.9,475.6,750.9,475.6L750.9,475.6z"/>
		</g>
	</g>
	<g>
		<path d="M855.5,529.3"/>
		<g>
			<path class="st0" d="M855.5,530.8c1.9,0,1.9-3,0-3C853.5,527.8,853.5,530.8,855.5,530.8L855.5,530.8z"/>
		</g>
	</g>
	<g>
		<path d="M864.9,308.5"/>
		<g>
			<path class="st0" d="M864.9,310c1.9,0,1.9-3,0-3C862.9,307,862.9,310,864.9,310L864.9,310z"/>
		</g>
	</g>
	<g>
		<path d="M233.4,184.3"/>
		<g>
			<path class="st0" d="M233.4,185.8c1.9,0,1.9-3,0-3S231.5,185.8,233.4,185.8L233.4,185.8z"/>
		</g>
	</g>
	<g>
		<path d="M280.5,252.2"/>
		<g>
			<path class="st0" d="M280.5,253.7c1.9,0,1.9-3,0-3S278.6,253.7,280.5,253.7L280.5,253.7z"/>
		</g>
	</g>
	<g>
		<path d="M49,266.9"/>
		<g>
			<path class="st0" d="M49,268.4c1.9,0,1.9-3,0-3S47.1,268.4,49,268.4L49,268.4z"/>
		</g>
	</g>
	<g>
		<path d="M625.3,227.4"/>
		<g>
			<path class="st0" d="M625.3,228.9c1.9,0,1.9-3,0-3C623.4,225.9,623.4,228.9,625.3,228.9L625.3,228.9z"/>
		</g>
	</g>
	<g>
		<path d="M468.4,300.7"/>
		<g>
			<path class="st0" d="M468.4,302.2c1.9,0,1.9-3,0-3S466.5,302.2,468.4,302.2L468.4,302.2z"/>
		</g>
	</g>
	<g>
		<path d="M402.5,341.2"/>
		<g>
			<path class="st0" d="M402.5,342.7c1.9,0,1.9-3,0-3S400.6,342.7,402.5,342.7L402.5,342.7z"/>
		</g>
	</g>
	<g>
		<path d="M395.2,458.3"/>
		<g>
			<path class="st0" d="M395.2,459.8c1.9,0,1.9-3,0-3C393.3,456.8,393.3,459.8,395.2,459.8L395.2,459.8z"/>
		</g>
	</g>
	<g>
		<path d="M325.1,388.5"/>
		<g>
			<path class="st0" d="M325.1,390c1.9,0,1.9-3,0-3S323.2,390,325.1,390L325.1,390z"/>
		</g>
	</g>
	<g>
		<path d="M687.1,126.1"/>
		<g>
			<path class="st0" d="M687.1,127.6c1.9,0,1.9-3,0-3C685.1,124.6,685.1,127.6,687.1,127.6L687.1,127.6z"/>
		</g>
	</g>
	<g>
		<path d="M633.7,67.5c0.3,0,0.7,0,1,0"/>
		<g>
			<path class="st0" d="M633.7,69c0.3,0,0.7,0,1,0c0.2,0,0.4,0,0.6-0.1c0.2-0.1,0.3-0.2,0.5-0.3c0.1-0.1,0.2-0.3,0.3-0.5
				s0.1-0.4,0.1-0.6c0-0.1,0-0.3-0.1-0.4c-0.1-0.3-0.2-0.5-0.4-0.7c-0.1-0.1-0.2-0.2-0.3-0.2c-0.2-0.1-0.5-0.2-0.8-0.2s-0.7,0-1,0
				c-0.2,0-0.4,0-0.6,0.1c-0.2,0.1-0.3,0.2-0.5,0.3c-0.1,0.1-0.2,0.3-0.3,0.5s-0.1,0.4-0.1,0.6c0,0.1,0,0.3,0.1,0.4
				c0.1,0.3,0.2,0.5,0.4,0.7c0.1,0.1,0.2,0.2,0.3,0.2C633.2,68.9,633.4,69,633.7,69L633.7,69z"/>
		</g>
	</g>
	<g>
		<path d="M861.7,100.2"/>
		<g>
			<path class="st0" d="M861.7,101.7c1.9,0,1.9-3,0-3S859.8,101.7,861.7,101.7L861.7,101.7z"/>
		</g>
	</g>
	<g>
		<path d="M650.4,381.8"/>
		<g>
			<path class="st0" d="M650.4,383.3c1.9,0,1.9-3,0-3S648.5,383.3,650.4,383.3L650.4,383.3z"/>
		</g>
	</g>
	<g>
		<g>
			<path class="st0" d="M489.4,544.7c1.9,0,1.9-3,0-3S487.5,544.7,489.4,544.7L489.4,544.7z"/>
		</g>
	</g>
	<g>
		<g>
			<path class="st0" d="M111.6,399.9c1.9,0,1.9-3,0-3S109.7,399.9,111.6,399.9L111.6,399.9z"/>
		</g>
	</g>
	<g>
		<g>
			<path class="st0" d="M480.9,407.3c1.9,0,1.9-3,0-3C478.9,404.3,478.9,407.3,480.9,407.3L480.9,407.3z"/>
		</g>
	</g>
	<g>
		<g>
			<path class="st0" d="M755.6,559.4c1.9,0,1.9-3,0-3C753.7,556.4,753.7,559.4,755.6,559.4L755.6,559.4z"/>
		</g>
	</g>
	<g>
		<g>
			<path class="st0" d="M904.1,339.8c1.9,0,1.9-3,0-3C902.1,336.8,902.1,339.8,904.1,339.8L904.1,339.8z"/>
		</g>
	</g>
	<g>
		<g>
			<path class="st0" d="M893,33.1c1.9,0,1.9-3,0-3C891.1,30.1,891.1,33.1,893,33.1L893,33.1z"/>
		</g>
	</g>
	<g>
		<g>
			<path class="st0" d="M516.4,24.6c1.9,0,1.9-3,0-3S514.5,24.6,516.4,24.6L516.4,24.6z"/>
		</g>
	</g>
	<g>
		<g>
			<path class="st0" d="M285.8,31.9c1.9,0,1.9-3,0-3S283.9,31.9,285.8,31.9L285.8,31.9z"/>
		</g>
	</g>
	<g>
		<g>
			<path class="st0" d="M115.3,34.4c1.9,0,1.9-3,0-3C113.4,31.4,113.4,34.4,115.3,34.4L115.3,34.4z"/>
		</g>
	</g>
	<g>
		<g>
			<path class="st0" d="M0,84.7c1.9,0,1.9-3,0-3S-1.9,84.7,0,84.7L0,84.7z"/>
		</g>
	</g>
	<g>
		<g>
			<path class="st0" d="M6.1,16c1.9,0,1.9-3,0-3S4.2,16,6.1,16L6.1,16z"/>
		</g>
	</g>
	<g>
		<g>
			<path class="st0" d="M177.9,543.4c1.9,0,1.9-3,0-3C175.9,540.4,175.9,543.4,177.9,543.4L177.9,543.4z"/>
		</g>
	</g>
	<g>
		<g>
			<path class="st0" d="M395,542.2c1.9,0,1.9-3,0-3S393.1,542.2,395,542.2L395,542.2z"/>
		</g>
	</g>
	<g>
		<g>
			<path class="st0" d="M327.5,500.5c1.9,0,1.9-3,0-3S325.6,500.5,327.5,500.5L327.5,500.5z"/>
		</g>
	</g>
	<g>
		<g>
			<path class="st0" d="M409.7,108c1.9,0,1.9-3,0-3C407.8,105,407.8,108,409.7,108L409.7,108z"/>
		</g>
	</g>
	<g>
		<g>
			<path class="st0" d="M711.5,261.3c1.9,0,1.9-3,0-3C709.5,258.3,709.5,261.3,711.5,261.3L711.5,261.3z"/>
		</g>
	</g>
	<g>
		<g>
			<path class="st0" d="M392.5,232.9c6.4,0,6.4-10,0-10S386.1,232.9,392.5,232.9L392.5,232.9z"/>
		</g>
	</g>
	<g>
		<g>
			<path class="st0" d="M674.7,33c6.4,0,6.4-10,0-10C668.2,23,668.2,33,674.7,33L674.7,33z"/>
		</g>
	</g>
	<g>
		<g>
			<path class="st0" d="M512.7,56.3c6.4,0,6.4-10,0-10S506.3,56.3,512.7,56.3L512.7,56.3z"/>
		</g>
	</g>
	<g>
		<g>
			<path class="st0" d="M437.9,513.8c6.4,0,6.4-10,0-10S431.5,513.8,437.9,513.8L437.9,513.8z"/>
		</g>
	</g>
	<g>
		<g>
			<path class="st0" d="M183.6,342.8c6.4,0,6.4-10,0-10S177.2,342.8,183.6,342.8L183.6,342.8z"/>
		</g>
	</g>
	<g>
		<g>
			<path class="st0" d="M30.7,383.8c6.4,0,6.4-10,0-10C24.2,373.8,24.2,383.8,30.7,383.8L30.7,383.8z"/>
		</g>
	</g>
	<g>
		<g>
			<path class="st0" d="M750.6,342.5c6.4,0,6.4-10,0-10C744.2,332.5,744.2,342.5,750.6,342.5L750.6,342.5z"/>
		</g>
	</g>
	<g>
		<g>
			<path class="st0" d="M884.4,177.7c0.8,0,1.6,0,2.5,0c1.3,0,2.6-0.6,3.5-1.5s1.5-2.3,1.5-3.5c-0.1-1.3-0.5-2.6-1.5-3.5
				s-2.2-1.5-3.5-1.5c-0.8,0-1.6,0-2.5,0c-1.3,0-2.6,0.6-3.5,1.5s-1.5,2.3-1.5,3.5c0.1,1.3,0.5,2.6,1.5,3.5
				C881.9,177.1,883.1,177.7,884.4,177.7L884.4,177.7z"/>
		</g>
	</g>
	<g>
		<g>
			<path class="st0" d="M62.6,36.6c6.4,0,6.4-10,0-10C56.1,26.6,56.1,36.6,62.6,36.6L62.6,36.6z"/>
		</g>
	</g>
	<g>
		<g>
			<path class="st0" d="M65.9,617.3c1.9,0,1.9-3,0-3S64,617.3,65.9,617.3L65.9,617.3z"/>
		</g>
	</g>
	<g>
		<g>
			<path class="st0" d="M173.8,662c1.9,0,1.9-3,0-3C171.9,659,171.9,662,173.8,662L173.8,662z"/>
		</g>
	</g>
	<g>
		<g>
			<path class="st0" d="M333,594.9c1.9,0,1.9-3,0-3S331.1,594.9,333,594.9L333,594.9z"/>
		</g>
	</g>
	<g>
		<g>
			<path class="st0" d="M397.5,655.4c1.9,0,1.9-3,0-3C395.5,652.4,395.5,655.4,397.5,655.4L397.5,655.4z"/>
		</g>
	</g>
	<g>
		<g>
			<path class="st0" d="M544.8,592.3c1.9,0,1.9-3,0-3C542.9,589.3,542.9,592.3,544.8,592.3L544.8,592.3z"/>
		</g>
	</g>
	<g>
		<g>
			<path class="st0" d="M680.4,651.5c1.9,0,1.9-3,0-3C678.4,648.5,678.4,651.5,680.4,651.5L680.4,651.5z"/>
		</g>
	</g>
	<g>
		<g>
			<path class="st0" d="M505.4,680.4c1.9,0,1.9-3,0-3C503.4,677.4,503.4,680.4,505.4,680.4L505.4,680.4z"/>
		</g>
	</g>
	<g>
		<g>
			<path class="st0" d="M614.6,635.7c1.9,0,1.9-3,0-3C612.6,632.7,612.6,635.7,614.6,635.7L614.6,635.7z"/>
		</g>
	</g>
	<g>
		<g>
			<path class="st0" d="M890.9,614.7c1.9,0,1.9-3,0-3S889,614.7,890.9,614.7L890.9,614.7z"/>
		</g>
	</g>
	<g>
		<g>
			<path class="st0" d="M793.5,646.2c1.9,0,1.9-3,0-3S791.6,646.2,793.5,646.2L793.5,646.2z"/>
		</g>
	</g>
	<g>
		<g>
			<path class="st0" d="M165.2,264.8c6.4,0,6.4-10,0-10C158.8,254.8,158.8,264.8,165.2,264.8L165.2,264.8z"/>
		</g>
	</g>
	<g>
		<g>
			<path class="st0" d="M328.1,198.3c1.9,0,1.9-3,0-3S326.2,198.3,328.1,198.3L328.1,198.3z"/>
		</g>
	</g>
	<g>
		<g>
			<path class="st0" d="M21.1,189.8c1.9,0,1.9-3,0-3S19.2,189.8,21.1,189.8L21.1,189.8z"/>
		</g>
	</g>
	<path class="st1" d="M189.3,95.1"/>
	<g>
		<g>
			<path class="st0" d="M149.9,206.9c1.9,0,1.9-3,0-3S148,206.9,149.9,206.9L149.9,206.9z"/>
		</g>
	</g>
	<g>
		<g>
			<path class="st0" d="M190.8,100.7c1.9,0,1.9-3,0-3C188.9,97.7,188.9,100.7,190.8,100.7L190.8,100.7z"/>
		</g>
	</g>
	<g>
		<g>
			<path class="st0" d="M408.3,315.2c1.9,0,1.9-3,0-3S406.4,315.2,408.3,315.2L408.3,315.2z"/>
		</g>
	</g>
	<g>
		<g>
			<path class="st0" d="M545.2,216.1c1.9,0,1.9-3,0-3C543.2,213.1,543.2,216.1,545.2,216.1L545.2,216.1z"/>
		</g>
	</g>
	<g>
		<g>
			<path class="st0" d="M414.4,164.1c1.9,0,1.9-3,0-3S412.5,164.1,414.4,164.1L414.4,164.1z"/>
		</g>
	</g>
	<g>
		<g>
			<path class="st0" d="M683,189.6c1.9,0,1.9-3,0-3S681.1,189.6,683,189.6L683,189.6z"/>
		</g>
	</g>
	<g>
		<g>
			<path class="st0" d="M787.2,56.8c1.9,0,1.9-3,0-3S785.3,56.8,787.2,56.8L787.2,56.8z"/>
		</g>
	</g>
	<g>
		<g>
			<path class="st0" d="M891.4,237.6c1.9,0,1.9-3,0-3S889.4,237.6,891.4,237.6L891.4,237.6z"/>
		</g>
	</g>
	<g>
		<g>
			<path class="st0" d="M878.1,425.5c1.9,0,1.9-3,0-3C876.2,422.5,876.2,425.5,878.1,425.5L878.1,425.5z"/>
		</g>
	</g>
	<g>
		<g>
			<path class="st0" d="M511.5,487.8c1.9,0,1.9-3,0-3C509.5,484.8,509.5,487.8,511.5,487.8L511.5,487.8z"/>
		</g>
	</g>
	<g>
		<g>
			<path class="st0" d="M263.3,410.2c1.9,0,1.9-3,0-3S261.4,410.2,263.3,410.2L263.3,410.2z"/>
		</g>
	</g>
	<g>
		<g>
			<path class="st0" d="M296,75.2c1.9,0,1.9-3,0-3C294,72.2,294,75.2,296,75.2L296,75.2z"/>
		</g>
	</g>
	<g>
		<g>
			<path class="st0" d="M303.1,126.3c1.9,0,1.9-3,0-3S301.2,126.3,303.1,126.3L303.1,126.3z"/>
		</g>
	</g>
	<g>
		<g>
			<path class="st0" d="M450.2,242.7c1.9,0,1.9-3,0-3C448.3,239.7,448.3,242.7,450.2,242.7L450.2,242.7z"/>
		</g>
	</g>
	<g>
		<g>
			<path class="st0" d="M344,248.8c1.9,0,1.9-3,0-3C342,245.8,342,248.8,344,248.8L344,248.8z"/>
		</g>
	</g>
	<g>
		<g>
			<path class="st0" d="M30.4,132.4c1.9,0,1.9-3,0-3S28.5,132.4,30.4,132.4L30.4,132.4z"/>
		</g>
	</g>
	<g>
		<g>
			<path class="st0" d="M183.6,283.5c1.9,0,1.9-3,0-3C181.7,280.5,181.7,283.5,183.6,283.5L183.6,283.5z"/>
		</g>
	</g>
	<g>
		<g>
			<path class="st0" d="M152,356.1c1.9,0,1.9-3,0-3C150,353.1,150,356.1,152,356.1L152,356.1z"/>
		</g>
	</g>
	<g>
		<g>
			<path class="st0" d="M900.6,78.3c1.9,0,1.9-3,0-3C898.6,75.3,898.6,78.3,900.6,78.3L900.6,78.3z"/>
		</g>
	</g>
	<g>
		<g>
			<path class="st0" d="M814.8,17c1.9,0,1.9-3,0-3C812.9,14,812.9,17,814.8,17L814.8,17z"/>
		</g>
	</g>
	<g>
		<g>
			<path class="st0" d="M738.2,298.9c1.9,0,1.9-3,0-3S736.3,298.9,738.2,298.9L738.2,298.9z"/>
		</g>
	</g>
	<g>
		<g>
			<path class="st0" d="M828.1,276.4c1.9,0,1.9-3,0-3C826.1,273.4,826.1,276.4,828.1,276.4L828.1,276.4z"/>
		</g>
	</g>
	<g>
		<g>
			<path class="st0" d="M756.6,420.4c1.9,0,1.9-3,0-3C754.6,417.4,754.6,420.4,756.6,420.4L756.6,420.4z"/>
		</g>
	</g>
	<g>
		<g>
			<path class="st0" d="M689.2,522.5c1.9,0,1.9-3,0-3C687.2,519.5,687.2,522.5,689.2,522.5L689.2,522.5z"/>
		</g>
	</g>
	<g>
		<g>
			<path class="st0" d="M636.1,440.8c1.9,0,1.9-3,0-3C634.1,437.8,634.1,440.8,636.1,440.8L636.1,440.8z"/>
		</g>
	</g>
	<g>
		<g>
			<path class="st0" d="M565.6,372.4c1.9,0,1.9-3,0-3C563.7,369.4,563.7,372.4,565.6,372.4L565.6,372.4z"/>
		</g>
	</g>
	<g>
		<g>
			<path class="st0" d="M533.9,289.7c1.9,0,1.9-3,0-3S532,289.7,533.9,289.7L533.9,289.7z"/>
		</g>
	</g>
	<g>
		<g>
			<path class="st0" d="M530.9,191.6c1.9,0,1.9-3,0-3C528.9,188.6,528.9,191.6,530.9,191.6L530.9,191.6z"/>
		</g>
	</g>
</g>
</svg>
