<?xml version="1.0" encoding="utf-8"?>
<!-- Generator: Adobe Illustrator 24.0.0, SVG Export Plug-In . SVG Version: 6.00 Build 0)  -->
<svg version="1.1" id="Layer_1" xmlns="http://www.w3.org/2000/svg" xmlns:xlink="http://www.w3.org/1999/xlink" x="0px" y="0px"
	 viewBox="0 0 353 391" style="enable-background:new 0 0 353 391;" xml:space="preserve">
<style type="text/css">
	.st0{fill:#FFFFFF;stroke:#000000;stroke-miterlimit:10;}
	.st1{fill:#FF00FF;stroke:#000000;stroke-miterlimit:10;}
	.st2{fill:none;stroke:#000000;stroke-miterlimit:10;}
	.st3{fill:#0000FF;}
	.st4{fill:#00AF5F;}
</style>
<path class="st0" d="M13,40.3l322.3-2.9c0,0-3.8,108.8-1.1,173c2.7,64.2,15,153.4,15,153.4s-48.1,8.9-115.3,13.9
	c-85.3,3.2-205.2,8.9-205.2,8.9S-14.8,238.7,13,40.3z"/>
<path class="st1" d="M149.6,24.9c0.6,0.1,11.6,1.8,15.3,10.5c2.5,6,0.3,11.7-0.5,13.8c-2.1,5.4-6.3,9.8-11.6,12.1
	c-7.2,2.9-16.8,1.7-22.3-4.5c-3-3.6-4.6-8.2-4.5-12.9c0.2-3.9,1.4-7.7,3.5-11"/>
<line class="st2" x1="160.3" y1="77.4" x2="151.4" y2="61.9"/>
<line class="st2" x1="160.3" y1="77.4" x2="155.5" y2="59.8"/>
<path class="st1" d="M140.4,5.7c7.2,2.9,10.7,11.1,7.8,18.3c-0.3,0.7-0.6,1.3-1,1.9c-2.9,4.5-10.3,8.5-17.4,5.6
	c-7.2-2.7-10.8-10.8-8.1-18c2.7-7.2,10.8-10.8,18-8.1C139.9,5.5,140.2,5.6,140.4,5.7L140.4,5.7z"/>
<path class="st2" d="M130.6,48.5c1.8-3,2.5-6.5,1.8-9.9c-0.7-3.4-2.7-6.5-5.4-8.7"/>
<path class="st2" d="M156.5,37.4c1,2.6,0.9,3.2,0.7,3.3c-0.9,0.5-7.1-5.4-7.9-13.3c-0.3-2.6-0.3-5.2-0.1-7.9"/>
<g>
	<path d="M36,196.8h-2.6V196h6.2v0.8h-2.6v7h-1V196.8z"/>
	<path d="M41.3,195.3h1v2.3l0,1.4c0.3-0.3,0.6-0.6,1-0.8s0.8-0.3,1.2-0.3c0.7,0,1.2,0.2,1.5,0.6c0.3,0.4,0.5,1,0.5,1.8v3.6h-1v-3.5
		c0-0.6-0.1-1-0.3-1.2s-0.6-0.4-1-0.4c-0.2,0-0.3,0-0.5,0.1c-0.1,0-0.3,0.1-0.4,0.2c-0.1,0.1-0.3,0.2-0.4,0.3
		c-0.2,0.1-0.3,0.3-0.5,0.5v4.1h-1V195.3z"/>
	<path d="M48.2,200.9c0-0.5,0.1-0.9,0.3-1.3c0.2-0.4,0.4-0.7,0.7-1s0.6-0.5,0.9-0.6c0.4-0.1,0.7-0.2,1.1-0.2c0.4,0,0.8,0.1,1.1,0.2
		c0.3,0.1,0.6,0.3,0.8,0.6s0.4,0.5,0.5,0.9c0.1,0.3,0.2,0.7,0.2,1.1c0,0.1,0,0.2,0,0.3c0,0.1,0,0.2,0,0.3h-4.6
		c0,0.3,0.1,0.6,0.2,0.8c0.1,0.2,0.3,0.5,0.5,0.6c0.2,0.2,0.4,0.3,0.7,0.4c0.3,0.1,0.6,0.1,0.9,0.1c0.3,0,0.7,0,0.9-0.1
		c0.3-0.1,0.6-0.2,0.8-0.4l0.3,0.6c-0.3,0.2-0.6,0.3-1,0.5c-0.4,0.1-0.8,0.2-1.3,0.2c-0.4,0-0.8-0.1-1.2-0.2c-0.4-0.1-0.7-0.3-1-0.6
		c-0.3-0.3-0.5-0.6-0.7-1C48.3,201.8,48.2,201.4,48.2,200.9z M52.9,200.5c0-0.6-0.2-1-0.5-1.3c-0.3-0.3-0.7-0.5-1.3-0.5
		c-0.2,0-0.5,0-0.7,0.1c-0.2,0.1-0.4,0.2-0.6,0.4c-0.2,0.2-0.3,0.3-0.4,0.6c-0.1,0.2-0.2,0.5-0.2,0.8H52.9z"/>
	<path d="M66.8,201.4h-2.9l-0.8,2.4h-1l2.7-7.9h1.1l2.7,7.9h-1.1L66.8,201.4z M66.5,200.6l-0.4-1.2c-0.1-0.4-0.3-0.9-0.4-1.3
		s-0.3-0.9-0.4-1.3h0c-0.1,0.5-0.3,0.9-0.4,1.3c-0.1,0.4-0.3,0.9-0.4,1.3l-0.4,1.2H66.5z"/>
	<path d="M70.1,198h0.8l0.1,1h0c0.3-0.3,0.6-0.6,1-0.8s0.8-0.3,1.2-0.3c0.7,0,1.2,0.2,1.5,0.6c0.3,0.4,0.5,1,0.5,1.8v3.6h-1v-3.5
		c0-0.6-0.1-1-0.3-1.2s-0.6-0.4-1-0.4c-0.2,0-0.3,0-0.5,0.1c-0.1,0-0.3,0.1-0.4,0.2c-0.1,0.1-0.3,0.2-0.4,0.3
		c-0.2,0.1-0.3,0.3-0.5,0.5v4.1h-1V198z"/>
	<path d="M77.1,202.3c0-0.3,0.1-0.6,0.2-0.9c0.2-0.2,0.4-0.5,0.7-0.6c0.3-0.2,0.8-0.3,1.3-0.4c0.5-0.1,1.2-0.2,1.9-0.3
		c0-0.2,0-0.4-0.1-0.6c-0.1-0.2-0.1-0.3-0.3-0.5c-0.1-0.1-0.3-0.2-0.5-0.3c-0.2-0.1-0.4-0.1-0.7-0.1c-0.4,0-0.8,0.1-1.1,0.2
		c-0.4,0.1-0.7,0.3-0.9,0.5l-0.4-0.7c0.1-0.1,0.3-0.2,0.5-0.3c0.2-0.1,0.4-0.2,0.6-0.3s0.5-0.1,0.7-0.2s0.5-0.1,0.8-0.1
		c0.8,0,1.4,0.2,1.8,0.7c0.4,0.4,0.6,1,0.6,1.7v3.6h-0.8l-0.1-0.8h0c-0.3,0.3-0.7,0.5-1.1,0.7s-0.8,0.3-1.2,0.3
		c-0.3,0-0.5,0-0.8-0.1c-0.2-0.1-0.5-0.2-0.6-0.3c-0.2-0.1-0.3-0.3-0.4-0.5S77.1,202.6,77.1,202.3z M78.1,202.3c0,0.2,0,0.3,0.1,0.4
		c0.1,0.1,0.2,0.2,0.3,0.3c0.1,0.1,0.3,0.1,0.4,0.2c0.2,0,0.3,0.1,0.5,0.1c0.3,0,0.7-0.1,1-0.2c0.3-0.1,0.7-0.4,1-0.6v-1.5
		c-0.6,0-1.1,0.1-1.6,0.2s-0.8,0.2-1,0.3c-0.3,0.1-0.4,0.3-0.5,0.4C78.1,201.9,78.1,202.1,78.1,202.3z"/>
	<path d="M84.3,195.3h3v6.7c0,0.4,0.1,0.7,0.3,0.9c0.2,0.2,0.5,0.3,0.8,0.3c0.3,0,0.7-0.1,1.1-0.3l0.3,0.7c-0.3,0.1-0.5,0.2-0.7,0.2
		c-0.2,0.1-0.5,0.1-0.8,0.1c-0.6,0-1.1-0.2-1.4-0.5c-0.3-0.4-0.5-0.9-0.5-1.6v-5.8h-2V195.3z"/>
	<path d="M91.8,205.5c0.1,0,0.2,0,0.3,0c0.4,0,0.7-0.1,1-0.4c0.3-0.2,0.5-0.5,0.6-0.9l0.2-0.4l-2.7-5.8h1l1.4,3.2
		c0.1,0.3,0.2,0.5,0.4,0.8c0.1,0.3,0.2,0.6,0.4,0.9h0c0.1-0.3,0.2-0.6,0.3-0.9c0.1-0.3,0.2-0.6,0.3-0.8l1.3-3.2h0.9l-2.6,6.3
		c-0.1,0.3-0.2,0.6-0.4,0.8s-0.3,0.5-0.5,0.6c-0.2,0.2-0.4,0.3-0.7,0.4c-0.3,0.1-0.6,0.2-0.9,0.2c-0.3,0-0.5,0-0.8-0.1l0.2-0.8
		C91.6,205.5,91.7,205.5,91.8,205.5z"/>
	<path d="M99.1,202.4c0.3,0.2,0.7,0.4,1.1,0.6c0.4,0.1,0.8,0.2,1.4,0.2c0.5,0,0.9-0.1,1.2-0.3c0.3-0.2,0.4-0.4,0.4-0.6
		c0-0.2-0.1-0.4-0.4-0.6c-0.3-0.2-0.8-0.4-1.5-0.5c-0.3-0.1-0.6-0.2-0.9-0.3c-0.3-0.1-0.5-0.2-0.7-0.4c-0.2-0.1-0.4-0.3-0.5-0.5
		s-0.2-0.4-0.2-0.6c0-0.2,0.1-0.4,0.2-0.7c0.1-0.2,0.3-0.4,0.5-0.5s0.5-0.3,0.8-0.3s0.7-0.1,1.1-0.1c0.4,0,0.9,0.1,1.3,0.2
		c0.4,0.1,0.8,0.3,1.1,0.5l-0.5,0.6c-0.3-0.2-0.5-0.3-0.9-0.4c-0.3-0.1-0.6-0.2-1-0.2c-0.3,0-0.5,0-0.7,0.1c-0.2,0-0.3,0.1-0.4,0.2
		c-0.1,0.1-0.2,0.2-0.2,0.3c0,0.1-0.1,0.2-0.1,0.3c0,0.2,0.2,0.4,0.5,0.6c0.3,0.2,0.8,0.3,1.3,0.4c0.8,0.2,1.4,0.4,1.8,0.7
		c0.4,0.3,0.6,0.6,0.6,1.1c0,0.2-0.1,0.5-0.2,0.7c-0.1,0.2-0.3,0.4-0.5,0.6c-0.2,0.2-0.5,0.3-0.8,0.4c-0.3,0.1-0.7,0.1-1.1,0.1
		c-0.6,0-1.1-0.1-1.6-0.3s-0.9-0.4-1.3-0.6L99.1,202.4z"/>
	<path d="M105.8,200.9c0-0.5,0.1-0.9,0.3-1.3c0.2-0.4,0.4-0.7,0.7-1s0.6-0.5,0.9-0.6c0.4-0.1,0.7-0.2,1.1-0.2c0.4,0,0.8,0.1,1.1,0.2
		c0.3,0.1,0.6,0.3,0.8,0.6s0.4,0.5,0.5,0.9c0.1,0.3,0.2,0.7,0.2,1.1c0,0.1,0,0.2,0,0.3c0,0.1,0,0.2,0,0.3h-4.6
		c0,0.3,0.1,0.6,0.2,0.8c0.1,0.2,0.3,0.5,0.5,0.6c0.2,0.2,0.4,0.3,0.7,0.4c0.3,0.1,0.6,0.1,0.9,0.1c0.3,0,0.7,0,0.9-0.1
		c0.3-0.1,0.6-0.2,0.8-0.4l0.3,0.6c-0.3,0.2-0.6,0.3-1,0.5c-0.4,0.1-0.8,0.2-1.3,0.2c-0.4,0-0.8-0.1-1.2-0.2c-0.4-0.1-0.7-0.3-1-0.6
		c-0.3-0.3-0.5-0.6-0.7-1C105.9,201.8,105.8,201.4,105.8,200.9z M110.5,200.5c0-0.6-0.2-1-0.5-1.3c-0.3-0.3-0.7-0.5-1.3-0.5
		c-0.2,0-0.5,0-0.7,0.1c-0.2,0.1-0.4,0.2-0.6,0.4c-0.2,0.2-0.3,0.3-0.4,0.6c-0.1,0.2-0.2,0.5-0.2,0.8H110.5z"/>
	<path d="M113.9,198h0.8l0.1,1.4h0c0.3-0.5,0.7-0.8,1.1-1.1s0.9-0.4,1.5-0.4c0.2,0,0.4,0,0.6,0.1c0.2,0,0.4,0.1,0.6,0.2l-0.2,0.9
		c-0.2-0.1-0.4-0.1-0.5-0.2c-0.1,0-0.3,0-0.6,0c-0.4,0-0.9,0.1-1.3,0.4c-0.4,0.3-0.8,0.7-1.1,1.3v3.4h-1V198z"/>
	<path d="M120.3,196h1l2.6,5l0.8,1.6h0c0-0.4,0-0.8-0.1-1.2c0-0.4-0.1-0.8-0.1-1.3V196h0.9v7.9h-1l-2.6-5l-0.8-1.6h0
		c0,0.4,0,0.8,0.1,1.2c0,0.4,0.1,0.8,0.1,1.2v4.1h-0.9V196z"/>
	<path d="M127.3,200.9c0-0.5,0.1-0.9,0.2-1.3c0.2-0.4,0.4-0.7,0.6-1c0.3-0.3,0.6-0.5,0.9-0.6c0.3-0.1,0.7-0.2,1.1-0.2
		c0.4,0,0.8,0.1,1.1,0.2c0.3,0.1,0.7,0.3,0.9,0.6c0.3,0.3,0.5,0.6,0.6,1c0.2,0.4,0.2,0.8,0.2,1.3c0,0.5-0.1,0.9-0.2,1.3
		c-0.2,0.4-0.4,0.7-0.6,1c-0.3,0.3-0.6,0.5-0.9,0.6c-0.3,0.1-0.7,0.2-1.1,0.2c-0.4,0-0.8-0.1-1.1-0.2s-0.7-0.3-0.9-0.6
		c-0.3-0.3-0.5-0.6-0.6-1C127.3,201.8,127.3,201.4,127.3,200.9z M128.3,200.9c0,0.3,0,0.6,0.1,0.9c0.1,0.3,0.2,0.5,0.4,0.7
		c0.2,0.2,0.4,0.3,0.6,0.5c0.2,0.1,0.5,0.2,0.8,0.2c0.3,0,0.5-0.1,0.8-0.2c0.2-0.1,0.4-0.3,0.6-0.5c0.2-0.2,0.3-0.4,0.4-0.7
		c0.1-0.3,0.1-0.6,0.1-0.9s0-0.6-0.1-0.9c-0.1-0.3-0.2-0.5-0.4-0.7c-0.2-0.2-0.4-0.4-0.6-0.5c-0.2-0.1-0.5-0.2-0.8-0.2
		c-0.3,0-0.5,0.1-0.8,0.2c-0.2,0.1-0.4,0.3-0.6,0.5c-0.2,0.2-0.3,0.4-0.4,0.7C128.3,200.3,128.3,200.6,128.3,200.9z"/>
	<path d="M134.5,200.9c0-0.5,0.1-0.9,0.2-1.3c0.1-0.4,0.3-0.7,0.6-1s0.5-0.5,0.8-0.6c0.3-0.1,0.7-0.2,1-0.2c0.4,0,0.7,0.1,0.9,0.2
		c0.3,0.1,0.5,0.3,0.8,0.6l0-1.1v-2.2h1v8.5H139l-0.1-0.8h0c-0.2,0.2-0.5,0.5-0.9,0.6s-0.7,0.3-1,0.3c-0.4,0-0.7-0.1-1-0.2
		s-0.6-0.3-0.8-0.6c-0.2-0.3-0.4-0.6-0.5-1C134.5,201.9,134.5,201.4,134.5,200.9z M135.5,200.9c0,0.7,0.1,1.3,0.4,1.6
		c0.3,0.4,0.7,0.6,1.3,0.6c0.6,0,1.1-0.3,1.6-0.9v-2.9c-0.3-0.2-0.5-0.4-0.8-0.5s-0.5-0.2-0.8-0.2s-0.5,0.1-0.7,0.2
		c-0.2,0.1-0.4,0.3-0.6,0.5c-0.2,0.2-0.3,0.4-0.4,0.7C135.5,200.3,135.5,200.6,135.5,200.9z"/>
	<path d="M141.8,200.9c0-0.5,0.1-0.9,0.3-1.3c0.2-0.4,0.4-0.7,0.7-1s0.6-0.5,0.9-0.6c0.4-0.1,0.7-0.2,1.1-0.2c0.4,0,0.8,0.1,1.1,0.2
		c0.3,0.1,0.6,0.3,0.8,0.6s0.4,0.5,0.5,0.9c0.1,0.3,0.2,0.7,0.2,1.1c0,0.1,0,0.2,0,0.3c0,0.1,0,0.2,0,0.3h-4.6
		c0,0.3,0.1,0.6,0.2,0.8c0.1,0.2,0.3,0.5,0.5,0.6c0.2,0.2,0.4,0.3,0.7,0.4c0.3,0.1,0.6,0.1,0.9,0.1c0.3,0,0.7,0,0.9-0.1
		c0.3-0.1,0.6-0.2,0.8-0.4l0.3,0.6c-0.3,0.2-0.6,0.3-1,0.5c-0.4,0.1-0.8,0.2-1.3,0.2c-0.4,0-0.8-0.1-1.2-0.2c-0.4-0.1-0.7-0.3-1-0.6
		c-0.3-0.3-0.5-0.6-0.7-1C141.9,201.8,141.8,201.4,141.8,200.9z M146.5,200.5c0-0.6-0.2-1-0.5-1.3c-0.3-0.3-0.7-0.5-1.3-0.5
		c-0.2,0-0.5,0-0.7,0.1c-0.2,0.1-0.4,0.2-0.6,0.4c-0.2,0.2-0.3,0.3-0.4,0.6c-0.1,0.2-0.2,0.5-0.2,0.8H146.5z"/>
	<path d="M156.4,198h3.7v5.8h-1v-5h-2.7V198z M159.5,196.8c-0.2,0-0.4-0.1-0.6-0.2s-0.2-0.3-0.2-0.6c0-0.2,0.1-0.4,0.2-0.6
		c0.1-0.1,0.3-0.2,0.6-0.2c0.2,0,0.4,0.1,0.6,0.2c0.2,0.1,0.2,0.3,0.2,0.6c0,0.2-0.1,0.4-0.2,0.6
		C159.9,196.7,159.7,196.8,159.5,196.8z"/>
	<path d="M163.9,202.4c0.3,0.2,0.7,0.4,1.1,0.6c0.4,0.1,0.8,0.2,1.4,0.2c0.5,0,0.9-0.1,1.2-0.3c0.3-0.2,0.4-0.4,0.4-0.6
		c0-0.2-0.1-0.4-0.4-0.6c-0.3-0.2-0.8-0.4-1.5-0.5c-0.3-0.1-0.6-0.2-0.9-0.3c-0.3-0.1-0.5-0.2-0.7-0.4c-0.2-0.1-0.4-0.3-0.5-0.5
		s-0.2-0.4-0.2-0.6c0-0.2,0.1-0.4,0.2-0.7c0.1-0.2,0.3-0.4,0.5-0.5s0.5-0.3,0.8-0.3s0.7-0.1,1.1-0.1c0.4,0,0.9,0.1,1.3,0.2
		c0.4,0.1,0.8,0.3,1.1,0.5l-0.5,0.6c-0.3-0.2-0.5-0.3-0.9-0.4c-0.3-0.1-0.6-0.2-1-0.2c-0.3,0-0.5,0-0.7,0.1c-0.2,0-0.3,0.1-0.4,0.2
		c-0.1,0.1-0.2,0.2-0.2,0.3c0,0.1-0.1,0.2-0.1,0.3c0,0.2,0.2,0.4,0.5,0.6c0.3,0.2,0.8,0.3,1.3,0.4c0.8,0.2,1.4,0.4,1.8,0.7
		s0.6,0.6,0.6,1.1c0,0.2-0.1,0.5-0.2,0.7c-0.1,0.2-0.3,0.4-0.5,0.6c-0.2,0.2-0.5,0.3-0.8,0.4c-0.3,0.1-0.7,0.1-1.1,0.1
		c-0.6,0-1.1-0.1-1.6-0.3s-0.9-0.4-1.3-0.6L163.9,202.4z"/>
	<path d="M177.9,202.3c0-0.3,0.1-0.6,0.2-0.9s0.4-0.5,0.7-0.6s0.8-0.3,1.3-0.4c0.5-0.1,1.2-0.2,1.9-0.3c0-0.2,0-0.4-0.1-0.6
		c-0.1-0.2-0.1-0.3-0.3-0.5c-0.1-0.1-0.3-0.2-0.5-0.3s-0.4-0.1-0.7-0.1c-0.4,0-0.8,0.1-1.1,0.2c-0.4,0.1-0.7,0.3-0.9,0.5l-0.4-0.7
		c0.1-0.1,0.3-0.2,0.5-0.3c0.2-0.1,0.4-0.2,0.6-0.3c0.2-0.1,0.5-0.1,0.7-0.2s0.5-0.1,0.8-0.1c0.8,0,1.4,0.2,1.8,0.7
		c0.4,0.4,0.6,1,0.6,1.7v3.6h-0.8l-0.1-0.8h0c-0.3,0.3-0.7,0.5-1.1,0.7c-0.4,0.2-0.8,0.3-1.2,0.3c-0.3,0-0.5,0-0.8-0.1
		c-0.2-0.1-0.5-0.2-0.6-0.3c-0.2-0.1-0.3-0.3-0.4-0.5C178,202.8,177.9,202.6,177.9,202.3z M178.9,202.3c0,0.2,0,0.3,0.1,0.4
		s0.2,0.2,0.3,0.3s0.3,0.1,0.4,0.2c0.2,0,0.3,0.1,0.5,0.1c0.3,0,0.7-0.1,1-0.2c0.3-0.1,0.7-0.4,1-0.6v-1.5c-0.6,0-1.1,0.1-1.6,0.2
		s-0.8,0.2-1,0.3c-0.3,0.1-0.4,0.3-0.5,0.4C178.9,201.9,178.9,202.1,178.9,202.3z"/>
	<path d="M185.3,195.3h1v2.3l0,1.1c0.3-0.3,0.6-0.5,0.9-0.6c0.3-0.2,0.7-0.2,1-0.2c0.4,0,0.7,0.1,1,0.2c0.3,0.1,0.6,0.3,0.8,0.6
		c0.2,0.3,0.4,0.6,0.5,0.9c0.1,0.4,0.2,0.8,0.2,1.2c0,0.5-0.1,0.9-0.2,1.3c-0.1,0.4-0.3,0.7-0.6,1c-0.2,0.3-0.5,0.5-0.8,0.6
		c-0.3,0.1-0.7,0.2-1,0.2c-0.3,0-0.6-0.1-0.9-0.2s-0.6-0.3-0.9-0.6h0l-0.1,0.6h-0.8V195.3z M186.2,202.5c0.3,0.2,0.6,0.4,0.8,0.5
		c0.3,0.1,0.5,0.2,0.7,0.2c0.3,0,0.5-0.1,0.7-0.2c0.2-0.1,0.4-0.3,0.6-0.5c0.2-0.2,0.3-0.4,0.4-0.7c0.1-0.3,0.1-0.6,0.1-1
		c0-0.3,0-0.6-0.1-0.9c-0.1-0.3-0.2-0.5-0.3-0.7c-0.1-0.2-0.3-0.3-0.5-0.4s-0.5-0.2-0.7-0.2c-0.3,0-0.5,0.1-0.8,0.2
		c-0.3,0.1-0.6,0.4-0.9,0.7V202.5z"/>
	<path d="M192.3,195.3h3v6.7c0,0.4,0.1,0.7,0.3,0.9c0.2,0.2,0.5,0.3,0.8,0.3c0.3,0,0.7-0.1,1.1-0.3l0.3,0.7
		c-0.3,0.1-0.5,0.2-0.7,0.2c-0.2,0.1-0.5,0.1-0.8,0.1c-0.6,0-1.1-0.2-1.4-0.5s-0.5-0.9-0.5-1.6v-5.8h-2V195.3z"/>
	<path d="M199.4,200.9c0-0.5,0.1-0.9,0.3-1.3c0.2-0.4,0.4-0.7,0.7-1c0.3-0.3,0.6-0.5,0.9-0.6c0.4-0.1,0.7-0.2,1.1-0.2
		c0.4,0,0.8,0.1,1.1,0.2c0.3,0.1,0.6,0.3,0.8,0.6c0.2,0.2,0.4,0.5,0.5,0.9c0.1,0.3,0.2,0.7,0.2,1.1c0,0.1,0,0.2,0,0.3
		c0,0.1,0,0.2,0,0.3h-4.6c0,0.3,0.1,0.6,0.2,0.8c0.1,0.2,0.3,0.5,0.5,0.6c0.2,0.2,0.4,0.3,0.7,0.4c0.3,0.1,0.6,0.1,0.9,0.1
		c0.3,0,0.7,0,0.9-0.1s0.6-0.2,0.8-0.4l0.3,0.6c-0.3,0.2-0.6,0.3-1,0.5s-0.8,0.2-1.3,0.2c-0.4,0-0.8-0.1-1.2-0.2
		c-0.4-0.1-0.7-0.3-1-0.6c-0.3-0.3-0.5-0.6-0.7-1C199.5,201.8,199.4,201.4,199.4,200.9z M204.1,200.5c0-0.6-0.2-1-0.5-1.3
		c-0.3-0.3-0.7-0.5-1.3-0.5c-0.2,0-0.5,0-0.7,0.1c-0.2,0.1-0.4,0.2-0.6,0.4s-0.3,0.3-0.4,0.6c-0.1,0.2-0.2,0.5-0.2,0.8H204.1z"/>
	<path d="M215.4,198.8h-1.6v-0.7l1.7-0.1l0.1-1.6h0.8v1.6h2.9v0.8h-2.9v2.8c0,0.3,0,0.5,0.1,0.7c0,0.2,0.1,0.4,0.2,0.5
		s0.3,0.2,0.5,0.3c0.2,0.1,0.4,0.1,0.7,0.1s0.5,0,0.8-0.1c0.2,0,0.4-0.1,0.6-0.2l0.2,0.7c-0.3,0.1-0.6,0.2-0.9,0.2
		c-0.3,0.1-0.6,0.1-1,0.1c-0.4,0-0.8-0.1-1.1-0.2c-0.3-0.1-0.5-0.3-0.7-0.5c-0.2-0.2-0.3-0.5-0.4-0.8c-0.1-0.3-0.1-0.6-0.1-1V198.8z
		"/>
	<path d="M220.9,200.9c0-0.5,0.1-0.9,0.2-1.3c0.2-0.4,0.4-0.7,0.6-1c0.3-0.3,0.6-0.5,0.9-0.6c0.3-0.1,0.7-0.2,1.1-0.2
		c0.4,0,0.8,0.1,1.1,0.2c0.3,0.1,0.7,0.3,0.9,0.6s0.5,0.6,0.6,1c0.2,0.4,0.2,0.8,0.2,1.3c0,0.5-0.1,0.9-0.2,1.3
		c-0.2,0.4-0.4,0.7-0.6,1s-0.6,0.5-0.9,0.6s-0.7,0.2-1.1,0.2c-0.4,0-0.8-0.1-1.1-0.2c-0.3-0.1-0.7-0.3-0.9-0.6
		c-0.3-0.3-0.5-0.6-0.6-1C220.9,201.8,220.9,201.4,220.9,200.9z M221.9,200.9c0,0.3,0,0.6,0.1,0.9s0.2,0.5,0.4,0.7
		c0.2,0.2,0.4,0.3,0.6,0.5c0.2,0.1,0.5,0.2,0.8,0.2c0.3,0,0.5-0.1,0.8-0.2c0.2-0.1,0.4-0.3,0.6-0.5c0.2-0.2,0.3-0.4,0.4-0.7
		s0.1-0.6,0.1-0.9s0-0.6-0.1-0.9s-0.2-0.5-0.4-0.7c-0.2-0.2-0.4-0.4-0.6-0.5c-0.2-0.1-0.5-0.2-0.8-0.2c-0.3,0-0.5,0.1-0.8,0.2
		c-0.2,0.1-0.4,0.3-0.6,0.5c-0.2,0.2-0.3,0.4-0.4,0.7S221.9,200.6,221.9,200.9z"/>
	<path d="M236.6,204.3v2h-1V198h0.8l0.1,0.7h0c0.3-0.3,0.6-0.5,0.9-0.6s0.7-0.3,1.1-0.3c0.4,0,0.7,0.1,1,0.2
		c0.3,0.1,0.6,0.3,0.8,0.6s0.4,0.6,0.5,0.9c0.1,0.4,0.2,0.8,0.2,1.2c0,0.5-0.1,0.9-0.2,1.3c-0.1,0.4-0.3,0.7-0.6,1
		c-0.2,0.3-0.5,0.5-0.8,0.6c-0.3,0.1-0.7,0.2-1,0.2c-0.3,0-0.6-0.1-0.9-0.2c-0.3-0.1-0.6-0.3-0.9-0.6L236.6,204.3z M236.6,202.5
		c0.3,0.2,0.6,0.4,0.8,0.5c0.3,0.1,0.5,0.2,0.7,0.2c0.5,0,1-0.2,1.3-0.6s0.5-1,0.5-1.7c0-0.3,0-0.6-0.1-0.9
		c-0.1-0.3-0.2-0.5-0.3-0.7s-0.3-0.3-0.5-0.4s-0.5-0.2-0.7-0.2c-0.3,0-0.5,0.1-0.8,0.2c-0.3,0.1-0.6,0.4-0.9,0.7V202.5z"/>
	<path d="M243.5,198h0.8l0.1,1.4h0c0.3-0.5,0.7-0.8,1.1-1.1c0.4-0.3,0.9-0.4,1.5-0.4c0.2,0,0.4,0,0.6,0.1c0.2,0,0.4,0.1,0.6,0.2
		L248,199c-0.2-0.1-0.4-0.1-0.5-0.2c-0.1,0-0.3,0-0.6,0c-0.4,0-0.9,0.1-1.3,0.4c-0.4,0.3-0.8,0.7-1.1,1.3v3.4h-1V198z"/>
	<path d="M249.7,200.9c0-0.5,0.1-0.9,0.2-1.3c0.2-0.4,0.4-0.7,0.6-1c0.3-0.3,0.6-0.5,0.9-0.6c0.3-0.1,0.7-0.2,1.1-0.2
		c0.4,0,0.8,0.1,1.1,0.2c0.3,0.1,0.7,0.3,0.9,0.6s0.5,0.6,0.6,1c0.2,0.4,0.2,0.8,0.2,1.3c0,0.5-0.1,0.9-0.2,1.3
		c-0.2,0.4-0.4,0.7-0.6,1s-0.6,0.5-0.9,0.6s-0.7,0.2-1.1,0.2c-0.4,0-0.8-0.1-1.1-0.2c-0.3-0.1-0.7-0.3-0.9-0.6
		c-0.3-0.3-0.5-0.6-0.6-1C249.7,201.8,249.7,201.4,249.7,200.9z M250.7,200.9c0,0.3,0,0.6,0.1,0.9s0.2,0.5,0.4,0.7
		c0.2,0.2,0.4,0.3,0.6,0.5c0.2,0.1,0.5,0.2,0.8,0.2c0.3,0,0.5-0.1,0.8-0.2c0.2-0.1,0.4-0.3,0.6-0.5c0.2-0.2,0.3-0.4,0.4-0.7
		s0.1-0.6,0.1-0.9s0-0.6-0.1-0.9s-0.2-0.5-0.4-0.7c-0.2-0.2-0.4-0.4-0.6-0.5c-0.2-0.1-0.5-0.2-0.8-0.2c-0.3,0-0.5,0.1-0.8,0.2
		c-0.2,0.1-0.4,0.3-0.6,0.5c-0.2,0.2-0.3,0.4-0.4,0.7S250.7,200.6,250.7,200.9z"/>
	<path d="M256.8,198h1l1.3,3.3c0.1,0.3,0.2,0.6,0.3,0.9c0.1,0.3,0.2,0.6,0.3,0.8h0c0.1-0.3,0.2-0.6,0.3-0.8c0.1-0.3,0.2-0.6,0.3-0.9
		l1.3-3.3h0.9l-2.4,5.8h-1.1L256.8,198z"/>
	<path d="M264.4,198h3.7v5.8h-1v-5h-2.7V198z M267.5,196.8c-0.2,0-0.4-0.1-0.6-0.2c-0.1-0.1-0.2-0.3-0.2-0.6c0-0.2,0.1-0.4,0.2-0.6
		c0.1-0.1,0.3-0.2,0.6-0.2c0.2,0,0.4,0.1,0.6,0.2c0.2,0.1,0.2,0.3,0.2,0.6c0,0.2-0.1,0.4-0.2,0.6S267.7,196.8,267.5,196.8z"/>
	<path d="M271.3,200.9c0-0.5,0.1-0.9,0.2-1.3c0.1-0.4,0.3-0.7,0.6-1s0.5-0.5,0.8-0.6c0.3-0.1,0.7-0.2,1-0.2c0.4,0,0.7,0.1,0.9,0.2
		c0.3,0.1,0.5,0.3,0.8,0.6l0-1.1v-2.2h1v8.5h-0.8l-0.1-0.8h0c-0.2,0.2-0.5,0.5-0.9,0.6s-0.7,0.3-1,0.3c-0.4,0-0.7-0.1-1-0.2
		c-0.3-0.1-0.6-0.3-0.8-0.6c-0.2-0.3-0.4-0.6-0.5-1C271.3,201.9,271.3,201.4,271.3,200.9z M272.3,200.9c0,0.7,0.1,1.3,0.4,1.6
		c0.3,0.4,0.7,0.6,1.3,0.6c0.6,0,1.1-0.3,1.6-0.9v-2.9c-0.3-0.2-0.5-0.4-0.8-0.5s-0.5-0.2-0.8-0.2s-0.5,0.1-0.7,0.2
		s-0.4,0.3-0.6,0.5c-0.2,0.2-0.3,0.4-0.4,0.7S272.3,200.6,272.3,200.9z"/>
	<path d="M278.6,200.9c0-0.5,0.1-0.9,0.3-1.3c0.2-0.4,0.4-0.7,0.7-1c0.3-0.3,0.6-0.5,0.9-0.6c0.4-0.1,0.7-0.2,1.1-0.2
		c0.4,0,0.8,0.1,1.1,0.2c0.3,0.1,0.6,0.3,0.8,0.6c0.2,0.2,0.4,0.5,0.5,0.9c0.1,0.3,0.2,0.7,0.2,1.1c0,0.1,0,0.2,0,0.3
		c0,0.1,0,0.2,0,0.3h-4.6c0,0.3,0.1,0.6,0.2,0.8s0.3,0.5,0.5,0.6s0.4,0.3,0.7,0.4c0.3,0.1,0.6,0.1,0.9,0.1c0.3,0,0.7,0,0.9-0.1
		c0.3-0.1,0.6-0.2,0.8-0.4l0.3,0.6c-0.3,0.2-0.6,0.3-1,0.5c-0.4,0.1-0.8,0.2-1.3,0.2c-0.4,0-0.8-0.1-1.2-0.2s-0.7-0.3-1-0.6
		s-0.5-0.6-0.7-1C278.6,201.8,278.6,201.4,278.6,200.9z M283.3,200.5c0-0.6-0.2-1-0.5-1.3s-0.7-0.5-1.3-0.5c-0.2,0-0.5,0-0.7,0.1
		s-0.4,0.2-0.6,0.4c-0.2,0.2-0.3,0.3-0.4,0.6s-0.2,0.5-0.2,0.8H283.3z"/>
	<path d="M34.7,212.4h0.8l0.1,1.4h0c0.3-0.5,0.7-0.8,1.1-1.1s0.9-0.4,1.5-0.4c0.2,0,0.4,0,0.6,0.1c0.2,0,0.4,0.1,0.6,0.2l-0.2,0.9
		c-0.2-0.1-0.4-0.1-0.5-0.2c-0.1,0-0.3,0-0.6,0c-0.4,0-0.9,0.1-1.3,0.4c-0.4,0.3-0.8,0.7-1.1,1.3v3.4h-1V212.4z"/>
	<path d="M41,215.3c0-0.5,0.1-0.9,0.3-1.3c0.2-0.4,0.4-0.7,0.7-1s0.6-0.5,0.9-0.6c0.4-0.1,0.7-0.2,1.1-0.2c0.4,0,0.8,0.1,1.1,0.2
		c0.3,0.1,0.6,0.3,0.8,0.6s0.4,0.5,0.5,0.9c0.1,0.3,0.2,0.7,0.2,1.1c0,0.1,0,0.2,0,0.3c0,0.1,0,0.2,0,0.3H42c0,0.3,0.1,0.6,0.2,0.8
		c0.1,0.2,0.3,0.5,0.5,0.6c0.2,0.2,0.4,0.3,0.7,0.4c0.3,0.1,0.6,0.1,0.9,0.1c0.3,0,0.7,0,0.9-0.1c0.3-0.1,0.6-0.2,0.8-0.4l0.3,0.6
		c-0.3,0.2-0.6,0.3-1,0.5c-0.4,0.1-0.8,0.2-1.3,0.2c-0.4,0-0.8-0.1-1.2-0.2c-0.4-0.1-0.7-0.3-1-0.6c-0.3-0.3-0.5-0.6-0.7-1
		C41.1,216.2,41,215.8,41,215.3z M45.7,214.9c0-0.6-0.2-1-0.5-1.3c-0.3-0.3-0.7-0.5-1.3-0.5c-0.2,0-0.5,0-0.7,0.1
		c-0.2,0.1-0.4,0.2-0.6,0.4c-0.2,0.2-0.3,0.3-0.4,0.6c-0.1,0.2-0.2,0.5-0.2,0.8H45.7z"/>
	<path d="M48.3,216.7c0-0.3,0.1-0.6,0.2-0.9c0.2-0.2,0.4-0.5,0.7-0.6c0.3-0.2,0.8-0.3,1.3-0.4c0.5-0.1,1.2-0.2,1.9-0.3
		c0-0.2,0-0.4-0.1-0.6c-0.1-0.2-0.1-0.3-0.3-0.5c-0.1-0.1-0.3-0.2-0.5-0.3c-0.2-0.1-0.4-0.1-0.7-0.1c-0.4,0-0.8,0.1-1.1,0.2
		c-0.4,0.1-0.7,0.3-0.9,0.5l-0.4-0.7c0.1-0.1,0.3-0.2,0.5-0.3c0.2-0.1,0.4-0.2,0.6-0.3s0.5-0.1,0.7-0.2s0.5-0.1,0.8-0.1
		c0.8,0,1.4,0.2,1.8,0.7c0.4,0.4,0.6,1,0.6,1.7v3.6h-0.8l-0.1-0.8h0c-0.3,0.3-0.7,0.5-1.1,0.7s-0.8,0.3-1.2,0.3
		c-0.3,0-0.5,0-0.8-0.1c-0.2-0.1-0.5-0.2-0.6-0.3c-0.2-0.1-0.3-0.3-0.4-0.5S48.3,217,48.3,216.7z M49.3,216.7c0,0.2,0,0.3,0.1,0.4
		c0.1,0.1,0.2,0.2,0.3,0.3c0.1,0.1,0.3,0.1,0.4,0.2c0.2,0,0.3,0.1,0.5,0.1c0.3,0,0.7-0.1,1-0.2c0.3-0.1,0.7-0.4,1-0.6v-1.5
		c-0.6,0-1.1,0.1-1.6,0.2s-0.8,0.2-1,0.3c-0.3,0.1-0.4,0.3-0.5,0.4C49.3,216.3,49.3,216.5,49.3,216.7z"/>
	<path d="M55.5,209.7h3v6.7c0,0.4,0.1,0.7,0.3,0.9c0.2,0.2,0.5,0.3,0.8,0.3c0.3,0,0.7-0.1,1.1-0.3L61,218c-0.3,0.1-0.5,0.2-0.7,0.2
		c-0.2,0.1-0.5,0.1-0.8,0.1c-0.6,0-1.1-0.2-1.4-0.5c-0.3-0.4-0.5-0.9-0.5-1.6v-5.8h-2V209.7z"/>
	<path d="M62.8,213.9h5.2v0.7h-5.2V213.9z"/>
	<path d="M71.4,213.2h-1.6v-0.7l1.7-0.1l0.1-1.6h0.8v1.6h2.9v0.8h-2.9v2.8c0,0.3,0,0.5,0.1,0.7c0,0.2,0.1,0.4,0.2,0.5
		c0.1,0.1,0.3,0.2,0.5,0.3c0.2,0.1,0.4,0.1,0.7,0.1c0.3,0,0.5,0,0.8-0.1s0.4-0.1,0.6-0.2l0.2,0.7c-0.3,0.1-0.6,0.2-0.9,0.2
		c-0.3,0.1-0.6,0.1-1,0.1c-0.4,0-0.8-0.1-1.1-0.2c-0.3-0.1-0.5-0.3-0.7-0.5c-0.2-0.2-0.3-0.5-0.4-0.8c-0.1-0.3-0.1-0.6-0.1-1V213.2z
		"/>
	<path d="M77.2,212.4h3.7v5.8h-1v-5h-2.7V212.4z M80.3,211.2c-0.2,0-0.4-0.1-0.6-0.2s-0.2-0.3-0.2-0.6c0-0.2,0.1-0.4,0.2-0.6
		c0.1-0.1,0.3-0.2,0.6-0.2c0.2,0,0.4,0.1,0.6,0.2c0.2,0.1,0.2,0.3,0.2,0.6c0,0.2-0.1,0.4-0.2,0.6C80.7,211.1,80.5,211.2,80.3,211.2z
		"/>
	<path d="M84.1,212.4h0.8l0.1,0.8h0c0.1-0.3,0.3-0.5,0.5-0.7c0.2-0.2,0.5-0.3,0.8-0.3c0.6,0,1,0.3,1.1,1c0.2-0.3,0.4-0.5,0.6-0.7
		c0.2-0.2,0.5-0.3,0.8-0.3c0.4,0,0.7,0.2,0.9,0.5c0.2,0.3,0.3,0.8,0.3,1.3v4.2h-0.9v-4.1c0-0.7-0.2-1-0.6-1c-0.2,0-0.4,0.1-0.5,0.2
		s-0.3,0.4-0.5,0.7v4.2h-0.8v-4.1c0-0.7-0.2-1-0.7-1c-0.2,0-0.4,0.1-0.5,0.2s-0.3,0.4-0.4,0.7v4.2h-0.9V212.4z"/>
	<path d="M91.4,215.3c0-0.5,0.1-0.9,0.3-1.3c0.2-0.4,0.4-0.7,0.7-1s0.6-0.5,0.9-0.6c0.4-0.1,0.7-0.2,1.1-0.2c0.4,0,0.8,0.1,1.1,0.2
		c0.3,0.1,0.6,0.3,0.8,0.6s0.4,0.5,0.5,0.9c0.1,0.3,0.2,0.7,0.2,1.1c0,0.1,0,0.2,0,0.3c0,0.1,0,0.2,0,0.3h-4.6
		c0,0.3,0.1,0.6,0.2,0.8c0.1,0.2,0.3,0.5,0.5,0.6c0.2,0.2,0.4,0.3,0.7,0.4c0.3,0.1,0.6,0.1,0.9,0.1c0.3,0,0.7,0,0.9-0.1
		c0.3-0.1,0.6-0.2,0.8-0.4l0.3,0.6c-0.3,0.2-0.6,0.3-1,0.5c-0.4,0.1-0.8,0.2-1.3,0.2c-0.4,0-0.8-0.1-1.2-0.2c-0.4-0.1-0.7-0.3-1-0.6
		c-0.3-0.3-0.5-0.6-0.7-1C91.5,216.2,91.4,215.8,91.4,215.3z M96.1,214.9c0-0.6-0.2-1-0.5-1.3c-0.3-0.3-0.7-0.5-1.3-0.5
		c-0.2,0-0.5,0-0.7,0.1c-0.2,0.1-0.4,0.2-0.6,0.4c-0.2,0.2-0.3,0.3-0.4,0.6c-0.1,0.2-0.2,0.5-0.2,0.8H96.1z"/>
	<path d="M111.7,210.6c-0.2-0.1-0.5-0.2-0.7-0.2c-0.2,0-0.4-0.1-0.7-0.1c-0.5,0-0.9,0.1-1.1,0.4c-0.2,0.3-0.3,0.6-0.3,1.1v0.5h2.4
		v0.8h-2.4v5h-1v-5h-1.7v-0.7l1.7-0.1v-0.5c0-0.7,0.2-1.3,0.6-1.7c0.4-0.4,1-0.6,1.8-0.6c0.6,0,1.1,0.1,1.7,0.3L111.7,210.6z"/>
	<path d="M113.9,212.4h0.8l0.1,1.4h0c0.3-0.5,0.7-0.8,1.1-1.1s0.9-0.4,1.5-0.4c0.2,0,0.4,0,0.6,0.1c0.2,0,0.4,0.1,0.6,0.2l-0.2,0.9
		c-0.2-0.1-0.4-0.1-0.5-0.2c-0.1,0-0.3,0-0.6,0c-0.4,0-0.9,0.1-1.3,0.4c-0.4,0.3-0.8,0.7-1.1,1.3v3.4h-1V212.4z"/>
	<path d="M120.2,215.3c0-0.5,0.1-0.9,0.3-1.3c0.2-0.4,0.4-0.7,0.7-1s0.6-0.5,0.9-0.6c0.4-0.1,0.7-0.2,1.1-0.2c0.4,0,0.8,0.1,1.1,0.2
		c0.3,0.1,0.6,0.3,0.8,0.6s0.4,0.5,0.5,0.9c0.1,0.3,0.2,0.7,0.2,1.1c0,0.1,0,0.2,0,0.3c0,0.1,0,0.2,0,0.3h-4.6
		c0,0.3,0.1,0.6,0.2,0.8c0.1,0.2,0.3,0.5,0.5,0.6c0.2,0.2,0.4,0.3,0.7,0.4c0.3,0.1,0.6,0.1,0.9,0.1c0.3,0,0.7,0,0.9-0.1
		c0.3-0.1,0.6-0.2,0.8-0.4l0.3,0.6c-0.3,0.2-0.6,0.3-1,0.5c-0.4,0.1-0.8,0.2-1.3,0.2c-0.4,0-0.8-0.1-1.2-0.2c-0.4-0.1-0.7-0.3-1-0.6
		c-0.3-0.3-0.5-0.6-0.7-1C120.3,216.2,120.2,215.8,120.2,215.3z M124.9,214.9c0-0.6-0.2-1-0.5-1.3c-0.3-0.3-0.7-0.5-1.3-0.5
		c-0.2,0-0.5,0-0.7,0.1c-0.2,0.1-0.4,0.2-0.6,0.4c-0.2,0.2-0.3,0.3-0.4,0.6c-0.1,0.2-0.2,0.5-0.2,0.8H124.9z"/>
	<path d="M127.3,215.3c0-0.5,0.1-0.9,0.2-1.3c0.1-0.4,0.3-0.7,0.6-1c0.2-0.3,0.5-0.5,0.8-0.6c0.3-0.1,0.7-0.2,1-0.2
		c0.4,0,0.7,0.1,1,0.2c0.3,0.1,0.6,0.3,0.8,0.6h0l0.1-0.6h0.8v8.3h-1v-2.1l0-1.1c-0.3,0.2-0.5,0.5-0.9,0.6c-0.3,0.2-0.7,0.3-1,0.3
		c-0.4,0-0.7-0.1-1-0.2s-0.6-0.3-0.8-0.6c-0.2-0.3-0.4-0.6-0.5-1C127.3,216.3,127.3,215.8,127.3,215.3z M128.3,215.3
		c0,0.7,0.1,1.3,0.4,1.6c0.3,0.4,0.7,0.6,1.3,0.6c0.6,0,1.1-0.3,1.6-0.9v-2.9c-0.3-0.2-0.5-0.4-0.8-0.5s-0.5-0.2-0.8-0.2
		s-0.5,0.1-0.7,0.2c-0.2,0.1-0.4,0.3-0.6,0.5c-0.2,0.2-0.3,0.4-0.4,0.7C128.3,214.7,128.3,215,128.3,215.3z"/>
	<path d="M139.8,218.2H139l-0.1-1h0c-0.3,0.3-0.6,0.6-1,0.8c-0.3,0.2-0.8,0.3-1.2,0.3c-0.7,0-1.2-0.2-1.5-0.6
		c-0.3-0.4-0.5-1-0.5-1.8v-3.6h1v3.5c0,0.6,0.1,1,0.3,1.2c0.2,0.3,0.5,0.4,1,0.4c0.3,0,0.6-0.1,0.9-0.3s0.6-0.4,0.9-0.8v-4h1V218.2z
		"/>
	<path d="M141.8,215.3c0-0.5,0.1-0.9,0.3-1.3c0.2-0.4,0.4-0.7,0.7-1s0.6-0.5,0.9-0.6c0.4-0.1,0.7-0.2,1.1-0.2c0.4,0,0.8,0.1,1.1,0.2
		c0.3,0.1,0.6,0.3,0.8,0.6s0.4,0.5,0.5,0.9c0.1,0.3,0.2,0.7,0.2,1.1c0,0.1,0,0.2,0,0.3c0,0.1,0,0.2,0,0.3h-4.6
		c0,0.3,0.1,0.6,0.2,0.8c0.1,0.2,0.3,0.5,0.5,0.6c0.2,0.2,0.4,0.3,0.7,0.4c0.3,0.1,0.6,0.1,0.9,0.1c0.3,0,0.7,0,0.9-0.1
		c0.3-0.1,0.6-0.2,0.8-0.4l0.3,0.6c-0.3,0.2-0.6,0.3-1,0.5c-0.4,0.1-0.8,0.2-1.3,0.2c-0.4,0-0.8-0.1-1.2-0.2c-0.4-0.1-0.7-0.3-1-0.6
		c-0.3-0.3-0.5-0.6-0.7-1C141.9,216.2,141.8,215.8,141.8,215.3z M146.5,214.9c0-0.6-0.2-1-0.5-1.3c-0.3-0.3-0.7-0.5-1.3-0.5
		c-0.2,0-0.5,0-0.7,0.1c-0.2,0.1-0.4,0.2-0.6,0.4c-0.2,0.2-0.3,0.3-0.4,0.6c-0.1,0.2-0.2,0.5-0.2,0.8H146.5z"/>
	<path d="M149.3,212.4h0.8l0.1,1h0c0.3-0.3,0.6-0.6,1-0.8s0.8-0.3,1.2-0.3c0.7,0,1.2,0.2,1.5,0.6c0.3,0.4,0.5,1,0.5,1.8v3.6h-1v-3.5
		c0-0.6-0.1-1-0.3-1.2s-0.6-0.4-1-0.4c-0.2,0-0.3,0-0.5,0.1c-0.1,0-0.3,0.1-0.4,0.2c-0.1,0.1-0.3,0.2-0.4,0.3
		c-0.2,0.1-0.3,0.3-0.5,0.5v4.1h-1V212.4z"/>
	<path d="M156.3,215.3c0-0.5,0.1-0.9,0.3-1.3c0.2-0.4,0.4-0.7,0.7-1s0.6-0.5,1-0.6c0.4-0.1,0.8-0.2,1.3-0.2c0.5,0,0.9,0.1,1.2,0.3
		c0.3,0.2,0.6,0.4,0.9,0.6l-0.5,0.6c-0.2-0.2-0.5-0.4-0.8-0.5c-0.3-0.1-0.5-0.2-0.8-0.2c-0.3,0-0.6,0.1-0.9,0.2
		c-0.3,0.1-0.5,0.3-0.7,0.5c-0.2,0.2-0.4,0.4-0.5,0.7c-0.1,0.3-0.2,0.6-0.2,0.9s0.1,0.6,0.2,0.9s0.3,0.5,0.5,0.7
		c0.2,0.2,0.4,0.3,0.7,0.5c0.3,0.1,0.6,0.2,0.9,0.2c0.4,0,0.7-0.1,1-0.2c0.3-0.1,0.6-0.3,0.8-0.5l0.4,0.6c-0.3,0.3-0.7,0.5-1.1,0.7
		c-0.4,0.2-0.8,0.2-1.2,0.2c-0.5,0-0.9-0.1-1.3-0.2c-0.4-0.1-0.7-0.3-1-0.6s-0.5-0.6-0.7-1C156.4,216.2,156.3,215.8,156.3,215.3z"/>
	<path d="M163.8,219.9c0.1,0,0.2,0,0.3,0c0.4,0,0.7-0.1,1-0.4c0.3-0.2,0.5-0.5,0.6-0.9l0.2-0.4l-2.7-5.8h1l1.4,3.2
		c0.1,0.3,0.2,0.5,0.4,0.8c0.1,0.3,0.2,0.6,0.4,0.9h0c0.1-0.3,0.2-0.6,0.3-0.9c0.1-0.3,0.2-0.6,0.3-0.8l1.3-3.2h0.9l-2.6,6.3
		c-0.1,0.3-0.2,0.6-0.4,0.8s-0.3,0.5-0.5,0.6c-0.2,0.2-0.4,0.3-0.7,0.4c-0.3,0.1-0.6,0.2-0.9,0.2c-0.3,0-0.5,0-0.8-0.1l0.2-0.8
		C163.6,219.9,163.7,219.9,163.8,219.9z"/>
	<path d="M177.7,215.3c0-0.5,0.1-0.9,0.2-1.3c0.1-0.4,0.3-0.7,0.6-1s0.5-0.5,0.8-0.6c0.3-0.1,0.7-0.2,1-0.2c0.4,0,0.7,0.1,0.9,0.2
		c0.3,0.1,0.5,0.3,0.8,0.6l0-1.1v-2.2h1v8.5h-0.8l-0.1-0.8h0c-0.2,0.2-0.5,0.5-0.9,0.6s-0.7,0.3-1,0.3c-0.4,0-0.7-0.1-1-0.2
		c-0.3-0.1-0.6-0.3-0.8-0.6s-0.4-0.6-0.5-1C177.7,216.3,177.7,215.8,177.7,215.3z M178.7,215.3c0,0.7,0.2,1.3,0.5,1.6
		c0.3,0.4,0.7,0.6,1.3,0.6c0.6,0,1.1-0.3,1.6-0.9v-2.9c-0.3-0.2-0.5-0.4-0.8-0.5s-0.5-0.2-0.8-0.2s-0.5,0.1-0.7,0.2
		c-0.2,0.1-0.4,0.3-0.6,0.5c-0.2,0.2-0.3,0.4-0.4,0.7C178.7,214.7,178.7,215,178.7,215.3z"/>
	<path d="M185.1,216.7c0-0.3,0.1-0.6,0.2-0.9c0.2-0.2,0.4-0.5,0.7-0.6c0.3-0.2,0.8-0.3,1.3-0.4c0.5-0.1,1.2-0.2,1.9-0.3
		c0-0.2,0-0.4-0.1-0.6s-0.1-0.3-0.3-0.5c-0.1-0.1-0.3-0.2-0.5-0.3c-0.2-0.1-0.4-0.1-0.7-0.1c-0.4,0-0.8,0.1-1.1,0.2
		c-0.4,0.1-0.7,0.3-0.9,0.5l-0.4-0.7c0.1-0.1,0.3-0.2,0.5-0.3c0.2-0.1,0.4-0.2,0.6-0.3c0.2-0.1,0.5-0.1,0.7-0.2s0.5-0.1,0.8-0.1
		c0.8,0,1.4,0.2,1.8,0.7s0.6,1,0.6,1.7v3.6h-0.8l-0.1-0.8h0c-0.3,0.3-0.7,0.5-1.1,0.7c-0.4,0.2-0.8,0.3-1.2,0.3
		c-0.3,0-0.5,0-0.8-0.1s-0.5-0.2-0.6-0.3c-0.2-0.1-0.3-0.3-0.4-0.5C185.2,217.2,185.1,217,185.1,216.7z M186.1,216.7
		c0,0.2,0,0.3,0.1,0.4c0.1,0.1,0.2,0.2,0.3,0.3c0.1,0.1,0.3,0.1,0.4,0.2c0.2,0,0.3,0.1,0.5,0.1c0.3,0,0.7-0.1,1-0.2
		c0.3-0.1,0.7-0.4,1-0.6v-1.5c-0.6,0-1.1,0.1-1.6,0.2s-0.8,0.2-1,0.3c-0.3,0.1-0.4,0.3-0.5,0.4C186.1,216.3,186.1,216.5,186.1,216.7
		z"/>
	<path d="M193.8,213.2h-1.6v-0.7l1.7-0.1l0.1-1.6h0.8v1.6h2.9v0.8h-2.9v2.8c0,0.3,0,0.5,0.1,0.7s0.1,0.4,0.2,0.5
		c0.1,0.1,0.3,0.2,0.5,0.3c0.2,0.1,0.4,0.1,0.7,0.1c0.3,0,0.5,0,0.8-0.1c0.2,0,0.4-0.1,0.6-0.2l0.2,0.7c-0.3,0.1-0.6,0.2-0.9,0.2
		c-0.3,0.1-0.6,0.1-1,0.1c-0.4,0-0.8-0.1-1.1-0.2c-0.3-0.1-0.5-0.3-0.7-0.5c-0.2-0.2-0.3-0.5-0.4-0.8c-0.1-0.3-0.1-0.6-0.1-1V213.2z
		"/>
	<path d="M199.5,216.7c0-0.3,0.1-0.6,0.2-0.9c0.2-0.2,0.4-0.5,0.7-0.6c0.3-0.2,0.8-0.3,1.3-0.4c0.5-0.1,1.2-0.2,1.9-0.3
		c0-0.2,0-0.4-0.1-0.6s-0.1-0.3-0.3-0.5c-0.1-0.1-0.3-0.2-0.5-0.3c-0.2-0.1-0.4-0.1-0.7-0.1c-0.4,0-0.8,0.1-1.1,0.2
		c-0.4,0.1-0.7,0.3-0.9,0.5l-0.4-0.7c0.1-0.1,0.3-0.2,0.5-0.3c0.2-0.1,0.4-0.2,0.6-0.3c0.2-0.1,0.5-0.1,0.7-0.2s0.5-0.1,0.8-0.1
		c0.8,0,1.4,0.2,1.8,0.7s0.6,1,0.6,1.7v3.6h-0.8l-0.1-0.8h0c-0.3,0.3-0.7,0.5-1.1,0.7c-0.4,0.2-0.8,0.3-1.2,0.3
		c-0.3,0-0.5,0-0.8-0.1s-0.5-0.2-0.6-0.3c-0.2-0.1-0.3-0.3-0.4-0.5C199.6,217.2,199.5,217,199.5,216.7z M200.5,216.7
		c0,0.2,0,0.3,0.1,0.4c0.1,0.1,0.2,0.2,0.3,0.3c0.1,0.1,0.3,0.1,0.4,0.2c0.2,0,0.3,0.1,0.5,0.1c0.3,0,0.7-0.1,1-0.2
		c0.3-0.1,0.7-0.4,1-0.6v-1.5c-0.6,0-1.1,0.1-1.6,0.2s-0.8,0.2-1,0.3c-0.3,0.1-0.4,0.3-0.5,0.4C200.5,216.3,200.5,216.5,200.5,216.7
		z"/>
	<path d="M219.6,210.6c-0.2-0.1-0.5-0.2-0.7-0.2c-0.2,0-0.4-0.1-0.7-0.1c-0.5,0-0.9,0.1-1.1,0.4s-0.3,0.6-0.3,1.1v0.5h2.4v0.8h-2.4
		v5h-1v-5h-1.7v-0.7l1.7-0.1v-0.5c0-0.7,0.2-1.3,0.6-1.7s1-0.6,1.8-0.6c0.6,0,1.1,0.1,1.7,0.3L219.6,210.6z"/>
	<path d="M220.9,215.3c0-0.5,0.1-0.9,0.2-1.3c0.2-0.4,0.4-0.7,0.6-1c0.3-0.3,0.6-0.5,0.9-0.6c0.3-0.1,0.7-0.2,1.1-0.2
		c0.4,0,0.8,0.1,1.1,0.2c0.3,0.1,0.7,0.3,0.9,0.6s0.5,0.6,0.6,1c0.2,0.4,0.2,0.8,0.2,1.3c0,0.5-0.1,0.9-0.2,1.3
		c-0.2,0.4-0.4,0.7-0.6,1s-0.6,0.5-0.9,0.6s-0.7,0.2-1.1,0.2c-0.4,0-0.8-0.1-1.1-0.2c-0.3-0.1-0.7-0.3-0.9-0.6
		c-0.3-0.3-0.5-0.6-0.6-1C220.9,216.2,220.9,215.8,220.9,215.3z M221.9,215.3c0,0.3,0,0.6,0.1,0.9s0.2,0.5,0.4,0.7
		c0.2,0.2,0.4,0.3,0.6,0.5c0.2,0.1,0.5,0.2,0.8,0.2c0.3,0,0.5-0.1,0.8-0.2c0.2-0.1,0.4-0.3,0.6-0.5c0.2-0.2,0.3-0.4,0.4-0.7
		s0.1-0.6,0.1-0.9s0-0.6-0.1-0.9s-0.2-0.5-0.4-0.7c-0.2-0.2-0.4-0.4-0.6-0.5c-0.2-0.1-0.5-0.2-0.8-0.2c-0.3,0-0.5,0.1-0.8,0.2
		c-0.2,0.1-0.4,0.3-0.6,0.5c-0.2,0.2-0.3,0.4-0.4,0.7S221.9,215,221.9,215.3z"/>
	<path d="M229.1,212.4h0.8l0.1,1.4h0c0.3-0.5,0.7-0.8,1.1-1.1c0.4-0.3,0.9-0.4,1.5-0.4c0.2,0,0.4,0,0.6,0.1c0.2,0,0.4,0.1,0.6,0.2
		l-0.2,0.9c-0.2-0.1-0.4-0.1-0.5-0.2c-0.1,0-0.3,0-0.6,0c-0.4,0-0.9,0.1-1.3,0.4c-0.4,0.3-0.8,0.7-1.1,1.3v3.4h-1V212.4z"/>
	<path d="M242.7,216.7c0-0.3,0.1-0.6,0.2-0.9c0.2-0.2,0.4-0.5,0.7-0.6c0.3-0.2,0.8-0.3,1.3-0.4c0.5-0.1,1.2-0.2,1.9-0.3
		c0-0.2,0-0.4-0.1-0.6s-0.1-0.3-0.3-0.5c-0.1-0.1-0.3-0.2-0.5-0.3c-0.2-0.1-0.4-0.1-0.7-0.1c-0.4,0-0.8,0.1-1.1,0.2
		c-0.4,0.1-0.7,0.3-0.9,0.5l-0.4-0.7c0.1-0.1,0.3-0.2,0.5-0.3c0.2-0.1,0.4-0.2,0.6-0.3c0.2-0.1,0.5-0.1,0.7-0.2s0.5-0.1,0.8-0.1
		c0.8,0,1.4,0.2,1.8,0.7s0.6,1,0.6,1.7v3.6h-0.8l-0.1-0.8h0c-0.3,0.3-0.7,0.5-1.1,0.7c-0.4,0.2-0.8,0.3-1.2,0.3
		c-0.3,0-0.5,0-0.8-0.1s-0.5-0.2-0.6-0.3c-0.2-0.1-0.3-0.3-0.4-0.5C242.8,217.2,242.7,217,242.7,216.7z M243.7,216.7
		c0,0.2,0,0.3,0.1,0.4c0.1,0.1,0.2,0.2,0.3,0.3c0.1,0.1,0.3,0.1,0.4,0.2c0.2,0,0.3,0.1,0.5,0.1c0.3,0,0.7-0.1,1-0.2
		c0.3-0.1,0.7-0.4,1-0.6v-1.5c-0.6,0-1.1,0.1-1.6,0.2s-0.8,0.2-1,0.3c-0.3,0.1-0.4,0.3-0.5,0.4C243.7,216.3,243.7,216.5,243.7,216.7
		z"/>
	<path d="M250.1,212.4h0.8l0.1,1h0c0.3-0.3,0.6-0.6,1-0.8c0.4-0.2,0.8-0.3,1.2-0.3c0.7,0,1.2,0.2,1.5,0.6s0.5,1,0.5,1.8v3.6h-1v-3.5
		c0-0.6-0.1-1-0.3-1.2s-0.6-0.4-1-0.4c-0.2,0-0.3,0-0.5,0.1c-0.1,0-0.3,0.1-0.4,0.2c-0.1,0.1-0.3,0.2-0.4,0.3
		c-0.2,0.1-0.3,0.3-0.5,0.5v4.1h-1V212.4z"/>
	<path d="M257.1,216.7c0-0.3,0.1-0.6,0.2-0.9c0.2-0.2,0.4-0.5,0.7-0.6c0.3-0.2,0.8-0.3,1.3-0.4c0.5-0.1,1.2-0.2,1.9-0.3
		c0-0.2,0-0.4-0.1-0.6s-0.1-0.3-0.3-0.5c-0.1-0.1-0.3-0.2-0.5-0.3c-0.2-0.1-0.4-0.1-0.7-0.1c-0.4,0-0.8,0.1-1.1,0.2
		c-0.4,0.1-0.7,0.3-0.9,0.5l-0.4-0.7c0.1-0.1,0.3-0.2,0.5-0.3c0.2-0.1,0.4-0.2,0.6-0.3c0.2-0.1,0.5-0.1,0.7-0.2s0.5-0.1,0.8-0.1
		c0.8,0,1.4,0.2,1.8,0.7s0.6,1,0.6,1.7v3.6h-0.8l-0.1-0.8h0c-0.3,0.3-0.7,0.5-1.1,0.7c-0.4,0.2-0.8,0.3-1.2,0.3
		c-0.3,0-0.5,0-0.8-0.1s-0.5-0.2-0.6-0.3c-0.2-0.1-0.3-0.3-0.4-0.5C257.2,217.2,257.1,217,257.1,216.7z M258.1,216.7
		c0,0.2,0,0.3,0.1,0.4c0.1,0.1,0.2,0.2,0.3,0.3c0.1,0.1,0.3,0.1,0.4,0.2c0.2,0,0.3,0.1,0.5,0.1c0.3,0,0.7-0.1,1-0.2
		c0.3-0.1,0.7-0.4,1-0.6v-1.5c-0.6,0-1.1,0.1-1.6,0.2s-0.8,0.2-1,0.3c-0.3,0.1-0.4,0.3-0.5,0.4C258.1,216.3,258.1,216.5,258.1,216.7
		z"/>
	<path d="M264.3,209.7h3v6.7c0,0.4,0.1,0.7,0.3,0.9c0.2,0.2,0.5,0.3,0.8,0.3c0.3,0,0.7-0.1,1.1-0.3l0.3,0.7
		c-0.3,0.1-0.5,0.2-0.7,0.2c-0.2,0.1-0.5,0.1-0.8,0.1c-0.6,0-1.1-0.2-1.4-0.5s-0.5-0.9-0.5-1.6v-5.8h-2V209.7z"/>
	<path d="M271.8,219.9c0.1,0,0.2,0,0.3,0c0.4,0,0.7-0.1,1-0.4c0.3-0.2,0.5-0.5,0.6-0.9l0.2-0.4l-2.7-5.8h1l1.4,3.2
		c0.1,0.3,0.2,0.5,0.4,0.8c0.1,0.3,0.2,0.6,0.4,0.9h0c0.1-0.3,0.2-0.6,0.3-0.9c0.1-0.3,0.2-0.6,0.3-0.8l1.3-3.2h0.9l-2.6,6.3
		c-0.1,0.3-0.2,0.6-0.4,0.8c-0.1,0.2-0.3,0.5-0.5,0.6s-0.4,0.3-0.7,0.4c-0.3,0.1-0.6,0.2-0.9,0.2c-0.3,0-0.5,0-0.8-0.1l0.2-0.8
		C271.6,219.9,271.7,219.9,271.8,219.9z"/>
	<path d="M279.1,216.8c0.3,0.2,0.7,0.4,1.1,0.6c0.4,0.1,0.8,0.2,1.4,0.2c0.5,0,0.9-0.1,1.2-0.3c0.3-0.2,0.4-0.4,0.4-0.6
		c0-0.2-0.1-0.4-0.4-0.6s-0.8-0.4-1.5-0.5c-0.3-0.1-0.6-0.2-0.9-0.3c-0.3-0.1-0.5-0.2-0.7-0.4c-0.2-0.1-0.4-0.3-0.5-0.5
		s-0.2-0.4-0.2-0.6c0-0.2,0.1-0.4,0.2-0.7c0.1-0.2,0.3-0.4,0.5-0.5s0.5-0.3,0.8-0.3c0.3-0.1,0.7-0.1,1.1-0.1c0.4,0,0.9,0.1,1.3,0.2
		c0.4,0.1,0.8,0.3,1.1,0.5l-0.5,0.6c-0.3-0.2-0.5-0.3-0.9-0.4c-0.3-0.1-0.6-0.2-1-0.2c-0.3,0-0.5,0-0.7,0.1c-0.2,0-0.3,0.1-0.4,0.2
		c-0.1,0.1-0.2,0.2-0.2,0.3c0,0.1-0.1,0.2-0.1,0.3c0,0.2,0.2,0.4,0.5,0.6c0.3,0.2,0.8,0.3,1.3,0.4c0.8,0.2,1.4,0.4,1.8,0.7
		s0.6,0.6,0.6,1.1c0,0.2-0.1,0.5-0.2,0.7c-0.1,0.2-0.3,0.4-0.5,0.6c-0.2,0.2-0.5,0.3-0.8,0.4s-0.7,0.1-1.1,0.1
		c-0.6,0-1.1-0.1-1.6-0.3c-0.5-0.2-0.9-0.4-1.3-0.6L279.1,216.8z"/>
	<path d="M286,212.4h3.7v5.8h-1v-5H286V212.4z M289.1,211.2c-0.2,0-0.4-0.1-0.6-0.2c-0.1-0.1-0.2-0.3-0.2-0.6c0-0.2,0.1-0.4,0.2-0.6
		c0.1-0.1,0.3-0.2,0.6-0.2c0.2,0,0.4,0.1,0.6,0.2c0.2,0.1,0.2,0.3,0.2,0.6c0,0.2-0.1,0.4-0.2,0.6
		C289.5,211.1,289.3,211.2,289.1,211.2z"/>
	<path d="M293.5,216.8c0.3,0.2,0.7,0.4,1.1,0.6c0.4,0.1,0.8,0.2,1.4,0.2c0.5,0,0.9-0.1,1.2-0.3c0.3-0.2,0.4-0.4,0.4-0.6
		c0-0.2-0.1-0.4-0.4-0.6s-0.8-0.4-1.5-0.5c-0.3-0.1-0.6-0.2-0.9-0.3c-0.3-0.1-0.5-0.2-0.7-0.4c-0.2-0.1-0.4-0.3-0.5-0.5
		s-0.2-0.4-0.2-0.6c0-0.2,0.1-0.4,0.2-0.7c0.1-0.2,0.3-0.4,0.5-0.5s0.5-0.3,0.8-0.3c0.3-0.1,0.7-0.1,1.1-0.1c0.4,0,0.9,0.1,1.3,0.2
		c0.4,0.1,0.8,0.3,1.1,0.5l-0.5,0.6c-0.3-0.2-0.5-0.3-0.9-0.4c-0.3-0.1-0.6-0.2-1-0.2c-0.3,0-0.5,0-0.7,0.1c-0.2,0-0.3,0.1-0.4,0.2
		c-0.1,0.1-0.2,0.2-0.2,0.3c0,0.1-0.1,0.2-0.1,0.3c0,0.2,0.2,0.4,0.5,0.6c0.3,0.2,0.8,0.3,1.3,0.4c0.8,0.2,1.4,0.4,1.8,0.7
		s0.6,0.6,0.6,1.1c0,0.2-0.1,0.5-0.2,0.7c-0.1,0.2-0.3,0.4-0.5,0.6c-0.2,0.2-0.5,0.3-0.8,0.4s-0.7,0.1-1.1,0.1
		c-0.6,0-1.1-0.1-1.6-0.3c-0.5-0.2-0.9-0.4-1.3-0.6L293.5,216.8z"/>
	<path d="M33.9,231.1c0-0.3,0.1-0.6,0.2-0.9c0.2-0.2,0.4-0.5,0.7-0.6c0.3-0.2,0.8-0.3,1.3-0.4c0.5-0.1,1.2-0.2,1.9-0.3
		c0-0.2,0-0.4-0.1-0.6c-0.1-0.2-0.1-0.3-0.3-0.5c-0.1-0.1-0.3-0.2-0.5-0.3c-0.2-0.1-0.4-0.1-0.7-0.1c-0.4,0-0.8,0.1-1.1,0.2
		s-0.7,0.3-0.9,0.5l-0.4-0.7c0.1-0.1,0.3-0.2,0.5-0.3c0.2-0.1,0.4-0.2,0.6-0.3s0.5-0.1,0.7-0.2c0.2-0.1,0.5-0.1,0.8-0.1
		c0.8,0,1.4,0.2,1.8,0.7c0.4,0.4,0.6,1,0.6,1.7v3.6h-0.8l-0.1-0.8h0c-0.3,0.3-0.7,0.5-1.1,0.7c-0.4,0.2-0.8,0.3-1.2,0.3
		c-0.3,0-0.5,0-0.8-0.1c-0.2-0.1-0.5-0.2-0.6-0.3c-0.2-0.1-0.3-0.3-0.4-0.5C34,231.6,33.9,231.4,33.9,231.1z M34.9,231.1
		c0,0.2,0,0.3,0.1,0.4c0.1,0.1,0.2,0.2,0.3,0.3c0.1,0.1,0.3,0.1,0.4,0.2c0.2,0,0.3,0.1,0.5,0.1c0.3,0,0.7-0.1,1-0.2
		c0.3-0.1,0.7-0.4,1-0.6v-1.5c-0.6,0-1.1,0.1-1.6,0.2s-0.8,0.2-1,0.3c-0.3,0.1-0.4,0.3-0.5,0.4S34.9,230.9,34.9,231.1z"/>
	<path d="M41.3,226.8h0.8l0.1,1h0c0.3-0.3,0.6-0.6,1-0.8c0.4-0.2,0.8-0.3,1.2-0.3c0.7,0,1.2,0.2,1.5,0.6c0.3,0.4,0.5,1,0.5,1.8v3.6
		h-1v-3.5c0-0.6-0.1-1-0.3-1.2c-0.2-0.3-0.6-0.4-1-0.4c-0.2,0-0.3,0-0.5,0.1c-0.1,0-0.3,0.1-0.4,0.2s-0.3,0.2-0.4,0.3
		c-0.2,0.1-0.3,0.3-0.5,0.5v4.1h-1V226.8z"/>
	<path d="M48.1,229.7c0-0.5,0.1-0.9,0.2-1.3c0.1-0.4,0.3-0.7,0.6-1c0.2-0.3,0.5-0.5,0.8-0.6s0.7-0.2,1-0.2c0.4,0,0.7,0.1,0.9,0.2
		s0.5,0.3,0.8,0.6l0-1.1v-2.2h1v8.5h-0.8l-0.1-0.8h0c-0.2,0.2-0.5,0.5-0.9,0.6s-0.7,0.3-1,0.3c-0.4,0-0.7-0.1-1-0.2
		c-0.3-0.1-0.6-0.3-0.8-0.6c-0.2-0.3-0.4-0.6-0.5-1S48.1,230.2,48.1,229.7z M49.1,229.7c0,0.7,0.1,1.3,0.4,1.6
		c0.3,0.4,0.7,0.6,1.3,0.6c0.6,0,1.1-0.3,1.6-0.9v-2.9c-0.3-0.2-0.5-0.4-0.8-0.5c-0.3-0.1-0.5-0.2-0.8-0.2s-0.5,0.1-0.7,0.2
		c-0.2,0.1-0.4,0.3-0.6,0.5s-0.3,0.4-0.4,0.7C49.1,229.1,49.1,229.4,49.1,229.7z"/>
	<path d="M62.4,226.8h1l1.3,3.3c0.1,0.3,0.2,0.6,0.3,0.9c0.1,0.3,0.2,0.6,0.3,0.8h0c0.1-0.3,0.2-0.6,0.3-0.8
		c0.1-0.3,0.2-0.6,0.3-0.9l1.3-3.3h0.9l-2.4,5.8h-1.1L62.4,226.8z"/>
	<path d="M70,226.8h3.7v5.8h-1v-5H70V226.8z M73.1,225.6c-0.2,0-0.4-0.1-0.6-0.2c-0.1-0.1-0.2-0.3-0.2-0.6s0.1-0.4,0.2-0.6
		s0.3-0.2,0.6-0.2c0.2,0,0.4,0.1,0.6,0.2c0.2,0.1,0.2,0.3,0.2,0.6s-0.1,0.4-0.2,0.6C73.5,225.5,73.3,225.6,73.1,225.6z"/>
	<path d="M77.5,231.2c0.3,0.2,0.7,0.4,1.1,0.6s0.8,0.2,1.4,0.2c0.5,0,0.9-0.1,1.2-0.3c0.3-0.2,0.4-0.4,0.4-0.6
		c0-0.2-0.1-0.4-0.4-0.6c-0.3-0.2-0.8-0.4-1.5-0.5c-0.3-0.1-0.6-0.2-0.9-0.3s-0.5-0.2-0.7-0.4c-0.2-0.1-0.4-0.3-0.5-0.5
		s-0.2-0.4-0.2-0.6c0-0.2,0.1-0.4,0.2-0.7c0.1-0.2,0.3-0.4,0.5-0.5s0.5-0.3,0.8-0.3s0.7-0.1,1.1-0.1c0.4,0,0.9,0.1,1.3,0.2
		c0.4,0.1,0.8,0.3,1.1,0.5l-0.5,0.6c-0.3-0.2-0.5-0.3-0.9-0.4c-0.3-0.1-0.6-0.2-1-0.2c-0.3,0-0.5,0-0.7,0.1c-0.2,0-0.3,0.1-0.4,0.2
		c-0.1,0.1-0.2,0.2-0.2,0.3c0,0.1-0.1,0.2-0.1,0.3c0,0.2,0.2,0.4,0.5,0.6c0.3,0.2,0.8,0.3,1.3,0.4c0.8,0.2,1.4,0.4,1.8,0.7
		c0.4,0.3,0.6,0.6,0.6,1.1c0,0.2-0.1,0.5-0.2,0.7c-0.1,0.2-0.3,0.4-0.5,0.6c-0.2,0.2-0.5,0.3-0.8,0.4c-0.3,0.1-0.7,0.1-1.1,0.1
		c-0.6,0-1.1-0.1-1.6-0.3s-0.9-0.4-1.3-0.6L77.5,231.2z"/>
	<path d="M89.4,232.6h-0.8l-0.1-1h0c-0.3,0.3-0.6,0.6-1,0.8c-0.3,0.2-0.8,0.3-1.2,0.3c-0.7,0-1.2-0.2-1.5-0.6
		c-0.3-0.4-0.5-1-0.5-1.8v-3.6h1v3.5c0,0.6,0.1,1,0.3,1.2s0.5,0.4,1,0.4c0.3,0,0.6-0.1,0.9-0.3s0.6-0.4,0.9-0.8v-4h1V232.6z"/>
	<path d="M91.5,231.1c0-0.3,0.1-0.6,0.2-0.9c0.2-0.2,0.4-0.5,0.7-0.6c0.3-0.2,0.8-0.3,1.3-0.4c0.5-0.1,1.2-0.2,1.9-0.3
		c0-0.2,0-0.4-0.1-0.6c-0.1-0.2-0.1-0.3-0.3-0.5c-0.1-0.1-0.3-0.2-0.5-0.3c-0.2-0.1-0.4-0.1-0.7-0.1c-0.4,0-0.8,0.1-1.1,0.2
		s-0.7,0.3-0.9,0.5l-0.4-0.7c0.1-0.1,0.3-0.2,0.5-0.3c0.2-0.1,0.4-0.2,0.6-0.3s0.5-0.1,0.7-0.2c0.2-0.1,0.5-0.1,0.8-0.1
		c0.8,0,1.4,0.2,1.8,0.7c0.4,0.4,0.6,1,0.6,1.7v3.6h-0.8l-0.1-0.8h0c-0.3,0.3-0.7,0.5-1.1,0.7c-0.4,0.2-0.8,0.3-1.2,0.3
		c-0.3,0-0.5,0-0.8-0.1c-0.2-0.1-0.5-0.2-0.6-0.3c-0.2-0.1-0.3-0.3-0.4-0.5C91.6,231.6,91.5,231.4,91.5,231.1z M92.5,231.1
		c0,0.2,0,0.3,0.1,0.4c0.1,0.1,0.2,0.2,0.3,0.3c0.1,0.1,0.3,0.1,0.4,0.2c0.2,0,0.3,0.1,0.5,0.1c0.3,0,0.7-0.1,1-0.2
		c0.3-0.1,0.7-0.4,1-0.6v-1.5c-0.6,0-1.1,0.1-1.6,0.2s-0.8,0.2-1,0.3c-0.3,0.1-0.4,0.3-0.5,0.4S92.5,230.9,92.5,231.1z"/>
	<path d="M98.7,224.1h3v6.7c0,0.4,0.1,0.7,0.3,0.9s0.5,0.3,0.8,0.3c0.3,0,0.7-0.1,1.1-0.3l0.3,0.7c-0.3,0.1-0.5,0.2-0.7,0.2
		c-0.2,0.1-0.5,0.1-0.8,0.1c-0.6,0-1.1-0.2-1.4-0.5c-0.3-0.4-0.5-0.9-0.5-1.6v-5.8h-2V224.1z"/>
	<path d="M106,226.8h3.7v5.8h-1v-5H106V226.8z M109.1,225.6c-0.2,0-0.4-0.1-0.6-0.2c-0.1-0.1-0.2-0.3-0.2-0.6s0.1-0.4,0.2-0.6
		s0.3-0.2,0.6-0.2c0.2,0,0.4,0.1,0.6,0.2c0.2,0.1,0.2,0.3,0.2,0.6s-0.1,0.4-0.2,0.6C109.5,225.5,109.3,225.6,109.1,225.6z"/>
	<path d="M113,232.1l4-4.5h-3.6v-0.8h5v0.5l-4,4.5h4.1v0.8H113V232.1z"/>
	<path d="M120.3,231.1c0-0.3,0.1-0.6,0.2-0.9c0.2-0.2,0.4-0.5,0.7-0.6c0.3-0.2,0.8-0.3,1.3-0.4c0.5-0.1,1.2-0.2,1.9-0.3
		c0-0.2,0-0.4-0.1-0.6c-0.1-0.2-0.1-0.3-0.3-0.5c-0.1-0.1-0.3-0.2-0.5-0.3c-0.2-0.1-0.4-0.1-0.7-0.1c-0.4,0-0.8,0.1-1.1,0.2
		s-0.7,0.3-0.9,0.5l-0.4-0.7c0.1-0.1,0.3-0.2,0.5-0.3c0.2-0.1,0.4-0.2,0.6-0.3s0.5-0.1,0.7-0.2c0.2-0.1,0.5-0.1,0.8-0.1
		c0.8,0,1.4,0.2,1.8,0.7c0.4,0.4,0.6,1,0.6,1.7v3.6h-0.8l-0.1-0.8h0c-0.3,0.3-0.7,0.5-1.1,0.7c-0.4,0.2-0.8,0.3-1.2,0.3
		c-0.3,0-0.5,0-0.8-0.1c-0.2-0.1-0.5-0.2-0.6-0.3c-0.2-0.1-0.3-0.3-0.4-0.5C120.4,231.6,120.3,231.4,120.3,231.1z M121.3,231.1
		c0,0.2,0,0.3,0.1,0.4c0.1,0.1,0.2,0.2,0.3,0.3c0.1,0.1,0.3,0.1,0.4,0.2c0.2,0,0.3,0.1,0.5,0.1c0.3,0,0.7-0.1,1-0.2
		c0.3-0.1,0.7-0.4,1-0.6v-1.5c-0.6,0-1.1,0.1-1.6,0.2s-0.8,0.2-1,0.3c-0.3,0.1-0.4,0.3-0.5,0.4S121.3,230.9,121.3,231.1z"/>
	<path d="M129,227.6h-1.6v-0.7l1.7-0.1l0.1-1.6h0.8v1.6h2.9v0.8H130v2.8c0,0.3,0,0.5,0.1,0.7c0,0.2,0.1,0.4,0.2,0.5
		c0.1,0.1,0.3,0.2,0.5,0.3s0.4,0.1,0.7,0.1c0.3,0,0.5,0,0.8-0.1c0.2,0,0.4-0.1,0.6-0.2l0.2,0.7c-0.3,0.1-0.6,0.2-0.9,0.2
		c-0.3,0.1-0.6,0.1-1,0.1c-0.4,0-0.8-0.1-1.1-0.2s-0.5-0.3-0.7-0.5c-0.2-0.2-0.3-0.5-0.4-0.8c-0.1-0.3-0.1-0.6-0.1-1V227.6z"/>
	<path d="M134.8,226.8h3.7v5.8h-1v-5h-2.7V226.8z M137.9,225.6c-0.2,0-0.4-0.1-0.6-0.2c-0.1-0.1-0.2-0.3-0.2-0.6s0.1-0.4,0.2-0.6
		s0.3-0.2,0.6-0.2c0.2,0,0.4,0.1,0.6,0.2c0.2,0.1,0.2,0.3,0.2,0.6s-0.1,0.4-0.2,0.6C138.3,225.5,138.1,225.6,137.9,225.6z"/>
	<path d="M141.7,229.7c0-0.5,0.1-0.9,0.2-1.3c0.2-0.4,0.4-0.7,0.6-1s0.6-0.5,0.9-0.6s0.7-0.2,1.1-0.2c0.4,0,0.8,0.1,1.1,0.2
		c0.3,0.1,0.7,0.3,0.9,0.6c0.3,0.3,0.5,0.6,0.6,1c0.2,0.4,0.2,0.8,0.2,1.3c0,0.5-0.1,0.9-0.2,1.3c-0.2,0.4-0.4,0.7-0.6,1
		c-0.3,0.3-0.6,0.5-0.9,0.6c-0.3,0.1-0.7,0.2-1.1,0.2c-0.4,0-0.8-0.1-1.1-0.2c-0.3-0.1-0.7-0.3-0.9-0.6c-0.3-0.3-0.5-0.6-0.6-1
		C141.7,230.6,141.7,230.2,141.7,229.7z M142.7,229.7c0,0.3,0,0.6,0.1,0.9c0.1,0.3,0.2,0.5,0.4,0.7c0.2,0.2,0.4,0.3,0.6,0.5
		c0.2,0.1,0.5,0.2,0.8,0.2c0.3,0,0.5-0.1,0.8-0.2c0.2-0.1,0.4-0.3,0.6-0.5c0.2-0.2,0.3-0.4,0.4-0.7c0.1-0.3,0.1-0.6,0.1-0.9
		s0-0.6-0.1-0.9c-0.1-0.3-0.2-0.5-0.4-0.7c-0.2-0.2-0.4-0.4-0.6-0.5c-0.2-0.1-0.5-0.2-0.8-0.2c-0.3,0-0.5,0.1-0.8,0.2
		c-0.2,0.1-0.4,0.3-0.6,0.5c-0.2,0.2-0.3,0.4-0.4,0.7C142.7,229.1,142.7,229.4,142.7,229.7z"/>
	<path d="M149.3,226.8h0.8l0.1,1h0c0.3-0.3,0.6-0.6,1-0.8c0.4-0.2,0.8-0.3,1.2-0.3c0.7,0,1.2,0.2,1.5,0.6c0.3,0.4,0.5,1,0.5,1.8v3.6
		h-1v-3.5c0-0.6-0.1-1-0.3-1.2c-0.2-0.3-0.6-0.4-1-0.4c-0.2,0-0.3,0-0.5,0.1c-0.1,0-0.3,0.1-0.4,0.2s-0.3,0.2-0.4,0.3
		c-0.2,0.1-0.3,0.3-0.5,0.5v4.1h-1V226.8z"/>
	<path d="M158,231.8c0-0.3,0.1-0.6,0.3-0.7c0.2-0.2,0.4-0.3,0.7-0.3s0.5,0.1,0.7,0.3s0.3,0.4,0.3,0.7s-0.1,0.5-0.3,0.7
		c-0.2,0.2-0.4,0.3-0.7,0.3s-0.5-0.1-0.7-0.3C158.1,232.3,158,232.1,158,231.8z"/>
	<path d="M170.7,224.8h1v4.9c0,0.4,0,0.8,0.1,1c0.1,0.3,0.2,0.5,0.3,0.7c0.1,0.2,0.3,0.3,0.5,0.4c0.2,0.1,0.4,0.1,0.7,0.1
		c0.2,0,0.5,0,0.7-0.1s0.4-0.2,0.5-0.4c0.2-0.2,0.3-0.4,0.4-0.7c0.1-0.3,0.1-0.6,0.1-1v-4.9h1v4.9c0,0.6-0.1,1-0.2,1.4
		s-0.3,0.7-0.5,1c-0.2,0.3-0.5,0.4-0.8,0.5s-0.7,0.2-1.1,0.2c-0.4,0-0.7-0.1-1.1-0.2s-0.6-0.3-0.8-0.5c-0.2-0.3-0.4-0.6-0.6-1
		s-0.2-0.9-0.2-1.4V224.8z"/>
	<path d="M178.3,231.2c0.3,0.2,0.7,0.4,1.1,0.6s0.8,0.2,1.4,0.2c0.5,0,0.9-0.1,1.2-0.3c0.3-0.2,0.4-0.4,0.4-0.6
		c0-0.2-0.1-0.4-0.4-0.6s-0.8-0.4-1.5-0.5c-0.3-0.1-0.6-0.2-0.9-0.3c-0.3-0.1-0.5-0.2-0.7-0.4c-0.2-0.1-0.4-0.3-0.5-0.5
		s-0.2-0.4-0.2-0.6c0-0.2,0.1-0.4,0.2-0.7c0.1-0.2,0.3-0.4,0.5-0.5s0.5-0.3,0.8-0.3c0.3-0.1,0.7-0.1,1.1-0.1c0.4,0,0.9,0.1,1.3,0.2
		c0.4,0.1,0.8,0.3,1.1,0.5l-0.5,0.6c-0.3-0.2-0.5-0.3-0.9-0.4c-0.3-0.1-0.6-0.2-1-0.2c-0.3,0-0.5,0-0.7,0.1c-0.2,0-0.3,0.1-0.4,0.2
		c-0.1,0.1-0.2,0.2-0.2,0.3s-0.1,0.2-0.1,0.3c0,0.2,0.2,0.4,0.5,0.6s0.8,0.3,1.3,0.4c0.8,0.2,1.4,0.4,1.8,0.7
		c0.4,0.3,0.6,0.6,0.6,1.1c0,0.2-0.1,0.5-0.2,0.7c-0.1,0.2-0.3,0.4-0.5,0.6c-0.2,0.2-0.5,0.3-0.8,0.4s-0.7,0.1-1.1,0.1
		c-0.6,0-1.1-0.1-1.6-0.3c-0.5-0.2-0.9-0.4-1.3-0.6L178.3,231.2z"/>
	<path d="M185,229.7c0-0.5,0.1-0.9,0.3-1.3s0.4-0.7,0.7-1c0.3-0.3,0.6-0.5,0.9-0.6c0.4-0.1,0.7-0.2,1.1-0.2c0.4,0,0.8,0.1,1.1,0.2
		c0.3,0.1,0.6,0.3,0.8,0.6c0.2,0.2,0.4,0.5,0.5,0.9s0.2,0.7,0.2,1.1c0,0.1,0,0.2,0,0.3s0,0.2,0,0.3H186c0,0.3,0.1,0.6,0.2,0.8
		c0.1,0.2,0.3,0.5,0.5,0.6c0.2,0.2,0.4,0.3,0.7,0.4c0.3,0.1,0.6,0.1,0.9,0.1c0.3,0,0.7,0,0.9-0.1s0.6-0.2,0.8-0.4l0.3,0.6
		c-0.3,0.2-0.6,0.3-1,0.5c-0.4,0.1-0.8,0.2-1.3,0.2c-0.4,0-0.8-0.1-1.2-0.2c-0.4-0.1-0.7-0.3-1-0.6c-0.3-0.3-0.5-0.6-0.7-1
		C185.1,230.6,185,230.2,185,229.7z M189.7,229.3c0-0.6-0.2-1-0.5-1.3c-0.3-0.3-0.7-0.5-1.3-0.5c-0.2,0-0.5,0-0.7,0.1
		c-0.2,0.1-0.4,0.2-0.6,0.4c-0.2,0.2-0.3,0.3-0.4,0.6c-0.1,0.2-0.2,0.5-0.2,0.8H189.7z"/>
	<path d="M192.7,231.2c0.3,0.2,0.7,0.4,1.1,0.6s0.8,0.2,1.4,0.2c0.5,0,0.9-0.1,1.2-0.3c0.3-0.2,0.4-0.4,0.4-0.6
		c0-0.2-0.1-0.4-0.4-0.6s-0.8-0.4-1.5-0.5c-0.3-0.1-0.6-0.2-0.9-0.3c-0.3-0.1-0.5-0.2-0.7-0.4c-0.2-0.1-0.4-0.3-0.5-0.5
		s-0.2-0.4-0.2-0.6c0-0.2,0.1-0.4,0.2-0.7c0.1-0.2,0.3-0.4,0.5-0.5s0.5-0.3,0.8-0.3c0.3-0.1,0.7-0.1,1.1-0.1c0.4,0,0.9,0.1,1.3,0.2
		c0.4,0.1,0.8,0.3,1.1,0.5l-0.5,0.6c-0.3-0.2-0.5-0.3-0.9-0.4c-0.3-0.1-0.6-0.2-1-0.2c-0.3,0-0.5,0-0.7,0.1c-0.2,0-0.3,0.1-0.4,0.2
		c-0.1,0.1-0.2,0.2-0.2,0.3s-0.1,0.2-0.1,0.3c0,0.2,0.2,0.4,0.5,0.6s0.8,0.3,1.3,0.4c0.8,0.2,1.4,0.4,1.8,0.7
		c0.4,0.3,0.6,0.6,0.6,1.1c0,0.2-0.1,0.5-0.2,0.7c-0.1,0.2-0.3,0.4-0.5,0.6c-0.2,0.2-0.5,0.3-0.8,0.4s-0.7,0.1-1.1,0.1
		c-0.6,0-1.1-0.1-1.6-0.3c-0.5-0.2-0.9-0.4-1.3-0.6L192.7,231.2z"/>
	<path d="M206.7,231.1c0-0.3,0.1-0.6,0.2-0.9s0.4-0.5,0.7-0.6s0.8-0.3,1.3-0.4c0.5-0.1,1.2-0.2,1.9-0.3c0-0.2,0-0.4-0.1-0.6
		c-0.1-0.2-0.1-0.3-0.3-0.5c-0.1-0.1-0.3-0.2-0.5-0.3s-0.4-0.1-0.7-0.1c-0.4,0-0.8,0.1-1.1,0.2c-0.4,0.1-0.7,0.3-0.9,0.5l-0.4-0.7
		c0.1-0.1,0.3-0.2,0.5-0.3s0.4-0.2,0.6-0.3c0.2-0.1,0.5-0.1,0.7-0.2c0.2-0.1,0.5-0.1,0.8-0.1c0.8,0,1.4,0.2,1.8,0.7
		c0.4,0.4,0.6,1,0.6,1.7v3.6h-0.8l-0.1-0.8h0c-0.3,0.3-0.7,0.5-1.1,0.7c-0.4,0.2-0.8,0.3-1.2,0.3c-0.3,0-0.5,0-0.8-0.1
		c-0.2-0.1-0.5-0.2-0.6-0.3c-0.2-0.1-0.3-0.3-0.4-0.5C206.8,231.6,206.7,231.4,206.7,231.1z M207.7,231.1c0,0.2,0,0.3,0.1,0.4
		c0.1,0.1,0.2,0.2,0.3,0.3s0.3,0.1,0.4,0.2c0.2,0,0.3,0.1,0.5,0.1c0.3,0,0.7-0.1,1-0.2s0.7-0.4,1-0.6v-1.5c-0.6,0-1.1,0.1-1.6,0.2
		s-0.8,0.2-1,0.3c-0.3,0.1-0.4,0.3-0.5,0.4C207.7,230.7,207.7,230.9,207.7,231.1z"/>
	<path d="M220.9,226.8h0.8l0.1,0.8h0c0.1-0.3,0.3-0.5,0.5-0.7s0.5-0.3,0.8-0.3c0.6,0,1,0.3,1.1,1c0.2-0.3,0.4-0.5,0.6-0.7
		c0.2-0.2,0.5-0.3,0.8-0.3c0.4,0,0.7,0.2,0.9,0.5c0.2,0.3,0.3,0.8,0.3,1.3v4.2h-0.9v-4.1c0-0.7-0.2-1-0.6-1c-0.2,0-0.4,0.1-0.5,0.2
		c-0.2,0.1-0.3,0.4-0.5,0.7v4.2h-0.8v-4.1c0-0.7-0.2-1-0.7-1c-0.2,0-0.4,0.1-0.5,0.2c-0.1,0.1-0.3,0.4-0.4,0.7v4.2h-0.9V226.8z"/>
	<path d="M228.3,231.1c0-0.3,0.1-0.6,0.2-0.9c0.2-0.2,0.4-0.5,0.7-0.6c0.3-0.2,0.8-0.3,1.3-0.4s1.2-0.2,1.9-0.3c0-0.2,0-0.4-0.1-0.6
		s-0.1-0.3-0.3-0.5c-0.1-0.1-0.3-0.2-0.5-0.3c-0.2-0.1-0.4-0.1-0.7-0.1c-0.4,0-0.8,0.1-1.1,0.2c-0.4,0.1-0.7,0.3-0.9,0.5l-0.4-0.7
		c0.1-0.1,0.3-0.2,0.5-0.3c0.2-0.1,0.4-0.2,0.6-0.3c0.2-0.1,0.5-0.1,0.7-0.2c0.2-0.1,0.5-0.1,0.8-0.1c0.8,0,1.4,0.2,1.8,0.7
		c0.4,0.4,0.6,1,0.6,1.7v3.6h-0.8l-0.1-0.8h0c-0.3,0.3-0.7,0.5-1.1,0.7c-0.4,0.2-0.8,0.3-1.2,0.3c-0.3,0-0.5,0-0.8-0.1
		c-0.2-0.1-0.5-0.2-0.6-0.3c-0.2-0.1-0.3-0.3-0.4-0.5C228.4,231.6,228.3,231.4,228.3,231.1z M229.3,231.1c0,0.2,0,0.3,0.1,0.4
		c0.1,0.1,0.2,0.2,0.3,0.3c0.1,0.1,0.3,0.1,0.4,0.2c0.2,0,0.3,0.1,0.5,0.1c0.3,0,0.7-0.1,1-0.2c0.3-0.1,0.7-0.4,1-0.6v-1.5
		c-0.6,0-1.1,0.1-1.6,0.2s-0.8,0.2-1,0.3c-0.3,0.1-0.4,0.3-0.5,0.4C229.3,230.7,229.3,230.9,229.3,231.1z"/>
	<path d="M237,227.6h-1.6v-0.7l1.7-0.1l0.1-1.6h0.8v1.6h2.9v0.8H238v2.8c0,0.3,0,0.5,0.1,0.7c0,0.2,0.1,0.4,0.2,0.5
		c0.1,0.1,0.3,0.2,0.5,0.3c0.2,0.1,0.4,0.1,0.7,0.1c0.3,0,0.5,0,0.8-0.1c0.2,0,0.4-0.1,0.6-0.2l0.2,0.7c-0.3,0.1-0.6,0.2-0.9,0.2
		c-0.3,0.1-0.6,0.1-1,0.1c-0.4,0-0.8-0.1-1.1-0.2s-0.5-0.3-0.7-0.5c-0.2-0.2-0.3-0.5-0.4-0.8c-0.1-0.3-0.1-0.6-0.1-1V227.6z"/>
	<path d="M242.9,224.1h1v2.3l0,1.4c0.3-0.3,0.6-0.6,1-0.8c0.4-0.2,0.8-0.3,1.2-0.3c0.7,0,1.2,0.2,1.5,0.6c0.3,0.4,0.5,1,0.5,1.8v3.6
		h-1v-3.5c0-0.6-0.1-1-0.3-1.2c-0.2-0.3-0.6-0.4-1-0.4c-0.2,0-0.3,0-0.5,0.1c-0.1,0-0.3,0.1-0.4,0.2c-0.1,0.1-0.3,0.2-0.4,0.3
		c-0.2,0.1-0.3,0.3-0.5,0.5v4.1h-1V224.1z"/>
	<path d="M249.8,229.7c0-0.5,0.1-0.9,0.3-1.3s0.4-0.7,0.7-1c0.3-0.3,0.6-0.5,0.9-0.6c0.4-0.1,0.7-0.2,1.1-0.2c0.4,0,0.8,0.1,1.1,0.2
		c0.3,0.1,0.6,0.3,0.8,0.6c0.2,0.2,0.4,0.5,0.5,0.9c0.1,0.3,0.2,0.7,0.2,1.1c0,0.1,0,0.2,0,0.3s0,0.2,0,0.3h-4.6
		c0,0.3,0.1,0.6,0.2,0.8s0.3,0.5,0.5,0.6s0.4,0.3,0.7,0.4c0.3,0.1,0.6,0.1,0.9,0.1c0.3,0,0.7,0,0.9-0.1c0.3-0.1,0.6-0.2,0.8-0.4
		l0.3,0.6c-0.3,0.2-0.6,0.3-1,0.5c-0.4,0.1-0.8,0.2-1.3,0.2c-0.4,0-0.8-0.1-1.2-0.2c-0.4-0.1-0.7-0.3-1-0.6s-0.5-0.6-0.7-1
		C249.9,230.6,249.8,230.2,249.8,229.7z M254.5,229.3c0-0.6-0.2-1-0.5-1.3c-0.3-0.3-0.7-0.5-1.3-0.5c-0.2,0-0.5,0-0.7,0.1
		s-0.4,0.2-0.6,0.4c-0.2,0.2-0.3,0.3-0.4,0.6c-0.1,0.2-0.2,0.5-0.2,0.8H254.5z"/>
	<path d="M256.9,226.8h0.8l0.1,0.8h0c0.1-0.3,0.3-0.5,0.5-0.7c0.2-0.2,0.5-0.3,0.8-0.3c0.6,0,1,0.3,1.1,1c0.2-0.3,0.4-0.5,0.6-0.7
		s0.5-0.3,0.8-0.3c0.4,0,0.7,0.2,0.9,0.5s0.3,0.8,0.3,1.3v4.2h-0.9v-4.1c0-0.7-0.2-1-0.6-1c-0.2,0-0.4,0.1-0.5,0.2
		c-0.2,0.1-0.3,0.4-0.5,0.7v4.2h-0.8v-4.1c0-0.7-0.2-1-0.7-1c-0.2,0-0.4,0.1-0.5,0.2c-0.1,0.1-0.3,0.4-0.4,0.7v4.2h-0.9V226.8z"/>
	<path d="M264.3,231.1c0-0.3,0.1-0.6,0.2-0.9s0.4-0.5,0.7-0.6s0.8-0.3,1.3-0.4c0.5-0.1,1.2-0.2,1.9-0.3c0-0.2,0-0.4-0.1-0.6
		c-0.1-0.2-0.1-0.3-0.3-0.5c-0.1-0.1-0.3-0.2-0.5-0.3s-0.4-0.1-0.7-0.1c-0.4,0-0.8,0.1-1.1,0.2c-0.4,0.1-0.7,0.3-0.9,0.5l-0.4-0.7
		c0.1-0.1,0.3-0.2,0.5-0.3s0.4-0.2,0.6-0.3c0.2-0.1,0.5-0.1,0.7-0.2c0.2-0.1,0.5-0.1,0.8-0.1c0.8,0,1.4,0.2,1.8,0.7
		c0.4,0.4,0.6,1,0.6,1.7v3.6h-0.8l-0.1-0.8h0c-0.3,0.3-0.7,0.5-1.1,0.7c-0.4,0.2-0.8,0.3-1.2,0.3c-0.3,0-0.5,0-0.8-0.1
		c-0.2-0.1-0.5-0.2-0.6-0.3c-0.2-0.1-0.3-0.3-0.4-0.5C264.4,231.6,264.3,231.4,264.3,231.1z M265.3,231.1c0,0.2,0,0.3,0.1,0.4
		c0.1,0.1,0.2,0.2,0.3,0.3s0.3,0.1,0.4,0.2c0.2,0,0.3,0.1,0.5,0.1c0.3,0,0.7-0.1,1-0.2s0.7-0.4,1-0.6v-1.5c-0.6,0-1.1,0.1-1.6,0.2
		s-0.8,0.2-1,0.3c-0.3,0.1-0.4,0.3-0.5,0.4C265.3,230.7,265.3,230.9,265.3,231.1z"/>
	<path d="M273,227.6h-1.6v-0.7l1.7-0.1l0.1-1.6h0.8v1.6h2.9v0.8H274v2.8c0,0.3,0,0.5,0.1,0.7c0,0.2,0.1,0.4,0.2,0.5
		c0.1,0.1,0.3,0.2,0.5,0.3c0.2,0.1,0.4,0.1,0.7,0.1s0.5,0,0.8-0.1c0.2,0,0.4-0.1,0.6-0.2l0.2,0.7c-0.3,0.1-0.6,0.2-0.9,0.2
		s-0.6,0.1-1,0.1c-0.4,0-0.8-0.1-1.1-0.2s-0.5-0.3-0.7-0.5c-0.2-0.2-0.3-0.5-0.4-0.8c-0.1-0.3-0.1-0.6-0.1-1V227.6z"/>
	<path d="M278.8,226.8h3.7v5.8h-1v-5h-2.7V226.8z M281.9,225.6c-0.2,0-0.4-0.1-0.6-0.2c-0.1-0.1-0.2-0.3-0.2-0.6s0.1-0.4,0.2-0.6
		c0.1-0.1,0.3-0.2,0.6-0.2c0.2,0,0.4,0.1,0.6,0.2s0.2,0.3,0.2,0.6s-0.1,0.4-0.2,0.6C282.3,225.5,282.1,225.6,281.9,225.6z"/>
	<path d="M285.9,229.7c0-0.5,0.1-0.9,0.3-1.3c0.2-0.4,0.4-0.7,0.7-1s0.6-0.5,1-0.6c0.4-0.1,0.8-0.2,1.3-0.2c0.5,0,0.9,0.1,1.2,0.3
		c0.3,0.2,0.6,0.4,0.9,0.6l-0.5,0.6c-0.2-0.2-0.5-0.4-0.8-0.5c-0.3-0.1-0.5-0.2-0.8-0.2c-0.3,0-0.6,0.1-0.9,0.2
		c-0.3,0.1-0.5,0.3-0.7,0.5c-0.2,0.2-0.3,0.4-0.5,0.7c-0.1,0.3-0.2,0.6-0.2,0.9s0.1,0.6,0.2,0.9c0.1,0.3,0.3,0.5,0.5,0.7
		c0.2,0.2,0.4,0.3,0.7,0.5c0.3,0.1,0.6,0.2,0.9,0.2c0.4,0,0.7-0.1,1-0.2c0.3-0.1,0.6-0.3,0.8-0.5l0.4,0.6c-0.3,0.3-0.7,0.5-1.1,0.7
		c-0.4,0.2-0.8,0.2-1.2,0.2c-0.5,0-0.9-0.1-1.3-0.2c-0.4-0.1-0.7-0.3-1-0.6c-0.3-0.3-0.5-0.6-0.7-1
		C286,230.6,285.9,230.2,285.9,229.7z"/>
	<path d="M293.1,231.1c0-0.3,0.1-0.6,0.2-0.9s0.4-0.5,0.7-0.6s0.8-0.3,1.3-0.4c0.5-0.1,1.2-0.2,1.9-0.3c0-0.2,0-0.4-0.1-0.6
		c-0.1-0.2-0.1-0.3-0.3-0.5c-0.1-0.1-0.3-0.2-0.5-0.3s-0.4-0.1-0.7-0.1c-0.4,0-0.8,0.1-1.1,0.2c-0.4,0.1-0.7,0.3-0.9,0.5l-0.4-0.7
		c0.1-0.1,0.3-0.2,0.5-0.3s0.4-0.2,0.6-0.3c0.2-0.1,0.5-0.1,0.7-0.2c0.2-0.1,0.5-0.1,0.8-0.1c0.8,0,1.4,0.2,1.8,0.7
		c0.4,0.4,0.6,1,0.6,1.7v3.6h-0.8l-0.1-0.8h0c-0.3,0.3-0.7,0.5-1.1,0.7c-0.4,0.2-0.8,0.3-1.2,0.3c-0.3,0-0.5,0-0.8-0.1
		c-0.2-0.1-0.5-0.2-0.6-0.3c-0.2-0.1-0.3-0.3-0.4-0.5C293.2,231.6,293.1,231.4,293.1,231.1z M294.1,231.1c0,0.2,0,0.3,0.1,0.4
		c0.1,0.1,0.2,0.2,0.3,0.3s0.3,0.1,0.4,0.2c0.2,0,0.3,0.1,0.5,0.1c0.3,0,0.7-0.1,1-0.2s0.7-0.4,1-0.6v-1.5c-0.6,0-1.1,0.1-1.6,0.2
		s-0.8,0.2-1,0.3c-0.3,0.1-0.4,0.3-0.5,0.4C294.1,230.7,294.1,230.9,294.1,231.1z"/>
	<path d="M300.3,224.1h3v6.7c0,0.4,0.1,0.7,0.3,0.9s0.5,0.3,0.8,0.3c0.3,0,0.7-0.1,1.1-0.3l0.3,0.7c-0.3,0.1-0.5,0.2-0.7,0.2
		c-0.2,0.1-0.5,0.1-0.8,0.1c-0.6,0-1.1-0.2-1.4-0.5c-0.3-0.4-0.5-0.9-0.5-1.6v-5.8h-2V224.1z"/>
	<path d="M35,247.5v2h-1v-8.3h0.8L35,242h0c0.3-0.3,0.6-0.5,0.9-0.6c0.4-0.2,0.7-0.3,1.1-0.3c0.4,0,0.7,0.1,1,0.2s0.6,0.3,0.8,0.6
		c0.2,0.3,0.4,0.6,0.5,0.9c0.1,0.4,0.2,0.8,0.2,1.2c0,0.5-0.1,0.9-0.2,1.3c-0.1,0.4-0.3,0.7-0.6,1c-0.2,0.3-0.5,0.5-0.8,0.6
		c-0.3,0.1-0.7,0.2-1,0.2c-0.3,0-0.6-0.1-0.9-0.2c-0.3-0.1-0.6-0.3-0.9-0.6L35,247.5z M35,245.7c0.3,0.2,0.6,0.4,0.8,0.5
		c0.3,0.1,0.5,0.2,0.7,0.2c0.5,0,1-0.2,1.3-0.6s0.5-1,0.5-1.7c0-0.3,0-0.6-0.1-0.9s-0.2-0.5-0.3-0.7c-0.1-0.2-0.3-0.3-0.5-0.4
		c-0.2-0.1-0.5-0.2-0.7-0.2c-0.3,0-0.5,0.1-0.8,0.2c-0.3,0.1-0.6,0.4-0.9,0.7V245.7z"/>
	<path d="M41.9,241.2h0.8l0.1,1.4h0c0.3-0.5,0.7-0.8,1.1-1.1c0.4-0.3,0.9-0.4,1.5-0.4c0.2,0,0.4,0,0.6,0.1c0.2,0,0.4,0.1,0.6,0.2
		l-0.2,0.9c-0.2-0.1-0.4-0.1-0.5-0.2c-0.1,0-0.3,0-0.6,0c-0.4,0-0.9,0.1-1.3,0.4c-0.4,0.3-0.8,0.7-1.1,1.3v3.4h-1V241.2z"/>
	<path d="M48.1,244.1c0-0.5,0.1-0.9,0.2-1.3c0.2-0.4,0.4-0.7,0.6-1s0.6-0.5,0.9-0.6s0.7-0.2,1.1-0.2c0.4,0,0.8,0.1,1.1,0.2
		c0.3,0.1,0.7,0.3,0.9,0.6c0.3,0.3,0.5,0.6,0.6,1c0.2,0.4,0.2,0.8,0.2,1.3c0,0.5-0.1,0.9-0.2,1.3c-0.2,0.4-0.4,0.7-0.6,1
		c-0.3,0.3-0.6,0.5-0.9,0.6c-0.3,0.1-0.7,0.2-1.1,0.2c-0.4,0-0.8-0.1-1.1-0.2c-0.3-0.1-0.7-0.3-0.9-0.6c-0.3-0.3-0.5-0.6-0.6-1
		C48.1,245,48.1,244.6,48.1,244.1z M49.1,244.1c0,0.3,0,0.6,0.1,0.9c0.1,0.3,0.2,0.5,0.4,0.7c0.2,0.2,0.4,0.3,0.6,0.5
		c0.2,0.1,0.5,0.2,0.8,0.2c0.3,0,0.5-0.1,0.8-0.2c0.2-0.1,0.4-0.3,0.6-0.5c0.2-0.2,0.3-0.4,0.4-0.7c0.1-0.3,0.1-0.6,0.1-0.9
		s0-0.6-0.1-0.9c-0.1-0.3-0.2-0.5-0.4-0.7c-0.2-0.2-0.4-0.4-0.6-0.5c-0.2-0.1-0.5-0.2-0.8-0.2c-0.3,0-0.5,0.1-0.8,0.2
		c-0.2,0.1-0.4,0.3-0.6,0.5c-0.2,0.2-0.3,0.4-0.4,0.7C49.1,243.5,49.1,243.8,49.1,244.1z"/>
	<path d="M55.5,244.1c0-0.5,0.1-0.9,0.3-1.3c0.2-0.4,0.4-0.7,0.7-1s0.6-0.5,1-0.6s0.8-0.2,1.3-0.2c0.5,0,0.9,0.1,1.2,0.3
		c0.3,0.2,0.6,0.4,0.9,0.6l-0.5,0.6c-0.2-0.2-0.5-0.4-0.8-0.5c-0.3-0.1-0.5-0.2-0.8-0.2c-0.3,0-0.6,0.1-0.9,0.2
		c-0.3,0.1-0.5,0.3-0.7,0.5c-0.2,0.2-0.4,0.4-0.5,0.7c-0.1,0.3-0.2,0.6-0.2,0.9s0.1,0.6,0.2,0.9c0.1,0.3,0.3,0.5,0.5,0.7
		c0.2,0.2,0.4,0.3,0.7,0.5c0.3,0.1,0.6,0.2,0.9,0.2c0.4,0,0.7-0.1,1-0.2c0.3-0.1,0.6-0.3,0.8-0.5l0.4,0.6c-0.3,0.3-0.7,0.5-1.1,0.7
		s-0.8,0.2-1.2,0.2c-0.5,0-0.9-0.1-1.3-0.2c-0.4-0.1-0.7-0.3-1-0.6c-0.3-0.3-0.5-0.6-0.7-1C55.6,245,55.5,244.6,55.5,244.1z"/>
	<path d="M62.6,244.1c0-0.5,0.1-0.9,0.3-1.3s0.4-0.7,0.7-1s0.6-0.5,0.9-0.6s0.7-0.2,1.1-0.2c0.4,0,0.8,0.1,1.1,0.2
		c0.3,0.1,0.6,0.3,0.8,0.6c0.2,0.2,0.4,0.5,0.5,0.9c0.1,0.3,0.2,0.7,0.2,1.1c0,0.1,0,0.2,0,0.3s0,0.2,0,0.3h-4.6
		c0,0.3,0.1,0.6,0.2,0.8c0.1,0.2,0.3,0.5,0.5,0.6c0.2,0.2,0.4,0.3,0.7,0.4c0.3,0.1,0.6,0.1,0.9,0.1c0.3,0,0.7,0,0.9-0.1
		c0.3-0.1,0.6-0.2,0.8-0.4l0.3,0.6c-0.3,0.2-0.6,0.3-1,0.5c-0.4,0.1-0.8,0.2-1.3,0.2c-0.4,0-0.8-0.1-1.2-0.2c-0.4-0.1-0.7-0.3-1-0.6
		c-0.3-0.3-0.5-0.6-0.7-1C62.7,245,62.6,244.6,62.6,244.1z M67.3,243.7c0-0.6-0.2-1-0.5-1.3c-0.3-0.3-0.7-0.5-1.3-0.5
		c-0.2,0-0.5,0-0.7,0.1c-0.2,0.1-0.4,0.2-0.6,0.4c-0.2,0.2-0.3,0.3-0.4,0.6c-0.1,0.2-0.2,0.5-0.2,0.8H67.3z"/>
	<path d="M70.3,245.6c0.3,0.2,0.7,0.4,1.1,0.6s0.8,0.2,1.4,0.2c0.5,0,0.9-0.1,1.2-0.3c0.3-0.2,0.4-0.4,0.4-0.6
		c0-0.2-0.1-0.4-0.4-0.6c-0.3-0.2-0.8-0.4-1.5-0.5c-0.3-0.1-0.6-0.2-0.9-0.3s-0.5-0.2-0.7-0.4c-0.2-0.1-0.4-0.3-0.5-0.5
		s-0.2-0.4-0.2-0.6c0-0.2,0.1-0.4,0.2-0.7c0.1-0.2,0.3-0.4,0.5-0.5s0.5-0.3,0.8-0.3s0.7-0.1,1.1-0.1c0.4,0,0.9,0.1,1.3,0.2
		c0.4,0.1,0.8,0.3,1.1,0.5l-0.5,0.6c-0.3-0.2-0.5-0.3-0.9-0.4c-0.3-0.1-0.6-0.2-1-0.2c-0.3,0-0.5,0-0.7,0.1c-0.2,0-0.3,0.1-0.4,0.2
		c-0.1,0.1-0.2,0.2-0.2,0.3c0,0.1-0.1,0.2-0.1,0.3c0,0.2,0.2,0.4,0.5,0.6c0.3,0.2,0.8,0.3,1.3,0.4c0.8,0.2,1.4,0.4,1.8,0.7
		c0.4,0.3,0.6,0.6,0.6,1.1c0,0.2-0.1,0.5-0.2,0.7c-0.1,0.2-0.3,0.4-0.5,0.6c-0.2,0.2-0.5,0.3-0.8,0.4c-0.3,0.1-0.7,0.1-1.1,0.1
		c-0.6,0-1.1-0.1-1.6-0.3s-0.9-0.4-1.3-0.6L70.3,245.6z"/>
	<path d="M77.5,245.6c0.3,0.2,0.7,0.4,1.1,0.6s0.8,0.2,1.4,0.2c0.5,0,0.9-0.1,1.2-0.3c0.3-0.2,0.4-0.4,0.4-0.6
		c0-0.2-0.1-0.4-0.4-0.6c-0.3-0.2-0.8-0.4-1.5-0.5c-0.3-0.1-0.6-0.2-0.9-0.3s-0.5-0.2-0.7-0.4c-0.2-0.1-0.4-0.3-0.5-0.5
		s-0.2-0.4-0.2-0.6c0-0.2,0.1-0.4,0.2-0.7c0.1-0.2,0.3-0.4,0.5-0.5s0.5-0.3,0.8-0.3s0.7-0.1,1.1-0.1c0.4,0,0.9,0.1,1.3,0.2
		c0.4,0.1,0.8,0.3,1.1,0.5l-0.5,0.6c-0.3-0.2-0.5-0.3-0.9-0.4c-0.3-0.1-0.6-0.2-1-0.2c-0.3,0-0.5,0-0.7,0.1c-0.2,0-0.3,0.1-0.4,0.2
		c-0.1,0.1-0.2,0.2-0.2,0.3c0,0.1-0.1,0.2-0.1,0.3c0,0.2,0.2,0.4,0.5,0.6c0.3,0.2,0.8,0.3,1.3,0.4c0.8,0.2,1.4,0.4,1.8,0.7
		c0.4,0.3,0.6,0.6,0.6,1.1c0,0.2-0.1,0.5-0.2,0.7c-0.1,0.2-0.3,0.4-0.5,0.6c-0.2,0.2-0.5,0.3-0.8,0.4c-0.3,0.1-0.7,0.1-1.1,0.1
		c-0.6,0-1.1-0.1-1.6-0.3s-0.9-0.4-1.3-0.6L77.5,245.6z"/>
	<path d="M91.5,244.1c0-0.5,0.1-0.9,0.3-1.3c0.2-0.4,0.4-0.7,0.7-1s0.6-0.5,1-0.6s0.8-0.2,1.3-0.2c0.5,0,0.9,0.1,1.2,0.3
		c0.3,0.2,0.6,0.4,0.9,0.6l-0.5,0.6c-0.2-0.2-0.5-0.4-0.8-0.5c-0.3-0.1-0.5-0.2-0.8-0.2c-0.3,0-0.6,0.1-0.9,0.2
		c-0.3,0.1-0.5,0.3-0.7,0.5c-0.2,0.2-0.4,0.4-0.5,0.7c-0.1,0.3-0.2,0.6-0.2,0.9s0.1,0.6,0.2,0.9c0.1,0.3,0.3,0.5,0.5,0.7
		c0.2,0.2,0.4,0.3,0.7,0.5c0.3,0.1,0.6,0.2,0.9,0.2c0.4,0,0.7-0.1,1-0.2c0.3-0.1,0.6-0.3,0.8-0.5l0.4,0.6c-0.3,0.3-0.7,0.5-1.1,0.7
		s-0.8,0.2-1.2,0.2c-0.5,0-0.9-0.1-1.3-0.2c-0.4-0.1-0.7-0.3-1-0.6c-0.3-0.3-0.5-0.6-0.7-1C91.6,245,91.5,244.6,91.5,244.1z"/>
	<path d="M98.7,245.5c0-0.3,0.1-0.6,0.2-0.9c0.2-0.2,0.4-0.5,0.7-0.6c0.3-0.2,0.8-0.3,1.3-0.4c0.5-0.1,1.2-0.2,1.9-0.3
		c0-0.2,0-0.4-0.1-0.6c-0.1-0.2-0.1-0.3-0.3-0.5c-0.1-0.1-0.3-0.2-0.5-0.3c-0.2-0.1-0.4-0.1-0.7-0.1c-0.4,0-0.8,0.1-1.1,0.2
		s-0.7,0.3-0.9,0.5l-0.4-0.7c0.1-0.1,0.3-0.2,0.5-0.3c0.2-0.1,0.4-0.2,0.6-0.3s0.5-0.1,0.7-0.2c0.2-0.1,0.5-0.1,0.8-0.1
		c0.8,0,1.4,0.2,1.8,0.7c0.4,0.4,0.6,1,0.6,1.7v3.6h-0.8l-0.1-0.8h0c-0.3,0.3-0.7,0.5-1.1,0.7c-0.4,0.2-0.8,0.3-1.2,0.3
		c-0.3,0-0.5,0-0.8-0.1c-0.2-0.1-0.5-0.2-0.6-0.3c-0.2-0.1-0.3-0.3-0.4-0.5C98.8,246,98.7,245.8,98.7,245.5z M99.7,245.5
		c0,0.2,0,0.3,0.1,0.4c0.1,0.1,0.2,0.2,0.3,0.3c0.1,0.1,0.3,0.1,0.4,0.2c0.2,0,0.3,0.1,0.5,0.1c0.3,0,0.7-0.1,1-0.2
		c0.3-0.1,0.7-0.4,1-0.6V244c-0.6,0-1.1,0.1-1.6,0.2s-0.8,0.2-1,0.3c-0.3,0.1-0.4,0.3-0.5,0.4S99.7,245.3,99.7,245.5z"/>
	<path d="M105.9,238.5h3v6.7c0,0.4,0.1,0.7,0.3,0.9s0.5,0.3,0.8,0.3c0.3,0,0.7-0.1,1.1-0.3l0.3,0.7c-0.3,0.1-0.5,0.2-0.7,0.2
		c-0.2,0.1-0.5,0.1-0.8,0.1c-0.6,0-1.1-0.2-1.4-0.5c-0.3-0.4-0.5-0.9-0.5-1.6v-5.8h-2V238.5z"/>
	<path d="M113.1,238.5h3v6.7c0,0.4,0.1,0.7,0.3,0.9s0.5,0.3,0.8,0.3c0.3,0,0.7-0.1,1.1-0.3l0.3,0.7c-0.3,0.1-0.5,0.2-0.7,0.2
		c-0.2,0.1-0.5,0.1-0.8,0.1c-0.6,0-1.1-0.2-1.4-0.5c-0.3-0.4-0.5-0.9-0.5-1.6v-5.8h-2V238.5z"/>
	<path d="M120.2,244.1c0-0.5,0.1-0.9,0.3-1.3s0.4-0.7,0.7-1s0.6-0.5,0.9-0.6s0.7-0.2,1.1-0.2c0.4,0,0.8,0.1,1.1,0.2
		c0.3,0.1,0.6,0.3,0.8,0.6c0.2,0.2,0.4,0.5,0.5,0.9c0.1,0.3,0.2,0.7,0.2,1.1c0,0.1,0,0.2,0,0.3s0,0.2,0,0.3h-4.6
		c0,0.3,0.1,0.6,0.2,0.8c0.1,0.2,0.3,0.5,0.5,0.6c0.2,0.2,0.4,0.3,0.7,0.4c0.3,0.1,0.6,0.1,0.9,0.1c0.3,0,0.7,0,0.9-0.1
		c0.3-0.1,0.6-0.2,0.8-0.4l0.3,0.6c-0.3,0.2-0.6,0.3-1,0.5c-0.4,0.1-0.8,0.2-1.3,0.2c-0.4,0-0.8-0.1-1.2-0.2c-0.4-0.1-0.7-0.3-1-0.6
		c-0.3-0.3-0.5-0.6-0.7-1C120.3,245,120.2,244.6,120.2,244.1z M124.9,243.7c0-0.6-0.2-1-0.5-1.3c-0.3-0.3-0.7-0.5-1.3-0.5
		c-0.2,0-0.5,0-0.7,0.1c-0.2,0.1-0.4,0.2-0.6,0.4c-0.2,0.2-0.3,0.3-0.4,0.6c-0.1,0.2-0.2,0.5-0.2,0.8H124.9z"/>
	<path d="M127.3,244.1c0-0.5,0.1-0.9,0.2-1.3c0.1-0.4,0.3-0.7,0.6-1c0.2-0.3,0.5-0.5,0.8-0.6s0.7-0.2,1-0.2c0.4,0,0.7,0.1,0.9,0.2
		s0.5,0.3,0.8,0.6l0-1.1v-2.2h1v8.5h-0.8l-0.1-0.8h0c-0.2,0.2-0.5,0.5-0.9,0.6s-0.7,0.3-1,0.3c-0.4,0-0.7-0.1-1-0.2
		c-0.3-0.1-0.6-0.3-0.8-0.6c-0.2-0.3-0.4-0.6-0.5-1S127.3,244.6,127.3,244.1z M128.3,244.1c0,0.7,0.1,1.3,0.4,1.6
		c0.3,0.4,0.7,0.6,1.3,0.6c0.6,0,1.1-0.3,1.6-0.9v-2.9c-0.3-0.2-0.5-0.4-0.8-0.5c-0.3-0.1-0.5-0.2-0.8-0.2s-0.5,0.1-0.7,0.2
		c-0.2,0.1-0.4,0.3-0.6,0.5s-0.3,0.4-0.4,0.7C128.3,243.5,128.3,243.8,128.3,244.1z"/>
	<path d="M141.9,245.5c0-0.3,0.1-0.6,0.2-0.9c0.2-0.2,0.4-0.5,0.7-0.6c0.3-0.2,0.8-0.3,1.3-0.4c0.5-0.1,1.2-0.2,1.9-0.3
		c0-0.2,0-0.4-0.1-0.6c-0.1-0.2-0.1-0.3-0.3-0.5c-0.1-0.1-0.3-0.2-0.5-0.3c-0.2-0.1-0.4-0.1-0.7-0.1c-0.4,0-0.8,0.1-1.1,0.2
		s-0.7,0.3-0.9,0.5l-0.4-0.7c0.1-0.1,0.3-0.2,0.5-0.3c0.2-0.1,0.4-0.2,0.6-0.3s0.5-0.1,0.7-0.2c0.2-0.1,0.5-0.1,0.8-0.1
		c0.8,0,1.4,0.2,1.8,0.7c0.4,0.4,0.6,1,0.6,1.7v3.6h-0.8l-0.1-0.8h0c-0.3,0.3-0.7,0.5-1.1,0.7c-0.4,0.2-0.8,0.3-1.2,0.3
		c-0.3,0-0.5,0-0.8-0.1c-0.2-0.1-0.5-0.2-0.6-0.3c-0.2-0.1-0.3-0.3-0.4-0.5C142,246,141.9,245.8,141.9,245.5z M142.9,245.5
		c0,0.2,0,0.3,0.1,0.4c0.1,0.1,0.2,0.2,0.3,0.3c0.1,0.1,0.3,0.1,0.4,0.2c0.2,0,0.3,0.1,0.5,0.1c0.3,0,0.7-0.1,1-0.2
		c0.3-0.1,0.7-0.4,1-0.6V244c-0.6,0-1.1,0.1-1.6,0.2s-0.8,0.2-1,0.3c-0.3,0.1-0.4,0.3-0.5,0.4S142.9,245.3,142.9,245.5z"/>
	<path d="M157,239.2h4.8v0.8H158v2.7h3.2v0.8H158v3.5h-1V239.2z"/>
	<path d="M163.5,245.5c0-0.3,0.1-0.6,0.2-0.9c0.2-0.2,0.4-0.5,0.7-0.6c0.3-0.2,0.8-0.3,1.3-0.4c0.5-0.1,1.2-0.2,1.9-0.3
		c0-0.2,0-0.4-0.1-0.6c-0.1-0.2-0.1-0.3-0.3-0.5c-0.1-0.1-0.3-0.2-0.5-0.3c-0.2-0.1-0.4-0.1-0.7-0.1c-0.4,0-0.8,0.1-1.1,0.2
		s-0.7,0.3-0.9,0.5l-0.4-0.7c0.1-0.1,0.3-0.2,0.5-0.3c0.2-0.1,0.4-0.2,0.6-0.3s0.5-0.1,0.7-0.2c0.2-0.1,0.5-0.1,0.8-0.1
		c0.8,0,1.4,0.2,1.8,0.7c0.4,0.4,0.6,1,0.6,1.7v3.6h-0.8l-0.1-0.8h0c-0.3,0.3-0.7,0.5-1.1,0.7c-0.4,0.2-0.8,0.3-1.2,0.3
		c-0.3,0-0.5,0-0.8-0.1c-0.2-0.1-0.5-0.2-0.6-0.3c-0.2-0.1-0.3-0.3-0.4-0.5C163.6,246,163.5,245.8,163.5,245.5z M164.5,245.5
		c0,0.2,0,0.3,0.1,0.4c0.1,0.1,0.2,0.2,0.3,0.3c0.1,0.1,0.3,0.1,0.4,0.2c0.2,0,0.3,0.1,0.5,0.1c0.3,0,0.7-0.1,1-0.2
		c0.3-0.1,0.7-0.4,1-0.6V244c-0.6,0-1.1,0.1-1.6,0.2s-0.8,0.2-1,0.3c-0.3,0.1-0.4,0.3-0.5,0.4S164.5,245.3,164.5,245.5z"/>
	<path d="M171.1,245.6c0.3,0.2,0.7,0.4,1.1,0.6s0.8,0.2,1.4,0.2s0.9-0.1,1.2-0.3s0.4-0.4,0.4-0.6c0-0.2-0.1-0.4-0.4-0.6
		c-0.3-0.2-0.8-0.4-1.5-0.5c-0.3-0.1-0.6-0.2-0.9-0.3c-0.3-0.1-0.5-0.2-0.7-0.4c-0.2-0.1-0.4-0.3-0.5-0.5s-0.2-0.4-0.2-0.6
		c0-0.2,0.1-0.4,0.2-0.7c0.1-0.2,0.3-0.4,0.5-0.5s0.5-0.3,0.8-0.3c0.3-0.1,0.7-0.1,1.1-0.1c0.4,0,0.9,0.1,1.3,0.2s0.8,0.3,1.1,0.5
		l-0.5,0.6c-0.3-0.2-0.5-0.3-0.9-0.4c-0.3-0.1-0.6-0.2-1-0.2c-0.3,0-0.5,0-0.7,0.1c-0.2,0-0.3,0.1-0.4,0.2s-0.2,0.2-0.2,0.3
		c0,0.1-0.1,0.2-0.1,0.3c0,0.2,0.2,0.4,0.5,0.6c0.3,0.2,0.8,0.3,1.3,0.4c0.8,0.2,1.4,0.4,1.8,0.7c0.4,0.3,0.6,0.6,0.6,1.1
		c0,0.2-0.1,0.5-0.2,0.7c-0.1,0.2-0.3,0.4-0.5,0.6s-0.5,0.3-0.8,0.4c-0.3,0.1-0.7,0.1-1.1,0.1c-0.6,0-1.1-0.1-1.6-0.3
		c-0.5-0.2-0.9-0.4-1.3-0.6L171.1,245.6z"/>
	<path d="M179.4,242h-1.6v-0.7l1.7-0.1l0.1-1.6h0.8v1.6h2.9v0.8h-2.9v2.8c0,0.3,0,0.5,0.1,0.7c0,0.2,0.1,0.4,0.2,0.5
		c0.1,0.1,0.3,0.2,0.5,0.3c0.2,0.1,0.4,0.1,0.7,0.1c0.3,0,0.5,0,0.8-0.1c0.2,0,0.4-0.1,0.6-0.2l0.2,0.7c-0.3,0.1-0.6,0.2-0.9,0.2
		c-0.3,0.1-0.6,0.1-1,0.1c-0.4,0-0.8-0.1-1.1-0.2s-0.5-0.3-0.7-0.5c-0.2-0.2-0.3-0.5-0.4-0.8c-0.1-0.3-0.1-0.6-0.1-1V242z"/>
	<path d="M193,239.2h4.8v0.8H194v2.7h3.2v0.8H194v3.5h-1V239.2z"/>
	<path d="M199.3,244.1c0-0.5,0.1-0.9,0.2-1.3c0.2-0.4,0.4-0.7,0.6-1c0.3-0.3,0.6-0.5,0.9-0.6c0.3-0.1,0.7-0.2,1.1-0.2
		s0.8,0.1,1.1,0.2c0.3,0.1,0.7,0.3,0.9,0.6c0.3,0.3,0.5,0.6,0.6,1c0.2,0.4,0.2,0.8,0.2,1.3c0,0.5-0.1,0.9-0.2,1.3
		c-0.2,0.4-0.4,0.7-0.6,1c-0.3,0.3-0.6,0.5-0.9,0.6c-0.3,0.1-0.7,0.2-1.1,0.2s-0.8-0.1-1.1-0.2c-0.3-0.1-0.7-0.3-0.9-0.6
		c-0.3-0.3-0.5-0.6-0.6-1C199.3,245,199.3,244.6,199.3,244.1z M200.3,244.1c0,0.3,0,0.6,0.1,0.9c0.1,0.3,0.2,0.5,0.4,0.7
		c0.2,0.2,0.4,0.3,0.6,0.5c0.2,0.1,0.5,0.2,0.8,0.2s0.5-0.1,0.8-0.2c0.2-0.1,0.4-0.3,0.6-0.5c0.2-0.2,0.3-0.4,0.4-0.7
		c0.1-0.3,0.1-0.6,0.1-0.9s0-0.6-0.1-0.9c-0.1-0.3-0.2-0.5-0.4-0.7c-0.2-0.2-0.4-0.4-0.6-0.5c-0.2-0.1-0.5-0.2-0.8-0.2
		s-0.5,0.1-0.8,0.2c-0.2,0.1-0.4,0.3-0.6,0.5c-0.2,0.2-0.3,0.4-0.4,0.7C200.3,243.5,200.3,243.8,200.3,244.1z"/>
	<path d="M211.8,247H211l-0.1-1h0c-0.3,0.3-0.6,0.6-1,0.8s-0.8,0.3-1.2,0.3c-0.7,0-1.2-0.2-1.5-0.6s-0.5-1-0.5-1.8v-3.6h1v3.5
		c0,0.6,0.1,1,0.3,1.2s0.5,0.4,1,0.4c0.3,0,0.6-0.1,0.9-0.3c0.3-0.2,0.6-0.4,0.9-0.8v-4h1V247z"/>
	<path d="M214.7,241.2h0.8l0.1,1.4h0c0.3-0.5,0.7-0.8,1.1-1.1c0.4-0.3,0.9-0.4,1.5-0.4c0.2,0,0.4,0,0.6,0.1c0.2,0,0.4,0.1,0.6,0.2
		l-0.2,0.9c-0.2-0.1-0.4-0.1-0.5-0.2c-0.1,0-0.3,0-0.6,0c-0.4,0-0.9,0.1-1.3,0.4c-0.4,0.3-0.8,0.7-1.1,1.3v3.4h-1V241.2z"/>
	<path d="M221.2,241.2h3.7v5.8h-1v-5h-2.7V241.2z M224.3,240c-0.2,0-0.4-0.1-0.6-0.2c-0.1-0.1-0.2-0.3-0.2-0.6s0.1-0.4,0.2-0.6
		c0.1-0.1,0.3-0.2,0.6-0.2c0.2,0,0.4,0.1,0.6,0.2s0.2,0.3,0.2,0.6s-0.1,0.4-0.2,0.6C224.7,239.9,224.5,240,224.3,240z"/>
	<path d="M228.2,244.1c0-0.5,0.1-0.9,0.3-1.3s0.4-0.7,0.7-1c0.3-0.3,0.6-0.5,0.9-0.6c0.4-0.1,0.7-0.2,1.1-0.2c0.4,0,0.8,0.1,1.1,0.2
		c0.3,0.1,0.6,0.3,0.8,0.6c0.2,0.2,0.4,0.5,0.5,0.9s0.2,0.7,0.2,1.1c0,0.1,0,0.2,0,0.3s0,0.2,0,0.3h-4.6c0,0.3,0.1,0.6,0.2,0.8
		c0.1,0.2,0.3,0.5,0.5,0.6c0.2,0.2,0.4,0.3,0.7,0.4c0.3,0.1,0.6,0.1,0.9,0.1c0.3,0,0.7,0,0.9-0.1s0.6-0.2,0.8-0.4l0.3,0.6
		c-0.3,0.2-0.6,0.3-1,0.5c-0.4,0.1-0.8,0.2-1.3,0.2c-0.4,0-0.8-0.1-1.2-0.2c-0.4-0.1-0.7-0.3-1-0.6c-0.3-0.3-0.5-0.6-0.7-1
		C228.3,245,228.2,244.6,228.2,244.1z M232.9,243.7c0-0.6-0.2-1-0.5-1.3c-0.3-0.3-0.7-0.5-1.3-0.5c-0.2,0-0.5,0-0.7,0.1
		c-0.2,0.1-0.4,0.2-0.6,0.4c-0.2,0.2-0.3,0.3-0.4,0.6c-0.1,0.2-0.2,0.5-0.2,0.8H232.9z"/>
	<path d="M236.3,241.2h0.8l0.1,1.4h0c0.3-0.5,0.7-0.8,1.1-1.1c0.4-0.3,0.9-0.4,1.5-0.4c0.2,0,0.4,0,0.6,0.1c0.2,0,0.4,0.1,0.6,0.2
		l-0.2,0.9c-0.2-0.1-0.4-0.1-0.5-0.2c-0.1,0-0.3,0-0.6,0c-0.4,0-0.9,0.1-1.3,0.4s-0.8,0.7-1.1,1.3v3.4h-1V241.2z"/>
	<path d="M252,240h-2.6v-0.8h6.2v0.8H253v7h-1V240z"/>
	<path d="M257.9,241.2h0.8l0.1,1.4h0c0.3-0.5,0.7-0.8,1.1-1.1c0.4-0.3,0.9-0.4,1.5-0.4c0.2,0,0.4,0,0.6,0.1c0.2,0,0.4,0.1,0.6,0.2
		l-0.2,0.9c-0.2-0.1-0.4-0.1-0.5-0.2c-0.1,0-0.3,0-0.6,0c-0.4,0-0.9,0.1-1.3,0.4c-0.4,0.3-0.8,0.7-1.1,1.3v3.4h-1V241.2z"/>
	<path d="M264.3,245.5c0-0.3,0.1-0.6,0.2-0.9s0.4-0.5,0.7-0.6s0.8-0.3,1.3-0.4c0.5-0.1,1.2-0.2,1.9-0.3c0-0.2,0-0.4-0.1-0.6
		c-0.1-0.2-0.1-0.3-0.3-0.5c-0.1-0.1-0.3-0.2-0.5-0.3s-0.4-0.1-0.7-0.1c-0.4,0-0.8,0.1-1.1,0.2c-0.4,0.1-0.7,0.3-0.9,0.5l-0.4-0.7
		c0.1-0.1,0.3-0.2,0.5-0.3s0.4-0.2,0.6-0.3c0.2-0.1,0.5-0.1,0.7-0.2c0.2-0.1,0.5-0.1,0.8-0.1c0.8,0,1.4,0.2,1.8,0.7
		c0.4,0.4,0.6,1,0.6,1.7v3.6h-0.8l-0.1-0.8h0c-0.3,0.3-0.7,0.5-1.1,0.7c-0.4,0.2-0.8,0.3-1.2,0.3c-0.3,0-0.5,0-0.8-0.1
		c-0.2-0.1-0.5-0.2-0.6-0.3c-0.2-0.1-0.3-0.3-0.4-0.5C264.4,246,264.3,245.8,264.3,245.5z M265.3,245.5c0,0.2,0,0.3,0.1,0.4
		c0.1,0.1,0.2,0.2,0.3,0.3s0.3,0.1,0.4,0.2c0.2,0,0.3,0.1,0.5,0.1c0.3,0,0.7-0.1,1-0.2s0.7-0.4,1-0.6V244c-0.6,0-1.1,0.1-1.6,0.2
		s-0.8,0.2-1,0.3c-0.3,0.1-0.4,0.3-0.5,0.4C265.3,245.1,265.3,245.3,265.3,245.5z"/>
	<path d="M271.7,241.2h0.8l0.1,1h0c0.3-0.3,0.6-0.6,1-0.8c0.4-0.2,0.8-0.3,1.2-0.3c0.7,0,1.2,0.2,1.5,0.6c0.3,0.4,0.5,1,0.5,1.8v3.6
		h-1v-3.5c0-0.6-0.1-1-0.3-1.2c-0.2-0.3-0.6-0.4-1-0.4c-0.2,0-0.3,0-0.5,0.1c-0.1,0-0.3,0.1-0.4,0.2c-0.1,0.1-0.3,0.2-0.4,0.3
		c-0.2,0.1-0.3,0.3-0.5,0.5v4.1h-1V241.2z"/>
	<path d="M279.1,245.6c0.3,0.2,0.7,0.4,1.1,0.6s0.8,0.2,1.4,0.2c0.5,0,0.9-0.1,1.2-0.3c0.3-0.2,0.4-0.4,0.4-0.6
		c0-0.2-0.1-0.4-0.4-0.6s-0.8-0.4-1.5-0.5c-0.3-0.1-0.6-0.2-0.9-0.3c-0.3-0.1-0.5-0.2-0.7-0.4c-0.2-0.1-0.4-0.3-0.5-0.5
		s-0.2-0.4-0.2-0.6c0-0.2,0.1-0.4,0.2-0.7c0.1-0.2,0.3-0.4,0.5-0.5s0.5-0.3,0.8-0.3c0.3-0.1,0.7-0.1,1.1-0.1c0.4,0,0.9,0.1,1.3,0.2
		c0.4,0.1,0.8,0.3,1.1,0.5l-0.5,0.6c-0.3-0.2-0.5-0.3-0.9-0.4c-0.3-0.1-0.6-0.2-1-0.2c-0.3,0-0.5,0-0.7,0.1c-0.2,0-0.3,0.1-0.4,0.2
		c-0.1,0.1-0.2,0.2-0.2,0.3s-0.1,0.2-0.1,0.3c0,0.2,0.2,0.4,0.5,0.6s0.8,0.3,1.3,0.4c0.8,0.2,1.4,0.4,1.8,0.7
		c0.4,0.3,0.6,0.6,0.6,1.1c0,0.2-0.1,0.5-0.2,0.7c-0.1,0.2-0.3,0.4-0.5,0.6c-0.2,0.2-0.5,0.3-0.8,0.4s-0.7,0.1-1.1,0.1
		c-0.6,0-1.1-0.1-1.6-0.3c-0.5-0.2-0.9-0.4-1.3-0.6L279.1,245.6z"/>
	<path d="M291.6,239.4c-0.2-0.1-0.5-0.2-0.7-0.2c-0.2,0-0.4-0.1-0.7-0.1c-0.5,0-0.9,0.1-1.1,0.4c-0.2,0.3-0.3,0.6-0.3,1.1v0.5h2.4
		v0.8h-2.4v5h-1v-5h-1.7v-0.7l1.7-0.1v-0.5c0-0.7,0.2-1.3,0.6-1.7s1-0.6,1.8-0.6c0.6,0,1.1,0.1,1.7,0.3L291.6,239.4z"/>
	<path d="M292.9,244.1c0-0.5,0.1-0.9,0.2-1.3c0.2-0.4,0.4-0.7,0.6-1c0.3-0.3,0.6-0.5,0.9-0.6c0.3-0.1,0.7-0.2,1.1-0.2
		c0.4,0,0.8,0.1,1.1,0.2s0.7,0.3,0.9,0.6s0.5,0.6,0.6,1c0.2,0.4,0.2,0.8,0.2,1.3c0,0.5-0.1,0.9-0.2,1.3c-0.2,0.4-0.4,0.7-0.6,1
		c-0.3,0.3-0.6,0.5-0.9,0.6c-0.3,0.1-0.7,0.2-1.1,0.2c-0.4,0-0.8-0.1-1.1-0.2c-0.3-0.1-0.7-0.3-0.9-0.6c-0.3-0.3-0.5-0.6-0.6-1
		C292.9,245,292.9,244.6,292.9,244.1z M293.9,244.1c0,0.3,0,0.6,0.1,0.9c0.1,0.3,0.2,0.5,0.4,0.7c0.2,0.2,0.4,0.3,0.6,0.5
		c0.2,0.1,0.5,0.2,0.8,0.2c0.3,0,0.5-0.1,0.8-0.2c0.2-0.1,0.4-0.3,0.6-0.5c0.2-0.2,0.3-0.4,0.4-0.7c0.1-0.3,0.1-0.6,0.1-0.9
		s0-0.6-0.1-0.9c-0.1-0.3-0.2-0.5-0.4-0.7c-0.2-0.2-0.4-0.4-0.6-0.5c-0.2-0.1-0.5-0.2-0.8-0.2c-0.3,0-0.5,0.1-0.8,0.2
		c-0.2,0.1-0.4,0.3-0.6,0.5c-0.2,0.2-0.3,0.4-0.4,0.7C293.9,243.5,293.9,243.8,293.9,244.1z"/>
	<path d="M301.1,241.2h0.8l0.1,1.4h0c0.3-0.5,0.7-0.8,1.1-1.1c0.4-0.3,0.9-0.4,1.5-0.4c0.2,0,0.4,0,0.6,0.1c0.2,0,0.4,0.1,0.6,0.2
		l-0.2,0.9c-0.2-0.1-0.4-0.1-0.5-0.2c-0.1,0-0.3,0-0.6,0c-0.4,0-0.9,0.1-1.3,0.4c-0.4,0.3-0.8,0.7-1.1,1.3v3.4h-1V241.2z"/>
	<path d="M307.3,241.2h0.8l0.1,0.8h0c0.1-0.3,0.3-0.5,0.5-0.7s0.5-0.3,0.8-0.3c0.6,0,1,0.3,1.1,1c0.2-0.3,0.4-0.5,0.6-0.7
		c0.2-0.2,0.5-0.3,0.8-0.3c0.4,0,0.7,0.2,0.9,0.5c0.2,0.3,0.3,0.8,0.3,1.3v4.2h-0.9V243c0-0.7-0.2-1-0.6-1c-0.2,0-0.4,0.1-0.5,0.2
		c-0.2,0.1-0.3,0.4-0.5,0.7v4.2h-0.8V243c0-0.7-0.2-1-0.7-1c-0.2,0-0.4,0.1-0.5,0.2c-0.1,0.1-0.3,0.4-0.4,0.7v4.2h-0.9V241.2z"/>
	<path d="M36.2,261.2c-0.5-0.9-0.7-1.9-0.7-3.1s0.2-2.2,0.7-3.1c0.5-0.9,1.1-1.7,2-2.3l0.5,0.5c-0.8,0.7-1.4,1.4-1.8,2.2
		c-0.4,0.8-0.6,1.7-0.6,2.7s0.2,1.9,0.6,2.7c0.4,0.8,1,1.5,1.8,2.2l-0.5,0.5C37.3,262.9,36.7,262.1,36.2,261.2z"/>
	<path d="M41.8,253.6h4.8v0.8h-3.8v2.7H46v0.8h-3.2v3.5h-1V253.6z"/>
	<path d="M49,253.6h4.8v0.8H50v2.7h3.2v0.8H50v3.5h-1V253.6z"/>
	<path d="M57.6,254.4h-2.6v-0.8h6.2v0.8h-2.6v7h-1V254.4z"/>
	<path d="M63.2,263c0.8-0.7,1.4-1.4,1.8-2.2c0.4-0.8,0.6-1.7,0.6-2.7s-0.2-1.9-0.6-2.7c-0.4-0.8-1-1.5-1.8-2.2l0.5-0.5
		c0.8,0.6,1.5,1.4,2,2.3c0.5,0.9,0.7,1.9,0.7,3.1s-0.2,2.2-0.7,3.1c-0.5,0.9-1.1,1.7-2,2.3L63.2,263z"/>
	<path d="M71.6,260.6c0-0.3,0.1-0.5,0.3-0.7c0.2-0.2,0.4-0.3,0.7-0.3s0.5,0.1,0.7,0.3c0.2,0.2,0.3,0.4,0.3,0.7
		c0,0.3-0.1,0.5-0.3,0.7s-0.4,0.3-0.7,0.3s-0.5-0.1-0.7-0.3C71.7,261.1,71.6,260.9,71.6,260.6z"/>
</g>
<g>
	<path class="st3" d="M35,173.2c0-0.3,0.1-0.6,0.2-0.9c0.1-0.3,0.4-0.5,0.7-0.6c0.3-0.2,0.7-0.3,1.2-0.4c0.5-0.1,1.1-0.2,1.8-0.2
		c0-0.3-0.1-0.5-0.4-0.6c-0.2-0.2-0.5-0.2-0.9-0.2c-0.3,0-0.6,0.1-0.9,0.2c-0.3,0.1-0.6,0.2-0.9,0.4l-0.6-1.2
		c0.4-0.2,0.8-0.4,1.3-0.6c0.5-0.2,1-0.2,1.5-0.2c0.8,0,1.5,0.2,2,0.7c0.5,0.4,0.7,1.1,0.7,2v3.4h-1.4l-0.1-0.7h0
		c-0.3,0.2-0.6,0.4-1,0.6c-0.4,0.2-0.7,0.2-1.1,0.2c-0.3,0-0.6,0-0.8-0.1c-0.2-0.1-0.4-0.2-0.6-0.4c-0.2-0.2-0.3-0.4-0.4-0.6
		C35.1,173.7,35,173.4,35,173.2z M36.7,173c0,0.2,0.1,0.3,0.2,0.4c0.1,0.1,0.4,0.1,0.6,0.1c0.3,0,0.5-0.1,0.7-0.2
		c0.2-0.1,0.5-0.2,0.7-0.4v-1c-0.4,0-0.8,0.1-1.1,0.1c-0.3,0.1-0.5,0.1-0.7,0.2s-0.3,0.2-0.4,0.3C36.7,172.8,36.7,172.9,36.7,173z"
		/>
	<path class="st3" d="M42.4,168.9h1.4l0.1,0.8h0c0.3-0.3,0.6-0.5,0.9-0.7c0.3-0.2,0.7-0.3,1.2-0.3c0.7,0,1.2,0.2,1.5,0.6
		c0.3,0.4,0.5,1,0.5,1.8v3.7h-1.8v-3.4c0-0.4-0.1-0.7-0.2-0.9c-0.1-0.2-0.4-0.3-0.7-0.3c-0.2,0-0.4,0.1-0.6,0.2
		c-0.2,0.1-0.4,0.3-0.6,0.5v4h-1.8V168.9z"/>
	<path class="st3" d="M49.4,173.2c0-0.3,0.1-0.6,0.2-0.9c0.1-0.3,0.4-0.5,0.7-0.6c0.3-0.2,0.7-0.3,1.2-0.4c0.5-0.1,1.1-0.2,1.8-0.2
		c0-0.3-0.1-0.5-0.4-0.6c-0.2-0.2-0.5-0.2-0.9-0.2c-0.3,0-0.6,0.1-0.9,0.2c-0.3,0.1-0.6,0.2-0.9,0.4l-0.6-1.2
		c0.4-0.2,0.8-0.4,1.3-0.6c0.5-0.2,1-0.2,1.5-0.2c0.8,0,1.5,0.2,2,0.7c0.5,0.4,0.7,1.1,0.7,2v3.4h-1.4l-0.1-0.7h0
		c-0.3,0.2-0.6,0.4-1,0.6c-0.4,0.2-0.7,0.2-1.1,0.2c-0.3,0-0.6,0-0.8-0.1c-0.2-0.1-0.4-0.2-0.6-0.4c-0.2-0.2-0.3-0.4-0.4-0.6
		C49.5,173.7,49.4,173.4,49.4,173.2z M51.1,173c0,0.2,0.1,0.3,0.2,0.4c0.1,0.1,0.4,0.1,0.6,0.1c0.3,0,0.5-0.1,0.7-0.2
		c0.2-0.1,0.5-0.2,0.7-0.4v-1c-0.4,0-0.8,0.1-1.1,0.1c-0.3,0.1-0.5,0.1-0.7,0.2s-0.3,0.2-0.4,0.3C51.1,172.8,51.1,172.9,51.1,173z"
		/>
	<path class="st3" d="M56.6,166.4h3.5v6.2c0,0.2,0,0.3,0.1,0.5c0.1,0.1,0.1,0.2,0.2,0.3c0.1,0.1,0.2,0.1,0.3,0.2c0.1,0,0.2,0,0.4,0
		c0.1,0,0.3,0,0.4,0c0.2,0,0.3-0.1,0.5-0.1l0.4,1.3c-0.2,0-0.3,0.1-0.4,0.1c-0.1,0-0.3,0.1-0.4,0.1c-0.1,0-0.3,0-0.4,0.1
		c-0.2,0-0.3,0-0.5,0c-0.8,0-1.3-0.2-1.7-0.7c-0.4-0.4-0.6-1-0.6-1.8v-4.7h-1.7V166.4z"/>
	<path class="st3" d="M64.7,175.8c0.3,0,0.6-0.1,0.8-0.2c0.2-0.1,0.3-0.3,0.4-0.6l0.1-0.3l-2.6-5.8h1.8l1,2.6
		c0.1,0.3,0.2,0.6,0.3,0.9c0.1,0.3,0.2,0.6,0.3,0.9h0c0.1-0.3,0.2-0.6,0.3-0.9c0.1-0.3,0.2-0.6,0.3-0.9l0.9-2.6h1.7l-2.4,6
		c-0.1,0.4-0.3,0.7-0.5,1c-0.2,0.3-0.4,0.5-0.6,0.7c-0.2,0.2-0.5,0.3-0.8,0.4c-0.3,0.1-0.6,0.1-1,0.1c-0.2,0-0.3,0-0.5,0
		c-0.2,0-0.3,0-0.4-0.1l0.3-1.3C64.4,175.7,64.5,175.8,64.7,175.8z"/>
	<path class="st3" d="M71.7,172.9c0.3,0.2,0.7,0.4,1,0.5c0.3,0.1,0.7,0.2,1.1,0.2c0.4,0,0.7,0,0.9-0.1s0.3-0.2,0.3-0.4
		c0-0.2-0.1-0.3-0.4-0.5c-0.3-0.1-0.7-0.2-1.2-0.4c-0.3-0.1-0.5-0.2-0.8-0.3s-0.5-0.2-0.7-0.4c-0.2-0.1-0.4-0.3-0.5-0.5
		c-0.1-0.2-0.2-0.4-0.2-0.6c0-0.3,0.1-0.5,0.2-0.8c0.1-0.2,0.3-0.4,0.5-0.6c0.2-0.2,0.5-0.3,0.9-0.4s0.7-0.1,1.1-0.1
		c0.5,0,1,0.1,1.4,0.3c0.4,0.2,0.8,0.4,1.1,0.6l-0.8,1.1c-0.3-0.2-0.6-0.3-0.8-0.4s-0.6-0.2-0.9-0.2c-0.4,0-0.6,0-0.8,0.1
		c-0.2,0.1-0.2,0.2-0.2,0.3c0,0.1,0,0.2,0.1,0.2s0.2,0.1,0.3,0.2c0.1,0.1,0.3,0.1,0.5,0.2c0.2,0.1,0.4,0.1,0.6,0.2
		c0.3,0.1,0.6,0.2,0.8,0.3s0.5,0.2,0.7,0.4c0.2,0.1,0.4,0.3,0.5,0.5c0.1,0.2,0.2,0.4,0.2,0.7c0,0.3-0.1,0.5-0.2,0.8
		c-0.1,0.2-0.3,0.4-0.6,0.6s-0.5,0.3-0.9,0.4c-0.4,0.1-0.8,0.1-1.3,0.1c-0.5,0-1.1-0.1-1.6-0.3c-0.5-0.2-1-0.4-1.3-0.6L71.7,172.9z"
		/>
	<path class="st3" d="M78.1,171.8c0-0.5,0.1-0.9,0.3-1.3s0.4-0.7,0.7-1c0.3-0.3,0.6-0.5,1-0.6c0.4-0.1,0.8-0.2,1.2-0.2
		c0.5,0,0.9,0.1,1.2,0.2c0.4,0.1,0.6,0.3,0.9,0.6c0.2,0.3,0.4,0.6,0.5,0.9s0.2,0.7,0.2,1.1c0,0.2,0,0.3,0,0.5c0,0.1,0,0.3,0,0.3h-4
		c0.1,0.4,0.3,0.8,0.6,1c0.3,0.2,0.7,0.3,1.1,0.3c0.3,0,0.5,0,0.8-0.1c0.2-0.1,0.5-0.2,0.8-0.3l0.6,1.1c-0.3,0.2-0.7,0.4-1.1,0.5
		s-0.8,0.2-1.2,0.2c-0.5,0-0.9-0.1-1.3-0.2c-0.4-0.1-0.7-0.3-1-0.6c-0.3-0.3-0.5-0.6-0.7-1S78.1,172.3,78.1,171.8z M82.4,171.2
		c0-0.3-0.1-0.6-0.3-0.8c-0.2-0.2-0.5-0.3-0.9-0.3c-0.3,0-0.6,0.1-0.9,0.3c-0.2,0.2-0.4,0.5-0.5,0.9H82.4z"/>
	<path class="st3" d="M86.1,168.9h1.4l0.1,1.3h0c0.3-0.5,0.7-0.8,1.1-1.1c0.4-0.2,0.9-0.4,1.3-0.4c0.3,0,0.5,0,0.6,0.1
		s0.3,0.1,0.5,0.2l-0.4,1.5c-0.2-0.1-0.4-0.1-0.5-0.1s-0.3,0-0.6,0c-0.4,0-0.7,0.1-1.1,0.3c-0.4,0.2-0.7,0.6-0.9,1.1v3.1h-1.8V168.9
		z"/>
	<path d="M99.9,168.8h5.5v1.2h-5.5V168.8z M99.9,171.6h5.5v1.2h-5.5V171.6z"/>
	<path class="st3" d="M114.3,171.8c0-0.5,0.1-0.9,0.3-1.3s0.4-0.7,0.8-1c0.3-0.3,0.7-0.5,1.1-0.6s0.9-0.2,1.3-0.2
		c0.5,0,0.9,0.1,1.3,0.2c0.4,0.2,0.7,0.3,1,0.6l-0.8,1.1c-0.4-0.3-0.9-0.5-1.3-0.5c-0.5,0-0.9,0.2-1.2,0.5c-0.3,0.3-0.5,0.7-0.5,1.2
		c0,0.5,0.2,0.9,0.5,1.2c0.3,0.3,0.7,0.5,1.2,0.5c0.3,0,0.6-0.1,0.9-0.2c0.3-0.1,0.5-0.2,0.7-0.4l0.7,1.1c-0.4,0.3-0.8,0.5-1.2,0.7
		c-0.4,0.1-0.9,0.2-1.3,0.2c-0.5,0-0.9-0.1-1.3-0.2c-0.4-0.1-0.8-0.3-1.1-0.6c-0.3-0.3-0.5-0.6-0.7-1
		C114.4,172.8,114.3,172.3,114.3,171.8z"/>
	<path class="st3" d="M121.2,171.8c0-0.5,0.1-0.9,0.3-1.3s0.4-0.7,0.7-1c0.3-0.3,0.6-0.5,1-0.6c0.4-0.1,0.7-0.2,1.1-0.2
		c0.4,0,0.8,0.1,1.1,0.2c0.4,0.1,0.7,0.3,1,0.6c0.3,0.3,0.5,0.6,0.7,1s0.3,0.8,0.3,1.3s-0.1,0.9-0.3,1.3c-0.2,0.4-0.4,0.7-0.7,1
		c-0.3,0.3-0.6,0.5-1,0.6c-0.4,0.1-0.7,0.2-1.1,0.2c-0.4,0-0.8-0.1-1.1-0.2c-0.4-0.1-0.7-0.3-1-0.6c-0.3-0.3-0.5-0.6-0.7-1
		C121.3,172.8,121.2,172.3,121.2,171.8z M123.1,171.8c0,0.5,0.1,0.9,0.3,1.2c0.2,0.3,0.5,0.5,0.9,0.5c0.4,0,0.7-0.2,0.9-0.5
		c0.2-0.3,0.3-0.7,0.3-1.2c0-0.5-0.1-0.9-0.3-1.2s-0.5-0.5-0.9-0.5c-0.4,0-0.7,0.2-0.9,0.5S123.1,171.3,123.1,171.8z"/>
	<path class="st3" d="M128.7,168.9h1.4l0.1,0.8h0c0.3-0.3,0.6-0.5,0.9-0.7c0.3-0.2,0.7-0.3,1.2-0.3c0.7,0,1.2,0.2,1.5,0.6
		c0.3,0.4,0.5,1,0.5,1.8v3.7h-1.8v-3.4c0-0.4-0.1-0.7-0.2-0.9c-0.1-0.2-0.4-0.3-0.7-0.3c-0.2,0-0.4,0.1-0.6,0.2
		c-0.2,0.1-0.4,0.3-0.6,0.5v4h-1.8V168.9z"/>
	<path class="st3" d="M137.2,170.2h-1.5v-1.3l1.6-0.1l0.2-1.6h1.5v1.6h2.5v1.4h-2.5v2.1c0,0.5,0.1,0.8,0.3,1
		c0.2,0.2,0.5,0.3,0.9,0.3c0.2,0,0.4,0,0.6-0.1c0.2,0,0.4-0.1,0.6-0.2l0.3,1.3c-0.3,0.1-0.6,0.2-0.9,0.2c-0.3,0.1-0.7,0.1-1.1,0.1
		c-0.5,0-0.9-0.1-1.2-0.2s-0.6-0.3-0.8-0.5c-0.2-0.2-0.4-0.5-0.4-0.8c-0.1-0.3-0.1-0.7-0.1-1.1V170.2z"/>
	<path class="st3" d="M142.9,171.8c0-0.5,0.1-0.9,0.3-1.3s0.4-0.7,0.7-1c0.3-0.3,0.6-0.5,1-0.6c0.4-0.1,0.8-0.2,1.2-0.2
		c0.5,0,0.9,0.1,1.2,0.2c0.4,0.1,0.6,0.3,0.9,0.6c0.2,0.3,0.4,0.6,0.5,0.9s0.2,0.7,0.2,1.1c0,0.2,0,0.3,0,0.5c0,0.1,0,0.3,0,0.3h-4
		c0.1,0.4,0.3,0.8,0.6,1c0.3,0.2,0.7,0.3,1.1,0.3c0.3,0,0.5,0,0.8-0.1c0.2-0.1,0.5-0.2,0.8-0.3l0.6,1.1c-0.3,0.2-0.7,0.4-1.1,0.5
		s-0.8,0.2-1.2,0.2c-0.5,0-0.9-0.1-1.3-0.2c-0.4-0.1-0.7-0.3-1-0.6c-0.3-0.3-0.5-0.6-0.7-1S142.9,172.3,142.9,171.8z M147.2,171.2
		c0-0.3-0.1-0.6-0.3-0.8c-0.2-0.2-0.5-0.3-0.9-0.3c-0.3,0-0.6,0.1-0.9,0.3c-0.2,0.2-0.4,0.5-0.5,0.9H147.2z"/>
	<path class="st3" d="M152,171.7l-1.9-2.9h1.9l0.6,1c0.1,0.2,0.2,0.3,0.3,0.5c0.1,0.2,0.2,0.3,0.3,0.5h0c0.1-0.2,0.2-0.3,0.2-0.5
		c0.1-0.2,0.2-0.3,0.2-0.5l0.5-1h1.8l-1.9,3.1l2.1,2.9h-1.9l-0.7-1c-0.1-0.2-0.2-0.3-0.3-0.5c-0.1-0.2-0.2-0.3-0.3-0.5h0
		c-0.1,0.2-0.2,0.3-0.3,0.5c-0.1,0.2-0.2,0.3-0.3,0.5l-0.6,1h-1.8L152,171.7z"/>
	<path class="st3" d="M158.8,170.2h-1.5v-1.3l1.6-0.1l0.2-1.6h1.5v1.6h2.5v1.4h-2.5v2.1c0,0.5,0.1,0.8,0.3,1
		c0.2,0.2,0.5,0.3,0.9,0.3c0.2,0,0.4,0,0.6-0.1c0.2,0,0.4-0.1,0.6-0.2l0.3,1.3c-0.3,0.1-0.6,0.2-0.9,0.2c-0.3,0.1-0.7,0.1-1.1,0.1
		c-0.5,0-0.9-0.1-1.2-0.2s-0.6-0.3-0.8-0.5c-0.2-0.2-0.4-0.5-0.4-0.8c-0.1-0.3-0.1-0.7-0.1-1.1V170.2z"/>
	<path d="M166.1,173.6c0-0.2,0-0.4,0.1-0.6c0.1-0.2,0.2-0.3,0.3-0.4c0.1-0.1,0.3-0.2,0.4-0.3c0.2-0.1,0.4-0.1,0.6-0.1s0.4,0,0.6,0.1
		c0.2,0.1,0.3,0.2,0.4,0.3s0.2,0.3,0.3,0.4c0.1,0.2,0.1,0.4,0.1,0.6c0,0.4-0.1,0.7-0.4,1c-0.3,0.3-0.6,0.4-1,0.4s-0.8-0.1-1-0.4
		C166.2,174.3,166.1,174,166.1,173.6z"/>
	<path class="st4" d="M171.9,171.8c0-0.5,0.1-0.9,0.3-1.3s0.4-0.7,0.8-1c0.3-0.3,0.7-0.5,1.1-0.6s0.9-0.2,1.3-0.2
		c0.5,0,0.9,0.1,1.3,0.2c0.4,0.2,0.7,0.3,1,0.6l-0.8,1.1c-0.4-0.3-0.9-0.5-1.3-0.5c-0.5,0-0.9,0.2-1.2,0.5c-0.3,0.3-0.5,0.7-0.5,1.2
		c0,0.5,0.2,0.9,0.5,1.2c0.3,0.3,0.7,0.5,1.2,0.5c0.3,0,0.6-0.1,0.9-0.2c0.3-0.1,0.5-0.2,0.7-0.4l0.7,1.1c-0.4,0.3-0.8,0.5-1.2,0.7
		c-0.4,0.1-0.9,0.2-1.3,0.2c-0.5,0-0.9-0.1-1.3-0.2c-0.4-0.1-0.8-0.3-1.1-0.6c-0.3-0.3-0.5-0.6-0.7-1
		C172,172.8,171.9,172.3,171.9,171.8z"/>
	<path class="st4" d="M179.7,168.9h1.4l0.1,1.3h0c0.3-0.5,0.7-0.8,1.1-1.1c0.4-0.2,0.9-0.4,1.3-0.4c0.3,0,0.5,0,0.6,0.1
		s0.3,0.1,0.5,0.2l-0.4,1.5c-0.2-0.1-0.3-0.1-0.5-0.1c-0.1,0-0.3,0-0.6,0c-0.4,0-0.7,0.1-1.1,0.3c-0.4,0.2-0.7,0.6-0.9,1.1v3.1h-1.8
		V168.9z"/>
	<path class="st4" d="M186.1,171.8c0-0.5,0.1-0.9,0.3-1.3s0.4-0.7,0.7-1c0.3-0.3,0.6-0.5,1-0.6c0.4-0.1,0.8-0.2,1.2-0.2
		c0.5,0,0.9,0.1,1.2,0.2c0.4,0.1,0.6,0.3,0.9,0.6c0.2,0.3,0.4,0.6,0.5,0.9s0.2,0.7,0.2,1.1c0,0.2,0,0.3,0,0.5c0,0.1,0,0.3,0,0.3h-4
		c0.1,0.4,0.3,0.8,0.6,1c0.3,0.2,0.7,0.3,1.1,0.3c0.3,0,0.5,0,0.8-0.1c0.2-0.1,0.5-0.2,0.8-0.3l0.6,1.1c-0.3,0.2-0.7,0.4-1.1,0.5
		s-0.8,0.2-1.2,0.2c-0.5,0-0.9-0.1-1.3-0.2c-0.4-0.1-0.7-0.3-1-0.6c-0.3-0.3-0.5-0.6-0.7-1S186.1,172.3,186.1,171.8z M190.4,171.2
		c0-0.3-0.1-0.6-0.3-0.8c-0.2-0.2-0.5-0.3-0.9-0.3c-0.3,0-0.6,0.1-0.9,0.3c-0.2,0.2-0.4,0.5-0.5,0.9H190.4z"/>
	<path class="st4" d="M193.4,173.2c0-0.3,0.1-0.6,0.2-0.9s0.4-0.5,0.7-0.6c0.3-0.2,0.7-0.3,1.2-0.4c0.5-0.1,1.1-0.2,1.8-0.2
		c0-0.3-0.2-0.5-0.4-0.6c-0.2-0.2-0.5-0.2-0.9-0.2c-0.3,0-0.6,0.1-0.9,0.2c-0.3,0.1-0.6,0.2-0.9,0.4l-0.6-1.2
		c0.4-0.2,0.8-0.4,1.3-0.6c0.5-0.2,1-0.2,1.5-0.2c0.8,0,1.5,0.2,2,0.7c0.5,0.4,0.7,1.1,0.7,2v3.4h-1.4l-0.1-0.7h0
		c-0.3,0.2-0.6,0.4-1,0.6c-0.4,0.2-0.7,0.2-1.1,0.2c-0.3,0-0.6,0-0.8-0.1s-0.4-0.2-0.6-0.4c-0.2-0.2-0.3-0.4-0.4-0.6
		S193.4,173.4,193.4,173.2z M195.1,173c0,0.2,0.1,0.3,0.2,0.4c0.1,0.1,0.3,0.1,0.6,0.1c0.3,0,0.5-0.1,0.7-0.2
		c0.2-0.1,0.5-0.2,0.7-0.4v-1c-0.4,0-0.8,0.1-1.1,0.1c-0.3,0.1-0.5,0.1-0.7,0.2s-0.3,0.2-0.4,0.3C195.1,172.8,195.1,172.9,195.1,173
		z"/>
	<path class="st4" d="M202,170.2h-1.5v-1.3l1.6-0.1l0.2-1.6h1.5v1.6h2.5v1.4h-2.5v2.1c0,0.5,0.1,0.8,0.3,1c0.2,0.2,0.5,0.3,0.9,0.3
		c0.2,0,0.4,0,0.6-0.1c0.2,0,0.4-0.1,0.6-0.2l0.3,1.3c-0.3,0.1-0.6,0.2-0.9,0.2c-0.3,0.1-0.7,0.1-1.1,0.1c-0.5,0-0.9-0.1-1.2-0.2
		s-0.6-0.3-0.8-0.5c-0.2-0.2-0.4-0.5-0.4-0.8c-0.1-0.3-0.1-0.7-0.1-1.1V170.2z"/>
	<path class="st4" d="M207.7,171.8c0-0.5,0.1-0.9,0.3-1.3s0.4-0.7,0.7-1c0.3-0.3,0.6-0.5,1-0.6c0.4-0.1,0.8-0.2,1.2-0.2
		c0.5,0,0.9,0.1,1.2,0.2c0.4,0.1,0.6,0.3,0.9,0.6c0.2,0.3,0.4,0.6,0.5,0.9s0.2,0.7,0.2,1.1c0,0.2,0,0.3,0,0.5c0,0.1,0,0.3,0,0.3h-4
		c0.1,0.4,0.3,0.8,0.6,1c0.3,0.2,0.7,0.3,1.1,0.3c0.3,0,0.5,0,0.8-0.1c0.2-0.1,0.5-0.2,0.8-0.3l0.6,1.1c-0.3,0.2-0.7,0.4-1.1,0.5
		s-0.8,0.2-1.2,0.2c-0.5,0-0.9-0.1-1.3-0.2c-0.4-0.1-0.7-0.3-1-0.6c-0.3-0.3-0.5-0.6-0.7-1S207.7,172.3,207.7,171.8z M212,171.2
		c0-0.3-0.1-0.6-0.3-0.8c-0.2-0.2-0.5-0.3-0.9-0.3c-0.3,0-0.6,0.1-0.9,0.3c-0.2,0.2-0.4,0.5-0.5,0.9H212z"/>
	<path class="st4" d="M219,173h-2.4l-0.5,1.9h-1.8l2.4-7.8h2.1l2.4,7.8h-1.9L219,173z M218.7,171.6l-0.2-0.7
		c-0.1-0.4-0.2-0.8-0.3-1.2c-0.1-0.4-0.2-0.9-0.3-1.3h0c-0.1,0.4-0.2,0.8-0.3,1.3c-0.1,0.4-0.2,0.9-0.3,1.2l-0.2,0.7H218.7z"/>
	<path class="st4" d="M222.3,168.9h1.4l0.1,0.8h0c0.3-0.3,0.5-0.5,0.9-0.7c0.3-0.2,0.7-0.3,1.2-0.3c0.7,0,1.2,0.2,1.5,0.6
		c0.3,0.4,0.5,1,0.5,1.8v3.7h-1.8v-3.4c0-0.4-0.1-0.7-0.2-0.9c-0.1-0.2-0.4-0.3-0.7-0.3c-0.2,0-0.4,0.1-0.6,0.2
		c-0.2,0.1-0.4,0.3-0.6,0.5v4h-1.8V168.9z"/>
	<path class="st4" d="M229.4,173.2c0-0.3,0.1-0.6,0.2-0.9c0.1-0.3,0.4-0.5,0.7-0.6s0.7-0.3,1.2-0.4c0.5-0.1,1.1-0.2,1.8-0.2
		c0-0.3-0.1-0.5-0.4-0.6s-0.5-0.2-0.9-0.2c-0.3,0-0.6,0.1-0.9,0.2c-0.3,0.1-0.6,0.2-0.9,0.4l-0.6-1.2c0.4-0.2,0.8-0.4,1.3-0.6
		c0.5-0.2,1-0.2,1.5-0.2c0.8,0,1.5,0.2,2,0.7c0.5,0.4,0.7,1.1,0.7,2v3.4h-1.4l-0.1-0.7h0c-0.3,0.2-0.6,0.4-1,0.6s-0.7,0.2-1.1,0.2
		c-0.3,0-0.6,0-0.8-0.1c-0.2-0.1-0.4-0.2-0.6-0.4s-0.3-0.4-0.4-0.6C229.5,173.7,229.4,173.4,229.4,173.2z M231.1,173
		c0,0.2,0.1,0.3,0.2,0.4c0.1,0.1,0.4,0.1,0.6,0.1c0.3,0,0.5-0.1,0.7-0.2c0.2-0.1,0.5-0.2,0.7-0.4v-1c-0.4,0-0.8,0.1-1.1,0.1
		c-0.3,0.1-0.5,0.1-0.7,0.2s-0.3,0.2-0.4,0.3C231.1,172.8,231.1,172.9,231.1,173z"/>
	<path class="st4" d="M236.6,166.4h3.5v6.2c0,0.2,0,0.3,0.1,0.5c0.1,0.1,0.1,0.2,0.2,0.3s0.2,0.1,0.3,0.2c0.1,0,0.2,0,0.4,0
		c0.1,0,0.3,0,0.4,0c0.2,0,0.3-0.1,0.5-0.1l0.4,1.3c-0.2,0-0.3,0.1-0.4,0.1s-0.3,0.1-0.4,0.1c-0.1,0-0.3,0-0.4,0.1
		c-0.2,0-0.3,0-0.5,0c-0.8,0-1.3-0.2-1.7-0.7c-0.4-0.4-0.6-1-0.6-1.8v-4.7h-1.7V166.4z"/>
	<path class="st4" d="M244.7,175.8c0.3,0,0.6-0.1,0.8-0.2c0.2-0.1,0.3-0.3,0.4-0.6l0.1-0.3l-2.6-5.8h1.8l1,2.6
		c0.1,0.3,0.2,0.6,0.3,0.9c0.1,0.3,0.2,0.6,0.3,0.9h0c0.1-0.3,0.2-0.6,0.3-0.9c0.1-0.3,0.2-0.6,0.3-0.9l0.9-2.6h1.7l-2.4,6
		c-0.1,0.4-0.3,0.7-0.5,1c-0.2,0.3-0.4,0.5-0.6,0.7c-0.2,0.2-0.5,0.3-0.8,0.4c-0.3,0.1-0.6,0.1-1,0.1c-0.2,0-0.3,0-0.5,0
		c-0.2,0-0.3,0-0.4-0.1l0.3-1.3C244.3,175.7,244.5,175.8,244.7,175.8z"/>
	<path class="st4" d="M251.7,172.9c0.3,0.2,0.7,0.4,1,0.5c0.3,0.1,0.7,0.2,1.1,0.2c0.4,0,0.7,0,0.9-0.1s0.3-0.2,0.3-0.4
		c0-0.2-0.1-0.3-0.4-0.5c-0.3-0.1-0.7-0.2-1.2-0.4c-0.3-0.1-0.5-0.2-0.8-0.3s-0.5-0.2-0.7-0.4c-0.2-0.1-0.4-0.3-0.5-0.5
		c-0.1-0.2-0.2-0.4-0.2-0.6c0-0.3,0.1-0.5,0.2-0.8c0.1-0.2,0.3-0.4,0.5-0.6s0.5-0.3,0.9-0.4s0.7-0.1,1.1-0.1c0.5,0,1,0.1,1.4,0.3
		s0.8,0.4,1.1,0.6l-0.8,1.1c-0.3-0.2-0.6-0.3-0.8-0.4s-0.6-0.2-0.9-0.2c-0.4,0-0.6,0-0.8,0.1s-0.2,0.2-0.2,0.3c0,0.1,0,0.2,0.1,0.2
		s0.2,0.1,0.3,0.2c0.1,0.1,0.3,0.1,0.5,0.2c0.2,0.1,0.4,0.1,0.6,0.2c0.3,0.1,0.6,0.2,0.8,0.3c0.3,0.1,0.5,0.2,0.7,0.4
		c0.2,0.1,0.4,0.3,0.5,0.5c0.1,0.2,0.2,0.4,0.2,0.7c0,0.3-0.1,0.5-0.2,0.8c-0.1,0.2-0.3,0.4-0.6,0.6s-0.5,0.3-0.9,0.4
		s-0.8,0.1-1.3,0.1c-0.5,0-1.1-0.1-1.6-0.3c-0.5-0.2-1-0.4-1.3-0.6L251.7,172.9z"/>
	<path class="st4" d="M258.1,171.8c0-0.5,0.1-0.9,0.3-1.3s0.4-0.7,0.7-1c0.3-0.3,0.6-0.5,1-0.6c0.4-0.1,0.8-0.2,1.2-0.2
		c0.5,0,0.9,0.1,1.2,0.2c0.4,0.1,0.6,0.3,0.9,0.6c0.2,0.3,0.4,0.6,0.5,0.9s0.2,0.7,0.2,1.1c0,0.2,0,0.3,0,0.5c0,0.1,0,0.3,0,0.3h-4
		c0.1,0.4,0.3,0.8,0.6,1c0.3,0.2,0.7,0.3,1.1,0.3c0.3,0,0.5,0,0.8-0.1c0.2-0.1,0.5-0.2,0.8-0.3l0.6,1.1c-0.3,0.2-0.7,0.4-1.1,0.5
		s-0.8,0.2-1.2,0.2c-0.5,0-0.9-0.1-1.3-0.2c-0.4-0.1-0.7-0.3-1-0.6c-0.3-0.3-0.5-0.6-0.7-1S258.1,172.3,258.1,171.8z M262.4,171.2
		c0-0.3-0.1-0.6-0.3-0.8c-0.2-0.2-0.5-0.3-0.9-0.3c-0.3,0-0.6,0.1-0.9,0.3c-0.2,0.2-0.4,0.5-0.5,0.9H262.4z"/>
	<path class="st4" d="M266.1,168.9h1.4l0.1,1.3h0c0.3-0.5,0.7-0.8,1.1-1.1c0.4-0.2,0.9-0.4,1.3-0.4c0.3,0,0.5,0,0.6,0.1
		s0.3,0.1,0.5,0.2l-0.4,1.5c-0.2-0.1-0.3-0.1-0.5-0.1c-0.1,0-0.3,0-0.6,0c-0.4,0-0.7,0.1-1.1,0.3c-0.4,0.2-0.7,0.6-0.9,1.1v3.1h-1.8
		V168.9z"/>
	<path d="M274.7,174.6c-0.5-0.9-0.7-1.9-0.7-3.1s0.2-2.2,0.7-3.1s1.1-1.7,1.9-2.4l1,0.8c-0.7,0.7-1.2,1.4-1.6,2.2s-0.5,1.6-0.5,2.5
		c0,0.5,0,0.9,0.1,1.3s0.2,0.8,0.4,1.2s0.4,0.8,0.6,1.1c0.3,0.4,0.6,0.7,0.9,1l-1,0.8C275.8,176.3,275.2,175.5,274.7,174.6z"/>
	<path d="M280.6,176.2c0.4-0.3,0.7-0.7,0.9-1c0.3-0.4,0.5-0.7,0.6-1.1s0.3-0.8,0.4-1.2c0.1-0.4,0.1-0.9,0.1-1.3
		c0-0.9-0.2-1.8-0.5-2.5s-0.8-1.5-1.6-2.2l1-0.8c0.8,0.7,1.4,1.5,1.9,2.4c0.5,0.9,0.7,1.9,0.7,3.1s-0.2,2.2-0.7,3.1
		c-0.5,0.9-1.1,1.7-1.9,2.4L280.6,176.2z"/>
	<path d="M288.5,176.4c1-0.4,1.6-0.9,1.6-1.7c0,0-0.1,0-0.1,0c-0.2,0-0.3,0-0.5-0.1c-0.2-0.1-0.3-0.1-0.4-0.2
		c-0.1-0.1-0.2-0.2-0.3-0.4c-0.1-0.2-0.1-0.3-0.1-0.5c0-0.4,0.1-0.7,0.4-0.9c0.3-0.2,0.6-0.3,1-0.3c0.5,0,0.9,0.2,1.1,0.5
		c0.2,0.4,0.4,0.9,0.4,1.5c0,0.8-0.2,1.4-0.6,1.9c-0.4,0.5-1.1,0.9-1.9,1.2L288.5,176.4z M288.5,169.7c0-0.2,0-0.4,0.1-0.6
		c0.1-0.2,0.2-0.3,0.3-0.4s0.3-0.2,0.4-0.3c0.2-0.1,0.4-0.1,0.6-0.1s0.4,0,0.6,0.1c0.2,0.1,0.3,0.2,0.4,0.3s0.2,0.3,0.3,0.4
		c0.1,0.2,0.1,0.4,0.1,0.6c0,0.4-0.1,0.7-0.4,1c-0.3,0.3-0.6,0.4-1,0.4s-0.8-0.1-1-0.4C288.6,170.4,288.5,170.1,288.5,169.7z"/>
</g>
</svg>
