<?xml version="1.0" encoding="utf-8"?>
<!-- Generator: Adobe Illustrator 24.0.0, SVG Export Plug-In . SVG Version: 6.00 Build 0)  -->
<svg version="1.1" id="Layer_1" xmlns="http://www.w3.org/2000/svg" xmlns:xlink="http://www.w3.org/1999/xlink" x="0px" y="0px"
	 viewBox="0 0 336 365" style="enable-background:new 0 0 336 365;" xml:space="preserve">
<style type="text/css">
	.st0{fill:#FFFFFF;stroke:#000000;stroke-miterlimit:10;}
	.st1{fill:none;stroke:#000000;stroke-miterlimit:10;}
	.st2{fill:#00FFC8;stroke:#000000;stroke-miterlimit:10;}
	.st3{fill:#0000FF;}
	.st4{fill:#FF00FF;}
	.st5{fill:#00AF5F;}
</style>
<path class="st0" d="M168.8,361.1H3.3c0,0,4.6-46.6,6.3-95.5s-0.5-89.4-0.2-97.2c0.7-17.9,3.6-50.4,3.6-50.4s3.5-27.1,16.7-37.7
	s59.7-39.1,121-50.2s67-10,67-10h112.7c7.6,59.3-5.2,130-7.6,178.6s2.7,64.4,4.5,159.9L168.8,361.1"/>
<path class="st1" d="M29.6,80.2c0,0,29.1-3.1,51.2,14.6c0,0,14.9-41.4,83.6-67.4"/>
<g>
	<path class="st2" d="M223.7,34.6c0.1,0.6,3.3,11.4-3.1,18.2c-4.3,4.8-10.5,5.2-12.8,5.3c-5.8,0.4-11.5-1.7-15.8-5.6
		c-5.7-5.3-8.6-14.5-5.2-22.2c2.1-4.2,5.6-7.6,9.8-9.4c3.6-1.4,7.6-1.9,11.5-1.4"/>
	<line class="st1" x1="180.5" y1="66.1" x2="190.9" y2="51.6"/>
	<line class="st1" x1="180.5" y1="66.1" x2="194.5" y2="54.5"/>
	<path class="st2" d="M237.5,18.3c0.4,7.7-5.7,14.3-13.4,14.6c-0.7,0-1.4,0-2.2-0.1c-5.3-0.7-12.1-5.8-12.3-13.5
		C208.9,11.6,214.4,4.7,222,4s14.5,4.8,15.2,12.4C237.4,17.1,237.5,17.7,237.5,18.3L237.5,18.3z"/>
	<path class="st1" d="M194.5,27.1c3.5,0.5,7-0.5,9.8-2.5s4.8-5.1,5.6-8.6"/>
	<path class="st1" d="M215.4,46c-1.9,1.9-2.5,2.1-2.7,1.9c-0.8-0.6,1.9-8.7,8.8-12.7c2.3-1.3,4.7-2.4,7.1-3.4"/>
</g>
<g>
	<path class="st3" d="M27.8,144.1c-0.4-0.1-0.7-0.2-1.1-0.2c-0.4,0-0.6,0.1-0.8,0.2s-0.2,0.4-0.2,0.7v0.2h1.9v1.3h-1.9v4.2h-1.6
		v-4.2h-1.4v-1.2l1.4-0.1v-0.1c0-0.3,0-0.6,0.1-0.9c0.1-0.3,0.2-0.5,0.4-0.7c0.2-0.2,0.5-0.4,0.8-0.5s0.7-0.2,1.1-0.2
		c0.3,0,0.6,0,0.9,0.1s0.5,0.1,0.8,0.2L27.8,144.1z"/>
	<path class="st3" d="M29.1,142.8h1.6v1.9l0,0.9c0.2-0.2,0.5-0.4,0.7-0.5c0.3-0.1,0.5-0.2,0.8-0.2c0.3,0,0.6,0.1,0.9,0.2
		c0.3,0.1,0.5,0.3,0.7,0.6c0.2,0.2,0.3,0.5,0.4,0.9c0.1,0.3,0.2,0.7,0.2,1.1c0,0.5-0.1,0.9-0.2,1.3c-0.1,0.4-0.3,0.7-0.5,0.9
		c-0.2,0.3-0.5,0.4-0.8,0.6c-0.3,0.1-0.6,0.2-0.9,0.2c-0.3,0-0.5-0.1-0.8-0.2c-0.3-0.1-0.5-0.3-0.7-0.5h0l-0.1,0.6h-1.3V142.8z
		 M30.7,148.9c0.2,0.1,0.3,0.2,0.5,0.3s0.3,0.1,0.5,0.1c0.3,0,0.6-0.1,0.8-0.4c0.2-0.3,0.3-0.7,0.3-1.2c0-1-0.3-1.5-1-1.5
		c-0.3,0-0.7,0.2-1,0.5V148.9z"/>
	<path class="st3" d="M35.7,147.8c0-0.5,0.1-0.9,0.3-1.2c0.2-0.4,0.4-0.7,0.7-0.9s0.6-0.4,1-0.6s0.8-0.2,1.2-0.2
		c0.4,0,0.8,0.1,1.2,0.2s0.6,0.3,0.9,0.5l-0.7,1c-0.4-0.3-0.8-0.4-1.2-0.4c-0.5,0-0.9,0.1-1.1,0.4c-0.3,0.3-0.4,0.7-0.4,1.1
		c0,0.5,0.1,0.9,0.4,1.1c0.3,0.3,0.7,0.4,1.1,0.4c0.3,0,0.6-0.1,0.8-0.2c0.2-0.1,0.5-0.2,0.6-0.4l0.7,1c-0.3,0.3-0.7,0.5-1.1,0.6
		c-0.4,0.1-0.8,0.2-1.2,0.2c-0.4,0-0.8-0.1-1.2-0.2c-0.4-0.1-0.7-0.3-1-0.6c-0.3-0.2-0.5-0.5-0.6-0.9
		C35.7,148.6,35.7,148.2,35.7,147.8z"/>
	<path class="st3" d="M47.5,151.1v1.2h-5.3v-1.2H47.5z"/>
	<path class="st3" d="M48.8,149c0-0.3,0.1-0.6,0.2-0.8c0.1-0.2,0.3-0.4,0.6-0.6s0.7-0.3,1.1-0.4c0.5-0.1,1-0.2,1.6-0.2
		c0-0.2-0.1-0.4-0.3-0.6s-0.5-0.2-0.8-0.2c-0.3,0-0.5,0-0.8,0.1c-0.3,0.1-0.6,0.2-0.9,0.4l-0.6-1.1c0.4-0.2,0.8-0.4,1.2-0.5
		c0.4-0.1,0.9-0.2,1.3-0.2c0.8,0,1.4,0.2,1.8,0.6c0.4,0.4,0.7,1,0.7,1.9v3.1h-1.3l-0.1-0.6h0c-0.3,0.2-0.6,0.4-0.9,0.5
		c-0.3,0.1-0.7,0.2-1,0.2c-0.3,0-0.5,0-0.7-0.1c-0.2-0.1-0.4-0.2-0.6-0.4c-0.2-0.2-0.3-0.3-0.4-0.5S48.8,149.2,48.8,149z
		 M50.3,148.8c0,0.2,0.1,0.3,0.2,0.4c0.1,0.1,0.3,0.1,0.6,0.1c0.2,0,0.5,0,0.7-0.1c0.2-0.1,0.4-0.2,0.6-0.4v-0.9
		c-0.4,0-0.7,0.1-1,0.1c-0.3,0.1-0.5,0.1-0.6,0.2c-0.2,0.1-0.3,0.2-0.3,0.3S50.3,148.7,50.3,148.8z"/>
	<path class="st3" d="M56,145h1.3l0.1,1.2h0c0.3-0.4,0.6-0.8,1-1c0.4-0.2,0.8-0.3,1.2-0.3c0.2,0,0.4,0,0.6,0.1
		c0.2,0,0.3,0.1,0.5,0.2l-0.3,1.4c-0.2-0.1-0.3-0.1-0.5-0.1c-0.1,0-0.3,0-0.5,0c-0.3,0-0.7,0.1-1,0.3s-0.6,0.5-0.8,1v2.8H56V145z"/>
	<path class="st3" d="M62.6,145h1.3l0.1,1.2h0c0.3-0.4,0.6-0.8,1-1c0.4-0.2,0.8-0.3,1.2-0.3c0.2,0,0.4,0,0.6,0.1
		c0.2,0,0.3,0.1,0.5,0.2l-0.3,1.4c-0.2-0.1-0.3-0.1-0.5-0.1c-0.1,0-0.3,0-0.5,0c-0.3,0-0.7,0.1-1,0.3s-0.6,0.5-0.8,1v2.8h-1.6V145z"
		/>
	<path class="st3" d="M68.6,149c0-0.3,0.1-0.6,0.2-0.8c0.1-0.2,0.3-0.4,0.6-0.6s0.7-0.3,1.1-0.4c0.5-0.1,1-0.2,1.6-0.2
		c0-0.2-0.1-0.4-0.3-0.6s-0.5-0.2-0.8-0.2c-0.3,0-0.5,0-0.8,0.1c-0.3,0.1-0.6,0.2-0.9,0.4l-0.6-1.1c0.4-0.2,0.8-0.4,1.2-0.5
		c0.4-0.1,0.9-0.2,1.3-0.2c0.8,0,1.4,0.2,1.8,0.6c0.4,0.4,0.7,1,0.7,1.9v3.1h-1.3l-0.1-0.6h0c-0.3,0.2-0.6,0.4-0.9,0.5
		c-0.3,0.1-0.7,0.2-1,0.2c-0.3,0-0.5,0-0.7-0.1c-0.2-0.1-0.4-0.2-0.6-0.4c-0.2-0.2-0.3-0.3-0.4-0.5S68.6,149.2,68.6,149z
		 M70.1,148.8c0,0.2,0.1,0.3,0.2,0.4c0.1,0.1,0.3,0.1,0.6,0.1c0.2,0,0.5,0,0.7-0.1c0.2-0.1,0.4-0.2,0.6-0.4v-0.9
		c-0.4,0-0.7,0.1-1,0.1c-0.3,0.1-0.5,0.1-0.6,0.2c-0.2,0.1-0.3,0.2-0.3,0.3S70.1,148.7,70.1,148.8z"/>
	<path class="st3" d="M76,151.3c0.3,0,0.6-0.1,0.7-0.2s0.3-0.3,0.4-0.5l0.1-0.3l-2.4-5.3h1.6l0.9,2.3c0.1,0.3,0.2,0.5,0.3,0.8
		s0.2,0.6,0.3,0.8h0c0.1-0.3,0.2-0.5,0.2-0.8c0.1-0.3,0.2-0.5,0.3-0.8l0.8-2.3h1.5l-2.2,5.5c-0.1,0.3-0.3,0.6-0.4,0.9
		c-0.2,0.3-0.3,0.5-0.5,0.6c-0.2,0.2-0.4,0.3-0.7,0.4s-0.6,0.1-0.9,0.1c-0.2,0-0.3,0-0.5,0c-0.1,0-0.3,0-0.4-0.1l0.3-1.2
		C75.7,151.3,75.8,151.3,76,151.3z"/>
	<path d="M88.5,145h5.1v1.1h-5.1V145z M88.5,147.5h5.1v1.1h-5.1V147.5z"/>
	<path class="st4" d="M22.5,158.2h1.3L24,159h0c0.2-0.2,0.5-0.4,0.8-0.6s0.7-0.3,1.1-0.3c0.6,0,1.1,0.2,1.4,0.6
		c0.3,0.4,0.4,0.9,0.4,1.6v3.4H26v-3.2c0-0.4-0.1-0.6-0.2-0.8s-0.3-0.3-0.6-0.3c-0.2,0-0.4,0-0.6,0.1c-0.2,0.1-0.3,0.2-0.5,0.4v3.6
		h-1.6V158.2z"/>
	<path class="st4" d="M28.9,161c0-0.4,0.1-0.8,0.2-1.2c0.2-0.4,0.4-0.7,0.6-0.9c0.3-0.2,0.6-0.4,0.9-0.6c0.3-0.1,0.7-0.2,1.1-0.2
		c0.4,0,0.8,0.1,1.1,0.2c0.3,0.1,0.6,0.3,0.8,0.5s0.4,0.5,0.5,0.8c0.1,0.3,0.2,0.7,0.2,1c0,0.1,0,0.3,0,0.4s0,0.2,0,0.3h-3.7
		c0.1,0.4,0.2,0.7,0.5,0.9c0.3,0.2,0.6,0.3,1.1,0.3c0.2,0,0.5,0,0.7-0.1s0.5-0.2,0.7-0.3l0.5,1c-0.3,0.2-0.7,0.4-1,0.5
		c-0.4,0.1-0.8,0.2-1.1,0.2c-0.4,0-0.8-0.1-1.2-0.2s-0.7-0.3-1-0.6c-0.3-0.2-0.5-0.5-0.6-0.9C29,161.8,28.9,161.4,28.9,161z
		 M32.9,160.4c0-0.3-0.1-0.6-0.3-0.7c-0.2-0.2-0.4-0.3-0.8-0.3c-0.3,0-0.6,0.1-0.8,0.3c-0.2,0.2-0.4,0.4-0.5,0.8H32.9z"/>
	<path class="st4" d="M35,158.2h1.6l0.3,2.5c0,0.3,0.1,0.5,0.1,0.8c0,0.3,0.1,0.5,0.1,0.8h0c0-0.3,0.1-0.6,0.1-0.8
		c0-0.3,0.1-0.5,0.1-0.8l0.3-1.8h1.1l0.4,1.8c0.1,0.3,0.1,0.5,0.1,0.8s0.1,0.5,0.1,0.8h0c0-0.3,0.1-0.6,0.1-0.8s0.1-0.5,0.1-0.8
		l0.3-2.5h1.5l-0.8,5.5h-1.9l-0.3-1.8c0-0.3-0.1-0.5-0.1-0.8c0-0.3-0.1-0.5-0.1-0.8h0c0,0.2,0,0.4-0.1,0.7c0,0.2-0.1,0.6-0.1,0.9
		l-0.3,1.8h-1.8L35,158.2z"/>
	<path class="st5" d="M48.8,156.5h1.6v4.6c0,0.4,0.1,0.8,0.2,1c0.2,0.2,0.4,0.3,0.8,0.3s0.6-0.1,0.8-0.3c0.2-0.2,0.2-0.6,0.2-1v-4.6
		H54v4.4c0,0.9-0.2,1.7-0.6,2.2c-0.4,0.5-1.1,0.7-1.9,0.7c-0.9,0-1.5-0.2-2-0.7s-0.6-1.2-0.6-2.2V156.5z"/>
	<path class="st5" d="M55.6,158.2h3.8v5.5h-1.6v-4.2h-2.2V158.2z M58.5,157.4c-0.3,0-0.6-0.1-0.8-0.3c-0.2-0.2-0.3-0.4-0.3-0.7
		s0.1-0.5,0.3-0.7c0.2-0.2,0.5-0.3,0.8-0.3s0.6,0.1,0.8,0.3c0.2,0.2,0.3,0.4,0.3,0.7s-0.1,0.5-0.3,0.7
		C59.1,157.3,58.8,157.4,58.5,157.4z"/>
	<path class="st5" d="M62.1,158.2h1.3l0.1,0.7h0c0.2-0.2,0.5-0.4,0.8-0.6s0.7-0.3,1.1-0.3c0.6,0,1.1,0.2,1.4,0.6
		c0.3,0.4,0.4,0.9,0.4,1.6v3.4h-1.6v-3.2c0-0.4-0.1-0.6-0.2-0.8s-0.3-0.3-0.6-0.3c-0.2,0-0.4,0-0.6,0.1c-0.2,0.1-0.3,0.2-0.5,0.4
		v3.6h-1.6V158.2z"/>
	<path class="st5" d="M69.8,159.5h-1.4v-1.2l1.5-0.1l0.2-1.5h1.3v1.5h2.3v1.3h-2.3v1.9c0,0.4,0.1,0.7,0.3,0.9
		c0.2,0.2,0.5,0.3,0.9,0.3c0.2,0,0.4,0,0.6-0.1c0.2,0,0.3-0.1,0.5-0.1l0.3,1.2c-0.2,0.1-0.5,0.1-0.8,0.2c-0.3,0.1-0.6,0.1-1,0.1
		c-0.4,0-0.8-0.1-1.1-0.2s-0.5-0.3-0.7-0.5s-0.3-0.5-0.4-0.8c-0.1-0.3-0.1-0.6-0.1-1V159.5z"/>
	<path class="st5" d="M75.2,161.9c0-0.2,0-0.4,0.1-0.6s0.2-0.3,0.3-0.5c0.1-0.1,0.3-0.3,0.4-0.4c0.2-0.1,0.3-0.2,0.5-0.3v0
		c-0.3-0.2-0.5-0.4-0.7-0.7c-0.2-0.3-0.3-0.6-0.3-1c0-0.3,0.1-0.6,0.2-0.8c0.1-0.2,0.3-0.4,0.5-0.6c0.2-0.2,0.5-0.3,0.8-0.4
		c0.3-0.1,0.6-0.1,1-0.1c0.4,0,0.7,0,1,0.1s0.5,0.2,0.7,0.4c0.2,0.2,0.4,0.4,0.5,0.6c0.1,0.2,0.2,0.5,0.2,0.8c0,0.3-0.1,0.6-0.3,0.9
		s-0.4,0.5-0.7,0.6v0c0.2,0.1,0.4,0.2,0.5,0.3c0.2,0.1,0.3,0.2,0.4,0.4c0.1,0.1,0.2,0.3,0.3,0.5c0.1,0.2,0.1,0.4,0.1,0.6
		c0,0.3-0.1,0.5-0.2,0.8c-0.1,0.2-0.3,0.4-0.5,0.6c-0.2,0.2-0.5,0.3-0.8,0.4s-0.7,0.1-1.1,0.1c-0.4,0-0.8,0-1.1-0.1
		c-0.3-0.1-0.6-0.2-0.8-0.4c-0.2-0.2-0.4-0.4-0.5-0.6S75.2,162.2,75.2,161.9z M76.6,161.7c0,0.3,0.1,0.5,0.4,0.7
		c0.2,0.2,0.5,0.3,0.9,0.3c0.3,0,0.6-0.1,0.8-0.2c0.2-0.1,0.3-0.4,0.3-0.7c0-0.2,0-0.3-0.1-0.4c-0.1-0.1-0.2-0.2-0.3-0.3
		s-0.3-0.2-0.5-0.3c-0.2-0.1-0.4-0.2-0.7-0.3c-0.2,0.1-0.4,0.3-0.5,0.5C76.7,161.3,76.6,161.5,76.6,161.7z M78.3,159.6
		c0.4-0.3,0.5-0.7,0.5-1c0-0.3-0.1-0.5-0.3-0.7c-0.2-0.2-0.4-0.2-0.7-0.2c-0.3,0-0.5,0.1-0.7,0.2c-0.2,0.1-0.3,0.3-0.3,0.6
		c0,0.3,0.1,0.5,0.4,0.7C77.5,159.3,77.9,159.5,78.3,159.6z"/>
	<path class="st5" d="M85.5,162h-2.2l-0.4,1.7h-1.6l2.2-7.2h1.9l2.2,7.2h-1.7L85.5,162z M85.1,160.7l-0.2-0.7
		c-0.1-0.4-0.2-0.7-0.3-1.1c-0.1-0.4-0.2-0.8-0.3-1.2h0c-0.1,0.4-0.2,0.8-0.3,1.2c-0.1,0.4-0.2,0.8-0.3,1.1l-0.2,0.7H85.1z"/>
	<path class="st5" d="M89,158.2h1.3l0.1,1.2h0c0.3-0.4,0.6-0.8,1-1c0.4-0.2,0.8-0.3,1.2-0.3c0.2,0,0.4,0,0.6,0.1
		c0.2,0,0.3,0.1,0.5,0.2l-0.3,1.4c-0.2-0.1-0.3-0.1-0.5-0.1c-0.1,0-0.3,0-0.5,0c-0.3,0-0.7,0.1-1,0.3s-0.6,0.5-0.8,1v2.8H89V158.2z"
		/>
	<path class="st5" d="M95.6,158.2h1.3l0.1,1.2h0c0.3-0.4,0.6-0.8,1-1c0.4-0.2,0.8-0.3,1.2-0.3c0.2,0,0.4,0,0.6,0.1
		c0.2,0,0.3,0.1,0.5,0.2l-0.3,1.4c-0.2-0.1-0.3-0.1-0.5-0.1c-0.1,0-0.3,0-0.5,0c-0.3,0-0.7,0.1-1,0.3s-0.6,0.5-0.8,1v2.8h-1.6V158.2
		z"/>
	<path class="st5" d="M101.6,162.2c0-0.3,0.1-0.6,0.2-0.8c0.1-0.2,0.3-0.4,0.6-0.6s0.7-0.3,1.1-0.4c0.5-0.1,1-0.2,1.6-0.2
		c0-0.2-0.1-0.4-0.3-0.6s-0.5-0.2-0.8-0.2c-0.3,0-0.5,0-0.8,0.1c-0.3,0.1-0.6,0.2-0.9,0.4l-0.6-1.1c0.4-0.2,0.8-0.4,1.2-0.5
		c0.4-0.1,0.9-0.2,1.3-0.2c0.8,0,1.4,0.2,1.8,0.6c0.4,0.4,0.7,1,0.7,1.9v3.1h-1.3l-0.1-0.6h0c-0.3,0.2-0.6,0.4-0.9,0.5
		c-0.3,0.1-0.7,0.2-1,0.2c-0.3,0-0.5,0-0.7-0.1c-0.2-0.1-0.4-0.2-0.6-0.4c-0.2-0.2-0.3-0.3-0.4-0.5S101.6,162.4,101.6,162.2z
		 M103.1,162c0,0.2,0.1,0.3,0.2,0.4c0.1,0.1,0.3,0.1,0.6,0.1c0.2,0,0.5,0,0.7-0.1c0.2-0.1,0.4-0.2,0.6-0.4v-0.9
		c-0.4,0-0.7,0.1-1,0.1c-0.3,0.1-0.5,0.1-0.6,0.2c-0.2,0.1-0.3,0.2-0.3,0.3S103.1,161.9,103.1,162z"/>
	<path class="st5" d="M109,164.5c0.3,0,0.6-0.1,0.7-0.2s0.3-0.3,0.4-0.5l0.1-0.3l-2.4-5.3h1.6l0.9,2.3c0.1,0.3,0.2,0.5,0.3,0.8
		s0.2,0.6,0.3,0.8h0c0.1-0.3,0.2-0.5,0.2-0.8c0.1-0.3,0.2-0.5,0.3-0.8l0.8-2.3h1.5l-2.2,5.5c-0.1,0.3-0.3,0.6-0.4,0.9
		c-0.2,0.3-0.3,0.5-0.5,0.6c-0.2,0.2-0.4,0.3-0.7,0.4s-0.6,0.1-0.9,0.1c-0.2,0-0.3,0-0.5,0c-0.1,0-0.3,0-0.4-0.1l0.3-1.2
		C108.7,164.5,108.8,164.5,109,164.5z"/>
	<path d="M116.7,163.4c-0.4-0.8-0.6-1.8-0.6-2.8c0-1,0.2-2,0.6-2.8c0.4-0.8,1-1.6,1.7-2.2l0.9,0.7c-0.7,0.6-1.1,1.3-1.4,2
		c-0.3,0.7-0.4,1.5-0.4,2.3c0,0.4,0,0.8,0.1,1.2c0.1,0.4,0.2,0.8,0.3,1.1c0.2,0.4,0.3,0.7,0.6,1c0.2,0.3,0.5,0.6,0.8,1l-0.9,0.7
		C117.7,165,117.1,164.3,116.7,163.4z"/>
	<path class="st3" d="M121.4,162.2c0-0.3,0.1-0.6,0.2-0.8c0.1-0.2,0.3-0.4,0.6-0.6s0.7-0.3,1.1-0.4c0.5-0.1,1-0.2,1.6-0.2
		c0-0.2-0.1-0.4-0.3-0.6s-0.5-0.2-0.8-0.2c-0.3,0-0.5,0-0.8,0.1c-0.3,0.1-0.6,0.2-0.9,0.4l-0.6-1.1c0.4-0.2,0.8-0.4,1.2-0.5
		c0.4-0.1,0.9-0.2,1.3-0.2c0.8,0,1.4,0.2,1.8,0.6c0.4,0.4,0.7,1,0.7,1.9v3.1h-1.3l-0.1-0.6h0c-0.3,0.2-0.6,0.4-0.9,0.5
		c-0.3,0.1-0.7,0.2-1,0.2c-0.3,0-0.5,0-0.7-0.1c-0.2-0.1-0.4-0.2-0.6-0.4c-0.2-0.2-0.3-0.3-0.4-0.5S121.4,162.4,121.4,162.2z
		 M122.9,162c0,0.2,0.1,0.3,0.2,0.4c0.1,0.1,0.3,0.1,0.6,0.1c0.2,0,0.5,0,0.7-0.1c0.2-0.1,0.4-0.2,0.6-0.4v-0.9
		c-0.4,0-0.7,0.1-1,0.1c-0.3,0.1-0.5,0.1-0.6,0.2c-0.2,0.1-0.3,0.2-0.3,0.3S122.9,161.9,122.9,162z"/>
	<path class="st3" d="M128.1,158.2h1.3l0.1,0.7h0c0.2-0.2,0.5-0.4,0.8-0.6s0.7-0.3,1.1-0.3c0.6,0,1.1,0.2,1.4,0.6
		c0.3,0.4,0.4,0.9,0.4,1.6v3.4h-1.6v-3.2c0-0.4-0.1-0.6-0.2-0.8s-0.3-0.3-0.6-0.3c-0.2,0-0.4,0-0.6,0.1c-0.2,0.1-0.3,0.2-0.5,0.4
		v3.6h-1.6V158.2z"/>
	<path class="st3" d="M134.6,162.2c0-0.3,0.1-0.6,0.2-0.8c0.1-0.2,0.3-0.4,0.6-0.6s0.7-0.3,1.1-0.4c0.5-0.1,1-0.2,1.6-0.2
		c0-0.2-0.1-0.4-0.3-0.6s-0.5-0.2-0.8-0.2c-0.3,0-0.5,0-0.8,0.1c-0.3,0.1-0.6,0.2-0.9,0.4l-0.6-1.1c0.4-0.2,0.8-0.4,1.2-0.5
		c0.4-0.1,0.9-0.2,1.3-0.2c0.8,0,1.4,0.2,1.8,0.6c0.4,0.4,0.7,1,0.7,1.9v3.1h-1.3l-0.1-0.6h0c-0.3,0.2-0.6,0.4-0.9,0.5
		c-0.3,0.1-0.7,0.2-1,0.2c-0.3,0-0.5,0-0.7-0.1c-0.2-0.1-0.4-0.2-0.6-0.4c-0.2-0.2-0.3-0.3-0.4-0.5S134.6,162.4,134.6,162.2z
		 M136.1,162c0,0.2,0.1,0.3,0.2,0.4c0.1,0.1,0.3,0.1,0.6,0.1c0.2,0,0.5,0,0.7-0.1c0.2-0.1,0.4-0.2,0.6-0.4v-0.9
		c-0.4,0-0.7,0.1-1,0.1c-0.3,0.1-0.5,0.1-0.6,0.2c-0.2,0.1-0.3,0.2-0.3,0.3S136.1,161.9,136.1,162z"/>
	<path class="st3" d="M141.2,156h3.2v5.6c0,0.2,0,0.3,0.1,0.4c0,0.1,0.1,0.2,0.2,0.3c0.1,0.1,0.2,0.1,0.3,0.1s0.2,0,0.3,0
		c0.1,0,0.3,0,0.4,0c0.1,0,0.3-0.1,0.5-0.1l0.4,1.2c-0.1,0-0.3,0.1-0.4,0.1c-0.1,0-0.2,0.1-0.4,0.1c-0.1,0-0.3,0-0.4,0.1
		c-0.1,0-0.3,0-0.5,0c-0.7,0-1.2-0.2-1.6-0.6c-0.3-0.4-0.5-1-0.5-1.7v-4.3h-1.6V156z"/>
	<path class="st3" d="M148.6,164.5c0.3,0,0.6-0.1,0.7-0.2s0.3-0.3,0.4-0.5l0.1-0.3l-2.4-5.3h1.6l0.9,2.3c0.1,0.3,0.2,0.5,0.3,0.8
		s0.2,0.6,0.3,0.8h0c0.1-0.3,0.2-0.5,0.2-0.8c0.1-0.3,0.2-0.5,0.3-0.8l0.8-2.3h1.5l-2.2,5.5c-0.1,0.3-0.3,0.6-0.4,0.9
		c-0.2,0.3-0.3,0.5-0.5,0.6c-0.2,0.2-0.4,0.3-0.7,0.4s-0.6,0.1-0.9,0.1c-0.2,0-0.3,0-0.5,0c-0.1,0-0.3,0-0.4-0.1l0.3-1.2
		C148.3,164.5,148.4,164.5,148.6,164.5z"/>
	<path class="st3" d="M155,162c0.3,0.2,0.6,0.4,1,0.5c0.3,0.1,0.7,0.2,1,0.2c0.4,0,0.6,0,0.8-0.1c0.2-0.1,0.2-0.2,0.2-0.3
		c0-0.2-0.1-0.3-0.4-0.4c-0.3-0.1-0.6-0.2-1.1-0.3c-0.2-0.1-0.5-0.1-0.7-0.2s-0.4-0.2-0.6-0.3c-0.2-0.1-0.3-0.3-0.4-0.4
		c-0.1-0.2-0.2-0.4-0.2-0.6c0-0.2,0.1-0.5,0.2-0.7c0.1-0.2,0.3-0.4,0.5-0.5c0.2-0.1,0.5-0.3,0.8-0.3c0.3-0.1,0.7-0.1,1.1-0.1
		c0.5,0,0.9,0.1,1.3,0.2c0.4,0.2,0.7,0.3,1,0.5l-0.7,1c-0.2-0.1-0.5-0.3-0.8-0.4c-0.3-0.1-0.5-0.1-0.8-0.1c-0.3,0-0.6,0-0.7,0.1
		s-0.2,0.2-0.2,0.3c0,0.1,0,0.2,0.1,0.2c0.1,0.1,0.2,0.1,0.3,0.2c0.1,0.1,0.3,0.1,0.4,0.1c0.2,0,0.4,0.1,0.5,0.1
		c0.3,0.1,0.5,0.2,0.8,0.2c0.2,0.1,0.5,0.2,0.6,0.3c0.2,0.1,0.3,0.3,0.4,0.5s0.2,0.4,0.2,0.6c0,0.2-0.1,0.5-0.2,0.7
		c-0.1,0.2-0.3,0.4-0.5,0.6c-0.2,0.2-0.5,0.3-0.8,0.4c-0.3,0.1-0.7,0.1-1.2,0.1c-0.5,0-1-0.1-1.4-0.2s-0.9-0.4-1.2-0.6L155,162z"/>
	<path class="st3" d="M160.9,161c0-0.4,0.1-0.8,0.2-1.2c0.2-0.4,0.4-0.7,0.6-0.9c0.3-0.2,0.6-0.4,0.9-0.6c0.3-0.1,0.7-0.2,1.1-0.2
		c0.4,0,0.8,0.1,1.1,0.2c0.3,0.1,0.6,0.3,0.8,0.5s0.4,0.5,0.5,0.8c0.1,0.3,0.2,0.7,0.2,1c0,0.1,0,0.3,0,0.4s0,0.2,0,0.3h-3.7
		c0.1,0.4,0.2,0.7,0.5,0.9c0.3,0.2,0.6,0.3,1.1,0.3c0.2,0,0.5,0,0.7-0.1s0.5-0.2,0.7-0.3l0.5,1c-0.3,0.2-0.7,0.4-1,0.5
		c-0.4,0.1-0.8,0.2-1.1,0.2c-0.4,0-0.8-0.1-1.2-0.2s-0.7-0.3-1-0.6c-0.3-0.2-0.5-0.5-0.6-0.9C161,161.8,160.9,161.4,160.9,161z
		 M164.9,160.4c0-0.3-0.1-0.6-0.3-0.7c-0.2-0.2-0.4-0.3-0.8-0.3c-0.3,0-0.6,0.1-0.8,0.3c-0.2,0.2-0.4,0.4-0.5,0.8H164.9z"/>
	<path class="st3" d="M168.2,158.2h1.3l0.1,1.2h0c0.3-0.4,0.6-0.8,1-1c0.4-0.2,0.8-0.3,1.2-0.3c0.2,0,0.4,0,0.6,0.1
		c0.2,0,0.3,0.1,0.5,0.2l-0.3,1.4c-0.2-0.1-0.3-0.1-0.5-0.1c-0.1,0-0.3,0-0.5,0c-0.3,0-0.7,0.1-1,0.3s-0.6,0.5-0.8,1v2.8h-1.6V158.2
		z"/>
	<path d="M175.5,162.5c0-0.2,0-0.4,0.1-0.5c0.1-0.2,0.1-0.3,0.3-0.4s0.2-0.2,0.4-0.3c0.2-0.1,0.3-0.1,0.5-0.1c0.2,0,0.4,0,0.5,0.1
		c0.2,0.1,0.3,0.2,0.4,0.3c0.1,0.1,0.2,0.3,0.3,0.4c0.1,0.2,0.1,0.3,0.1,0.5c0,0.4-0.1,0.7-0.4,0.9c-0.2,0.2-0.5,0.4-0.9,0.4
		s-0.7-0.1-0.9-0.4C175.7,163.2,175.5,162.9,175.5,162.5z"/>
	<path class="st3" d="M186.2,157.3c-0.4-0.1-0.7-0.2-1.1-0.2c-0.4,0-0.6,0.1-0.8,0.2s-0.2,0.4-0.2,0.7v0.2h1.9v1.3h-1.9v4.2h-1.6
		v-4.2H181v-1.2l1.4-0.1v-0.1c0-0.3,0-0.6,0.1-0.9c0.1-0.3,0.2-0.5,0.4-0.7c0.2-0.2,0.5-0.4,0.8-0.5s0.7-0.2,1.1-0.2
		c0.3,0,0.6,0,0.9,0.1s0.5,0.1,0.8,0.2L186.2,157.3z"/>
	<path class="st3" d="M188,158.2h1.3l0.1,1.2h0c0.3-0.4,0.6-0.8,1-1c0.4-0.2,0.8-0.3,1.2-0.3c0.2,0,0.4,0,0.6,0.1
		c0.2,0,0.3,0.1,0.5,0.2l-0.3,1.4c-0.2-0.1-0.3-0.1-0.5-0.1c-0.1,0-0.3,0-0.5,0c-0.3,0-0.7,0.1-1,0.3s-0.6,0.5-0.8,1v2.8H188V158.2z
		"/>
	<path class="st3" d="M193.9,161c0-0.4,0.1-0.8,0.2-1.2c0.2-0.4,0.4-0.7,0.6-0.9c0.3-0.2,0.6-0.4,0.9-0.6c0.3-0.1,0.7-0.2,1.1-0.2
		c0.4,0,0.8,0.1,1.1,0.2c0.3,0.1,0.6,0.3,0.8,0.5s0.4,0.5,0.5,0.8c0.1,0.3,0.2,0.7,0.2,1c0,0.1,0,0.3,0,0.4s0,0.2,0,0.3h-3.7
		c0.1,0.4,0.2,0.7,0.5,0.9c0.3,0.2,0.6,0.3,1.1,0.3c0.2,0,0.5,0,0.7-0.1s0.5-0.2,0.7-0.3l0.5,1c-0.3,0.2-0.7,0.4-1,0.5
		c-0.4,0.1-0.8,0.2-1.1,0.2c-0.4,0-0.8-0.1-1.2-0.2s-0.7-0.3-1-0.6c-0.3-0.2-0.5-0.5-0.6-0.9C194,161.8,193.9,161.4,193.9,161z
		 M197.9,160.4c0-0.3-0.1-0.6-0.3-0.7c-0.2-0.2-0.4-0.3-0.8-0.3c-0.3,0-0.6,0.1-0.8,0.3c-0.2,0.2-0.4,0.4-0.5,0.8H197.9z"/>
	<path class="st3" d="M200.4,161c0-0.4,0.1-0.8,0.2-1.2c0.1-0.4,0.3-0.7,0.5-0.9c0.2-0.2,0.5-0.4,0.7-0.6c0.3-0.1,0.6-0.2,0.9-0.2
		c0.3,0,0.6,0.1,0.8,0.2c0.2,0.1,0.5,0.3,0.7,0.5h0l0.1-0.6h1.3v7.5h-1.6V164l0.1-0.8c-0.2,0.2-0.4,0.3-0.7,0.5s-0.5,0.2-0.8,0.2
		c-0.3,0-0.7-0.1-0.9-0.2c-0.3-0.1-0.5-0.3-0.7-0.6c-0.2-0.2-0.4-0.5-0.5-0.9C200.5,161.8,200.4,161.4,200.4,161z M202.1,160.9
		c0,0.5,0.1,0.9,0.3,1.2c0.2,0.2,0.4,0.4,0.8,0.4c0.2,0,0.4,0,0.5-0.1c0.2-0.1,0.3-0.2,0.5-0.4v-2.2c-0.1-0.1-0.3-0.2-0.4-0.3
		c-0.2-0.1-0.3-0.1-0.5-0.1c-0.3,0-0.6,0.1-0.8,0.4C202.2,160,202.1,160.4,202.1,160.9z"/>
	<path class="st3" d="M212.3,163.7H211l-0.1-0.8h0c-0.2,0.3-0.5,0.5-0.8,0.7c-0.3,0.2-0.6,0.2-1,0.2c-0.6,0-1.1-0.2-1.4-0.6
		c-0.3-0.4-0.4-0.9-0.4-1.6v-3.4h1.6v3.2c0,0.4,0.1,0.6,0.2,0.8c0.1,0.2,0.3,0.3,0.6,0.3c0.2,0,0.4,0,0.5-0.1
		c0.2-0.1,0.3-0.3,0.5-0.5v-3.6h1.6V163.7z"/>
	<path class="st3" d="M213.7,161c0-0.4,0.1-0.8,0.2-1.2c0.2-0.4,0.4-0.7,0.6-0.9c0.3-0.2,0.6-0.4,0.9-0.6c0.3-0.1,0.7-0.2,1.1-0.2
		c0.4,0,0.8,0.1,1.1,0.2c0.3,0.1,0.6,0.3,0.8,0.5s0.4,0.5,0.5,0.8c0.1,0.3,0.2,0.7,0.2,1c0,0.1,0,0.3,0,0.4s0,0.2,0,0.3h-3.7
		c0.1,0.4,0.2,0.7,0.5,0.9c0.3,0.2,0.6,0.3,1.1,0.3c0.2,0,0.5,0,0.7-0.1s0.5-0.2,0.7-0.3l0.5,1c-0.3,0.2-0.7,0.4-1,0.5
		c-0.4,0.1-0.8,0.2-1.1,0.2c-0.4,0-0.8-0.1-1.2-0.2s-0.7-0.3-1-0.6c-0.3-0.2-0.5-0.5-0.6-0.9C213.8,161.8,213.7,161.4,213.7,161z
		 M217.7,160.4c0-0.3-0.1-0.6-0.3-0.7c-0.2-0.2-0.4-0.3-0.8-0.3c-0.3,0-0.6,0.1-0.8,0.3c-0.2,0.2-0.4,0.4-0.5,0.8H217.7z"/>
	<path class="st3" d="M220.5,158.2h1.3l0.1,0.7h0c0.2-0.2,0.5-0.4,0.8-0.6c0.3-0.2,0.7-0.3,1.1-0.3c0.6,0,1.1,0.2,1.4,0.6
		c0.3,0.4,0.4,0.9,0.4,1.6v3.4H224v-3.2c0-0.4-0.1-0.6-0.2-0.8s-0.3-0.3-0.6-0.3c-0.2,0-0.4,0-0.6,0.1c-0.2,0.1-0.3,0.2-0.5,0.4v3.6
		h-1.6V158.2z"/>
	<path class="st3" d="M227.1,161c0-0.5,0.1-0.9,0.3-1.2c0.2-0.4,0.4-0.7,0.7-0.9c0.3-0.2,0.6-0.4,1-0.6s0.8-0.2,1.2-0.2
		c0.4,0,0.8,0.1,1.2,0.2c0.3,0.1,0.6,0.3,0.9,0.5l-0.7,1c-0.4-0.3-0.8-0.4-1.2-0.4c-0.5,0-0.9,0.1-1.1,0.4c-0.3,0.3-0.4,0.7-0.4,1.1
		c0,0.5,0.1,0.9,0.4,1.1c0.3,0.3,0.7,0.4,1.1,0.4c0.3,0,0.6-0.1,0.8-0.2s0.5-0.2,0.6-0.4l0.7,1c-0.3,0.3-0.7,0.5-1.1,0.6
		c-0.4,0.1-0.8,0.2-1.2,0.2c-0.4,0-0.8-0.1-1.2-0.2c-0.4-0.1-0.7-0.3-1-0.6s-0.5-0.5-0.6-0.9C227.1,161.8,227.1,161.4,227.1,161z"/>
	<path class="st3" d="M234.4,164.5c0.3,0,0.6-0.1,0.7-0.2s0.3-0.3,0.4-0.5l0.1-0.3l-2.4-5.3h1.6l0.9,2.3c0.1,0.3,0.2,0.5,0.3,0.8
		s0.2,0.6,0.3,0.8h0c0.1-0.3,0.2-0.5,0.2-0.8c0.1-0.3,0.2-0.5,0.3-0.8l0.8-2.3h1.5l-2.2,5.5c-0.1,0.3-0.3,0.6-0.4,0.9
		c-0.2,0.3-0.3,0.5-0.5,0.6c-0.2,0.2-0.4,0.3-0.7,0.4s-0.6,0.1-0.9,0.1c-0.2,0-0.3,0-0.5,0s-0.3,0-0.4-0.1l0.3-1.2
		C234.1,164.5,234.2,164.5,234.4,164.5z"/>
	<path class="st3" d="M240.4,156.5h2.2c0.4,0,0.7,0,1,0.1c0.3,0.1,0.6,0.2,0.8,0.3c0.2,0.1,0.4,0.3,0.6,0.5s0.2,0.5,0.2,0.9
		c0,0.2,0,0.3-0.1,0.5c0,0.2-0.1,0.3-0.2,0.5c-0.1,0.1-0.2,0.3-0.4,0.4s-0.3,0.2-0.5,0.2v0c0.5,0.1,0.9,0.3,1.2,0.5s0.4,0.6,0.4,1.1
		c0,0.4-0.1,0.7-0.2,0.9c-0.1,0.3-0.3,0.5-0.6,0.7c-0.3,0.2-0.5,0.3-0.9,0.4c-0.3,0.1-0.7,0.1-1.1,0.1h-2.5V156.5z M242.6,159.4
		c0.4,0,0.7-0.1,0.9-0.2c0.2-0.2,0.3-0.4,0.3-0.6s-0.1-0.5-0.3-0.6s-0.5-0.2-0.8-0.2h-0.6v1.6H242.6z M242.8,162.4
		c0.9,0,1.3-0.3,1.3-1c0-0.3-0.1-0.5-0.3-0.7c-0.2-0.1-0.5-0.2-1-0.2h-0.7v1.9H242.8z"/>
	<path class="st3" d="M247,158.2h3.8v5.5h-1.6v-4.2H247V158.2z M249.9,157.4c-0.3,0-0.6-0.1-0.8-0.3c-0.2-0.2-0.3-0.4-0.3-0.7
		s0.1-0.5,0.3-0.7c0.2-0.2,0.5-0.3,0.8-0.3s0.6,0.1,0.8,0.3c0.2,0.2,0.3,0.4,0.3,0.7s-0.1,0.5-0.3,0.7
		C250.5,157.3,250.2,157.4,249.9,157.4z"/>
	<path class="st3" d="M253.5,158.2h1.3l0.1,0.7h0c0.2-0.2,0.5-0.4,0.8-0.6c0.3-0.2,0.7-0.3,1.1-0.3c0.6,0,1.1,0.2,1.4,0.6
		c0.3,0.4,0.4,0.9,0.4,1.6v3.4H257v-3.2c0-0.4-0.1-0.6-0.2-0.8s-0.3-0.3-0.6-0.3c-0.2,0-0.4,0-0.6,0.1c-0.2,0.1-0.3,0.2-0.5,0.4v3.6
		h-1.6V158.2z"/>
	<path class="st3" d="M259.9,160.1c0-0.6,0.1-1.1,0.3-1.6c0.2-0.5,0.4-0.9,0.7-1.2c0.3-0.3,0.7-0.6,1.1-0.7s0.9-0.3,1.3-0.3
		c0.5,0,0.9,0.1,1.2,0.3c0.4,0.2,0.7,0.4,0.9,0.6l-0.9,1c-0.2-0.2-0.4-0.3-0.5-0.4c-0.2-0.1-0.4-0.1-0.7-0.1c-0.3,0-0.5,0.1-0.7,0.2
		s-0.4,0.3-0.6,0.5s-0.3,0.4-0.4,0.7c-0.1,0.3-0.1,0.6-0.1,1c0,0.7,0.2,1.3,0.5,1.7c0.3,0.4,0.8,0.6,1.3,0.6c0.3,0,0.5-0.1,0.7-0.2
		c0.2-0.1,0.4-0.3,0.6-0.5l0.9,1c-0.6,0.7-1.4,1.1-2.3,1.1c-0.5,0-0.9-0.1-1.3-0.2c-0.4-0.2-0.8-0.4-1.1-0.7
		c-0.3-0.3-0.6-0.7-0.7-1.1C260,161.3,259.9,160.7,259.9,160.1z"/>
	<path class="st3" d="M266.4,161c0-0.5,0.1-0.9,0.2-1.2c0.2-0.4,0.4-0.7,0.6-0.9s0.6-0.4,0.9-0.6c0.3-0.1,0.7-0.2,1-0.2
		s0.7,0.1,1,0.2s0.6,0.3,0.9,0.6c0.3,0.2,0.5,0.5,0.6,0.9s0.2,0.8,0.2,1.2c0,0.5-0.1,0.9-0.2,1.2c-0.2,0.4-0.4,0.7-0.6,0.9
		c-0.3,0.2-0.6,0.4-0.9,0.6s-0.7,0.2-1,0.2s-0.7-0.1-1-0.2c-0.3-0.1-0.6-0.3-0.9-0.6s-0.5-0.5-0.6-0.9
		C266.5,161.8,266.4,161.4,266.4,161z M268.1,161c0,0.5,0.1,0.9,0.3,1.1c0.2,0.3,0.5,0.4,0.8,0.4c0.4,0,0.7-0.1,0.8-0.4
		c0.2-0.3,0.3-0.7,0.3-1.1c0-0.5-0.1-0.9-0.3-1.1c-0.2-0.3-0.5-0.4-0.8-0.4c-0.4,0-0.7,0.1-0.8,0.4
		C268.2,160.1,268.1,160.5,268.1,161z"/>
	<path class="st3" d="M278.3,163.7H277l-0.1-0.8h0c-0.2,0.3-0.5,0.5-0.8,0.7s-0.6,0.2-1,0.2c-0.6,0-1.1-0.2-1.4-0.6
		c-0.3-0.4-0.4-0.9-0.4-1.6v-3.4h1.6v3.2c0,0.4,0.1,0.6,0.2,0.8c0.1,0.2,0.3,0.3,0.6,0.3c0.2,0,0.4,0,0.5-0.1
		c0.2-0.1,0.3-0.3,0.5-0.5v-3.6h1.6V163.7z"/>
	<path class="st3" d="M279.9,158.2h1.3l0.1,0.7h0c0.2-0.2,0.5-0.4,0.8-0.6s0.7-0.3,1.1-0.3c0.6,0,1.1,0.2,1.4,0.6
		c0.3,0.4,0.4,0.9,0.4,1.6v3.4h-1.6v-3.2c0-0.4-0.1-0.6-0.2-0.8s-0.3-0.3-0.6-0.3c-0.2,0-0.4,0-0.6,0.1c-0.2,0.1-0.3,0.2-0.5,0.4
		v3.6h-1.6V158.2z"/>
	<path class="st3" d="M287.6,159.5h-1.4v-1.2l1.5-0.1l0.2-1.5h1.3v1.5h2.3v1.3h-2.3v1.9c0,0.4,0.1,0.7,0.3,0.9
		c0.2,0.2,0.5,0.3,0.9,0.3c0.2,0,0.4,0,0.6-0.1c0.2,0,0.3-0.1,0.5-0.1l0.3,1.2c-0.2,0.1-0.5,0.1-0.8,0.2c-0.3,0.1-0.6,0.1-1,0.1
		c-0.4,0-0.8-0.1-1.1-0.2s-0.5-0.3-0.7-0.5s-0.3-0.5-0.4-0.8c-0.1-0.3-0.1-0.6-0.1-1V159.5z"/>
	<path d="M293.7,164.9c0.3-0.3,0.6-0.6,0.8-1c0.2-0.3,0.4-0.7,0.6-1c0.2-0.4,0.3-0.7,0.3-1.1c0.1-0.4,0.1-0.8,0.1-1.2
		c0-0.9-0.1-1.6-0.4-2.3c-0.3-0.7-0.8-1.3-1.4-2l0.9-0.7c0.7,0.6,1.3,1.4,1.7,2.2s0.6,1.8,0.6,2.8c0,1-0.2,2-0.6,2.8s-1,1.6-1.7,2.2
		L293.7,164.9z"/>
	<path d="M300.9,165.1c1-0.3,1.4-0.9,1.4-1.6c0,0-0.1,0-0.1,0c-0.2,0-0.3,0-0.4-0.1c-0.1,0-0.3-0.1-0.4-0.2
		c-0.1-0.1-0.2-0.2-0.3-0.4s-0.1-0.3-0.1-0.5c0-0.3,0.1-0.6,0.4-0.8c0.2-0.2,0.5-0.3,0.9-0.3c0.5,0,0.8,0.2,1,0.5
		c0.2,0.3,0.3,0.8,0.3,1.4c0,0.7-0.2,1.3-0.6,1.8c-0.4,0.5-1,0.8-1.7,1.1L300.9,165.1z M300.9,159c0-0.2,0-0.4,0.1-0.5
		c0.1-0.2,0.1-0.3,0.3-0.4s0.2-0.2,0.4-0.3c0.2-0.1,0.3-0.1,0.5-0.1c0.2,0,0.4,0,0.5,0.1c0.2,0.1,0.3,0.2,0.4,0.3
		c0.1,0.1,0.2,0.3,0.3,0.4c0.1,0.2,0.1,0.3,0.1,0.5c0,0.4-0.1,0.7-0.4,0.9c-0.2,0.2-0.5,0.4-0.9,0.4s-0.7-0.1-0.9-0.4
		C301.1,159.6,300.9,159.3,300.9,159z"/>
</g>
<g>
	<path d="M24.8,192.5c0.3,0.3,0.6,0.5,1,0.7c0.4,0.2,0.8,0.3,1.2,0.3c0.6,0,1-0.1,1.3-0.4c0.3-0.2,0.5-0.5,0.5-0.9
		c0-0.2,0-0.4-0.1-0.5c-0.1-0.1-0.2-0.3-0.3-0.4c-0.1-0.1-0.3-0.2-0.5-0.3s-0.4-0.2-0.6-0.3l-1.1-0.5c-0.2-0.1-0.4-0.2-0.6-0.3
		c-0.2-0.1-0.4-0.2-0.5-0.4s-0.3-0.3-0.4-0.6c-0.1-0.2-0.2-0.5-0.2-0.8c0-0.3,0.1-0.6,0.2-0.8c0.1-0.3,0.3-0.5,0.5-0.7
		s0.5-0.3,0.8-0.4c0.3-0.1,0.7-0.2,1-0.2c0.5,0,1,0.1,1.4,0.3s0.8,0.4,1.1,0.7l-0.5,0.6c-0.3-0.2-0.5-0.4-0.8-0.5
		c-0.3-0.1-0.7-0.2-1.1-0.2c-0.5,0-0.9,0.1-1.1,0.3c-0.3,0.2-0.4,0.5-0.4,0.8c0,0.2,0,0.4,0.1,0.5c0.1,0.1,0.2,0.2,0.3,0.3
		c0.1,0.1,0.3,0.2,0.5,0.3c0.2,0.1,0.3,0.1,0.5,0.2l1.1,0.5c0.2,0.1,0.5,0.2,0.7,0.3c0.2,0.1,0.4,0.3,0.6,0.4
		c0.2,0.2,0.3,0.4,0.4,0.6c0.1,0.2,0.1,0.5,0.1,0.8c0,0.3-0.1,0.6-0.2,0.9c-0.1,0.3-0.3,0.5-0.6,0.7c-0.2,0.2-0.5,0.4-0.9,0.5
		c-0.3,0.1-0.7,0.2-1.2,0.2c-0.6,0-1.1-0.1-1.6-0.3c-0.5-0.2-0.9-0.5-1.3-0.9L24.8,192.5z"/>
	<path d="M33.1,189.2h-1.6v-0.7l1.7-0.1l0.1-1.6H34v1.6h2.9v0.8H34v2.8c0,0.3,0,0.5,0.1,0.7c0,0.2,0.1,0.4,0.2,0.5
		c0.1,0.1,0.3,0.2,0.5,0.3s0.4,0.1,0.7,0.1c0.3,0,0.5,0,0.8-0.1c0.2,0,0.4-0.1,0.6-0.2l0.2,0.7c-0.3,0.1-0.6,0.2-0.9,0.2
		c-0.3,0.1-0.6,0.1-1,0.1c-0.4,0-0.8-0.1-1.1-0.2s-0.5-0.3-0.7-0.5c-0.2-0.2-0.3-0.5-0.4-0.8c-0.1-0.3-0.1-0.6-0.1-1V189.2z"/>
	<path d="M38.5,191.3c0-0.5,0.1-0.9,0.2-1.3c0.2-0.4,0.4-0.7,0.6-1s0.6-0.5,0.9-0.6s0.7-0.2,1.1-0.2c0.4,0,0.8,0.1,1.1,0.2
		c0.3,0.1,0.7,0.3,0.9,0.6c0.3,0.3,0.5,0.6,0.6,1c0.2,0.4,0.2,0.8,0.2,1.3c0,0.5-0.1,0.9-0.2,1.3c-0.2,0.4-0.4,0.7-0.6,1
		c-0.3,0.3-0.6,0.5-0.9,0.6c-0.3,0.1-0.7,0.2-1.1,0.2c-0.4,0-0.8-0.1-1.1-0.2c-0.3-0.1-0.7-0.3-0.9-0.6c-0.3-0.3-0.5-0.6-0.6-1
		C38.6,192.2,38.5,191.8,38.5,191.3z M39.5,191.3c0,0.3,0,0.6,0.1,0.9c0.1,0.3,0.2,0.5,0.4,0.7c0.2,0.2,0.4,0.3,0.6,0.5
		c0.2,0.1,0.5,0.2,0.8,0.2c0.3,0,0.5-0.1,0.8-0.2c0.2-0.1,0.4-0.3,0.6-0.5c0.2-0.2,0.3-0.4,0.4-0.7c0.1-0.3,0.1-0.6,0.1-0.9
		s0-0.6-0.1-0.9c-0.1-0.3-0.2-0.5-0.4-0.7c-0.2-0.2-0.4-0.4-0.6-0.5c-0.2-0.1-0.5-0.2-0.8-0.2c-0.3,0-0.5,0.1-0.8,0.2
		c-0.2,0.1-0.4,0.3-0.6,0.5c-0.2,0.2-0.3,0.4-0.4,0.7C39.6,190.7,39.5,191,39.5,191.3z"/>
	<path d="M46.7,188.4h0.8l0.1,1.4h0c0.3-0.5,0.7-0.8,1.1-1.1c0.4-0.3,0.9-0.4,1.5-0.4c0.2,0,0.4,0,0.6,0.1c0.2,0,0.4,0.1,0.6,0.2
		l-0.2,0.9c-0.2-0.1-0.4-0.1-0.5-0.2c-0.1,0-0.3,0-0.6,0c-0.4,0-0.9,0.1-1.3,0.4c-0.4,0.3-0.8,0.7-1.1,1.3v3.4h-1V188.4z"/>
	<path d="M53,191.3c0-0.5,0.1-0.9,0.3-1.3s0.4-0.7,0.7-1s0.6-0.5,0.9-0.6s0.7-0.2,1.1-0.2c0.4,0,0.8,0.1,1.1,0.2
		c0.3,0.1,0.6,0.3,0.8,0.6c0.2,0.2,0.4,0.5,0.5,0.9c0.1,0.3,0.2,0.7,0.2,1.1c0,0.1,0,0.2,0,0.3s0,0.2,0,0.3H54
		c0,0.3,0.1,0.6,0.2,0.8c0.1,0.2,0.3,0.5,0.5,0.6c0.2,0.2,0.4,0.3,0.7,0.4c0.3,0.1,0.6,0.1,0.9,0.1c0.3,0,0.7,0,0.9-0.1
		c0.3-0.1,0.6-0.2,0.8-0.4l0.3,0.6c-0.3,0.2-0.6,0.3-1,0.5c-0.4,0.1-0.8,0.2-1.3,0.2c-0.4,0-0.8-0.1-1.2-0.2c-0.4-0.1-0.7-0.3-1-0.6
		c-0.3-0.3-0.5-0.6-0.7-1C53.1,192.2,53,191.8,53,191.3z M57.7,190.8c0-0.6-0.2-1-0.5-1.3c-0.3-0.3-0.7-0.5-1.3-0.5
		c-0.2,0-0.5,0-0.7,0.1c-0.2,0.1-0.4,0.2-0.6,0.4c-0.2,0.2-0.3,0.3-0.4,0.6c-0.1,0.2-0.2,0.5-0.2,0.8H57.7z"/>
	<path d="M60.7,192.8c0.3,0.2,0.7,0.4,1.1,0.6s0.8,0.2,1.4,0.2c0.5,0,0.9-0.1,1.2-0.3c0.3-0.2,0.4-0.4,0.4-0.6
		c0-0.2-0.1-0.4-0.4-0.6c-0.3-0.2-0.8-0.4-1.5-0.5c-0.3-0.1-0.6-0.2-0.9-0.3s-0.5-0.2-0.7-0.4c-0.2-0.1-0.4-0.3-0.5-0.5
		s-0.2-0.4-0.2-0.6c0-0.2,0.1-0.4,0.2-0.7c0.1-0.2,0.3-0.4,0.5-0.5s0.5-0.3,0.8-0.3s0.7-0.1,1.1-0.1c0.4,0,0.9,0.1,1.3,0.2
		c0.4,0.1,0.8,0.3,1.1,0.5l-0.5,0.6c-0.3-0.2-0.5-0.3-0.9-0.4c-0.3-0.1-0.6-0.2-1-0.2c-0.3,0-0.5,0-0.7,0.1c-0.2,0-0.3,0.1-0.4,0.2
		c-0.1,0.1-0.2,0.2-0.2,0.3c0,0.1-0.1,0.2-0.1,0.3c0,0.2,0.2,0.4,0.5,0.6c0.3,0.2,0.8,0.3,1.3,0.4c0.8,0.2,1.4,0.4,1.8,0.7
		c0.4,0.3,0.6,0.6,0.6,1.1c0,0.2-0.1,0.5-0.2,0.7c-0.1,0.2-0.3,0.4-0.5,0.6c-0.2,0.2-0.5,0.3-0.8,0.4c-0.3,0.1-0.7,0.1-1.1,0.1
		c-0.6,0-1.1-0.1-1.6-0.3s-0.9-0.4-1.3-0.6L60.7,192.8z"/>
	<path d="M76.2,189.2h-1.6v-0.7l1.7-0.1l0.1-1.6h0.8v1.6h2.9v0.8h-2.9v2.8c0,0.3,0,0.5,0.1,0.7c0,0.2,0.1,0.4,0.2,0.5
		c0.1,0.1,0.3,0.2,0.5,0.3s0.4,0.1,0.7,0.1c0.3,0,0.5,0,0.8-0.1c0.2,0,0.4-0.1,0.6-0.2l0.2,0.7c-0.3,0.1-0.6,0.2-0.9,0.2
		c-0.3,0.1-0.6,0.1-1,0.1c-0.4,0-0.8-0.1-1.1-0.2s-0.5-0.3-0.7-0.5c-0.2-0.2-0.3-0.5-0.4-0.8c-0.1-0.3-0.1-0.6-0.1-1V189.2z"/>
	<path d="M82.1,185.7h1v2.3l0,1.4c0.3-0.3,0.6-0.6,1-0.8c0.4-0.2,0.8-0.3,1.2-0.3c0.7,0,1.2,0.2,1.5,0.6c0.3,0.4,0.5,1,0.5,1.8v3.6
		h-1v-3.5c0-0.6-0.1-1-0.3-1.2c-0.2-0.3-0.6-0.4-1-0.4c-0.2,0-0.3,0-0.5,0.1c-0.1,0-0.3,0.1-0.4,0.2s-0.3,0.2-0.4,0.3
		c-0.2,0.1-0.3,0.3-0.5,0.5v4.1h-1V185.7z"/>
	<path d="M89,191.3c0-0.5,0.1-0.9,0.3-1.3s0.4-0.7,0.7-1s0.6-0.5,0.9-0.6s0.7-0.2,1.1-0.2c0.4,0,0.8,0.1,1.1,0.2
		c0.3,0.1,0.6,0.3,0.8,0.6c0.2,0.2,0.4,0.5,0.5,0.9c0.1,0.3,0.2,0.7,0.2,1.1c0,0.1,0,0.2,0,0.3s0,0.2,0,0.3H90
		c0,0.3,0.1,0.6,0.2,0.8c0.1,0.2,0.3,0.5,0.5,0.6c0.2,0.2,0.4,0.3,0.7,0.4c0.3,0.1,0.6,0.1,0.9,0.1c0.3,0,0.7,0,0.9-0.1
		c0.3-0.1,0.6-0.2,0.8-0.4l0.3,0.6c-0.3,0.2-0.6,0.3-1,0.5c-0.4,0.1-0.8,0.2-1.3,0.2c-0.4,0-0.8-0.1-1.2-0.2c-0.4-0.1-0.7-0.3-1-0.6
		c-0.3-0.3-0.5-0.6-0.7-1C89.1,192.2,89,191.8,89,191.3z M93.7,190.8c0-0.6-0.2-1-0.5-1.3c-0.3-0.3-0.7-0.5-1.3-0.5
		c-0.2,0-0.5,0-0.7,0.1c-0.2,0.1-0.4,0.2-0.6,0.4c-0.2,0.2-0.3,0.3-0.4,0.6c-0.1,0.2-0.2,0.5-0.2,0.8H93.7z"/>
	<path d="M109.3,186.6c-0.2-0.1-0.5-0.2-0.7-0.2c-0.2,0-0.4-0.1-0.7-0.1c-0.5,0-0.9,0.1-1.1,0.4c-0.2,0.3-0.3,0.6-0.3,1.1v0.5h2.4
		v0.8h-2.4v5h-1v-5h-1.7v-0.7l1.7-0.1v-0.5c0-0.7,0.2-1.3,0.6-1.7c0.4-0.4,1-0.6,1.8-0.6c0.6,0,1.1,0.1,1.7,0.3L109.3,186.6z"/>
	<path d="M111.5,188.4h0.8l0.1,1.4h0c0.3-0.5,0.7-0.8,1.1-1.1c0.4-0.3,0.9-0.4,1.5-0.4c0.2,0,0.4,0,0.6,0.1c0.2,0,0.4,0.1,0.6,0.2
		l-0.2,0.9c-0.2-0.1-0.4-0.1-0.5-0.2c-0.1,0-0.3,0-0.6,0c-0.4,0-0.9,0.1-1.3,0.4c-0.4,0.3-0.8,0.7-1.1,1.3v3.4h-1V188.4z"/>
	<path d="M117.8,191.3c0-0.5,0.1-0.9,0.3-1.3s0.4-0.7,0.7-1s0.6-0.5,0.9-0.6s0.7-0.2,1.1-0.2c0.4,0,0.8,0.1,1.1,0.2
		c0.3,0.1,0.6,0.3,0.8,0.6c0.2,0.2,0.4,0.5,0.5,0.9c0.1,0.3,0.2,0.7,0.2,1.1c0,0.1,0,0.2,0,0.3s0,0.2,0,0.3h-4.6
		c0,0.3,0.1,0.6,0.2,0.8c0.1,0.2,0.3,0.5,0.5,0.6c0.2,0.2,0.4,0.3,0.7,0.4c0.3,0.1,0.6,0.1,0.9,0.1c0.3,0,0.7,0,0.9-0.1
		c0.3-0.1,0.6-0.2,0.8-0.4l0.3,0.6c-0.3,0.2-0.6,0.3-1,0.5c-0.4,0.1-0.8,0.2-1.3,0.2c-0.4,0-0.8-0.1-1.2-0.2c-0.4-0.1-0.7-0.3-1-0.6
		c-0.3-0.3-0.5-0.6-0.7-1C117.9,192.2,117.8,191.8,117.8,191.3z M122.5,190.8c0-0.6-0.2-1-0.5-1.3c-0.3-0.3-0.7-0.5-1.3-0.5
		c-0.2,0-0.5,0-0.7,0.1c-0.2,0.1-0.4,0.2-0.6,0.4c-0.2,0.2-0.3,0.3-0.4,0.6c-0.1,0.2-0.2,0.5-0.2,0.8H122.5z"/>
	<path d="M124.9,191.3c0-0.5,0.1-0.9,0.2-1.3c0.1-0.4,0.3-0.7,0.6-1c0.2-0.3,0.5-0.5,0.8-0.6s0.7-0.2,1-0.2c0.4,0,0.7,0.1,1,0.2
		c0.3,0.1,0.6,0.3,0.8,0.6h0l0.1-0.6h0.8v8.3h-1v-2.1l0-1.1c-0.3,0.2-0.5,0.5-0.9,0.6c-0.3,0.2-0.7,0.3-1,0.3c-0.4,0-0.7-0.1-1-0.2
		c-0.3-0.1-0.6-0.3-0.8-0.6c-0.2-0.3-0.4-0.6-0.5-1S124.9,191.8,124.9,191.3z M125.9,191.3c0,0.7,0.1,1.3,0.4,1.6
		c0.3,0.4,0.7,0.6,1.3,0.6c0.6,0,1.1-0.3,1.6-0.9v-2.9c-0.3-0.2-0.5-0.4-0.8-0.5c-0.3-0.1-0.5-0.2-0.8-0.2s-0.5,0.1-0.7,0.2
		c-0.2,0.1-0.4,0.3-0.6,0.5s-0.3,0.4-0.4,0.7C126,190.7,125.9,191,125.9,191.3z"/>
	<path d="M137.4,194.2h-0.8l-0.1-1h0c-0.3,0.3-0.6,0.6-1,0.8c-0.3,0.2-0.8,0.3-1.2,0.3c-0.7,0-1.2-0.2-1.5-0.6
		c-0.3-0.4-0.5-1-0.5-1.8v-3.6h1v3.5c0,0.6,0.1,1,0.3,1.2s0.5,0.4,1,0.4c0.3,0,0.6-0.1,0.9-0.3s0.6-0.4,0.9-0.8v-4h1V194.2z"/>
	<path d="M139.4,191.3c0-0.5,0.1-0.9,0.3-1.3s0.4-0.7,0.7-1s0.6-0.5,0.9-0.6s0.7-0.2,1.1-0.2c0.4,0,0.8,0.1,1.1,0.2
		c0.3,0.1,0.6,0.3,0.8,0.6c0.2,0.2,0.4,0.5,0.5,0.9c0.1,0.3,0.2,0.7,0.2,1.1c0,0.1,0,0.2,0,0.3s0,0.2,0,0.3h-4.6
		c0,0.3,0.1,0.6,0.2,0.8c0.1,0.2,0.3,0.5,0.5,0.6c0.2,0.2,0.4,0.3,0.7,0.4c0.3,0.1,0.6,0.1,0.9,0.1c0.3,0,0.7,0,0.9-0.1
		c0.3-0.1,0.6-0.2,0.8-0.4l0.3,0.6c-0.3,0.2-0.6,0.3-1,0.5c-0.4,0.1-0.8,0.2-1.3,0.2c-0.4,0-0.8-0.1-1.2-0.2c-0.4-0.1-0.7-0.3-1-0.6
		c-0.3-0.3-0.5-0.6-0.7-1C139.5,192.2,139.4,191.8,139.4,191.3z M144.1,190.8c0-0.6-0.2-1-0.5-1.3c-0.3-0.3-0.7-0.5-1.3-0.5
		c-0.2,0-0.5,0-0.7,0.1c-0.2,0.1-0.4,0.2-0.6,0.4c-0.2,0.2-0.3,0.3-0.4,0.6c-0.1,0.2-0.2,0.5-0.2,0.8H144.1z"/>
	<path d="M146.9,188.4h0.8l0.1,1h0c0.3-0.3,0.6-0.6,1-0.8c0.4-0.2,0.8-0.3,1.2-0.3c0.7,0,1.2,0.2,1.5,0.6c0.3,0.4,0.5,1,0.5,1.8v3.6
		h-1v-3.5c0-0.6-0.1-1-0.3-1.2c-0.2-0.3-0.6-0.4-1-0.4c-0.2,0-0.3,0-0.5,0.1c-0.1,0-0.3,0.1-0.4,0.2s-0.3,0.2-0.4,0.3
		c-0.2,0.1-0.3,0.3-0.5,0.5v4.1h-1V188.4z"/>
	<path d="M153.9,191.3c0-0.5,0.1-0.9,0.3-1.3c0.2-0.4,0.4-0.7,0.7-1s0.6-0.5,1-0.6s0.8-0.2,1.3-0.2c0.5,0,0.9,0.1,1.2,0.3
		c0.3,0.2,0.6,0.4,0.9,0.6l-0.5,0.6c-0.2-0.2-0.5-0.4-0.8-0.5c-0.3-0.1-0.5-0.2-0.8-0.2c-0.3,0-0.6,0.1-0.9,0.2
		c-0.3,0.1-0.5,0.3-0.7,0.5c-0.2,0.2-0.4,0.4-0.5,0.7c-0.1,0.3-0.2,0.6-0.2,0.9s0.1,0.6,0.2,0.9c0.1,0.3,0.3,0.5,0.5,0.7
		c0.2,0.2,0.4,0.3,0.7,0.5c0.3,0.1,0.6,0.2,0.9,0.2c0.4,0,0.7-0.1,1-0.2c0.3-0.1,0.6-0.3,0.8-0.5l0.4,0.6c-0.3,0.3-0.7,0.5-1.1,0.7
		s-0.8,0.2-1.2,0.2c-0.5,0-0.9-0.1-1.3-0.2c-0.4-0.1-0.7-0.3-1-0.6c-0.3-0.3-0.5-0.6-0.7-1C154,192.2,153.9,191.8,153.9,191.3z"/>
	<path d="M161.4,195.9c0.1,0,0.2,0,0.3,0c0.4,0,0.7-0.1,1-0.4c0.3-0.2,0.5-0.5,0.6-0.9l0.2-0.4l-2.7-5.8h1l1.4,3.2
		c0.1,0.3,0.2,0.5,0.4,0.8c0.1,0.3,0.2,0.6,0.4,0.9h0c0.1-0.3,0.2-0.6,0.3-0.9c0.1-0.3,0.2-0.6,0.3-0.8l1.3-3.2h0.9l-2.6,6.3
		c-0.1,0.3-0.2,0.6-0.4,0.8s-0.3,0.5-0.5,0.6c-0.2,0.2-0.4,0.3-0.7,0.4c-0.3,0.1-0.6,0.2-0.9,0.2c-0.3,0-0.5,0-0.8-0.1l0.2-0.8
		C161.3,195.8,161.3,195.9,161.4,195.9z"/>
	<path d="M175.3,191.3c0-0.5,0.1-0.9,0.2-1.3c0.1-0.4,0.3-0.7,0.6-1c0.2-0.3,0.5-0.5,0.8-0.6s0.7-0.2,1-0.2c0.4,0,0.7,0.1,0.9,0.2
		s0.5,0.3,0.8,0.6l0-1.1v-2.2h1v8.5h-0.8l-0.1-0.8h0c-0.2,0.2-0.5,0.5-0.9,0.6s-0.7,0.3-1,0.3c-0.4,0-0.7-0.1-1-0.2
		c-0.3-0.1-0.6-0.3-0.8-0.6c-0.2-0.3-0.4-0.6-0.5-1S175.3,191.8,175.3,191.3z M176.3,191.3c0,0.7,0.1,1.3,0.4,1.6
		c0.3,0.4,0.7,0.6,1.3,0.6c0.6,0,1.1-0.3,1.6-0.9v-2.9c-0.3-0.2-0.5-0.4-0.8-0.5c-0.3-0.1-0.5-0.2-0.8-0.2s-0.5,0.1-0.7,0.2
		c-0.2,0.1-0.4,0.3-0.6,0.5s-0.3,0.4-0.4,0.7C176.4,190.7,176.3,191,176.3,191.3z"/>
	<path d="M182.5,191.3c0-0.5,0.1-0.9,0.2-1.3c0.2-0.4,0.4-0.7,0.6-1s0.6-0.5,0.9-0.6s0.7-0.2,1.1-0.2c0.4,0,0.8,0.1,1.1,0.2
		c0.3,0.1,0.7,0.3,0.9,0.6c0.3,0.3,0.5,0.6,0.6,1c0.2,0.4,0.2,0.8,0.2,1.3c0,0.5-0.1,0.9-0.2,1.3c-0.2,0.4-0.4,0.7-0.6,1
		c-0.3,0.3-0.6,0.5-0.9,0.6c-0.3,0.1-0.7,0.2-1.1,0.2c-0.4,0-0.8-0.1-1.1-0.2c-0.3-0.1-0.7-0.3-0.9-0.6c-0.3-0.3-0.5-0.6-0.6-1
		C182.6,192.2,182.5,191.8,182.5,191.3z M183.5,191.3c0,0.3,0,0.6,0.1,0.9c0.1,0.3,0.2,0.5,0.4,0.7c0.2,0.2,0.4,0.3,0.6,0.5
		c0.2,0.1,0.5,0.2,0.8,0.2c0.3,0,0.5-0.1,0.8-0.2c0.2-0.1,0.4-0.3,0.6-0.5c0.2-0.2,0.3-0.4,0.4-0.7c0.1-0.3,0.1-0.6,0.1-0.9
		s0-0.6-0.1-0.9c-0.1-0.3-0.2-0.5-0.4-0.7c-0.2-0.2-0.4-0.4-0.6-0.5c-0.2-0.1-0.5-0.2-0.8-0.2c-0.3,0-0.5,0.1-0.8,0.2
		c-0.2,0.1-0.4,0.3-0.6,0.5c-0.2,0.2-0.3,0.4-0.4,0.7C183.6,190.7,183.5,191,183.5,191.3z"/>
	<path d="M189.7,188.4h0.8l0.1,0.8h0c0.1-0.3,0.3-0.5,0.5-0.7c0.2-0.2,0.5-0.3,0.8-0.3c0.6,0,1,0.3,1.1,1c0.2-0.3,0.4-0.5,0.6-0.7
		c0.2-0.2,0.5-0.3,0.8-0.3c0.4,0,0.7,0.2,0.9,0.5c0.2,0.3,0.3,0.8,0.3,1.3v4.2h-0.9v-4.1c0-0.7-0.2-1-0.6-1c-0.2,0-0.4,0.1-0.5,0.2
		c-0.2,0.1-0.3,0.4-0.5,0.7v4.2h-0.8v-4.1c0-0.7-0.2-1-0.7-1c-0.2,0-0.4,0.1-0.5,0.2c-0.1,0.1-0.3,0.4-0.4,0.7v4.2h-0.9V188.4z"/>
	<path d="M197.1,192.7c0-0.3,0.1-0.6,0.2-0.9c0.2-0.2,0.4-0.5,0.7-0.6c0.3-0.2,0.8-0.3,1.3-0.4c0.5-0.1,1.2-0.2,1.9-0.3
		c0-0.2,0-0.4-0.1-0.6c-0.1-0.2-0.1-0.3-0.3-0.5c-0.1-0.1-0.3-0.2-0.5-0.3c-0.2-0.1-0.4-0.1-0.7-0.1c-0.4,0-0.8,0.1-1.1,0.2
		s-0.7,0.3-0.9,0.5l-0.4-0.7c0.1-0.1,0.3-0.2,0.5-0.3c0.2-0.1,0.4-0.2,0.6-0.3s0.5-0.1,0.7-0.2c0.2-0.1,0.5-0.1,0.8-0.1
		c0.8,0,1.4,0.2,1.8,0.7c0.4,0.4,0.6,1,0.6,1.7v3.6h-0.8l-0.1-0.8h0c-0.3,0.3-0.7,0.5-1.1,0.7c-0.4,0.2-0.8,0.3-1.2,0.3
		c-0.3,0-0.5,0-0.8-0.1c-0.2-0.1-0.5-0.2-0.6-0.3c-0.2-0.1-0.3-0.3-0.4-0.5C197.2,193.2,197.1,193,197.1,192.7z M198.1,192.6
		c0,0.2,0,0.3,0.1,0.4c0.1,0.1,0.2,0.2,0.3,0.3c0.1,0.1,0.3,0.1,0.4,0.2c0.2,0,0.3,0.1,0.5,0.1c0.3,0,0.7-0.1,1-0.2
		c0.3-0.1,0.7-0.4,1-0.6v-1.5c-0.6,0-1.1,0.1-1.6,0.2s-0.8,0.2-1,0.3c-0.3,0.1-0.4,0.3-0.5,0.4S198.1,192.4,198.1,192.6z"/>
	<path d="M204.5,188.4h3.7v5.8h-1v-5h-2.7V188.4z M207.5,187.2c-0.2,0-0.4-0.1-0.6-0.2c-0.1-0.1-0.2-0.3-0.2-0.6s0.1-0.4,0.2-0.6
		s0.3-0.2,0.6-0.2c0.2,0,0.4,0.1,0.6,0.2c0.2,0.1,0.2,0.3,0.2,0.6s-0.1,0.4-0.2,0.6C208,187.1,207.8,187.2,207.5,187.2z"/>
	<path d="M211.7,188.4h0.8l0.1,1h0c0.3-0.3,0.6-0.6,1-0.8c0.4-0.2,0.8-0.3,1.2-0.3c0.7,0,1.2,0.2,1.5,0.6c0.3,0.4,0.5,1,0.5,1.8v3.6
		h-1v-3.5c0-0.6-0.1-1-0.3-1.2c-0.2-0.3-0.6-0.4-1-0.4c-0.2,0-0.3,0-0.5,0.1c-0.1,0-0.3,0.1-0.4,0.2s-0.3,0.2-0.4,0.3
		c-0.2,0.1-0.3,0.3-0.5,0.5v4.1h-1V188.4z"/>
	<path d="M225.7,191.3c0-0.5,0.1-0.9,0.2-1.3c0.1-0.4,0.3-0.7,0.6-1c0.2-0.3,0.5-0.5,0.8-0.6s0.7-0.2,1-0.2c0.4,0,0.7,0.1,0.9,0.2
		c0.3,0.1,0.5,0.3,0.8,0.6l0-1.1v-2.2h1v8.5h-0.8l-0.1-0.8h0c-0.2,0.2-0.5,0.5-0.9,0.6s-0.7,0.3-1,0.3c-0.4,0-0.7-0.1-1-0.2
		c-0.3-0.1-0.6-0.3-0.8-0.6c-0.2-0.3-0.4-0.6-0.5-1C225.8,192.2,225.7,191.8,225.7,191.3z M226.7,191.3c0,0.7,0.2,1.3,0.4,1.6
		c0.3,0.4,0.7,0.6,1.3,0.6c0.6,0,1.1-0.3,1.6-0.9v-2.9c-0.3-0.2-0.5-0.4-0.8-0.5c-0.3-0.1-0.5-0.2-0.8-0.2s-0.5,0.1-0.7,0.2
		c-0.2,0.1-0.4,0.3-0.6,0.5s-0.3,0.4-0.4,0.7C226.8,190.7,226.7,191,226.7,191.3z"/>
	<path d="M233.1,192.7c0-0.3,0.1-0.6,0.2-0.9c0.2-0.2,0.4-0.5,0.7-0.6c0.3-0.2,0.8-0.3,1.3-0.4s1.2-0.2,1.9-0.3c0-0.2,0-0.4-0.1-0.6
		s-0.1-0.3-0.3-0.5c-0.1-0.1-0.3-0.2-0.5-0.3s-0.4-0.1-0.7-0.1c-0.4,0-0.8,0.1-1.1,0.2c-0.4,0.1-0.7,0.3-0.9,0.5l-0.4-0.7
		c0.1-0.1,0.3-0.2,0.5-0.3c0.2-0.1,0.4-0.2,0.6-0.3s0.5-0.1,0.7-0.2c0.2-0.1,0.5-0.1,0.8-0.1c0.8,0,1.4,0.2,1.8,0.7
		c0.4,0.4,0.6,1,0.6,1.7v3.6h-0.8l-0.1-0.8h0c-0.3,0.3-0.7,0.5-1.1,0.7c-0.4,0.2-0.8,0.3-1.2,0.3c-0.3,0-0.5,0-0.8-0.1
		c-0.2-0.1-0.5-0.2-0.6-0.3c-0.2-0.1-0.3-0.3-0.4-0.5C233.2,193.2,233.1,193,233.1,192.7z M234.1,192.6c0,0.2,0,0.3,0.1,0.4
		c0.1,0.1,0.2,0.2,0.3,0.3c0.1,0.1,0.3,0.1,0.4,0.2c0.2,0,0.3,0.1,0.5,0.1c0.3,0,0.7-0.1,1-0.2c0.3-0.1,0.7-0.4,1-0.6v-1.5
		c-0.6,0-1.1,0.1-1.6,0.2s-0.8,0.2-1,0.3c-0.3,0.1-0.4,0.3-0.5,0.4C234.2,192.3,234.1,192.4,234.1,192.6z"/>
	<path d="M241.8,189.2h-1.6v-0.7l1.7-0.1l0.1-1.6h0.8v1.6h2.9v0.8h-2.9v2.8c0,0.3,0,0.5,0.1,0.7c0,0.2,0.1,0.4,0.2,0.5
		c0.1,0.1,0.3,0.2,0.5,0.3c0.2,0.1,0.4,0.1,0.7,0.1c0.3,0,0.5,0,0.8-0.1c0.2,0,0.4-0.1,0.6-0.2l0.2,0.7c-0.3,0.1-0.6,0.2-0.9,0.2
		c-0.3,0.1-0.6,0.1-1,0.1c-0.4,0-0.8-0.1-1.1-0.2c-0.3-0.1-0.5-0.3-0.7-0.5c-0.2-0.2-0.3-0.5-0.4-0.8c-0.1-0.3-0.1-0.6-0.1-1V189.2z
		"/>
	<path d="M247.5,192.7c0-0.3,0.1-0.6,0.2-0.9s0.4-0.5,0.7-0.6s0.8-0.3,1.3-0.4c0.5-0.1,1.2-0.2,1.9-0.3c0-0.2,0-0.4-0.1-0.6
		c-0.1-0.2-0.1-0.3-0.3-0.5c-0.1-0.1-0.3-0.2-0.5-0.3c-0.2-0.1-0.4-0.1-0.7-0.1c-0.4,0-0.8,0.1-1.1,0.2c-0.4,0.1-0.7,0.3-0.9,0.5
		l-0.4-0.7c0.1-0.1,0.3-0.2,0.5-0.3s0.4-0.2,0.6-0.3s0.5-0.1,0.7-0.2c0.2-0.1,0.5-0.1,0.8-0.1c0.8,0,1.4,0.2,1.8,0.7
		c0.4,0.4,0.6,1,0.6,1.7v3.6h-0.8l-0.1-0.8h0c-0.3,0.3-0.7,0.5-1.1,0.7c-0.4,0.2-0.8,0.3-1.2,0.3c-0.3,0-0.5,0-0.8-0.1
		c-0.2-0.1-0.5-0.2-0.6-0.3c-0.2-0.1-0.3-0.3-0.4-0.5C247.6,193.2,247.5,193,247.5,192.7z M248.5,192.6c0,0.2,0,0.3,0.1,0.4
		c0.1,0.1,0.2,0.2,0.3,0.3s0.3,0.1,0.4,0.2c0.2,0,0.3,0.1,0.5,0.1c0.3,0,0.7-0.1,1-0.2s0.7-0.4,1-0.6v-1.5c-0.6,0-1.1,0.1-1.6,0.2
		s-0.8,0.2-1,0.3c-0.3,0.1-0.4,0.3-0.5,0.4C248.6,192.3,248.5,192.4,248.5,192.6z"/>
	<path d="M262,188.4h3.7v5.8h-1v-5H262V188.4z M265.1,187.2c-0.2,0-0.4-0.1-0.6-0.2c-0.1-0.1-0.2-0.3-0.2-0.6s0.1-0.4,0.2-0.6
		s0.3-0.2,0.6-0.2c0.2,0,0.4,0.1,0.6,0.2s0.2,0.3,0.2,0.6s-0.1,0.4-0.2,0.6C265.6,187.1,265.4,187.2,265.1,187.2z"/>
	<path d="M269.3,188.4h0.8l0.1,1h0c0.3-0.3,0.6-0.6,1-0.8c0.4-0.2,0.8-0.3,1.2-0.3c0.7,0,1.2,0.2,1.5,0.6c0.3,0.4,0.5,1,0.5,1.8v3.6
		h-1v-3.5c0-0.6-0.1-1-0.3-1.2c-0.2-0.3-0.6-0.4-1-0.4c-0.2,0-0.3,0-0.5,0.1c-0.1,0-0.3,0.1-0.4,0.2c-0.1,0.1-0.3,0.2-0.4,0.3
		c-0.2,0.1-0.3,0.3-0.5,0.5v4.1h-1V188.4z"/>
	<path d="M283.5,192.7c0-0.3,0.1-0.6,0.2-0.9c0.2-0.2,0.4-0.5,0.7-0.6c0.3-0.2,0.8-0.3,1.3-0.4c0.5-0.1,1.2-0.2,1.9-0.3
		c0-0.2,0-0.4-0.1-0.6c-0.1-0.2-0.1-0.3-0.3-0.5c-0.1-0.1-0.3-0.2-0.5-0.3c-0.2-0.1-0.4-0.1-0.7-0.1c-0.4,0-0.8,0.1-1.1,0.2
		s-0.7,0.3-0.9,0.5l-0.4-0.7c0.1-0.1,0.3-0.2,0.5-0.3c0.2-0.1,0.4-0.2,0.6-0.3c0.2-0.1,0.5-0.1,0.7-0.2c0.2-0.1,0.5-0.1,0.8-0.1
		c0.8,0,1.4,0.2,1.8,0.7c0.4,0.4,0.6,1,0.6,1.7v3.6h-0.8l-0.1-0.8h0c-0.3,0.3-0.7,0.5-1.1,0.7c-0.4,0.2-0.8,0.3-1.2,0.3
		c-0.3,0-0.5,0-0.8-0.1c-0.2-0.1-0.4-0.2-0.6-0.3c-0.2-0.1-0.3-0.3-0.4-0.5C283.6,193.2,283.5,193,283.5,192.7z M284.5,192.6
		c0,0.2,0,0.3,0.1,0.4c0.1,0.1,0.2,0.2,0.3,0.3c0.1,0.1,0.3,0.1,0.4,0.2c0.2,0,0.3,0.1,0.5,0.1c0.3,0,0.7-0.1,1-0.2
		c0.3-0.1,0.7-0.4,1-0.6v-1.5c-0.6,0-1.1,0.1-1.6,0.2s-0.8,0.2-1,0.3c-0.3,0.1-0.4,0.3-0.5,0.4S284.5,192.4,284.5,192.6z"/>
	<path d="M290.9,188.4h0.8l0.1,1h0c0.3-0.3,0.6-0.6,1-0.8c0.4-0.2,0.8-0.3,1.2-0.3c0.7,0,1.2,0.2,1.5,0.6c0.3,0.4,0.5,1,0.5,1.8v3.6
		h-1v-3.5c0-0.6-0.1-1-0.3-1.2c-0.2-0.3-0.6-0.4-1-0.4c-0.2,0-0.3,0-0.5,0.1c-0.1,0-0.3,0.1-0.4,0.2s-0.3,0.2-0.4,0.3
		c-0.2,0.1-0.3,0.3-0.5,0.5v4.1h-1V188.4z"/>
	<path d="M24.4,207.1c0-0.3,0.1-0.6,0.2-0.9c0.2-0.2,0.4-0.5,0.7-0.6c0.3-0.2,0.8-0.3,1.3-0.4c0.5-0.1,1.2-0.2,1.9-0.3
		c0-0.2,0-0.4-0.1-0.6c-0.1-0.2-0.1-0.3-0.3-0.5c-0.1-0.1-0.3-0.2-0.5-0.3c-0.2-0.1-0.4-0.1-0.7-0.1c-0.4,0-0.8,0.1-1.1,0.2
		s-0.7,0.3-0.9,0.5l-0.4-0.7c0.1-0.1,0.3-0.2,0.5-0.3c0.2-0.1,0.4-0.2,0.6-0.3s0.5-0.1,0.7-0.2c0.2-0.1,0.5-0.1,0.8-0.1
		c0.8,0,1.4,0.2,1.8,0.7c0.4,0.4,0.6,1,0.6,1.7v3.6h-0.8l-0.1-0.8h0c-0.3,0.3-0.7,0.5-1.1,0.7c-0.4,0.2-0.8,0.3-1.2,0.3
		c-0.3,0-0.5,0-0.8-0.1c-0.2-0.1-0.5-0.2-0.6-0.3c-0.2-0.1-0.3-0.3-0.4-0.5C24.4,207.6,24.4,207.4,24.4,207.1z M25.3,207
		c0,0.2,0,0.3,0.1,0.4c0.1,0.1,0.2,0.2,0.3,0.3c0.1,0.1,0.3,0.1,0.4,0.2c0.2,0,0.3,0.1,0.5,0.1c0.3,0,0.7-0.1,1-0.2
		c0.3-0.1,0.7-0.4,1-0.6v-1.5c-0.6,0-1.1,0.1-1.6,0.2s-0.8,0.2-1,0.3c-0.3,0.1-0.4,0.3-0.5,0.4S25.3,206.8,25.3,207z"/>
	<path d="M32.3,202.8h0.8l0.1,1.4h0c0.3-0.5,0.7-0.8,1.1-1.1c0.4-0.3,0.9-0.4,1.5-0.4c0.2,0,0.4,0,0.6,0.1c0.2,0,0.4,0.1,0.6,0.2
		l-0.2,0.9c-0.2-0.1-0.4-0.1-0.5-0.2c-0.1,0-0.3,0-0.6,0c-0.4,0-0.9,0.1-1.3,0.4c-0.4,0.3-0.8,0.7-1.1,1.3v3.4h-1V202.8z"/>
	<path d="M39.5,202.8h0.8l0.1,1.4h0c0.3-0.5,0.7-0.8,1.1-1.1c0.4-0.3,0.9-0.4,1.5-0.4c0.2,0,0.4,0,0.6,0.1c0.2,0,0.4,0.1,0.6,0.2
		l-0.2,0.9c-0.2-0.1-0.4-0.1-0.5-0.2c-0.1,0-0.3,0-0.6,0c-0.4,0-0.9,0.1-1.3,0.4c-0.4,0.3-0.8,0.7-1.1,1.3v3.4h-1V202.8z"/>
	<path d="M46,207.1c0-0.3,0.1-0.6,0.2-0.9c0.2-0.2,0.4-0.5,0.7-0.6c0.3-0.2,0.8-0.3,1.3-0.4c0.5-0.1,1.2-0.2,1.9-0.3
		c0-0.2,0-0.4-0.1-0.6c-0.1-0.2-0.1-0.3-0.3-0.5c-0.1-0.1-0.3-0.2-0.5-0.3c-0.2-0.1-0.4-0.1-0.7-0.1c-0.4,0-0.8,0.1-1.1,0.2
		s-0.7,0.3-0.9,0.5l-0.4-0.7c0.1-0.1,0.3-0.2,0.5-0.3c0.2-0.1,0.4-0.2,0.6-0.3s0.5-0.1,0.7-0.2c0.2-0.1,0.5-0.1,0.8-0.1
		c0.8,0,1.4,0.2,1.8,0.7c0.4,0.4,0.6,1,0.6,1.7v3.6h-0.8l-0.1-0.8h0c-0.3,0.3-0.7,0.5-1.1,0.7c-0.4,0.2-0.8,0.3-1.2,0.3
		c-0.3,0-0.5,0-0.8-0.1c-0.2-0.1-0.5-0.2-0.6-0.3c-0.2-0.1-0.3-0.3-0.4-0.5C46,207.6,46,207.4,46,207.1z M46.9,207
		c0,0.2,0,0.3,0.1,0.4c0.1,0.1,0.2,0.2,0.3,0.3c0.1,0.1,0.3,0.1,0.4,0.2c0.2,0,0.3,0.1,0.5,0.1c0.3,0,0.7-0.1,1-0.2
		c0.3-0.1,0.7-0.4,1-0.6v-1.5c-0.6,0-1.1,0.1-1.6,0.2s-0.8,0.2-1,0.3c-0.3,0.1-0.4,0.3-0.5,0.4S46.9,206.8,46.9,207z"/>
	<path d="M53.4,210.3c0.1,0,0.2,0,0.3,0c0.4,0,0.7-0.1,1-0.4c0.3-0.2,0.5-0.5,0.6-0.9l0.2-0.4l-2.7-5.8h1l1.4,3.2
		c0.1,0.3,0.2,0.5,0.4,0.8c0.1,0.3,0.2,0.6,0.4,0.9h0c0.1-0.3,0.2-0.6,0.3-0.9c0.1-0.3,0.2-0.6,0.3-0.8l1.3-3.2h0.9l-2.6,6.3
		c-0.1,0.3-0.2,0.6-0.4,0.8s-0.3,0.5-0.5,0.6c-0.2,0.2-0.4,0.3-0.7,0.4c-0.3,0.1-0.6,0.2-0.9,0.2c-0.3,0-0.5,0-0.8-0.1l0.2-0.8
		C53.3,210.2,53.4,210.3,53.4,210.3z"/>
	<path d="M62,207.7c0-0.3,0.1-0.6,0.3-0.7c0.2-0.2,0.4-0.3,0.7-0.3s0.5,0.1,0.7,0.3s0.3,0.4,0.3,0.7s-0.1,0.5-0.3,0.7
		c-0.2,0.2-0.4,0.3-0.7,0.3s-0.5-0.1-0.7-0.3C62.1,208.3,62,208.1,62,207.7z"/>
	<path d="M75.4,200.7h4.8v0.8h-3.8v2.7h3.2v0.8h-3.2v3.5h-1V200.7z"/>
	<path d="M82.7,202.8h0.8l0.1,1.4h0c0.3-0.5,0.7-0.8,1.1-1.1c0.4-0.3,0.9-0.4,1.5-0.4c0.2,0,0.4,0,0.6,0.1c0.2,0,0.4,0.1,0.6,0.2
		l-0.2,0.9c-0.2-0.1-0.4-0.1-0.5-0.2c-0.1,0-0.3,0-0.6,0c-0.4,0-0.9,0.1-1.3,0.4c-0.4,0.3-0.8,0.7-1.1,1.3v3.4h-1V202.8z"/>
	<path d="M89,205.7c0-0.5,0.1-0.9,0.3-1.3s0.4-0.7,0.7-1s0.6-0.5,0.9-0.6s0.7-0.2,1.1-0.2c0.4,0,0.8,0.1,1.1,0.2
		c0.3,0.1,0.6,0.3,0.8,0.6c0.2,0.2,0.4,0.5,0.5,0.9c0.1,0.3,0.2,0.7,0.2,1.1c0,0.1,0,0.2,0,0.3s0,0.2,0,0.3H90
		c0,0.3,0.1,0.6,0.2,0.8c0.1,0.2,0.3,0.5,0.5,0.6c0.2,0.2,0.4,0.3,0.7,0.4c0.3,0.1,0.6,0.1,0.9,0.1c0.3,0,0.7,0,0.9-0.1
		c0.3-0.1,0.6-0.2,0.8-0.4l0.3,0.6c-0.3,0.2-0.6,0.3-1,0.5c-0.4,0.1-0.8,0.2-1.3,0.2c-0.4,0-0.8-0.1-1.2-0.2c-0.4-0.1-0.7-0.3-1-0.6
		c-0.3-0.3-0.5-0.6-0.7-1C89.1,206.6,89,206.2,89,205.7z M93.7,205.2c0-0.6-0.2-1-0.5-1.3c-0.3-0.3-0.7-0.5-1.3-0.5
		c-0.2,0-0.5,0-0.7,0.1c-0.2,0.1-0.4,0.2-0.6,0.4c-0.2,0.2-0.3,0.3-0.4,0.6c-0.1,0.2-0.2,0.5-0.2,0.8H93.7z"/>
	<path d="M96.1,205.7c0-0.5,0.1-0.9,0.2-1.3c0.1-0.4,0.3-0.7,0.6-1c0.2-0.3,0.5-0.5,0.8-0.6s0.7-0.2,1-0.2c0.4,0,0.7,0.1,1,0.2
		c0.3,0.1,0.6,0.3,0.8,0.6h0l0.1-0.6h0.8v8.3h-1v-2.1l0-1.1c-0.3,0.2-0.5,0.5-0.9,0.6c-0.3,0.2-0.7,0.3-1,0.3c-0.4,0-0.7-0.1-1-0.2
		c-0.3-0.1-0.6-0.3-0.8-0.6c-0.2-0.3-0.4-0.6-0.5-1S96.1,206.2,96.1,205.7z M97.1,205.7c0,0.7,0.1,1.3,0.4,1.6
		c0.3,0.4,0.7,0.6,1.3,0.6c0.6,0,1.1-0.3,1.6-0.9v-2.9c-0.3-0.2-0.5-0.4-0.8-0.5c-0.3-0.1-0.5-0.2-0.8-0.2s-0.5,0.1-0.7,0.2
		c-0.2,0.1-0.4,0.3-0.6,0.5s-0.3,0.4-0.4,0.7C97.2,205.1,97.1,205.4,97.1,205.7z"/>
	<path d="M108.6,208.6h-0.8l-0.1-1h0c-0.3,0.3-0.6,0.6-1,0.8c-0.3,0.2-0.8,0.3-1.2,0.3c-0.7,0-1.2-0.2-1.5-0.6
		c-0.3-0.4-0.5-1-0.5-1.8v-3.6h1v3.5c0,0.6,0.1,1,0.3,1.2s0.5,0.4,1,0.4c0.3,0,0.6-0.1,0.9-0.3s0.6-0.4,0.9-0.8v-4h1V208.6z"/>
	<path d="M110.6,205.7c0-0.5,0.1-0.9,0.3-1.3s0.4-0.7,0.7-1s0.6-0.5,0.9-0.6s0.7-0.2,1.1-0.2c0.4,0,0.8,0.1,1.1,0.2
		c0.3,0.1,0.6,0.3,0.8,0.6c0.2,0.2,0.4,0.5,0.5,0.9c0.1,0.3,0.2,0.7,0.2,1.1c0,0.1,0,0.2,0,0.3s0,0.2,0,0.3h-4.6
		c0,0.3,0.1,0.6,0.2,0.8c0.1,0.2,0.3,0.5,0.5,0.6c0.2,0.2,0.4,0.3,0.7,0.4c0.3,0.1,0.6,0.1,0.9,0.1c0.3,0,0.7,0,0.9-0.1
		c0.3-0.1,0.6-0.2,0.8-0.4l0.3,0.6c-0.3,0.2-0.6,0.3-1,0.5c-0.4,0.1-0.8,0.2-1.3,0.2c-0.4,0-0.8-0.1-1.2-0.2c-0.4-0.1-0.7-0.3-1-0.6
		c-0.3-0.3-0.5-0.6-0.7-1C110.7,206.6,110.6,206.2,110.6,205.7z M115.3,205.2c0-0.6-0.2-1-0.5-1.3c-0.3-0.3-0.7-0.5-1.3-0.5
		c-0.2,0-0.5,0-0.7,0.1c-0.2,0.1-0.4,0.2-0.6,0.4c-0.2,0.2-0.3,0.3-0.4,0.6c-0.1,0.2-0.2,0.5-0.2,0.8H115.3z"/>
	<path d="M118.1,202.8h0.8l0.1,1h0c0.3-0.3,0.6-0.6,1-0.8c0.4-0.2,0.8-0.3,1.2-0.3c0.7,0,1.2,0.2,1.5,0.6c0.3,0.4,0.5,1,0.5,1.8v3.6
		h-1v-3.5c0-0.6-0.1-1-0.3-1.2c-0.2-0.3-0.6-0.4-1-0.4c-0.2,0-0.3,0-0.5,0.1c-0.1,0-0.3,0.1-0.4,0.2s-0.3,0.2-0.4,0.3
		c-0.2,0.1-0.3,0.3-0.5,0.5v4.1h-1V202.8z"/>
	<path d="M125.1,205.7c0-0.5,0.1-0.9,0.3-1.3c0.2-0.4,0.4-0.7,0.7-1s0.6-0.5,1-0.6s0.8-0.2,1.3-0.2c0.5,0,0.9,0.1,1.2,0.3
		c0.3,0.2,0.6,0.4,0.9,0.6l-0.5,0.6c-0.2-0.2-0.5-0.4-0.8-0.5c-0.3-0.1-0.5-0.2-0.8-0.2c-0.3,0-0.6,0.1-0.9,0.2
		c-0.3,0.1-0.5,0.3-0.7,0.5c-0.2,0.2-0.4,0.4-0.5,0.7c-0.1,0.3-0.2,0.6-0.2,0.9s0.1,0.6,0.2,0.9c0.1,0.3,0.3,0.5,0.5,0.7
		c0.2,0.2,0.4,0.3,0.7,0.5c0.3,0.1,0.6,0.2,0.9,0.2c0.4,0,0.7-0.1,1-0.2c0.3-0.1,0.6-0.3,0.8-0.5l0.4,0.6c-0.3,0.3-0.7,0.5-1.1,0.7
		s-0.8,0.2-1.2,0.2c-0.5,0-0.9-0.1-1.3-0.2c-0.4-0.1-0.7-0.3-1-0.6c-0.3-0.3-0.5-0.6-0.7-1C125.2,206.6,125.1,206.2,125.1,205.7z"/>
	<path d="M132.6,210.3c0.1,0,0.2,0,0.3,0c0.4,0,0.7-0.1,1-0.4c0.3-0.2,0.5-0.5,0.6-0.9l0.2-0.4l-2.7-5.8h1l1.4,3.2
		c0.1,0.3,0.2,0.5,0.4,0.8c0.1,0.3,0.2,0.6,0.4,0.9h0c0.1-0.3,0.2-0.6,0.3-0.9c0.1-0.3,0.2-0.6,0.3-0.8l1.3-3.2h0.9l-2.6,6.3
		c-0.1,0.3-0.2,0.6-0.4,0.8s-0.3,0.5-0.5,0.6c-0.2,0.2-0.4,0.3-0.7,0.4c-0.3,0.1-0.6,0.2-0.9,0.2c-0.3,0-0.5,0-0.8-0.1l0.2-0.8
		C132.5,210.2,132.5,210.3,132.6,210.3z"/>
	<path d="M139.8,200.7h2.2c0.4,0,0.8,0,1.1,0.1c0.3,0.1,0.6,0.2,0.9,0.3c0.2,0.2,0.4,0.3,0.6,0.6s0.2,0.5,0.2,0.9
		c0,0.4-0.1,0.7-0.3,1.1c-0.2,0.3-0.6,0.5-1,0.7v0c0.6,0.1,1,0.3,1.3,0.6c0.3,0.3,0.5,0.7,0.5,1.3c0,0.4-0.1,0.7-0.2,1
		c-0.1,0.3-0.3,0.5-0.6,0.7c-0.3,0.2-0.6,0.3-0.9,0.4c-0.4,0.1-0.8,0.1-1.2,0.1h-2.3V200.7z M141.8,204.1c0.7,0,1.2-0.1,1.4-0.3
		s0.4-0.6,0.4-1c0-0.4-0.2-0.7-0.5-0.9c-0.3-0.2-0.8-0.3-1.4-0.3h-1v2.6H141.8z M142,207.8c0.7,0,1.2-0.1,1.6-0.4s0.6-0.6,0.6-1.2
		c0-0.5-0.2-0.8-0.5-1.1c-0.4-0.2-0.9-0.3-1.6-0.3h-1.2v3H142z"/>
	<path d="M146.9,202.8h3.7v5.8h-1v-5h-2.7V202.8z M150,201.6c-0.2,0-0.4-0.1-0.6-0.2c-0.1-0.1-0.2-0.3-0.2-0.6s0.1-0.4,0.2-0.6
		s0.3-0.2,0.6-0.2c0.2,0,0.4,0.1,0.6,0.2c0.2,0.1,0.2,0.3,0.2,0.6s-0.1,0.4-0.2,0.6C150.4,201.5,150.2,201.6,150,201.6z"/>
	<path d="M154.1,202.8h0.8l0.1,1h0c0.3-0.3,0.6-0.6,1-0.8c0.4-0.2,0.8-0.3,1.2-0.3c0.7,0,1.2,0.2,1.5,0.6c0.3,0.4,0.5,1,0.5,1.8v3.6
		h-1v-3.5c0-0.6-0.1-1-0.3-1.2c-0.2-0.3-0.6-0.4-1-0.4c-0.2,0-0.3,0-0.5,0.1c-0.1,0-0.3,0.1-0.4,0.2s-0.3,0.2-0.4,0.3
		c-0.2,0.1-0.3,0.3-0.5,0.5v4.1h-1V202.8z"/>
	<path d="M161,204.7c0-0.6,0.1-1.2,0.3-1.7c0.2-0.5,0.4-0.9,0.7-1.3s0.7-0.6,1.1-0.8c0.4-0.2,0.9-0.3,1.4-0.3c0.5,0,0.9,0.1,1.3,0.3
		c0.4,0.2,0.7,0.4,0.9,0.7l-0.6,0.6c-0.2-0.2-0.4-0.4-0.7-0.5c-0.3-0.1-0.6-0.2-0.9-0.2c-0.4,0-0.7,0.1-1,0.2
		c-0.3,0.1-0.6,0.4-0.8,0.6c-0.2,0.3-0.4,0.6-0.5,1c-0.1,0.4-0.2,0.8-0.2,1.3c0,0.5,0.1,0.9,0.2,1.3c0.1,0.4,0.3,0.7,0.5,1
		c0.2,0.3,0.5,0.5,0.8,0.6c0.3,0.2,0.6,0.2,1,0.2c0.4,0,0.7-0.1,1-0.2c0.3-0.2,0.5-0.4,0.8-0.6l0.6,0.6c-0.3,0.4-0.7,0.6-1.1,0.8
		c-0.4,0.2-0.8,0.3-1.3,0.3c-0.5,0-1-0.1-1.4-0.3c-0.4-0.2-0.8-0.5-1.1-0.8c-0.3-0.3-0.6-0.8-0.7-1.3
		C161.1,205.9,161,205.3,161,204.7z"/>
	<path d="M168.1,205.7c0-0.5,0.1-0.9,0.2-1.3c0.2-0.4,0.4-0.7,0.6-1s0.6-0.5,0.9-0.6s0.7-0.2,1.1-0.2c0.4,0,0.8,0.1,1.1,0.2
		c0.3,0.1,0.7,0.3,0.9,0.6c0.3,0.3,0.5,0.6,0.6,1c0.2,0.4,0.2,0.8,0.2,1.3c0,0.5-0.1,0.9-0.2,1.3c-0.2,0.4-0.4,0.7-0.6,1
		c-0.3,0.3-0.6,0.5-0.9,0.6c-0.3,0.1-0.7,0.2-1.1,0.2c-0.4,0-0.8-0.1-1.1-0.2c-0.3-0.1-0.7-0.3-0.9-0.6c-0.3-0.3-0.5-0.6-0.6-1
		C168.2,206.6,168.1,206.2,168.1,205.7z M169.1,205.7c0,0.3,0,0.6,0.1,0.9c0.1,0.3,0.2,0.5,0.4,0.7c0.2,0.2,0.4,0.3,0.6,0.5
		c0.2,0.1,0.5,0.2,0.8,0.2c0.3,0,0.5-0.1,0.8-0.2c0.2-0.1,0.4-0.3,0.6-0.5c0.2-0.2,0.3-0.4,0.4-0.7c0.1-0.3,0.1-0.6,0.1-0.9
		s0-0.6-0.1-0.9c-0.1-0.3-0.2-0.5-0.4-0.7c-0.2-0.2-0.4-0.4-0.6-0.5c-0.2-0.1-0.5-0.2-0.8-0.2c-0.3,0-0.5,0.1-0.8,0.2
		c-0.2,0.1-0.4,0.3-0.6,0.5c-0.2,0.2-0.3,0.4-0.4,0.7C169.2,205.1,169.1,205.4,169.1,205.7z"/>
	<path d="M180.6,208.6h-0.8l-0.1-1h0c-0.3,0.3-0.6,0.6-1,0.8c-0.3,0.2-0.8,0.3-1.2,0.3c-0.7,0-1.2-0.2-1.5-0.6
		c-0.3-0.4-0.5-1-0.5-1.8v-3.6h1v3.5c0,0.6,0.1,1,0.3,1.2s0.5,0.4,1,0.4c0.3,0,0.6-0.1,0.9-0.3s0.6-0.4,0.9-0.8v-4h1V208.6z"/>
	<path d="M182.9,202.8h0.8l0.1,1h0c0.3-0.3,0.6-0.6,1-0.8c0.4-0.2,0.8-0.3,1.2-0.3c0.7,0,1.2,0.2,1.5,0.6c0.3,0.4,0.5,1,0.5,1.8v3.6
		h-1v-3.5c0-0.6-0.1-1-0.3-1.2c-0.2-0.3-0.6-0.4-1-0.4c-0.2,0-0.3,0-0.5,0.1c-0.1,0-0.3,0.1-0.4,0.2s-0.3,0.2-0.4,0.3
		c-0.2,0.1-0.3,0.3-0.5,0.5v4.1h-1V202.8z"/>
	<path d="M191.4,203.6h-1.6v-0.7l1.7-0.1l0.1-1.6h0.8v1.6h2.9v0.8h-2.9v2.8c0,0.3,0,0.5,0.1,0.7c0,0.2,0.1,0.4,0.2,0.5
		c0.1,0.1,0.3,0.2,0.5,0.3s0.4,0.1,0.7,0.1c0.3,0,0.5,0,0.8-0.1c0.2,0,0.4-0.1,0.6-0.2l0.2,0.7c-0.3,0.1-0.6,0.2-0.9,0.2
		c-0.3,0.1-0.6,0.1-1,0.1c-0.4,0-0.8-0.1-1.1-0.2s-0.5-0.3-0.7-0.5c-0.2-0.2-0.3-0.5-0.4-0.8c-0.1-0.3-0.1-0.6-0.1-1V203.6z"/>
	<path d="M204.2,205.7c0-0.5,0.1-0.9,0.3-1.3s0.4-0.7,0.7-1s0.6-0.5,0.9-0.6s0.7-0.2,1.1-0.2c0.4,0,0.8,0.1,1.1,0.2
		c0.3,0.1,0.6,0.3,0.8,0.6c0.2,0.2,0.4,0.5,0.5,0.9c0.1,0.3,0.2,0.7,0.2,1.1c0,0.1,0,0.2,0,0.3s0,0.2,0,0.3h-4.6
		c0,0.3,0.1,0.6,0.2,0.8c0.1,0.2,0.3,0.5,0.5,0.6c0.2,0.2,0.4,0.3,0.7,0.4c0.3,0.1,0.6,0.1,0.9,0.1c0.3,0,0.7,0,0.9-0.1
		c0.3-0.1,0.6-0.2,0.8-0.4l0.3,0.6c-0.3,0.2-0.6,0.3-1,0.5c-0.4,0.1-0.8,0.2-1.3,0.2c-0.4,0-0.8-0.1-1.2-0.2c-0.4-0.1-0.7-0.3-1-0.6
		c-0.3-0.3-0.5-0.6-0.7-1C204.3,206.6,204.2,206.2,204.2,205.7z M208.9,205.2c0-0.6-0.2-1-0.5-1.3c-0.3-0.3-0.7-0.5-1.3-0.5
		c-0.2,0-0.5,0-0.7,0.1c-0.2,0.1-0.4,0.2-0.6,0.4c-0.2,0.2-0.3,0.3-0.4,0.6c-0.1,0.2-0.2,0.5-0.2,0.8H208.9z"/>
	<path d="M211.3,205.7c0-0.5,0.1-0.9,0.2-1.3c0.1-0.4,0.3-0.7,0.6-1c0.2-0.3,0.5-0.5,0.8-0.6s0.7-0.2,1-0.2c0.4,0,0.7,0.1,1,0.2
		c0.3,0.1,0.6,0.3,0.8,0.6h0l0.1-0.6h0.8v8.3h-1v-2.1l0-1.1c-0.3,0.2-0.5,0.5-0.9,0.6c-0.3,0.2-0.7,0.3-1,0.3c-0.4,0-0.7-0.1-1-0.2
		c-0.3-0.1-0.6-0.3-0.8-0.6c-0.2-0.3-0.4-0.6-0.5-1S211.3,206.2,211.3,205.7z M212.3,205.7c0,0.7,0.1,1.3,0.4,1.6
		c0.3,0.4,0.7,0.6,1.3,0.6c0.6,0,1.1-0.3,1.6-0.9v-2.9c-0.3-0.2-0.5-0.4-0.8-0.5c-0.3-0.1-0.5-0.2-0.8-0.2s-0.5,0.1-0.7,0.2
		c-0.2,0.1-0.4,0.3-0.6,0.5s-0.3,0.4-0.4,0.7C212.4,205.1,212.3,205.4,212.3,205.7z"/>
	<path d="M223.8,208.6H223l-0.1-1h0c-0.3,0.3-0.6,0.6-1,0.8c-0.3,0.2-0.8,0.3-1.2,0.3c-0.7,0-1.2-0.2-1.5-0.6
		c-0.3-0.4-0.5-1-0.5-1.8v-3.6h1v3.5c0,0.6,0.1,1,0.3,1.2s0.5,0.4,1,0.4c0.3,0,0.6-0.1,0.9-0.3c0.3-0.2,0.6-0.4,0.9-0.8v-4h1V208.6z
		"/>
	<path d="M225.9,207.1c0-0.3,0.1-0.6,0.2-0.9c0.2-0.2,0.4-0.5,0.7-0.6c0.3-0.2,0.8-0.3,1.3-0.4c0.5-0.1,1.2-0.2,1.9-0.3
		c0-0.2,0-0.4-0.1-0.6c-0.1-0.2-0.1-0.3-0.3-0.5c-0.1-0.1-0.3-0.2-0.5-0.3c-0.2-0.1-0.4-0.1-0.7-0.1c-0.4,0-0.8,0.1-1.1,0.2
		s-0.7,0.3-0.9,0.5l-0.4-0.7c0.1-0.1,0.3-0.2,0.5-0.3c0.2-0.1,0.4-0.2,0.6-0.3c0.2-0.1,0.5-0.1,0.7-0.2c0.2-0.1,0.5-0.1,0.8-0.1
		c0.8,0,1.4,0.2,1.8,0.7c0.4,0.4,0.6,1,0.6,1.7v3.6h-0.8l-0.1-0.8h0c-0.3,0.3-0.7,0.5-1.1,0.7c-0.4,0.2-0.8,0.3-1.2,0.3
		c-0.3,0-0.5,0-0.8-0.1c-0.2-0.1-0.4-0.2-0.6-0.3c-0.2-0.1-0.3-0.3-0.4-0.5C226,207.6,225.9,207.4,225.9,207.1z M226.9,207
		c0,0.2,0,0.3,0.1,0.4c0.1,0.1,0.2,0.2,0.3,0.3c0.1,0.1,0.3,0.1,0.4,0.2c0.2,0,0.3,0.1,0.5,0.1c0.3,0,0.7-0.1,1-0.2
		c0.3-0.1,0.7-0.4,1-0.6v-1.5c-0.6,0-1.1,0.1-1.6,0.2s-0.8,0.2-1,0.3c-0.3,0.1-0.4,0.3-0.5,0.4S226.9,206.8,226.9,207z"/>
	<path d="M234.6,203.6H233v-0.7l1.7-0.1l0.1-1.6h0.8v1.6h2.9v0.8h-2.9v2.8c0,0.3,0,0.5,0.1,0.7c0,0.2,0.1,0.4,0.2,0.5
		c0.1,0.1,0.3,0.2,0.5,0.3s0.4,0.1,0.7,0.1s0.5,0,0.8-0.1c0.2,0,0.4-0.1,0.6-0.2l0.2,0.7c-0.3,0.1-0.6,0.2-0.9,0.2
		c-0.3,0.1-0.6,0.1-1,0.1c-0.4,0-0.8-0.1-1.1-0.2s-0.5-0.3-0.7-0.5c-0.2-0.2-0.3-0.5-0.4-0.8c-0.1-0.3-0.1-0.6-0.1-1V203.6z"/>
	<path d="M240.2,205.7c0-0.5,0.1-0.9,0.3-1.3s0.4-0.7,0.7-1s0.6-0.5,0.9-0.6c0.4-0.1,0.7-0.2,1.1-0.2c0.4,0,0.8,0.1,1.1,0.2
		c0.3,0.1,0.6,0.3,0.8,0.6c0.2,0.2,0.4,0.5,0.5,0.9c0.1,0.3,0.2,0.7,0.2,1.1c0,0.1,0,0.2,0,0.3s0,0.2,0,0.3h-4.6
		c0,0.3,0.1,0.6,0.2,0.8c0.1,0.2,0.3,0.5,0.5,0.6s0.4,0.3,0.7,0.4c0.3,0.1,0.6,0.1,0.9,0.1c0.3,0,0.7,0,0.9-0.1
		c0.3-0.1,0.6-0.2,0.8-0.4l0.3,0.6c-0.3,0.2-0.6,0.3-1,0.5c-0.4,0.1-0.8,0.2-1.3,0.2c-0.4,0-0.8-0.1-1.2-0.2c-0.4-0.1-0.7-0.3-1-0.6
		s-0.5-0.6-0.7-1C240.3,206.6,240.2,206.2,240.2,205.7z M244.9,205.2c0-0.6-0.2-1-0.5-1.3c-0.3-0.3-0.7-0.5-1.3-0.5
		c-0.2,0-0.5,0-0.7,0.1c-0.2,0.1-0.4,0.2-0.6,0.4c-0.2,0.2-0.3,0.3-0.4,0.6c-0.1,0.2-0.2,0.5-0.2,0.8H244.9z"/>
	<path d="M247.9,207.2c0.3,0.2,0.7,0.4,1.1,0.6s0.8,0.2,1.4,0.2c0.5,0,0.9-0.1,1.2-0.3s0.4-0.4,0.4-0.6c0-0.2-0.1-0.4-0.4-0.6
		s-0.8-0.4-1.5-0.5c-0.3-0.1-0.6-0.2-0.9-0.3s-0.5-0.2-0.7-0.4c-0.2-0.1-0.4-0.3-0.5-0.5c-0.1-0.2-0.2-0.4-0.2-0.6
		c0-0.2,0.1-0.4,0.2-0.7c0.1-0.2,0.3-0.4,0.5-0.5s0.5-0.3,0.8-0.3c0.3-0.1,0.7-0.1,1.1-0.1c0.4,0,0.9,0.1,1.3,0.2s0.8,0.3,1.1,0.5
		l-0.5,0.6c-0.3-0.2-0.5-0.3-0.9-0.4c-0.3-0.1-0.6-0.2-1-0.2c-0.3,0-0.5,0-0.7,0.1c-0.2,0-0.3,0.1-0.4,0.2c-0.1,0.1-0.2,0.2-0.2,0.3
		c0,0.1-0.1,0.2-0.1,0.3c0,0.2,0.2,0.4,0.5,0.6s0.8,0.3,1.3,0.4c0.8,0.2,1.4,0.4,1.8,0.7c0.4,0.3,0.6,0.6,0.6,1.1
		c0,0.2-0.1,0.5-0.2,0.7c-0.1,0.2-0.3,0.4-0.5,0.6s-0.5,0.3-0.8,0.4c-0.3,0.1-0.7,0.1-1.1,0.1c-0.6,0-1.1-0.1-1.6-0.3
		c-0.5-0.2-0.9-0.4-1.3-0.6L247.9,207.2z"/>
	<path d="M263.4,203.6h-1.6v-0.7l1.7-0.1l0.1-1.6h0.8v1.6h2.9v0.8h-2.9v2.8c0,0.3,0,0.5,0.1,0.7c0,0.2,0.1,0.4,0.2,0.5
		c0.1,0.1,0.3,0.2,0.5,0.3s0.4,0.1,0.7,0.1s0.5,0,0.8-0.1c0.2,0,0.4-0.1,0.6-0.2l0.2,0.7c-0.3,0.1-0.6,0.2-0.9,0.2
		c-0.3,0.1-0.6,0.1-1,0.1c-0.4,0-0.8-0.1-1.1-0.2s-0.5-0.3-0.7-0.5c-0.2-0.2-0.3-0.5-0.4-0.8c-0.1-0.3-0.1-0.6-0.1-1V203.6z"/>
	<path d="M268.9,205.7c0-0.5,0.1-0.9,0.2-1.3c0.2-0.4,0.4-0.7,0.6-1s0.6-0.5,0.9-0.6s0.7-0.2,1.1-0.2c0.4,0,0.8,0.1,1.1,0.2
		s0.7,0.3,0.9,0.6s0.5,0.6,0.6,1c0.2,0.4,0.2,0.8,0.2,1.3c0,0.5-0.1,0.9-0.2,1.3c-0.2,0.4-0.4,0.7-0.6,1c-0.3,0.3-0.6,0.5-0.9,0.6
		c-0.3,0.1-0.7,0.2-1.1,0.2c-0.4,0-0.8-0.1-1.1-0.2c-0.3-0.1-0.7-0.3-0.9-0.6c-0.3-0.3-0.5-0.6-0.6-1
		C269,206.6,268.9,206.2,268.9,205.7z M269.9,205.7c0,0.3,0,0.6,0.1,0.9c0.1,0.3,0.2,0.5,0.4,0.7c0.2,0.2,0.4,0.3,0.6,0.5
		c0.2,0.1,0.5,0.2,0.8,0.2c0.3,0,0.5-0.1,0.8-0.2c0.2-0.1,0.4-0.3,0.6-0.5c0.2-0.2,0.3-0.4,0.4-0.7c0.1-0.3,0.1-0.6,0.1-0.9
		s0-0.6-0.1-0.9c-0.1-0.3-0.2-0.5-0.4-0.7c-0.2-0.2-0.4-0.4-0.6-0.5c-0.2-0.1-0.5-0.2-0.8-0.2c-0.3,0-0.5,0.1-0.8,0.2
		c-0.2,0.1-0.4,0.3-0.6,0.5c-0.2,0.2-0.3,0.4-0.4,0.7C270,205.1,269.9,205.4,269.9,205.7z"/>
	<path d="M25.9,218h-1.6v-0.7l1.7-0.1l0.1-1.6h0.8v1.6h2.9v0.8h-2.9v2.8c0,0.3,0,0.5,0.1,0.7c0,0.2,0.1,0.4,0.2,0.5
		c0.1,0.1,0.3,0.2,0.5,0.3c0.2,0.1,0.4,0.1,0.7,0.1c0.3,0,0.5,0,0.8-0.1s0.4-0.1,0.6-0.2l0.2,0.7c-0.3,0.1-0.6,0.2-0.9,0.2
		c-0.3,0.1-0.6,0.1-1,0.1c-0.4,0-0.8-0.1-1.1-0.2c-0.3-0.1-0.5-0.3-0.7-0.5c-0.2-0.2-0.3-0.5-0.4-0.8c-0.1-0.3-0.1-0.6-0.1-1V218z"
		/>
	<path d="M31.7,214.5h1v2.3l0,1.4c0.3-0.3,0.6-0.6,1-0.8s0.8-0.3,1.2-0.3c0.7,0,1.2,0.2,1.5,0.6c0.3,0.4,0.5,1,0.5,1.8v3.6h-1v-3.5
		c0-0.6-0.1-1-0.3-1.2s-0.6-0.4-1-0.4c-0.2,0-0.3,0-0.5,0.1c-0.1,0-0.3,0.1-0.4,0.2c-0.1,0.1-0.3,0.2-0.4,0.3
		c-0.2,0.1-0.3,0.3-0.5,0.5v4.1h-1V214.5z"/>
	<path d="M38.6,220.1c0-0.5,0.1-0.9,0.3-1.3c0.2-0.4,0.4-0.7,0.7-1s0.6-0.5,0.9-0.6c0.4-0.1,0.7-0.2,1.1-0.2c0.4,0,0.8,0.1,1.1,0.2
		c0.3,0.1,0.6,0.3,0.8,0.6s0.4,0.5,0.5,0.9c0.1,0.3,0.2,0.7,0.2,1.1c0,0.1,0,0.2,0,0.3c0,0.1,0,0.2,0,0.3h-4.6
		c0,0.3,0.1,0.6,0.2,0.8c0.1,0.2,0.3,0.5,0.5,0.6c0.2,0.2,0.4,0.3,0.7,0.4c0.3,0.1,0.6,0.1,0.9,0.1c0.3,0,0.7,0,0.9-0.1
		c0.3-0.1,0.6-0.2,0.8-0.4l0.3,0.6c-0.3,0.2-0.6,0.3-1,0.5c-0.4,0.1-0.8,0.2-1.3,0.2c-0.4,0-0.8-0.1-1.2-0.2c-0.4-0.1-0.7-0.3-1-0.6
		c-0.3-0.3-0.5-0.6-0.7-1C38.7,221,38.6,220.6,38.6,220.1z M43.3,219.6c0-0.6-0.2-1-0.5-1.3c-0.3-0.3-0.7-0.5-1.3-0.5
		c-0.2,0-0.5,0-0.7,0.1c-0.2,0.1-0.4,0.2-0.6,0.4c-0.2,0.2-0.3,0.3-0.4,0.6c-0.1,0.2-0.2,0.5-0.2,0.8H43.3z"/>
	<path d="M53.3,217.2h0.8l0.1,1h0c0.3-0.3,0.6-0.6,1-0.8s0.8-0.3,1.2-0.3c0.7,0,1.2,0.2,1.5,0.6c0.3,0.4,0.5,1,0.5,1.8v3.6h-1v-3.5
		c0-0.6-0.1-1-0.3-1.2s-0.6-0.4-1-0.4c-0.2,0-0.3,0-0.5,0.1c-0.1,0-0.3,0.1-0.4,0.2c-0.1,0.1-0.3,0.2-0.4,0.3
		c-0.2,0.1-0.3,0.3-0.5,0.5v4.1h-1V217.2z"/>
	<path d="M65.4,223h-0.8l-0.1-1h0c-0.3,0.3-0.6,0.6-1,0.8c-0.3,0.2-0.8,0.3-1.2,0.3c-0.7,0-1.2-0.2-1.5-0.6c-0.3-0.4-0.5-1-0.5-1.8
		v-3.6h1v3.5c0,0.6,0.1,1,0.3,1.2c0.2,0.3,0.5,0.4,1,0.4c0.3,0,0.6-0.1,0.9-0.3s0.6-0.4,0.9-0.8v-4h1V223z"/>
	<path d="M67.3,217.2h0.8l0.1,0.8h0c0.1-0.3,0.3-0.5,0.5-0.7c0.2-0.2,0.5-0.3,0.8-0.3c0.6,0,1,0.3,1.1,1c0.2-0.3,0.4-0.5,0.6-0.7
		c0.2-0.2,0.5-0.3,0.8-0.3c0.4,0,0.7,0.2,0.9,0.5c0.2,0.3,0.3,0.8,0.3,1.3v4.2h-0.9v-4.1c0-0.7-0.2-1-0.6-1c-0.2,0-0.4,0.1-0.5,0.2
		s-0.3,0.4-0.5,0.7v4.2h-0.8v-4.1c0-0.7-0.2-1-0.7-1c-0.2,0-0.4,0.1-0.5,0.2s-0.3,0.4-0.4,0.7v4.2h-0.9V217.2z"/>
	<path d="M74.9,214.5h1v2.3l0,1.1c0.3-0.3,0.6-0.5,0.9-0.6s0.7-0.2,1-0.2c0.4,0,0.7,0.1,1,0.2c0.3,0.1,0.6,0.3,0.8,0.6
		c0.2,0.3,0.4,0.6,0.5,0.9c0.1,0.4,0.2,0.8,0.2,1.2c0,0.5-0.1,0.9-0.2,1.3c-0.1,0.4-0.3,0.7-0.6,1c-0.2,0.3-0.5,0.5-0.8,0.6
		s-0.7,0.2-1,0.2c-0.3,0-0.6-0.1-0.9-0.2c-0.3-0.1-0.6-0.3-0.9-0.6h0l-0.1,0.6h-0.8V214.5z M75.9,221.6c0.3,0.2,0.6,0.4,0.8,0.5
		c0.3,0.1,0.5,0.2,0.7,0.2c0.3,0,0.5-0.1,0.7-0.2c0.2-0.1,0.4-0.3,0.6-0.5c0.2-0.2,0.3-0.4,0.4-0.7c0.1-0.3,0.1-0.6,0.1-1
		c0-0.3,0-0.6-0.1-0.9s-0.2-0.5-0.3-0.7c-0.1-0.2-0.3-0.3-0.5-0.4s-0.5-0.2-0.7-0.2c-0.3,0-0.5,0.1-0.8,0.2
		c-0.3,0.1-0.6,0.4-0.9,0.7V221.6z"/>
	<path d="M81.8,220.1c0-0.5,0.1-0.9,0.3-1.3c0.2-0.4,0.4-0.7,0.7-1s0.6-0.5,0.9-0.6c0.4-0.1,0.7-0.2,1.1-0.2c0.4,0,0.8,0.1,1.1,0.2
		c0.3,0.1,0.6,0.3,0.8,0.6s0.4,0.5,0.5,0.9c0.1,0.3,0.2,0.7,0.2,1.1c0,0.1,0,0.2,0,0.3c0,0.1,0,0.2,0,0.3h-4.6
		c0,0.3,0.1,0.6,0.2,0.8c0.1,0.2,0.3,0.5,0.5,0.6c0.2,0.2,0.4,0.3,0.7,0.4c0.3,0.1,0.6,0.1,0.9,0.1c0.3,0,0.7,0,0.9-0.1
		c0.3-0.1,0.6-0.2,0.8-0.4l0.3,0.6c-0.3,0.2-0.6,0.3-1,0.5c-0.4,0.1-0.8,0.2-1.3,0.2c-0.4,0-0.8-0.1-1.2-0.2c-0.4-0.1-0.7-0.3-1-0.6
		c-0.3-0.3-0.5-0.6-0.7-1C81.9,221,81.8,220.6,81.8,220.1z M86.5,219.6c0-0.6-0.2-1-0.5-1.3c-0.3-0.3-0.7-0.5-1.3-0.5
		c-0.2,0-0.5,0-0.7,0.1c-0.2,0.1-0.4,0.2-0.6,0.4c-0.2,0.2-0.3,0.3-0.4,0.6c-0.1,0.2-0.2,0.5-0.2,0.8H86.5z"/>
	<path d="M89.9,217.2h0.8l0.1,1.4h0c0.3-0.5,0.7-0.8,1.1-1.1s0.9-0.4,1.5-0.4c0.2,0,0.4,0,0.6,0.1c0.2,0,0.4,0.1,0.6,0.2l-0.2,0.9
		c-0.2-0.1-0.4-0.1-0.5-0.2c-0.1,0-0.3,0-0.6,0c-0.4,0-0.9,0.1-1.3,0.4c-0.4,0.3-0.8,0.7-1.1,1.3v3.4h-1V217.2z"/>
	<path d="M103.3,220.1c0-0.5,0.1-0.9,0.2-1.3c0.2-0.4,0.4-0.7,0.6-1s0.6-0.5,0.9-0.6c0.3-0.1,0.7-0.2,1.1-0.2c0.4,0,0.8,0.1,1.1,0.2
		c0.3,0.1,0.7,0.3,0.9,0.6c0.3,0.3,0.5,0.6,0.6,1c0.2,0.4,0.2,0.8,0.2,1.3c0,0.5-0.1,0.9-0.2,1.3c-0.2,0.4-0.4,0.7-0.6,1
		c-0.3,0.3-0.6,0.5-0.9,0.6c-0.3,0.1-0.7,0.2-1.1,0.2c-0.4,0-0.8-0.1-1.1-0.2s-0.7-0.3-0.9-0.6s-0.5-0.6-0.6-1
		C103.4,221,103.3,220.6,103.3,220.1z M104.3,220.1c0,0.3,0,0.6,0.1,0.9c0.1,0.3,0.2,0.5,0.4,0.7c0.2,0.2,0.4,0.3,0.6,0.5
		c0.2,0.1,0.5,0.2,0.8,0.2c0.3,0,0.5-0.1,0.8-0.2c0.2-0.1,0.4-0.3,0.6-0.5c0.2-0.2,0.3-0.4,0.4-0.7c0.1-0.3,0.1-0.6,0.1-0.9
		s0-0.6-0.1-0.9c-0.1-0.3-0.2-0.5-0.4-0.7c-0.2-0.2-0.4-0.4-0.6-0.5c-0.2-0.1-0.5-0.2-0.8-0.2c-0.3,0-0.5,0.1-0.8,0.2
		c-0.2,0.1-0.4,0.3-0.6,0.5c-0.2,0.2-0.3,0.4-0.4,0.7C104.4,219.5,104.3,219.8,104.3,220.1z"/>
	<path d="M116.5,215.4c-0.2-0.1-0.5-0.2-0.7-0.2c-0.2,0-0.4-0.1-0.7-0.1c-0.5,0-0.9,0.1-1.1,0.4c-0.2,0.3-0.3,0.6-0.3,1.1v0.5h2.4
		v0.8h-2.4v5h-1v-5H111v-0.7l1.7-0.1v-0.5c0-0.7,0.2-1.3,0.6-1.7c0.4-0.4,1-0.6,1.8-0.6c0.6,0,1.1,0.1,1.7,0.3L116.5,215.4z"/>
	<path d="M124.9,220.1c0-0.5,0.1-0.9,0.2-1.3c0.1-0.4,0.3-0.7,0.6-1s0.5-0.5,0.8-0.6c0.3-0.1,0.7-0.2,1-0.2c0.4,0,0.7,0.1,0.9,0.2
		c0.3,0.1,0.5,0.3,0.8,0.6l0-1.1v-2.2h1v8.5h-0.8l-0.1-0.8h0c-0.2,0.2-0.5,0.5-0.9,0.6s-0.7,0.3-1,0.3c-0.4,0-0.7-0.1-1-0.2
		s-0.6-0.3-0.8-0.6c-0.2-0.3-0.4-0.6-0.5-1C125,221,124.9,220.6,124.9,220.1z M125.9,220.1c0,0.7,0.1,1.3,0.4,1.6
		c0.3,0.4,0.7,0.6,1.3,0.6c0.6,0,1.1-0.3,1.6-0.9v-2.9c-0.3-0.2-0.5-0.4-0.8-0.5s-0.5-0.2-0.8-0.2s-0.5,0.1-0.7,0.2
		c-0.2,0.1-0.4,0.3-0.6,0.5c-0.2,0.2-0.3,0.4-0.4,0.7C126,219.5,125.9,219.8,125.9,220.1z"/>
	<path d="M132.3,221.5c0-0.3,0.1-0.6,0.2-0.9c0.2-0.2,0.4-0.5,0.7-0.6c0.3-0.2,0.8-0.3,1.3-0.4c0.5-0.1,1.2-0.2,1.9-0.3
		c0-0.2,0-0.4-0.1-0.6c-0.1-0.2-0.1-0.3-0.3-0.5c-0.1-0.1-0.3-0.2-0.5-0.3c-0.2-0.1-0.4-0.1-0.7-0.1c-0.4,0-0.8,0.1-1.1,0.2
		c-0.4,0.1-0.7,0.3-0.9,0.5l-0.4-0.7c0.1-0.1,0.3-0.2,0.5-0.3c0.2-0.1,0.4-0.2,0.6-0.3s0.5-0.1,0.7-0.2s0.5-0.1,0.8-0.1
		c0.8,0,1.4,0.2,1.8,0.7c0.4,0.4,0.6,1,0.6,1.7v3.6h-0.8l-0.1-0.8h0c-0.3,0.3-0.7,0.5-1.1,0.7s-0.8,0.3-1.2,0.3
		c-0.3,0-0.5,0-0.8-0.1c-0.2-0.1-0.5-0.2-0.6-0.3c-0.2-0.1-0.3-0.3-0.4-0.5S132.3,221.8,132.3,221.5z M133.3,221.4
		c0,0.2,0,0.3,0.1,0.4c0.1,0.1,0.2,0.2,0.3,0.3c0.1,0.1,0.3,0.1,0.4,0.2c0.2,0,0.3,0.1,0.5,0.1c0.3,0,0.7-0.1,1-0.2
		c0.3-0.1,0.7-0.4,1-0.6V220c-0.6,0-1.1,0.1-1.6,0.2s-0.8,0.2-1,0.3c-0.3,0.1-0.4,0.3-0.5,0.4C133.4,221.1,133.3,221.2,133.3,221.4z
		"/>
	<path d="M141,218h-1.6v-0.7l1.7-0.1l0.1-1.6h0.8v1.6h2.9v0.8H142v2.8c0,0.3,0,0.5,0.1,0.7c0,0.2,0.1,0.4,0.2,0.5
		c0.1,0.1,0.3,0.2,0.5,0.3c0.2,0.1,0.4,0.1,0.7,0.1c0.3,0,0.5,0,0.8-0.1s0.4-0.1,0.6-0.2l0.2,0.7c-0.3,0.1-0.6,0.2-0.9,0.2
		c-0.3,0.1-0.6,0.1-1,0.1c-0.4,0-0.8-0.1-1.1-0.2c-0.3-0.1-0.5-0.3-0.7-0.5c-0.2-0.2-0.3-0.5-0.4-0.8c-0.1-0.3-0.1-0.6-0.1-1V218z"
		/>
	<path d="M146.7,221.5c0-0.3,0.1-0.6,0.2-0.9c0.2-0.2,0.4-0.5,0.7-0.6c0.3-0.2,0.8-0.3,1.3-0.4c0.5-0.1,1.2-0.2,1.9-0.3
		c0-0.2,0-0.4-0.1-0.6c-0.1-0.2-0.1-0.3-0.3-0.5c-0.1-0.1-0.3-0.2-0.5-0.3c-0.2-0.1-0.4-0.1-0.7-0.1c-0.4,0-0.8,0.1-1.1,0.2
		c-0.4,0.1-0.7,0.3-0.9,0.5l-0.4-0.7c0.1-0.1,0.3-0.2,0.5-0.3c0.2-0.1,0.4-0.2,0.6-0.3s0.5-0.1,0.7-0.2s0.5-0.1,0.8-0.1
		c0.8,0,1.4,0.2,1.8,0.7c0.4,0.4,0.6,1,0.6,1.7v3.6h-0.8l-0.1-0.8h0c-0.3,0.3-0.7,0.5-1.1,0.7s-0.8,0.3-1.2,0.3
		c-0.3,0-0.5,0-0.8-0.1c-0.2-0.1-0.5-0.2-0.6-0.3c-0.2-0.1-0.3-0.3-0.4-0.5S146.7,221.8,146.7,221.5z M147.7,221.4
		c0,0.2,0,0.3,0.1,0.4c0.1,0.1,0.2,0.2,0.3,0.3c0.1,0.1,0.3,0.1,0.4,0.2c0.2,0,0.3,0.1,0.5,0.1c0.3,0,0.7-0.1,1-0.2
		c0.3-0.1,0.7-0.4,1-0.6V220c-0.6,0-1.1,0.1-1.6,0.2s-0.8,0.2-1,0.3c-0.3,0.1-0.4,0.3-0.5,0.4C147.8,221.1,147.7,221.2,147.7,221.4z
		"/>
	<path d="M160.8,217.2h1l1.3,3.3c0.1,0.3,0.2,0.6,0.3,0.9s0.2,0.6,0.3,0.8h0c0.1-0.3,0.2-0.6,0.3-0.8s0.2-0.6,0.3-0.9l1.3-3.3h0.9
		l-2.4,5.8h-1.1L160.8,217.2z"/>
	<path d="M168.3,221.5c0-0.3,0.1-0.6,0.2-0.9c0.2-0.2,0.4-0.5,0.7-0.6c0.3-0.2,0.8-0.3,1.3-0.4c0.5-0.1,1.2-0.2,1.9-0.3
		c0-0.2,0-0.4-0.1-0.6c-0.1-0.2-0.1-0.3-0.3-0.5c-0.1-0.1-0.3-0.2-0.5-0.3c-0.2-0.1-0.4-0.1-0.7-0.1c-0.4,0-0.8,0.1-1.1,0.2
		c-0.4,0.1-0.7,0.3-0.9,0.5l-0.4-0.7c0.1-0.1,0.3-0.2,0.5-0.3c0.2-0.1,0.4-0.2,0.6-0.3s0.5-0.1,0.7-0.2s0.5-0.1,0.8-0.1
		c0.8,0,1.4,0.2,1.8,0.7c0.4,0.4,0.6,1,0.6,1.7v3.6h-0.8l-0.1-0.8h0c-0.3,0.3-0.7,0.5-1.1,0.7s-0.8,0.3-1.2,0.3
		c-0.3,0-0.5,0-0.8-0.1c-0.2-0.1-0.5-0.2-0.6-0.3c-0.2-0.1-0.3-0.3-0.4-0.5S168.3,221.8,168.3,221.5z M169.3,221.4
		c0,0.2,0,0.3,0.1,0.4c0.1,0.1,0.2,0.2,0.3,0.3c0.1,0.1,0.3,0.1,0.4,0.2c0.2,0,0.3,0.1,0.5,0.1c0.3,0,0.7-0.1,1-0.2
		c0.3-0.1,0.7-0.4,1-0.6V220c-0.6,0-1.1,0.1-1.6,0.2s-0.8,0.2-1,0.3c-0.3,0.1-0.4,0.3-0.5,0.4C169.4,221.1,169.3,221.2,169.3,221.4z
		"/>
	<path d="M175.5,214.5h3v6.7c0,0.4,0.1,0.7,0.3,0.9c0.2,0.2,0.5,0.3,0.8,0.3c0.3,0,0.7-0.1,1.1-0.3l0.3,0.7
		c-0.3,0.1-0.5,0.2-0.7,0.2c-0.2,0.1-0.5,0.1-0.8,0.1c-0.6,0-1.1-0.2-1.4-0.5c-0.3-0.4-0.5-0.9-0.5-1.6v-5.8h-2V214.5z"/>
	<path d="M187.8,223H187l-0.1-1h0c-0.3,0.3-0.6,0.6-1,0.8c-0.3,0.2-0.8,0.3-1.2,0.3c-0.7,0-1.2-0.2-1.5-0.6c-0.3-0.4-0.5-1-0.5-1.8
		v-3.6h1v3.5c0,0.6,0.1,1,0.3,1.2c0.2,0.3,0.5,0.4,1,0.4c0.3,0,0.6-0.1,0.9-0.3s0.6-0.4,0.9-0.8v-4h1V223z"/>
	<path d="M189.8,220.1c0-0.5,0.1-0.9,0.3-1.3c0.2-0.4,0.4-0.7,0.7-1s0.6-0.5,0.9-0.6c0.4-0.1,0.7-0.2,1.1-0.2c0.4,0,0.8,0.1,1.1,0.2
		c0.3,0.1,0.6,0.3,0.8,0.6s0.4,0.5,0.5,0.9c0.1,0.3,0.2,0.7,0.2,1.1c0,0.1,0,0.2,0,0.3c0,0.1,0,0.2,0,0.3h-4.6
		c0,0.3,0.1,0.6,0.2,0.8c0.1,0.2,0.3,0.5,0.5,0.6c0.2,0.2,0.4,0.3,0.7,0.4c0.3,0.1,0.6,0.1,0.9,0.1c0.3,0,0.7,0,0.9-0.1
		c0.3-0.1,0.6-0.2,0.8-0.4l0.3,0.6c-0.3,0.2-0.6,0.3-1,0.5c-0.4,0.1-0.8,0.2-1.3,0.2c-0.4,0-0.8-0.1-1.2-0.2c-0.4-0.1-0.7-0.3-1-0.6
		c-0.3-0.3-0.5-0.6-0.7-1C189.9,221,189.8,220.6,189.8,220.1z M194.5,219.6c0-0.6-0.2-1-0.5-1.3c-0.3-0.3-0.7-0.5-1.3-0.5
		c-0.2,0-0.5,0-0.7,0.1c-0.2,0.1-0.4,0.2-0.6,0.4c-0.2,0.2-0.3,0.3-0.4,0.6c-0.1,0.2-0.2,0.5-0.2,0.8H194.5z"/>
	<path d="M197.5,221.6c0.3,0.2,0.7,0.4,1.1,0.6c0.4,0.1,0.8,0.2,1.4,0.2c0.5,0,0.9-0.1,1.2-0.3c0.3-0.2,0.4-0.4,0.4-0.6
		c0-0.2-0.1-0.4-0.4-0.6c-0.3-0.2-0.8-0.4-1.5-0.5c-0.3-0.1-0.6-0.2-0.9-0.3c-0.3-0.1-0.5-0.2-0.7-0.4c-0.2-0.1-0.4-0.3-0.5-0.5
		s-0.2-0.4-0.2-0.6c0-0.2,0.1-0.4,0.2-0.7c0.1-0.2,0.3-0.4,0.5-0.5s0.5-0.3,0.8-0.3s0.7-0.1,1.1-0.1c0.4,0,0.9,0.1,1.3,0.2
		c0.4,0.1,0.8,0.3,1.1,0.5l-0.5,0.6c-0.3-0.2-0.5-0.3-0.9-0.4c-0.3-0.1-0.6-0.2-1-0.2c-0.3,0-0.5,0-0.7,0.1c-0.2,0-0.3,0.1-0.4,0.2
		c-0.1,0.1-0.2,0.2-0.2,0.3c0,0.1-0.1,0.2-0.1,0.3c0,0.2,0.2,0.4,0.5,0.6c0.3,0.2,0.8,0.3,1.3,0.4c0.8,0.2,1.4,0.4,1.8,0.7
		c0.4,0.3,0.6,0.6,0.6,1.1c0,0.2-0.1,0.5-0.2,0.7c-0.1,0.2-0.3,0.4-0.5,0.6c-0.2,0.2-0.5,0.3-0.8,0.4c-0.3,0.1-0.7,0.1-1.1,0.1
		c-0.6,0-1.1-0.1-1.6-0.3s-0.9-0.4-1.3-0.6L197.5,221.6z"/>
	<path d="M211.5,221.5c0-0.3,0.1-0.6,0.2-0.9c0.2-0.2,0.4-0.5,0.7-0.6c0.3-0.2,0.8-0.3,1.3-0.4c0.5-0.1,1.2-0.2,1.9-0.3
		c0-0.2,0-0.4-0.1-0.6c-0.1-0.2-0.1-0.3-0.3-0.5c-0.1-0.1-0.3-0.2-0.5-0.3c-0.2-0.1-0.4-0.1-0.7-0.1c-0.4,0-0.8,0.1-1.1,0.2
		c-0.4,0.1-0.7,0.3-0.9,0.5l-0.4-0.7c0.1-0.1,0.3-0.2,0.5-0.3c0.2-0.1,0.4-0.2,0.6-0.3s0.5-0.1,0.7-0.2s0.5-0.1,0.8-0.1
		c0.8,0,1.4,0.2,1.8,0.7c0.4,0.4,0.6,1,0.6,1.7v3.6h-0.8l-0.1-0.8h0c-0.3,0.3-0.7,0.5-1.1,0.7s-0.8,0.3-1.2,0.3
		c-0.3,0-0.5,0-0.8-0.1c-0.2-0.1-0.5-0.2-0.6-0.3c-0.2-0.1-0.3-0.3-0.4-0.5S211.5,221.8,211.5,221.5z M212.5,221.4
		c0,0.2,0,0.3,0.1,0.4c0.1,0.1,0.2,0.2,0.3,0.3c0.1,0.1,0.3,0.1,0.4,0.2c0.2,0,0.3,0.1,0.5,0.1c0.3,0,0.7-0.1,1-0.2
		c0.3-0.1,0.7-0.4,1-0.6V220c-0.6,0-1.1,0.1-1.6,0.2s-0.8,0.2-1,0.3c-0.3,0.1-0.4,0.3-0.5,0.4C212.6,221.1,212.5,221.2,212.5,221.4z
		"/>
	<path d="M218.4,217.2h1l1.3,3.3c0.1,0.3,0.2,0.6,0.3,0.9c0.1,0.3,0.2,0.6,0.3,0.8h0c0.1-0.3,0.2-0.6,0.3-0.8
		c0.1-0.3,0.2-0.6,0.3-0.9l1.3-3.3h0.9l-2.4,5.8h-1.1L218.4,217.2z"/>
	<path d="M225.9,221.5c0-0.3,0.1-0.6,0.2-0.9c0.2-0.2,0.4-0.5,0.7-0.6c0.3-0.2,0.8-0.3,1.3-0.4c0.5-0.1,1.2-0.2,1.9-0.3
		c0-0.2,0-0.4-0.1-0.6c-0.1-0.2-0.1-0.3-0.3-0.5c-0.1-0.1-0.3-0.2-0.5-0.3c-0.2-0.1-0.4-0.1-0.7-0.1c-0.4,0-0.8,0.1-1.1,0.2
		c-0.4,0.1-0.7,0.3-0.9,0.5l-0.4-0.7c0.1-0.1,0.3-0.2,0.5-0.3c0.2-0.1,0.4-0.2,0.6-0.3c0.2-0.1,0.5-0.1,0.7-0.2s0.5-0.1,0.8-0.1
		c0.8,0,1.4,0.2,1.8,0.7c0.4,0.4,0.6,1,0.6,1.7v3.6h-0.8l-0.1-0.8h0c-0.3,0.3-0.7,0.5-1.1,0.7s-0.8,0.3-1.2,0.3
		c-0.3,0-0.5,0-0.8-0.1s-0.4-0.2-0.6-0.3c-0.2-0.1-0.3-0.3-0.4-0.5S225.9,221.8,225.9,221.5z M226.9,221.4c0,0.2,0,0.3,0.1,0.4
		c0.1,0.1,0.2,0.2,0.3,0.3c0.1,0.1,0.3,0.1,0.4,0.2c0.2,0,0.3,0.1,0.5,0.1c0.3,0,0.7-0.1,1-0.2c0.3-0.1,0.7-0.4,1-0.6V220
		c-0.6,0-1.1,0.1-1.6,0.2s-0.8,0.2-1,0.3c-0.3,0.1-0.4,0.3-0.5,0.4C227,221.1,226.9,221.2,226.9,221.4z"/>
	<path d="M233.3,217.2h3.7v5.8h-1v-5h-2.7V217.2z M236.3,216c-0.2,0-0.4-0.1-0.6-0.2s-0.2-0.3-0.2-0.6c0-0.2,0.1-0.4,0.2-0.6
		c0.1-0.1,0.3-0.2,0.6-0.2c0.2,0,0.4,0.1,0.6,0.2c0.2,0.1,0.2,0.3,0.2,0.6c0,0.2-0.1,0.4-0.2,0.6S236.6,216,236.3,216z"/>
	<path d="M240.3,214.5h3v6.7c0,0.4,0.1,0.7,0.3,0.9c0.2,0.2,0.5,0.3,0.8,0.3c0.3,0,0.7-0.1,1.1-0.3l0.3,0.7
		c-0.3,0.1-0.5,0.2-0.7,0.2c-0.2,0.1-0.5,0.1-0.8,0.1c-0.6,0-1.1-0.2-1.4-0.5s-0.5-0.9-0.5-1.6v-5.8h-2V214.5z"/>
	<path d="M247.5,221.5c0-0.3,0.1-0.6,0.2-0.9s0.4-0.5,0.7-0.6s0.8-0.3,1.3-0.4c0.5-0.1,1.2-0.2,1.9-0.3c0-0.2,0-0.4-0.1-0.6
		c-0.1-0.2-0.1-0.3-0.3-0.5c-0.1-0.1-0.3-0.2-0.5-0.3c-0.2-0.1-0.4-0.1-0.7-0.1c-0.4,0-0.8,0.1-1.1,0.2c-0.4,0.1-0.7,0.3-0.9,0.5
		l-0.4-0.7c0.1-0.1,0.3-0.2,0.5-0.3c0.2-0.1,0.4-0.2,0.6-0.3s0.5-0.1,0.7-0.2s0.5-0.1,0.8-0.1c0.8,0,1.4,0.2,1.8,0.7
		c0.4,0.4,0.6,1,0.6,1.7v3.6h-0.8l-0.1-0.8h0c-0.3,0.3-0.7,0.5-1.1,0.7c-0.4,0.2-0.8,0.3-1.2,0.3c-0.3,0-0.5,0-0.8-0.1
		s-0.5-0.2-0.6-0.3c-0.2-0.1-0.3-0.3-0.4-0.5C247.6,222,247.5,221.8,247.5,221.5z M248.5,221.4c0,0.2,0,0.3,0.1,0.4s0.2,0.2,0.3,0.3
		s0.3,0.1,0.4,0.2c0.2,0,0.3,0.1,0.5,0.1c0.3,0,0.7-0.1,1-0.2c0.3-0.1,0.7-0.4,1-0.6V220c-0.6,0-1.1,0.1-1.6,0.2s-0.8,0.2-1,0.3
		c-0.3,0.1-0.4,0.3-0.5,0.4C248.6,221.1,248.5,221.2,248.5,221.4z"/>
	<path d="M254.9,214.5h1v2.3l0,1.1c0.3-0.3,0.6-0.5,0.9-0.6c0.3-0.2,0.7-0.2,1-0.2c0.4,0,0.7,0.1,1,0.2c0.3,0.1,0.6,0.3,0.8,0.6
		c0.2,0.3,0.4,0.6,0.5,0.9c0.1,0.4,0.2,0.8,0.2,1.2c0,0.5-0.1,0.9-0.2,1.3c-0.1,0.4-0.3,0.7-0.6,1c-0.2,0.3-0.5,0.5-0.8,0.6
		s-0.7,0.2-1,0.2c-0.3,0-0.6-0.1-0.9-0.2s-0.6-0.3-0.9-0.6h0l-0.1,0.6h-0.8V214.5z M255.9,221.6c0.3,0.2,0.6,0.4,0.8,0.5
		c0.3,0.1,0.5,0.2,0.7,0.2c0.3,0,0.5-0.1,0.7-0.2c0.2-0.1,0.4-0.3,0.6-0.5c0.2-0.2,0.3-0.4,0.4-0.7c0.1-0.3,0.1-0.6,0.1-1
		c0-0.3,0-0.6-0.1-0.9c-0.1-0.3-0.2-0.5-0.3-0.7c-0.1-0.2-0.3-0.3-0.5-0.4c-0.2-0.1-0.5-0.2-0.7-0.2c-0.3,0-0.5,0.1-0.8,0.2
		c-0.3,0.1-0.6,0.4-0.9,0.7V221.6z"/>
	<path d="M261.9,214.5h3v6.7c0,0.4,0.1,0.7,0.3,0.9c0.2,0.2,0.5,0.3,0.8,0.3c0.3,0,0.7-0.1,1.1-0.3l0.3,0.7
		c-0.3,0.1-0.5,0.2-0.7,0.2c-0.2,0.1-0.5,0.1-0.8,0.1c-0.6,0-1.1-0.2-1.4-0.5c-0.3-0.4-0.5-0.9-0.5-1.6v-5.8h-2V214.5z"/>
	<path d="M269,220.1c0-0.5,0.1-0.9,0.3-1.3c0.2-0.4,0.4-0.7,0.7-1s0.6-0.5,0.9-0.6c0.4-0.1,0.7-0.2,1.1-0.2c0.4,0,0.8,0.1,1.1,0.2
		c0.3,0.1,0.6,0.3,0.8,0.6s0.4,0.5,0.5,0.9c0.1,0.3,0.2,0.7,0.2,1.1c0,0.1,0,0.2,0,0.3c0,0.1,0,0.2,0,0.3H270c0,0.3,0.1,0.6,0.2,0.8
		c0.1,0.2,0.3,0.5,0.5,0.6s0.4,0.3,0.7,0.4c0.3,0.1,0.6,0.1,0.9,0.1c0.3,0,0.7,0,0.9-0.1c0.3-0.1,0.6-0.2,0.8-0.4l0.3,0.6
		c-0.3,0.2-0.6,0.3-1,0.5c-0.4,0.1-0.8,0.2-1.3,0.2c-0.4,0-0.8-0.1-1.2-0.2s-0.7-0.3-1-0.6s-0.5-0.6-0.7-1
		C269.1,221,269,220.6,269,220.1z M273.7,219.6c0-0.6-0.2-1-0.5-1.3s-0.7-0.5-1.3-0.5c-0.2,0-0.5,0-0.7,0.1
		c-0.2,0.1-0.4,0.2-0.6,0.4c-0.2,0.2-0.3,0.3-0.4,0.6s-0.2,0.5-0.2,0.8H273.7z"/>
	<path d="M30.1,229.8c-0.2-0.1-0.5-0.2-0.7-0.2c-0.2,0-0.4-0.1-0.7-0.1c-0.5,0-0.9,0.1-1.1,0.4c-0.2,0.3-0.3,0.6-0.3,1.1v0.5h2.4
		v0.8h-2.4v5h-1v-5h-1.7v-0.7l1.7-0.1v-0.5c0-0.7,0.2-1.3,0.6-1.7c0.4-0.4,1-0.6,1.8-0.6c0.6,0,1.1,0.1,1.7,0.3L30.1,229.8z"/>
	<path d="M31.3,234.5c0-0.5,0.1-0.9,0.2-1.3c0.2-0.4,0.4-0.7,0.6-1c0.3-0.3,0.6-0.5,0.9-0.6c0.3-0.1,0.7-0.2,1.1-0.2
		c0.4,0,0.8,0.1,1.1,0.2c0.3,0.1,0.7,0.3,0.9,0.6c0.3,0.3,0.5,0.6,0.6,1c0.2,0.4,0.2,0.8,0.2,1.3c0,0.5-0.1,0.9-0.2,1.3
		c-0.2,0.4-0.4,0.7-0.6,1c-0.3,0.3-0.6,0.5-0.9,0.6c-0.3,0.1-0.7,0.2-1.1,0.2c-0.4,0-0.8-0.1-1.1-0.2s-0.7-0.3-0.9-0.6
		c-0.3-0.3-0.5-0.6-0.6-1C31.4,235.4,31.3,235,31.3,234.5z M32.3,234.5c0,0.3,0,0.6,0.1,0.9c0.1,0.3,0.2,0.5,0.4,0.7
		c0.2,0.2,0.4,0.3,0.6,0.5c0.2,0.1,0.5,0.2,0.8,0.2c0.3,0,0.5-0.1,0.8-0.2c0.2-0.1,0.4-0.3,0.6-0.5c0.2-0.2,0.3-0.4,0.4-0.7
		c0.1-0.3,0.1-0.6,0.1-0.9s0-0.6-0.1-0.9c-0.1-0.3-0.2-0.5-0.4-0.7c-0.2-0.2-0.4-0.4-0.6-0.5c-0.2-0.1-0.5-0.2-0.8-0.2
		c-0.3,0-0.5,0.1-0.8,0.2c-0.2,0.1-0.4,0.3-0.6,0.5c-0.2,0.2-0.3,0.4-0.4,0.7C32.4,233.9,32.3,234.2,32.3,234.5z"/>
	<path d="M39.5,231.6h0.8l0.1,1.4h0c0.3-0.5,0.7-0.8,1.1-1.1s0.9-0.4,1.5-0.4c0.2,0,0.4,0,0.6,0.1c0.2,0,0.4,0.1,0.6,0.2l-0.2,0.9
		c-0.2-0.1-0.4-0.1-0.5-0.2c-0.1,0-0.3,0-0.6,0c-0.4,0-0.9,0.1-1.3,0.4c-0.4,0.3-0.8,0.7-1.1,1.3v3.4h-1V231.6z"/>
	<path d="M52.8,231.6h1l1.3,3.3c0.1,0.3,0.2,0.6,0.3,0.9s0.2,0.6,0.3,0.8h0c0.1-0.3,0.2-0.6,0.3-0.8s0.2-0.6,0.3-0.9l1.3-3.3h0.9
		l-2.4,5.8h-1.1L52.8,231.6z"/>
	<path d="M60.5,231.6h3.7v5.8h-1v-5h-2.7V231.6z M63.6,230.4c-0.2,0-0.4-0.1-0.6-0.2s-0.2-0.3-0.2-0.6c0-0.2,0.1-0.4,0.2-0.6
		c0.1-0.1,0.3-0.2,0.6-0.2c0.2,0,0.4,0.1,0.6,0.2c0.2,0.1,0.2,0.3,0.2,0.6c0,0.2-0.1,0.4-0.2,0.6C64,230.3,63.8,230.4,63.6,230.4z"
		/>
	<path d="M67.9,236c0.3,0.2,0.7,0.4,1.1,0.6c0.4,0.1,0.8,0.2,1.4,0.2c0.5,0,0.9-0.1,1.2-0.3c0.3-0.2,0.4-0.4,0.4-0.6
		c0-0.2-0.1-0.4-0.4-0.6c-0.3-0.2-0.8-0.4-1.5-0.5c-0.3-0.1-0.6-0.2-0.9-0.3c-0.3-0.1-0.5-0.2-0.7-0.4c-0.2-0.1-0.4-0.3-0.5-0.5
		s-0.2-0.4-0.2-0.6c0-0.2,0.1-0.4,0.2-0.7c0.1-0.2,0.3-0.4,0.5-0.5s0.5-0.3,0.8-0.3s0.7-0.1,1.1-0.1c0.4,0,0.9,0.1,1.3,0.2
		c0.4,0.1,0.8,0.3,1.1,0.5l-0.5,0.6c-0.3-0.2-0.5-0.3-0.9-0.4c-0.3-0.1-0.6-0.2-1-0.2c-0.3,0-0.5,0-0.7,0.1c-0.2,0-0.3,0.1-0.4,0.2
		c-0.1,0.1-0.2,0.2-0.2,0.3c0,0.1-0.1,0.2-0.1,0.3c0,0.2,0.2,0.4,0.5,0.6c0.3,0.2,0.8,0.3,1.3,0.4c0.8,0.2,1.4,0.4,1.8,0.7
		c0.4,0.3,0.6,0.6,0.6,1.1c0,0.2-0.1,0.5-0.2,0.7c-0.1,0.2-0.3,0.4-0.5,0.6c-0.2,0.2-0.5,0.3-0.8,0.4c-0.3,0.1-0.7,0.1-1.1,0.1
		c-0.6,0-1.1-0.1-1.6-0.3s-0.9-0.4-1.3-0.6L67.9,236z"/>
	<path d="M79.8,237.4H79l-0.1-1h0c-0.3,0.3-0.6,0.6-1,0.8c-0.3,0.2-0.8,0.3-1.2,0.3c-0.7,0-1.2-0.2-1.5-0.6c-0.3-0.4-0.5-1-0.5-1.8
		v-3.6h1v3.5c0,0.6,0.1,1,0.3,1.2c0.2,0.3,0.5,0.4,1,0.4c0.3,0,0.6-0.1,0.9-0.3s0.6-0.4,0.9-0.8v-4h1V237.4z"/>
	<path d="M81.9,235.9c0-0.3,0.1-0.6,0.2-0.9c0.2-0.2,0.4-0.5,0.7-0.6c0.3-0.2,0.8-0.3,1.3-0.4c0.5-0.1,1.2-0.2,1.9-0.3
		c0-0.2,0-0.4-0.1-0.6c-0.1-0.2-0.1-0.3-0.3-0.5c-0.1-0.1-0.3-0.2-0.5-0.3c-0.2-0.1-0.4-0.1-0.7-0.1c-0.4,0-0.8,0.1-1.1,0.2
		c-0.4,0.1-0.7,0.3-0.9,0.5l-0.4-0.7c0.1-0.1,0.3-0.2,0.5-0.3c0.2-0.1,0.4-0.2,0.6-0.3s0.5-0.1,0.7-0.2s0.5-0.1,0.8-0.1
		c0.8,0,1.4,0.2,1.8,0.7c0.4,0.4,0.6,1,0.6,1.7v3.6h-0.8l-0.1-0.8h0c-0.3,0.3-0.7,0.5-1.1,0.7s-0.8,0.3-1.2,0.3
		c-0.3,0-0.5,0-0.8-0.1c-0.2-0.1-0.5-0.2-0.6-0.3c-0.2-0.1-0.3-0.3-0.4-0.5S81.9,236.2,81.9,235.9z M82.9,235.8c0,0.2,0,0.3,0.1,0.4
		c0.1,0.1,0.2,0.2,0.3,0.3c0.1,0.1,0.3,0.1,0.4,0.2c0.2,0,0.3,0.1,0.5,0.1c0.3,0,0.7-0.1,1-0.2c0.3-0.1,0.7-0.4,1-0.6v-1.5
		c-0.6,0-1.1,0.1-1.6,0.2s-0.8,0.2-1,0.3c-0.3,0.1-0.4,0.3-0.5,0.4C83,235.5,82.9,235.6,82.9,235.8z"/>
	<path d="M89.1,228.9h3v6.7c0,0.4,0.1,0.7,0.3,0.9c0.2,0.2,0.5,0.3,0.8,0.3c0.3,0,0.7-0.1,1.1-0.3l0.3,0.7c-0.3,0.1-0.5,0.2-0.7,0.2
		c-0.2,0.1-0.5,0.1-0.8,0.1c-0.6,0-1.1-0.2-1.4-0.5c-0.3-0.4-0.5-0.9-0.5-1.6v-5.8h-2V228.9z"/>
	<path d="M96.5,231.6h3.7v5.8h-1v-5h-2.7V231.6z M99.6,230.4c-0.2,0-0.4-0.1-0.6-0.2s-0.2-0.3-0.2-0.6c0-0.2,0.1-0.4,0.2-0.6
		c0.1-0.1,0.3-0.2,0.6-0.2c0.2,0,0.4,0.1,0.6,0.2c0.2,0.1,0.2,0.3,0.2,0.6c0,0.2-0.1,0.4-0.2,0.6C100,230.3,99.8,230.4,99.6,230.4z"
		/>
	<path d="M103.4,236.9l4-4.5h-3.6v-0.8h5v0.5l-4,4.5h4.1v0.8h-5.5V236.9z"/>
	<path d="M110.7,235.9c0-0.3,0.1-0.6,0.2-0.9c0.2-0.2,0.4-0.5,0.7-0.6c0.3-0.2,0.8-0.3,1.3-0.4c0.5-0.1,1.2-0.2,1.9-0.3
		c0-0.2,0-0.4-0.1-0.6c-0.1-0.2-0.1-0.3-0.3-0.5c-0.1-0.1-0.3-0.2-0.5-0.3c-0.2-0.1-0.4-0.1-0.7-0.1c-0.4,0-0.8,0.1-1.1,0.2
		c-0.4,0.1-0.7,0.3-0.9,0.5l-0.4-0.7c0.1-0.1,0.3-0.2,0.5-0.3c0.2-0.1,0.4-0.2,0.6-0.3s0.5-0.1,0.7-0.2s0.5-0.1,0.8-0.1
		c0.8,0,1.4,0.2,1.8,0.7c0.4,0.4,0.6,1,0.6,1.7v3.6h-0.8l-0.1-0.8h0c-0.3,0.3-0.7,0.5-1.1,0.7s-0.8,0.3-1.2,0.3
		c-0.3,0-0.5,0-0.8-0.1c-0.2-0.1-0.5-0.2-0.6-0.3c-0.2-0.1-0.3-0.3-0.4-0.5S110.7,236.2,110.7,235.9z M111.7,235.8
		c0,0.2,0,0.3,0.1,0.4c0.1,0.1,0.2,0.2,0.3,0.3c0.1,0.1,0.3,0.1,0.4,0.2c0.2,0,0.3,0.1,0.5,0.1c0.3,0,0.7-0.1,1-0.2
		c0.3-0.1,0.7-0.4,1-0.6v-1.5c-0.6,0-1.1,0.1-1.6,0.2s-0.8,0.2-1,0.3c-0.3,0.1-0.4,0.3-0.5,0.4C111.8,235.5,111.7,235.6,111.7,235.8
		z"/>
	<path d="M119.4,232.4h-1.6v-0.7l1.7-0.1l0.1-1.6h0.8v1.6h2.9v0.8h-2.9v2.8c0,0.3,0,0.5,0.1,0.7c0,0.2,0.1,0.4,0.2,0.5
		c0.1,0.1,0.3,0.2,0.5,0.3c0.2,0.1,0.4,0.1,0.7,0.1c0.3,0,0.5,0,0.8-0.1s0.4-0.1,0.6-0.2l0.2,0.7c-0.3,0.1-0.6,0.2-0.9,0.2
		c-0.3,0.1-0.6,0.1-1,0.1c-0.4,0-0.8-0.1-1.1-0.2c-0.3-0.1-0.5-0.3-0.7-0.5c-0.2-0.2-0.3-0.5-0.4-0.8c-0.1-0.3-0.1-0.6-0.1-1V232.4z
		"/>
	<path d="M125.3,231.6h3.7v5.8h-1v-5h-2.7V231.6z M128.4,230.4c-0.2,0-0.4-0.1-0.6-0.2s-0.2-0.3-0.2-0.6c0-0.2,0.1-0.4,0.2-0.6
		c0.1-0.1,0.3-0.2,0.6-0.2c0.2,0,0.4,0.1,0.6,0.2c0.2,0.1,0.2,0.3,0.2,0.6c0,0.2-0.1,0.4-0.2,0.6
		C128.8,230.3,128.6,230.4,128.4,230.4z"/>
	<path d="M132.1,234.5c0-0.5,0.1-0.9,0.2-1.3c0.2-0.4,0.4-0.7,0.6-1s0.6-0.5,0.9-0.6c0.3-0.1,0.7-0.2,1.1-0.2c0.4,0,0.8,0.1,1.1,0.2
		c0.3,0.1,0.7,0.3,0.9,0.6c0.3,0.3,0.5,0.6,0.6,1c0.2,0.4,0.2,0.8,0.2,1.3c0,0.5-0.1,0.9-0.2,1.3c-0.2,0.4-0.4,0.7-0.6,1
		c-0.3,0.3-0.6,0.5-0.9,0.6c-0.3,0.1-0.7,0.2-1.1,0.2c-0.4,0-0.8-0.1-1.1-0.2s-0.7-0.3-0.9-0.6s-0.5-0.6-0.6-1
		C132.2,235.4,132.1,235,132.1,234.5z M133.1,234.5c0,0.3,0,0.6,0.1,0.9c0.1,0.3,0.2,0.5,0.4,0.7c0.2,0.2,0.4,0.3,0.6,0.5
		c0.2,0.1,0.5,0.2,0.8,0.2c0.3,0,0.5-0.1,0.8-0.2c0.2-0.1,0.4-0.3,0.6-0.5c0.2-0.2,0.3-0.4,0.4-0.7c0.1-0.3,0.1-0.6,0.1-0.9
		s0-0.6-0.1-0.9c-0.1-0.3-0.2-0.5-0.4-0.7c-0.2-0.2-0.4-0.4-0.6-0.5c-0.2-0.1-0.5-0.2-0.8-0.2c-0.3,0-0.5,0.1-0.8,0.2
		c-0.2,0.1-0.4,0.3-0.6,0.5c-0.2,0.2-0.3,0.4-0.4,0.7C133.2,233.9,133.1,234.2,133.1,234.5z"/>
	<path d="M139.7,231.6h0.8l0.1,1h0c0.3-0.3,0.6-0.6,1-0.8s0.8-0.3,1.2-0.3c0.7,0,1.2,0.2,1.5,0.6c0.3,0.4,0.5,1,0.5,1.8v3.6h-1v-3.5
		c0-0.6-0.1-1-0.3-1.2s-0.6-0.4-1-0.4c-0.2,0-0.3,0-0.5,0.1c-0.1,0-0.3,0.1-0.4,0.2c-0.1,0.1-0.3,0.2-0.4,0.3
		c-0.2,0.1-0.3,0.3-0.5,0.5v4.1h-1V231.6z"/>
	<path d="M148.4,236.5c0-0.3,0.1-0.5,0.3-0.7c0.2-0.2,0.4-0.3,0.7-0.3s0.5,0.1,0.7,0.3c0.2,0.2,0.3,0.4,0.3,0.7
		c0,0.3-0.1,0.5-0.3,0.7s-0.4,0.3-0.7,0.3s-0.5-0.1-0.7-0.3C148.5,237.1,148.4,236.8,148.4,236.5z"/>
</g>
</svg>
