<svg id="Layer_2" data-name="Layer 2" xmlns="http://www.w3.org/2000/svg" viewBox="0 0 593.84 301.73"><defs><style>.cls-1{fill:#231f20;}.cls-2{isolation:isolate;}.cls-3{fill:#fff;}.cls-4{fill:none;stroke:#fff;stroke-miterlimit:10;}.cls-5{fill:#be1e2d;}</style></defs><title>logo-final-black</title><rect class="cls-1" width="593.84" height="301.73"/><g class="cls-2"><g class="cls-2"><path class="cls-3" d="M177.28,214.58v-9.05q0-19.72-.82-30.82l-.41-5.07a38.13,38.13,0,0,1-.55-6q0-4.65.27-8.49l.28-8.5a28.75,28.75,0,0,0-.55-6.44q-2.75,1.92-16.58,57.68l-.14,2.06a29.07,29.07,0,0,1-1.09,5.48,5.72,5.72,0,0,1-1.17,2.33,2.29,2.29,0,0,1-1.71.82,4,4,0,0,1-3.15-1.1,5.1,5.1,0,0,1-1-3.42q0-3.71-3.49-19.18t-7.54-29.73q-4-14.25-5.55-15.76Q134,144.16,133,162q-1.92,31.51-1.92,49.59l.14,5.48c-.37,1.19-1.33,1.78-2.88,1.78a2.94,2.94,0,0,1-1.37-.75q-1-.75-1-1.17,0-12.33,2.19-43.29,2.06-28.77,2.06-43.15a3.53,3.53,0,0,0-.28-1.37,3.22,3.22,0,0,1-.41-1.24c0-1.37,1.19-2,3.57-2a2.45,2.45,0,0,1,2.74,2,23.48,23.48,0,0,1,.54,4.11l.14,1.65a57.94,57.94,0,0,0,4,11,100.55,100.55,0,0,1,4,10.27q.81,3.3,1.5,5.35,2.19,7.94,2.88,11.78l1.78,3.56c.28,1.37.82,3.61,1.65,6.71q1.23,5.22,1.78,8.5a38.86,38.86,0,0,1,.54,6.3q1.52-2.32,8.57-28t8.28-32.81a2.63,2.63,0,0,0,.21-.75c.05-.32.11-.75.21-1.3a53.68,53.68,0,0,1,1.23-5.35c.73-1.82,1.83-2.74,3.29-2.74a4.12,4.12,0,0,1,2.19.83c.82.54,1.23,1.09,1.23,1.64q0,57.14,1.78,60.42v7.12q-.14,3.15-.13,7.26a67.34,67.34,0,0,0,.95,13.15.93.93,0,0,1,.21.41,7,7,0,0,0,.21.69,5.1,5.1,0,0,1,.13,1.23,5.84,5.84,0,0,1-.89,3,2.52,2.52,0,0,1-2.12,1.5Q177.27,223.34,177.28,214.58Zm-1.78-75.22h-.14l-.27.14.41.14Z"/><path class="cls-3" d="M207.28,214.85a3.63,3.63,0,0,0-1.1.14h-1.09c-2,0-3.29-.46-3.84-1.37a2,2,0,0,1,1.1-1.65l.68-.68h4l.54-.55.28-1.23.14-1.65q0-8.36-.42-14.93l-.27-5.07-.27-10q0-5.34.41-16l.27-15.89a139.57,139.57,0,0,0-.68-15.89,14.28,14.28,0,0,0-4.11-.41l-1.51.13a10,10,0,0,1-1.78.14c-1.74,0-2.6-.78-2.6-2.33,0-.36.41-.73,1.23-1.1a5.38,5.38,0,0,1,2-.54,101.15,101.15,0,0,1,10.42.54,22.34,22.34,0,0,1,6.3,1.24c1.64.55,2.46,1.32,2.46,2.33a3.18,3.18,0,0,1-.41,1.09l-3.15.28c-.64-.55-2-.83-4-.83l-.69.42c.28.82.41,3.24.41,7.26q0,9-.13,16.3l-.28,16.3q0,6.16.55,14.94.42,10,.41,15.07v1.78a18.38,18.38,0,0,0-.13,2.46,10,10,0,0,0,.41,3.84l-.14.27c0,.92,1,1.37,3,1.37a13.11,13.11,0,0,0,2.06-.13h2.05c2.65,0,4,.64,4,1.91a2.56,2.56,0,0,1-.83,2,3.11,3.11,0,0,1-2.19.75,8.1,8.1,0,0,1-2.19-.27,19.07,19.07,0,0,0-2.33-.14,7.12,7.12,0,0,0-2.46.69,6.29,6.29,0,0,1-2.47.82C208.88,216.22,207.64,215.76,207.28,214.85Z"/><path class="cls-3" d="M269.41,216a9.69,9.69,0,0,1-.89-2.47,5.76,5.76,0,0,0-.55-1.92l.14-.41a86.71,86.71,0,0,0-4.66-15.75L261,188.27a68.86,68.86,0,0,1-2.6-7L257.29,178q-12.35-38.08-15.49-41.24a34.66,34.66,0,0,0-1.09,9.59c0,2.1,0,3.93.14,5.48l.13,5.34-.13,3.29c-.1,1-.14,2.1-.14,3.29A43.35,43.35,0,0,0,241,169l.28,4.38h-.41q0,22.88,1,25.21v12.33a6.38,6.38,0,0,1,.55,2.87,2.75,2.75,0,0,1-.75,1.92,2.4,2.4,0,0,1-1.85.82q-2.88,0-2.88-7.39l.28-4.39a34.88,34.88,0,0,0,.27-4.52q0-6.57-.41-19.73t-.41-19.73q0-4,.41-12.19t.41-12v-1.78q0-6.72,2.47-8.77l.41.41,1.37-.28a3,3,0,0,1,1.23.83,1.71,1.71,0,0,1,.55,1.23l.27.82a2.39,2.39,0,0,0,.14.69q2.19,9.72,9.86,27.26,7.82,18.49,9.73,24.52,1.37,4.8,2.19,8.5,2.61,11.64,6.17,17.94l.27-.41q3.15-30.4,3.15-74.66l-.13-1.65a8.65,8.65,0,0,1-.14-1.78q0-2.88,1.92-2.88a2.6,2.6,0,0,1,2.12,1.24,4.58,4.58,0,0,1,.89,2.74v9.18l-.68,1.09q0,13-1.51,42.75t-2.88,32.33l-2.33.55v.13l-.14-.13-1.37.41A1.69,1.69,0,0,1,269.41,216Z"/><path class="cls-3" d="M302.77,214.85a3.63,3.63,0,0,0-1.1.14h-1.09c-2,0-3.29-.46-3.84-1.37a2,2,0,0,1,1.1-1.65l.68-.68h4l.55-.55.28-1.23.13-1.65q0-8.36-.41-14.93l-.27-5.07-.28-10q0-5.34.42-16l.27-15.89a136.8,136.8,0,0,0-.69-15.89,14.19,14.19,0,0,0-4.11-.41l-1.5.13a10,10,0,0,1-1.78.14c-1.74,0-2.61-.78-2.61-2.33,0-.36.41-.73,1.24-1.1a5.33,5.33,0,0,1,2-.54,100.81,100.81,0,0,1,10.41.54,22.48,22.48,0,0,1,6.31,1.24c1.64.55,2.46,1.32,2.46,2.33a3.42,3.42,0,0,1-.41,1.09l-3.15.28c-.64-.55-2-.83-4-.83l-.69.42q.4,1.23.41,7.26,0,9-.14,16.3l-.27,16.3q0,6.16.55,14.94.4,10,.41,15.07v1.78a18.15,18.15,0,0,0-.14,2.46A10.25,10.25,0,0,0,308,209l-.13.27c0,.92,1,1.37,3,1.37a13.19,13.19,0,0,0,2.06-.13h2c2.65,0,4,.64,4,1.91a2.55,2.55,0,0,1-.82,2,3.13,3.13,0,0,1-2.19.75,8.1,8.1,0,0,1-2.19-.27,19.07,19.07,0,0,0-2.33-.14,7.22,7.22,0,0,0-2.47.69,6.25,6.25,0,0,1-2.46.82C304.36,216.22,303.13,215.76,302.77,214.85Z"/></g><g class="cls-2"><path class="cls-3" d="M401.19,219.29a11,11,0,0,1-1.15-5.57l-.19-28.41q-.19-3.65-.19-12.1-.39-17.85-.39-40.32V123.1q-1.72,9.21-5.95,25.92-4.23,17.28-5.95,28.42v1.15l-.58,3.65a35.83,35.83,0,0,1-1.92,8.64q-1.92,4.6-5.95,4.6-6.92,0-6.91-18A122.92,122.92,0,0,0,370,156q-2-11.43-6.43-28.13l-5.76-21.5-.38,23q0,10.37,1,39.55l.38,13,.39,26.31a10.73,10.73,0,0,1-2.88,7.29q-4.8,0-6.63-3c-1.22-2-1.82-4.9-1.82-8.74l.38-15.74q.58-10.37.58-15.55l-.39-37.06L348,98.33q0-8.25.38-24.77l5.19-3.07a5,5,0,0,1,3.07,2.21,32.85,32.85,0,0,1,3.46,6.43Q364.9,91,372.59,126.75a82.82,82.82,0,0,1,1.53,8.25q2.31,11.15,3.27,16.9l2.88,14.78,1.34-6.33,3.65-15.75q3.06-13.82,5.09-24.19T394.28,98q2.12-14.4,2.69-24V72.8a5.79,5.79,0,0,1,2.3-3.94,7.47,7.47,0,0,1,4.61-1.44A4,4,0,0,1,407,69a4.86,4.86,0,0,1,1.35,3.26q0,23,1.73,68.93,1,22.46,1.34,44,.39,9.78.38,24.76a13.86,13.86,0,0,1-2.3,7.88c-1.54,2.3-3.26,3.45-5.18,3.45A3.49,3.49,0,0,1,401.19,219.29Z"/><path class="cls-3" d="M440.55,216.41c-2.18-.64-3.26-2.43-3.26-5.37V99.48a62.91,62.91,0,0,0-1.15-9.79,46,46,0,0,1-1.35-9.79v-.58a44.26,44.26,0,0,1,4.8-6.91,42.86,42.86,0,0,0,7.11-.77,38.51,38.51,0,0,1,7.1-.76,10.93,10.93,0,0,1,5.95,1.82q2.88,1.83,2.88,4.32,0,5.76-8.83,5.76h-2.69a16.33,16.33,0,0,0-2.69-.19,6.51,6.51,0,0,0-2.11.19q0,6.52.77,15.74l.38,5.38.39,10.56q0,3.65-.58,11.14l-.38,10.75,2.69-.58a22.85,22.85,0,0,1,6.33-1.15,5.49,5.49,0,0,1,3.84,1.63,5,5,0,0,1,1.73,3.75,6.46,6.46,0,0,1-1.44,4.12,4.37,4.37,0,0,1-3.55,1.83l-2.31-.19h-2.49c-1.92,0-3.27.45-4,1.34v59.33l10.75-.58q10.93,0,10.94,5v.77a8.51,8.51,0,0,1-4.22,3.75,20.53,20.53,0,0,1-5.95,1.82l-6.34.19h-5.95A18.83,18.83,0,0,1,440.55,216.41Z"/></g><g class="cls-2"><path class="cls-4" d="M401.19,219.29a11,11,0,0,1-1.15-5.57l-.19-28.41q-.19-3.65-.19-12.1-.39-17.85-.39-40.32V123.1q-1.72,9.21-5.95,25.92-4.23,17.28-5.95,28.42v1.15l-.58,3.65a35.83,35.83,0,0,1-1.92,8.64q-1.92,4.6-5.95,4.6-6.92,0-6.91-18A122.92,122.92,0,0,0,370,156q-2-11.43-6.43-28.13l-5.76-21.5-.38,23q0,10.37,1,39.55l.38,13,.39,26.31a10.73,10.73,0,0,1-2.88,7.29q-4.8,0-6.63-3c-1.22-2-1.82-4.9-1.82-8.74l.38-15.74q.58-10.37.58-15.55l-.39-37.06L348,98.33q0-8.25.38-24.77l5.19-3.07a5,5,0,0,1,3.07,2.21,32.85,32.85,0,0,1,3.46,6.43Q364.9,91,372.59,126.75a82.82,82.82,0,0,1,1.53,8.25q2.31,11.15,3.27,16.9l2.88,14.78,1.34-6.33,3.65-15.75q3.06-13.82,5.09-24.19T394.28,98q2.12-14.4,2.69-24V72.8a5.79,5.79,0,0,1,2.3-3.94,7.47,7.47,0,0,1,4.61-1.44A4,4,0,0,1,407,69a4.86,4.86,0,0,1,1.35,3.26q0,23,1.73,68.93,1,22.46,1.34,44,.39,9.78.38,24.76a13.86,13.86,0,0,1-2.3,7.88c-1.54,2.3-3.26,3.45-5.18,3.45A3.49,3.49,0,0,1,401.19,219.29Z"/><path class="cls-4" d="M440.55,216.41c-2.18-.64-3.26-2.43-3.26-5.37V99.48a62.91,62.91,0,0,0-1.15-9.79,46,46,0,0,1-1.35-9.79v-.58a44.26,44.26,0,0,1,4.8-6.91,42.86,42.86,0,0,0,7.11-.77,38.51,38.51,0,0,1,7.1-.76,10.93,10.93,0,0,1,5.95,1.82q2.88,1.83,2.88,4.32,0,5.76-8.83,5.76h-2.69a16.33,16.33,0,0,0-2.69-.19,6.51,6.51,0,0,0-2.11.19q0,6.52.77,15.74l.38,5.38.39,10.56q0,3.65-.58,11.14l-.38,10.75,2.69-.58a22.85,22.85,0,0,1,6.33-1.15,5.49,5.49,0,0,1,3.84,1.63,5,5,0,0,1,1.73,3.75,6.46,6.46,0,0,1-1.44,4.12,4.37,4.37,0,0,1-3.55,1.83l-2.31-.19h-2.49c-1.92,0-3.27.45-4,1.34v59.33l10.75-.58q10.93,0,10.94,5v.77a8.51,8.51,0,0,1-4.22,3.75,20.53,20.53,0,0,1-5.95,1.82l-6.34.19h-5.95A18.83,18.83,0,0,1,440.55,216.41Z"/></g></g><g id="winner"><path class="cls-5" d="M190.33,103c-1.26,1.17-2.4,2.26-3.57,3.31q-5,4.48-10,8.93a7.76,7.76,0,0,1-1.88,1.34c-.53.25-1.55.5-1.73.26-.59-.75-1.4-1.87-1.2-2.6.67-2.47,1.75-4.83,2.67-7.24.49-1.32,1-2.62,1.46-4,.67-2,1.27-4.07,1.94-6.1a1.84,1.84,0,0,0-.92-2.42l-.08,0c-1.73-1-3.46-1.91-5.12-3-2.24-1.43-4.44-2.94-6.61-4.46a2.34,2.34,0,0,1-.87-1.26,1.35,1.35,0,0,1,.47-1.16,6.35,6.35,0,0,1,2.39-.53c4.73.12,9.46.32,14.43.51.36-1,.85-2.16,1.24-3.38,1.1-3.41,2.11-6.85,3.25-10.24a19,19,0,0,1,1.56-3c.57-1,1.29-.91,2-.17,1.93,2,2.35,4.67,3,7.22.77,3,1.53,5.93,2.39,8.88.07.23.85.46,1.23.38,3.65-.79,7.26-1.74,10.92-2.46a13.45,13.45,0,0,1,4.2,0c1.46.18,1.79.89.83,2-2.26,2.56-4.68,5-7.06,7.46-.79.82-1.69,1.53-2.43,2.39a1.66,1.66,0,0,0-.17,1.29c1.2,5.55,2.44,11.08,3.67,16.63a15.76,15.76,0,0,1,.63,3.2c0,.68-.5,2-.77,2a5.78,5.78,0,0,1-3.16-.7A57.66,57.66,0,0,1,190.33,103Z"/><path class="cls-3" d="M295.05,90.25c.26-.17.85-.59,1.47-1,2.8-1.75,6.26-.79,7.13,2.42a47.45,47.45,0,0,1,1.37,9.7c.22,3.57.05,7.17.05,10.75l.41-.12,1.37,1.29c-.62.38-1.22,1-1.88,1.07a8.93,8.93,0,0,1-3-.33c-.4-.09-.7-.58-1.05-.89a10.27,10.27,0,0,1,1.16-.93,1.74,1.74,0,0,1,.71-.15c0-3.46.12-6.78-.05-10.08a32.25,32.25,0,0,0-1-6.32,9,9,0,0,0-1.8-3.4,3.19,3.19,0,0,0-2.22-.58c-.28,0-.74.83-.78,1.31-.36,5.51-.67,11-1,16.52V111a12.83,12.83,0,0,1,1.83.44c.28.11.66.58.6.75a1.24,1.24,0,0,1-.79.77,16.31,16.31,0,0,1-3.56.15c-.66-.07-1.26-.67-1.88-1l1.25-1.26.52.16c-.19-6.09-.36-12.17-.58-18.26,0-1.18-1.87-2.71-2.91-2.39a2.15,2.15,0,0,0-1.2,1.43,72.93,72.93,0,0,0-1.08,19l1.52,1.1a5.83,5.83,0,0,1-1.38.92,25.6,25.6,0,0,1-3.77.73,4,4,0,0,1-1.48-.44c.28-.37.57-.72.83-1.1s.75-.89.79-1.37c.28-3.35.54-6.7.68-10.06s.12-6.45.17-9.67V89.06a24.38,24.38,0,0,1-2.95-.43c-.44-.12-.78-.62-1.17-1a4.1,4.1,0,0,1,1.3-.53,19.5,19.5,0,0,0,2,.17c1.49-.16,2.32.35,2.26,1.67,1.41-.4,2.86-1.26,4.17-1.09S293.58,89.34,295.05,90.25Z"/><path class="cls-3" d="M242.69,114.13a5.16,5.16,0,0,1,1.52-.07c.36.08.89.47.91.74s-.44,1-.69,1c-1.69,0-3.37-.11-5.05-.26a7.65,7.65,0,0,1-2.26-.51,5.89,5.89,0,0,1-1.28-1,7.73,7.73,0,0,1,1.56-.52,6.54,6.54,0,0,1,1.58.22c-.45-2.55-.85-4.84-1.24-7.13s-.73-4.53-1.19-6.77c-.09-.41-.64-1-1-1-2.48-.13-5-.18-7.46-.14-.34,0-.84.6-1,1q-1.56,5.31-3,10.68a2,2,0,0,0,.32,1.39c.44.76,1.07,1.42,1.52,2.18a1.55,1.55,0,0,1,.23,1.24,1.4,1.4,0,0,1-1.16.49c-1.85-.12-3.71-.31-5.55-.55-.37-.05-.69-.46-1-.71.27-.33.54-.94.78-.93,3.42.16,3.22-2.82,3.82-4.7,1.82-5.7,3.27-11.51,4.93-17.26,1.37-4.74,2.82-9.47,4.24-14.2a1.9,1.9,0,0,1,.27-.73c.62-.71,1.29-1.39,1.93-2.09a21.43,21.43,0,0,1,1.23,2c1.7,3.58,2.11,7.48,2.75,11.32,1.34,8,2.74,16,4.1,24C242.62,112.46,242.62,113.18,242.69,114.13Zm-9.35-34.19H233l-5.14,16.73h8.4C235.25,91,234.29,85.48,233.34,79.94Z"/><path class="cls-3" d="M145,117.51a8.42,8.42,0,0,1-1.76.64c-1.25.08-2.5,0-3.75.06s-2.16-.27-2.22-1.74c0-.22-.25-.43-1-1.2a6.09,6.09,0,0,1-.61,1.47c-1.63,2.18-4,2.58-6.44,2.21-2-.3-2.77-2-3.41-3.58a13.27,13.27,0,0,1,.51-11.84c2.61-5,4.06-4.59,9-4.42a12.22,12.22,0,0,1,1.62.24c-.22-2.48-.39-4.8-.63-7.1-.32-3-.74-5.89-1-8.85-.12-1.26-.41-1.88-1.88-1.75a14.6,14.6,0,0,1-3.55-.35c-.28,0-.51-.44-.77-.67.27-.27.5-.63.83-.77a2.71,2.71,0,0,1,1.2-.07,12.07,12.07,0,0,0,3,.28c1.68-.31,2.34.36,2.47,1.88.18,2.08.21,4.17.51,6.23a140.76,140.76,0,0,1,1.52,23.65,20.94,20.94,0,0,0,.35,3.87c0,.31.65.68,1,.75,1.22.22,2.47.29,3.7.46A7.28,7.28,0,0,1,145,117.51Zm-8-7.72c-.22-2-.42-3.91-.66-5.87a1.54,1.54,0,0,0-1.53-1.53l-.24,0a2.84,2.84,0,0,1-.92,0c-2.5-.71-4.81.62-4.83,3.22,0,3.28-.36,6.66,1.23,9.79.83,1.64,2.11,2.13,3.63,1.09A7.33,7.33,0,0,0,137,109.79Z"/><path class="cls-3" d="M258.28,113a9.2,9.2,0,0,1,2.09-.33c.35,0,.67.45,1,.69-.22.3-.39.75-.67.85a12.18,12.18,0,0,1-2.73.64,1.52,1.52,0,0,1-1.09-.66,4.74,4.74,0,0,1-.33-1.58,6.44,6.44,0,0,1-5.27,2.57c-1.5,0-2.7-.33-3.11-2-1.28-5-1.92-10.15-.71-15.28.83-3.51,3.18-4.7,6.63-3.71.29.09.59.17,1,.27,0-1.64.06-3.19,0-4.74-.18-3.91-.46-7.81-.6-11.71,0-1.06-.3-1.5-1.41-1.51a23.34,23.34,0,0,1-4-.37c-.48-.09-.86-.68-1.29-1,.51-.24,1-.68,1.53-.67,1.88.06,3.74.28,5.62.4,1,.07,1.64.46,1.72,1.58.23,3,.6,5.9.76,8.86q.63,11.55,1.11,23.11C258.54,109.84,258.36,111.29,258.28,113Zm-1.68-12.41h.15V99c.16-2-1.3-2.57-2.74-3-1.24-.42-2,.5-2.67,1.33a4.31,4.31,0,0,0-.73,1.35,21.14,21.14,0,0,0-.18,12.74c.52,1.7,2.34,2.44,3.62,1.29,1-.93,2.28-2.19,2.44-3.44a68.72,68.72,0,0,0,.11-8.73Z"/><path class="cls-3" d="M280,108.87c.57,2.19-.81,4.77-2.45,5.37-1.95.71-3,.2-4-1.76a26.21,26.21,0,0,1-4.73,2c-2.77.64-3.79,0-5.1-2.6-2.11-4.22-.41-9.47,2.08-12.43,1.62-1.93,3.78-1.49,5.86-.74.85-3,.63-6.93-.54-9.14l-3.82.92.53.41a13.68,13.68,0,0,1,0,3c-.23,1-.86,1.87-2.14,1.49-1.75-.52-2-1.08-1.6-2.77a6.62,6.62,0,0,1,6.6-4.9A3.62,3.62,0,0,1,274.32,91c.89,4,.17,8,.23,12a78.1,78.1,0,0,0,.58,8.37c.05.5.86,1.33,1.24,1.29a3.73,3.73,0,0,0,2.06-1.08A15.92,15.92,0,0,0,280,108.87Zm-7.29-5,.31-.06a7.29,7.29,0,0,0-.66-2.69c-.78-1-2.68-.68-3.8.34-2.08,1.87-2.62,4.24-2.43,6.9.13,1.81,2,3.79,3.58,3.68a3.54,3.54,0,0,0,3.29-3.79v0c-.08-1.45-.18-2.89-.26-4.33Z"/><path class="cls-3" d="M312.68,114.32l-1.43.79a5.89,5.89,0,0,1-.48-1.47c-.14-2.12-.24-4.25-.25-6.37a4.22,4.22,0,0,1,.58-1.41,6.7,6.7,0,0,1,.76,1.39A7.35,7.35,0,0,1,312,109c.06,2.5,1.11,3.82,3.17,4a4.08,4.08,0,0,0,4.13-3.49c.59-2.85-.74-4.94-2.62-6.82s-3.66-3.4-5.28-5.29a5.79,5.79,0,0,1,.1-7.91A6.45,6.45,0,0,1,315,87.91a13.71,13.71,0,0,1,4.73.41c.4.1.67,1.4.7,2.16a20.37,20.37,0,0,1-.32,3.11c-.27-.08-.63-.08-.76-.26a2,2,0,0,1-.2-.9c-.14-1,.37-2.31-1.29-2.78-1.9-.55-3.64-.52-5,.94a1.83,1.83,0,0,0-.05,1.77,94.78,94.78,0,0,0,5.85,7.68,15,15,0,0,1,3.66,10.51,5.4,5.4,0,0,1-8.12,4.51C313.55,114.72,313,114.49,312.68,114.32Z"/><path class="cls-3" d="M156.37,115.37c.17,1.22-.29,1.75-1.43,1.67-1.31-.08-2.62-.21-3.94-.23s-2.76.11-4.14.07a5.39,5.39,0,0,1-1.47-.48c.41-.33.78-.84,1.24-.94,1.16-.25,2.37-.31,3.6-.45v-8.43c0-1.66-.21-3.33-.2-5a10.69,10.69,0,0,1,.4-2.75c.42-1.56-.13-2.23-1.69-2a4.57,4.57,0,0,1-1.5-.4,5,5,0,0,1,1.25-.88c1.81-.53,2.48-.23,3.46,1.19,1.18-.45,2.29-1.24,3.39-1.24,2.36,0,4.25,3,3.57,5.41a18.55,18.55,0,0,1-.91,2.49c-.42.92-1,2-2.17,1.5-.74-.3-1.83-1.32-1.73-1.8a6,6,0,0,1,1.79-2.47c.25-.26.87-.17,1.33-.25a1.81,1.81,0,0,0-1.17-2.29,1.59,1.59,0,0,0-.61-.09c-1.13-.11-2.15-.06-2.79,1.34a10.37,10.37,0,0,0-.7,4.87c.08,3.18.16,6.36.17,9.53,0,1.21.11,1.93,1.65,1.5A8.4,8.4,0,0,1,156.37,115.37Z"/><path class="cls-3" d="M160.2,117.29c0-1.73.9-2.87,1.88-2.85a1.85,1.85,0,0,1,1.88,1.82v.07a2.19,2.19,0,0,1-2.29,2.07C161,118.26,160.51,117.54,160.2,117.29Z"/></g></svg>