<svg id="Layer_2" data-name="Layer 2" xmlns="http://www.w3.org/2000/svg" viewBox="0 0 598.07 301.99"><defs><style>.cls-1{fill:#fff;stroke:#000;}.cls-1,.cls-5{stroke-miterlimit:10;}.cls-2{fill:#be1e2d;}.cls-3{isolation:isolate;}.cls-4{fill:#231f20;}.cls-5{fill:none;stroke:#231f20;}</style></defs><title>logo-final-white</title><rect class="cls-1" width="598.07" height="301.99"/><g id="winner"><path class="cls-2" d="M192.45,104c-1.27,1.17-2.41,2.25-3.58,3.31-3.32,3-6.64,6-10,8.93a8.52,8.52,0,0,1-1.87,1.34c-.53.25-1.56.5-1.74.26-.58-.75-1.4-1.87-1.2-2.6.68-2.47,1.75-4.84,2.67-7.24.5-1.32,1-2.63,1.46-4,.68-2,1.27-4.07,1.94-6.1a1.84,1.84,0,0,0-.92-2.42l-.08,0c-1.73-1-3.46-1.91-5.13-3-2.24-1.42-4.43-2.93-6.61-4.46a2.28,2.28,0,0,1-.86-1.25,1.31,1.31,0,0,1,.46-1.16,6,6,0,0,1,2.39-.53c4.73.12,9.46.32,14.43.51.36-1,.86-2.16,1.25-3.38,1.09-3.41,2.11-6.85,3.25-10.24a17.74,17.74,0,0,1,1.55-3c.57-1,1.29-.91,2-.17,1.93,2,2.35,4.67,3,7.22.77,3,1.54,5.93,2.39,8.87.07.24.85.47,1.23.39,3.65-.8,7.27-1.74,10.93-2.46a13.45,13.45,0,0,1,4.2,0c1.46.18,1.78.88.83,2-2.27,2.56-4.69,5-7.06,7.46-.79.82-1.69,1.53-2.43,2.39a1.71,1.71,0,0,0-.18,1.29c1.2,5.55,2.45,11.08,3.68,16.62a16.71,16.71,0,0,1,.62,3.21c0,.68-.49,1.95-.77,1.95a5.67,5.67,0,0,1-3.15-.69A57.48,57.48,0,0,1,192.45,104Z"/><path d="M297.16,91.24l1.47-1c2.81-1.75,6.26-.79,7.14,2.42a48.86,48.86,0,0,1,1.36,9.7c.23,3.57.05,7.17.05,10.75l.42-.12,1.36,1.29c-.62.37-1.22,1-1.88,1.07a8.93,8.93,0,0,1-3-.33c-.4-.09-.71-.58-1.06-.89a10.38,10.38,0,0,1,1.17-.93,1.69,1.69,0,0,1,.7-.15c0-3.46.12-6.78,0-10.09a32.11,32.11,0,0,0-1.05-6.31,9.12,9.12,0,0,0-1.79-3.4,3.22,3.22,0,0,0-2.23-.58c-.27,0-.74.83-.77,1.31-.37,5.5-.67,11-1,16.52V112a13,13,0,0,1,1.84.44c.27.11.65.58.59.75a1.26,1.26,0,0,1-.79.77,16.2,16.2,0,0,1-3.55.15,6.24,6.24,0,0,1-1.89-1l1.25-1.26.52.16c-.19-6.09-.35-12.17-.58-18.26,0-1.18-1.86-2.71-2.91-2.39a2.16,2.16,0,0,0-1.19,1.43,72.07,72.07,0,0,0-1.08,19l1.52,1.09a5.21,5.21,0,0,1-1.39.93,24,24,0,0,1-3.76.72,3.88,3.88,0,0,1-1.49-.43c.28-.37.58-.72.83-1.1s.76-.89.8-1.37c.28-3.35.53-6.71.67-10.06s.12-6.45.17-9.68V90.05a25.2,25.2,0,0,1-3-.43c-.44-.12-.78-.62-1.16-1a4.31,4.31,0,0,1,1.29-.54,20.06,20.06,0,0,0,2,.18c1.5-.16,2.32.34,2.26,1.67,1.41-.41,2.86-1.26,4.18-1.09S295.7,90.33,297.16,91.24Z"/><path d="M244.8,115.12a5.16,5.16,0,0,1,1.52-.07c.36.08.9.47.91.74s-.44,1-.69,1c-1.68,0-3.37-.11-5-.26a8,8,0,0,1-2.26-.51,5,5,0,0,1-1.28-1,8.52,8.52,0,0,1,1.55-.51,6.54,6.54,0,0,1,1.58.22c-.44-2.55-.84-4.84-1.24-7.13s-.73-4.53-1.19-6.77c-.08-.42-.63-1-1-1q-3.72-.19-7.46-.14c-.33,0-.84.6-1,1q-1.58,5.31-3,10.68a2.06,2.06,0,0,0,.32,1.39c.45.76,1.07,1.42,1.52,2.18a1.56,1.56,0,0,1,.24,1.24,1.46,1.46,0,0,1-1.16.49q-2.79-.19-5.56-.55c-.37,0-.69-.47-1-.71.26-.33.53-1,.78-.93,3.41.16,3.21-2.82,3.81-4.7,1.82-5.7,3.28-11.51,4.93-17.26,1.37-4.74,2.82-9.47,4.24-14.2a2.09,2.09,0,0,1,.28-.73c.62-.71,1.28-1.39,1.93-2.09a21.34,21.34,0,0,1,1.22,2c1.71,3.58,2.11,7.48,2.76,11.32,1.33,8,2.74,16,4.1,24C244.73,113.45,244.73,114.17,244.8,115.12Zm-9.34-34.19-.4-.05-5.14,16.73h8.4Z"/><path d="M147.12,118.49a8.45,8.45,0,0,1-1.76.65c-1.24.07-2.5,0-3.74.06s-2.16-.28-2.23-1.75c0-.21-.24-.42-1-1.19a6.44,6.44,0,0,1-.61,1.46c-1.63,2.19-4,2.59-6.44,2.22-2-.3-2.77-2-3.42-3.58a13.34,13.34,0,0,1,.51-11.84c2.62-5,4.06-4.59,9-4.42a12.71,12.71,0,0,1,1.62.24c-.22-2.49-.4-4.8-.64-7.11-.31-2.94-.74-5.88-1-8.84-.11-1.27-.41-1.88-1.87-1.75a14.13,14.13,0,0,1-3.55-.36c-.29,0-.52-.43-.78-.66.28-.27.51-.64.84-.77a2.82,2.82,0,0,1,1.19-.08,12.08,12.08,0,0,0,3,.29c1.68-.31,2.35.36,2.48,1.88.18,2.08.2,4.17.51,6.23a142.89,142.89,0,0,1,1.52,23.65,20.93,20.93,0,0,0,.34,3.87c.06.31.65.68,1,.75,1.22.22,2.47.29,3.7.46A7.18,7.18,0,0,1,147.12,118.49Zm-8-7.71c-.22-2-.43-3.92-.67-5.87a1.54,1.54,0,0,0-1.52-1.54l-.24,0a2.84,2.84,0,0,1-.92,0c-2.5-.71-4.82.62-4.83,3.22,0,3.28-.37,6.66,1.22,9.79.84,1.64,2.12,2.13,3.63,1.09A7.37,7.37,0,0,0,139.12,110.78Z"/><path d="M260.4,114a10.48,10.48,0,0,1,2.09-.34c.35,0,.67.45,1,.7-.22.29-.38.75-.67.85a12.1,12.1,0,0,1-2.72.64,1.52,1.52,0,0,1-1.1-.66,5.05,5.05,0,0,1-.32-1.58,6.5,6.5,0,0,1-5.28,2.57c-1.49,0-2.69-.33-3.11-2-1.28-5-1.91-10.16-.7-15.28.83-3.51,3.17-4.7,6.62-3.71l1,.27c0-1.64.06-3.19,0-4.74-.18-3.91-.46-7.81-.6-11.71,0-1.06-.3-1.5-1.4-1.51a23.92,23.92,0,0,1-4.05-.37c-.48-.09-.86-.68-1.28-1,.51-.24,1-.68,1.53-.67,1.87,0,3.74.27,5.61.4,1,.07,1.64.46,1.73,1.58.23,3,.59,5.9.75,8.86q.63,11.55,1.11,23.11C260.66,110.83,260.47,112.28,260.4,114Zm-1.68-12.41h.14V100c.16-2-1.3-2.57-2.75-3.06-1.23-.41-2,.51-2.66,1.34a4.12,4.12,0,0,0-.73,1.35,21.07,21.07,0,0,0-.19,12.74c.52,1.7,2.35,2.44,3.63,1.29,1-.93,2.28-2.19,2.43-3.44a68.1,68.1,0,0,0,.13-8.69Z"/><path d="M282.14,109.86c.58,2.19-.81,4.77-2.45,5.37-1.95.71-3,.2-4-1.76a26.43,26.43,0,0,1-4.72,2c-2.77.64-3.8,0-5.1-2.6-2.12-4.22-.41-9.47,2.07-12.43,1.62-1.93,3.78-1.5,5.87-.74.84-3,.63-6.93-.55-9.14l-3.81.92.53.41a13.68,13.68,0,0,1,0,3c-.23,1-.87,1.87-2.14,1.49-1.75-.52-2-1.08-1.6-2.77a6.64,6.64,0,0,1,6.59-4.91,3.65,3.65,0,0,1,3.61,3.3c.89,4,.17,8,.22,12a78.11,78.11,0,0,0,.59,8.37c.05.5.85,1.33,1.23,1.29a3.69,3.69,0,0,0,2.06-1.08A15.16,15.16,0,0,0,282.14,109.86Zm-7.29-5h.32c-.21-.91-.16-2-.67-2.69-.77-1-2.68-.68-3.8.33a7.88,7.88,0,0,0-2.42,6.91c.13,1.81,2,3.78,3.57,3.67a3.52,3.52,0,0,0,3.24-3.8v0c-.09-1.51-.16-3-.24-4.4Z"/><path d="M314.8,115.31l-1.44.79a5.57,5.57,0,0,1-.48-1.48c-.13-2.11-.23-4.24-.25-6.36a3.89,3.89,0,0,1,.59-1.41,6.23,6.23,0,0,1,.75,1.39,7.53,7.53,0,0,1,.11,1.71c.06,2.5,1.11,3.81,3.16,4a4.07,4.07,0,0,0,4.13-3.49c.59-2.85-.74-4.94-2.62-6.82s-3.66-3.4-5.27-5.29a5.78,5.78,0,0,1,.09-7.91A6.43,6.43,0,0,1,317,88.83a13.71,13.71,0,0,1,4.73.41c.4.1.68,1.4.71,2.16a20.39,20.39,0,0,1-.33,3.11c-.26-.08-.63-.08-.76-.26a2.15,2.15,0,0,1-.2-.9c-.14-1.06.38-2.31-1.28-2.78-1.91-.55-3.65-.52-5.06.94a1.83,1.83,0,0,0-.05,1.77,94.89,94.89,0,0,0,5.86,7.68,15,15,0,0,1,3.66,10.51,5.43,5.43,0,0,1-8.13,4.51C315.67,115.71,315.14,115.48,314.8,115.31Z"/><path d="M158.49,116.36c.16,1.22-.3,1.74-1.44,1.67-1.31-.08-2.62-.21-3.93-.23s-2.77.11-4.15.07a5.33,5.33,0,0,1-1.46-.48c.41-.33.77-.84,1.23-.94,1.17-.25,2.37-.31,3.6-.45v-8.43c0-1.66-.2-3.33-.2-5a10.69,10.69,0,0,1,.4-2.75c.42-1.56-.13-2.23-1.69-2.06a4.32,4.32,0,0,1-1.5-.39,5,5,0,0,1,1.25-.88c1.82-.53,2.49-.23,3.47,1.19,1.17-.46,2.28-1.24,3.39-1.24,2.35,0,4.24,3,3.57,5.41a18.6,18.6,0,0,1-.92,2.49c-.41.92-1,2-2.16,1.5-.75-.3-1.84-1.33-1.74-1.8a6,6,0,0,1,1.79-2.47c.26-.26.87-.17,1.33-.25A1.82,1.82,0,0,0,157.56,99c-1.14-.11-2.16-.06-2.8,1.34a10.51,10.51,0,0,0-.69,4.87c.07,3.17.16,6.35.17,9.53,0,1.21.11,1.93,1.64,1.49A8.8,8.8,0,0,1,158.49,116.36Z"/><path d="M162.32,118.28c0-1.73.89-2.87,1.87-2.85a1.84,1.84,0,0,1,1.88,1.8v.09a2.19,2.19,0,0,1-2.29,2.07C163.14,119.25,162.63,118.53,162.32,118.28Z"/></g><g class="cls-3"><g class="cls-3"><path class="cls-4" d="M179.39,215.57v-9q0-19.72-.82-30.82l-.41-5.07a38.13,38.13,0,0,1-.55-6q0-4.65.27-8.49l.28-8.5a28.75,28.75,0,0,0-.55-6.44q-2.75,1.94-16.58,57.68l-.14,2.06a29.07,29.07,0,0,1-1.09,5.48,5.72,5.72,0,0,1-1.17,2.33,2.29,2.29,0,0,1-1.71.82,4,4,0,0,1-3.15-1.1,5.1,5.1,0,0,1-1-3.42q0-3.71-3.49-19.18t-7.54-29.73q-4-14.25-5.55-15.76-.14,4.8-1.09,22.61-1.92,31.51-1.92,49.59l.14,5.48c-.37,1.19-1.33,1.78-2.88,1.78a2.94,2.94,0,0,1-1.37-.75q-1-.75-1-1.17,0-12.33,2.19-43.29,2.06-28.77,2.06-43.15a3.53,3.53,0,0,0-.28-1.37,3.22,3.22,0,0,1-.41-1.24c0-1.37,1.19-2,3.56-2a2.45,2.45,0,0,1,2.75,2,23.45,23.45,0,0,1,.54,4.12l.14,1.64a57.94,57.94,0,0,0,4,11,100.55,100.55,0,0,1,4,10.27q.81,3.3,1.5,5.35,2.19,7.94,2.88,11.78l1.78,3.56q.41,2.05,1.65,6.71,1.23,5.22,1.78,8.5a38.86,38.86,0,0,1,.54,6.3q1.51-2.33,8.57-28t8.28-32.81a2.63,2.63,0,0,0,.21-.75c0-.32.11-.75.21-1.3a53.68,53.68,0,0,1,1.23-5.35c.73-1.82,1.82-2.74,3.29-2.74a4.12,4.12,0,0,1,2.19.83c.82.54,1.23,1.09,1.23,1.64q0,57.14,1.78,60.42v7.12q-.14,3.15-.13,7.26a67.34,67.34,0,0,0,1,13.15.93.93,0,0,1,.21.41,7,7,0,0,0,.21.69,5.1,5.1,0,0,1,.13,1.23,5.84,5.84,0,0,1-.89,3,2.52,2.52,0,0,1-2.12,1.5Q179.39,224.33,179.39,215.57Zm-1.78-75.22h-.14l-.27.14.41.14Z"/><path class="cls-4" d="M209.39,215.84a3.63,3.63,0,0,0-1.1.14H207.2c-2,0-3.29-.46-3.84-1.37a2,2,0,0,1,1.1-1.65l.68-.68h4l.54-.55.28-1.23.14-1.65q0-8.35-.42-14.93l-.27-5.07-.27-10q0-5.34.41-16l.27-15.89a139.57,139.57,0,0,0-.68-15.89,14.28,14.28,0,0,0-4.11-.41l-1.51.13a10,10,0,0,1-1.78.14c-1.74,0-2.6-.77-2.6-2.33,0-.36.41-.73,1.23-1.1a5.33,5.33,0,0,1,2.05-.54,100.81,100.81,0,0,1,10.41.54,22.34,22.34,0,0,1,6.31,1.24c1.64.55,2.46,1.32,2.46,2.33a3.18,3.18,0,0,1-.41,1.09l-3.15.28c-.64-.55-2-.83-4-.83l-.69.42c.28.82.41,3.24.41,7.26q0,9-.13,16.3l-.28,16.3q0,6.16.55,14.94.42,10,.41,15.07v1.78a18.38,18.38,0,0,0-.13,2.46,10,10,0,0,0,.41,3.84l-.14.27c0,.92,1,1.37,3,1.37a13.19,13.19,0,0,0,2.06-.13h2.05c2.65,0,4,.64,4,1.91a2.56,2.56,0,0,1-.83,2,3.11,3.11,0,0,1-2.19.75,8.1,8.1,0,0,1-2.19-.27,19.07,19.07,0,0,0-2.33-.14,7.12,7.12,0,0,0-2.46.69,6.29,6.29,0,0,1-2.47.82C211,217.21,209.75,216.75,209.39,215.84Z"/><path class="cls-4" d="M271.52,216.94a9.69,9.69,0,0,1-.89-2.47,6,6,0,0,0-.55-1.92l.14-.41a86.71,86.71,0,0,0-4.66-15.75l-2.47-7.13a68.86,68.86,0,0,1-2.6-7L259.4,179q-12.34-38.09-15.49-41.24a34.66,34.66,0,0,0-1.09,9.59c0,2.1,0,3.93.14,5.48l.13,5.34-.13,3.29c-.1,1-.14,2.1-.14,3.29a43.35,43.35,0,0,0,.27,5.21l.28,4.38H243q0,22.88.95,25.21v12.33a6.38,6.38,0,0,1,.55,2.87,2.75,2.75,0,0,1-.75,1.92,2.4,2.4,0,0,1-1.85.82q-2.88,0-2.88-7.39l.28-4.39a34.77,34.77,0,0,0,.27-4.52q0-6.57-.41-19.73t-.41-19.73q0-4,.41-12.19t.41-12.05V135.7q0-6.72,2.47-8.77l.41.41,1.37-.28a3,3,0,0,1,1.23.83,1.71,1.71,0,0,1,.55,1.23l.27.82a2.33,2.33,0,0,0,.14.69q2.19,9.72,9.86,27.26,7.82,18.5,9.73,24.52,1.37,4.8,2.19,8.5,2.61,11.64,6.17,17.94l.27-.41q3.15-30.41,3.15-74.66l-.13-1.65a8.65,8.65,0,0,1-.14-1.78q0-2.88,1.92-2.88a2.6,2.6,0,0,1,2.12,1.24,4.58,4.58,0,0,1,.89,2.74v9.18l-.69,1.09q0,13-1.5,42.75t-2.88,32.33l-2.33.55v.13l-.14-.13-1.37.41A1.69,1.69,0,0,1,271.52,216.94Z"/><path class="cls-4" d="M304.88,215.84a3.63,3.63,0,0,0-1.1.14h-1.09c-2,0-3.29-.46-3.84-1.37A2,2,0,0,1,300,213l.68-.68h4l.55-.55.28-1.23.13-1.65q0-8.35-.41-14.93l-.27-5.07-.28-10q0-5.34.42-16l.27-15.89A136.8,136.8,0,0,0,304.6,131a14.19,14.19,0,0,0-4.11-.41l-1.5.13a10,10,0,0,1-1.78.14c-1.74,0-2.61-.77-2.61-2.33,0-.36.41-.73,1.24-1.1a5.33,5.33,0,0,1,2.05-.54,100.81,100.81,0,0,1,10.41.54,22.48,22.48,0,0,1,6.31,1.24c1.64.55,2.46,1.32,2.46,2.33a3.42,3.42,0,0,1-.41,1.09l-3.15.28c-.64-.55-2-.83-4-.83l-.69.42c.28.82.41,3.24.41,7.26q0,9-.13,16.3l-.28,16.3q0,6.16.55,14.94.41,10,.41,15.07v1.78a18.15,18.15,0,0,0-.14,2.46,10.25,10.25,0,0,0,.41,3.84l-.13.27c0,.92,1,1.37,3,1.37a13.19,13.19,0,0,0,2.06-.13h2.05c2.65,0,4,.64,4,1.91a2.55,2.55,0,0,1-.82,2,3.13,3.13,0,0,1-2.19.75,8.1,8.1,0,0,1-2.19-.27,19.07,19.07,0,0,0-2.33-.14,7.22,7.22,0,0,0-2.47.69,6.2,6.2,0,0,1-2.46.82C306.47,217.21,305.24,216.75,304.88,215.84Z"/></g><g class="cls-3"><path class="cls-4" d="M403.3,220.28a11,11,0,0,1-1.15-5.57L402,186.3q-.19-3.65-.19-12.1-.39-17.85-.39-40.32v-9.79q-1.72,9.21-5.95,25.92-4.21,17.28-5.95,28.42v1.15l-.58,3.65a35.83,35.83,0,0,1-1.92,8.64q-1.92,4.6-6,4.6-6.91,0-6.91-18a122.92,122.92,0,0,0-2-21.41q-2-11.43-6.43-28.13l-5.76-21.5-.38,23q0,10.37,1,39.55l.38,13.05.39,26.31a10.73,10.73,0,0,1-2.88,7.29c-3.21,0-5.41-1-6.63-3s-1.82-4.9-1.82-8.74l.38-15.74q.58-10.37.58-15.55l-.39-37.06-.38-37.25q0-8.25.38-24.77l5.19-3.07a5,5,0,0,1,3.07,2.21,33.4,33.4,0,0,1,3.46,6.43Q367,92,374.7,127.74a82.82,82.82,0,0,1,1.53,8.25q2.31,11.14,3.27,16.9l2.88,14.78,1.34-6.33,3.65-15.75q3.06-13.82,5.09-24.19t3.93-22.46q2.12-14.4,2.69-24V73.79a5.79,5.79,0,0,1,2.3-3.94A7.47,7.47,0,0,1,406,68.41,4,4,0,0,1,409.06,70a4.86,4.86,0,0,1,1.35,3.26q0,23,1.73,68.93.94,22.46,1.34,44,.38,9.78.38,24.76a13.86,13.86,0,0,1-2.3,7.88c-1.54,2.3-3.26,3.45-5.18,3.45A3.47,3.47,0,0,1,403.3,220.28Z"/><path class="cls-4" d="M442.66,217.4c-2.18-.64-3.26-2.43-3.26-5.37V100.47a63,63,0,0,0-1.15-9.79,46,46,0,0,1-1.35-9.79v-.58a44.26,44.26,0,0,1,4.8-6.91,42.86,42.86,0,0,0,7.11-.77,38.51,38.51,0,0,1,7.1-.76,10.93,10.93,0,0,1,5.95,1.82q2.88,1.83,2.88,4.32,0,5.76-8.83,5.76h-2.69a16.33,16.33,0,0,0-2.69-.19,6.51,6.51,0,0,0-2.11.19q0,6.53.77,15.74l.38,5.38.39,10.56q0,3.64-.58,11.14L449,137.34l2.69-.58a22.85,22.85,0,0,1,6.33-1.15,5.49,5.49,0,0,1,3.84,1.63,5,5,0,0,1,1.73,3.75,6.46,6.46,0,0,1-1.44,4.12,4.37,4.37,0,0,1-3.55,1.83l-2.31-.19H453.8c-1.92,0-3.27.45-4,1.34v59.33l10.75-.58q10.94,0,10.94,5v.77a8.51,8.51,0,0,1-4.22,3.75,20.53,20.53,0,0,1-5.95,1.82l-6.34.19H449A18.83,18.83,0,0,1,442.66,217.4Z"/></g><g class="cls-3"><path class="cls-5" d="M403.3,220.28a11,11,0,0,1-1.15-5.57L402,186.3q-.19-3.65-.19-12.1-.39-17.85-.39-40.32v-9.79q-1.72,9.21-5.95,25.92-4.21,17.28-5.95,28.42v1.15l-.58,3.65a35.83,35.83,0,0,1-1.92,8.64q-1.92,4.6-6,4.6-6.91,0-6.91-18a122.92,122.92,0,0,0-2-21.41q-2-11.43-6.43-28.13l-5.76-21.5-.38,23q0,10.37,1,39.55l.38,13.05.39,26.31a10.73,10.73,0,0,1-2.88,7.29c-3.21,0-5.41-1-6.63-3s-1.82-4.9-1.82-8.74l.38-15.74q.58-10.37.58-15.55l-.39-37.06-.38-37.25q0-8.25.38-24.77l5.19-3.07a5,5,0,0,1,3.07,2.21,33.4,33.4,0,0,1,3.46,6.43Q367,92,374.7,127.74a82.82,82.82,0,0,1,1.53,8.25q2.31,11.14,3.27,16.9l2.88,14.78,1.34-6.33,3.65-15.75q3.06-13.82,5.09-24.19t3.93-22.46q2.12-14.4,2.69-24V73.79a5.79,5.79,0,0,1,2.3-3.94A7.47,7.47,0,0,1,406,68.41,4,4,0,0,1,409.06,70a4.86,4.86,0,0,1,1.35,3.26q0,23,1.73,68.93.94,22.46,1.34,44,.38,9.78.38,24.76a13.86,13.86,0,0,1-2.3,7.88c-1.54,2.3-3.26,3.45-5.18,3.45A3.47,3.47,0,0,1,403.3,220.28Z"/><path class="cls-5" d="M442.66,217.4c-2.18-.64-3.26-2.43-3.26-5.37V100.47a63,63,0,0,0-1.15-9.79,46,46,0,0,1-1.35-9.79v-.58a44.26,44.26,0,0,1,4.8-6.91,42.86,42.86,0,0,0,7.11-.77,38.51,38.51,0,0,1,7.1-.76,10.93,10.93,0,0,1,5.95,1.82q2.88,1.83,2.88,4.32,0,5.76-8.83,5.76h-2.69a16.33,16.33,0,0,0-2.69-.19,6.51,6.51,0,0,0-2.11.19q0,6.53.77,15.74l.38,5.38.39,10.56q0,3.64-.58,11.14L449,137.34l2.69-.58a22.85,22.85,0,0,1,6.33-1.15,5.49,5.49,0,0,1,3.84,1.63,5,5,0,0,1,1.73,3.75,6.46,6.46,0,0,1-1.44,4.12,4.37,4.37,0,0,1-3.55,1.83l-2.31-.19H453.8c-1.92,0-3.27.45-4,1.34v59.33l10.75-.58q10.94,0,10.94,5v.77a8.51,8.51,0,0,1-4.22,3.75,20.53,20.53,0,0,1-5.95,1.82l-6.34.19H449A18.83,18.83,0,0,1,442.66,217.4Z"/></g></g></svg>