<svg id="Layer_2" data-name="Layer 2" xmlns="http://www.w3.org/2000/svg" viewBox="0 0 598.07 301.99"><defs><style>.cls-1{fill:#fff;stroke:#000;}.cls-1,.cls-5{stroke-miterlimit:10;}.cls-2{fill:#be1e2d;}.cls-3{font-size:137px;fill:#231f20;font-family:AmaticSC-Regular, Amatic SC;}.cls-4{font-size:204.93px;letter-spacing:-0.11em;}.cls-4,.cls-5{font-family:AmaticSC-Bold, Amatic SC;font-weight:700;}.cls-5{stroke:#231f20;font-size:192px;}</style></defs><title>logo-final-white</title><rect class="cls-1" width="598.07" height="301.99"/><g id="winner"><path class="cls-2" d="M192.45,104c-1.27,1.17-2.41,2.25-3.58,3.31-3.32,3-6.64,6-10,8.93a8.11,8.11,0,0,1-1.87,1.34c-.53.25-1.56.5-1.74.26-.58-.75-1.4-1.87-1.2-2.6.68-2.47,1.75-4.84,2.67-7.24.5-1.32,1-2.63,1.46-4,.68-2,1.27-4.07,1.94-6.1a1.83,1.83,0,0,0-1-2.45c-1.73-1-3.46-1.91-5.13-3-2.24-1.42-4.43-2.93-6.61-4.46a2.26,2.26,0,0,1-.86-1.25,1.31,1.31,0,0,1,.46-1.16,6.1,6.1,0,0,1,2.39-.53c4.73.12,9.46.32,14.43.51.36-1,.86-2.16,1.25-3.38,1.09-3.41,2.11-6.85,3.25-10.24a18.34,18.34,0,0,1,1.55-3c.57-1,1.29-.91,2-.17,1.93,2,2.35,4.67,3,7.22.77,3,1.54,5.93,2.39,8.87.07.24.85.47,1.23.39,3.65-.8,7.27-1.74,10.93-2.46a13.44,13.44,0,0,1,4.2,0c1.46.18,1.78.88.83,2-2.27,2.56-4.69,5-7.06,7.46-.79.82-1.69,1.53-2.43,2.39a1.7,1.7,0,0,0-.18,1.29c1.2,5.55,2.45,11.08,3.68,16.62a17.32,17.32,0,0,1,.62,3.21c0,.68-.49,1.95-.77,1.95a5.64,5.64,0,0,1-3.15-.69A57.5,57.5,0,0,1,192.45,104Z"/><path d="M297.16,91.24c.26-.17.86-.59,1.47-1,2.81-1.75,6.26-.79,7.14,2.42a48.55,48.55,0,0,1,1.36,9.7c.23,3.57.05,7.17.05,10.75l.42-.12,1.36,1.29c-.62.37-1.22,1-1.88,1.07a8.87,8.87,0,0,1-3-.33c-.4-.09-.71-.58-1.06-.89a11.36,11.36,0,0,1,1.17-.93,1.66,1.66,0,0,1,.7-.15c0-3.46.12-6.78,0-10.09a32.24,32.24,0,0,0-1.05-6.31,9.05,9.05,0,0,0-1.79-3.4,3.19,3.19,0,0,0-2.23-.58c-.27,0-.74.83-.77,1.31-.37,5.5-.67,11-1,16.52,0,.46,0,.93,0,1.48a13.07,13.07,0,0,1,1.84.44c.27.11.65.58.59.75a1.26,1.26,0,0,1-.79.77,15.7,15.7,0,0,1-3.55.15,6,6,0,0,1-1.89-1l1.25-1.26.52.16c-.19-6.09-.35-12.17-.58-18.26,0-1.18-1.86-2.71-2.91-2.39a2.13,2.13,0,0,0-1.19,1.43,72.07,72.07,0,0,0-1.08,19l1.52,1.09a5.29,5.29,0,0,1-1.39.93,24.21,24.21,0,0,1-3.76.72,3.93,3.93,0,0,1-1.49-.43c.28-.37.58-.72.83-1.1s.76-.89.8-1.37c.28-3.35.53-6.71.67-10.06s.12-6.45.17-9.68c0-.56,0-1.13,0-1.82a26,26,0,0,1-3-.43c-.44-.12-.78-.62-1.16-1a4.33,4.33,0,0,1,1.29-.54c.67,0,1.36.25,2,.18,1.5-.16,2.32.34,2.26,1.67,1.41-.41,2.86-1.26,4.18-1.09S295.7,90.33,297.16,91.24Z"/><path d="M244.8,115.12a5.25,5.25,0,0,1,1.52-.07c.36.08.9.47.91.74s-.44,1-.69,1c-1.68,0-3.37-.11-5-.26a7.9,7.9,0,0,1-2.26-.51,5.23,5.23,0,0,1-1.28-1,8.27,8.27,0,0,1,1.55-.51,6.49,6.49,0,0,1,1.58.22c-.44-2.55-.84-4.84-1.24-7.13s-.73-4.53-1.19-6.77c-.08-.42-.63-1-1-1q-3.72-.2-7.46-.14c-.33,0-.84.6-1,1q-1.58,5.31-3,10.68a2.09,2.09,0,0,0,.32,1.39c.45.76,1.07,1.42,1.52,2.18a1.56,1.56,0,0,1,.24,1.24,1.44,1.44,0,0,1-1.16.49q-2.79-.19-5.56-.55c-.37,0-.69-.47-1-.71.26-.33.53-1,.78-.93,3.41.16,3.21-2.82,3.81-4.7,1.82-5.7,3.28-11.51,4.93-17.26,1.37-4.74,2.82-9.47,4.24-14.2a2.14,2.14,0,0,1,.28-.73c.62-.71,1.28-1.39,1.93-2.09a22.42,22.42,0,0,1,1.22,2c1.71,3.58,2.11,7.48,2.76,11.32,1.33,8,2.74,16,4.1,24C244.73,113.45,244.73,114.17,244.8,115.12Zm-9.34-34.19-.4-.05-5.14,16.73h8.4Z"/><path d="M147.12,118.49a8.13,8.13,0,0,1-1.76.65c-1.24.07-2.5,0-3.74.06s-2.16-.28-2.23-1.75c0-.21-.24-.42-1-1.19a6.33,6.33,0,0,1-.61,1.46c-1.63,2.19-4,2.59-6.44,2.22-2-.3-2.77-2-3.42-3.58a13.32,13.32,0,0,1,.51-11.84c2.62-5,4.06-4.59,9-4.42.45,0,.9.13,1.62.24-.22-2.49-.4-4.8-.64-7.11-.31-2.94-.74-5.88-1-8.84-.11-1.27-.41-1.88-1.87-1.75a13.82,13.82,0,0,1-3.55-.36c-.29,0-.52-.43-.78-.66.28-.27.51-.64.84-.77a2.78,2.78,0,0,1,1.19-.08,11.86,11.86,0,0,0,3,.29c1.68-.31,2.35.36,2.48,1.88.18,2.08.2,4.17.51,6.23a142.82,142.82,0,0,1,1.52,23.65,20.93,20.93,0,0,0,.34,3.87c.06.31.65.68,1,.75,1.22.22,2.47.29,3.7.46A6.73,6.73,0,0,1,147.12,118.49Zm-8-7.71c-.22-2-.43-3.92-.67-5.87a1.53,1.53,0,0,0-1.76-1.52,2.82,2.82,0,0,1-.92,0c-2.5-.71-4.82.62-4.83,3.22,0,3.28-.37,6.66,1.22,9.79.84,1.64,2.12,2.13,3.63,1.09A7.37,7.37,0,0,0,139.12,110.78Z"/><path d="M260.4,114a10.39,10.39,0,0,1,2.09-.34c.35,0,.67.45,1,.7-.22.29-.38.75-.67.85a12.23,12.23,0,0,1-2.72.64,1.53,1.53,0,0,1-1.1-.66,5,5,0,0,1-.32-1.58,6.49,6.49,0,0,1-5.28,2.57c-1.49,0-2.69-.33-3.11-2-1.28-5-1.91-10.16-.7-15.28.83-3.51,3.17-4.7,6.62-3.71l1,.27c0-1.64.06-3.19,0-4.74-.18-3.91-.46-7.81-.6-11.71,0-1.06-.3-1.5-1.4-1.51a23.83,23.83,0,0,1-4.05-.37c-.48-.09-.86-.68-1.28-1,.51-.24,1-.68,1.53-.67,1.87,0,3.74.27,5.61.4,1,.07,1.64.46,1.73,1.58.23,3,.59,5.9.75,8.86q.63,11.55,1.11,23.11C260.66,110.83,260.47,112.28,260.4,114Zm-1.68-12.41h.14c0-.52,0-1,0-1.56.16-2-1.3-2.57-2.75-3.06-1.23-.41-2,.51-2.66,1.34a4.12,4.12,0,0,0-.73,1.35,21.07,21.07,0,0,0-.19,12.74c.52,1.7,2.35,2.44,3.63,1.29,1-.93,2.28-2.19,2.43-3.44A67.37,67.37,0,0,0,258.72,101.56Z"/><path d="M282.14,109.86c.58,2.19-.81,4.77-2.45,5.37-1.95.71-3,.2-4-1.76a26.87,26.87,0,0,1-4.72,2c-2.77.64-3.8,0-5.1-2.6-2.12-4.22-.41-9.47,2.07-12.43,1.62-1.93,3.78-1.5,5.87-.74.84-3,.63-6.93-.55-9.14l-3.81.92.53.41a13.71,13.71,0,0,1,0,3c-.23.95-.87,1.87-2.14,1.49-1.75-.52-2.05-1.08-1.6-2.77a6.64,6.64,0,0,1,6.59-4.91A3.65,3.65,0,0,1,276.44,92c.89,4,.17,8,.22,12,0,2.8.29,5.59.59,8.37.05.5.85,1.33,1.23,1.29a3.67,3.67,0,0,0,2.06-1.08A15.24,15.24,0,0,0,282.14,109.86Zm-7.29-5,.32,0c-.21-.91-.16-2-.67-2.69-.77-1-2.68-.68-3.8.33a7.88,7.88,0,0,0-2.42,6.91c.13,1.81,2,3.78,3.57,3.67a3.53,3.53,0,0,0,3.24-3.83C275,107.74,274.93,106.3,274.85,104.85Z"/><path d="M314.8,115.31l-1.44.79a5.82,5.82,0,0,1-.48-1.48c-.13-2.11-.23-4.24-.25-6.36a4,4,0,0,1,.59-1.41,6.26,6.26,0,0,1,.75,1.39,7.46,7.46,0,0,1,.11,1.71c.06,2.5,1.11,3.81,3.16,4a4.07,4.07,0,0,0,4.13-3.49c.59-2.85-.74-4.94-2.62-6.82s-3.66-3.4-5.27-5.29a5.79,5.79,0,0,1,.09-7.91A6.42,6.42,0,0,1,317,88.83a13.53,13.53,0,0,1,4.73.41c.4.1.68,1.4.71,2.16a20.66,20.66,0,0,1-.33,3.11c-.26-.08-.63-.08-.76-.26a2.13,2.13,0,0,1-.2-.9c-.14-1.06.38-2.31-1.28-2.78-1.91-.55-3.65-.52-5.06.94a1.85,1.85,0,0,0-.05,1.77,93.17,93.17,0,0,0,5.86,7.68,15,15,0,0,1,3.66,10.51,5.42,5.42,0,0,1-8.13,4.51C315.67,115.71,315.14,115.48,314.8,115.31Z"/><path d="M158.49,116.36c.16,1.22-.3,1.74-1.44,1.67-1.31-.08-2.62-.21-3.93-.23s-2.77.11-4.15.07a5.21,5.21,0,0,1-1.46-.48c.41-.33.77-.84,1.23-.94,1.17-.25,2.37-.31,3.6-.45,0-2.86,0-5.65,0-8.43,0-1.66-.2-3.33-.2-5a10.69,10.69,0,0,1,.4-2.75c.42-1.56-.13-2.23-1.69-2.06a4.33,4.33,0,0,1-1.5-.39,4.83,4.83,0,0,1,1.25-.88c1.82-.53,2.49-.23,3.47,1.19,1.17-.46,2.28-1.24,3.39-1.24,2.35,0,4.24,3,3.57,5.41a18.6,18.6,0,0,1-.92,2.49c-.41.92-1,2-2.16,1.5-.75-.3-1.84-1.33-1.74-1.8a6,6,0,0,1,1.79-2.47c.26-.26.87-.17,1.33-.25A1.82,1.82,0,0,0,157.56,99c-1.14-.11-2.16-.06-2.8,1.34a10.48,10.48,0,0,0-.69,4.87c.07,3.17.16,6.35.17,9.53,0,1.21.11,1.93,1.64,1.49A8.76,8.76,0,0,1,158.49,116.36Z"/><path d="M162.32,118.28c0-1.73.89-2.87,1.87-2.85a1.84,1.84,0,0,1,1.88,1.89,2.19,2.19,0,0,1-2.29,2.07C163.14,119.25,162.63,118.53,162.32,118.28Z"/></g><text class="cls-3" transform="translate(118.15 217.21)">mini<tspan class="cls-4" x="205.63" y="0"> </tspan><tspan class="cls-5" x="221.41" y="0">ME</tspan></text></svg>