<svg id="Layer_2" data-name="Layer 2" xmlns="http://www.w3.org/2000/svg" viewBox="0 0 593.84 301.73"><defs><style>.cls-1{fill:#231f20;}.cls-2{font-size:137px;font-family:AmaticSC-Regular, Amatic SC;}.cls-2,.cls-6{fill:#fff;}.cls-3{font-size:204.93px;letter-spacing:-0.11em;}.cls-3,.cls-4{font-family:AmaticSC-Bold, Amatic SC;font-weight:700;}.cls-4{stroke:#fff;stroke-miterlimit:10;font-size:192px;}.cls-5{fill:#be1e2d;}</style></defs><title>logo-final-black_1</title><rect class="cls-1" width="593.84" height="301.73"/><text class="cls-2" transform="translate(116.04 216.22)">mini<tspan class="cls-3" x="205.63" y="0"> </tspan><tspan class="cls-4" x="221.41" y="0">ME</tspan></text><g id="winner"><path class="cls-5" d="M190.33,103c-1.26,1.17-2.4,2.26-3.57,3.31q-5,4.49-10,8.93a8,8,0,0,1-1.88,1.34c-.53.25-1.55.5-1.73.26-.59-.75-1.4-1.87-1.2-2.6.67-2.47,1.75-4.83,2.67-7.24.49-1.32,1-2.62,1.46-4,.67-2,1.27-4.07,1.94-6.1a1.83,1.83,0,0,0-1-2.45c-1.73-1-3.46-1.91-5.12-3-2.24-1.43-4.44-2.94-6.61-4.46a2.36,2.36,0,0,1-.87-1.26,1.35,1.35,0,0,1,.47-1.16,6.24,6.24,0,0,1,2.39-.53c4.73.12,9.46.32,14.43.51.36-1,.85-2.16,1.24-3.38,1.1-3.41,2.11-6.85,3.25-10.24a19.2,19.2,0,0,1,1.56-3c.57-1,1.29-.91,2-.17,1.93,2,2.35,4.67,3,7.22.77,3,1.53,5.93,2.39,8.88.07.23.85.46,1.23.38,3.65-.79,7.26-1.74,10.92-2.46a13.44,13.44,0,0,1,4.2,0c1.46.18,1.79.89.83,2-2.26,2.56-4.68,5-7.06,7.46-.79.82-1.69,1.53-2.43,2.39a1.7,1.7,0,0,0-.17,1.29c1.2,5.55,2.44,11.08,3.67,16.63a16.32,16.32,0,0,1,.63,3.2c0,.68-.5,2-.77,2a5.76,5.76,0,0,1-3.16-.7A57.5,57.5,0,0,1,190.33,103Z"/><path class="cls-6" d="M295.05,90.25c.26-.17.85-.59,1.47-1,2.8-1.75,6.26-.79,7.13,2.42a47.85,47.85,0,0,1,1.37,9.7c.22,3.57.05,7.17.05,10.75l.41-.12,1.37,1.29c-.62.38-1.22,1-1.88,1.07a8.93,8.93,0,0,1-3-.33c-.4-.09-.7-.58-1.05-.89a11.25,11.25,0,0,1,1.16-.93,1.84,1.84,0,0,1,.71-.15c0-3.46.12-6.78-.05-10.08a32.2,32.2,0,0,0-1-6.32,9.07,9.07,0,0,0-1.8-3.4,3.16,3.16,0,0,0-2.22-.58c-.28,0-.74.83-.78,1.31-.36,5.51-.67,11-1,16.52,0,.46,0,.93,0,1.48a12.59,12.59,0,0,1,1.83.44c.28.11.66.58.6.75a1.25,1.25,0,0,1-.79.77,15.76,15.76,0,0,1-3.56.15c-.66-.07-1.26-.67-1.88-1l1.25-1.26.52.16c-.19-6.09-.36-12.17-.58-18.26,0-1.18-1.87-2.71-2.91-2.39a2.17,2.17,0,0,0-1.2,1.43,72.93,72.93,0,0,0-1.08,19l1.52,1.1a5.63,5.63,0,0,1-1.38.92,25.6,25.6,0,0,1-3.77.73,4.09,4.09,0,0,1-1.48-.44c.28-.37.57-.72.83-1.1s.75-.89.79-1.37c.28-3.35.54-6.7.68-10.06s.12-6.45.17-9.67c0-.57,0-1.13,0-1.83a23.76,23.76,0,0,1-2.95-.43c-.44-.12-.78-.62-1.17-1a4.2,4.2,0,0,1,1.3-.53c.66,0,1.35.24,2,.17,1.49-.16,2.32.35,2.26,1.67,1.41-.4,2.86-1.26,4.17-1.09S293.58,89.34,295.05,90.25Z"/><path class="cls-6" d="M242.69,114.13a5.25,5.25,0,0,1,1.52-.07c.36.08.89.47.91.74s-.44,1-.69,1c-1.69,0-3.37-.11-5.05-.26a7.65,7.65,0,0,1-2.26-.51,5.57,5.57,0,0,1-1.28-1,7.72,7.72,0,0,1,1.56-.52,6.55,6.55,0,0,1,1.58.22c-.45-2.55-.85-4.84-1.24-7.13s-.73-4.53-1.19-6.77c-.09-.41-.64-1-1-1-2.48-.13-5-.18-7.46-.14-.34,0-.84.6-1,1q-1.56,5.31-3,10.68a2,2,0,0,0,.32,1.39c.44.76,1.07,1.42,1.52,2.18a1.55,1.55,0,0,1,.23,1.24,1.42,1.42,0,0,1-1.16.49c-1.85-.12-3.71-.31-5.55-.55-.37-.05-.69-.46-1-.71.27-.33.54-.94.78-.93,3.42.16,3.22-2.82,3.82-4.7,1.82-5.7,3.27-11.51,4.93-17.26,1.37-4.74,2.82-9.47,4.24-14.2a1.94,1.94,0,0,1,.27-.73c.62-.71,1.29-1.39,1.93-2.09a22.53,22.53,0,0,1,1.23,2c1.7,3.58,2.11,7.48,2.75,11.32,1.34,8,2.74,16,4.1,24C242.62,112.46,242.62,113.18,242.69,114.13Zm-9.35-34.19-.39,0-5.14,16.73h8.4C235.25,91,234.29,85.48,233.34,79.94Z"/><path class="cls-6" d="M145,117.51a8.73,8.73,0,0,1-1.76.64c-1.25.08-2.5,0-3.75.06s-2.16-.27-2.22-1.74c0-.22-.25-.43-1-1.2a6.16,6.16,0,0,1-.61,1.47c-1.63,2.18-4,2.58-6.44,2.21-1.95-.3-2.77-2-3.41-3.58a13.29,13.29,0,0,1,.51-11.84c2.61-5,4.06-4.59,9-4.42.46,0,.91.13,1.62.24-.22-2.48-.39-4.8-.63-7.1-.32-3-.74-5.89-1-8.85-.12-1.26-.41-1.88-1.88-1.75a14.36,14.36,0,0,1-3.55-.35c-.28,0-.51-.44-.77-.67.27-.27.5-.63.83-.77a2.67,2.67,0,0,1,1.2-.07,11.84,11.84,0,0,0,3,.28c1.68-.31,2.34.36,2.47,1.88.18,2.08.21,4.17.51,6.23a140.69,140.69,0,0,1,1.52,23.65,20.94,20.94,0,0,0,.35,3.87c.05.31.65.68,1.05.75,1.22.22,2.47.29,3.7.46A7.33,7.33,0,0,1,145,117.51Zm-8-7.72c-.22-2-.42-3.91-.66-5.87a1.53,1.53,0,0,0-1.77-1.51,3.15,3.15,0,0,1-.92,0c-2.5-.71-4.81.62-4.83,3.22,0,3.28-.36,6.66,1.23,9.79.83,1.64,2.11,2.13,3.63,1.09A7.34,7.34,0,0,0,137,109.79Z"/><path class="cls-6" d="M258.28,113a9.7,9.7,0,0,1,2.09-.33c.35,0,.67.45,1,.69-.22.3-.39.75-.67.85a12.18,12.18,0,0,1-2.73.64,1.51,1.51,0,0,1-1.09-.66,4.91,4.91,0,0,1-.33-1.58,6.46,6.46,0,0,1-5.27,2.57c-1.5,0-2.7-.33-3.11-2-1.28-5-1.92-10.15-.71-15.28.83-3.51,3.18-4.7,6.63-3.71.29.09.59.17,1,.27,0-1.64.06-3.19,0-4.74-.18-3.91-.46-7.81-.6-11.71,0-1.06-.3-1.5-1.41-1.51a22.74,22.74,0,0,1-4-.37c-.48-.09-.86-.68-1.29-1,.51-.24,1-.68,1.53-.67,1.88.06,3.74.28,5.62.4,1,.07,1.64.46,1.72,1.58.23,2.95.6,5.9.76,8.86q.63,11.55,1.11,23.11C258.54,109.84,258.36,111.29,258.28,113Zm-1.68-12.41h.15c0-.52,0-1,0-1.56.16-2-1.3-2.57-2.74-3-1.24-.42-2,.5-2.67,1.33a4.31,4.31,0,0,0-.73,1.35,21.14,21.14,0,0,0-.18,12.74c.52,1.7,2.34,2.44,3.62,1.29,1-.93,2.28-2.19,2.44-3.44A69.24,69.24,0,0,0,256.6,100.57Z"/><path class="cls-6" d="M280,108.87c.57,2.19-.81,4.77-2.45,5.37-1.95.71-3,.2-4-1.76a26.65,26.65,0,0,1-4.73,2c-2.77.64-3.79,0-5.1-2.6-2.11-4.22-.41-9.47,2.08-12.43,1.62-1.93,3.78-1.49,5.86-.74.85-3,.63-6.93-.54-9.14l-3.82.92.53.41a13.12,13.12,0,0,1,0,3c-.23,1-.86,1.87-2.14,1.49-1.75-.52-2-1.08-1.6-2.77a6.62,6.62,0,0,1,6.6-4.9A3.62,3.62,0,0,1,274.32,91c.89,4,.17,8,.23,12,0,2.8.28,5.59.58,8.37.05.5.86,1.33,1.24,1.29a3.7,3.7,0,0,0,2.06-1.08A15.49,15.49,0,0,0,280,108.87Zm-7.29-5,.31-.06c-.2-.91-.15-2-.66-2.69-.78-1-2.68-.68-3.8.34-2.08,1.87-2.62,4.24-2.43,6.9.13,1.81,2,3.79,3.58,3.68A3.55,3.55,0,0,0,273,108.2C272.92,106.75,272.82,105.31,272.74,103.87Z"/><path class="cls-6" d="M312.68,114.32l-1.43.79a5.88,5.88,0,0,1-.48-1.47c-.14-2.12-.24-4.25-.25-6.37,0-.47.38-.94.58-1.41a6.74,6.74,0,0,1,.76,1.39A7.46,7.46,0,0,1,312,109c.06,2.5,1.11,3.82,3.17,4a4.08,4.08,0,0,0,4.13-3.49c.59-2.85-.74-4.94-2.62-6.82s-3.66-3.4-5.28-5.29a5.8,5.8,0,0,1,.1-7.91,6.42,6.42,0,0,1,3.45-1.58,13.53,13.53,0,0,1,4.73.41c.4.1.67,1.4.7,2.16a20.5,20.5,0,0,1-.32,3.11c-.27-.08-.63-.08-.76-.26a2,2,0,0,1-.2-.9c-.14-1,.37-2.31-1.29-2.78-1.9-.55-3.64-.52-5,.94a1.82,1.82,0,0,0-.05,1.77,95.33,95.33,0,0,0,5.85,7.68,15,15,0,0,1,3.66,10.51,5.41,5.41,0,0,1-8.12,4.51C313.55,114.72,313,114.49,312.68,114.32Z"/><path class="cls-6" d="M156.37,115.37c.17,1.22-.29,1.75-1.43,1.67-1.31-.08-2.62-.21-3.94-.23s-2.76.11-4.14.07a5.27,5.27,0,0,1-1.47-.48c.41-.33.78-.84,1.24-.94,1.16-.25,2.37-.31,3.6-.45,0-2.86,0-5.64,0-8.43,0-1.66-.21-3.33-.2-5a10.69,10.69,0,0,1,.4-2.75c.42-1.56-.13-2.23-1.69-2a4.53,4.53,0,0,1-1.5-.4,4.91,4.91,0,0,1,1.25-.88c1.81-.53,2.48-.23,3.46,1.19,1.18-.45,2.29-1.24,3.39-1.24,2.36,0,4.25,3.05,3.57,5.41a18.55,18.55,0,0,1-.91,2.49c-.42.92-1,2-2.17,1.5-.74-.3-1.83-1.32-1.73-1.8a6,6,0,0,1,1.79-2.47c.25-.26.87-.17,1.33-.25A1.82,1.82,0,0,0,155.44,98c-1.13-.11-2.15-.06-2.79,1.34a10.48,10.48,0,0,0-.7,4.87c.08,3.18.16,6.36.17,9.53,0,1.21.11,1.93,1.65,1.5A8.35,8.35,0,0,1,156.37,115.37Z"/><path class="cls-6" d="M160.2,117.29c0-1.73.9-2.87,1.88-2.85a1.85,1.85,0,0,1,1.88,1.89,2.19,2.19,0,0,1-2.29,2.07C161,118.26,160.51,117.54,160.2,117.29Z"/></g></svg>