<svg id="Layer_2" data-name="Layer 2" xmlns="http://www.w3.org/2000/svg" viewBox="0 0 273.7 684.15"><defs><style>.cls-1{fill:#a0d3a6;}.cls-2{fill:#fff;}.cls-3,.cls-6,.cls-7,.cls-8,.cls-9{fill:none;}.cls-3,.cls-5,.cls-8,.cls-9{stroke:#231f20;}.cls-3,.cls-5,.cls-6,.cls-7,.cls-8,.cls-9{stroke-miterlimit:10;}.cls-4,.cls-5{fill:#231f20;}.cls-6,.cls-7{stroke:#fff;}.cls-6,.cls-8{stroke-width:0.25px;}.cls-7{stroke-width:0.5px;}.cls-9{stroke-width:0.75px;}</style></defs><title>older-man</title><rect class="cls-1" x="0.02" width="273.7" height="684.15"/><g id="shoe-right"><path class="cls-2" d="M115.31,607.48l-.71,2.23-.62,2-.64,1.55-1.3,1.88-1.54,1.47-1.92,3.14-2.26,2.88-1.52,3.05-.63,2.41.13.75-.37.39-.1,1.6-.32,1.85v1.88l1.07,1.25,2.41,1.38,1.94.59,2.78.36,3.4-.07,3.33.07s2.15-.52,2.47-.66,2.68-1.12,2.68-1.12l2.19-.79,2.11-1.57.86-1.33a16.59,16.59,0,0,1,.38-1.89,16.54,16.54,0,0,0,.11-2.25l.1-1.5s.89-.13,1.06-.17,1.38-.54,1.38-.54l1.4-.87,1.3-1a5.49,5.49,0,0,0,.29-1c0-.28-.28-3-.28-3l-.22-3.45.37-.59-.15-1.62,0-3-.3-3-.34-1.78-.27-.71-1.37.71h-2l-2-.35-2.17-.35s-2.74,0-3,0-3.29.41-3.29.41Z"/><g id="shoe-right-2" data-name="shoe-right"><path class="cls-3" d="M115.49,607.57a9.41,9.41,0,0,0-1,2.59,23.56,23.56,0,0,1-.9,2.73,11.29,11.29,0,0,1-2,2.46,15.88,15.88,0,0,0-2,2.67,18.14,18.14,0,0,1-2.85,4.1,12.07,12.07,0,0,0-2.08,3.91,4.22,4.22,0,0,0-.38,2.85,4.33,4.33,0,0,0,1.58,2.35,24.45,24.45,0,0,0,2.93,1.76,17.35,17.35,0,0,0,5.14.94,21,21,0,0,0,5.86-.4,38.48,38.48,0,0,0,5.75-1.84,7.93,7.93,0,0,0,3.45-2.48c.47-.64.13-1.91.17-2.65.07-1.48.32-3,.49-4.48a6.22,6.22,0,0,1,1-2.7,6.81,6.81,0,0,1,2.44-2c.46-.26,1.17-.14,1.45-.66s-.12-1.77-.11-2.49a42.76,42.76,0,0,0-.07-4.53c-.07-.7-.37-1.34-.5-2-.07-.4,0-.82-.05-1.22-.44,0-1.1.49-1.55.6a3.82,3.82,0,0,1-1.43,0,42.39,42.39,0,0,0-6.16-.81,26.47,26.47,0,0,0-3.45.13c-1.18.16-2.27.5-3.46.62-.8.07-2.28.06-2.86.71a4.89,4.89,0,0,0-.68,2.26"/><path class="cls-3" d="M129.67,621a7.13,7.13,0,0,1-3.62-.93c-.89-.57-1.52-1.8-2.26-2.56s-2-1.36-2.62-2.35a4.25,4.25,0,0,1-.14-4.83c.77-1.22,1.81-2.28,2.51-3.52"/><path class="cls-3" d="M108,621.15a42.11,42.11,0,0,1,4.51-1.69,10.92,10.92,0,0,0,1.6-.81c.54-.29,1.16-.42,1.68-.73a7.91,7.91,0,0,0,3-3.5,27.92,27.92,0,0,0,.72-3.84c.17-.88.23-1.83.43-2.69a1.38,1.38,0,0,1,.52-.87"/><path class="cls-3" d="M116.64,615.18a8.79,8.79,0,0,1,3.87-.26,7.65,7.65,0,0,0,1.07.15c.57,0,1.17.08,1.74.06"/><path class="cls-3" d="M116.69,611.78a37.34,37.34,0,0,1,4.84-.16c.72,0,1.36.21,2.06.27"/><path class="cls-3" d="M117.84,609.37c1.49,0,3-.34,4.47-.27.4,0,1.39,0,1.67.33"/><path class="cls-3" d="M117.84,608.22a32,32,0,0,1,4.26-.43c.71,0,2.47-.35,3,.38"/><path class="cls-3" d="M104,629c-.25.86,0,1.89-.27,2.78a5.09,5.09,0,0,0-.22,2c.28,2.13,2.58,3.14,4.4,3.67a11.45,11.45,0,0,0,3.32.66c2.07,0,4.14-.11,6.22-.11a10.79,10.79,0,0,0,2.83-.33c.92-.23,1.63-.8,2.52-1.09,1.61-.52,3.33-.9,4.61-2.1a4.79,4.79,0,0,0,1.69-3.2,13,13,0,0,1,.1-2.26"/><path class="cls-3" d="M129.34,625a15.08,15.08,0,0,0,1.81-1.22,12.49,12.49,0,0,1,.12,3.13c.9-1.31,3.36-1.5,3.5-3.41a19,19,0,0,0-.32-3.37,27.17,27.17,0,0,1-.12-2.85"/><path class="cls-3" d="M130.93,626.74a5.63,5.63,0,0,1-1.59.33"/></g></g><g id="shoe-left"><path class="cls-2" d="M146.75,608.32,171.33,612l2.29,2.43,2.43,3.26,2.36,2.72,2.43,1.83,2.37,2.06,1.82,1.79s1.88,1.46,2,1.52,1.89,1.13,1.89,1.13l1.16.67,1.13,1.4.67,1.1.33,1.44-.16.92.61.5-.2,1.45-.39,1-1.28.73-2.37.83-2.29.35h-2.9l-2.42-.31-3.73-.65-4-.74-3-1.1-3.43-1-1.63-.9-1-2.51L161.65,629l-2-1.78-1.52-.54-1.24-.58-.89-.29-.56.74-.59,1.33-1,.21-2.87-1-5-2.65-1.68-1,.09-1.69.49-2.44.14-1.66.13-2,.85-3.4.77-2.62Z"/><g id="shoe-left-2" data-name="shoe-left"><path class="cls-3" d="M146.75,608.32c.06,1.47-.64,2.71-.85,4.12s-.71,2.57-.82,3.87.83,1.54,1.76,2.26c1.56,1.22,3.7,1.59,5.49,2.37a39,39,0,0,1,4.38,2.43c1.65,1,3.23,1.9,4.92,2.78s2.46,2.23,3.66,3.46a8.09,8.09,0,0,1,1.46,1.95c.49.89.72,1.55,1.72,2a38.38,38.38,0,0,0,8.85,2.08c1.39.18,2.8.24,4.18.51a8.75,8.75,0,0,0,3.09.17c2-.34,4.12-.59,6.12-.88,1.23-.18,1.63-1.46,1.43-2.69a8,8,0,0,0-1.46-2.63c-.75-1.1-1.86-1.25-3-2a22.14,22.14,0,0,1-3.91-3.17,33.2,33.2,0,0,0-3.36-3c-.52-.45-1.11-.77-1.66-1.18a13.71,13.71,0,0,1-1.87-2c-.82-.94-1.55-1.87-2.31-2.85-.64-.82-1.19-1.89-1.91-2.65-.41-.44-1.3-1.36-1.91-1.45"/><path class="cls-3" d="M171.6,611.62c.92.07,2.73.44,3.38,1.15.33.37.79,1.46.11,1.73s-2-.92-2.55-1.3A2,2,0,0,1,171.6,611.62Z"/><path class="cls-3" d="M170.79,618.36a22.3,22.3,0,0,0,3.29-.49c.32-.09.57-.33.95-.32"/><path class="cls-3" d="M170.79,616.47c.81-.44,2.47-.49,3.1-1.08"/><path class="cls-3" d="M168.64,614.25a8.39,8.39,0,0,1,3.36-.74"/><path class="cls-3" d="M168.1,613.31a9.7,9.7,0,0,1,3.23-1.08"/><path class="cls-3" d="M167.56,623.47c1.58-2,5.85-3,5.08-6.35a7.37,7.37,0,0,0-1.91-2.81c-.5-.56-1.06-1.63-1.69-2"/><path class="cls-3" d="M178.2,620.38a4.74,4.74,0,0,1-1.89-.14,4.38,4.38,0,0,1-1.38-1.3c-.54-.72-.83-1.57-1.41-2.25s-1.35-1.57-2-2.36a6.31,6.31,0,0,1-1.41-2"/><path class="cls-3" d="M144.94,617.68c-.4.87-.08,2-.36,2.9a14.45,14.45,0,0,0-.38,1.94c-.19,1.21.09,1.16,1.3,1.76s2.21,1.3,3.39,1.81c1.63.71,3.7,2.25,5.52,2,1.05-.14.73-1.91,1.57-2.27.41-.17,1,.4,1.35.59.6.28,1.28.39,1.88.62,1.53.6,2.59,2.12,3.5,3.39a15,15,0,0,1,1.31,1.91c.46.89.51,1.9,1.42,2.44A17.67,17.67,0,0,0,168.9,636a34.06,34.06,0,0,1,3.52,1.22,13.32,13.32,0,0,0,3.42.75c1.43.26,2.85.62,4.29.8,3.58.46,7.36.85,10.64-.78,1.07-.54,1.64-.73,2-2a1.91,1.91,0,0,0-.48-1.84"/></g></g><path class="cls-4" d="M122.88,211.33l.53,2.13,1.49,2.59,2.4,1.36L129,219l1.69,2c.1.11,1.36,1.69,1.36,1.69l5.66,2.64,1.95-1.38c.12-.08,2.9-2.48,2.93-2.5l2.6-2.5,1.44-2.21s2.14-1.68,2.31-1.77.6-1,.47-1l-4.22.22s-4.12.9-4.25.9l-3.52.17s-5.2.08-5.46,0-4-1.58-4.46-1.7-3-1.68-3.12-1.76S122.88,211.33,122.88,211.33Z"/><path class="cls-4" d="M114.27,229.3s0,2.47,0,2.51l-.57,3.35a20.4,20.4,0,0,1,.29,2.55,23.77,23.77,0,0,0,1,3.15c0,.14,1.64,4.94,1.64,4.94l2.54,5.95,2.11,4.71,2.46,4.58,2.72,3.66,1.43,3.39.89,4.09,1.51,3.25s1.08,1,1.2.82a25.64,25.64,0,0,1,2.51-1.31l2.12-3.38L139,266.1l1.29-3.92,4.59-8.07c.06-.12,2.65-4.78,2.65-4.78l1.72-6.25,2.85-9.71,1.41-5.45.2-2.34-15.82,4.91Z"/><g id="Right-hand"><path class="cls-2" d="M57.19,417.63l.11,1.22.17,2.65.14,2.13v2.6l.22,3.16.24,2.38.84,2.8.79,2.32.79,1.47,1.42,1.41.94,1.14.9.94.91.85.53.23a4.14,4.14,0,0,0,.43-.2s.15-.41.15-.41l-.21-.61-.5-1.08.4.31.44.37.59.53.71.63.62.46.51.14.69,0,.41-.17v-.29l-.22-.47a7.84,7.84,0,0,1-.39-.76s.53.44.55.45.36.43.36.43l.53.27.46,0a2.79,2.79,0,0,0,.42-.1l.25-.29v-.38l-.43-.46s-.41-.46-.44-.48l-.41-.52.89.54.69.3s.7.21.72.2l.44-.16.46-.3.13-.28-.06-.49-.24-.36-1-1.23-.71-1.16L71,436.31l-.7-1.71-.43-1.1-.3-.77-.23-.89-.24-1.18-.19-1.18s0-1,0-1,0-.9,0-.9a2.72,2.72,0,0,1,.35-.3l.44,0,1.12.35,1,.31,1.05.24,1.12-.06s.64-.26.68-.3.48-.53.49-.56,0-.56,0-.56l-.39-.39-.62-.19L73,425.85l-.87-.24-.62-.29-1-.46-.76-.59-.46-.77-.13-.87L68.93,421l-.31-1.64-.18-1.07-.19-1.83L57,415.86Z"/><path d="M57.07,409.36c0,.76.07,1.51.09,2.27,0,1.67,0,3.35.11,5s.21,3.41.32,5.12c0,.56.11,1.13.12,1.7,0,.83-.06,1.67,0,2.5.06,1.35.19,2.7.29,4a7.58,7.58,0,0,0,.13.81c.11.62.18,1.25.35,1.85.21.78.53,1.53.75,2.32a7.73,7.73,0,0,0,2,3.84c1,.91,1.78,2,2.68,3a4.79,4.79,0,0,0,1,.83.92.92,0,0,0,.71,0c.08,0,.06-.39,0-.6a1,1,0,0,0-.15-.39l-1.79-3c.06,0,.18,0,.22.09s.3.41.44.62a16.28,16.28,0,0,0,3,3.1,1.87,1.87,0,0,0,1.68.45c.39-.09.43-.14.23-.5a11.33,11.33,0,0,0-1.73-2.28c-.35-.39-.64-.85-1-1.21a15.77,15.77,0,0,1-1.39-2.15s0-.11,0-.17.14,0,.17,0,.12.21.19.31c.35.53.69,1.07,1.07,1.58.5.66,1,1.29,1.55,1.93.19.24.4.45.61.68A2.94,2.94,0,0,1,69,441c.25-.13.52-.28.8-.09s.69.51,1,.78a1.58,1.58,0,0,1,.27.32c-.44.37-.87.2-1.33.05a1,1,0,0,0,1.45.22.44.44,0,0,0,.08-.35,1.22,1.22,0,0,0-.27-.41c-.51-.56-1.06-1.09-1.54-1.68a13,13,0,0,1-1.11-1.63c-.29-.51-.52-1.06-.77-1.6a1.32,1.32,0,0,1,0-.29l.15,0c.3.64.62,1.26.9,1.9A5.54,5.54,0,0,0,71.51,441a1.61,1.61,0,0,0,1.34.13.67.67,0,0,0,.3-1.15,19.72,19.72,0,0,1-1.78-2.61,35.88,35.88,0,0,1-1.63-3.89,14.6,14.6,0,0,1-1-5.59.69.69,0,0,1,.48-.7,1.35,1.35,0,0,1,.93.07,24.37,24.37,0,0,0,2.5.69,2.47,2.47,0,0,0,2.13-.58c.13-.12.3-.38.25-.5a.94.94,0,0,0-.5-.5,4.43,4.43,0,0,0-1.23-.35,10.22,10.22,0,0,1-2.68-.91A2.36,2.36,0,0,1,69.09,423c-.08-.66-.2-1.3-.31-1.95s-.28-1.49-.36-2.25c-.1-1-.14-2-.22-3s-.23-2.21-.31-3.31c-.08-1.26-.14-2.52-.17-3.78,0-.7,0-1.41,0-2.11l.1,0a1.43,1.43,0,0,1,.09.27c0,.7,0,1.39,0,2.08,0,1.09.13,2.18.19,3.27,0,.62,0,1.24.11,1.85.09.89.3,1.79.32,2.68a19.14,19.14,0,0,0,.2,2.62c.18,1.07.33,2.13.51,3.2a1.21,1.21,0,0,0,.09.36h0a1.22,1.22,0,0,0,.15.48c.07.16.09.34.15.51a1.38,1.38,0,0,0,.59.63c.33.2.68.36,1,.57a2.49,2.49,0,0,0,.43.22c.15.05.31.05.47.1a3.29,3.29,0,0,1,.49.26,1.93,1.93,0,0,0,.41.12l.59.09a2.56,2.56,0,0,1,1.35.39,1.06,1.06,0,0,1-.13,1.56,2.22,2.22,0,0,1-.87.35,3.06,3.06,0,0,1-1.24.1,17.84,17.84,0,0,1-2.37-.69c-.41-.13-1.07-.41-1.32.11a2.1,2.1,0,0,0,0,1.24,1.21,1.21,0,0,0,0,.18H69c.07.44.14.86.19,1.28a12.16,12.16,0,0,0,.72,3c.33.85.72,1.68,1,2.54a12.41,12.41,0,0,0,2.32,3.85c.57.67.27,1.42-.61,1.61a2,2,0,0,1-1.35-.3,2.94,2.94,0,0,0-.65-.26l.36.38a3.59,3.59,0,0,1,.37.42.58.58,0,0,1-.34.95,1.35,1.35,0,0,1-1.38-.31l-.29-.23-.08.06c.08.15.16.31.23.47.15.32.12.38-.21.49a1.94,1.94,0,0,1-2-.42c-.56-.49-1.11-1-1.67-1.5a.46.46,0,0,0-.29-.12l.1.24c.13.27.27.53.38.81.17.44.1.57-.35.91h0a.9.9,0,0,1-.28.08h-.06a5.84,5.84,0,0,1-.88-.59c-.47-.43-.91-.9-1.34-1.37-.68-.75-1.32-1.54-2-2.26a6.25,6.25,0,0,1-1.48-2.5c-.28-.86-.51-1.74-.82-2.58a12.28,12.28,0,0,1-.7-3.05c-.07-.83-.17-1.66-.22-2.5-.06-1-.09-2-.12-3,0-.54,0-1.09,0-1.62-.07-1.2-.2-2.39-.26-3.59-.11-1.86-.19-3.72-.26-5.58-.06-1.43-.07-2.86-.14-4.29,0-.88-.14-1.76-.22-2.63,0-.16,0-.31.22-.23C56.91,408,57,408.66,57.07,409.36Z"/><path d="M69.09,441.17c.48-.29,1.06,0,1.63.71C70.32,442.12,69.46,441.75,69.09,441.17Z"/><path d="M71.22,440.39c-.71-.44-.7-.46-.1-1.06.28-.28.4-.29.73-.06s.53.44.82.6a.45.45,0,0,1,.2.64c-.08.17-.3.28-.49.44C72,440.75,71.57,440.6,71.22,440.39Zm.72.16a.51.51,0,0,0,.32.05c.13,0,.35-.09.37-.17a.58.58,0,0,0-.14-.43,4.16,4.16,0,0,0-.71-.54c-.29-.19-.6,0-.86.53Z"/><path d="M68.7,442a1.61,1.61,0,0,0-.12.38c0,.24-.23.36-.4.26a3.72,3.72,0,0,1-1.69-1.23C67.05,440.6,68.15,441.22,68.7,442Zm-.52.44c.19.08.22-.07.2-.23a1.16,1.16,0,0,0-.91-.87c-.23,0-.5-.18-.7.13A3.54,3.54,0,0,0,68.18,442.42Z"/><path d="M72.89,427.57c-.38,0-.56-.21-.55-.56s.29-.69.63-.63a8.77,8.77,0,0,1,1.14.33c.18.06.24.18.11.38a1.1,1.1,0,0,1-1,.46Zm.08-1c-.25-.05-.35.13-.37.36s0,.38.29.38a1.32,1.32,0,0,0,1.22-.43C73.68,426.79,73.33,426.67,73,426.6Z"/><path d="M64.5,442a6.29,6.29,0,0,1-.92-.79.49.49,0,0,1-.1-.46.63.63,0,0,1,.43-.21,1.91,1.91,0,0,1,1.15.89v.06l-.1.58C64.82,442.06,64.62,442.09,64.5,442Zm-.39-1.2a1.3,1.3,0,0,0-.42.08,1.07,1.07,0,0,0,.16.32c.27.24.55.47.83.7A1.13,1.13,0,0,0,64.11,440.8Z"/><path class="cls-2" d="M69.09,441.17c.37.58,1.23.95,1.63.71C70.15,441.15,69.57,440.88,69.09,441.17Z"/><path class="cls-2" d="M70.92,440l1,.56a.51.51,0,0,0,.32.05c.13,0,.35-.09.37-.17a.58.58,0,0,0-.14-.43,4.16,4.16,0,0,0-.71-.54C71.49,439.27,71.18,439.45,70.92,440Z"/><path class="cls-2" d="M66.77,441.45a3.54,3.54,0,0,0,1.41,1c.19.08.22-.07.2-.23a1.16,1.16,0,0,0-.91-.87C67.24,441.29,67,441.14,66.77,441.45Z"/><path class="cls-2" d="M74.11,426.91c-.43-.12-.78-.24-1.14-.31s-.35.13-.37.36,0,.38.29.38A1.32,1.32,0,0,0,74.11,426.91Z"/><path class="cls-2" d="M64.68,441.9a1.13,1.13,0,0,0-.57-1.1,1.3,1.3,0,0,0-.42.08,1.07,1.07,0,0,0,.16.32C64.12,441.44,64.4,441.67,64.68,441.9Z"/></g><g id="Left-hand"><path class="cls-2" d="M210,407.29c0,.13-.29,3.21-.29,3.21l-.27,1.43-.21,1.38-.26,1.31-.48.77-1.08.67-1,.46-.65.22-1.39.26-1,.37-.23.5.2.56.62.5,1.11.23,1.15-.18,1.44-.41.88-.33.65.07.21.3.08.45v1l-.15,1-.26,1.56-.42,1.44-.69,1.78s-.55,1.3-.54,1.33-.77,1.59-.77,1.59l-.45.68-.68.94-.48.61-.13.3v.37l.26.35.4.22.41.07.58-.11.56-.29.93-.44-.27.36-.25.29-.34.38-.18.28,0,.38.26.28.41.13.56-.1.42-.26a6.76,6.76,0,0,1,.52-.55,7.92,7.92,0,0,0,.67-.56s-.25.33-.28.4-.41.63-.41.63l-.22.37-.05.35.31.13.46.08.53,0,.44-.14.44-.34.52-.43,1.2-1.09.87-.85-.23.48-.36.6-.35.7-.11.49.19.3.27.13.4-.06.69-.47,1.73-1.91,1.23-1.38,1.08-1.19s.41-.87.44-.89.64-2,.64-2l.87-2.68.3-2.16.19-1.77.12-2.65,0-2.22.15-1.37.15-2.31.06-1.78V407Z"/><path d="M221.29,400.36c-.06.75-.08,1.51-.1,2.27,0,1.67,0,3.35-.11,5s-.2,3.41-.32,5.11c0,.57-.11,1.14-.12,1.7,0,.84.06,1.68,0,2.51-.07,1.35-.19,2.7-.3,4,0,.27-.08.54-.12.81-.11.62-.19,1.24-.35,1.84-.21.79-.54,1.54-.75,2.32a7.73,7.73,0,0,1-2,3.85c-1,.91-1.78,2-2.68,3a4.53,4.53,0,0,1-1,.83.92.92,0,0,1-.71,0c-.08,0-.06-.39,0-.6a.85.85,0,0,1,.15-.4c.58-1,1.17-1.95,1.78-3-.06,0-.17,0-.22.09s-.29.41-.44.62a16.23,16.23,0,0,1-3,3.1,1.84,1.84,0,0,1-1.68.44c-.39-.09-.43-.14-.24-.5a11.6,11.6,0,0,1,1.74-2.27c.35-.39.63-.85,1-1.21a15,15,0,0,0,1.4-2.16s0-.11,0-.16-.14,0-.17,0-.12.21-.19.31c-.36.53-.7,1.07-1.08,1.58-.49.66-1,1.29-1.54,1.93-.19.23-.41.45-.62.68a1.44,1.44,0,0,0-.26-.22c-.26-.13-.53-.29-.81-.09s-.69.51-1,.78a1.92,1.92,0,0,0-.26.32c.44.36.87.19,1.33.05a1,1,0,0,1-1.46.22.44.44,0,0,1-.07-.35,1.14,1.14,0,0,1,.26-.42c.51-.56,1.07-1.08,1.54-1.67a12,12,0,0,0,1.11-1.63,15.68,15.68,0,0,0,.77-1.6.71.71,0,0,0,0-.29l-.14,0c-.3.63-.62,1.26-.9,1.9a5.54,5.54,0,0,1-2.88,2.82,1.65,1.65,0,0,1-1.34.13c-.57-.24-.66-.66-.3-1.16a20.62,20.62,0,0,0,1.78-2.6,36.74,36.74,0,0,0,1.63-3.89,14.82,14.82,0,0,0,.95-5.59.7.7,0,0,0-.48-.71,1.44,1.44,0,0,0-.92.07,25.16,25.16,0,0,1-2.5.7,2.46,2.46,0,0,1-2.13-.58c-.14-.12-.3-.38-.26-.5a1.08,1.08,0,0,1,.5-.51A4.85,4.85,0,0,1,205,417a10,10,0,0,0,2.67-.91,2.37,2.37,0,0,0,1.58-2.06c.07-.65.2-1.3.3-1.95s.29-1.49.36-2.24c.11-1,.14-2,.23-3s.23-2.2.3-3.31.14-2.52.18-3.78c0-.7,0-1.4,0-2.1l-.1,0a1,1,0,0,0-.09.27c0,.7,0,1.39,0,2.08,0,1.09-.12,2.18-.19,3.27,0,.61,0,1.23-.1,1.85-.1.89-.31,1.78-.33,2.68a17.68,17.68,0,0,1-.2,2.62c-.17,1.07-.33,2.13-.5,3.2a1.21,1.21,0,0,1-.09.36h0a1.52,1.52,0,0,1-.15.47c-.08.17-.09.35-.15.51a1.41,1.41,0,0,1-.59.64c-.33.2-.69.35-1,.56a2,2,0,0,1-.43.23c-.15.05-.31.05-.46.09a3.93,3.93,0,0,0-.5.26,2,2,0,0,1-.41.13c-.19,0-.39.06-.58.09a2.53,2.53,0,0,0-1.35.39,1.06,1.06,0,0,0,.13,1.56,2.23,2.23,0,0,0,.86.35,3.11,3.11,0,0,0,1.25.09,15.93,15.93,0,0,0,2.36-.68c.41-.13,1.07-.41,1.33.1a2.13,2.13,0,0,1,0,1.25.84.84,0,0,1-.05.17h.09c-.06.44-.13.85-.18,1.27a12.12,12.12,0,0,1-.72,3c-.33.85-.73,1.67-1,2.54a12.07,12.07,0,0,1-2.32,3.84.94.94,0,0,0,.61,1.62,2.07,2.07,0,0,0,1.36-.3,2.86,2.86,0,0,1,.64-.27l-.36.39c-.12.14-.26.27-.37.42-.28.39-.12.78.35.95a1.35,1.35,0,0,0,1.37-.31l.3-.24.08.06c-.08.16-.17.31-.24.47-.15.32-.11.38.22.5a2,2,0,0,0,2-.42c.57-.49,1.12-1,1.68-1.5a.43.43,0,0,1,.28-.12,2.44,2.44,0,0,1-.1.24c-.12.27-.27.53-.38.81s-.1.57.35.91h0a1,1,0,0,0,.29.08h.06a6.55,6.55,0,0,0,.87-.59c.47-.43.91-.9,1.34-1.37.69-.75,1.32-1.54,2-2.26a6.13,6.13,0,0,0,1.49-2.51c.27-.85.51-1.73.82-2.57a11.84,11.84,0,0,0,.69-3.05c.08-.84.17-1.67.22-2.5q.09-1.5.12-3c0-.54,0-1.08,0-1.62.08-1.19.2-2.39.27-3.58.1-1.86.19-3.72.26-5.58.06-1.43.07-2.86.13-4.29,0-.88.15-1.76.23-2.64,0-.15,0-.3-.22-.22C221.44,399,221.34,399.66,221.29,400.36Z"/><path d="M207.63,432.88c.57-.73,1.16-1,1.63-.71C208.9,432.75,208,433.12,207.63,432.88Z"/><path d="M206,432c-.18-.17-.41-.27-.48-.44a.45.45,0,0,1,.19-.64c.3-.17.55-.41.83-.6s.45-.22.73.06c.6.6.6.62-.1,1.05A10.65,10.65,0,0,1,206,432Zm1.47-1c-.26-.53-.57-.71-.86-.52a4.68,4.68,0,0,0-.71.53.55.55,0,0,0-.14.44c0,.08.23.14.37.17a.6.6,0,0,0,.32-.05Z"/><path d="M211.87,432.39a3.9,3.9,0,0,1-1.69,1.23c-.18.09-.36,0-.4-.26a3.86,3.86,0,0,0-.12-.38C210.21,432.22,211.31,431.6,211.87,432.39Zm-.28.06c-.21-.31-.48-.17-.71-.14a1.19,1.19,0,0,0-.91.88c0,.15,0,.31.2.22A3.55,3.55,0,0,0,211.59,432.45Z"/><path d="M205.14,418.55a1.13,1.13,0,0,1-1-.46c-.13-.2-.06-.33.12-.39a11.16,11.16,0,0,1,1.13-.32c.34-.07.62.23.63.63s-.16.54-.54.56Zm-.9-.64a1.33,1.33,0,0,0,1.23.43c.25,0,.31-.17.29-.39s-.12-.4-.37-.35S204.68,417.79,204.24,417.91Z"/><path d="M213.4,433.07l-.1-.59a.06.06,0,0,1,0-.06,1.9,1.9,0,0,1,1.15-.88.65.65,0,0,1,.43.21.56.56,0,0,1-.1.46,6.94,6.94,0,0,1-.93.79C213.73,433.09,213.53,433.05,213.4,433.07Zm.28-.18c.27-.23.56-.45.82-.69.09-.08.11-.22.17-.33-.14,0-.29-.1-.42-.07A1.12,1.12,0,0,0,213.68,432.89Z"/><path class="cls-2" d="M209.26,432.17c-.36.58-1.23.95-1.63.71C208.2,432.15,208.79,431.88,209.26,432.17Z"/><path class="cls-2" d="M207.44,431l-1,.57a.6.6,0,0,1-.32.05c-.14,0-.36-.09-.37-.17a.55.55,0,0,1,.14-.44,4.68,4.68,0,0,1,.71-.53C206.87,430.27,207.18,430.45,207.44,431Z"/><path class="cls-2" d="M211.59,432.45a3.55,3.55,0,0,1-1.42,1c-.18.09-.22-.07-.2-.22a1.19,1.19,0,0,1,.91-.88C211.11,432.28,211.38,432.14,211.59,432.45Z"/><path class="cls-2" d="M204.24,417.91c.44-.12.79-.24,1.15-.31s.34.13.37.35,0,.38-.29.39A1.33,1.33,0,0,1,204.24,417.91Z"/><path class="cls-2" d="M213.68,432.89a1.12,1.12,0,0,1,.57-1.09c.13,0,.28.05.42.07-.06.11-.08.25-.17.33C214.24,432.44,214,432.66,213.68,432.89Z"/></g><g id="jeans"><polyline class="cls-2" points="131.23 387.64 125.55 386.89 121.77 386 118.01 385.79 110.84 383.47 105.61 381.6 102.3 381.5 100.58 383.17 100.4 385.54 100.2 392.05 99.57 400.52"/><path class="cls-2" d="M99.57,400.52l-.74,12.66-.07,13.52.24,5.94.86,3.68v9.87l.37,12.86,1.2,7.15.21,7.82.75,5.45.53,7.52,2.25,10.65.92,9,.22,8.63.3,6.26-.24,6.26.62,8.86.72,5.29,1.94,6.95.89,6.05.79,11.67,2.15,14.31,1.8,7.16,1.32,4.81v4.62L114.85,599l-.21,1.95.21,2.23-.28,2.1.66,2.5,4.49-.6,4-.6,4,.05,3.08.35s2.23-.37,2.51-.84a17.59,17.59,0,0,0,.41-3.51s.93-2.63,1-2.88,0-3.13,0-3.13l-.73-3.94.42-7.64,1.08-7.51.28-7.8S135,559.89,135,559s-.2-7.49-.2-7.49L133,535.58l-.26-6.1s-.56-7.7-.62-7.93-.12-3.33-.12-3.33l-.59-5-.12-6.93,1.26-8.23s.06-17,.12-17.91-.25-5-.25-5-.19-7.05-.16-7.31,1.23-7,1.23-7l1.66-7,.84-7,1-1.81,1.25-3.92,1.16-3.06.49,4,.94,5.47,1.68,4.47s1.39,4.24,1.48,4.49l2.3,5.54,2.25,5,2.26,8.43s2.33,11.3,2.42,11.88,1.1,8,1.1,8l.51,10s0,3.25.08,3.51l.39,2.37,0,2.55-.4,8.88-1.26,6.89L152,535l-1.27,8-1.08,12s-.18,4.3-.21,4.55-.27,2.67-.27,2.67l.69,4.34.17,5.25-.4,9.72-.11,6.24-.77,6.2-.92,4.65-.38,4v2.54l.26,2.82,3.11.81,2.13,1.65,2.29.59,2,1s3.57.43,3.83.43l3.15-.06L167,612l2.76-1,.83.11-.08-3.34.08-3.1.59-3.12-.67-2s1.51-5.16,1.58-5.42,1.44-6.11,1.47-6.35,1-16,1-16l.78-11.83.71-9.18.68-9.88,1.48-6.43,1.23-4.2s.19-6.46.23-7.24.73-9.11.73-9.11L182,502.82l1-6.67.81-8.09-.55-6.42-.45-4.73-.6-14.47-1.49-16.73-1.54-6.41-2.87-13.81L174,414.72,172.83,406l-1.56-9-2.6-12.57L156,387l-26.06.61"/><path class="cls-3" d="M134.41,390.48a13.11,13.11,0,0,0,.28-1.91c0-.4.21-1.38.7-1.23a16.22,16.22,0,0,0,2.7,0,10.27,10.27,0,0,1,2.14-.2c.51,0,1.6-.25,2.06,0s.31,1.52.33,2.07c0,1-.19,2-.24,3,0,.44-.1.89-.12,1.33s.15,1.05,0,1.28c-.48.65-2.38-.32-3-.36a15.41,15.41,0,0,0-3,.38c-1.25.17-1.61-1.47-1.61-2.69"/><path class="cls-3" d="M133.56,387.28c-2.29.4-1.05,4.47-.78,6.12.2,1.22.11,2.29,1,3.14.19.19.61.49.86.45s.38-.29.58-.36a5.3,5.3,0,0,1,2.31,0c.81.08,1.64.08,2.45.12a4.41,4.41,0,0,0,2.73-.36c1.08-.74.69-2.51.8-3.77a39.93,39.93,0,0,0,.37-4.41c0-1.7-.74-2-2-2.36a8.1,8.1,0,0,0-2.2,0,23.7,23.7,0,0,0-3,.05,5.94,5.94,0,0,0-2.41.87c-.42.26-1.3.58-1.55,1"/><path class="cls-3" d="M133.52,390.87c.46.1,1.42-.08,1.77.21-.09.43-.1.83-.15,1.24-.49.08-1-.45-1.52-.21A3.84,3.84,0,0,1,133.52,390.87Z"/><path class="cls-3" d="M132.53,394.52a42.78,42.78,0,0,1-4.81-.45,16.46,16.46,0,0,1-2.88-.46,13.41,13.41,0,0,0-2.45-.89"/><path class="cls-3" d="M148.21,389.36a44.25,44.25,0,0,0-.67,5.61,12.07,12.07,0,0,0,.79,4.37,4.16,4.16,0,0,0,2.22-1.22c.75-1,.29-2.71.28-4,0-1.55-.11-3.15-.09-4.67"/><path class="cls-3" d="M122.86,389.58c-.38,1.67-.89,3.25-1.27,4.93-.28,1.28-.8,2.66-1,3.92a13.33,13.33,0,0,1-2.77-.33,11.49,11.49,0,0,1,.86-4.61c.54-1.34.72-2.87,1.29-4.13"/><path class="cls-3" d="M143.89,394.52c.78,0,1.56.23,2.3.17.41,0,.63-.34,1.08-.28"/><path class="cls-3" d="M151.21,393.73a29.23,29.23,0,0,0,3.52-1.06c1.11-.26,2.31-.19,3.42-.39a48.2,48.2,0,0,0,10.65-2.68l-.6.09"/><path class="cls-3" d="M168.67,384.42c.19-.09.43-.14.62-.22-1.24,1.28-3.5,1.39-5,1.87-4,1.23-8.41.71-12.49.7-2.31,0-5.56-1-7.77,0"/><path class="cls-3" d="M132.62,387.45c-2.68.67-5.63-.46-8.27-.88-1.35-.21-2.74-.09-4.1-.25a31.39,31.39,0,0,1-4.1-1.09,19.81,19.81,0,0,1-4.55-1.35,15.86,15.86,0,0,0-4.27-1.84c-1.6-.35-3.4-1.1-5-.54-.45.16-1.51.62-1.68,1.12-.68.14-.66,3.61-.6,4.36a23.66,23.66,0,0,1,.32,3.29c-.16,2.68-.56,5.26-.63,8,0,1.43-.19,2.84-.33,4.26-.19,2-.19,3.95-.42,5.9a102,102,0,0,0-.44,12.24c0,1.15.28,2.26.24,3.4s0,2.14,0,3.22.1,1.95.13,2.92a7.14,7.14,0,0,0,.25,2.92c1.49,3.82.4,8.37.56,12.56.12,3,.11,6,.36,9,.14,1.72,0,3.52.25,5.2.22,1.48.67,2.9.89,4.36s.3,3.13.38,4.67a18.89,18.89,0,0,1,.08,4.18.13.13,0,0,0,.17.07"/><path class="cls-3" d="M101.65,473.26c-.07,1.47.62,3,.69,4.49,0,.9.06,1.81.06,2.72,0,1.27,0,2.51.13,3.77a50.32,50.32,0,0,0,1.29,6.84c.61,2.73,1.14,5.45,1.66,8.2a35.68,35.68,0,0,1,.62,4.39,33.36,33.36,0,0,0,.1,4.13,17,17,0,0,1,.27,3.84c0,.79-.42,2.07-.07,2.77a7.68,7.68,0,0,0,0,2.53,25.49,25.49,0,0,1,.21,4.1c-.07,1.38-.29,2.74-.3,4.11,0,2,.07,4.06.13,6.09a21.77,21.77,0,0,0,.31,2.68c.24,1.66.17,3.35.37,5a54.91,54.91,0,0,0,1.76,7.5c.59,2.17,1.5,4.44,1.63,6.73"/><path class="cls-3" d="M110.35,553c0,2.17.15,4.3.36,6.44.23,2.39.22,4.81.62,7.18.43,2.55.65,5.13,1.08,7.7.22,1.32.3,2.66.55,4s.52,2.59.74,3.9c.41,2.47,1,5.36,2.4,7.32a6.32,6.32,0,0,0,.27,2.46,16.6,16.6,0,0,1,.11,2.35c0,1.25.12,2.41.12,3.65"/><path class="cls-3" d="M134.31,597.45a13.27,13.27,0,0,0-.26-2.25,14.66,14.66,0,0,1-.11-2.57c.09-2.15.24-4.31.34-6.47a78.68,78.68,0,0,1,1.16-8.68,40.83,40.83,0,0,0,.07-8.91c-.22-3.08-.47-6.18-.57-9.27"/><path class="cls-3" d="M114.23,599.4a5.14,5.14,0,0,1,3.57-1.12c1-.07,2-.3,3-.47a40.83,40.83,0,0,1,8.84,0c.91,0,1.81.07,2.72.07.53,0,1.53-.34,2-.07.81.42.06,2.66-.29,3.4a2.76,2.76,0,0,0-.46,1.35c0,.56,0,1.12,0,1.68,0,.75.07,1.31-.41,1.83-.8.88-2.52.89-3.54.83-2.68-.16-5.66-.77-8.27-.09-2.06.53-4.2.3-6.24.9a9.76,9.76,0,0,1-.75-3.69c0-.75.38-1,.5-1.72s-.48-1.41-.55-2.16.35-1.88,1-1.58"/><path class="cls-3" d="M114.85,601.87c3.19-1,6.47-1.83,9.79-1.43,1.73.21,3.44.57,5.17.76a12.24,12.24,0,0,1,3.5.52"/><path class="cls-3" d="M135,559.37a78.29,78.29,0,0,0-.36-8.53c-.12-1.11,0-2.22-.15-3.32-.13-1.4-.34-2.76-.49-4.16-.34-3.11-.92-6.16-1.22-9.28-.14-1.53-.08-3.06-.09-4.6,0-.94-.23-1.84-.28-2.8-.09-1.5,0-3.07-.22-4.53-.15-1-.65-2.17-.38-3.18.59-2.21-.48-4.56-.55-6.88a52.75,52.75,0,0,1,.52-8.61,72,72,0,0,0,1-9.5c0-2.75,0-5.5,0-8.24,0-1.1-.11-2.18-.13-3.28,0-.7-.31-2.81.07-3.21,0-3.2-.87-6.31-.66-9.51a46.57,46.57,0,0,1,.89-6.14c.31-1.46.58-3,.77-4.45.15-1.2.59-2.26.77-3.44.26-1.83.36-3.54.78-5.35.25-1.08.52-4.65,1.58-4.78a12.33,12.33,0,0,1,1-3.89,18.75,18.75,0,0,0,1.37-2.77c.05.79.39,1.58.51,2.38s.23,1.8.36,2.68c.24,1.58.6,3.14.94,4.67a15.66,15.66,0,0,0,1.77,4,24.79,24.79,0,0,1,.8,2.85,19.39,19.39,0,0,0,.7,1.86c.68,1.52,1.15,3.15,1.93,4.64.29.55.72.87,1,1.42a10.58,10.58,0,0,1,1,2.64c.48,1.73,1,3.34,1.4,5.08.45,2,1.07,3.91,1.55,5.9,1,4.35,1.78,8.78,2.47,13.24a117.26,117.26,0,0,1,1.16,17.88c0,1,.4,2,.44,3,.05,1.31,0,2.64,0,4a51.23,51.23,0,0,1-.57,8.77c-.24,1.41-.47,2.81-.75,4.21-.37,1.91-1,3.64-1.53,5.49a48.63,48.63,0,0,0-1.19,6.39c-.45,2.77-.78,5.64-1,8.46-.18,2.23-.53,4.4-.52,6.65,0,.61,0,1.28-.07,1.84a22.1,22.1,0,0,1-.25,3.37c-.67,2.89.84,6,.82,9.06,0,2.12-.28,4.26-.42,6.37s0,4.45-.12,6.67c-.06,1.62.08,3.28,0,4.9-.1,1.36-.36,2.66-.55,4a48.11,48.11,0,0,0-.38,6.25"/><path class="cls-3" d="M170.55,600.9c.25-.85.61-1.7.82-2.56.29-1.12.26-2.29.55-3.42a52.19,52.19,0,0,0,1.81-8.17c.39-4,.79-8.22.82-12.28a114.53,114.53,0,0,1,.54-12,117.37,117.37,0,0,0,.91-12.84.84.84,0,0,1,.05.48"/><path class="cls-3" d="M171.17,602a23.92,23.92,0,0,1-4.45,1,39.1,39.1,0,0,1-5-.19c-1.83-.17-3.71-.26-5.55-.26s-3.5-.89-5.09-1.57a3.9,3.9,0,0,1-1.93-1.65,4.76,4.76,0,0,0-1-1.44c-.64.79-.69,2.83-.69,3.91,0,1.48-.14,3,0,4.49a5.66,5.66,0,0,0,.21,1.77,10.54,10.54,0,0,0,2.38.48c1.41.37,2.19,2,3.71,2.3a8.66,8.66,0,0,1,1.84.4c.57.24,1,.74,1.59.91a18.32,18.32,0,0,0,5.22.43A13.2,13.2,0,0,0,167,612a17.47,17.47,0,0,1,1.66-.67c.54-.15,1.45.22,1.93-.21s.16-1.13.09-1.74a14.89,14.89,0,0,1-.16-3.59C170.69,604.56,171.41,603,171.17,602Z"/><path class="cls-3" d="M169.8,605.46c-1.05.09-2.08.47-3.13.52s-2.13-.21-3.19-.15-2,.57-3,.71c-1.32.19-2.37-.47-3.64-.79a11,11,0,0,1-2.9-.78,11.84,11.84,0,0,0-3-1.29c-.61-.15-1.19-.34-1.82-.48-.42-.09-1-.07-1.3-.51"/><path class="cls-3" d="M176.05,549.35c-.36-1.11.12-3,.26-4.13.21-1.7.27-3.4.56-5.09.61-3.54,1.88-6.87,2.48-10.42a51.12,51.12,0,0,0,.34-6.67c.06-2.19.36-4.33.51-6.51.23-3.45.75-6.95,1.28-10.35.21-1.36.45-2.7.66-4.06.09-.59,0-3,.86-2.67"/><path class="cls-3" d="M182.87,499.15c.45-5,1.35-10.22.72-15.25a55.57,55.57,0,0,1-.78-6.46c0-1.73,0-3.46-.06-5.19s-.17-3.32-.33-5,0-3.24-.21-4.84c-.32-3.29-.6-6.59-.93-9.89-.28-2.8-.8-5.54-1-8.32"/><path class="cls-3" d="M179.93,443.93a37,37,0,0,0-1.9-8.68,39.14,39.14,0,0,1-1.61-8.63c-.29-4.07-1.8-7.91-2.42-11.9-.19-1.23-.19-2.45-.32-3.68-.19-1.71-.57-3.38-.85-5.07-.35-2.12-.73-4.21-1.14-6.32-.34-1.7-1.24-3.38-1.46-5.09"/><path class="cls-3" d="M169.86,394.18a25.87,25.87,0,0,1-.82-9.87"/><path class="cls-3" d="M152.21,394.33a9.49,9.49,0,0,0,1.38,3.35c.74,1.13,1.57,2.62,2.68,3.21a9.9,9.9,0,0,0,4.08,1,48.66,48.66,0,0,0,6.38.48c1.12-.05,2.26,0,3.38,0,.71,0,1.36-.19,1.81.45"/><path class="cls-3" d="M172.36,405c-2.94-.9-6.22-.44-9.22-.44a21.33,21.33,0,0,1-5.73-.66,9,9,0,0,1-4.07-2.56,12.32,12.32,0,0,1-2-4"/><path class="cls-3" d="M117.54,393.28c0,1.92-1.38,3.79-2.14,5.34a13.15,13.15,0,0,1-3.55,4.24c-1.1,1-2.18,1-3.38,1.7a6.21,6.21,0,0,1-4.3.57,30.68,30.68,0,0,0-3.2-.25,13.67,13.67,0,0,0-1.89-.3"/><path class="cls-3" d="M98.83,407.8a35.27,35.27,0,0,0,3.63.47,6.51,6.51,0,0,0,3.07-.19c2-.67,4.14-1.07,6.11-1.89,1.72-.7,3.07-2.39,4.25-4a16.21,16.21,0,0,0,1.48-2.57c.27-.53.5-1.65,1-1.81"/><path class="cls-3" d="M110,403.46a32.6,32.6,0,0,0,2.35-6.21A12.06,12.06,0,0,0,113,394c0-.79-.24-1.54-.2-2.32a12.4,12.4,0,0,1-2.88.14c-1.59-.22-3.22-.1-4.82-.28a34.83,34.83,0,0,0-4.49-.69"/><path class="cls-3" d="M118.8,392.91a11.06,11.06,0,0,1-3.33-.45c-1.14-.34-2.39-1.25-3.56-1.27"/><path class="cls-3" d="M111.66,391.26c-.88-.78-2.53-.52-3.58-1a15.35,15.35,0,0,0-3.33-1.36,10.73,10.73,0,0,1-2.72-.43c-.21-.1-.32-.34-.54-.44s-.75,0-1.09-.1"/><path class="cls-3" d="M119.8,389.47a13.64,13.64,0,0,1,.94-3.28c.55-.41,1.07-.17,1.68,0s1.31.06,1.32.92c0,.55-.45,1.16-.61,1.69a5.6,5.6,0,0,0-.27,1.66"/><path class="cls-3" d="M148.11,389.36a12.29,12.29,0,0,1,0-3.48,1.83,1.83,0,0,1,.66,0c.36.11.63.47,1,.58a.88.88,0,0,0,.58,0,18.54,18.54,0,0,1,.35,2.37,11.67,11.67,0,0,0,.06,1.69"/><path class="cls-3" d="M155.78,398.52c3.44-.23,9.73-2.74,12.89.15"/><path class="cls-3" d="M140.88,397.32c.08.92-.19,1.92-.18,2.87a13.69,13.69,0,0,0,.57,2.89,43.36,43.36,0,0,1,.61,6.56,31.23,31.23,0,0,0,.27,4.44c.2,1.14.27,2.25.36,3.4a24.49,24.49,0,0,1-.43,8,7.18,7.18,0,0,1-1.89,3.74c-.77.66-2.33,1.72-3,.68"/><path class="cls-3" d="M137.38,432c1.68.2,3.16-1.26,4.2-2.68a6.4,6.4,0,0,0,1.07-3.29c.15-1,.5-2,.68-3a41,41,0,0,0,.24-9.66c-.09-1.39-.4-2.76-.5-4.15-.08-1.2-.09-2.42-.23-3.61-.19-1.65-.5-3.3-.7-4.94a15.77,15.77,0,0,1-.23-3.49,1.43,1.43,0,0,0-.65.3"/><path class="cls-3" d="M134.13,397.25a169.38,169.38,0,0,1,.49,17,58.55,58.55,0,0,0,.32,8.89,27.89,27.89,0,0,0,.76,4.84,47.63,47.63,0,0,1,1.15,4.75c.24,1.26.68,2.44,1,3.66.24.89.61,2.12,1.46,2.36"/><path class="cls-3" d="M149.9,416.63c1.21-1.76,3.35-1.8,5.09-2.24s3.75-.6,5.66-.92c3.51-.59,6.65-3,10.15-3.88"/><path class="cls-3" d="M147.27,411.54c3.86-1.17,8-.19,11.89-1.35a23.83,23.83,0,0,0,5.5-2.54"/><path class="cls-3" d="M146.52,406c1.87.2,4-.42,5.86-.52a17.7,17.7,0,0,0,3.4-.53"/><path class="cls-3" d="M105,433.23c3.37,1.74,8.7.69,12.25,0,2.56-.49,5.54.36,8-.59"/><path class="cls-3" d="M104.84,446.1a49.47,49.47,0,0,0,17.5-.15c1.19-.2,6.12-.21,6.4-1.34"/><path class="cls-3" d="M107.22,416.18c4.67,0,9,1.13,13.58,2.32,1.28.34,3.77.69,4.07,2.61"/><path class="cls-3" d="M117.36,404.51c1.8-.31,4.25,1.12,5.8,1.81a5.33,5.33,0,0,1,2.86,2.35c.77,1.13,2.63,3,2.47,4.51"/><path class="cls-3" d="M172.42,507.75c-1.39,5.5-2.86,11.59-5.24,16.61-2,4.19-5.25,6.92-7.15,11"/><path class="cls-3" d="M111,522.56c2-2.51,4.51-5,7.5-4.93"/><path class="cls-3" d="M117,539a48.62,48.62,0,0,0,7.73-3.18,11.19,11.19,0,0,0,4.48-3.55"/><path class="cls-3" d="M117,476.55a42.17,42.17,0,0,1,2.63,7.18"/><path class="cls-3" d="M111.6,480.82c-.19,3,1.39,5.42,1.5,8.3"/></g><g id="shirt"><path class="cls-4" d="M114.18,394.31l2,1,2.26.7,2.46,2.86,2,2.47,3.22,2,3.67,1.26,1.65.6,1.39-4.28.45-5.63v-4.61l1.24-3.15,1.45-1.95s.76-2.42,1.14-1,1.11,4.84.92,5.23a28.8,28.8,0,0,0,0,4.09l.82,4.79,1.8,2.69,3,.55s2.26-.83,2.6-1,3.06-2.19,3.06-2.19l3.85-3.39,2.68-4.32,1.66-2.21S160,378.74,160,378.35s-6.13-22.72-7.15-25.15-12.13-10.59-12.13-10.59l-19.8,1.66s-6.24,23.49-6.75,24.76S114.18,394.31,114.18,394.31Z"/><path class="cls-3" d="M133.33,346.82c0,6.26,1.84,12.4,1.55,18.6-.31,6.51,1.25,11.78,2.29,18a52.79,52.79,0,0,1,.76,8.68c0,3.89,1,10.94,5.81,9.82,5.67-1.31,11.12-9,13.85-13.52"/><path class="cls-3" d="M114.18,394.31c.86,1,2.16.71,3.22,1.15,1.73.72,2.53,1.91,3.54,3.45,3,4.68,5.74,4.46,10.55,6.35,3.79-6.54-1.34-15.19,5.67-20.65"/><path class="cls-3" d="M137.84,359c-1.05,0-1.47,2.08-.39,1.8.65-.18.92-1.37.2-1.56a.56.56,0,0,0-.06.44"/><path class="cls-3" d="M138.18,364.86c-.81.09-1.56,2.41,0,2.05.66-.15,1.13-1.5.34-1.62"/></g><g id="vest"><path class="cls-2" d="M113.66,230l-11.37,5.93-5.21,7-4.28,3.37L91,249l-.56,6.41,1.07,12.35,0,8.67,1,6.07.73,6.09.56,4.44.11,3.78,1.71,5.46,1.52,4.56,1.14,2.78.18,2.39-.08,5.22-.4,6.2-1.17,7-1.48,9.34-.46,9-.31,11,.32,2.4,1.58,1.28,3.66.69,6.68.41,5.31,1.22,4.39,1.09,4.25,1.83,2.79,1.42,1.13-.71.45-2.63,2.33-5.42,1.71-3.05,1.31-3.24.41-1,1.9,3,1.44,3,2.17,3.23.73,2.84,1,3.65,1.7-.37,2.69-1.23,4.17-2.05,4.54-.84,7.72-2.15,6.28-2.08,6.12-1.32,3-.38s1.95.94,1.93.91.82-1,.82-1L176,354l.5-6.05.18-6.89L176,329.93l.07-11,1.32-6.3.49-2.13-.3-2.8.3-2.3,1.77-1.88v-3.79l-2.41-7.56-.87-8-1.43-4.87-.39-4.3-.12-6.82-2-9.21-.12-8.6.84-8.44,1.6-3.49s3.06-1.79,3.3-2l1.15-.82-3.4-2.35-6.61-1.89-4.74-.71-5.15-1-4.52-3.14-1-.94-.64,4.59-2.55,8.44-2.75,9.28-3.69,7.62-2.74,5-2.85,6.65-3,5.36-2.82,3.26-2.37-.38L129,272.29,127.15,266,124,261.41l-3.18-5.9-3.64-8.31-2.46-7.15-1-4.57.59-3.47.19-2.23-.78.22h0"/><g id="vest-2" data-name="vest"><path class="cls-3" d="M114.42,229.3c.5.46-5.92,3.06-7.12,3.73-1.85,1-3.77,2.16-5.6,3.25s-1.53,4.57-3.36,6A65.38,65.38,0,0,0,93,247.44c-2.26,2.41-2.85,5.15-2.53,8.5.44,4.6,1.12,9.08,1.12,14a72.87,72.87,0,0,0,0,7.68c.27,2.53,1.15,4.71,1.18,7.39s1.13,5.53,1,8a14.55,14.55,0,0,0,1,7c1.13,2.79,1.44,5,2.7,7.68,1.59,3.35.7,3.25.84,8.21.16,5.59-.84,11.1-2,16.61-1.72,8.3-1.37,15.81-1.86,28-.2,5.12,8.88,2.89,13.83,4.32,3.19.92,6.72,1.33,9.8,2.56,2,.81,4.66,2.58,6.22,2.68"/><path class="cls-3" d="M114.42,229.3c.29,2.95-1.53,6.13-.38,9,.94,2.31,1.6,5,2.51,7.39A127.31,127.31,0,0,0,123.07,260c1.3,2.4,3.32,4,4.34,6.59.69,1.77,1.76,8.19,3.23,9.24,2.94,2.12,8.24-9.12,9.09-11.54,1.55-4.42,4.06-8.07,6.23-12.19s3.15-9,4.54-13.48c1.21-3.92,3.16-9,3.19-13,1.73,1.45,2.94,3.13,5,3.91a38.33,38.33,0,0,0,7.29,1.38c3.54.47,10.66,1.66,13.13,4.73-4.73,3.39-6.38,4.22-6.6,10.21-.15,4.24-.86,8.43-.25,12.55.62,4.29,2.33,8.19,2.32,12.57,0,2.1-.17,4.27-.06,6.35s1.11,3.42,1.54,5.45c.79,3.67.66,7.69,1.47,11.41s3,6.47,1.56,10.4c-.43,1.16-1.34,1.8-1.57,3.12-.19,1,.47,2.35.27,3.28-.43,1.93-1.41,4.15-1.62,6.23a68.76,68.76,0,0,0-.11,14.73c.27,4.26.59,8.33.59,12.63,0,4.55-2,11.27.59,15.2"/><path class="cls-3" d="M176.4,360.91c-.21-4.29-14.7,1.36-17,2.06-7.25,2.21-14.67,3.55-21.39,7.36.31-1.23-.54-2.87-.89-4.21-.5-1.95-.23-2.47-1.52-4-1.57-1.8-2.28-4.44-3.53-6.43-1.46-2.31-3.3-4.25-4.59-6.62-1.53-2.79-.3-4.58-.15-7.71.17-3.34-.84-6.06-1.18-9.16s-1.16-7.49-.59-10.34a37.17,37.17,0,0,0,.52-9.86c-.16-3.19.35-6.22.07-9.49-.31-3.66.78-12.15,1-14.26.25-2.84-.61-3.45,1.7-7.17"/><path class="cls-3" d="M128.75,281.24a46.09,46.09,0,0,1,3-5.43"/><path class="cls-5" d="M147.73,270.78c-1,.66-.6,2.66-.56,4.09,4.42.44,9.91-1.51,14.44-1.73,2-.1,5.7.68,7.4-.29s1.23-2.24,1.14-4.39c-3.75-.14-8.47,1.29-12.35,1.72A51.27,51.27,0,0,1,147.73,270.78Z"/><path class="cls-5" d="M96.61,273.74c-.36-.13-.7,1.52-.54,2.91,6.34,1.14,13.4,3.37,20,3.27.11-2.17.45-3.59-1.14-4.7-1.25-.87-3.85-.8-5.3-1C105.61,273.84,98.49,273.46,96.61,273.74Z"/><path class="cls-5" d="M144.78,333.72c.38,1.94-.14,4.94,1.9,5.89,1.71.79,4.58-1.42,6-1.79,1.56-.4,3.23-.25,4.82-.54,4.14-.78,13.48-1.39,12.66-6.76-4.43-.48-8.88,1.37-13.25,1.73-2.4.2-4.84.17-7.12,1.17C148.31,334.07,147.26,335.35,144.78,333.72Z"/><path class="cls-5" d="M98.39,331.65a36.22,36.22,0,0,0-.85,3.77c1.66.77,3.78.74,5.56,1.55s3.9,2.13,6,2.63c4.59,1.13,12.55,2.8,8.78-4.67C112.55,336.56,103.65,334,98.39,331.65Z"/><path class="cls-5" d="M132.37,284.67c-2.33.1-5.38,2.83-2,3.78,3.53,1,3.78-3.56.5-4.34-.36.4-.23.66-.27,1.15"/><path class="cls-5" d="M132.37,298.85c-2.63-.38-4.16,2-1.93,3.58,2.75,2,5-.79,4.54-3.52-1.95-.8-4.43-1.64-5.57.54"/><path class="cls-5" d="M131.78,312.74c-3.41-.31-4.29,4.09-.75,4.43,6.21.61,1.94-7.35-.73-3.54"/><path class="cls-5" d="M131.78,328.7a1.57,1.57,0,0,0-.05-.86c-3-1.71-4.06,3.65-.55,3.52,4.31-.15,1.11-4.71-2.31-4.69a4.45,4.45,0,0,1-.34,1.44"/><path class="cls-5" d="M131.19,342.29c-3.66-.67-2.73,5.09.73,4.15s1.46-4.14-1.62-3.85"/><path class="cls-3" d="M124.68,369.77c.12-4.66,2.77-8.23,5.51-13.37.08-1.29.59-2.17.7-1.85"/></g></g><g id="jacket-lleft"><path class="cls-2" d="M165.06,223.17l.31,1.85v2.17l-.31,1.95.06,1.63.71,2.68.74,5,.5,4.87.35,4-1.18,6.32-.8,5.87-.64,8.2-1.91,9.46-.92,4.91-1.24,6.72-1.06,5.79,0,3.24-.93,2.47V317l-.83,6.4.55,3.46-.55,3.42-.51,7.75.74,4.28L156.92,351l-1.41,10.78-1.2,5.95-.48,5.11.23,6.41.52,5.33.65,3.35.48,3.29.59,5,.37,5.22.42,6.3,1.65,7.59,1.08,4.41-.1,3.45.9,4.69.63,5.65,2,11.46,2.09,10.46,1.75,13.35L169,484l.36,7.05.13,9.78.18,3.24,1.46,2.3-.41,2,0,3.48.4,2.67.7,1.91a9.57,9.57,0,0,0,1,.24c.1,0,2.15-.69,2.15-.69l2.58-1.58,5.34-3.66,16.2-6.33,6.44-1.06,3.94-2s.25-2.49.32-2.59-.69-7.24-.69-7.24l.29-6L208.21,480l-1.31-12.51-1.44-16.37-.86-2.33-.35-8.78-1.5-6.83.1-3.12-.74-3.42-.06-10.7-1.6-9.28-1.7-6.35-1.43-9.49-1.41-4.45-.39-5.95L192.9,366.1l-.58-5.32s-1.22-4.49-1.22-4.59.05-4.26.05-4.26l-.27-7.29-1-8.3.94-4.65,1.81-7.1s1.86-3.83,1.93-3.91.78-1.24.78-1.24l.89,1.83.17,1.94.59,1.64-.35,2.87,0,7.16.7,4.4L197,353.5l.73,6.6,1,6.43.21,6.89,1,7.31,1.44,8,.88,3.39v3.16l.38,6.09.6,4.41.36,6.94a25.16,25.16,0,0,0,.34,3.09c.13,0,4.89,1.4,4.89,1.4l3.31.41,5.74-.52s2.09-.46,2.27-.57,1.66-.91,1.66-.91.36-6.33.36-6.43-.51-8.55-.51-8.55-.15-4.79-.23-5.23a11.07,11.07,0,0,1,.85-2.46c.07-.22.42-3.29.42-3.48s-.4-4.38-.44-4.58-.57-2.15-.57-2.15l-.35-2.86a18.79,18.79,0,0,0,.35-2.57c-.1-.15-.38-2.52-.38-2.52l.57-2.89-.25-3.46-.38-7.72-.65-5.53L219.9,343s-.31-6.06-.33-6.16-.32-5.46-.32-5.46l.22-3.35-.79-3.61.57-10-.3-5.53,0-8.23-.72-4.82v-5.43l-.43-6.12-1.5-6.07-.73-4.59-.58-3.61-2.23-3.58-2-2.39-4.68-4.3L201.7,257l-1.37-1.95-6.13-2.23-4.79-3.26-3.7-2.2-3.19-4-2.3-4.05-3.32-4.75-4.92-5-2.29-2.79-2.64-2.65Z"/><g id="jacket-left"><path class="cls-3" d="M165.05,230.49c.23.74,1.52,8,1.69,8.88.1.53.47,6.54.69,7.41s-1.7,9.67-1.87,10.67,0,1.92-.25,2.84c-.61,2.18-.31,4.13-.51,6.36-.12,1.31-.54,2.48-.6,3.82a18.38,18.38,0,0,1-.85,3.68,35.42,35.42,0,0,0-.58,4.24c-.1,1-.36,3.17-1,4.06a12.22,12.22,0,0,1-.09,2.28,10.77,10.77,0,0,0-.41,1.78c-.1,1.56-.84,2.86-1.08,4.39a17.64,17.64,0,0,0-.42,5.4c.31,2.07-1.06,3.48-.87,5.6.08.89-.11,11.61-.17,12.75s-.05,2.37-.08,3.57c-.07,2.25-1.12,4.74-.51,7a4.75,4.75,0,0,1,.36,2c-.07.64-.32,1.22-.34,1.86-.07,1.66.05,3.34-.17,5a15.26,15.26,0,0,0-.25,4.91,16.68,16.68,0,0,1,0,5.37.23.23,0,0,0,.25,0"/><path class="cls-3" d="M157.73,344.18c0,.1-1.58,13.4-1.82,14.63s-.27,2.65-.6,3.95a8.06,8.06,0,0,0-.34,2c0,.44-.49,2.28-.62,2.78-.34,1.22-.37,5.64-.48,6.42a25,25,0,0,0,.09,3.24,34.43,34.43,0,0,0,.46,3.69c.09,1-.11,2.06,0,3a26,26,0,0,1,.68,3.2,6.73,6.73,0,0,0,.44,3.68"/><path class="cls-3" d="M155.42,390.43c1.06,2.24.73,5.41,1,7.9.09.77.68,9,.69,9.89,0,1,2.33,9.64,2.71,11.51s-.55,3.63.18,5.52a17.44,17.44,0,0,1,.91,6c.09,1.72,1.62,8.15,1.78,9.74s1,7.47,1.25,8.64c.12.54,1.83,7.57,1.87,8.48a44.09,44.09,0,0,0,.64,6.7c.4,1.36,1,7.89,1.14,8.64.29,1.58,1.08,6.67,1.28,7.7A11.56,11.56,0,0,1,169,484a19.11,19.11,0,0,0,.27,3.69c.16,1.16.07,7.44.07,9.6,0,1,.17,2,.17,3,0,.78-.27,2.71.33,3.28"/><path class="cls-3" d="M169.44,503.31a10.94,10.94,0,0,1,1.53,3c.23.91-.35,1.68-.26,2.61.11,1.15-.42,1.71.08,2.81a8.39,8.39,0,0,1,.43,3.09c.39,4.15,5.86-.31,7.53-1.32,1.23-.75,2.28-1.86,3.52-2.56a18.57,18.57,0,0,1,3.29-1.24c1.39-.47,2.62-1.28,4-1.75a24.54,24.54,0,0,0,4.88-1.8c-.09-.29,1.77-.59,2.24-.76.74-.26,1.33-.75,2.05-1,1.25-.41,2.64-.2,3.92-.43a9.24,9.24,0,0,0,2.93-.75,18.85,18.85,0,0,1,2.29-1.27c.78-.26,1.63-.28,1.86-1.2a6.77,6.77,0,0,0,0-2.06c-.2-1.68-.17-3.29-.25-5a16.07,16.07,0,0,1-.34-3,19.48,19.48,0,0,0,.34-2.8,10.82,10.82,0,0,0-.34-3"/><path class="cls-3" d="M209.15,485.14A2.47,2.47,0,0,1,209,484a5.17,5.17,0,0,0-.44-1.79c-.43-1.17-.14-2.43-.45-3.61-.18-.66-.8-8.79-.8-8.79a10.17,10.17,0,0,1-.67-2.63c0-.65,0-1.31,0-1.95,0-.88-.62-9.59-.8-10.41a19.91,19.91,0,0,1-.3-2.46,8.16,8.16,0,0,0-.74-2.15c-.39-1.21-.19-8.08-.29-9s-1.51-5.75-1.51-5.75a7.53,7.53,0,0,1-.25-2,15,15,0,0,0,.26-2.22,16.48,16.48,0,0,0-.34-2.2,8.58,8.58,0,0,1-.58-2c-.07-1.54.15-3,.15-4.58s-.25-3.17-.25-4.81c0-1.79-1.55-8.9-1.44-10,0-.39-1.56-5.13-1.6-6.17,0-.74-.32-3.37-.42-4.06-.13-.94-.9-4-.93-4.64a14.14,14.14,0,0,0-1.42-5.29c-.55-1.22-.46-6.12-.53-6.62l-.59-2.28c0-1.45-.61-2.54-.75-3.92s-.81-2.73-.68-4c0,0-.74-4.93-.89-5.41s-.06-3-.26-3.88c-.23-1-.8-1.8-1-2.85a12.86,12.86,0,0,1-.12-3.08c.26-.92-.47-4.5-.47-5.78,0-.91-.05-1.83,0-2.73a34.76,34.76,0,0,0-.67-4.79,11.93,11.93,0,0,1-.26-2.45,40.77,40.77,0,0,1,0-4.69c.13-.71.87-3.26,1-3.9.38-1.63,1.86-7.91,2.62-9.18s2-1.74,1.77-3.31"/><path class="cls-3" d="M203.49,436.56l-.17-.25"/><path class="cls-3" d="M195.21,318.87c-.12.61.91,1.66,1,2.44a9.73,9.73,0,0,0,.17,1.9A5.15,5.15,0,0,1,197,325c0,1.25-.49,2.32-.36,3.61s0,4.84-.09,5.49c0,.9.6,4.15.6,5.3s-.33,2.54-.32,3.82.17,5,.17,6.05c0,.85-.14,1.75-.09,2.58.12,2.19.77,7.78.85,8.27a21.6,21.6,0,0,0,.59,2.37c.23.62.15,4.4.42,5.56a19.35,19.35,0,0,1,0,3.88c0,1.26.51,2.39.51,3.68,0,2.67,1,5.3,1.1,8,.07,1.44.64,2.71.83,4.12.22,1.65,1.09,2.94,1.11,4.65V392"/><path class="cls-3" d="M202.48,392.8c-.17-.09-.29,0-.43-.14a14.64,14.64,0,0,0,.39,3.32c.42,1.42,0,3.09.15,4.59a49.14,49.14,0,0,1,.56,5.29c0,1.36.4,1.65.34,2.93a13.8,13.8,0,0,0,0,2.65,35.57,35.57,0,0,1,.34,4.37c1.57.07,4.37,1.28,5.9,1.66a12.75,12.75,0,0,0,3.9,0,23.47,23.47,0,0,0,3.35-.22c.91-.18,2.48-.16,3.22-.7s1.52-.27,1.71-1a22.15,22.15,0,0,0,.08-5.86c-.23-1.61-.38-6.44-.39-7.38,0-1.11-.21-3.73-.28-4.49s.06-1.4,0-2.09c-.08-.86.56-1.33.85-2.21a7.92,7.92,0,0,0,.6-2.87c0-.84,0-1.57,0-2.43a19.43,19.43,0,0,0-.67-4.07,4.54,4.54,0,0,1-.23-1.21,8.65,8.65,0,0,1-.53-2.51"/><path class="cls-3" d="M221.32,380.47c0-.57.26-1.4.34-2a10.62,10.62,0,0,0-.18-2.47c-.14-1.45.63-2.6.45-4.06s-.53-8.1-.44-9c.16-1.79-.73-3.56-.76-5.35,0-2.11-.18-4.22-.36-6.31s-.4-4.11-.4-6.26a10,10,0,0,0-.32-3.18c-.27-.86.25-4.38-.21-5.52a19.16,19.16,0,0,1-.48-4.87c.09-.92.2-1.86.26-2.81"/><path class="cls-3" d="M219.22,328.67c.16-1-.65-2.69-.54-3.26.34-1.66.48-6.53.56-7.68s-.43-6.63-.29-8.07,0-3.62,0-5.11a35.29,35.29,0,0,0-.63-6.77c-.29-.72,0-5.41-.13-7.18-.05-1.18-.42-4.29-.42-5.4a9.06,9.06,0,0,0-.33-2.75,75.63,75.63,0,0,1-1.69-7.84c-.19-1.79-.13-3.32-1.15-4.79-.58-.83-1.95-3.63-2.58-4.52-.26-.38-1.14-.82-1.33-1.25a9.4,9.4,0,0,0-1.79-2c-.37-.3-.78-.53-1.14-.84a21.49,21.49,0,0,0-4.2-2.88,10.48,10.48,0,0,1-2.3-1.94c-.22-.23-.22-.44-.5-.71a6.19,6.19,0,0,0-2.18-1c-1.28-.55-2.75-1.08-4-1.71-1.08-.55-8.75-5.88-9.87-6.42"/><path class="cls-3" d="M165.05,230.58a6.08,6.08,0,0,1,0-1.65,9.78,9.78,0,0,0,.26-1.79c0-.65.09-1.25.09-1.91S165,224,165,223.34a8.74,8.74,0,0,1,1.81.6c.6.4.84,1.18,1.26,1.72.77,1,1.8,1.4,2.47,2.47a30,30,0,0,0,3,2.83,38.53,38.53,0,0,1,3.88,4.4c.43.6,2.2,3.48,2.73,4.44a6,6,0,0,0,1.37,1.81c.83.75,1.78,3,2.16,3.54a16.05,16.05,0,0,0,1.31,1.82,15.43,15.43,0,0,1,2,2c.38.55.63,1.13,1,1.69a10.14,10.14,0,0,1,1.33,2.09,8.18,8.18,0,0,0,1.33,2c1.23,1.67,2,3.67,3.21,5.3.6.81,1.46,1.41,2,2.21.36.51,1.71,1.9,1.7,2.44,0,1.73-3.16,1.39-4.17.89-1.37-.67-2.33-2-3.61-2.85-2.86-1.8-5.62-3.75-8.35-5.81-.94-.71-1.61-1.76-2.55-2.43-1.29-.92-2.78-1.42-4-2.49-.86-.74-1.78-1.51-3.08-1.25-.83.17-.61.59-1,1.31s-.9.92-.38,1.82,2,1.83,3,2.52c1.5,1.12,2.42,2.61,4.24,3.29s2.83,1.79,4.38,2.83c1.35.92,2.42,2.11,3.73,3.07,1.51,1.11,3.35,1.82,4.79,3.07a18,18,0,0,0,4.85,3.09c.66.26,1.69.25,2.27.72s.47,1.12.47,1.85a6.42,6.42,0,0,1-1.94,4.53,9.45,9.45,0,0,0-1.71,2.63c-.53,1.18-1.24,2.23-1.78,3.4-.36.8-.8,1.54-1.2,2.32-.55,1.07-.69,2.59-1.73,3.35-.38.27-.36,1-.55,1.41a6.68,6.68,0,0,1-1.06,1.45,11.67,11.67,0,0,1-1.3,1.86,6.21,6.21,0,0,0-1.49,1.62c-.65,1.07-1.5,2.14-2.24,3.12-.57.76-.8,1.49-1.33,2.28a25.67,25.67,0,0,1-2.77,3c-.78.85-1.5,1.71-2.32,2.54s-.74,1.37-.8,2.49a9.29,9.29,0,0,1-.65,2.31c-.27.83-.62,1.61-.87,2.46-.52,1.83-1.84,3.14-2.95,4.69-1,1.37-1.43,3-2.39,4.33s-1.24,3.59-2,5.26c-.42.91-1,1.75-1.45,2.7a16.22,16.22,0,0,0-1.11,2,3.18,3.18,0,0,1,.28-.43"/><path class="cls-3" d="M164.63,334.42a6.15,6.15,0,0,0-.7,2c-.34,1.07-1,2.09-1.42,3.11-.84,2-.83,4-1.39,6.06a45.56,45.56,0,0,0-1.19,4.42c-.21,1.21-.31,2.41-.62,3.58a18.65,18.65,0,0,0-.51,4.8,26,26,0,0,1-.68,5.57c-.43,2-1.07,3.87-1.37,5.86a23.67,23.67,0,0,1-2.69,8.71"/><path class="cls-3" d="M175.4,319.38c-1.22.35-2.9,1.6-3.14,2.9-.29,1.6-.15,3.68,1.16,4.76a4.12,4.12,0,0,0,6.42-1.7,5.07,5.07,0,0,0,.59-3.27,5.86,5.86,0,0,0-1-2.3,4.7,4.7,0,0,0-1.19-.68,2.69,2.69,0,0,0-1.12-.25A1.8,1.8,0,0,0,175.4,319.38Z"/><path class="cls-5" d="M176.12,320.31a3.52,3.52,0,0,0-2.24,1.48c-.6,1-1,2.56,0,3.44a3.12,3.12,0,0,0,4.92-3.48,1.66,1.66,0,0,0-1.08-1.16A3.14,3.14,0,0,0,176.12,320.31Z"/><path class="cls-3" d="M183.81,355.41a4.76,4.76,0,0,0-2.12.62,4.27,4.27,0,0,0-1.86,1.74,4.74,4.74,0,0,0-.66,4.75c.69,1.7,3.09,3.13,4.91,2.27,2.26-1.07,3.17-3.59,3.06-6C187.06,357.17,185.17,355.75,183.81,355.41Z"/><path class="cls-5" d="M182.83,357.82c-.34-.07-1,.4-1.24.65a2.33,2.33,0,0,0-.76,1.34c-.11.79-.3,2.14.19,2.82a2.63,2.63,0,0,0,3.63.22c.83-.73,1.29-3.33.63-4.23a3.57,3.57,0,0,0-1.66-1A1.1,1.1,0,0,0,182.83,357.82Z"/><path class="cls-3" d="M188.17,393.61c-.34,0-.67.28-.93.46s-.65.37-1,.57a4.28,4.28,0,0,0-1.64,1.76,4.48,4.48,0,0,0-.11,2.71,4.92,4.92,0,0,0,1.44,2.73,4.69,4.69,0,0,0,2.87.84,3.87,3.87,0,0,0,1.71-.55,5.6,5.6,0,0,0,1.36-.89,5.23,5.23,0,0,0,1.29-3.29,4.44,4.44,0,0,0-.93-2.9,2.75,2.75,0,0,0-1-1,6.4,6.4,0,0,0-1.54-.54C189.26,393.43,188.48,393.33,188.17,393.61Z"/><path class="cls-5" d="M188.76,395a2.8,2.8,0,0,0-2.41,1.46,4.48,4.48,0,0,0-.38,1.69,2.46,2.46,0,0,0,.17,1.32c.53,1,1.79,1.93,2.93,1.33a4.24,4.24,0,0,0,2.34-3.49,2,2,0,0,0-1.6-2.06C189.37,395.11,188.9,395,188.76,395Z"/><path class="cls-3" d="M192.73,432.06a9.12,9.12,0,0,0-2,1.22,3.71,3.71,0,0,0-.93,1.8,4.14,4.14,0,0,0,.12,2.6,4,4,0,0,0,2,2.6,6.92,6.92,0,0,0,3.32.33,4.27,4.27,0,0,0,2.87-2.41,5.18,5.18,0,0,0,.57-3.62,4.26,4.26,0,0,0-2.12-2.5,2.68,2.68,0,0,0-1.33-.45c-.36,0-.72,0-1.09,0a4,4,0,0,0-.91-.09,1.14,1.14,0,0,0-.6.32c-.15.12-.5.3-.54.5"/><path class="cls-5" d="M195.21,433.29a3.46,3.46,0,0,0-2.91,1.29,2.17,2.17,0,0,0-.11,2.88c.49.69,1.56,1.35,2.4.9a3.58,3.58,0,0,0,1.86-3.35,1.71,1.71,0,0,0-.73-1.43C195.6,433.48,194.86,432.84,195.21,433.29Z"/><path class="cls-3" d="M201.29,385.25c2.43.91,5.46.92,8.05,1a33.42,33.42,0,0,0,5.48-.08c1.63-.21,3.18-.75,4.77-1.08.75-.16,1.41-.59,2.15-.75"/><path class="cls-3" d="M203.15,396.91c2.37,0,4.69.34,7,.34h2.36a20,20,0,0,1,3.1.38,7,7,0,0,0,3.73-.3,9,9,0,0,0,1.84-1"/></g></g><g id="jacket-right"><path class="cls-2" d="M112.14,224.64,106,231.16l-4.7,4.29L97,241.71l-6.14,6.57-5,3.52L76,257.51l-6.89,4.18L67,265l-4.67,9.48-1.95,5.75.07,3.76-.6,3.36-.38,3.15L59.15,296l.44,3.27L59.52,305l0,6.57-.32,5-.46,10.89v8.7l-1.2,7.62-1.07,4.87v4.55L56,358.13l-.87,5.1L55,369.12l-.14,9.38-.23,8.36-.54,1.79.44,2.2v2.26l-1.64,1.6-1.55.65L51,397.63l.9,3.79-.16,3,1.12,1.67,1.47,1.17.56.48-.68,1.68-.14,4.95v3.46l-.33,4.52.15,3,.35,1.34,4.71-1,6.59-.52,5.39.44,2.54.16,1-.93.39-2.73.74-1.72.17-2.36-.17-7,.7-4,.62-2.24.36-3.63.64-5.56.29-4.53.54-9.38.71-11.57,1.33-13.13.47-12.85.87-5.41-.83-6.44.26-6.2v-5.74l.92-.32.72,2.79,1.84,6.11.24,4.83,1.07,7.26.27,6.65.13,6.76-1,8.95-1.3,11.4-1.86,9.78-.92,7.09L80.53,403.4l-1.27,14.29-1,13.66-.94,11.54-1.6,11.86-2,14.84-1.31,13-.8,10.53-.5,7-.26,4.5-2.15,3.63.46,2.32L73.78,517l6.33,5.73,2.75,1.69.57-3,0-7.6,1-4.37,2.14-6.22,1-4.71,1.26-7,1.34-4.2,3-2.73.63-4.13,1-2.82,4.17-6.94,1.3-3.27L101,461s3-7.2,3.13-7.36,1.43-3.51,1.43-3.51l3.19-12.11,1.49-5-.47-5.89s1.26-8.08,1.26-8.41.85-6.85.85-6.85l2.37-15.54,2.08-9.76v-7.82l.69-8.51.66-9.88s-.38-6.06-.38-6.38S116,343.33,116,343.33L115,336l.52-4.87,1.18-2.49V326l.72-5.55-1-11.87-.64-7.73-.19-7.53s-2.17-8.36-2.17-8.74-1.53-15.07-1.53-15.07-2-7.66-2-7.91-1.85-9.7-1.85-9.7l-.32-6.32.45-3.39,2.58-2.43,1.25-5.28,1.23-2.32.51-2-.94-4.45Z"/><g id="jacket-right-2" data-name="jacket-right"><path class="cls-3" d="M113.68,230.49c-.14,1.88-1.15,2.66-1.79,4.33-.56,1.45-.38,3.06-.89,4.45-.74,2-2.31,2.43-3,4.23-.5,1.26.08,3.45.15,4.73a61.63,61.63,0,0,0,.81,9.47c.6,2.88,1.86,5.73,2.4,8.61,1.18,6.38,1.59,12.83,2.36,19.27.38,3.25,1.68,6,2,9.46s0,7.17.36,10.66a97.7,97.7,0,0,1,1,11.64c0,2.86.59,10-.67,11.83-3.52,5.16.41,16,.67,21.46.33,6.91.64,15.27-.41,22.14-.6,3.93,0,7.57-.09,11.49-.14,3.64-1.8,6.82-2.2,10.64-.84,8.16-3.39,15.67-3.38,23.83,0,2.8-.92,5.25-1,7.92-.1,3.15.91,5-.28,8.37-1.88,5.31-2.92,10.71-4.46,16.15"/><path class="cls-3" d="M105.91,450.83c-2.32,3.55-4.36,6.54-5.07,10.82-.36,2.19-.06,4.44-.67,6.59s-2.35,4.36-3.46,6.23c-1.32,2.22-2.45,3.92-3,6.44-.25,1.18.12,2.23-.33,3.31s-2.25,2.33-2.9,3.39c-2.6,4.23-2.37,10.54-3.78,15.34-1,3.57-2.69,6.82-3.12,10.46s.11,7.4-.39,11.05c-1.17-.15-3.42-2.07-4.75-3A26.33,26.33,0,0,1,73,516.07c-1.06-1.23-4.6-5.48-4.33-7.44.17-1.2,1.77-2.64,2.14-4.06a19,19,0,0,0,.26-4.73c0-3.11.49-5.84.68-8.87.23-3.72.67-7.09.67-10.83,0-1.52,3.34-26.37,3.75-29.23.54-3.69,2.32-16.25,2-21"/><path class="cls-3" d="M78.22,430.39c.85-10.54,3.52-44.34,5.13-49.16,1.35-4,3.55-28.05,3.4-30.64-.17-3.06-.15-5.58-.44-8.58"/><path class="cls-3" d="M86.2,343a7.65,7.65,0,0,0-.22-3.95c-.28-1.42-.28-2.87-.57-4.28-.35-1.67.09-3.5-.23-5.18a69.3,69.3,0,0,0-3.06-9.46c-1.09,1-.12,4.5-.43,6.07a6,6,0,0,0-.23,2.13,32.64,32.64,0,0,1,0,4.64c-.1.69.57,4.66.44,6.08s-1,7-.9,8.56a31.22,31.22,0,0,1-.12,5.3c-.14,1.19-.08,2.42-.1,3.63s-.68,6-.68,7.28a21.2,21.2,0,0,1-.27,3.5,22.75,22.75,0,0,0-.4,3.84c0,1-.45,6.74-.34,8,.09,1-.78,7.37-1,9.71-.28,2.66.06,5.39-.21,8.07-.14,1.34-1.12,6.09-.92,7.51a7.25,7.25,0,0,1-.44,2.09,7.87,7.87,0,0,0-.46,2.08,27.17,27.17,0,0,0-.45,4.45"/><path class="cls-3" d="M75.61,413a33.61,33.61,0,0,0,.15,4.93c.18,1.8-1,3.36-1.05,5.16-.1,2.07-.22,3.05-2.54,2.75a45.61,45.61,0,0,0-7.82-.58,32.45,32.45,0,0,0-5,.41,31.91,31.91,0,0,1-5.12,1.06c-.06-.66-.39-1.23-.47-1.9s0-1.42,0-2.11a35.18,35.18,0,0,1,.35-5.33c.14-1.45-.57-9.07.78-9.46"/><path class="cls-3" d="M55.33,407.8c-1.19-.45-3.38-2.2-3.6-3.38a20.33,20.33,0,0,1-.12-2.7,13.31,13.31,0,0,0-.46-2.93,6.78,6.78,0,0,1,0-3,1.76,1.76,0,0,1,.9-1.21c.6-.37,1.12-.17,1.72-.46,1-.5.67-1.68.71-2.71,0-1.44-.32-2-.29-3.08.06-1.75.68-9.34.68-11.58,0-1.32-.06-2.66,0-4,.1-2.38.12-4.8,0-7.18a58.22,58.22,0,0,1,1.24-8.1c.4-1.23.08-8.25.4-9.13s1.65-7.86,1.69-8.25"/><path class="cls-3" d="M58.17,340.21c.42-1.56.52-7.56.43-9.44,0-.82.44-9.57.56-10.82a19.9,19.9,0,0,0,0-3.62,9.41,9.41,0,0,1,.34-2.93"/><path class="cls-3" d="M113.57,230.71c.62-2.21-.44-4-1.16-6.07-.87.87-2,1.65-3,2.58s-1.75,1.94-2.65,3a24.37,24.37,0,0,1-3.78,3.54,17.54,17.54,0,0,0-3.54,4.05c-1.07,1.4-1.74,3.07-2.89,4.41-1.45,1.69-3,3.33-4.62,4.88a26,26,0,0,1-3.28,3.19c-1.44,1-3.28,1.62-4.83,2.46-.81.43-1.54,1-2.31,1.47-1.31.87-2.53,1.39-3.91,2.13-1.21.66-2.27,1.73-3.46,2.28a1.33,1.33,0,0,0,.4-.12,18.12,18.12,0,0,1-3.3,2,6.67,6.67,0,0,0-2.65,1.6c-1.08,1.38-1.62,3.27-2.7,4.62s-4.42,9.55-4.73,10.77c-.36,1.39-.93,2.28-.92,3.8a31,31,0,0,1,.11,4.08c-.16,1.2-.8,2.27-.9,3.5-.09,1,0,2,0,3,0,1.77-.6,3.6-.23,5.33a17.85,17.85,0,0,1,.34,5.54,49,49,0,0,0,0,5.81,38.18,38.18,0,0,0-.13,4.84"/><path class="cls-3" d="M90.7,249.86A15.07,15.07,0,0,1,89,251.73c-.73.78-1.57,1.48-2.36,2.19a3.49,3.49,0,0,0-1.3,2,5.21,5.21,0,0,1-1.35,2,23.41,23.41,0,0,0-3.08,3.82,43.22,43.22,0,0,1-3.8,4.73c-1.32,1.53-1.61,2.22.19,3.44,1.4.94,2.69.16,4.2-.12a15.24,15.24,0,0,0,5.9-2.74A17.87,17.87,0,0,0,89.8,265a16.35,16.35,0,0,0,2.9-2.73c2.14-3.14,5-5.65,9-5.61a16,16,0,0,1,3.51.79c1.76.45,2.24,1.26.35,2.38s-3.31,2.32-5,3.42a69.69,69.69,0,0,1-6.88,3.89c-2.23,1.14-4.4,2.35-6.71,3.39s-5.09,1.89-7,3.47c-1.31,1.1-3.18,2.48-3.14,4.39s1.86,3.95,2.64,5.53A18.1,18.1,0,0,0,81,286.19c.64.92.62,1.91,1.18,2.76,1,1.54,1.31,3.14,2.28,4.67a14.21,14.21,0,0,0,1.5,2.09"/><path class="cls-3" d="M85.94,295.59a10.26,10.26,0,0,0,1.62,4.53c1.29,1.47,2.87,1.95,3.47,3.82.27.84.36,1.58.66,2.39a14.7,14.7,0,0,1,.59,2,8.19,8.19,0,0,0,2,3.81c1.2,1.51,1.71,3.44,2.87,5,1.35,1.78,1.82,4,3,5.94a26.38,26.38,0,0,0,1.49,2.57c.64.82,1.61,1.4,1.87,2.47s0,1.7.49,2.67,1.4,1.8,1.9,2.81c.83,1.68,1.6,3.48,2.59,5.06a12.9,12.9,0,0,1,1.47,2.76c.25.76,0,2.46.78,2.88"/><path class="cls-3" d="M111.2,344.83a2,2,0,0,1-.23-.75,18.06,18.06,0,0,1,1.25,2.44,5,5,0,0,1,.45,2.36,4.51,4.51,0,0,0,.36,2.7,5.59,5.59,0,0,1,1,2.26c.18,1.74.19,3.42.22,5.13,0,1,.38,1.92.47,2.95a17.58,17.58,0,0,0,.42,3.42c.45,1.36,1.62,2,1.48,3.61-.17,1.95.14,4,0,6"/><path class="cls-3" d="M100.62,324.78c-3.36-.15-5.05,3.82-3.72,6.62a3.7,3.7,0,0,0,3.15,1.94c1.23.12,3.91-.91,3.83-2.37"/><path class="cls-3" d="M94.08,361.61A6.52,6.52,0,0,0,92,362.86a4,4,0,0,0-1.24,1.85c-.53,1.7-.4,3.66,1.18,4.65s3.74,1.39,5.07.11a5,5,0,0,0,1.21-5.24A4.28,4.28,0,0,0,94.08,361.61Z"/><path class="cls-5" d="M100.39,326.92c-2.76-.61-2.9,6.27.27,5a4,4,0,0,0,1.86-2.6C102.52,328.47,101.34,326.7,100.39,326.92Z"/><path class="cls-5" d="M94.87,363.75c-.11-.11,0-.21-.23-.24-.74.61-2.07,1-2.34,2s.29,2.83,1.21,3.08C96.19,369.32,97.4,364,94.87,363.75Z"/><path class="cls-3" d="M86.65,397.38c-1.49.17-2.07,2.14-2.55,3.3a4.85,4.85,0,0,0,1.54,5.53c.93.8,2.78.12,3.44-.74a7.82,7.82,0,0,0,1.73-5.16A3.33,3.33,0,0,0,86.65,397.38Z"/><path class="cls-5" d="M87.66,399.52c-2.45-.16-2.35,5-.2,4.28a2.58,2.58,0,0,0,1.37-2.13C88.9,401,88.51,399.7,87.66,399.52Z"/><path class="cls-3" d="M82.42,435.23a7.62,7.62,0,0,0-.81.3,7.11,7.11,0,0,0-.91.91,4.22,4.22,0,0,0-1.33,1.64,4.7,4.7,0,0,0,.57,4.42c.49.68,1,1.44,1.83,1.64a4.11,4.11,0,0,0,1.48.08c.38-.08.44-.2.71-.5a22.42,22.42,0,0,0,1.81-1.84c.81-1.13.42-2.71.31-4a2.47,2.47,0,0,0-1.72-2.41C83.93,435.32,82.47,434.7,82.42,435.23Z"/><path class="cls-5" d="M82.76,437.32c-.92-.49-1.88,1.17-1.86,1.91s.7,1.9,1.56,1.92c1.23,0,1.68-1.42,1.6-2.44S83.81,436.82,82.76,437.32Z"/><path class="cls-3" d="M53.25,396.87a1.08,1.08,0,0,0-.68.78c-.1.41.1.66.56.79,1,.29,1.54-1.83.45-1.62"/><path class="cls-3" d="M53.58,399.3c-.67,0-.74,1.49-.1,1.51.29,0,1-.68,1-1s-.33-.48-.68-.54"/><path class="cls-3" d="M53.41,401.89c-1.23.07,0,1.4,0,1.86.91-.25.65-1.18.39-1.75"/><path class="cls-3" d="M54.32,394.06c.3.74,2.13.75,2.74.83a14.43,14.43,0,0,0,3.15.07c1.86-.15,3.73-.17,5.6-.17a67.23,67.23,0,0,1,7.38.23c.88.09,1.76.29,2.64.33.59,0,1.17-.07,1.75-.05"/><path class="cls-3" d="M76.17,408c-1.7-.37-3.47.08-5.17-.28a22.36,22.36,0,0,0-3.63-.52c-.76,0-1.56.18-2.35.18a53.25,53.25,0,0,0-5.93.16c-.88.1-1.77,0-2.65.07a13.74,13.74,0,0,1-1.56.16"/></g></g><path class="cls-2" d="M181.89,95.89a8.36,8.36,0,0,0-2.95-2.24c-.89-.55-2.42-1.44-2.86-2.43-.56-1.24.52-2.66.72-3.9a15.11,15.11,0,0,0-.37-7c-.64-1.85-.91-4.13-1.92-5.79s-2.51-2.67-3.66-4.15c-2.65-3.42-6.79-5.49-10.4-7.72s-7-4.8-10.8-6.71c-4.57-2.31-8.82-2-13.72-1.09-4.32.85-8.58,1.9-12.86,2.94s-8.43,1.56-12.6,2.57-8.13,1.83-11.87,3.94A20.39,20.39,0,0,0,93.18,68a15.31,15.31,0,0,0-2.67,5c.4,0-.31.55-.71.85-1.16.91-1.27,1.74-2.23,2.81a15.19,15.19,0,0,0-1.46,2.6.47.47,0,0,1-.53.23,27.1,27.1,0,0,1-2.65,2.6,11.07,11.07,0,0,0-2.85,2.69c-.78,1.33-.67,2.89-1.15,4.35a30.09,30.09,0,0,1-1.52,3.38c-1.16,2.46-2.41,5-4.36,6.72l.78,1.36,2.26,5.26,1.25,3,5.23-.59,2.51,4.47,2.18,7.34,1.08,7,1.17,4.15,2,5.23,2.5,7.92,2.17,8.48,4.45,11.26,3.86,10.66,2.16,5.67,2.37,6.77,3.88,6.53,8.68,13,3.13,4.89,5.89,3.05s4.09.7,4.18.7,3.54-.57,3.54-.57l4.08-2.11,2.16-1.53,2.81-3.66s3-5.22,3.2-5.28,3-9.38,3-9.38l3.5-9.05,1.7-9.14L163,160.8l3.31-12.21,1.91-9.67v-9.71c0-.32,2.7-11.24,2.7-11.24l3.47-9.5s2.71-1.54,3-1.6,2.1-.7,2.1-.7l2.24-2.56s1.28-3.86,1.34-4,.24-.86.4-1.47a.38.38,0,0,1-.27-.15A17.9,17.9,0,0,1,181.89,95.89Z"/><path class="cls-4" d="M193.35,68.76l-2.11-7-2.36-5.74L185,48.78l-4.15-5.61L177.2,39.4,172,34.8l-3.9-2.68-6.45-2L154.16,29l-8.43-1L140,25.87l-6.83-2.11-2.88-.13-2.42-1.08-2.87-7-1.6-3L122,11.7l-1.12,1.78-.5,2.34.81,2.69,1,2.89.42,2.21-1.31,1.28-4,1.62-4.86.93-5.74,1.49-3.32,1.87-8.85,4.68-7.92,7.2S80.07,49.74,80,49.87,75.39,55,75.39,55l-5.53,7.64-2.21,5.62-2.22,7.92v9.48l-.38,3.49,1.19,4,2,1.75,3,2.13,1.34,1.26,0,0c.93-.82,2.21-.84,2.88-2A36.71,36.71,0,0,0,78.22,88c.51-2.14.7-2.77,2.42-4.31a59,59,0,0,0,4.5-4.31c.12-.12.27-1,.39-1,.7-.88,1.68-1.4,2.38-2.31.57-.75.94-1.48,1.49-2.14-.12-.12.85-.84.91-1a14.73,14.73,0,0,1,2.43-4.38A12.39,12.39,0,0,1,97,64.9a29.45,29.45,0,0,1,5.6-2.38c2.33-.74,4.91-1.19,7.28-1.79,4.75-1.18,9.45-1.71,14.21-2.89s9.64-2.65,14.38-3.4c3.93-.63,7.18-.58,10.81,1.15,4.35,2.06,8.12,4.75,12.21,7.27,3.44,2.12,7.61,3.59,10.15,6.84a42.37,42.37,0,0,1,2.71,4.67A43.55,43.55,0,0,1,177,79a13.42,13.42,0,0,1,1,5.24,28.35,28.35,0,0,1-.78,5.4c-.35,2.22,1.37,3.57,2.91,4.52a14.3,14.3,0,0,1,3.78,3.15.43.43,0,0,1,.12.34l1.73.93,1.79-.66,2.68-2.81,1.53-4.59,1.18-8.43.74-6.64Z"/><path d="M191.08,60.25c0-.09-.08-.17-.11-.26a15.2,15.2,0,0,1-.41-2s-5-10-8.67-14.26a96.46,96.46,0,0,0-7.71-8.08A60.33,60.33,0,0,0,167.85,31c-1.35-.34-2.71-.62-4-1A72.66,72.66,0,0,0,149,27.38,25.67,25.67,0,0,1,142.35,26c-3.76-1.39-7.43-3.15-11.43-3a1.34,1.34,0,0,1-.85-.24c-2-1.5-2.77-3.61-3.58-5.71-.9-2.35-1.33-5.08-4.24-5.94a3.24,3.24,0,0,0-2.43,2.5,7.84,7.84,0,0,0,.49,5.26,7,7,0,0,1,1.1,4.84A23,23,0,0,1,113,26.66a28.69,28.69,0,0,0-10.09,3.47c-2.79,1.46-5.55,3-8.32,4.49L83.81,44.19c-1.62,1.83-4.74,5.39-4.74,5.39-.28.46-.29.93-.6,1.27-1.23,1.37-2.66,2.57-3.78,4-2.11,2.74-5.09,4.91-5.92,8.54l.07-.07-.67,1.28.07-.06c-1,3-3,9-3,9a39.1,39.1,0,0,0-.57,5.57,51.37,51.37,0,0,1-.11,7.34c-.4,3.7.29,6.78,3.54,9.2,2,1.52,4.49,3,5.17,5.91.09.38.9.59,1.09.7.31,2,.63,3.75.86,5.51a13.79,13.79,0,0,1,0,3.08,25.67,25.67,0,0,0,1.49,11.74l2.13,1.62.78,3.35-.08-.07.68,1.87-.07-.07c.62,1.84,1.25,3.67,1.68,4.94-.24,2.26-1.77,3.62-1.87,5.52a.78.78,0,0,0,.78.81h1.07c.29,0,.51.24.47.68l-.11,1.24a.57.57,0,0,0,.53.63l3.43.28a1.08,1.08,0,0,0,.89-.35l2.32-2.55a1.09,1.09,0,0,0,.28-.73V134c.08.07.32.17.37.32,1.25,4.62,3.18,9,4.13,13.74.7,3.45,2.42,6.68,3.66,10,.38,1,.7,2,1,3.08,0,0,.61,1.4,1.34,3.17l1-.44,0-.05,1-1.32-1.64-.56c-.36-1.38-.77-2.91-1.17-4.43l.08.08c-.34-.49-.86-.92-1-1.45-.88-3.67-2.86-6.94-3.42-10.76a34,34,0,0,0-2.6-7.91,59.88,59.88,0,0,1-3.68-13.89,1.12,1.12,0,0,1,.07-.6l.51-1.4a.78.78,0,0,0,0-.58c-1.86-4.59-3.76-9.25-5.57-13.71l-6.76.49c-1.31-2.66-1.31-2.66-1-5.12L79.42,101c.7-1.1,2.25-2.36,1.78-4.67l2.34-1.77,1.92-.35,3.09,2.13c-.43-2.41-2.38-2.78-4.15-3.12.51-1.85,1-3.71,1.49-5.39L83.79,85a27.93,27.93,0,0,1,7.91-4.73c1.75-.76,6.25-2.7,8-3.52-2.29-.38-6.9,2.2-8.9,2.84a21.11,21.11,0,0,0-7.65,4.52,1.87,1.87,0,0,1-.78.4c-.15,0-.35-.11-.78-.26a6.14,6.14,0,0,1,1.22-1.51c2.88-1.8,4.66-4.56,6.45-7.3.82-1.25,1.56-2.55,2.31-3.85.07-.12.13-.23.21-.35h0l.15-.26c.32-.56.65-1.12,1-1.67a5.31,5.31,0,0,1,1.72-2c3.31-1.77,6.25-4.23,10.13-4.93,6.66-1.21,13.29-2.61,19.91-4,5.13-1.1,10.22-2.44,15.36-3.52,2.62-.55,5.18-.66,7.72.93,6.25,3.91,12.7,7.51,19,11.35a20,20,0,0,1,8,10c.08,1.46-.79,2.24-1.8,3a1.11,1.11,0,0,0-.4,1.08c.64,3.53-.21,6.9-1.35,10.29,3-.3,5.77-.1,7.82,2.6a10.34,10.34,0,0,0,2.13,1.63,3.29,3.29,0,0,1,1.43,3.68c-.82,2.42-1.39,5.06-4.11,6.75l-3.44-.47c-1,1.67-2,3.44-3.09,5.21l.06-.06c-1.42,4.4-2.21,9-4.61,13.4.85,1.54-.45,3-1.12,5.14.34,1.81.85,4,1.13,6.27a11.42,11.42,0,0,1,0,3.09c-.34,2.52-.89,5-1.39,7.52-.67,3.31-1.13,6.7-2.08,9.93-.52,1.76-1.06,3.52-1.6,5.28l1,.35c.43-1.22,1-2.4,1.45-3.6l-.07.07q1.05-4.42,2.12-8.83c.31-1.28.88-3.78.88-3.78.22-1.66.45-3.33.72-5.32,1.68,3.2,3,6.26,6.2,7.84l3-.33a.83.83,0,0,0,.73-.86,3.43,3.43,0,0,1,.06-1.08,3.08,3.08,0,0,1,.49-.89A1,1,0,0,0,179,144c-.93-2.33-1.77-4.44-2.35-5.87v-6.22c1.63-.66.3-2,.43-3.09.42-3.64.47-7.34,1-11,.5-3.17.61-6.5,2.46-9.14-.33-.65-.59-1.14-.88-1.72,2.69-2.17,3.78-5,4.17-8.37l2.6,1c3.81-2,5.11-5.54,5.93-9.29.6-2.81.91-5.68,1.37-8.52A36.07,36.07,0,0,0,191.08,60.25Zm1.73,17.67a76.4,76.4,0,0,1-2.4,14.31A7.94,7.94,0,0,1,188,96.59a2.85,2.85,0,0,1-3.35.55c-.91-1.23-2-2.15-3.2-3.73-.4,0-.49,0-.91.42l-3.14-2.89,4.73-.23c.61-.64.1-1.48-.39-2.18a27.32,27.32,0,0,1-3.57-7.17A38.35,38.35,0,0,0,174.27,73a19.77,19.77,0,0,0-6-6.55c-6-3.74-12-7.57-18-11.24a13.09,13.09,0,0,0-10.83-1.54c-6.22,1.69-12.6,2.78-18.91,4.14a40.31,40.31,0,0,0-5.48,1.38,26.35,26.35,0,0,1-8.53,1.23l.08-.06a19.53,19.53,0,0,1-3,1c-3.12.58-5.62,2.48-8.34,3.86a6.65,6.65,0,0,0-3.81,4.39,4.08,4.08,0,0,1-.31.84c0,.09-.09.18-.14.27a3.35,3.35,0,0,1-.21.36c-.28.47-.62.93-.92,1.39A49.47,49.47,0,0,1,79.23,84.38c-1.47,4.12-2.84,8-4.27,11.93L73,97.44a1.39,1.39,0,0,1-.58-.14,52.37,52.37,0,0,1-4.32-3.65,6.88,6.88,0,0,1-2.2-6,60.63,60.63,0,0,0,.2-9.53c-.05-3.55,1.13-7,2.33-10.45a34.07,34.07,0,0,1,7.39-12.16c2.35-2.51,4.69-5,6.87-7.67a61,61,0,0,1,22.61-17.52,28,28,0,0,1,9.7-2.53c1.9-.11,3.74-1.2,5.59-1.92a24.25,24.25,0,0,0,2.25-1.09,1,1,0,0,0,.53-.83c0-3.36-2.43-6.3-2.15-9.95l1.24-1.54c2.27,3.29,2.84,6.73,4.07,10.12a1,1,0,0,0,.56.57,7.44,7.44,0,0,0,1.93.65,56.67,56.67,0,0,1,12.88,3.48c3,1.14,6.2,1.39,9.34,1.87q5.9.89,11.78,1.8a15.83,15.83,0,0,1,5.7,2.41,45.42,45.42,0,0,1,12,11A58.09,58.09,0,0,1,190,60.36a49.08,49.08,0,0,1,2.37,8.51A34.31,34.31,0,0,1,192.81,77.92Z"/><path d="M159,177.6c.59-5.25,2.68-10.11,4.13-15.13.07-.25.15-.5.23-.74l-1-.35c-1.64,5.26-3.38,10.51-5.07,15.81a23.85,23.85,0,0,1-12.79-9.55c-3-4.28-7.21-5.3-12-5.37a12.48,12.48,0,0,1-4.11-.66l-3.49,1.08-2-.84c-4.49,1.22-8.53,2.6-10.9,6.54a13.42,13.42,0,0,1-1.27,1.57l-5.15,6.48c-.68-4.85-2.78-8.61-4.37-12.51l-1,.44c.73,1.77,1.59,3.91,2.09,5.37s1.42,3.2,1.08,4.95a1.21,1.21,0,0,0,.51,1.25c.43.3.3.64-.26,1.45-1.9,1.8-4.3,2.2-7.48,2.47-.37,0-1.36-1.57-2.52-.28.64,1.48.64,1.48,4.73,4l7.31-3.27c.58,1.57,1.08,2.94,1.58,4.32,0,0,3,6.46,4.93,9.54.62,1,1.13,2.05,1.69,3.08l-.07-.08c1.34,1.85,2.69,3.69,4,5.54,1.85,2.57,3.78,5.08,5.48,7.74a10,10,0,0,0,4.88,4.16c1.38.55,2.77,1.05,4.44,1.68.11,3.49.22,7,.34,10.52h1.4c0-3.6,0-7.21.07-10.89l2.74-.14c0,3.74.06,7.4,0,11h1.75c-.1-2.67-.19-5.33-.29-8a5.36,5.36,0,0,1,3.16-5.27,13.26,13.26,0,0,0,3.2-2.14,27.27,27.27,0,0,0,6.18-9.39c.72-1.83,1.5-3.63,2.25-5.45l-.06.07c1.62-5.16,3.24-10.31,4.85-15.41l2.93-.16a12.69,12.69,0,0,0,3.78-4.52C162.64,176.56,161.16,178.91,159,177.6Zm-5.19,13.24c-1.69,4.58-3.37,9.18-5.34,13.64-.91,2-2.49,3.79-3.79,5.71A17.05,17.05,0,0,1,143,211a33.77,33.77,0,0,1-3.69,2.29,12.37,12.37,0,0,1-14.88-4.06c-4.09-5.9-8.2-11.79-12.19-17.75a34,34,0,0,1-5.05-12,15.2,15.2,0,0,1,2.52-1.26c2.57-.77,4.51-2.44,6.52-4.1,2.59-2.15,5.35-4.11,8.09-6.08a7.59,7.59,0,0,1,2-.7l5.63-1.93a13.33,13.33,0,0,1,5.24,4.26,23.83,23.83,0,0,0,3.15,3.58,7.88,7.88,0,0,0,6,2.3c1.65,1.72,2.92,3.46,4.59,4.65s3.54,1.68,5.55,2.58C155.59,185.37,154.82,188.14,153.83,190.84Z"/><path d="M142,167.13l.17.25-.24-.17Z"/><path d="M143.53,172.35c0,.21-.07.35,0,0C143.55,172.71,143.54,172.57,143.53,172.35Z"/><polygon points="145.15 174.1 145.36 174.22 145.38 174.03 145.15 174.1"/><path d="M79.55,127.52c0,.29-.1.57,0,.22-.21.28-.05.06.12-.15Z"/><path d="M80.15,129.32c0,.29-.09.58,0,.22l.11-.15Z"/><path d="M179.41,140c.05.3,0,.15,0,0Z"/><path d="M157.33,188c0,.16,0,.32,0,.47C157.3,188.27,157.32,188.11,157.33,188Z"/><path d="M153.14,200c0,.16,0,.32,0,.48C153.11,200.27,153.13,200.11,153.14,200Z"/><line x1="103.58" y1="177.42" x2="103.65" y2="177.35"/><path d="M153.35,196.6l.23.17-.16-.24Z"/><path class="cls-2" d="M137.17,226.77c0-3.63,0-7.29,0-11l-2.75.14c0,3.68-.07,7.29-.06,10.89Z"/><path d="M97,77.8c.74-1.45,2.26-1.63,3.55-1.82a102.53,102.53,0,0,1,21.84-1.13,27.09,27.09,0,0,1,2,6.43c.77,3.81,1.74,7.56,1.44,11.52-.19,2.57.14,3.27,1.42,5.57,0,4.43,0,8.78,0,13.12s0,9-.4,13.42c-.87,8.56-1.09,17.12-1.19,25.7a52.24,52.24,0,0,0,.17,5.31,8.43,8.43,0,0,0,.82,2.18l3.64-.3a18.11,18.11,0,0,0,.66-8.46,68.18,68.18,0,0,1,0-15.77c.65-5.75,1.11-11.52,1.48-17.29.29-4.46.34-8.93.44-13.39.07-3.46.11-6.92,0-10.38-.06-2.28-.55-4.54-.54-6.81,0-2.68.34-5.36.6-8a4.76,4.76,0,0,1,2.72-3.86c3.89-.56,7.64-1.12,11.39-1.64a38.8,38.8,0,0,1,16.83,1.24c1.71.52,3.47.86,5.19,1.32a13.17,13.17,0,0,1,1.78.88,9.42,9.42,0,0,1-5.44-.47c-6.95-2.66-14-2.7-21.2-1.36-2.93.54-5.85,1.14-8.83,1.72a10,10,0,0,0-.95,2.66c-.18,4.14-1.69,8.22-.4,12.44a12.21,12.21,0,0,1,0,3.25c.07,5.77.59,11.58.12,17.3s-.66,11.49-1.47,17.22a77.45,77.45,0,0,0-.36,20.86,19.35,19.35,0,0,1-.72,9.44l-4.05,1.49c-2.13-.51-2.85-2.14-4-3.29.39-3,1.08-5.85,1-8.7-.08-8.86,1-17.64,1.35-26.46.31-7.55.39-15.1.57-22.61-2-2.16-2.05-4.65-1.77-7.15a17.47,17.47,0,0,0-.57-6.79c-.33-1.14-.47-2.35-.77-3.51-.5-1.89-1.07-3.78-1.69-5.92-3-.08-5.81-.32-8.57-.18-3.57.18-7.13.6-10.68,1-1.85.23-3.66.76-5.49,1.15Z"/><path d="M112.83,82l6.51,3.68c-.73,1.46-1.35.94-2,.37a11,11,0,0,0-8.57-2.64c-.11,1.5-.22,2.92-.34,4.43l-3.3,2.05c-2.53-1.47-2-3.58-1.67-5.64a10.22,10.22,0,0,0-6.28,1.53,30.83,30.83,0,0,1-5.49,3.13c.28-.51.44-1.23.87-1.5,3-1.82,5.76-3.76,9.34-4.53S108.84,82.23,112.83,82Z"/><path d="M138,85l2.14-2c12.46-4.37,22.25.13,24.91,4.74-8.82-5.85-17.58-7.31-26.78-2.06Z"/><path d="M149.33,83.31c3.86-.47,4.31-.11,4.44,3.43a12,12,0,0,1-.9,1.08c-.49.49-1,.93-1.48,1.33-2.55-.53-2.55-.53-3.5-3.39Z"/><path d="M174.78,96.66c.11,1.27.66,2.63-.68,3.86C173.51,99,174.22,97.81,174.78,96.66Z"/><path d="M82.44,102.34c-1.36-.25-1.4-1-1.06-2.17C82.46,100.68,82.79,101.27,82.44,102.34Z"/><path d="M167.65,116l-.84-.78,1.05-1.32.44,1.88Z"/><path d="M172,110.75H171v-2l.47-.06c.18.7.36,1.4.55,2.09Z"/><path d="M158.32,165l-1.23.9v-1.8Z"/><path d="M161,158.83l-1.33.3-.18-.55,1.32-.49Z"/><path d="M92.51,109.59H90.94C91.33,108.61,91.33,108.61,92.51,109.59Z"/><path d="M164,138.77l-1.48.15C163.11,137.8,163.11,137.8,164,138.77Z"/><path d="M168.34,108.68l-.43.92-.46-.21c.15-.31.3-.61.44-.92Z"/><path d="M88.57,96.39c1,.51.63,1.22.06,1.93v-2Z"/><path d="M114.33,162.12l.14,1.72-1.73-.53Z"/><path d="M88.82,116.26l.69.22-.3.6-.59-.4Z"/><path d="M94.93,128.07a3.23,3.23,0,0,1,.64.53c.05.07-.12.42-.2.43s-.55-.05-.64-.2S94.83,128.41,94.93,128.07Z"/><path d="M99.45,157.65v-1.27l1.52.5-1.6.69Z"/><path d="M92,120.79l-.61.4-.25-.64.69-.14Z"/><path d="M118.71,160l-.72-.82.3-.29.81.61Z"/><path d="M164.1,145.45l-.82.14-.06-.41.82-.11Z"/><path d="M97.39,147l0,.66h-.2V147Z"/><path d="M141.08,198c-2.49-.35-4.5-.65-6.53-.9a5.6,5.6,0,0,0-4.83,1.85c-.58.57-1,1.59-2.19,1.16C129.12,195,135.66,193.83,141.08,198Z"/><path d="M130.18,180.36l-2.71-1-2.69,2.18c-.42-2.32,1.57-2.53,2.22-3.8l3.19.87a4.48,4.48,0,0,1,5.08.11c.76.47,1.86.38,3.51.67l-3,1.1L133,179Z"/><path d="M127.73,189.82l.54-1.37a32,32,0,0,0,4.52-.45,29.73,29.73,0,0,0,4.17-1.67l.31.58-3.83,2.82C131.74,189.92,129.87,190.63,127.73,189.82Z"/><path d="M130.11,183.26l3.67-.68C131.57,184.56,131.57,184.56,130.11,183.26Z"/><path d="M128.58,208.49H126.3c.27-.49.44-.94.53-.93.62.11,1.23.32,1.84.49Z"/><path d="M141.65,209.7,140.37,212C139.51,210.44,140.1,210.1,141.65,209.7Z"/><path d="M117.13,194.29l-2.12-.4C115.71,192.8,116.19,192.81,117.13,194.29Z"/><path d="M130.61,210.35l.25-1,1.23.49-.07.38Z"/><path d="M123,200.16l1.46-.44.2.59-1.4.56Z"/><path d="M131.33,204.7l-1.6,1C130.09,204.58,130.09,204.58,131.33,204.7Z"/><path d="M139.27,206.15h-1.88C138,205.26,138,205.26,139.27,206.15Z"/><path d="M134.6,207.9l-1.06-.44.21-.48,1,.46Z"/><path class="cls-3" d="M138.7,89.65a22.25,22.25,0,0,0,1.46,6.59c1,2.49,1.5,3,3.89,3.18a28.94,28.94,0,0,0,7.78-.09c1.78-.39,3-1.25,4.87-1.26"/><path class="cls-3" d="M118.91,88.88c-1.43,1.53-2.46,3.6-3.81,5.25a13.72,13.72,0,0,1-6.25,3.93c-1.32.34-9.12,2.62-10.11.53"/><path class="cls-3" d="M142.7,89.82c2.05,1.68,5.16,2.08,7.72,2a27.58,27.58,0,0,0,3.27-.42,19.3,19.3,0,0,0,4-.77"/><path class="cls-3" d="M114.7,88.46c-2.45.59-4.26,2.46-6.89,2.79a29.64,29.64,0,0,1-6,.12c-1.65-.14-3.94.07-5.38-.53"/><path class="cls-6" d="M118.61,165a.94.94,0,0,1,.64-.47"/><path class="cls-6" d="M112.05,173.61c.37-.15,2.11-.9,2.52-1"/><path class="cls-6" d="M125,165.06c.09-.09,1.31-.55,1.42-.6"/><path class="cls-6" d="M122.1,164.37c.05-.32.42-.45.68-.59"/><path class="cls-6" d="M116.9,172a7.21,7.21,0,0,1,.78-1.41"/><path class="cls-6" d="M107.12,176.24a26.06,26.06,0,0,1,2.16-1.5"/><path class="cls-6" d="M111.59,172a3.18,3.18,0,0,1,1.53-.77"/><path class="cls-6" d="M98.23,182.07a9,9,0,0,1,3.32-1.66"/><path class="cls-6" d="M105.64,178.63c.21-.74,1.32-1.11,2-1.28"/><path class="cls-6" d="M110.23,176.07a1,1,0,0,1,.89-1"/><path class="cls-6" d="M130.53,162.93a8.39,8.39,0,0,1,1.66-.13"/><path class="cls-6" d="M137.42,163.69a2.43,2.43,0,0,0,1.53,1"/><path class="cls-6" d="M137,166.24a14.78,14.78,0,0,1,2,2.69"/><path class="cls-6" d="M141.25,167.39A6.69,6.69,0,0,0,143,168.8"/><path class="cls-6" d="M142.78,172c.67,1.75,2.78,2.76,4.34,3.57"/><path class="cls-6" d="M146.61,171.73c.14.86.89,1.54,1.28,2.3"/><path class="cls-6" d="M150.06,177.1a16.12,16.12,0,0,0,2.3,1.53"/><path class="cls-6" d="M152,176h.12"/><path class="cls-6" d="M154.27,178c.83.22,1.62.6,2.43.89"/><path class="cls-6" d="M155.68,180.8a1.57,1.57,0,0,1,1.15-.39"/><path class="cls-6" d="M160.27,178.88h1.41"/><path class="cls-6" d="M120,168.8c.47-1.06,2-1.57,3.06-1.87"/><path class="cls-6" d="M114.75,169.7c.61-.19,1.34-1.79,1.87-2.14s1-.55,1.48-.89"/><path class="cls-7" d="M175.72,78c-.21,1.8-1.34,3.18-1.34,5,0,1.19-.09,2.37-.19,3.55a19.57,19.57,0,0,0-.45,2.74"/><path class="cls-7" d="M177.19,80.71c-.69,1.47-.38,3.15-.73,4.65a15.36,15.36,0,0,0-.68,3.46"/><path class="cls-7" d="M178.46,83.78a7.52,7.52,0,0,1-.29,3.15,3.83,3.83,0,0,0-.34,1.7"/><path class="cls-7" d="M180.12,87.35c0,.72-.31,1.37-.31,2.11"/><path class="cls-7" d="M175.89,108.54c-.57,4.15-2.83,7.27-3.79,11.2-.74,3-1.49,6-2.17,9.06a17.92,17.92,0,0,0-.3,8.46,16.71,16.71,0,0,0,1.83,5.16c1,1.59,2.88,2.85,3.41,4.82a2.9,2.9,0,0,0,.85-1.08"/><path class="cls-7" d="M178.1,108.71c-.43,1.09-.07,2.53-.17,3.73a15.34,15.34,0,0,1-1.16,4.3c-.84,2.17-1.76,4.42-2.53,6.64-1.49,4.24-3,10.73-1.49,15.2.7,2,2.43,5.47,4.16,6.56"/><path class="cls-7" d="M178.44,144.12c-1.67-.62-2.66-5.6-3-7.42a23.41,23.41,0,0,1-.2-4.67c0-2.9.3-6.91,2.21-9.19"/><path class="cls-7" d="M81.34,85.39c.94,2.29,2.24,4,2.21,6.56"/><path class="cls-7" d="M80.23,87.18c0,1,.85,1.85,1,2.89a22.27,22.27,0,0,1,.32,3.15"/><path class="cls-7" d="M78.53,90.93a8.38,8.38,0,0,1,1.19,4.51"/><path class="cls-7" d="M77.42,94.93a21.37,21.37,0,0,1,.77,2.16,6.34,6.34,0,0,1-.09,1.67"/><path class="cls-7" d="M76.32,97.9a5.89,5.89,0,0,1,.25,2.56"/><path class="cls-7" d="M75,99.35a12.47,12.47,0,0,0,.51,1.45"/><path class="cls-7" d="M82.61,109c.2,2.63.48,5.89,1.62,8.34,1,2.21,1.2,4.92,1.74,7.31a82.61,82.61,0,0,1,1.23,10.13c.22,2.32.35,4.57.35,6.9"/><path class="cls-7" d="M80.74,109.56c-.64,1.28-.17,3.71-.17,5.18a10.64,10.64,0,0,0,.53,4c1.13,2.89,2.32,5.62,2.67,8.76a39.39,39.39,0,0,0,.56,4.31,19.2,19.2,0,0,1,.67,4c0,2.4.46,4.82.68,7"/><path class="cls-7" d="M83.55,141.31c0-1.33-1-2.35-.62-3.66a3.89,3.89,0,0,0,.08-2.5c-.43-1.93-.52-4-.86-5.93a20.1,20.1,0,0,0-1.73-6.09,17.11,17.11,0,0,1-1.33-2.5,29.38,29.38,0,0,1-.89-3.25,36.12,36.12,0,0,1-.86-7.48"/><path class="cls-8" d="M143.17,205.31a15.68,15.68,0,0,0,1.4-1.53"/><path class="cls-9" d="M143.93,197.9a2.76,2.76,0,0,1,.64-.89"/><path class="cls-9" d="M141.12,190.5a2.62,2.62,0,0,1,1-.77"/><path class="cls-9" d="M148,184.12a6,6,0,0,1,.64.38"/><path class="cls-9" d="M149.81,192.41a2.63,2.63,0,0,1,1-1"/><path class="cls-9" d="M112.66,183a.91.91,0,0,1,.38-.77"/><path class="cls-9" d="M155.93,171.61a8.36,8.36,0,0,1,1.15-1.66"/><path class="cls-9" d="M158.87,152a.3.3,0,0,1,.25-.26"/><path class="cls-9" d="M107.29,157.56c-.09-.37,0-.61.39-.63"/><path class="cls-9" d="M106.78,166.24a7.64,7.64,0,0,0,1.54-2.17"/><path class="cls-9" d="M98.1,140.46c-.09,0-.13,0-.12-.13"/><path class="cls-9" d="M100,147.61h.76"/><path class="cls-9" d="M117,189.05l.17-.17"/><path class="cls-9" d="M116.32,177.48h.17"/><path class="cls-9" d="M122.61,195.35a10.69,10.69,0,0,1,1.37-.51"/><path class="cls-9" d="M149.51,200.63a3.47,3.47,0,0,1,.51-1.53"/><path class="cls-9" d="M144.4,182.41c-.3-.34-.21-.71.17-1"/><path class="cls-9" d="M150.19,168.8c0-.13,0-.19.17-.17"/><path class="cls-9" d="M163.64,152a1.26,1.26,0,0,1,.34-.68"/><path class="cls-9" d="M100.66,153.65a11.25,11.25,0,0,1,.17-2.72"/><path class="cls-9" d="M94,135.78v-.34"/><path class="cls-9" d="M92.15,126.76v-.17"/><path class="cls-9" d="M117.51,184.63a1.21,1.21,0,0,1,.13-.9"/><path class="cls-9" d="M112.91,187.44a.55.55,0,0,1,.64-.51"/><path class="cls-9" d="M120.44,191.65a2.51,2.51,0,0,1,1.15-.51"/><path class="cls-9" d="M119.68,198v-.13"/><path class="cls-9" d="M124.15,205.18a4.86,4.86,0,0,0,1-.51"/><path class="cls-9" d="M135.12,212l.77-.39"/><path class="cls-9" d="M147,198.93a1.62,1.62,0,0,1,.25-.64"/><path class="cls-9" d="M145.21,190a4,4,0,0,1,1.53-1.15"/><path class="cls-9" d="M152.36,185.52c-.06-.18.14-.31.38-.38"/><path class="cls-9" d="M153,162.93c-.05.14.08.18.38.12"/><path class="cls-9" d="M92.74,132.8a3,3,0,0,1,1.92.51"/><path class="cls-9" d="M95.68,141.22a4.44,4.44,0,0,1,.51,1.54"/><path class="cls-9" d="M88.15,111.1a2.46,2.46,0,0,0,.38.76"/><path class="cls-9" d="M105.51,162a1.4,1.4,0,0,1,1.15-.89"/><path class="cls-9" d="M161.76,149.05a2,2,0,0,1,1.28-.93"/><path class="cls-9" d="M160.66,155.18a.52.52,0,0,1,.34-.59"/><path class="cls-9" d="M156.49,162.67a.69.69,0,0,1,.68-.68"/><path class="cls-9" d="M153.85,169.22a.47.47,0,0,1,.25-.42"/><path class="cls-9" d="M154.78,174.59c.5-.32,1-.57,1.54-.86"/><path class="cls-9" d="M166.19,119.61a.38.38,0,0,1,.34-.34"/><path class="cls-9" d="M164,135.61a1,1,0,0,1,.51-1.2"/><path class="cls-9" d="M147.21,195.1a.74.74,0,0,1,.17-.43"/><path class="cls-9" d="M145.25,186.67c.26-.13.52-.28.77-.43"/><path class="cls-9" d="M146.87,180.2a.36.36,0,0,1,.42-.08"/><path class="cls-9" d="M145.42,206.67a4.32,4.32,0,0,1,.68-1"/><path class="cls-9" d="M141,202.16a3.3,3.3,0,0,1,.51-1.11"/><path class="cls-6" d="M141.22,170a3.44,3.44,0,0,1,1.91.17c.27.12.51.3.77.42"/><path class="cls-6" d="M128.8,164.59a1.44,1.44,0,0,1,.51-.3"/><path class="cls-6" d="M134.37,164.08c.87.37,1.72,1.07,2.6,1.36"/><path class="cls-6" d="M148.8,175.29a7.61,7.61,0,0,1,2.23.26"/><path class="cls-6" d="M158.31,179.12c.32.13.62.28.95.39"/><g id="scarf"><path class="cls-2" d="M158.31,299.28l-1.06-3.06-.73-3.49,0-2.85-1.15-2.9-1.24-4.74-1.27-6.82-3.06-7.16-.84-3.87.88-4.38-.34-3.83-1.24-2.26-1.74-3.83-1.3-5.56-.38-3.76.75-1,2.32-2.89,3-4.22,1.78-3.07L153,226l0-1.36-2.72-3.53-1.28-2.85.91-3.6c-.25.2-.79.08-1,.31-1.5,1.47-3.74,3.66-5.12,5.24a15.33,15.33,0,0,1-3.6,3.36c-1.69,1.11-2.15,1.61-3.79,2.78a2.61,2.61,0,0,1-1.44,0,10.28,10.28,0,0,1-2.48-2.74c-1.4-2-2.4-4.21-4.42-5.6-2.59-1.78-5.16-2.84-5.85-5.87a.48.48,0,0,1,.15-.47l-.63.1a6.34,6.34,0,0,1,0,1.38c-.1.13-.79,1.55-.79,1.55l-2.22,1.28,1.38,1.78.07,1.08-2.41,1.09.27,3.57h-1.63l-.56,1.38v.82l-2.51.68v1.2l3.51,3.74,3.73,2.63L123,235.8l1.93,1.26v1.88l1.08,1.77,1.69,1.42,1.82,2.17.87,1.9.53,2,.33,2.21-.2,3.23-.65,3.63-.25,3.14.24,3.34.08,4.07-.61,5-.12,4.44-.76,3.56-.12,2.1.89,2.36.29,2.34-1.07,3.78-.45,3.05.33,3.17.52,3.22,0,4,.89,1.17,1.58.39h3.49l4.51-.78,4.62-1.06,5.72-.78,4.34.55,3.36-.51.94-1v-1.44Z"/><path class="cls-3" d="M135.62,227c-.56-.58-3.11-3.72-3.68-4.47-1-1.31-2.12-2.54-3.15-3.87s-2.61-1.67-3.74-2.93c-.58-.64-2.42-3.05-2.24-4.06-1.42-.53-1.09.53-1.41,1.5-.15.42.09.84-.15,1.21-.37.57-1.21.53-1.72.88-2.67,1.84,1.21,1.5.9,3.46-.94.26-1.71.87-2.63,1.16,0,1.16.33,2.29.27,3.57a1.81,1.81,0,0,0-2.2,2.2c-1.72.43-3.58.18-2.21,2.19a24.31,24.31,0,0,0,2.78,3c1.21,1.21,3,2,4.16,3a27,27,0,0,0,4.52,3.26"/><path class="cls-3" d="M149.12,214.22c0,1.61-2.17,2-3.11,3-.73.81-1.17,1.78-1.88,2.61-1.83,2.16-4.19,3.7-6.41,5.47-2.48,2-4.78,3.81-7.19,5.85-2,1.65-6.52,5-5.48,8.2.49,1.52,3,2.73,3.94,4.09a11.29,11.29,0,0,1,1.69,4c2.26-.58,3.19-3.73,5.41-4.74,2-.91,4.56-2,6.73-2.07s2.34-.28,3.89-2.19,2.87-4.1,4.4-6.13c1.21-1.6,1.28-3.29,1.62-5.24.22-1.19.63-1,0-2.31-.49-1-1.26-1.61-1.74-2.58-.8-1.6-2.33-2.92-1.83-4.67a18.55,18.55,0,0,0,.72-2C150,214.88,149.64,214.22,149.12,214.22Z"/><path class="cls-3" d="M144.8,240.33c-.09,3.47,1.19,8.17,2.22,11.27a7.83,7.83,0,0,0,1.25,2.88,6.59,6.59,0,0,1,1.25,3.11,14.12,14.12,0,0,1-.47,5.58c-.8,4.13,2.18,7.18,3.37,10.85,1.35,4.15,1.33,8.58,2.79,12.72a18.09,18.09,0,0,1,1.27,3.14,18.48,18.48,0,0,1,.32,3.51c0,2.77,1.2,5,1.72,7.62.34,1.69.93,1.54-.51,2.36-2.39,1.37-5.66.3-8.16.38-4.3.14-8.54,1.77-12.8,2.34-1.79.24-6.37.87-7.47-.63-.4-.54-.16-1.88-.16-2.63a22.4,22.4,0,0,0-.63-5.43,14.94,14.94,0,0,1,.67-8,6.51,6.51,0,0,0,.57-3.21c-.31-1.57-1.35-2.48-1.25-4.24s.88-3.37.95-5.14c.07-1.49-.06-3,.15-4.53a30.35,30.35,0,0,0,.46-8.68,26.76,26.76,0,0,1,.54-9.4c.22-1.13.81-2.73.34-3.84a3.93,3.93,0,0,1-.17-3.07"/><path class="cls-3" d="M136.25,214.54c1.5.43,3.28,1,4.85.68,1.3-.3,2.53-.87,3.85-1.14s2.65.17,4,.14"/><path class="cls-3" d="M123,211.73c1.54,0,2.53,2,4,2.11s2.86-.43,4,.38"/></g><path class="cls-3" d="M129.63,304.14c5.46.13,10.91-1.2,16.26-1.87,4.05-.51,8.37-.77,12.34-1.45"/><path class="cls-3" d="M129.76,301.71c6.19,0,11.91-1.35,18-2.35,3.18-.52,6.48-.55,9.62-1"/><path class="cls-3" d="M129.12,299.29c6.6,0,12.88-2.05,19.34-3.07,2.51-.4,5.59.37,8-.38"/><path class="cls-3" d="M128.74,296.22c9.37,0,18.35-3.29,27.7-3.32"/><path class="cls-3" d="M128.74,293.54a82.74,82.74,0,0,1,20.68-3.06c2.11,0,5.21.57,7.21-.14a.66.66,0,0,0-.32.14"/><path class="cls-3" d="M129.25,290.61c2.77-.18,5.43-1.21,8.13-1.76,3.34-.69,6.73-1,10.11-1.39a65.6,65.6,0,0,1,7.29-.17"/><path class="cls-3" d="M130.4,287.54c1.75,0,3.82-.84,5.54-1.28a41.2,41.2,0,0,1,10.49-1.14,46.31,46.31,0,0,0,8.1-.39"/><path class="cls-3" d="M129.89,285c5.7,0,11.3-2.8,17-3.07,2.24-.1,4.51,0,6.75,0"/><path class="cls-3" d="M128.87,282.05c5.12.1,10.54-1.11,15.65-1.6a87.08,87.08,0,0,0,8.73-1.08"/><path class="cls-3" d="M129.76,279c5.52.09,11.07-1.94,16.59-2.18,1.9-.08,4.29.43,6.13-.12"/><path class="cls-3" d="M130.19,277.08c.53-.53,2.42-.75,3.1-.86,1.68-.29,3.39-.34,5.07-.63,2.31-.41,4.62-.94,6.93-1.29,2.14-.33,5.16.27,7.11-.8"/><path class="cls-3" d="M130,274.52c2.76-.3,5.52-1,8.3-1.28a30.22,30.22,0,0,0,6.24-1.36c1.93-.67,4-.83,5.88-1.44"/><path class="cls-3" d="M130,272.05c2.17.15,4.63-1,6.71-1.61,2.59-.7,5.31-.84,7.92-1.47a38.32,38.32,0,0,1,4.86-.75"/><path class="cls-3" d="M130.19,269.67c1.62-.34,3.12-1,4.75-1.36,2.59-.55,5.26-.82,7.88-1.28,1.89-.34,4.13-.1,5.92-.76"/><path class="cls-3" d="M130.53,266.35a10.05,10.05,0,0,0,2.54-.41c1.4-.24,2.8-.47,4.21-.69,2.34-.38,4.71-.49,7-.87a16.73,16.73,0,0,0,4.57-.93h-.24"/><path class="cls-3" d="M130.44,263.46a31.27,31.27,0,0,1,4.2-1,59.11,59.11,0,0,1,10.52-1.23,33.86,33.86,0,0,1,4-.25"/><path class="cls-3" d="M130.61,260.65a10.34,10.34,0,0,0,2.33-.46c1.26-.21,2.54-.33,3.81-.5,2.08-.28,4.18-.35,6.27-.61,1.41-.18,2.75-.22,4.16-.3a7.06,7.06,0,0,0,1.73-.17"/><path class="cls-3" d="M130.19,258.18a3.6,3.6,0,0,0,1.43-.33,35.23,35.23,0,0,1,7-1.41c3.22-.36,6.61-1.11,9.84-1,0,.08-.06.11-.2.09"/><path class="cls-3" d="M130.78,255c4.35-.64,8.42-2.39,12.87-2.56a14,14,0,0,0,3.3-.08"/><path class="cls-3" d="M131.38,252.48c1.58.11,3.36-.93,4.87-1.3a52.82,52.82,0,0,1,6.27-1c1.3-.15,2.66-.19,3.92-.41"/><path class="cls-3" d="M131.55,250.18c1.58.12,3.36-.67,4.88-1.05,1.31-.32,2.62-.58,4-.78,1.53-.23,3.61-1.15,5.12-1"/><path class="cls-3" d="M131.12,248.73c2.94-.31,5.49-2.38,8.22-3.4,1.1-.41,2.25-.66,3.35-1.06a5.75,5.75,0,0,1,2.05-.64"/><path class="cls-3" d="M114.63,227.93a5.68,5.68,0,0,0,2.05-.7c.66-.45.64-.88.89-1.46s1.12-1,1.71-1.47c1-.83.79-1.64.91-2.88s.9-1.34,1.57-2.18a2.51,2.51,0,0,0,.37-2c-.09-1,.12-2.72,1.25-3.2"/><path class="cls-3" d="M116.29,230a6,6,0,0,0,3.49-2.91,39.63,39.63,0,0,1,2.53-3.27,18.62,18.62,0,0,0,2.73-3.88c.36-.81,1.27-1.8,1.34-2.64"/><path class="cls-3" d="M119,232.14c.76-.86,1.36-1.84,2.11-2.7a10.16,10.16,0,0,0,1.68-2.25,11,11,0,0,1,1.11-2.19,9,9,0,0,1,1.64-1.38,14.24,14.24,0,0,0,3.36-4.06"/><path class="cls-3" d="M121.08,233.61c.3-.71,1.26-1.34,1.76-2s1-1.14,1.43-1.76c.55-.79.88-1.7,1.44-2.48a9,9,0,0,1,2.24-2.07,10.35,10.35,0,0,0,3-3c-.07.1-.12.21-.19.31"/><path class="cls-3" d="M122.61,235.08a9.16,9.16,0,0,1,2-1.87,10,10,0,0,0,1.77-1.46c.56-.72.8-1.63,1.35-2.35a27.34,27.34,0,0,1,3.28-3.09c.55-.52,1.09-1,1.66-1.51"/><path class="cls-3" d="M125.36,237.44c1.09.23,1.46,2,2.46,2.46.48.23.83.27,1.13.78s.36,1.14.65,1.67c.47.83,1.25,1.11,1.75,2s.9,1.07.84,2V246"/><path class="cls-3" d="M126.38,235.78a12.84,12.84,0,0,1,2.82,1.53,4.51,4.51,0,0,1,1.32,1.49c.61,1,.95,2.08,1.5,3.08s1.16,1.63,1.7,2.45"/><path class="cls-3" d="M128,233.8a11.51,11.51,0,0,1,3.34,3.4,9.62,9.62,0,0,0,1.38,1.9,10.88,10.88,0,0,1,1.48,2.14,3.49,3.49,0,0,1,.7,1.56"/><path class="cls-3" d="M130.4,232a12.72,12.72,0,0,1,3.9,4.06c.58.81.83,1.67,1.34,2.52a5.79,5.79,0,0,1,.77,1.58c.17.6.36,1.2.5,1.79"/><path class="cls-3" d="M131.93,230.61c3.91,1.71,5.84,7.11,6.64,11"/><path class="cls-3" d="M134.61,228.69c.24.39.68.62.95,1a9,9,0,0,1,.76,1.67,5.54,5.54,0,0,0,1.1,1.41,13,13,0,0,1,1.9,3.71c.64,1.46,1.05,3,1.55,4.47"/><path class="cls-3" d="M142.4,240.44c-.28-1.26-.09-2.57-.43-3.85a15.34,15.34,0,0,0-1.88-4.19,29.46,29.46,0,0,0-3.82-5.56"/><path class="cls-3" d="M138.25,225.18c3.51,2.12,4.29,5.39,5.27,9,.45,1.66,1.75,3.32,1.82,5.06"/><path class="cls-3" d="M140.68,223.84a10.24,10.24,0,0,1,3.38,4.79c.43,1.32.68,2.71,1.09,4,.54,1.69,1.77,3.39,1.78,5.16"/><path class="cls-3" d="M142.72,222.12a6.32,6.32,0,0,1,2,1.95c.54.71,1.22,1.35,1.73,2.09a12.54,12.54,0,0,1,1.65,4.44,27.64,27.64,0,0,0,1,4.16"/><path class="cls-3" d="M144.31,220.27c1,1.13,2.29,2,3.26,3.09a10.26,10.26,0,0,1,1.94,4.11c.24,1,.35,2,.55,2.94a7.11,7.11,0,0,1,.38,1.92"/><path class="cls-3" d="M146.29,218a7,7,0,0,1,2.16,2.92,27.25,27.25,0,0,0,1.65,2.57,13.28,13.28,0,0,1,1.28,2.45,6.83,6.83,0,0,1,.85,2.27"/></svg>