<svg id="Layer_2" data-name="Layer 2" xmlns="http://www.w3.org/2000/svg" xmlns:xlink="http://www.w3.org/1999/xlink" viewBox="0 0 273.7 684.15"><defs><style>.cls-1,.cls-5,.cls-8{fill:none;}.cls-10,.cls-11,.cls-2{fill:#231f20;}.cls-3{fill:#911e40;}.cls-12,.cls-4,.cls-6,.cls-9{fill:#fff;}.cls-10,.cls-11,.cls-5,.cls-6,.cls-8,.cls-9{stroke:#231f20;}.cls-10,.cls-11,.cls-12,.cls-5,.cls-6,.cls-8,.cls-9{stroke-miterlimit:10;}.cls-10,.cls-5,.cls-6{stroke-width:0.5px;}.cls-7{fill:url(#New_Pattern_2);}.cls-12{stroke:#fff;}</style><pattern id="New_Pattern_2" data-name="New Pattern 2" width="22" height="38" patternTransform="translate(31.82 30)" patternUnits="userSpaceOnUse" viewBox="0 0 22 38"><rect class="cls-1" width="22" height="38"/><path class="cls-2" d="M17.29,33.4a4.51,4.51,0,0,0-1.09.3,2.23,2.23,0,0,0,.26-1.08,1.65,1.65,0,0,0-.41-1,2.94,2.94,0,0,0-.32,1,5,5,0,0,0,.35,1.08A2.34,2.34,0,0,0,15,33.52,1.6,1.6,0,0,0,14,34a2.78,2.78,0,0,0,1,.28,5,5,0,0,0,1.05-.37,2.29,2.29,0,0,0-.32,1.05,1.64,1.64,0,0,0,.33,1,2.83,2.83,0,0,0,.39-1,5.06,5.06,0,0,0-.27-1.1,2.45,2.45,0,0,0,1.08.29,1.63,1.63,0,0,0,1-.37A2.66,2.66,0,0,0,17.29,33.4Z"/><path class="cls-2" d="M24.82,40a5.09,5.09,0,0,1,.72,1.77,2.85,2.85,0,0,1-2.08-1.41,3.05,3.05,0,0,1,.1.64,5.15,5.15,0,0,1-.7,1.78,2.9,2.9,0,0,1-.62-1.8,2.58,2.58,0,0,1,0-.39,2.49,2.49,0,0,1-.22.32,5.26,5.26,0,0,1-1.69.9,3,3,0,0,1,.7-1.77,3.1,3.1,0,0,1,.51-.45,3,3,0,0,1-.65.16,5,5,0,0,1-1.84-.51,2.89,2.89,0,0,1,1.72-.79,3.38,3.38,0,0,1,1.06.08A4.65,4.65,0,0,1,21,38a5.11,5.11,0,0,1-.84-1.72,2.92,2.92,0,0,1,1.74.76,3,3,0,0,1,.43.51,2.84,2.84,0,0,1-.14-.65,5,5,0,0,1,.57-1.82,3,3,0,0,1,.74,1.75,3.48,3.48,0,0,1-.13,1.08A4.86,4.86,0,0,1,24,37a5.15,5.15,0,0,1,1.74-.78,2.9,2.9,0,0,1-1.33,2.12,3.22,3.22,0,0,1,.63-.12,5.22,5.22,0,0,1,1.81.64,2.88,2.88,0,0,1-1.78.67,3.17,3.17,0,0,1-1.08-.16A5.19,5.19,0,0,1,24.82,40Zm-1.48-1a.5.5,0,1,0-.5.5A.5.5,0,0,0,23.34,39Z"/><circle class="cls-2" cx="13.88" cy="31.65" r="0.8"/><path class="cls-2" d="M8.2,33.4a4.51,4.51,0,0,0-1.09.3,2.35,2.35,0,0,0,.25-1.08,1.61,1.61,0,0,0-.4-1,2.94,2.94,0,0,0-.32,1A5.65,5.65,0,0,0,7,33.74a2.31,2.31,0,0,0-1.09-.22,1.59,1.59,0,0,0-.95.44,2.78,2.78,0,0,0,1,.28,5.26,5.26,0,0,0,1-.37,2.17,2.17,0,0,0-.33,1.05,1.61,1.61,0,0,0,.34,1,2.83,2.83,0,0,0,.39-1,5.06,5.06,0,0,0-.27-1.1,2.4,2.4,0,0,0,1.07.29,1.59,1.59,0,0,0,1-.37A2.67,2.67,0,0,0,8.2,33.4Z"/><path class="cls-2" d="M2.82,40a5.09,5.09,0,0,1,.72,1.77,2.85,2.85,0,0,1-2.08-1.41,3.05,3.05,0,0,1,.1.64,5.15,5.15,0,0,1-.7,1.78A2.9,2.9,0,0,1,.24,41a2.58,2.58,0,0,1,0-.39,2.49,2.49,0,0,1-.22.32,5.26,5.26,0,0,1-1.69.9,3,3,0,0,1,.7-1.77,3.1,3.1,0,0,1,.51-.45,3,3,0,0,1-.65.16,5,5,0,0,1-1.84-.51,2.89,2.89,0,0,1,1.72-.79,3.38,3.38,0,0,1,1.06.08A4.65,4.65,0,0,1-1,38a5.11,5.11,0,0,1-.84-1.72A2.92,2.92,0,0,1-.12,37a3,3,0,0,1,.43.51,2.84,2.84,0,0,1-.14-.65,5,5,0,0,1,.57-1.82,3,3,0,0,1,.74,1.75,3.48,3.48,0,0,1-.13,1.08A4.86,4.86,0,0,1,2,37a5.15,5.15,0,0,1,1.74-.78,2.89,2.89,0,0,1-.82,1.71,2.87,2.87,0,0,1-.51.41A3.22,3.22,0,0,1,3,38.23a5.22,5.22,0,0,1,1.81.64A2.88,2.88,0,0,1,3,39.54a3.17,3.17,0,0,1-1.08-.16A5.19,5.19,0,0,1,2.82,40ZM1.34,39a.5.5,0,1,0-.5.5A.5.5,0,0,0,1.34,39Z"/><path class="cls-2" d="M19.2,14.4a4.51,4.51,0,0,0-1.09.3,2.35,2.35,0,0,0,.25-1.08,1.61,1.61,0,0,0-.4-1,2.94,2.94,0,0,0-.32,1A5.65,5.65,0,0,0,18,14.74a2.31,2.31,0,0,0-1.09-.22,1.59,1.59,0,0,0-1,.44,2.78,2.78,0,0,0,1,.28A5.26,5.26,0,0,0,18,14.87a2.17,2.17,0,0,0-.33,1.05,1.61,1.61,0,0,0,.34,1,2.83,2.83,0,0,0,.39-1,5.06,5.06,0,0,0-.27-1.1,2.4,2.4,0,0,0,1.07.29,1.59,1.59,0,0,0,1-.37A2.67,2.67,0,0,0,19.2,14.4Z"/><path class="cls-2" d="M18.6,25.15a5.26,5.26,0,0,0-1,.29,2.17,2.17,0,0,0,.24-1,1.52,1.52,0,0,0-.38-.91,2.74,2.74,0,0,0-.3.95,5.13,5.13,0,0,0,.32,1,2.11,2.11,0,0,0-1-.21,1.54,1.54,0,0,0-.9.41,2.54,2.54,0,0,0,1,.27,4.76,4.76,0,0,0,1-.35,2.07,2.07,0,0,0-.31,1,1.51,1.51,0,0,0,.32.94,2.62,2.62,0,0,0,.37-.93,4.66,4.66,0,0,0-.26-1,2.18,2.18,0,0,0,1,.28,1.53,1.53,0,0,0,.93-.36A2.74,2.74,0,0,0,18.6,25.15Z"/><path class="cls-2" d="M6.39,25.15a5.16,5.16,0,0,0-1,.29,2.17,2.17,0,0,0,.24-1,1.52,1.52,0,0,0-.38-.91,2.74,2.74,0,0,0-.3.95,4.59,4.59,0,0,0,.33,1,2.13,2.13,0,0,0-1-.21,1.54,1.54,0,0,0-.9.41,2.54,2.54,0,0,0,1,.27,4.76,4.76,0,0,0,1-.35,2.07,2.07,0,0,0-.31,1,1.51,1.51,0,0,0,.32.94,2.62,2.62,0,0,0,.37-.93,4.66,4.66,0,0,0-.26-1,2.21,2.21,0,0,0,1,.28,1.53,1.53,0,0,0,.93-.36A2.75,2.75,0,0,0,6.39,25.15Z"/><path class="cls-2" d="M6.29,14.4a4.51,4.51,0,0,0-1.09.3,2.23,2.23,0,0,0,.26-1.08,1.65,1.65,0,0,0-.41-1,2.94,2.94,0,0,0-.32,1,5,5,0,0,0,.35,1.08A2.34,2.34,0,0,0,4,14.52,1.6,1.6,0,0,0,3,15a2.78,2.78,0,0,0,1,.28,5,5,0,0,0,1-.37,2.29,2.29,0,0,0-.32,1.05,1.64,1.64,0,0,0,.33,1,2.83,2.83,0,0,0,.39-1,5.06,5.06,0,0,0-.27-1.1,2.45,2.45,0,0,0,1.08.29,1.63,1.63,0,0,0,1-.37A2.66,2.66,0,0,0,6.29,14.4Z"/><path class="cls-2" d="M13.82,21a5.09,5.09,0,0,1,.72,1.77,2.85,2.85,0,0,1-2.08-1.41,3.05,3.05,0,0,1,.1.64,5.15,5.15,0,0,1-.7,1.78,2.9,2.9,0,0,1-.62-1.8,2.58,2.58,0,0,1,0-.39,2.49,2.49,0,0,1-.22.32,5.26,5.26,0,0,1-1.69.9,3,3,0,0,1,.7-1.77,3.1,3.1,0,0,1,.51-.45,3,3,0,0,1-.65.16,5,5,0,0,1-1.84-.51,2.89,2.89,0,0,1,1.72-.79,3.38,3.38,0,0,1,1.06.08A4.65,4.65,0,0,1,10,19a5.11,5.11,0,0,1-.84-1.72,2.92,2.92,0,0,1,1.74.76,3,3,0,0,1,.43.51,2.84,2.84,0,0,1-.14-.65,5,5,0,0,1,.57-1.82,3,3,0,0,1,.74,1.75,3.48,3.48,0,0,1-.13,1.08A4.86,4.86,0,0,1,13,18a5.15,5.15,0,0,1,1.74-.78,2.9,2.9,0,0,1-1.33,2.12,3.22,3.22,0,0,1,.63-.12,5.22,5.22,0,0,1,1.81.64,2.88,2.88,0,0,1-1.78.67,3.17,3.17,0,0,1-1.08-.16A5.19,5.19,0,0,1,13.82,21Zm-1.48-1a.5.5,0,1,0-.5.5A.5.5,0,0,0,12.34,20Z"/><circle class="cls-2" cx="19.81" cy="27.53" r="0.8"/><circle class="cls-2" cx="2.88" cy="12.65" r="0.8"/><path class="cls-2" d="M17.39,6.15a5.16,5.16,0,0,0-1,.29,2.17,2.17,0,0,0,.24-1,1.52,1.52,0,0,0-.38-.91,2.74,2.74,0,0,0-.3,1,4.59,4.59,0,0,0,.33,1,2.13,2.13,0,0,0-1-.21,1.54,1.54,0,0,0-.9.41,2.54,2.54,0,0,0,1,.27,4.76,4.76,0,0,0,1-.35,2.07,2.07,0,0,0-.31,1,1.51,1.51,0,0,0,.32.94,2.62,2.62,0,0,0,.37-.93,4.66,4.66,0,0,0-.26-1,2.21,2.21,0,0,0,1,.28,1.53,1.53,0,0,0,.93-.36A2.75,2.75,0,0,0,17.39,6.15Z"/><path class="cls-2" d="M24.82,2a5.09,5.09,0,0,1,.72,1.77,2.9,2.9,0,0,1-1.69-.88,2.9,2.9,0,0,1-.39-.53,3.05,3.05,0,0,1,.1.64,5.15,5.15,0,0,1-.7,1.78A2.9,2.9,0,0,1,22.24,3a2.58,2.58,0,0,1,0-.39,2.49,2.49,0,0,1-.22.32,5.26,5.26,0,0,1-1.69.9,3,3,0,0,1,.7-1.77,3.1,3.1,0,0,1,.51-.45,3,3,0,0,1-.65.16,5,5,0,0,1-1.84-.51A2.89,2.89,0,0,1,20.81.46a3.38,3.38,0,0,1,1.06.08A4.65,4.65,0,0,1,21,0a5.11,5.11,0,0,1-.84-1.72A2.92,2.92,0,0,1,21.88-1a3,3,0,0,1,.43.51,2.84,2.84,0,0,1-.14-.65,5,5,0,0,1,.57-1.82,3,3,0,0,1,.74,1.75A3.48,3.48,0,0,1,23.35-.1,4.86,4.86,0,0,1,24-1a5.15,5.15,0,0,1,1.74-.78,2.89,2.89,0,0,1-.82,1.71,2.87,2.87,0,0,1-.51.41A3.22,3.22,0,0,1,25,.23,5.22,5.22,0,0,1,26.8.87,2.88,2.88,0,0,1,25,1.54a3.17,3.17,0,0,1-1.08-.16A5.19,5.19,0,0,1,24.82,2ZM23.34,1a.5.5,0,1,0-.5.5A.5.5,0,0,0,23.34,1Z"/><path class="cls-2" d="M7.6,6.15a5.26,5.26,0,0,0-1,.29,2.17,2.17,0,0,0,.24-1,1.52,1.52,0,0,0-.38-.91,2.74,2.74,0,0,0-.3,1,5.13,5.13,0,0,0,.32,1,2.11,2.11,0,0,0-1-.21,1.54,1.54,0,0,0-.9.41,2.54,2.54,0,0,0,1,.27,4.76,4.76,0,0,0,1-.35,2.07,2.07,0,0,0-.31,1,1.51,1.51,0,0,0,.32.94,2.62,2.62,0,0,0,.37-.93,4.66,4.66,0,0,0-.26-1,2.18,2.18,0,0,0,1,.28,1.53,1.53,0,0,0,.93-.36A2.74,2.74,0,0,0,7.6,6.15Z"/><path class="cls-2" d="M2.82,2a5.09,5.09,0,0,1,.72,1.77A2.9,2.9,0,0,1,1.85,2.9a2.9,2.9,0,0,1-.39-.53,3.05,3.05,0,0,1,.1.64,5.15,5.15,0,0,1-.7,1.78A2.9,2.9,0,0,1,.24,3a2.58,2.58,0,0,1,0-.39,2.49,2.49,0,0,1-.22.32,5.26,5.26,0,0,1-1.69.9,3,3,0,0,1,.7-1.77A3.1,3.1,0,0,1-.42,1.6a3,3,0,0,1-.65.16,5,5,0,0,1-1.84-.51A2.89,2.89,0,0,1-1.19.46,3.38,3.38,0,0,1-.13.54,4.65,4.65,0,0,1-1,0a5.11,5.11,0,0,1-.84-1.72A2.92,2.92,0,0,1-.12-1a3,3,0,0,1,.43.51,2.84,2.84,0,0,1-.14-.65A5,5,0,0,1,.74-2.93a3,3,0,0,1,.74,1.75A3.48,3.48,0,0,1,1.35-.1,4.86,4.86,0,0,1,2-1a5.15,5.15,0,0,1,1.74-.78A2.89,2.89,0,0,1,2.87-.06a2.87,2.87,0,0,1-.51.41A3.22,3.22,0,0,1,3,.23,5.22,5.22,0,0,1,4.8.87,2.88,2.88,0,0,1,3,1.54a3.17,3.17,0,0,1-1.08-.16A5.19,5.19,0,0,1,2.82,2ZM1.34,1a.5.5,0,1,0-.5.5A.5.5,0,0,0,1.34,1Z"/><circle class="cls-2" cx="8.81" cy="8.53" r="0.8"/></pattern></defs><title>posh-lade</title><rect class="cls-3" x="0.18" width="273.7" height="684.15"/><g id="Right-hand"><path class="cls-4" d="M89.34,407.92l.11,1.23.18,2.64.14,2.13v2.61l.22,3.16.23,2.37.84,2.81.8,2.32.79,1.46,1.42,1.42.93,1.14.91.94.9.84.53.24a4.14,4.14,0,0,0,.43-.2s.15-.41.15-.41l-.2-.61-.5-1.08.39.31.44.37.59.53.72.63.61.46.52.14.68,0,.42-.17v-.29l-.23-.47s-.41-.75-.39-.77a5.93,5.93,0,0,1,.56.46l.36.42.53.28.46,0a2.69,2.69,0,0,0,.41-.1s.26-.29.26-.29v-.38l-.43-.46-.44-.48-.42-.52.9.53.68.31s.71.21.73.19l.43-.15.46-.31.13-.27,0-.49-.24-.36-1-1.23-.72-1.17-.46-1.06-.7-1.7-.44-1.1-.29-.77-.24-.9-.24-1.17-.18-1.18s0-1,0-1,0-.9,0-.9a2.59,2.59,0,0,1,.34-.3l.44-.05,1.13.35,1,.31,1,.24,1.13-.06s.64-.26.68-.3.48-.54.48-.56,0-.56,0-.56l-.39-.39-.62-.19-1.15-.21-.87-.24-.62-.29-1-.46-.76-.6-.46-.76-.13-.87-.24-1.66-.31-1.65-.18-1.06-.19-1.83-11.21-.57Z"/><path d="M107.15,416.57a2.53,2.53,0,0,0-1.35-.39c-.19,0-.39-.05-.58-.09a2,2,0,0,1-.41-.13,3.93,3.93,0,0,0-.5-.26c-.15,0-.31,0-.46-.09a2,2,0,0,1-.43-.23c-.33-.21-.69-.36-1-.56a1.38,1.38,0,0,1-.58-.64c-.07-.16-.08-.34-.15-.51a1.31,1.31,0,0,1-.16-.47h0a1.21,1.21,0,0,1-.09-.36c-.17-1.07-.33-2.13-.5-3.2a17.68,17.68,0,0,1-.2-2.62,15,15,0,0,0-.22-1.88l-.24-.06c0,.34.07.67.1,1,.08,1,.11,2,.22,3,.08.75.24,1.5.36,2.24s.23,1.3.3,1.95a2.38,2.38,0,0,0,1.58,2.06,10,10,0,0,0,2.68.91,4.78,4.78,0,0,1,1.23.34,1.08,1.08,0,0,1,.5.51c0,.12-.12.38-.26.5a2.45,2.45,0,0,1-2.12.58,24.6,24.6,0,0,1-2.51-.7,1.44,1.44,0,0,0-.92-.07.7.7,0,0,0-.48.71,14.82,14.82,0,0,0,1,5.59,39,39,0,0,0,1.63,3.89,20.62,20.62,0,0,0,1.78,2.6c.36.5.27.92-.3,1.16a1.65,1.65,0,0,1-1.34-.13,5.49,5.49,0,0,1-2.87-2.82c-.29-.64-.61-1.27-.91-1.9l-.14,0a.71.71,0,0,0,0,.29c.25.54.47,1.09.77,1.6a12,12,0,0,0,1.11,1.63c.47.59,1,1.11,1.54,1.67a1.14,1.14,0,0,1,.26.42.44.44,0,0,1-.07.35,1,1,0,0,1-1.46-.22c.46.14.89.31,1.33-.05a1.92,1.92,0,0,0-.26-.32c-.33-.27-.67-.54-1-.78s-.55,0-.8.09a1.18,1.18,0,0,0-.27.22c-.21-.23-.43-.45-.62-.68-.52-.64-1-1.27-1.54-1.93s-.72-1.05-1.08-1.58a3.21,3.21,0,0,0-.19-.31s-.11,0-.16,0,0,.13,0,.16a15,15,0,0,0,1.4,2.16c.38.36.66.82,1,1.21a11.6,11.6,0,0,1,1.74,2.27c.19.36.15.41-.24.5a1.84,1.84,0,0,1-1.68-.44,16.23,16.23,0,0,1-3-3.1c-.15-.21-.28-.42-.44-.62s-.16-.06-.22-.09c.61,1,1.2,2,1.78,3a.85.85,0,0,1,.15.4c0,.21,0,.56,0,.6a.92.92,0,0,1-.71,0,4.53,4.53,0,0,1-1-.83c-.9-1-1.72-2.05-2.68-3a7.73,7.73,0,0,1-2-3.85c-.21-.78-.53-1.53-.75-2.32-.16-.6-.23-1.22-.34-1.84a7.58,7.58,0,0,1-.13-.81c-.11-1.35-.23-2.7-.29-4.05,0-.83,0-1.67,0-2.51,0-.56-.09-1.13-.12-1.7-.11-1.7-.25-3.4-.32-5.11,0-.57,0-1.13-.05-1.7l-.22.13c.07,1.64.14,3.28.23,4.92.07,1.19.2,2.39.27,3.58,0,.54,0,1.08,0,1.62,0,1,.06,2,.12,3,0,.83.14,1.66.22,2.5a11.45,11.45,0,0,0,.7,3.05c.31.84.54,1.72.82,2.57A6,6,0,0,0,93,429.13c.71.72,1.35,1.51,2,2.26.43.47.87.94,1.34,1.37a7.28,7.28,0,0,0,.87.59h.06a1,1,0,0,0,.29-.08h0c.45-.34.51-.48.35-.91s-.26-.54-.38-.81a2.44,2.44,0,0,1-.1-.24.41.41,0,0,1,.28.12c.56.5,1.11,1,1.68,1.5a2,2,0,0,0,2,.42c.33-.12.37-.18.22-.5-.07-.16-.16-.31-.24-.47l.08-.06.3.24a1.37,1.37,0,0,0,1.38.31.58.58,0,0,0,.34-.95c-.11-.15-.25-.28-.37-.42l-.36-.39a3.17,3.17,0,0,1,.65.27,2,2,0,0,0,1.35.3.94.94,0,0,0,.61-1.62,12.07,12.07,0,0,1-2.32-3.84c-.3-.87-.7-1.69-1-2.54a12.23,12.23,0,0,1-.72-3c0-.42-.12-.83-.18-1.27h.09a.84.84,0,0,1,0-.17,2.13,2.13,0,0,1,0-1.25c.26-.51.92-.23,1.33-.1a16.29,16.29,0,0,0,2.36.68,3.11,3.11,0,0,0,1.25-.09,2.23,2.23,0,0,0,.86-.35A1.06,1.06,0,0,0,107.15,416.57Z"/><path d="M101.25,431.47c.47-.29,1.06,0,1.63.71C102.48,432.42,101.62,432.05,101.25,431.47Z"/><path d="M103.38,430.68c-.71-.43-.7-.45-.11-1.05.28-.28.4-.3.73-.06s.53.43.83.6a.45.45,0,0,1,.19.64c-.07.17-.29.27-.48.44A10.46,10.46,0,0,1,103.38,430.68Zm.71.17a.6.6,0,0,0,.32,0c.14,0,.36-.09.37-.17a.55.55,0,0,0-.14-.44,4.68,4.68,0,0,0-.71-.53c-.29-.19-.6,0-.85.52Z"/><path d="M100.85,432.28a3.86,3.86,0,0,0-.12.38c0,.24-.22.35-.39.26a3.87,3.87,0,0,1-1.7-1.23C99.2,430.9,100.31,431.52,100.85,432.28Zm-.51.43c.18.09.22-.07.2-.22a1.19,1.19,0,0,0-.91-.88c-.23,0-.5-.17-.7.14A3.45,3.45,0,0,0,100.34,432.71Z"/><path d="M105,417.87c-.37,0-.56-.21-.54-.56s.29-.7.63-.63a11.16,11.16,0,0,1,1.13.32c.18.06.25.19.12.39a1.13,1.13,0,0,1-1,.46Zm.09-1c-.26,0-.35.13-.38.35s0,.38.29.39a1.33,1.33,0,0,0,1.23-.43C105.84,417.09,105.48,417,105.13,416.9Z"/><path d="M96.66,432.3a6.29,6.29,0,0,1-.92-.79.5.5,0,0,1-.1-.46c0-.11.27-.19.42-.21a1.9,1.9,0,0,1,1.15.88.06.06,0,0,1,0,.06l-.1.59C97,432.35,96.78,432.39,96.66,432.3Zm-.39-1.2a1.08,1.08,0,0,0-.43.07c.06.11.08.25.17.33.26.24.55.46.83.69A1.16,1.16,0,0,0,96.27,431.1Z"/><path class="cls-2" d="M101.25,431.47c.37.58,1.23.95,1.63.71C102.31,431.44,101.72,431.18,101.25,431.47Z"/><path class="cls-2" d="M103.08,430.28l1,.57a.6.6,0,0,0,.32,0c.14,0,.36-.09.37-.17a.55.55,0,0,0-.14-.44,4.68,4.68,0,0,0-.71-.53C103.64,429.57,103.33,429.75,103.08,430.28Z"/><path class="cls-2" d="M98.93,431.75a3.45,3.45,0,0,0,1.41,1c.18.09.22-.07.2-.22a1.19,1.19,0,0,0-.91-.88C99.4,431.58,99.13,431.44,98.93,431.75Z"/><path class="cls-2" d="M106.27,417.21c-.43-.12-.79-.24-1.14-.31s-.35.13-.38.35,0,.38.29.39A1.33,1.33,0,0,0,106.27,417.21Z"/><path class="cls-2" d="M96.84,432.19a1.16,1.16,0,0,0-.57-1.09,1.08,1.08,0,0,0-.43.07c.06.11.08.25.17.33C96.27,431.74,96.56,432,96.84,432.19Z"/></g><path class="cls-4" d="M153.62,65.34l-44.8,15.32-8.23,18.13L104,111.17l.48.69v1.37l-1.65,1.26-1.41,1-.87,1.08-.37,1.83a19,19,0,0,0,.37,3c.18.13,1.46,4.47,1.46,4.47l.59,1.66,2.2.85,2.25-.26.79,1.36.81,5.45,2.55,15.75,3.7,15.15,3.62,11.44,5.15,14.6,4.81,13.15s6.17,10.83,6.29,10.73,4.26,4.71,4.26,4.71a27.15,27.15,0,0,0,2.3,1.45c.17,0,4.21.13,4.34,0s1.91-2.11,2.08-2.25,3.12-4.28,3.12-4.28l7.31-11.79,4.85-12.49,7.62-24.24,2.93-13.84,3.24-14.9,2.42-11.7s.9-1.83,1.36-2,2.94-.23,3.07-.39,3-7,3.1-7.52-2.29-9.66-2.29-9.66l-2.3-7.23s-2.47-21.2-2.56-21.54-6-8.81-6-8.81l-9-3.23Z"/><g id="right-leg"><polygon class="cls-4" points="127.63 545.82 127.45 561.56 127.45 580.63 127.54 586.51 140.9 586.51 140.9 583.14 141.82 579.69 142.26 577.82 142.54 575.59 143.02 572.29 143.6 569.64 144.41 566.93 145.33 564.17 146.21 561.17 146.71 558.59 147.03 556.77 146.96 553.02 146.71 549.31 145.5 546.45 127.63 545.82"/><path class="cls-5" d="M127.51,584.26c0-10.61-.25-27.6.29-38.26"/><path class="cls-5" d="M140.9,584.54v.26c0-3,1.25-5.33,1.53-8.17a41.09,41.09,0,0,1,2-9.7A46.11,46.11,0,0,0,147,556.77c.21-1.93-.7-7.82.76-8.74"/></g><g id="left-leg"><polygon class="cls-4" points="153.22 549.56 153.78 553.74 153.99 556.12 154.21 558.93 154.54 561.22 154.93 563.33 155.27 566.93 155.86 571.95 156.41 575.28 157.56 580.8 158.64 584.86 171.28 584.26 171.56 581.62 172.07 577.98 172.75 572.75 173.38 566.16 173.85 557.99 174.06 553.02 174.35 546 173.41 542.67 160.9 542.67 153.22 549.56"/><path class="cls-5" d="M174.35,550.33c-.24,2.82-.49,5.76-.51,8.69,0,3.16-1.05,14-1.47,16.84-.37,2.5-.64,4.66-1.09,7.66"/><path class="cls-5" d="M158.39,583.72c-1.31-3.71-2.49-11.31-2.85-13.94-.39-2.82-.24-4.93-.85-7.83-.7-3.31-.45-3.94-1.07-9.85"/></g><g id="right-shoe"><path class="cls-2" d="M136.18,584.56l-5.72-.2-3.28-.1-2.62-.34h-1l-.54.32v.55l.79,1.18.76,1.22L125,589l0,2.71.24,2.69,0,1.66-.28,1.88,0,3.55-.22,5.94-.19,3.72-.54,2.35-.72,1.29-.76.48-.38.52.15.63.23.28-.07.87-.89,2.74-1.9,3-1.69,2.77-3.59,3.7-3.6,2.65S107.22,634,107,634s-1.89,1.12-1.89,1.12L104,636.59,103.6,638l-.13.54-.47.83.25.57a4.75,4.75,0,0,0,.92.54c.18,0,2.1.55,2.1.55l3.11.44,4.87.53,4.18.44,4.3.26,3.82-.24,2.15-.35,1.42-.86,1.21-1.31.31-.31,1.14.21,2.38.2,1.34-.07,2.12-.34,2.66-.57.8-.23.11-6.17-.11-3.44,0-.84.19-.78-.06-1.07-.46-1.82-1-2.71-.65-3.4-.19-3.15-.35-1.36-.1-.77s0-1,.12-1.42.38-2.23.42-2.51.25-3.06.25-3.06l.39-2.5.6-5.45.66-5,.58-3.24.47-2.18.8-1.37.95-1.9-.77-.12-1.85-.11-3.47.06Z"/><path class="cls-4" d="M141.85,628.76l-.88,1.09-.77.47-1.9.71-1.65.62-1.79,1.18-1.6,1.42-1,1.26L131,637.42l-1.49,1.76-1.42.84-1.69.39-4.2-.16-6-.23-3.92-.42-5.16-.42-2.89-.56-.44-.34-.6.51-.21.55.25.57,1.24.61,2,.51,2.59.36,3.2.36,3.07.33,2.58.31,5.31.25,3.33-.21,1.81-.23,1.89-1.12.64-.63.75-1,.92.33,2.6.2,1.34-.07,2.12-.34,2.84-.62.62-.18.09-5.24c0-.12-.06-3.65-.07-3.78S141.85,628.76,141.85,628.76Z"/><path class="cls-5" d="M144.69,584.68c-.47,1.45-1.69,2.81-1.93,3.75s-.27,1.81-.44,2.72c-.44,2.25-.68,3.5-.88,5.38s-.36,2.81-.56,5.3c-.17,2.18-.69,3.79-.78,6.13a28.41,28.41,0,0,1-.55,4,5,5,0,0,0,.35,3.12"/><path class="cls-5" d="M139.9,615.12c0,1,0,2.3.11,2.94.21,1.44.21,1.44.44,2.91a21.82,21.82,0,0,0,1.09,3.24c.3,1,.94,2.42.62,3.7-.63,2.46-2.54,2.61-4.92,3.47a13.75,13.75,0,0,0-4.87,3.9c-1.05,1.51-1.75,3.33-3.42,4.33-2.12,1.28-4.35.75-6.71.64-1.67-.08-3.32-.12-5-.12s-3.16-.32-4.78-.46-3.53-.31-5.31-.49c-1.41-.14-4.13-.21-3.44-2a8.13,8.13,0,0,1,1.56-2.11c.94-1,2-1,3.31-1.47a17.26,17.26,0,0,0,5.66-3.51c2.12-2.08,3.1-2.76,4.33-4.66.53-.81,1-1.89,1.61-2.67A12.94,12.94,0,0,0,121.8,620a8.39,8.39,0,0,0,.81-3.4"/><path class="cls-6" d="M123,615c1.41.51,4.9,1,6.41.49,0,.19.12.08-.08.23-.42.65-.31.56-.7,1.22a38.28,38.28,0,0,1-4.54-.27c-.36,0-1.44.07-1.67-.23C122,615.92,122.5,615.29,123,615Z"/><path class="cls-5" d="M142.06,628.35c0,1.71.19,3.95.11,5.67-.09,1.88,0,3-.09,4.79a41.6,41.6,0,0,1-5.7,1.15,46.69,46.69,0,0,1-.31-5.23c-3.8,1.45-4.2,7.42-8.84,7.66-1.6.09-2.9.23-4.5.28s-3.32-.24-4.82-.28c-1.8,0-3-.43-4.64-.5s-2.79-.3-4.52-.54c-.88-.13-1.73-.46-2.61-.5a8.48,8.48,0,0,1-2.38-.6c-1.16-.51-.87-1.46,0-2"/><path class="cls-6" d="M130.09,615.52c-1.08-.39-1.6,1.77-1.82,2.47.6,0,1.2-.22,1.82-.23a4,4,0,0,0,0-2.27"/><path class="cls-5" d="M131.64,639.6a29.87,29.87,0,0,0,4.68.42"/><path class="cls-6" d="M137.71,615.58c-.31,1,.1,2-.11,3-.33,1.6-1.09,1-2.43.54a9.63,9.63,0,0,1-2.56-1c-1.17-.82-.26-1.3-.3-2.55C133.88,615.1,136,615.92,137.71,615.58Z"/><path class="cls-6" d="M130.07,617.74c.5,1.13.76.42,2-.14.48.39.9.94.79,1-.62.6-3.59,1.5-4.18.15a2.47,2.47,0,0,1-.41-.79"/><path class="cls-6" d="M133.68,615.43c-.4,0-.1,0-.59,0,.32-.19-.91-1.17-1.69-1.31-1-.16-2.5.73-2,1.34.1.11,2.45-.24,3,.15"/><path class="cls-5" d="M123.22,615a7.73,7.73,0,0,0,1.46-4.42c.15-1.82.11-3,.17-4.76.11-3.17.2-3.64.2-5.84a14.63,14.63,0,0,1,.2-3.45c.32-1.33-.39-5.07-.23-6.33a6,6,0,0,0-.79-3.7"/><path class="cls-5" d="M133.57,615.48c.2.31.06.94.06,1.29a2,2,0,0,1-.11.76,5.25,5.25,0,0,1-.38.58,2.09,2.09,0,0,1-.3.47"/><path class="cls-5" d="M144.69,584.68a32,32,0,0,0-5.8-.21,50.4,50.4,0,0,1-7.27,0,35.2,35.2,0,0,0-3.71-.12c-.78,0-3.74-.64-4.47-.37-1.48.54,1.09,2.32,1.2,3.38"/></g><g id="left-shoe"><path class="cls-2" d="M161.73,584.12l5.72-.2,3.28-.1,2.62-.34h1l.54.32v.55l-.79,1.17-.76,1.22-.43,1.84,0,2.71-.24,2.68-.05,1.66.28,1.88,0,3.55.22,5.93.19,3.73.54,2.35.72,1.29.76.47.38.52-.15.64-.24.27.08.88.89,2.74,1.9,3,1.69,2.77,3.59,3.7,3.6,2.65s3.64,1.49,3.82,1.54,1.89,1.12,1.89,1.12l1.16,1.44.39,1.37.13.55.47.82-.25.57a4.29,4.29,0,0,1-.92.54c-.19,0-2.1.55-2.1.55l-3.11.44-4.87.53-4.18.44-4.3.26-3.82-.23-2.15-.35-1.42-.86-1.21-1.32-.31-.31-1.14.21-2.38.21-1.34-.08-2.12-.34-2.67-.57-.8-.22-.1-6.17.11-3.44,0-.84-.19-.78.06-1.07.46-1.81,1-2.72.65-3.4L158,615l.35-1.36.1-.77s0-1-.12-1.43-.38-2.22-.42-2.51-.25-3-.25-3l-.39-2.5-.61-5.44-.65-5-.58-3.24-.47-2.19-.8-1.36-.95-1.9.77-.13,1.85-.11,3.47.07Z"/><path class="cls-4" d="M155.9,627.8l.88,1.08.77.48,1.9.7,1.65.62,1.79,1.19,1.6,1.42,1,1.26,1.18,1.9,1.49,1.77,1.42.83,1.69.39,4.2-.16,6-.23,3.91-.42,5.17-.41,2.89-.57.44-.33.6.51.21.54-.25.57-1.24.62-2,.5-2.59.37-3.2.36-3.07.33-2.58.3-5.31.25-3.33-.2-1.81-.23-1.89-1.12-.64-.63-.75-1-.92.32-2.6.21-1.35-.08-2.11-.34-2.84-.62-.63-.17-.08-5.24c0-.13.06-3.66.07-3.79S155.9,627.8,155.9,627.8Z"/><path class="cls-5" d="M153.39,583.91c.48,1.44,1.7,2.8,1.93,3.74s.27,1.81.45,2.72a52.61,52.61,0,0,1,.87,5.38c.2,1.93.36,2.81.56,5.3.18,2.18.69,3.79.78,6.13a27.42,27.42,0,0,0,.56,4.05,5.07,5.07,0,0,1-.35,3.11"/><path class="cls-5" d="M158.19,614.34c0,1,0,2.3-.12,2.94-.2,1.44-.2,1.44-.44,2.91a20.78,20.78,0,0,1-1.08,3.24c-.3,1.05-1,2.42-.62,3.7.62,2.46,2.54,2.61,4.91,3.47a13.67,13.67,0,0,1,4.87,3.91c1,1.5,1.75,3.32,3.42,4.32,2.13,1.28,4.35.75,6.71.64,1.68-.08,3.32-.12,5-.12s3.16-.32,4.79-.46,3.53-.31,5.3-.49c1.41-.14,4.13-.21,3.45-2a8.17,8.17,0,0,0-1.57-2.11c-.93-1-2.05-1-3.31-1.47a17.36,17.36,0,0,1-5.66-3.51c-2.11-2.08-3.1-2.76-4.33-4.66-.52-.81-1-1.89-1.61-2.67a13.37,13.37,0,0,1-1.62-2.73,8.24,8.24,0,0,1-.8-3.4"/><path class="cls-6" d="M175.13,614.23c-1.41.51-4.89,1-6.41.49,0,.19-.11.08.08.23.42.65.32.56.7,1.22a38,38,0,0,0,4.54-.27c.36,0,1.44.07,1.67-.23C176.13,615.14,175.58,614.51,175.13,614.23Z"/><path class="cls-5" d="M156,627.58c0,1.7-.19,3.94-.11,5.66.08,1.88,0,3,.08,4.79a41.91,41.91,0,0,0,5.7,1.15A44.43,44.43,0,0,0,162,634c3.81,1.45,4.2,7.42,8.84,7.66,1.6.09,2.91.23,4.5.28s3.33-.24,4.82-.28c1.8-.05,3-.43,4.65-.5s2.79-.3,4.51-.54c.89-.13,1.73-.46,2.62-.5a8.41,8.41,0,0,0,2.37-.6c1.16-.51.87-1.46,0-2"/><path class="cls-6" d="M168,614.74c1.09-.39,1.6,1.78,1.83,2.47-.61,0-1.21-.22-1.82-.23a4,4,0,0,1,0-2.27"/><path class="cls-5" d="M166.44,638.82a29.77,29.77,0,0,1-4.68.42"/><path class="cls-6" d="M160.38,614.81c.3,1-.1,2,.11,3,.32,1.6,1.08,1,2.43.54a9.63,9.63,0,0,0,2.56-1c1.16-.81.25-1.3.3-2.55C164.21,614.32,162.07,615.15,160.38,614.81Z"/><path class="cls-6" d="M168,617c-.49,1.13-.75.42-2-.14-.49.39-.91.94-.8,1,.63.6,3.59,1.51,4.19.15a2.47,2.47,0,0,0,.41-.79"/><path class="cls-6" d="M164.41,614.65c.4,0,.09,0,.59,0-.33-.19.91-1.17,1.68-1.31,1-.16,2.5.73,2,1.34-.1.11-2.44-.24-3,.15"/><path class="cls-5" d="M174.87,614.23a7.66,7.66,0,0,1-1.46-4.42c-.16-1.82-.11-3-.17-4.76-.12-3.17-.21-3.64-.21-5.84a14.66,14.66,0,0,0-.2-3.45c-.32-1.33.4-5.07.23-6.33a6,6,0,0,1,.8-3.7"/><path class="cls-5" d="M153.39,583.91a31.18,31.18,0,0,1,5.8-.22,50.4,50.4,0,0,0,7.27,0,35.28,35.28,0,0,1,3.71-.12c.78,0,3.74-.63,4.47-.37,1.48.54-1.08,2.32-1.19,3.38"/><path class="cls-5" d="M164.51,614.7c-.19.31,0,.94,0,1.29a2.18,2.18,0,0,0,.1.76c.09.21.27.38.38.58a2.13,2.13,0,0,0,.31.47"/></g><g id="Dress"><path class="cls-4" d="M126.53,242.37l-4.88,1.76-7.66,3.2-12.17,4.83c-.1,0-2.15,1.21-2.15,1.21l-1.42,2.47-1,4-.54,3.51v3.15L96.67,271l-.48,3.8-.61,2.46.12,3.05V284l-.5,5.47-1,7.53-1.13,5.7.08,3.07L92.86,310l-.41,6.24-.66,7.16-.6,8.25-.58,5.26-.67,3.79v4.79l.38,3.45,0,2.87-.12,3.32v2.61l.24,2.05,0,2.36-.07,2.94.29,9.23.09,4.49-.38,5.09-.38,7.87-.18,6.58-.62,5.26-.59,3.58,1.06.63,3.51.93,6.16.4,1.53-.09,1-.85.57-3.87.51-2.28.74-3.08-.55-5.23-.19-2.05.74-2.36,0-3.06.39-3.83.75-3.33.46-6.25,1.21-4.5.19-3.79.92-3-.09-4.73.64-5,1.23-4.47.69-8.55.25-8.43.7-5.1-.38-4.85.44-7.15.71-4.15.64-2.68.25-5.75s-.12-3.25-.06-3.44,1-4.75,1-4.75l.61,2.5.4,3.14-.12,2.74-.32,3.22.17,2.71.94,3.83,1.21,4.34.68,3.18.16,2.38-.07,5.94.18,4.14.19,5L117,338l-1.42,2-.74,1.9L113,348.49,110.49,358l-.76,5.32-.31,2.4-.54,1.79-.32,2.53v3.51l-.77,4.21-.56,3.45-.32,5-.29,7.41-.87,5.41-.5,2.67-.65,2-.38,2.31.11,2.31.49,2.54-.16,1.6-1,3.5-.57,4-1.2,6.41-.69,3.3,0,2.52.42,3.71-.52,1.91-.82,2.83-.27,4.14,0,6.25,0,5.64.22,2.91-.48,4.89-.13,5.14L99,475.47l-.65,6.36,0,3.91-.15,6.76-.31,5.43-.55,9.76,0,4.27-.64,3.84v2.74L96.59,524l-.3,6.06-.06,6.13-.2,4.45-.93,2.19-1.49,2.57-.49,2.23,2.45-.28,4.31-.56,1.79-.44,2.1-1,2.5-.56,3-.1,2.43.39,1.19.75.46,1-.56,1.24-.44,1.28.2,1.06.8.35,9.07-2.07.25-2.17.46-1.73,1.1-.39,1.55.21,1.3,1,1.24.64,2.18.29.32.62-1.08,3,0,2.12,1.06.78H133l3.33-.67,4.25-.62,6.67-2s-.08-3.27,0-3.55a10.33,10.33,0,0,1,.89-1.42l.37.76.54,2,.43,2.38.61,1,1.08.63,2.46.62,3.37.28,5.54-.59,2.05-.12-.05-2.81.47-2.11s1.09-1.06,1.25-1.13,2.48-.66,2.48-.66l2.42.33.79.54.47,1.56.07,1.39.46.91,2.23.57,4.54.43,1.7-.09-.26-3.53.26-1.78,1.42-.73,2.11-.29,2.74.45s1.51.61,2,.86,2.89,1.17,2.89,1.17l1.45.16,1.29.59.89.56s1.3.51,1.29.21.22-3.35.22-3.35l1.07-5.53-.12-3.1-.53-2.24-.9-2-.13-5.57-.3-3.82-.08-6s-.29-4.6-.28-5.75.18-10.13.18-10.13l.07-7-1.55-16.7-.06-2.51.25-3-.49-2.66-.19-2.26-.7-14.8-.4-6.83s-.63-3.14-.65-3.33,0-2.61,0-2.61l-.12-2.3-.17-2.73-.42-3.27v-2.46l-.79-4.28s-.7-6.52-.72-6.69-.52-4.89-.52-4.89l-1-3.73-.39-2.08.13-3.37-.43-3.45-1-5.17-.75-4.14L186,388l.11-3.45.08-2.91-.7-3.07-1.24-5.47-.83-6.3-.24-5.74-.42-3.72-1.37-7.86-1.07-6.09-1-3.28-2.22-3.94-.08-1.8-.58-2.41-.8-2.93.06-2.64.36-5.16.59-4.14,1.42-4.81.92-3.94.53-8.11-.15-4.29.09-3.39.3-3.05.38-2.34.39-1.22.66,1.3V290l-.35,2.55L181,296l.53,3.64-.07,3.31-.28,2.5.27,2.08.95,3.67-.32,4.08.54,1.58,1.28,2.25.19,1.48-1,1.94-.13,1.32.55,2.09.57,2.79,1,2.45v2.13l-.53,2.84-.14,4,.21,3.38.66,2.52.5,3.17.61,1.88.08,1.93.09,3.09.58,3.61,1,3.4.55,3.44.28,3.25.49,3.76.38,2.25-.55,2.75.13,2.49.59,3.33,1.62,3.75.81,2.4,0,2.18-.61,3.11-.1,2.2-.16,2.64v1.92l.65,1.38-.4,1.38-1,1.33-.07.84,2.92-.3,3.88,0,3.46.39h2.81l2-.45.86-.61.14-1.4-1.13-1.53-1.47-2.23-.61-2.69.1-3.06-.25-5.94s0-5.61,0-6.06-.34-6.77-.34-6.77l.18-9.57.66-6.9s-.13-2.4-.17-2.58-1-3.89-1-3.89l-.35-2.46.48-3.63.29-3.25.09-9.64s-.94-9-1-9.25-.56-5.13-.56-5.13-.6-8.85-.62-9-.33-6.58-.33-6.58l-1.34-9.44-.42-9.08s-.68-5.8-.77-6.24-.49-4-.49-4l-.48-5.12-.62-6.82-1.12-2.91-1.93-2-5.27-4.87-3.86-4.27-1.86-1.59-2.6-1.84-3.45-1L173,244.41l-2.71-.85-4.72-.86,1.28,1.25.44,2.42-.19,3.83.32,5-.64,3.58-2.42,6-2.94,7.78-1.21,4.79-3,6-3.39,7-3.83,7L148.67,301l-1.7,1.38s-2-.68-2-1.13-2.24-6.06-2.24-6.06-4.4-7.85-4.4-8.17-2.11-6.64-2.11-6.64l-3.69-9.93-3.2-10.94s-2.68-8.94-2.75-9.38,0-4.86,0-5.05S126.53,242.37,126.53,242.37Z"/><path class="cls-7" d="M126.53,242.37l-4.88,1.76-7.66,3.2-12.17,4.83c-.1,0-2.15,1.21-2.15,1.21l-1.42,2.47-1,4-.54,3.51v3.15L96.67,271l-.48,3.8-.61,2.46.12,3.05V284l-.5,5.47-1,7.53-1.13,5.7.08,3.07L92.86,310l-.41,6.24-.66,7.16-.6,8.25-.58,5.26-.67,3.79v4.79l.38,3.45,0,2.87-.12,3.32v2.61l.24,2.05,0,2.36-.07,2.94.29,9.23.09,4.49-.38,5.09-.38,7.87-.18,6.58-.62,5.26-.59,3.58,1.06.63,3.51.93,6.16.4,1.53-.09,1-.85.57-3.87.51-2.28.74-3.08-.55-5.23-.19-2.05.74-2.36,0-3.06.39-3.83.75-3.33.46-6.25,1.21-4.5.19-3.79.92-3-.09-4.73.64-5,1.23-4.47.69-8.55.25-8.43.7-5.1-.38-4.85.44-7.15.71-4.15.64-2.68.25-5.75s-.12-3.25-.06-3.44,1-4.75,1-4.75l.61,2.5.4,3.14-.12,2.74-.32,3.22.17,2.71.94,3.83,1.21,4.34.68,3.18.16,2.38-.07,5.94.18,4.14.19,5L117,338l-1.42,2-.74,1.9L113,348.49,110.49,358l-.76,5.32-.31,2.4-.54,1.79-.32,2.53v3.51l-.77,4.21-.56,3.45-.32,5-.29,7.41-.87,5.41-.5,2.67-.65,2-.38,2.31.11,2.31.49,2.54-.16,1.6-1,3.5-.57,4-1.2,6.41-.69,3.3,0,2.52.42,3.71-.52,1.91-.82,2.83-.27,4.14,0,6.25,0,5.64.22,2.91-.48,4.89-.13,5.14L99,475.47l-.65,6.36,0,3.91-.15,6.76-.31,5.43-.55,9.76,0,4.27-.64,3.84v2.74L96.59,524l-.3,6.06-.06,6.13-.2,4.45-.93,2.19-1.49,2.57-.49,2.23,2.45-.28,4.31-.56,1.79-.44,2.1-1,2.5-.56,3-.1,2.43.39,1.19.75.46,1-.56,1.24-.44,1.28.2,1.06.8.35,9.07-2.07.25-2.17.46-1.73,1.1-.39,1.55.21,1.3,1,1.24.64,2.18.29.32.62-1.08,3,0,2.12,1.06.78H133l3.33-.67,4.25-.62,6.67-2s-.08-3.27,0-3.55a10.33,10.33,0,0,1,.89-1.42l.37.76.54,2,.43,2.38.61,1,1.08.63,2.46.62,3.37.28,5.54-.59,2.05-.12-.05-2.81.47-2.11s1.09-1.06,1.25-1.13,2.48-.66,2.48-.66l2.42.33.79.54.47,1.56.07,1.39.46.91,2.23.57,4.54.43,1.7-.09-.26-3.53.26-1.78,1.42-.73,2.11-.29,2.74.45s1.51.61,2,.86,2.89,1.17,2.89,1.17l1.45.16,1.29.59.89.56s1.3.51,1.29.21.22-3.35.22-3.35l1.07-5.53-.12-3.1-.53-2.24-.9-2-.13-5.57-.3-3.82-.08-6s-.29-4.6-.28-5.75.18-10.13.18-10.13l.07-7-1.55-16.7-.06-2.51.25-3-.49-2.66-.19-2.26-.7-14.8-.4-6.83s-.63-3.14-.65-3.33,0-2.61,0-2.61l-.12-2.3-.17-2.73-.42-3.27v-2.46l-.79-4.28s-.7-6.52-.72-6.69-.52-4.89-.52-4.89l-1-3.73-.39-2.08.13-3.37-.43-3.45-1-5.17-.75-4.14L186,388l.11-3.45.08-2.91-.7-3.07-1.24-5.47-.83-6.3-.24-5.74-.42-3.72-1.37-7.86-1.07-6.09-1-3.28-2.22-3.94-.08-1.8-.58-2.41-.8-2.93.06-2.64.36-5.16.59-4.14,1.42-4.81.92-3.94.53-8.11-.15-4.29.09-3.39.3-3.05.38-2.34.39-1.22.66,1.3V290l-.35,2.55L181,296l.53,3.64-.07,3.31-.28,2.5.27,2.08.95,3.67-.32,4.08.54,1.58,1.28,2.25.19,1.48-1,1.94-.13,1.32.55,2.09.57,2.79,1,2.45v2.13l-.53,2.84-.14,4,.21,3.38.66,2.52.5,3.17.61,1.88.08,1.93.09,3.09.58,3.61,1,3.4.55,3.44.28,3.25.49,3.76.38,2.25-.55,2.75.13,2.49.59,3.33,1.62,3.75.81,2.4,0,2.18-.61,3.11-.1,2.2-.16,2.64v1.92l.65,1.38-.4,1.38-1,1.33-.07.84,2.92-.3,3.88,0,3.46.39h2.81l2-.45.86-.61.14-1.4-1.13-1.53-1.47-2.23-.61-2.69.1-3.06-.25-5.94s0-5.61,0-6.06-.34-6.77-.34-6.77l.18-9.57.66-6.9s-.13-2.4-.17-2.58-1-3.89-1-3.89l-.35-2.46.48-3.63.29-3.25.09-9.64s-.94-9-1-9.25-.56-5.13-.56-5.13-.6-8.85-.62-9-.33-6.58-.33-6.58l-1.34-9.44-.42-9.08s-.68-5.8-.77-6.24-.49-4-.49-4l-.48-5.12-.62-6.82-1.12-2.91-1.93-2-5.27-4.87-3.86-4.27-1.86-1.59-2.6-1.84-3.45-1L173,244.41l-2.71-.85-4.72-.86,1.28,1.25.44,2.42-.19,3.83.32,5-.64,3.58-2.42,6-2.94,7.78-1.21,4.79-3,6-3.39,7-3.83,7L148.67,301l-1.7,1.38s-2-.68-2-1.13-2.24-6.06-2.24-6.06-4.4-7.85-4.4-8.17-2.11-6.64-2.11-6.64l-3.69-9.93-3.2-10.94s-2.68-8.94-2.75-9.38,0-4.86,0-5.05S126.53,242.37,126.53,242.37Z"/><path class="cls-8" d="M133.82,273.89A111.44,111.44,0,0,1,138,285.52a23.44,23.44,0,0,0,2.51,5.33c1.15,1.78,3,7.09,5.36,11.29,2.49,1.11,2.9-2.95,3.77-4.41,1.18-2,2.5-4,3.7-6.07.73-1.26,2.53-6.66,3.43-8.11a34.88,34.88,0,0,0,3.79-7.33c.87-2.56.95-4.85,2.1-7.27,1.48-3.12,2.5-6.21,3.83-9.4,1.41-3.4,1-5.68.65-9.25-.15-1.69.57-6-.82-7.19-2.08-1.74-7.44.89-9.79,1.25-2.59.39-7.64,0-10.15,0a55.88,55.88,0,0,1-9.76-.88c-2.09-.37-7.22-2.59-9.18-.87-1.44,1.27-.77,7.74-.41,9.55.67,3.41,2.11,6.41,3,9.74a76.64,76.64,0,0,0,3.8,12"/><path class="cls-8" d="M179.52,292.5a13.72,13.72,0,0,1,.3-3.05,17.4,17.4,0,0,1,.77-3.56c1.48,1.47.42,5,.31,6.79a26.56,26.56,0,0,0,.53,6.09,19,19,0,0,1-.18,6.08c-.29,2.19.71,3.91,1.09,5.81.41,2.1-.47,3.67-.19,5.65a11.68,11.68,0,0,1,2,3.39c.35,1.65-1.43,2.37-1.1,4.18a26.31,26.31,0,0,1,.73,3.17,8.47,8.47,0,0,0,1.08,3.22c1,2.49-.36,4.85-.37,7.16s-.18,5,.4,7.12a19.5,19.5,0,0,1,.86,3.62c.1,1.16.07,2.36.89,3.22a24,24,0,0,0,.91,9.49c1.22,3.28,1.31,6.77,1.6,10.25.13,1.52.5,2.77.71,4.25.27,1.83-.27,3.39-.35,5.19-.15,3.35,1.35,5.59,2.58,8.51,1.46,3.45-.76,5.89-.26,9.39.26,1.83-.78,2.71-.07,4.56.57,1.52,1,.79.12,2.38-.46.84-1.3,1-1.09,2.17a30.69,30.69,0,0,1,8.4-.16c1.39.21,6.53.63,7.51-.84.73-1.08-1.62-3.12-2.08-4.17a10.28,10.28,0,0,1-1-5.28c.32-3.53-.36-6.59-.18-10.2.16-3.28-.36-6.36-.36-9.58,0-1.78.21-7.52.18-10s.83-6.52.68-8.23c-.3-3.3-2.1-5.87-1.39-9.32.89-4.34.67-9.47.71-14a94.36,94.36,0,0,0-1.07-10.29c-.69-3.32-.48-7.07-.72-10.29-.12-1.66-.77-5.61-.56-6.44s-.57-7.33-.69-8.51c-.19-1.92-.81-3.47-.9-5.46s-.42-6.64-.36-7.88a15.31,15.31,0,0,0-.17-2.86,37.84,37.84,0,0,0-1-5.35,13.44,13.44,0,0,1-.11-2.44c-.1-2.58-.5-4.83-.71-7.34s0-4.62-1.08-6.8-5.06-4.68-8.07-8.1-4.48-5.38-8-6.93c-2-.87-4-1.53-6.05-2.38-1.66-.69-6.09-.88-8.24-2"/><path class="cls-8" d="M179.52,292.5a17.42,17.42,0,0,1,0,2.89,3.54,3.54,0,0,0,0,1.77,44.06,44.06,0,0,1,0,5c-.18,3.73-.28,7-1.49,10.34a30.3,30.3,0,0,0-2,10.69c0,2-.63,3.89-.36,5.78.32,2.2,1.42,3.84,1.44,6.21,0,3,2.6,4.14,3,7,.35,2.31.73,4.43,1.1,6.72l.15.53a25.58,25.58,0,0,0,.89,5.55,28.83,28.83,0,0,1,.9,6.44,72.62,72.62,0,0,0,1.6,14.46c.53,2.59,1.59,4.47,1.45,7.2-.12,2.23-.64,4.42.15,6.54a15.28,15.28,0,0,1,.92,3.84,36.54,36.54,0,0,0,.64,4.05,27.05,27.05,0,0,1,1,6.33c0,1.19-.32,3,0,4.12.46,1.73,1.26,2.66,1.26,4.56,0,2.72.72,5,1.08,9.94.09,2.55,1.13,5.45,1,7-.23,2.28.43,3.88.54,6.22a22,22,0,0,0,.09,2.95,14.91,14.91,0,0,1,0,2.5c0,1.43.58,2.57.69,4,.28,3.45.34,4.83.47,9.2.08,2.48.32,4.71.45,7.16.1,1.95.18,3.88.18,5.87s.88,3.2.65,5.22a18.87,18.87,0,0,0-.2,4.37c.24,1.36.27,2.34.45,3.73.47,3.75.52,7.12.94,10.94.53,4.89.13,6,.13,9.25,0,3.52-.18,7-.18,10.53s.54,6.86.54,10.46c-.46.48.11,4.14.17,5.37.06,1,.14,2,.18,3.07,0,.69-.09,1.42,0,2.1a11.32,11.32,0,0,0,1,2.52c1.53,4.33-1.12,9.11-.81,13.4-1.34.2-2-.83-3-1.24-.69-.27-1.6-.13-2.34-.38-2.08-.71-3.71-2-6-2.3-1.41-.2-3.9-.14-4.72,1.19-.69,1.11,0,3.69,0,5.06a23.55,23.55,0,0,1-6.24-.34c-1.69-.24-2.26-.06-2.69-1.48-.33-1.1.34-2-.54-2.95-1.42-1.52-5.38-.92-6.61.46s-.66,3.56-.75,5.38c-4.23.05-7.42,1.37-11.53.3-2-.53-3.24-.5-3.75-2.69-.39-1.69-.06-2.68-1-4.18-1.67-.06-1,3.39-1,4.59-1.81.64-3.57,1.1-5.35,1.68a44.67,44.67,0,0,1-7.33,1.21c-1.68.25-4.62,1.24-5.05-.92-.34-1.71,1.56-3.26,1.24-5.13a16.2,16.2,0,0,0-2.47-.37c-1.17-.25-1.79-1.35-2.54-1.62-3.09-1.13-3.42,2-3.36,4.08A44.51,44.51,0,0,1,115,550.3c-1.39.23-2.54,1.08-2.7-.74-.12-1.29,1.48-2.45.54-3.8-1.15-1.64-7.07-1.25-8.79-.6-1.37.51-2.08,1.27-3.63,1.51-2.4.38-4.9.66-7.31.93.06-3.5,3.09-4.72,3.07-8.38"/><path class="cls-8" d="M96.19,539.39c0-2,0-2.9.11-4.79.16-2.72,0-3.22,0-5,0-3.89.72-7.69.34-11.55-.21-2.12.41-3.81.67-5.81s-.11-3.93,0-5.87c.16-2.64,0-3,.22-5.43.44-4.26.44-4.26.58-7.34.09-2,.14-4,.23-5.82.07-1.41-.24-3.89-.1-5,.29-2.38.66-5.17.74-6.91,0-1,.24-1.61.43-3.06a30.47,30.47,0,0,0,.14-5.7c-.06-2.38.61-4.21.67-6.65.07-2.82-.42-2.46-.22-3.8a21,21,0,0,0,0-2.86,118.56,118.56,0,0,1,.31-13.61c.2-1.65,1.2-2.65,1.3-4.3a15.55,15.55,0,0,0-.36-3.21c-.42-2.82.31-4.7.87-7.28a68.11,68.11,0,0,0,1.28-8c.22-2.34,2-5.3,1.25-7.61a10.83,10.83,0,0,1,.14-6.62c.91-2.26.9-4.61,1.47-6.95.77-3.19.76-14.12,1.08-16.14.35-2.28,1.14-4.43,1.25-6.8.06-1.34-.06-2.68,0-4,.07-1.75,1-3.13,1.08-4.86.32-5.8,2-11.44,3.71-17.09a36.81,36.81,0,0,0,1.46-5.35c.35-2.42,2.52-3.34,2.71-5.57.3-3.75-.41-5.63-.33-11a65.19,65.19,0,0,0,0-6.71c-.28-2.89-1.07-4.43-1.88-7.75-.55-2.27-1.36-4.53-1.17-6.79.26-3,.83-6.25,0-9.1a36.75,36.75,0,0,0-1.29-4.65c-.58-1.38-2-2.69-2-4.25.49,2.35,2.12,4.32,2.33,6.64a18.8,18.8,0,0,1-.5,4.06c-.34,3.12.06,6.28-.39,9.38-.4,2.71-1.22,5.35-1.42,8.08a47.49,47.49,0,0,0-.24,8.54,15.38,15.38,0,0,1,.22,3.19c-.07,1.2-.42,2.74-.54,3.93-.29,3.09-.23,6.12-.35,9.24a66.6,66.6,0,0,1-1.41,11.21,37.18,37.18,0,0,0-1.28,10.69,21.11,21.11,0,0,1-.7,3.12c-.21,1.3.1,2.66-.15,4-.41,2.24-1.08,3.74-1.29,6.06a38.38,38.38,0,0,1-.64,6,22.58,22.58,0,0,0-.74,3.46c-.08.81-.22,2.67-.22,3.49"/><path class="cls-8" d="M103.58,387.15c.33,3-.51,3-.54,4.8-.05,2.25.39,4.28.53,6.56.13,2.12-1,3.86-1.26,6s.36,4.89-2.54,4.68c-2.63-.2-5.57-.45-8.2-.83a6.05,6.05,0,0,1-3-1.12,71,71,0,0,0,1.37-13.38,107.18,107.18,0,0,1,.67-12.8,64,64,0,0,0,0-6.69c0-2.16-.31-3.06-.18-5.64.11-2.13-.33-4.37,0-6.53.32-2.43-.35-3.7-.26-6.1s.22-5,.19-7.52c0-1.29-.36-2.57-.36-3.75,0-1.54.11-1.68.11-3.05"/><path class="cls-8" d="M90.14,341.91c-.76-1.57.83-5.5.9-7.34s.19-3.88.37-5.73c.22-2.33.16-3.76.49-6.33.22-1.7,0-3.41.38-5.12.41-2.05.26-4.45.48-6.47a33.66,33.66,0,0,0,.42-5.6,19.35,19.35,0,0,1,.59-5.61c.3-1.25.31-2.09.6-3.31a18.42,18.42,0,0,0,.45-2.6c.3-2.38.34-4.78.69-7.27a39.64,39.64,0,0,0,.24-4.23,21.3,21.3,0,0,0-.21-3.52c-.21-1.92.73-3.59,1-5.45a60.22,60.22,0,0,0,.24-6c0-2.27-.31-3.22.25-5.31.4-1.5.13-2.94.66-4.41.26-.7.5-1.58.81-2.25a16.72,16.72,0,0,1,1-1.69c.9-1.33,3.47-1.73,4.92-2.39,3.64-1.68,7.34-3.13,11.19-4.49s9-4.53,13.15-4.74"/><path class="cls-8" d="M182.06,544.92c-2.8-2.63.41-7.63.27-10.86-.08-1.82-.64-9.3-.36-11.36.58-4.2.22-8.84,0-13.07-.12-2.36-.71-4.35-.32-6.84a34,34,0,0,0,.12-8.37c-.23-2.52-.35-15-.67-15.07-.2-4,.57-7.61,0-11.6s-1.29-16-1.29-18.94c0-.77-.44-4.59-.65-5.87-.75-4.53,1.38-9.45,1-14.09-.16-2-1.64-14.52.89-17.49"/><path class="cls-8" d="M164.58,551.67a31.82,31.82,0,0,1-.37-10,44.83,44.83,0,0,0,.4-6.55c0-4.44-.35-8.47-.36-12.81,0-5.16-.05-10.27.14-15.41.11-3.1-.93-5.93-.64-9.05.26-2.78-.76-5.29-.37-8.09.29-2,.7-24.14.53-24.2-.62-1.74-.3-10.24-.51-12.72A57.78,57.78,0,0,1,163,445a19.33,19.33,0,0,1,0-3.57"/><path class="cls-8" d="M149,544.9c-.28,0-.72-.2-1-.2-.31-2,.43-4.3.33-6.34-.09-1.75,0-3.52,0-5.27,0-4.62-.59-9.11-.54-13.8,0-2.93.11-6,.39-8.91.31-3.32-.26-6.36-.4-9.76s-.69-6.89-.53-10.51c.16-3.41,1.95-24.39,1.79-26.06-.11-1.22-.94-20.84-1.8-24.59-.51-2.27.3-15.87.51-18.2a29.17,29.17,0,0,0-.3-9.34c-.27-1.3-.54-7.49-.73-9.27"/><path class="cls-8" d="M122.52,546.45c-.42-2.07.17-6.32-.14-8.43a41.29,41.29,0,0,1-.73-6.54c0-6.78.3-13.62,1-20.39.45-4.56-.89-8.61-.62-13.1.23-3.84.58-26.67.71-29,.13-2.2-.15-4.18-.17-6.38a14.77,14.77,0,0,0-.05-3.26c-.39-1.53.77-9.64.42-13-.19-1.74.71-12.46.71-14.36,0-1.71-.84-3.33-.72-5"/><path class="cls-8" d="M110.37,544.72c1.55-4.24,1.07-10,1.07-14.64,0-4.09-1-8.35-1.07-12.39-.07-4.76.25-8.72.45-14.23.07-2-.8-6.71-.44-8.54.82-4.25-.44-15.75-.36-17.66.08-2.26,1.79-11.44,2.11-14,.34-2.79-.21-5.32.4-8.05.51-2.27-.09-9.41-.19-11.34a27.56,27.56,0,0,1,0-3.52c.17-2.14,1-5.65,1-8.28,0-.91-.21-5.74-.35-8.25"/><path class="cls-8" d="M121.11,313.27c1.47,1.47,5.17,2.06,7.17,2.31,3.9.48,8.27.18,11.44-2.13"/><path class="cls-8" d="M155.83,315.06c0,3.67,7.39,2.5,9.71,2.5A15.79,15.79,0,0,0,175.7,314"/></g><g id="Head"><path class="cls-9" d="M139.63,241.58v2.35l-4.86-.49-7.8-.16-.44,6.67,2.57,9,4,13.17,3,7.64,2.49,7.43,2.32,4.41L144,298.5l1.83,3.64h1.49a10.57,10.57,0,0,0,1.34-1.77c0-.27,1.61-3.75,1.61-3.75s2.06-3.32,2.28-3.69,2.72-6.08,2.72-6.08,2-4.19,2.13-4.39,2.73-5.17,2.8-5.36,2.21-7.71,2.42-8.15,3.29-8.06,3.29-8.06l1.5-5.64-.31-6.52-.26-4.71-1.95-1.32-5.13,1.14-5.72.69-4.4-.09-1-2.41-1.07-3.38h-7.42Z"/><path d="M211,84.62c-1.27-3.72-3.72-7-5.37-10.63A90,90,0,0,1,202,64.46c-1.54-4.69-2.51-9.61-4.42-14.13-2.08-5-5.93-8.78-9.94-12.32a26,26,0,0,0-13.24-5.93c-8.36-1.38-16.23.52-23.74,4.24A116,116,0,0,0,128.7,50.49c-4.12,3.36-8.53,6.36-12.48,9.89-4.89,4.37-9.48,9.07-14.12,13.7C96.56,79.6,90.85,85,86.83,91.82c-2.29,3.91-5.16,7.49-7.28,11.47a72.47,72.47,0,0,0-5.82,13.36c-2,6.7-1.63,13.64-.74,20.57,1.38,10.61,7.22,17.39,17.14,20.84a3.6,3.6,0,0,0,2.65-.47c.31-.2.14-1.49-.1-2.19-1.09-3.31-3-6.51-3.29-9.87-.59-5.95-.7-12,.86-17.92,1.63-6.18,4.51-11.42,10.9-13.85a25.16,25.16,0,0,1,3.24-.81l.31.7a5.2,5.2,0,0,1-1.39,1c-1.62.49-3.5,2.64-3.27,4.26.54,3.84.73,7.82,3.57,10.93a1.11,1.11,0,0,1,.22.66,3.28,3.28,0,0,0,1.32.63,3.6,3.6,0,0,1,2.44-1.26,31.46,31.46,0,0,1,.86,4.45c.37,8.86,2.42,17.44,4.59,25.94,2,7.7,4.68,15.21,7.19,22.77,2.11,6.34,4.22,12.69,6.65,18.91,2.34,6,5,11.83,9.52,16.57a44.62,44.62,0,0,1,3.44,4.56c0,2.86,0,5.91,0,8.95-.05,3.76-.19,7.52-.22,11.28,0,.36,0,.71-.06,1.06h.63c.16-2.89.42-5.78.51-8.67.09-3.27-.09-6.55-.07-9.82a13.29,13.29,0,0,1,.45-2.41h4.52c.14,1.53.26,3,.42,4.52.49,4.51.84,9,1.53,13.51a7,7,0,0,0,1.16,2.87h1.53a13.25,13.25,0,0,1-2.1-7.58c0-1.59-.52-3.18-.6-4.77-.23-4.27-2.4-8.7,2-12.46,2-1.7,3.15-4.4,4.53-6.73,2-3.36,4.3-6.62,5.7-10.23q4.59-11.79,8.34-23.89c2.28-7.32,4.25-14.74,6-22.21,2.19-9.43,4-18.95,6-28.43.12-.59.27-1.18.4-1.77a1.79,1.79,0,0,1,.3.22.44.44,0,0,1,.25-.11,3.88,3.88,0,0,1,1.36,0,2.8,2.8,0,0,0-.06-.28,10.56,10.56,0,0,1,2.25,1.91,46.81,46.81,0,0,0,5.61,4.26c2,1.18,4,.59,5.54-1,2.24-2.26,4.83-4.24,6-7.43a29.9,29.9,0,0,1,1.91-3.95c.28-.53.6-1.22,1.08-1.43,4.88-2.15,6.72-6.7,8.12-11.16C215.26,99.7,213.53,92,211,84.62Zm-25.8,33.47a28.57,28.57,0,0,1-1.35,5.62,8.06,8.06,0,0,1-3.18,1.12c-1.3.14-1.47.88-1.67,2-1.07,5.76-2.23,11.5-3.37,17.25q-1,5-2,10.05a299.84,299.84,0,0,1-12.77,44c-2.87,7.63-7.35,14.48-12.16,21-3.3,4.47-8.62,4.09-11.09-.63a10.61,10.61,0,0,0-1.36-1.85c-6.26-7.42-9.48-16.33-12.48-25.35-2.7-8.14-5.74-16.2-8-24.47-2.33-8.59-3.94-17.38-5.74-26.11-.69-3.34-.88-6.78-1.56-10.12-.56-2.81-1.71-3.13-4.29-1.33a15.89,15.89,0,0,1-1.52-2.91c-.62-2.26-.94-4.6-1.57-6.85-.49-1.78.18-3.12,1.66-3.56,1.67-.49,2.66.77,3.1,2.37a2.24,2.24,0,0,0,.41.59l.56-.22a27.31,27.31,0,0,1-1-2.6,6.07,6.07,0,0,1-.41-2.59c.4-2.29-.27-4.11-.5-6.67-.11-1.24.7-9.39,4.51-12.43a12.89,12.89,0,0,1,3.26-1.83c6-2.4,12.25-4.35,18.06-7.17,6.57-3.19,12.81-7.06,19.09-10.82A11.18,11.18,0,0,0,153,71a4.34,4.34,0,0,1,4.44-2.13,21.49,21.49,0,0,1,14.69,8c5.8,6.84,7.41,15.19,8.51,23.7.34,2.66.23,5.38.44,8.07a2.38,2.38,0,0,0,1,1.72C185.35,112,185.34,115.13,185.2,118.09Z"/><path class="cls-4" d="M140.69,235.74c-.09,2.89-.35,5.78-.51,8.67h8.52a7,7,0,0,1-1.16-2.87c-.69-4.47-1-9-1.53-13.51-.16-1.49-.28-3-.42-4.52h-4.52a13.29,13.29,0,0,0-.45,2.41C140.6,229.19,140.78,232.47,140.69,235.74Z"/><path d="M143.12,169.78a13.18,13.18,0,0,1,2.85.91c1.79,1.06,2.36.92,2.42-1.25.09-3.56-.06-7.11-.09-10.67,0-4.61-.06-9.21-.11-13.82-.09-7.61-.32-15.22-.26-22.83a124.55,124.55,0,0,1,.92-13.78,4.77,4.77,0,0,1,2.55-3.15,37.78,37.78,0,0,1,22.79-2.13,16.47,16.47,0,0,1,2.19.8l-.14.66c-2.2-.31-4.39-.67-6.59-.92a39.78,39.78,0,0,0-16.94,2,4,4,0,0,0-3,3.67c-.27,3.26-.58,6.52-.69,9.79-.2,6.26-.44,12.53-.36,18.79.12,8.78.55,17.56.76,26.35a33.7,33.7,0,0,1-.44,6.66c-.34,2-1.64,2.37-3.22,1.23-.83-.61-1.48-1.14-2.57-.42-.26.18-1.4-.32-1.55-.72a15.3,15.3,0,0,1-1.17-4.58c-.34-11.11-.64-22.22-.79-33.34-.1-7,.17-14,.09-21.06a23.13,23.13,0,0,0-1.15-6.12,2.82,2.82,0,0,0-1.86-1.62c-4.09-.73-8.22-1.28-12.34-1.87a26.32,26.32,0,0,0-13.57,1.48l-.24-.5a9,9,0,0,1,2-1.15,33.81,33.81,0,0,1,16.78,0,45.78,45.78,0,0,0,6.41.9c3.18.3,3.68.51,4.05,3.6a92.47,92.47,0,0,1,.51,9.56c.12,9.23.12,18.46.25,27.69.08,5.1.31,10.2.52,15.29.1,2.51.19,5,.48,7.51a19,19,0,0,0,1.1,3.51Z"/><path d="M136.62,198l1.91,1.72c.41-.57.83-1.1,1.19-1.67,1-1.63,2-3.09,4.22-1.41.3.23,1.59-.5,2.17-1,2-1.87,2.46-1.81,3.76.54.26.46,1,.68,1.34.93-.74,2.93-1.34,6-2.37,9a10.26,10.26,0,0,1-2.85,4c-1.78,1.58-3.9,1-5-1.21a38.73,38.73,0,0,1-1.77-4C138.37,202.72,137.62,200.62,136.62,198Z"/><path d="M119.85,109.79c-3.86-.32-7.47,1.11-11,3.69,1.56-4.91,18.91-6.3,22.41-2.19l-7.1-1.64c.09,2.14.15,4-2,4.44-.71.15-2.13-.17-2.21-.52A16.73,16.73,0,0,1,119.85,109.79Z"/><path d="M162.26,109.12l-9.63,3.76-.33-1c3.74-1.14,7.42-2.65,11.24-3.3a13.49,13.49,0,0,1,9.72,2.45,7.48,7.48,0,0,1,1.38,1.7l-8.46-3.69c0,1.56.25,2.77-.11,3.75-.18.47-1.58.82-2.32.68C161.49,113.06,162.44,111,162.26,109.12Z"/><path d="M107.39,124.23l-1.33,3c-.14-1.2-2.21-1.63-.78-3.19.09-.11-1-1.2-1.42-1.93a11,11,0,0,1-.69-2.08l.61-.2Z"/><path d="M180.36,121c.22-2.35.44-4.71.65-7.06l.75.13c.66,2.48-.66,4.66-1.4,6.93Z"/></g><g id="Left-hand"><path class="cls-4" d="M205.17,418.4c0,.13-.29,3.21-.29,3.21l-.27,1.43-.21,1.38-.26,1.31-.48.78-1.08.67-1,.45-.65.22-1.39.27-1,.36-.23.51.2.56.62.49,1.11.23,1.15-.17,1.44-.42.88-.33.65.07.2.3.08.45v1l-.14,1-.26,1.56-.43,1.45-.68,1.77s-.55,1.31-.55,1.33-.76,1.6-.76,1.6l-.45.67-.68.94-.48.61-.13.31v.36l.26.35.4.22.41.07.58-.11.56-.29.93-.44-.27.36-.25.3s-.34.38-.34.38l-.18.27,0,.38.26.28.41.13.56-.09.42-.27s.48-.55.52-.55a7.92,7.92,0,0,0,.67-.56s-.25.34-.28.41l-.41.62-.22.38L204,445l.31.14.46.08.53-.05.44-.14.44-.34.51-.43,1.21-1.09.87-.84-.23.47-.36.61-.35.69-.11.49.19.3.27.13.4-.06.69-.47,1.73-1.91,1.23-1.38,1.08-1.19s.41-.87.44-.89.64-2,.64-2l.87-2.67.3-2.17.19-1.77.12-2.65,0-2.21.15-1.38.15-2.31.06-1.78V418.1Z"/><path d="M216.43,411.47c-.06.76-.08,1.51-.1,2.27,0,1.67,0,3.35-.11,5s-.2,3.41-.32,5.12c0,.56-.11,1.13-.12,1.7,0,.83.06,1.67,0,2.5-.06,1.35-.18,2.7-.29,4.05a7.58,7.58,0,0,1-.13.81c-.1.62-.18,1.25-.34,1.85-.21.78-.54,1.53-.75,2.32a7.74,7.74,0,0,1-2,3.84c-1,.91-1.78,2-2.68,3a4.53,4.53,0,0,1-1,.83.92.92,0,0,1-.71,0c-.08,0-.06-.39,0-.6a.86.86,0,0,1,.15-.39c.58-1,1.17-2,1.78-3-.06,0-.17,0-.22.08s-.29.42-.44.62a15.94,15.94,0,0,1-3,3.1,1.88,1.88,0,0,1-1.68.45c-.39-.09-.43-.14-.24-.5a11.66,11.66,0,0,1,1.74-2.28c.35-.39.63-.85,1-1.21a14.94,14.94,0,0,0,1.4-2.15s0-.11,0-.17-.14,0-.17,0a3.37,3.37,0,0,0-.19.32c-.36.52-.7,1.06-1.08,1.57s-1,1.29-1.54,1.93c-.19.24-.41.45-.62.68a2,2,0,0,0-.26-.22c-.26-.13-.53-.28-.81-.09s-.69.51-1,.78a1.92,1.92,0,0,0-.26.32c.44.37.87.2,1.33.05a1,1,0,0,1-1.46.22.44.44,0,0,1-.07-.35,1.19,1.19,0,0,1,.26-.41c.51-.56,1.07-1.09,1.54-1.68a12,12,0,0,0,1.11-1.63c.3-.51.52-1.06.77-1.6a.69.69,0,0,0,0-.29l-.14,0c-.3.64-.62,1.26-.9,1.9a5.54,5.54,0,0,1-2.88,2.82,1.58,1.58,0,0,1-1.34.13c-.57-.24-.66-.66-.3-1.15a20.73,20.73,0,0,0,1.78-2.61,38,38,0,0,0,1.63-3.89,14.79,14.79,0,0,0,1-5.59.68.68,0,0,0-.48-.7,1.32,1.32,0,0,0-.92.07,25.09,25.09,0,0,1-2.5.69,2.46,2.46,0,0,1-2.13-.58c-.14-.12-.3-.38-.26-.5a1,1,0,0,1,.5-.5,4.53,4.53,0,0,1,1.23-.35,10,10,0,0,0,2.68-.91,2.37,2.37,0,0,0,1.58-2.05c.07-.66.2-1.3.3-1.95s.28-1.49.36-2.25c.11-1,.14-2,.23-3s.23-2.21.3-3.31c.09-1.26.14-2.52.18-3.78,0-.7,0-1.41,0-2.11l-.1,0a1,1,0,0,0-.09.27c0,.7,0,1.39,0,2.08,0,1.09-.12,2.18-.19,3.27,0,.62,0,1.24-.1,1.85-.1.9-.31,1.79-.33,2.68a17.68,17.68,0,0,1-.2,2.62c-.17,1.07-.33,2.14-.5,3.2a1.21,1.21,0,0,1-.09.36h0a1.36,1.36,0,0,1-.16.48c-.07.16-.08.34-.15.51a1.36,1.36,0,0,1-.58.63c-.33.2-.69.36-1,.57a1.93,1.93,0,0,1-.43.22c-.15.05-.31.05-.46.1a3,3,0,0,0-.5.26,1.93,1.93,0,0,1-.41.12,5.81,5.81,0,0,1-.58.09,2.62,2.62,0,0,0-1.35.39,1.06,1.06,0,0,0,.13,1.56,2,2,0,0,0,.86.35,3.11,3.11,0,0,0,1.25.1,17.27,17.27,0,0,0,2.36-.69c.41-.13,1.07-.41,1.33.11a2.09,2.09,0,0,1,0,1.24,1.21,1.21,0,0,1-.05.18h.09c-.06.44-.13.86-.18,1.28a12.16,12.16,0,0,1-.72,3c-.33.85-.73,1.68-1,2.54a12.23,12.23,0,0,1-2.32,3.85.94.94,0,0,0,.61,1.61,2,2,0,0,0,1.35-.3,3.15,3.15,0,0,1,.65-.26l-.36.39a4.89,4.89,0,0,0-.37.41c-.28.4-.12.78.35.95a1.33,1.33,0,0,0,1.37-.31l.3-.23.08.06c-.08.15-.17.31-.24.47-.15.32-.11.38.22.49a1.93,1.93,0,0,0,2-.42c.57-.49,1.12-1,1.68-1.5a.43.43,0,0,1,.28-.12,2.44,2.44,0,0,1-.1.24c-.12.27-.27.53-.38.81-.16.44-.1.58.35.91v0a1.37,1.37,0,0,0,.29.07h.06a5.71,5.71,0,0,0,.87-.59c.47-.43.91-.9,1.34-1.37.69-.75,1.32-1.54,2-2.26a6,6,0,0,0,1.48-2.5c.28-.86.51-1.73.83-2.58a11.84,11.84,0,0,0,.69-3.05c.08-.83.17-1.66.22-2.5.06-1,.1-2,.12-3,0-.54,0-1.09,0-1.62.08-1.2.2-2.39.27-3.59.1-1.86.19-3.72.26-5.57.06-1.44.07-2.87.13-4.3,0-.88.15-1.76.23-2.63,0-.16,0-.31-.22-.23C216.58,410.07,216.48,410.77,216.43,411.47Z"/><path d="M202.77,444c.57-.73,1.16-1,1.63-.71C204,443.86,203.17,444.23,202.77,444Z"/><path d="M201.11,443.06c-.18-.16-.41-.27-.48-.44a.45.45,0,0,1,.19-.64,9.71,9.71,0,0,0,.83-.6c.33-.23.45-.22.73.06.59.6.6.62-.1,1.06A12.86,12.86,0,0,1,201.11,443.06Zm1.46-1c-.25-.54-.56-.72-.85-.53a4.16,4.16,0,0,0-.71.54.54.54,0,0,0-.14.43c0,.08.23.15.37.17a.52.52,0,0,0,.32,0C201.89,442.49,202.22,442.29,202.57,442.1Z"/><path d="M207,443.5a3.82,3.82,0,0,1-1.69,1.23c-.18.1-.36,0-.4-.26a3.86,3.86,0,0,0-.12-.38C205.35,443.33,206.45,442.71,207,443.5Zm-.29.06c-.2-.31-.47-.16-.7-.13a1.16,1.16,0,0,0-.91.87c0,.16,0,.31.2.23A3.47,3.47,0,0,0,206.72,443.56Z"/><path d="M200.28,429.66a1.13,1.13,0,0,1-1-.46c-.13-.2-.06-.32.12-.38a9.1,9.1,0,0,1,1.13-.33c.34-.06.61.23.63.63s-.16.54-.54.56Zm-.9-.64a1.33,1.33,0,0,0,1.23.43c.25,0,.31-.17.29-.38s-.12-.41-.37-.36S199.82,428.9,199.38,429Z"/><path d="M208.54,444.18l-.1-.58a.06.06,0,0,1,0-.06,1.83,1.83,0,0,1,1.15-.88.6.6,0,0,1,.43.2.55.55,0,0,1-.1.46,6.94,6.94,0,0,1-.93.79C208.87,444.2,208.67,444.17,208.54,444.18Zm.27-.17c.28-.23.57-.45.83-.7.09-.08.11-.21.17-.32a1.3,1.3,0,0,0-.42-.08A1.15,1.15,0,0,0,208.81,444Z"/><path class="cls-4" d="M204.4,443.28c-.36.58-1.23,1-1.63.71C203.34,443.26,203.93,443,204.4,443.28Z"/><path class="cls-4" d="M202.57,442.1c-.35.19-.68.39-1,.56a.52.52,0,0,1-.32,0c-.14,0-.36-.09-.37-.17a.54.54,0,0,1,.14-.43,4.16,4.16,0,0,1,.71-.54C202,441.38,202.32,441.56,202.57,442.1Z"/><path class="cls-2" d="M206.72,443.56a3.47,3.47,0,0,1-1.41,1c-.18.08-.22-.07-.2-.23a1.16,1.16,0,0,1,.91-.87C206.25,443.4,206.52,443.25,206.72,443.56Z"/><path class="cls-4" d="M199.38,429c.44-.12.79-.24,1.15-.31s.34.14.37.36,0,.38-.29.38A1.33,1.33,0,0,1,199.38,429Z"/><path class="cls-2" d="M208.81,444a1.15,1.15,0,0,1,.58-1.1,1.3,1.3,0,0,1,.42.08c-.06.11-.08.24-.17.32C209.38,443.56,209.09,443.78,208.81,444Z"/></g><g id="Coat-left"><path class="cls-4" d="M167.07,241.34H165l-1.11.4-1.38.82L161,244.23l-1,1.84-.45,1.79-.25,1.68-.41,1.93-1.16,3.36-1,3.8-.42,1.31-.59,3.75-.38,4.88-.09,4.72.16,2.1.36,2.29.18,2.06.16,2.39.27,4.72.2,4.07.39,6.19.29,3.25.25,3.78.3,3.32.21,1.38.59,2.26.29,1.83.13.76.42,1,.61,2.41.62,2.73.49,1.42.22.72.4.76.83,1,.63.91.32.81.17.85.07,1.09v2.41l.17,1.2.35,1.5.43,1.45.55,1.68.44,1.81.24,1.69.09,1.65.1,1.08.3,1.26.57,1.56.49,1.76.09,1.32,0,1.28-.12,1.87-.07,1.91.22,2.17.6,3.61,1,6.76.95,7.11.4,2.83.06,1.17v.81l.5,1.58.92,3.28.79,2.78.77,2.36.53,1.36.3.93.29,1.07.38,1.48.45,1.86.43,1.85.55,2.49.08,1.22.23,3.42.1,4.28v1.74l.12,1,.32,1.32,1,3.33.51,1.59.2,1,.06,1.15V420l-.14,4.43,0,1.9.08,1.2.49,2.28,1.52,4.66,1.95,6.11,1.23,4.06,1.29,4.71.52,2.43.2.9-.13,1.2-.09,2.19.08,1.8.24,1.76.86,3.46,1.33,4.09,2,5.1,1.93,4.56.88,2.28.77,2.31.63,2.35.46,2.59.16,2.77v6.35l.44,3.52.17,3.18.33,2.86.77,3.34.58,1.52.53.58,1.06.42h1.21l1-.2,1.39-.48,1.24-.6,1.92-1.31.51-.68.62-1.78.26-2,.11-2.77-.27-3.33-.86-6.27-.8-2.48v-1.45l.13-2.91-.13-5.66-.65-7.94-.38-7.45v-6.19l.11-4-.12-3.56-.7-7.12-.66-4.32-1.06-4.51-.31-3.42,0-2.4.07-2-.07-1.66-.41-2.48-.47-1.31.94-.42,2.11-.73,2.16-.48,2.15-.09,3.84.2,3.57-.06,2.33.09,1.65.29a4.07,4.07,0,0,1,.28-.38l.6-.08.18-.25-.14-.56-1.08-2.2-.24-1.92.08-1.9-.08-3.33-.29-4.69-.22-4.26-.39-4.57-.21-2-.2-2.9-.3-3.78-.26-1.67-.47-2.73-.24-2.22s-.13-3.34-.13-3.37-.06-1.78-.06-1.78l-.27-4-.22-2.46-.45-6-.35-5.06-.07-1.07-.37-4-.6-2-.92-4-.34-2-.77-4-.3-1.25-.13-1.28s0-1.9,0-2,.1-2.39.1-2.39l.13-2.78s-.11-1.09-.09-1.22a5.94,5.94,0,0,0-.31-1l-.76-3.37-.44-2.08-.8-3.94-.46-2.29-.88-4.12-.3-1.88-.45-3.5-.11-1.52,0-1.35.05-1.88s-.23-1.47-.24-1.5l-.6-1.66-.74-2.42s-.21-1.14-.23-1.29-.1-1-.1-1l-.41-2.8s-.37-1.53-.34-1.62a8.48,8.48,0,0,0-.25-1l-1-4.39-.44-2.11-.56-3.35-.61-2.6-.77-3.31-.6-1.51-1.7-3.45L197,264.58l-2-3.71-.64-1,.1-2L191.32,254,190,252.18l-1.32-1.68-1.61-1.13-1.21-1.09-2-1.35-2.2-1.16-3.9-1.92-3.32-1.15-3.12-1.12H169.5l-1.66-.05Z"/><path class="cls-8" d="M197.17,381.38c0,2.56,2.8,11.12,2.74,11.78-.16,1.73.45,3.18.52,5,.08,2.51.2,4.94.34,7.39.06,1.07-.3,2.54,0,3.55.48,1.42-1.51,9.74.3,11.53a16.1,16.1,0,0,1,9.11-1.6c3,.28,6.63-.34,9.52.37.1-.45.88-.31,1.07-.5,0-1-1-2-1.2-3.09a10.71,10.71,0,0,1-.18-3.11c.19-1.92-.32-7.9-.34-9s-.34-6.63-.52-7.91c-.57-4-.33-7-1.26-11.86a46.6,46.6,0,0,1-.62-6.51c.09-1.58-1.22-17.41-1.37-20.38-.06-1.32-.24-2.44-.34-3.77-.11-1.62-.73-2.93-1-4.79-1.09-4-1.39-7.45-1.87-9.08-.76-2.6.3-9.26-.17-10.28s-2.84-13.42-3.44-15.92c-.47-2-.62-4.27-.94-6.27s.26-4.08-.27-6-1.36-3.6-1.57-5.73a37.93,37.93,0,0,0-1-5.83c-.32-1.25-1.86-8.56-1.89-9.07a22,22,0,0,0-.69-3.42,24.36,24.36,0,0,0-2.21-6.86l-5.63-10.93"/><path class="cls-8" d="M197.17,381.38c.21-1.07-.91-5.68-1.2-7.06-.19-1,0-2.08-.1-3.05s-.56-4.09-.58-5.3"/><path class="cls-8" d="M195.29,366c-.56-3.05-1.29-5.57-1.95-8.9-.29-1.46-.53-4.21-.71-5.18s-1-3.47-1.11-4.34c-.17-1.9-1-8.12-1-9.8s-.83-3-.85-4.84-.61-3.1-.69-4.79a31.66,31.66,0,0,1,0-6.08c.32-1.94,1.4-4.24,1.69-6.19"/><path class="cls-8" d="M190.66,316c0-4.13.16-8.22.35-12.34.23-5-1.76-9.76-1.89-14.71-.06-2.51,0-5,0-7.54"/><path class="cls-8" d="M179.53,290.78c0,1.13,1.77,2.14,2.23,3.26s.41,2.48,1.18,3.68a14,14,0,0,1,1.9,8.31"/><path class="cls-8" d="M178.16,312.36c-1-1-3.62-.32-4.42.86-.43.63-1,4.2-.72,4.89s4.53,2.37,5.24,2.46c1.74.21,5.26-2.62,4.88-4.61S179,312.2,178.16,312.36Z"/><path class="cls-8" d="M185.36,348.84c-3.39.05-5.57,5.65-3,7.41a4.61,4.61,0,0,0,7.06-5C189,349,186.69,349.19,185.36,348.84Z"/><path class="cls-8" d="M163.77,329.41c0-2.08.18-3.64-.65-5.05-.54-.92-1.5-1.52-1.77-2.55s.7-1.65,1.1-2.64c.85-2.09.32-4.28.58-6.55.29-2.64,2-6.21,3.1-8.66a18.76,18.76,0,0,1,2.68-4,16.57,16.57,0,0,0,2.14-4.21c1.78-4.08,6-7.77,9.27-10.62,3.07-2.66,5.92-5.58,8.94-8.27,2.42-2.14,6.8-3.89,6.47-7.69-.27-3.06-7.09-5.45-9.79-6.54"/><path class="cls-8" d="M163.78,329.15a18.25,18.25,0,0,0,1.2,5.48,18.7,18.7,0,0,1,1.07,5.95c.08,2.47.77,3.11,1.33,5.17s0,4.76,0,6.76a45.62,45.62,0,0,0,.92,6.56c.71,4,1.4,9.94,1.56,11.26a58.86,58.86,0,0,1,.78,6.08,10.13,10.13,0,0,0,.69,3,81.41,81.41,0,0,0,2.82,9.16c.53,1.3,2.21,8.68,2.48,10.1"/><path class="cls-8" d="M176.62,398.68c.24,3.38.34,6.79.34,10.24,0,1.55,1.75,6.29,2.06,7.49a13,13,0,0,1,.17,3.13c0,2.19-.17,4.3-.17,6.5,0,2.45.64,3.94,1.38,6.2.61,1.89,5.78,17.4,5.81,20.53a34.48,34.48,0,0,0,0,5.67,39.16,39.16,0,0,0,1.47,6c.6,1.9,1.3,3.82,2,5.68,2.43,6,5.72,12.17,5.73,18.81a67.46,67.46,0,0,0,.51,10.53"/><path class="cls-8" d="M196,499.37a29.5,29.5,0,0,0,1.58,10.11c1.16,3.11,6.75.45,8.53-1.19,2.9-2.69.63-15.93.16-17.2a10.4,10.4,0,0,1-.51-5,67.33,67.33,0,0,0-.33-10.23c-.36-3.43-.5-6.81-.69-10.36a96.28,96.28,0,0,1,0-9.76,79,79,0,0,0-1.55-17.38c-.38-1.7-.79-3.27-1-5.05a33.76,33.76,0,0,1-.16-6.51,14.72,14.72,0,0,0-1-6.3"/><path class="cls-8" d="M178.36,262.67c2.17.74,6.77,3.92,8.88,4.56s2.07,2.31,1.24,4.16c-2.58,5.76-9.38,7.89-13.9,12.12-1.4,1.31-3.16,2.34-4.38,3.78s-2.14,3.26-3.26,4.78a23.61,23.61,0,0,0-2.91,4.81c-.7,1.74-.51,3.36-1.45,5a24.43,24.43,0,0,0-2.41,4.47,54,54,0,0,0-.95,7.74"/><path class="cls-8" d="M180.73,322c1.47-.51,2.58,5.47,2.74,6.68s0,2.64.51,3.87c.92,2.14,2.62,2.86,1.89,5.55"/><path class="cls-8" d="M194.26,335.65c2.44-2.35,5.61-3.9,7.45-6.92a10.4,10.4,0,0,0,1.8-3.93c.15-1.08-.12-2.23,0-3.31.13-1.35,1-2.63.86-4"/><path class="cls-8" d="M167.51,241.4c-4,.56-6.36,2.08-7.34,4.26s-.62,4.53-1.57,6.59c-1,2.22-1.13,4.48-2,6.72-1.07,2.71-1.8,14.18-1,17.43.58,2.44,1.12,19.38,1.39,20.71s.52,8.95,1,11.63c.22,1.11.66,2.27.83,3.37a4.74,4.74,0,0,0,.4,2c.81,1.49.95,5.14,2.3,8.14"/><path class="cls-8" d="M178.14,313c-.8-.81-2.9-.26-3.54.68a8.9,8.9,0,0,0-.59,3.93c.25.53,3.64,1.9,4.21,2,1.4.17,4.21-2.1,3.91-3.69S178.83,312.88,178.14,313Z"/><path class="cls-8" d="M185.37,349.58c-2.67,0-4.39,4.45-2.32,5.83a3.62,3.62,0,0,0,5.56-3.94C188.2,349.72,186.43,349.85,185.37,349.58Z"/><path class="cls-8" d="M184.54,351.89a8.28,8.28,0,0,0-.22,1.35,14.92,14.92,0,0,1,2.5.15c0-.44,0-1.41-.55-1.46a11,11,0,0,0-1.12.09,2.94,2.94,0,0,1-.89,0l.8,0"/><path class="cls-8" d="M176.32,314.8c0,.45,0,.89,0,1.34a2,2,0,0,1,0,.51c-.05.18-.19.19-.14.46.59,0,1.2-.12,1.81-.12a13.64,13.64,0,0,1,1.81,0c0-.26-.13-.56-.12-.85a3.78,3.78,0,0,0-.07-.89c-.13-.49-.35-.32-.83-.32a13.94,13.94,0,0,1-1.71,0C176.75,314.91,176.54,314.83,176.32,314.8Z"/><path class="cls-8" d="M185.84,262.67c2-1.06,5.45-1.26,7.32-2.4,2.8-1.7.42-3.85-1.17-5.51s-2.15-3.37-3.87-4.74a53.25,53.25,0,0,0-5-3.55,34.67,34.67,0,0,0-10.1-4.38c-3.27-.71-7.83-.89-10.81.84"/><path class="cls-8" d="M161.79,243.82c2.71,0,10.83.47,13.29,1.37,4.74,1.71,8.33,3.2,11.52,7.09.62.75,3.52,4.16,3.38,4.94-.21,1.12-2.36,1.33-3.16,1.54a87.71,87.71,0,0,0-8.46,3.91"/></g><g id="earring-right"><path class="cls-10" d="M179.78,171.45c1.64-.64,4,1.26,1.86,1.63-1.61.27-3-2-.77-2.12,1.49-.08,3,.72,4.59.36,3.27-.76-1-3.56-2.56-3.53,0,0-2.32-.76-3.4.94a2.4,2.4,0,0,0,0,2.9"/><path class="cls-10" d="M178.36,172.7c-1.32,1.93-3.75,3.78-2.67,6.32.84,2,3,2.3,3.56-.15A6.91,6.91,0,0,0,178.36,172.7Z"/><path class="cls-10" d="M180.77,174.39c-.8,1.14-1.13,6.4,1,6.29C184.81,180.53,182.32,174.81,180.77,174.39Z"/><path class="cls-10" d="M182.18,173.1c-1.57.82,1.75,2.7,2.27,3.5s1.78,2.64,3.25,2.54c1.18-2.06-.76-3.51-2.25-4.62-1-.79-2.25-.66-3.27-1.42"/><path class="cls-6" d="M176.21,179.87c.6,2.93-.59,9.8-1.22,12.26-.46,1.79-.55,3.65-1.16,5.36-.79,2.22-.84,4.55-1.74,6.84a40.75,40.75,0,0,0-2.15,9.34,14.94,14.94,0,0,0,.17,5.58c.52,1.75,1.94,2.18,2.75.41.95-2.09.57-4.68.59-6.92,0-1.76.34-3.49.5-5.24s1.91-7.72,2-9.58c.17-2.86,2.12-16.28,2.48-17.57l-.73.26-.71-.12-.55-.36Z"/><path class="cls-6" d="M181.23,180.51c.13,2.55-2,14.86-2.24,17.87-.12,1.49-.82,7.66-.88,9.32a82.23,82.23,0,0,0,.35,9.16,22.09,22.09,0,0,0,.53,5c.44,1.42,1.6,3.41,3,1.44,1.33-1.81.49-4.31-.17-6.09a12,12,0,0,1-.33-3.35,55.08,55.08,0,0,1,0-8.52c.07-1.39.49-2.73.6-4.1.06-.74.19-9.24.19-12a14.76,14.76,0,0,1,.44-2.87c.23-.84,0-1.25.16-2.15.13-.6.2-2.95-.33-3.76l-.72.22Z"/><path class="cls-6" d="M185.17,177.61a76.3,76.3,0,0,1,1,8.17c.06,1.34,0,2.69,0,4,0,2.52-.23,14.54-.51,16.19a14.3,14.3,0,0,0-.25,4.83c.38,1.87,1.17,3.37,1.14,5.32a29.83,29.83,0,0,0,0,5.67c.22,1.16,1.8,2.93,3.16,1.89.59-.44.4-2.32.52-3a26.31,26.31,0,0,0,.61-3.53,12,12,0,0,0-1-5c-.82-2.24-.76-4.89-.76-7.33v-4c0-2-1.8-21.05-2.32-21.94l-.81-.53Z"/><circle class="cls-6" cx="179.11" cy="172.38" r="0.66"/><circle class="cls-6" cx="180.11" cy="173.8" r="0.82"/><circle class="cls-6" cx="183.93" cy="172.54" r="1.09"/><path class="cls-5" d="M180.84,173.65a.82.82,0,0,0,.65,0l.17-.08s.08-.07.13-.08"/><path class="cls-5" d="M180.93,174.45a1.47,1.47,0,0,0,.68-.18c.09-.07.18-.2.28-.25"/><path class="cls-5" d="M181.62,175a1.9,1.9,0,0,0,.52-.24.44.44,0,0,0,.16-.17"/><path class="cls-5" d="M179.46,175.15c.23.11.14.34.41.34a1.84,1.84,0,0,0,.47-.07"/><path class="cls-5" d="M184.69,174.07a2.31,2.31,0,0,0,.85-2.83"/><path class="cls-5" d="M170.11,219.19a6,6,0,0,0,2.73.27c0-.14,0-.11.11-.18"/><path class="cls-5" d="M170,216.92c.35.58,2.85-.18,3.21-.75"/><path class="cls-5" d="M169.83,214.09c.92.71,2.73.07,3.4-.76"/><path class="cls-5" d="M170.21,211.16a4,4,0,0,0,3-.38"/><path class="cls-5" d="M170.68,208.61a3.47,3.47,0,0,0,2.93-.19"/><path class="cls-5" d="M171.34,206.34a3.94,3.94,0,0,0,2.55.19"/><path class="cls-5" d="M172.19,203.5a4.1,4.1,0,0,0,2.46.1"/><path class="cls-5" d="M172.85,200.86c.13.42,2,.36,2.55.22a1.56,1.56,0,0,0-.28.16"/><path class="cls-5" d="M173.37,199.21a9,9,0,0,0,2.32-.05"/><path class="cls-5" d="M174,196.8c.62.06,1.22.09,1.85.09"/><path class="cls-5" d="M174.51,194.58a3.31,3.31,0,0,0,1.7.18"/><path class="cls-5" d="M175,192.26a9.62,9.62,0,0,0,1.41.14"/><path class="cls-5" d="M175.36,190.8a6.67,6.67,0,0,0,1.27.14"/><path class="cls-5" d="M175.73,189a5.3,5.3,0,0,0,1,.14"/><path class="cls-5" d="M176,187.35a2.92,2.92,0,0,0,1.09.23"/><path class="cls-5" d="M176.3,185.65a2.77,2.77,0,0,0,.95.19"/><path class="cls-5" d="M176.25,184h1.33"/><path class="cls-5" d="M176.39,182.1a12.79,12.79,0,0,0,1.52.1"/><path class="cls-5" d="M181.26,182.09c.43-.11,1.12.12,1.48-.16"/><path class="cls-5" d="M181.1,183.63c.58,0,1.16.06,1.74.06"/><path class="cls-5" d="M180.88,185.46a6.08,6.08,0,0,1,1.86.12"/><path class="cls-5" d="M180.6,187.22a3.62,3.62,0,0,0,1.76.28"/><path class="cls-5" d="M180.13,189.39c.61.2,1.35.11,2,.29"/><path class="cls-5" d="M180.13,191.09c.58.65,1.42.21,2.08.48"/><path class="cls-5" d="M179.75,193.3a3.85,3.85,0,0,0,1.63.41,5.86,5.86,0,0,0,.73,0"/><path class="cls-5" d="M179.37,195.44a15.71,15.71,0,0,0,2.71.41"/><path class="cls-5" d="M179.09,197.87a31.08,31.08,0,0,1,3.21.15"/><path class="cls-5" d="M178.77,200.73a6.21,6.21,0,0,0,2.31.89,5.52,5.52,0,0,0,.91,0"/><path class="cls-5" d="M178.49,204.2c1,.23,1.88.84,2.93.6"/><path class="cls-5" d="M178.24,207.06a5.6,5.6,0,0,0,3.12.38"/><path class="cls-5" d="M178.11,209.9a7.62,7.62,0,0,0,1.54.22c.29,0,.59.06.87.07a3.61,3.61,0,0,0,.8-.13"/><path class="cls-5" d="M178.24,213.11c.66,0,1.32.3,2,.22.31,0,.6-.16.92-.19"/><path class="cls-5" d="M178.33,215.47a1.14,1.14,0,0,1,.39.14,5.16,5.16,0,0,0,1.47.12,6.61,6.61,0,0,0,1.29-.35"/><path class="cls-5" d="M178.68,218.72c1.11-.33,2.26.09,3.27-.6"/><path class="cls-5" d="M179,221.61c1.33,0,2.52.3,3.75-.31"/><path class="cls-5" d="M185.7,180.14a2.54,2.54,0,0,0,1.16.05"/><path class="cls-5" d="M185.94,181.58c.3,0,.61,0,.91,0a.53.53,0,0,0,.32-.08"/><path class="cls-5" d="M186,183.24a7.41,7.41,0,0,0,.94,0,2.18,2.18,0,0,0,.48-.19"/><path class="cls-5" d="M186.17,184.87a5.61,5.61,0,0,0,.82,0c.18,0,.34-.16.53-.19"/><path class="cls-5" d="M186.22,186.47a3.15,3.15,0,0,0,.92-.06,3.53,3.53,0,0,1,.59-.22"/><path class="cls-5" d="M186.32,188.27l1.51-.05"/><path class="cls-5" d="M186.32,190.28a10.73,10.73,0,0,0,1.27,0,2.12,2.12,0,0,0,.57-.19"/><path class="cls-5" d="M186.29,192.05a3.53,3.53,0,0,0,1.82.09"/><path class="cls-5" d="M186.2,193.94a2.29,2.29,0,0,0,2.24-.05"/><path class="cls-5" d="M186.13,196.11a11,11,0,0,0,1.72.06,3.94,3.94,0,0,0,.76-.32"/><path class="cls-5" d="M186.08,198.43c.33,0,.67.23,1,.27a2.56,2.56,0,0,0,.83,0,1.92,1.92,0,0,0,.89-.47"/><path class="cls-5" d="M186.08,200.74a1.78,1.78,0,0,0,.89.07c.44,0,.88,0,1.32-.07a.92.92,0,0,0,.29,0c.13-.06.26-.17.38-.24"/><path class="cls-5" d="M185.84,203.13a11.85,11.85,0,0,0,2.65.21,2.53,2.53,0,0,0,.64-.31"/><path class="cls-5" d="M185.77,205.44c.4.31,1.37.24,1.85.28a4.34,4.34,0,0,0,1.34.1"/><path class="cls-5" d="M185.44,208.28a1.14,1.14,0,0,1,.44.11,7.43,7.43,0,0,0,1.13.27,4.87,4.87,0,0,0,1.32.16,2.48,2.48,0,0,0,.73-.36"/><path class="cls-5" d="M185.44,211a1.93,1.93,0,0,1,.48.08,13.43,13.43,0,0,0,1.43.3c.48.07,1.11.26,1.54-.09a3.87,3.87,0,0,0,.54-.53"/><path class="cls-5" d="M186.34,213.87A12.81,12.81,0,0,0,188,214a5.76,5.76,0,0,0,1.28-.4,4.33,4.33,0,0,0,.79-.44"/><path class="cls-5" d="M186.6,217a7.07,7.07,0,0,0,1.78.16,6.24,6.24,0,0,0,1.76-.34,5.25,5.25,0,0,0,.81-.32"/><path class="cls-5" d="M186.32,219.87c.54,0,1.09.18,1.63.21a4.64,4.64,0,0,0,1.43-.27,4.82,4.82,0,0,0,1.05-.36"/><path class="cls-5" d="M186.84,222.54a8.78,8.78,0,0,0,2.61-.1c.24-.07.46-.2.69-.25"/><line class="cls-8" x1="181.41" y1="125" x2="181.41" y2="167.79"/><circle class="cls-9" cx="181.73" cy="124.55" r="1.96"/></g><g id="earring-left"><path class="cls-10" d="M103.18,176.66c1.65-.64,4,1.26,1.87,1.64-1.61.27-3-2-.77-2.12,1.49-.09,3,.71,4.58.36,3.28-.77-1-3.57-2.55-3.54,0,0-2.32-.75-3.4.95a2.38,2.38,0,0,0,0,2.9"/><path class="cls-10" d="M101.77,177.92c-1.32,1.93-3.76,3.78-2.68,6.32.85,2,3,2.3,3.57-.16A6.9,6.9,0,0,0,101.77,177.92Z"/><path class="cls-10" d="M104.17,179.6c-.79,1.14-1.12,6.41,1,6.3C108.22,185.74,105.72,180,104.17,179.6Z"/><path class="cls-10" d="M105.59,178.32c-1.57.81,1.75,2.7,2.27,3.49.62.95,1.78,2.65,3.25,2.55,1.18-2.06-.76-3.51-2.26-4.63-1-.78-2.25-.66-3.26-1.41"/><path class="cls-6" d="M99.62,185.09c.6,2.93-.59,9.8-1.23,12.26-.46,1.79-.54,3.64-1.15,5.35-.79,2.23-.84,4.56-1.74,6.84a40.83,40.83,0,0,0-2.15,9.35,15.15,15.15,0,0,0,.16,5.58c.53,1.75,1.94,2.18,2.75.41,1-2.09.58-4.68.6-6.92,0-1.77.33-3.49.5-5.25s1.9-7.72,2-9.58c.17-2.85,2.13-16.27,2.49-17.57l-.73.27-.71-.13-.55-.35Z"/><path class="cls-6" d="M104.64,185.73c.12,2.55-2,14.85-2.24,17.87-.12,1.48-.82,7.66-.88,9.31a82.31,82.31,0,0,0,.35,9.17,21.54,21.54,0,0,0,.53,5c.44,1.42,1.59,3.4,3,1.44s.48-4.31-.17-6.09a12.47,12.47,0,0,1-.34-3.35,55.2,55.2,0,0,1,0-8.53c.06-1.39.49-2.73.6-4.1.06-.73.19-9.24.19-12a14.66,14.66,0,0,1,.44-2.86c.23-.85,0-1.26.16-2.15a7.41,7.41,0,0,0-.38-3.74h-.31l-.68.05Z"/><path class="cls-6" d="M108.58,182.82c.33,1.41.93,6.63,1,8.17.06,1.34,0,2.7,0,4,0,2.52-.24,14.53-.51,16.18a13.86,13.86,0,0,0-.25,4.84c.38,1.87,1.17,3.36,1.14,5.32a29.73,29.73,0,0,0,0,5.66c.22,1.17,1.79,2.94,3.16,1.9.59-.45.4-2.32.52-3a26.31,26.31,0,0,0,.61-3.53,12,12,0,0,0-1-5c-.81-2.24-.75-4.9-.75-7.33v-4c0-2-1.81-21.05-2.33-21.94l-.8-.53Z"/><circle class="cls-6" cx="102.52" cy="177.59" r="0.66"/><circle class="cls-6" cx="103.52" cy="179.02" r="0.82"/><circle class="cls-6" cx="107.34" cy="177.76" r="1.09"/><path class="cls-5" d="M104.24,178.86a.81.81,0,0,0,.66,0l.16-.07s.09-.08.14-.09"/><path class="cls-5" d="M104.33,179.66a1.27,1.27,0,0,0,.69-.18c.09-.07.18-.2.28-.24"/><path class="cls-5" d="M105,180.24a1.92,1.92,0,0,0,.52-.25.41.41,0,0,0,.16-.16"/><path class="cls-5" d="M102.87,180.36c.23.12.13.35.41.34a1.49,1.49,0,0,0,.47-.07"/><path class="cls-5" d="M108.09,179.29a2.3,2.3,0,0,0,.85-2.84"/><path class="cls-5" d="M93.52,224.4a5.92,5.92,0,0,0,2.72.27c0-.14.05-.11.11-.17"/><path class="cls-5" d="M93.42,222.14c.36.58,2.86-.19,3.22-.76"/><path class="cls-5" d="M93.24,219.3c.92.72,2.73.07,3.4-.75"/><path class="cls-5" d="M93.61,216.37a4.1,4.1,0,0,0,3-.37"/><path class="cls-5" d="M94.09,213.82a3.41,3.41,0,0,0,2.92-.19"/><path class="cls-5" d="M94.75,211.55a3.87,3.87,0,0,0,2.55.19"/><path class="cls-5" d="M95.6,208.72a4.07,4.07,0,0,0,2.45.09"/><path class="cls-5" d="M96.26,206.07c.13.42,2,.36,2.55.23a1.51,1.51,0,0,0-.28.15"/><path class="cls-5" d="M96.78,204.42a8.51,8.51,0,0,0,2.31,0"/><path class="cls-5" d="M97.44,202a16,16,0,0,0,1.84.1"/><path class="cls-5" d="M97.91,199.79a3.34,3.34,0,0,0,1.7.19"/><path class="cls-5" d="M98.38,197.48a13.92,13.92,0,0,0,1.42.14"/><path class="cls-5" d="M98.76,196a6.78,6.78,0,0,0,1.28.14"/><path class="cls-5" d="M99.14,194.22a6,6,0,0,0,1,.14"/><path class="cls-5" d="M99.38,192.56a3.13,3.13,0,0,0,1.08.24"/><path class="cls-5" d="M99.71,190.86a2.32,2.32,0,0,0,.94.19"/><path class="cls-5" d="M99.66,189.21H101"/><path class="cls-5" d="M99.8,187.32a12.62,12.62,0,0,0,1.51.09"/><path class="cls-5" d="M104.67,187.3c.43-.1,1.12.12,1.48-.15"/><path class="cls-5" d="M104.51,188.85c.58,0,1.15.06,1.73.06"/><path class="cls-5" d="M104.29,190.67a6.08,6.08,0,0,1,1.86.13"/><path class="cls-5" d="M104,192.44a3.74,3.74,0,0,0,1.76.28"/><path class="cls-5" d="M103.53,194.61c.62.2,1.36.1,2,.28"/><path class="cls-5" d="M103.53,196.31c.59.64,1.43.21,2.08.47"/><path class="cls-5" d="M103.16,198.52a3.67,3.67,0,0,0,1.63.4,4.41,4.41,0,0,0,.73,0"/><path class="cls-5" d="M102.78,200.66a16.58,16.58,0,0,0,2.71.41"/><path class="cls-5" d="M102.5,203.08a31.22,31.22,0,0,1,3.21.16"/><path class="cls-5" d="M102.18,206a6.25,6.25,0,0,0,2.31.89,6.72,6.72,0,0,0,.9,0"/><path class="cls-5" d="M101.9,209.41c1,.23,1.88.85,2.93.6"/><path class="cls-5" d="M101.64,212.28a5.62,5.62,0,0,0,3.12.38"/><path class="cls-5" d="M101.52,215.11a7.62,7.62,0,0,0,1.54.23,6.36,6.36,0,0,0,.87.06,2.73,2.73,0,0,0,.8-.13"/><path class="cls-5" d="M101.64,218.33c.67,0,1.33.3,2,.22.31,0,.6-.16.91-.19"/><path class="cls-5" d="M101.74,220.69a1.38,1.38,0,0,1,.39.13,4.53,4.53,0,0,0,1.47.12c.5,0,.82-.26,1.29-.35"/><path class="cls-5" d="M102.09,223.93c1.1-.32,2.26.09,3.27-.6"/><path class="cls-5" d="M102.4,226.83c1.33,0,2.51.29,3.75-.31"/><path class="cls-5" d="M109.11,185.36a2.68,2.68,0,0,0,1.16,0"/><path class="cls-5" d="M109.35,186.8l.9,0a.44.44,0,0,0,.32-.08"/><path class="cls-5" d="M109.42,188.45a7.38,7.38,0,0,0,.94,0,2.43,2.43,0,0,0,.47-.19"/><path class="cls-5" d="M109.58,190.08a5.47,5.47,0,0,0,.81,0c.19,0,.35-.16.54-.19"/><path class="cls-5" d="M109.63,191.69a3.06,3.06,0,0,0,.91-.07,3.91,3.91,0,0,1,.6-.21"/><path class="cls-5" d="M109.72,193.48l1.52,0"/><path class="cls-5" d="M109.72,195.49a10.94,10.94,0,0,0,1.28,0,2.25,2.25,0,0,0,.57-.19"/><path class="cls-5" d="M109.7,197.26a3.54,3.54,0,0,0,1.82.1"/><path class="cls-5" d="M109.61,199.15a2.29,2.29,0,0,0,2.24,0"/><path class="cls-5" d="M109.53,201.33a11.12,11.12,0,0,0,1.73.06,5.64,5.64,0,0,0,.75-.32"/><path class="cls-5" d="M109.49,203.64c.33,0,.67.24,1,.28a3,3,0,0,0,.84,0,2,2,0,0,0,.89-.47"/><path class="cls-5" d="M109.49,206a2,2,0,0,0,.89.07c.44,0,.88,0,1.32-.07a.92.92,0,0,0,.29,0,3.11,3.11,0,0,0,.38-.25"/><path class="cls-5" d="M109.25,208.34a11.26,11.26,0,0,0,2.65.22c.25,0,.41-.22.63-.31"/><path class="cls-5" d="M109.18,210.66a4.39,4.39,0,0,0,1.85.28,4,4,0,0,0,1.34.09"/><path class="cls-5" d="M108.85,213.49a1.16,1.16,0,0,1,.44.12,8.45,8.45,0,0,0,1.13.27,4.84,4.84,0,0,0,1.31.15,2.46,2.46,0,0,0,.73-.35"/><path class="cls-5" d="M108.85,216.18a1.63,1.63,0,0,1,.48.09c.47.11.94.22,1.42.29s1.12.27,1.55-.09a6.63,6.63,0,0,0,.54-.52"/><path class="cls-5" d="M109.75,219.09a14.91,14.91,0,0,0,1.64.14,6,6,0,0,0,1.28-.41,4.08,4.08,0,0,0,.79-.44"/><path class="cls-5" d="M110,222.16a6.6,6.6,0,0,0,1.78.17,6.25,6.25,0,0,0,1.76-.35,3.71,3.71,0,0,0,.8-.32"/><path class="cls-5" d="M109.72,225.09a15.32,15.32,0,0,1,1.64.21,5,5,0,0,0,1.43-.28,3.77,3.77,0,0,0,1-.36"/><path class="cls-5" d="M110.24,227.76a8.83,8.83,0,0,0,2.62-.11c.23-.07.46-.19.69-.25"/><line class="cls-8" x1="104.82" y1="130.22" x2="104.82" y2="173.01"/><circle class="cls-9" cx="105.14" cy="129.76" r="1.96"/></g><g id="necklace"><path class="cls-8" d="M139.69,244.2a19.22,19.22,0,0,0,.56,3.53c.28,1.6.26,3.22.44,4.83.35,3.05.9,6,1.42,9,.58,3.44,1.75,6.66,1.79,10.17,0,1.06.06,2.11.06,3.17a2.81,2.81,0,0,1,.36-1.08c.73-1.78,1.64-3.48,2.37-5.26a28.42,28.42,0,0,0,2.25-10.47c.08-4.62.13-9.25.13-13.84"/><path class="cls-11" d="M144,273.76c0,2-1.12,4-1.74,5.82a12.39,12.39,0,0,0-.21,5.39c.11,1,0,2.67,1,3.35a4,4,0,0,0,2.85.18c1.2-.47,1.67-2.53,1.75-3.66a17,17,0,0,0-1.38-8.27C145.85,275.74,144.23,274.14,144,273.76Z"/><path class="cls-12" d="M145.22,278.39c-.54.79-2,3.25-1.42,4.56.44.92,1.18.33,1.63-.28,1.1-1.49.32-3.18-.63-4.46C144.83,278.09,144.92,278,145.22,278.39Z"/></g></svg>