<svg id="Layer_2" data-name="Layer 2" xmlns="http://www.w3.org/2000/svg" viewBox="0 0 288.23 745.64"><defs><style>.cls-1{fill:#fbf39b;}.cls-2{fill:#fdedee;}.cls-17,.cls-3{fill:none;}.cls-17,.cls-18,.cls-19,.cls-3,.cls-7,.cls-8{stroke:#231f20;}.cls-17,.cls-18,.cls-21,.cls-3,.cls-7,.cls-8{stroke-miterlimit:10;}.cls-3{stroke-width:0.5px;}.cls-19,.cls-4{fill:#231f20;}.cls-21,.cls-5,.cls-8{fill:#fff;}.cls-6{fill:#22447d;}.cls-15,.cls-7{fill:#bbbdbf;}.cls-17,.cls-18,.cls-7,.cls-8{stroke-width:0.25px;}.cls-9{fill:#404041;}.cls-10{fill:#acc561;}.cls-11,.cls-18{fill:#1c3664;}.cls-12{fill:#219e49;}.cls-13{fill:#fff100;}.cls-14{fill:#a6a8ab;}.cls-16{fill:#c02126;}.cls-20{fill:#e01f2a;}.cls-21{stroke:#000;}</style></defs><title>william</title><rect class="cls-1" y="69" width="288.23" height="676.64"/><rect width="288.23" height="69"/><g id="Pants"><path class="cls-2" d="M110.74,686v6.55l6.89,2.66,7.85,1.4.28-2.16v-2.37l-1.07-2.32-.62-2.9s-.26-2.14-.26-2.14Z"/><polygon class="cls-2" points="142.9 677.31 142.67 680.05 142.27 681.65 142.12 682.86 143.17 685.33 145.06 686.68 146.36 686.64 148.72 687.17 150.82 687.34 152.04 687.25 152.57 685.84 153.4 683.47 152.57 678.23 142.9 677.31"/><path class="cls-3" d="M142.82,679.52c.2-.06.1-.82.29-.92"/><path class="cls-3" d="M125.83,692.84c-.24-1-1-2.6-1.35-3.59a44.2,44.2,0,0,1-.68-4.55"/><circle class="cls-4" cx="128.8" cy="508.02" r="3.15"/><path class="cls-4" d="M171.34,584c0-6.5,0-13-.05-19.49a5.92,5.92,0,0,0,0-1.68c-1.16-3.57-.54-7.2-.51-10.81l-1.38-.2a3.63,3.63,0,0,1,.48-3.64,2.73,2.73,0,0,0-.11-3.05c-.31-4.54-.23-9.15-2.81-13.22a1.48,1.48,0,0,1-.16-.81c.19-2.61-.88-5-1.45-7.43a8.93,8.93,0,0,1,0-4.36,4.62,4.62,0,0,0,.15-2.2c-.48-2.08-1-4.17-1.64-6.2a8.13,8.13,0,0,1-.26-4.93,7.44,7.44,0,0,0-2.49-7.94l-1.26.07c-4.46.7-8.74,2.15-13.12,3.18-4.6,1.08-9.17,2.24-13.95,1.91-5.78.39-11.51.95-17.35.18-5.21-.69-10.27-1.86-15.36-3a16.46,16.46,0,0,1-2-.89c-1.65,4.13-1.52,8.79-3.76,12.74a1.28,1.28,0,0,0,0,.56A43,43,0,0,1,93,524.12a19,19,0,0,0-.48,5c0,6.86,0,13.73,0,20.61,1.3.72,1.88,1.57.46,2.73-.42.34-.33.84-.45,1.26a.59.59,0,0,1,.06.5c.22,1.71,1.18,3.35.52,5.15q.82,7.71,1.66,15.43c.28,2.62.47,5.26.81,7.87.69,5.22,1.88,10.36,2.14,15.66a22.48,22.48,0,0,1-.06,4.71c-.29,1.88.69,3.79.43,5.56-.63,4.35.19,8.7-.43,13-.35,2.49.39,5,.43,7.51a38.69,38.69,0,0,0,.67,8.42c.63,2.73.81,5.56,1.24,8.35.45,3,1,5.91,1.44,8.87.92,5.94,3.27,11.51,4.39,17.4.28,1.47,1,3,.64,4.39-.57,2.36-.34,4.69-.37,7a11,11,0,0,1-.54,3.73,17.93,17.93,0,0,0,10.34,1.29c.9-.6.44-.74.78-.92,2.17-1.15,2.57-1,4.28-1.85a5.15,5.15,0,0,1,2-.87,4.41,4.41,0,0,1,1.26,0c.68-.4.82-.63.6-1.25a11,11,0,0,1-1.13-3,134.16,134.16,0,0,1-.73-16c.05-2.44,0-4.89-.14-7.34-.15-4.52-1.39-8.94-1.19-13.44.25-5.74.29-11.48.38-17.22,0-2.47-.77-4.81-.51-7.29.47-4.4.61-8.83,1.22-13.2.4-2.88.28-5.83,1.19-8.61a7.61,7.61,0,0,0,.37-3.33,17.26,17.26,0,0,1,.76-6.7c.21-.74.56-1.51.2-2.17a2.9,2.9,0,0,1,.21-2.92A5.86,5.86,0,0,0,126,580a50,50,0,0,1,1.93-11.65c1.76-6.76,3.12-13.54,3-20.56,0-.44.14-.94.78-.87.38.23.41.59.49,1,1.21,5.65,1.76,11.43,4,16.89a128.23,128.23,0,0,1,6.85,20.45c.23,1.08,1,2,1.06,3.18a39.77,39.77,0,0,0,1.85,11.3,9.42,9.42,0,0,1,.43,3.07,25,25,0,0,0,1.2,8.57c1.5,4.31-1,8.31-.3,12.47.05.31-.31.66-.41,1a7.4,7.4,0,0,0-.33,1.66c-.14,5.64-.48,11.29-.27,16.92a27.74,27.74,0,0,1-.68,7.19c-.2.83-.28,1.66-.42,2.49-.47,2.68-.68,5.42-1.31,8-1.07,4.54-2.59,9-2.64,13.71a2.41,2.41,0,0,1-.4,1.33c-.07.11-.13.23-.2.35a.51.51,0,0,1,.21.16A18.79,18.79,0,0,0,151,683.46c2.38.63,4.58-.12,7,.22a4.76,4.76,0,0,1,.52.1,9.08,9.08,0,0,1,.57-2.31c1.27-3.24,2.57-6.48,2-10.1a3.79,3.79,0,0,1,.25-1.94c1.79-4.28,2.6-8.81,3.59-13.29,1.19-5.39,2.22-10.82,3.21-16.26.75-4.06,1.31-8.15,1.95-12.23a6.79,6.79,0,0,0,.11-3.1,7.38,7.38,0,0,1,.34-4.95c.81-2.19-.6-4.61.71-6.74-1-2-.2-4.08-.14-6C171.25,599.22,171.33,591.62,171.34,584Zm-43.53-73.95a2.09,2.09,0,0,1,.37-4.15,2.44,2.44,0,0,1,1.74,2.23A2.32,2.32,0,0,1,127.81,510.07Z"/></g><g id="Right-shoe"><path class="cls-5" d="M128.67,705.08l-1.48.91-1.86,1.21-1.61.67c-.16.06-2.13.64-2.13.64l-1.41,1.06-2,2.18-1.37,1.85-2.25,2.45L113,717.13l-3.29,1.17-4.2.31-5.43,0L97,718.46s-3.38-.79-3.44-.82l-1.62-.79-1.09-.2-.73.85-.13.64.13,1.25.92,2,1.4.85,2.42.54,4.08.27,4,.17,4.22-.3,4.05-.88,2.64-1.09,1.78-1,1.25-1.71s1.41-2.27,1.47-2.3,1.52-1.11,1.52-1.11l2.67-1,2.72-.75,2.27-1.13,1.1-1.16.82-1.68.31-2.37-.23-1-.42-.77Z"/><path class="cls-5" d="M115.49,687l.14,0-2.29.37-1.8.86,1.23-.61s.82-.74,1.2-.64A6.63,6.63,0,0,0,115.49,687Z"/><polygon class="cls-5" points="118.73 689.85 118.36 689.32 117.83 688.17 118.07 688.46 118.56 689.38 118.73 689.85"/><path class="cls-6" d="M128.09,705.33l-1.14.82-1.69,1.09-2,.83-1.78.64L119.79,710l-1.43,1.59-1.26,1.58L116,714.44l-1.94,2-2.16,1.15-3.36.83-5,.3-7.26-.3-4.54-1.64-1.22.06.21-.27-.08-.75s.14-.88.17-.93l1.09-1.7s1.65-2.9,1.8-3,.29-.65.29-.65l.63-.94L96.24,707l1.41-1.4,2-1.79,1.66-1.64,1.2-1.7,1.39-2.1,1.09-1.8.53-1.61s.76-1.66.83-1.7,1.23-1.54,1.23-1.54l.06-.9v-1.69a1.37,1.37,0,0,1,.17-.35c.06,0,.33.22.33.22l.24.49.18.16.06.05,1.23-.65.13-.06,1.6-.77,1.8-.86,2.29-.37,1.19.31.69.51.32.37.53,1.15.37.52.22.58.43.7.52.57s.25.3.29.27l0,0h0l.75-.61.64-.41,1.1.39,1.08,1.18.49.77.45.71,1,1.3v-.43c0-.08,0-.62,0-.75s0-1.11,0-1.11l.22-.71a3.46,3.46,0,0,0,.3-.67,3.91,3.91,0,0,1,.14-.68s.08-.42.08-.42l.36.52.36.75.51,1.08.15.83a4,4,0,0,1,.1.73,3.73,3.73,0,0,0,.31.73l.26.71.16.88-.23.7-.3.79-.2,1,.16.67.43.87.28.78,0,1.19-.25,1s0,.7,0,.78.13.55.13.55Z"/><polygon class="cls-5" points="108.52 689.64 109.81 689.04 108.58 689.69 108.52 689.64"/><polygon class="cls-5" points="117.79 688.1 117.83 688.17 117.51 687.8 116.82 687.29 115.63 686.98 115.77 686.96 117.14 687.31 117.79 688.1"/><path class="cls-5" d="M120.22,691.93l0,0s-.29-.27-.29-.27l-.52-.57-.43-.7-.22-.58Z"/><path class="cls-3" d="M108.25,689.25c.11,1.93-.61,3.47-1,5.26a25.41,25.41,0,0,1-5.06,10.31,22.94,22.94,0,0,1-3.9,3.67c-1.11.76-3.83.68-4.45,1.74,0-1.35,2.7-3.41,3.44-4.21,1.12-1.22,2.45-2.24,3.57-3.43a36.83,36.83,0,0,0,3-4.12c1.06-1.49,1.28-3,2-4.55.42-.91,1.39-1.5,1.69-2.46s-.14-1.84.17-2.69A.8.8,0,0,1,108.25,689.25Z"/><path class="cls-3" d="M90.88,716.76c.71-.3,1.71.52,2.46.82a13,13,0,0,0,3.51.9,71.54,71.54,0,0,0,7.62.1c3.31,0,7.85-.27,10.22-2.66,2-2,3.48-4.49,5.57-6.42,1.07-1,2.13-1.11,3.47-1.56a14.2,14.2,0,0,0,3.36-1.88c1.24-.83,2-1.89,2.46-.06a6.08,6.08,0,0,1-.82,4.55c-2.16,3.58-7.32,2.48-10.12,5.11a15.83,15.83,0,0,0-2.33,3.31,2.93,2.93,0,0,1-1.58,1.49,19.37,19.37,0,0,1-3,1.4A32.75,32.75,0,0,1,98.32,723c-2-.19-4.36,0-6.26-.9A4.4,4.4,0,0,1,90,717.93C90.12,717.09,90.36,717,90.88,716.76Z"/><path class="cls-3" d="M106,708.18a8.28,8.28,0,0,1,3.16,4.72c.25.83.74,1.6,1,2.36.38,1.25-.66,1.75-.42,2.8"/><path class="cls-3" d="M105.67,708.18c1.17-2.4,4-3.75,5.84-5.53s2.83-3.9,4.61-5.72c1-1,1.92-2.22,2.89-3.25.51-.53,1.7-2.45,2.45-2.64,2.31-.59,3.19,4.42,5.21,4.67,1.28.15,1.48-1.08,1.2-2.27-.13-.57-1-2.82-1.42-3,.15.92-.56,1.78-.67,2.7-.09.74,0,1.56,0,2.29"/><path class="cls-3" d="M95.1,709.4c-1.32.26-2.27,2.32-2.93,3.39s-2,2.79-1.43,4.06"/><path class="cls-3" d="M128.78,705.08c-.36-.84,0-1.84.13-2.72.13-1.33-.41-1.57-.78-2.6s.32-1.83.55-2.85-.86-2.36-.55-3"/><path class="cls-3" d="M108.34,690c1.67-1.1,2.92-1.5,4.09-2.25a5.67,5.67,0,0,1,3.82-.73,3.91,3.91,0,0,1,2.41,2.58,4.6,4.6,0,0,0,1.68,2.47"/><path class="cls-3" d="M107.2,693.25c3.22,0,8.15-.06,10.8,3.39"/><path class="cls-3" d="M106.2,695.11c2-.53,4.25.71,6.22,1.29a10.72,10.72,0,0,1,3.71,1.9"/><path class="cls-3" d="M105.68,697.3c1.51,0,3.31,1.22,4.83,1.64,1.34.37,3.08.5,4,1.64"/><path class="cls-3" d="M104.64,699.5a81.69,81.69,0,0,0,8.4,2.87"/><path class="cls-3" d="M103.86,701.32c1.32,0,2.59,1.27,3.77,1.79a13.76,13.76,0,0,0,3.77,1.18"/><path class="cls-3" d="M102.22,703.55c1.46.22,5.16,1.54,6,2.47"/><path class="cls-3" d="M100.88,705.47c1.2.36,2.49.54,3.73.81a5.21,5.21,0,0,1,2.46.94"/><path class="cls-3" d="M99.32,706.92c2.8-.27,4.22.92,6.79,1.43"/><path class="cls-3" d="M108.42,689.7c.76-.88,3.18-1.25,2.86-2.71a2.18,2.18,0,0,1,.51,0"/><path class="cls-3" d="M128,698.56c-.93-.47-2.92,1.32-3.28,2.25a5.83,5.83,0,0,0-.2,2.78c.22,2.26-.45,4.8-3.61,5.42"/><path class="cls-3" d="M120.72,691.5c1-.1.8.7,1.11,1.19s1,.85,1.34,1.33.83.8,1.15,1.3.52,1.11,1.27,1.36a4.89,4.89,0,0,0,3.16.05"/><path class="cls-3" d="M118.13,696.5c-.18,0-.43.19-.31.38s.4.09.49,0a.16.16,0,0,0,0-.25C118.22,696.54,118.15,696.54,118.13,696.5Z"/><path class="cls-3" d="M116.09,698a.28.28,0,0,0-.32.32.25.25,0,0,0,.07.21.42.42,0,0,0,.29,0,.22.22,0,0,0,.15-.21.62.62,0,0,0,0-.27S116.14,698,116.09,698Z"/><path class="cls-3" d="M114.55,700.29c-.16.07-.33.11-.31.33a.3.3,0,0,0,.12.21c.09,0,.23,0,.29-.1a.42.42,0,0,0,.07-.36C114.69,700.29,114.65,700.3,114.55,700.29Z"/><path class="cls-3" d="M113.16,702.12c-.19,0-.51.25-.34.48s.29.06.4,0,.09-.26.06-.38,0-.07-.06-.09Z"/><path class="cls-3" d="M111.45,704.16c-.16,0-.29.15-.31.29s0,.14.1.18.16,0,.24,0,.26-.27.13-.38S111.45,704.12,111.45,704.16Z"/><path class="cls-3" d="M108.4,705.83c-.16,0-.26.09-.27.26s0,.18.06.21a.43.43,0,0,0,.31-.08.32.32,0,0,0,0-.35A.16.16,0,0,0,108.4,705.83Z"/><path class="cls-3" d="M107.35,707a.38.38,0,0,0-.3.13c-.07.08-.1.23,0,.27a.28.28,0,0,0,.34-.21C107.44,707.08,107.45,706.89,107.35,707Z"/><path class="cls-3" d="M107.18,693c-.25,0-.27.46,0,.35S107.36,693,107.18,693Z"/><path class="cls-3" d="M106.32,694.8c-.12.06-.25.18-.2.33s.2.09.3,0a.17.17,0,0,0,.07-.22C106.44,694.84,106.36,694.85,106.32,694.8Z"/><path class="cls-3" d="M105.74,697c-.12,0-.38.15-.32.31s.12.09.19.08a.24.24,0,0,0,.2-.12S105.85,697,105.74,697Z"/><path class="cls-3" d="M104.64,699.17c-.14.05-.3.12-.31.28s0,.16.12.12a.37.37,0,0,0,.28-.43Z"/><path class="cls-3" d="M103.63,701c-.11.07-.38.21-.32.38a.21.21,0,0,0,.34.08C103.8,701.33,103.8,700.8,103.63,701Z"/><path class="cls-3" d="M102.2,703.11c-.09-.06-.43.19-.46.33a.23.23,0,0,0,0,.18c.07.09.22,0,.31,0S102.42,703.13,102.2,703.11Z"/><path class="cls-3" d="M100.76,705a.32.32,0,0,0-.37.29c0,.17,0,.26.2.21a.38.38,0,0,0,.26-.16c.08-.16,0-.31,0-.46C100.78,704.92,100.76,704.93,100.76,705Z"/><path class="cls-3" d="M99.4,706.49a.33.33,0,0,0-.35.26c0,.14.07.28.2.23a.43.43,0,0,0,.26-.28c0-.14-.06-.15-.1-.25S99.39,706.45,99.4,706.49Z"/><rect class="cls-7" x="121.45" y="710.01" width="5.94" height="1.17" rx="0.35" transform="translate(-338.63 157.41) rotate(-30)"/></g><g id="Left-shoe"><polygon class="cls-5" points="133.07 691.12 132.79 692.65 132.42 694.77 131.66 696.33 132.1 696.92 134.17 698.24 136.77 700.53 139.94 703.13 143.12 704.78 145.5 707.23 148.65 711.21 149.78 712.57 155.33 716.21 157.98 717.59 164.3 720.38 167.14 721.16 169.71 721.85 172.13 721.64 173.05 721.07 173.34 720.18 173.83 718.81 173.83 718.36 170.17 718.18 166.42 717.35 159.95 714.53 157.42 713.2 154.9 711.34 151.5 708.34 150.25 706.75 148.14 704.48 146.46 702.65 145.3 701.28 143.92 700.11 140.58 697.85 137.92 695.31 136.28 693.98 134.78 692.38 133.55 691.21 133.07 691.12"/><polygon class="cls-5" points="157.02 683.74 157.23 683.8 156.94 683.73 157.02 683.74"/><polygon class="cls-5" points="160.65 686.14 160.1 685.17 159.22 684.49 158.18 684.06 158.98 684.27 160.35 685.35 160.65 686.14"/><path class="cls-6" d="M174.18,717.53l-.14.74-.81.16-1.43.13-1.68-.41-2.58-.47L164,716.35l-4.58-2.1-4.17-2.66-3.89-3.3-.82-1.34-1.8-1.86-2.49-2.86-1.61-1.53-2.13-1.44L140,697.34l-2.25-2.19-4.63-4,.1-.7.42-.32.53,0,.66-.54.71-.9,1.78-2.07,1.43-2.26.62-1.67.48-1.37.74-.33.37-.32,1-1.1,1.06-.26-.47,1.68c-.06.18-.59,1.46-.59,1.46l.42,1.45,1.46,1.82,1.18.73,1.45.31,1-.06,1.77.25,1.59.35,1.37.1.18-.69.2-1.35.51-1.32.55-.42h2.17l1.14.16.29.07,1,.26,1,.43.88.68.55,1,.15.4,0,.12h.49l1.69.26.22.44-.33.75-.67.56-.28,1.2c0,.08,0,1.71,0,1.71l1,1.76,1,4.19.67,2.68.82,1.43.49,1.66.83,1.4.39,1.07.25,1,1.08,1.28,1.44,1.53,1.38,1,1,1.5.7,1.45.73,2.15Z"/><polygon class="cls-5" points="152.57 684.58 153.08 683.99 152.57 685.31 152.37 686.66 152.48 685.52 152.57 684.58"/><polygon class="cls-5" points="153.21 683.85 153.63 683.57 153.08 683.99 153.21 683.85"/><polygon class="cls-5" points="156.87 683.72 156.94 683.73 155.8 683.57 153.63 683.57 153.78 683.47 155.16 683.47 156.87 683.72"/><polygon class="cls-5" points="158.01 683.98 158.18 684.06 157.23 683.8 158.01 683.98"/><polygon class="cls-5" points="160.8 686.4 160.8 686.54 160.65 686.14 160.8 686.4"/><path class="cls-3" d="M143,679.26c-.26.81-.39,1.58-.73,2.39a3,3,0,0,0,.33,2.7,5.63,5.63,0,0,0,3.19,2.33,11.07,11.07,0,0,0,1.63,0c.68.06,1.4.22,2.07.3a6.53,6.53,0,0,1,1.18.27,6.9,6.9,0,0,0,2,.13,10.63,10.63,0,0,1,2.25-.05,3.55,3.55,0,0,1,2.18,1.34,19.12,19.12,0,0,1,1.22,3,13,13,0,0,1,.5,3.32,8.52,8.52,0,0,0,1.18,3.34c.72,1.17.56,2.36,1,3.55a16.77,16.77,0,0,0,1.36,2.45c.27.45.72,1.06.53,1.64s-.83.87-1.1,1.38-.52,1.14-.87,1.7a10.12,10.12,0,0,1-.84,1.43,6.66,6.66,0,0,1-1.53.93c-.49.32-1.42,1.29-2.1,1.11"/><path class="cls-3" d="M152.57,687.34c-.49-.59,0-2.53.32-3,.63-1,.79-.84,2-.8,2.25.09,5.91.68,6,3.48a4,4,0,0,1-.35,1.39c-.16.62.15,1,.31,1.55s.26,1.37.44,2a12,12,0,0,1,.38,1.76c.06.51.19,1,.24,1.54a17.38,17.38,0,0,0,.59,2.25c.2.88.76,1.32,1.14,2.12a17.66,17.66,0,0,1,.55,1.83c.23.63.27,1.31.55,2a6,6,0,0,0,1.39,2,23.34,23.34,0,0,0,1.59,2c.85.72,1.62,1.55,2.4,2.32"/><path class="cls-3" d="M170.05,709.62a8.08,8.08,0,0,1,2.59,3,12.4,12.4,0,0,1,.7,2,11.74,11.74,0,0,1,.56,1.64c.09.49.45,1.6.18,2a6.47,6.47,0,0,1-2.74,0,31.49,31.49,0,0,1-3.35-.51,52.86,52.86,0,0,1-7.5-3,32.56,32.56,0,0,1-3.3-1.75,32.13,32.13,0,0,1-3-2.28c-1-.73-1.87-1.63-2.8-2.43a4.41,4.41,0,0,1-1-1.33,13.25,13.25,0,0,0-1.32-1.5,36.93,36.93,0,0,1-2.69-2.91,9.78,9.78,0,0,0-2.53-2.44"/><path class="cls-3" d="M144,700.18a25,25,0,0,1-2.36-1.61,13.6,13.6,0,0,1-1.6-1.23c-.59-.59-1.11-1.25-1.74-1.78a27.17,27.17,0,0,1-2.47-2.08,18.61,18.61,0,0,0-2.61-2.57c-.46.81-.27,1.56-.51,2.41s-.27,1.43-.54,2.2c-.08.25-.46.6-.47.81,0,.5,1,.84,1.4,1.12,1,.67,1.78,1.64,2.78,2.34s2,1.89,3.13,2.67,2.72,1.46,4,2.3a11.42,11.42,0,0,1,2.39,2.32c.81,1,1.68,1.89,2.41,2.91a12.38,12.38,0,0,0,2.21,2.68c1.13.9,2.37,1.64,3.56,2.44a32.57,32.57,0,0,0,4.86,2.68c1.72.75,3.42,1.55,5.13,2.29,1.48.65,3,.86,4.53,1.37a6,6,0,0,0,4.21,0,2.47,2.47,0,0,0,.69-.34c.33-.35.26-.73.41-1.15s.29-.53.37-.83,0-.61.37-1"/><path class="cls-3" d="M143,679.49a1.46,1.46,0,0,0-1.23.18c-.4.2-.54.57-.82,1-.57.75-.41.9,0,1.77s.31,1.68.7,2.34a16.78,16.78,0,0,0,1.91,2.26c.43.26.75.38.95.49s.32.33.57.43a3.89,3.89,0,0,0,1.18.2c.52.06,1,.09,1.55.13,1.15.08,2.28.2,3.42.3.5,0,1,.17,1.49.22s.75.11,1.13.14.67,0,1,0c.52,0,1-.16,1.53-.22a5.16,5.16,0,0,0,.79-.08.09.09,0,0,0-.06-.07"/><path class="cls-3" d="M140.4,680.94c-.75.32-.84,1-1,1.7a11,11,0,0,1-1,2.49,36.4,36.4,0,0,1-3.27,4.09c-.26.32-.43.72-.89.85-.26.07-.52-.06-.76.13-.41.31-.06.53-.28.92"/><path class="cls-3" d="M162.64,706.45a2.93,2.93,0,0,1,2.1-.77,7.07,7.07,0,0,1,1.9.68c.37.24.63.65,1,.91"/><path class="cls-3" d="M159.91,704.65c-.06-.38,2.59-.5,3.09-.49a17.89,17.89,0,0,1,1.93.26c.3.05,1.23.32,1.27.2"/><path class="cls-3" d="M159.16,702.84c.17-.52,2.62-.68,3.18-.68.78,0,1.92.63,2.59.43"/><path class="cls-3" d="M157,700c1.29,0,2.47-.46,3.73-.53a8.07,8.07,0,0,1,3.08.42"/><path class="cls-3" d="M155.79,697c1.5.21,3-.16,4.55,0,.54.07,2.52.18,2.73.5"/><path class="cls-3" d="M154.87,693.9c.46-.34,1.72-.06,2.27,0s1.33.15,2,.21a10.62,10.62,0,0,1,3.49.89"/><path class="cls-3" d="M153.92,690.59c.31-.47,1.89-.27,2.41-.24a16.55,16.55,0,0,1,2.63.3,14.74,14.74,0,0,1,3.14.93"/><path class="cls-3" d="M169.22,708.76a9,9,0,0,1-1.28-1.49,3.28,3.28,0,0,1-.79-1.63c-.17-.66-.81-1.28-1-1.91a12,12,0,0,0-.73-2.11,19.89,19.89,0,0,1-1.79-5.41c-.23-.85-.28-1.69-.5-2.54s-.88-1.33-1.11-2.18a5,5,0,0,1,.09-2.21c.09-.51.11-.65.56-1,.73-.5.39-.53.56-1.25a3.68,3.68,0,0,0-2.19-.36"/><path class="cls-3" d="M138.82,684.58a6.28,6.28,0,0,1,.78,2.08c.23.71.44,1.54.63,2.31a11.29,11.29,0,0,1,.25,1.38c.13,1.37.35,2.76.4,4.14a13.59,13.59,0,0,1-.14,1.93,7.71,7.71,0,0,1-.11.84"/><path class="cls-3" d="M154.07,690.24c-.28,0-.89.33-.49.61s.53-.28.54-.54"/><path class="cls-3" d="M154.67,693.59c-.13.24,0,.62,0,.89.27-.09.62-.28.47-.61s-.28-.23-.5-.21"/><path class="cls-3" d="M155.74,696.53c-.48.14-.1,1,.25.65s-.32-.83-.38-.57"/><path class="cls-3" d="M157,699.72c-.36.25-.18.86.29.59a.28.28,0,0,0,.09-.39.38.38,0,0,0-.38-.16"/><path class="cls-3" d="M159.07,702.36c-.39.19-.21,1.08.34.62.35-.3-.08-.62-.42-.56"/><path class="cls-3" d="M159.93,704.32c-.39,0-.37,1,.12.7.21-.13.33-.31.14-.51s-.27-.1-.43-.15"/><path class="cls-3" d="M162.68,694.71a.69.69,0,0,0-.15.63c.18-.09.5-.55.13-.63"/><path class="cls-3" d="M163.09,697.18c0,.14,0,.62.1.73s.25-.16.25-.3-.17-.58-.39-.43"/><path class="cls-3" d="M164.89,702.36a1.5,1.5,0,0,0,.11.55c.45-.13.33-.38.07-.64a.45.45,0,0,0-.22.23"/><path class="cls-8" d="M151.31,696.65c-.36.83-.72,1.74-1.74,1.85-.46,0-.79-.28-1.16-.49a3.36,3.36,0,0,1-1-.9,24.11,24.11,0,0,1-1.53-2.17c-.29-.47-.55-1-.86-1.43s-.63-.86-.91-1.35c-.11-.2-.26-.46-.37-.67a6.26,6.26,0,0,1-.37-.85,7.35,7.35,0,0,0-.67-1.44c-.54.53,0,1.33.15,1.89.07.27.15.56.23.84a7.44,7.44,0,0,0,.4,1c.5,1.08.84,2.27,1.36,3.37.37.78.72,1.57,1.09,2.35a7.23,7.23,0,0,0,1.2,2,2.48,2.48,0,0,0,3.64-.4,4.18,4.18,0,0,0,1-2.49,3.36,3.36,0,0,0,0-1C151.61,696.37,151.26,696.34,151.31,696.65Z"/><rect class="cls-7" x="134.71" y="697.7" width="5.94" height="1.17" rx="0.35" transform="translate(-207.33 1320.8) rotate(-139.85)"/></g><g id="Right-hand"><path class="cls-2" d="M79.2,498.26l.1,1.17.17,2.55.14,2v2.5l.21,3,.23,2.28.8,2.7.77,2.23.76,1.41,1.36,1.35.9,1.1.87.9.87.82.51.22a3.75,3.75,0,0,0,.41-.19s.15-.39.15-.39l-.2-.59-.48-1,.38.3.42.35.57.51.68.61.6.44.49.14.65,0,.4-.17v-.27l-.21-.45s-.4-.73-.38-.74a4.34,4.34,0,0,1,.54.44s.34.4.34.4l.51.27.45,0a2.49,2.49,0,0,0,.39-.1l.25-.28v-.36l-.41-.45s-.4-.44-.43-.46l-.39-.5.85.52.66.29s.68.2.7.19.41-.15.41-.15l.45-.29.12-.27,0-.47-.23-.35-.92-1.18-.69-1.12-.45-1-.67-1.64-.41-1.06-.29-.74-.23-.86-.23-1.12-.17-1.14s0-.95,0-1,0-.87,0-.87a2.41,2.41,0,0,1,.33-.28l.42-.06,1.08.34,1,.3,1,.23,1.08,0S96,508,96,508l.47-.54s0-.54,0-.54l-.38-.37-.6-.19-1.1-.2-.84-.23-.59-.28-.95-.44-.73-.57-.45-.74-.12-.83-.23-1.6-.3-1.58-.17-1L89.83,496l-3.25-.69-4.68,0-2.76.42Z"/><path d="M96.31,506.57a2.43,2.43,0,0,0-1.29-.38l-.57-.08a2,2,0,0,1-.39-.13,3.62,3.62,0,0,0-.48-.25c-.14,0-.3,0-.44-.09a2.06,2.06,0,0,1-.42-.21c-.31-.21-.65-.35-1-.55a1.35,1.35,0,0,1-.57-.61c-.06-.16-.07-.33-.14-.49a1.2,1.2,0,0,1-.15-.45h0a.83.83,0,0,1-.08-.34c-.17-1-.32-2.05-.49-3.07a17.7,17.7,0,0,1-.19-2.52,14.15,14.15,0,0,0-.21-1.81l-.23-.06.09,1c.08,1,.11,1.94.21,2.91.08.72.24,1.44.35,2.15s.22,1.25.29,1.88a2.3,2.3,0,0,0,1.52,2,9.29,9.29,0,0,0,2.57.87,4.43,4.43,0,0,1,1.18.34.94.94,0,0,1,.48.48c.05.11-.11.37-.24.48a2.35,2.35,0,0,1-2,.56,23.17,23.17,0,0,1-2.4-.67,1.35,1.35,0,0,0-.89-.06.65.65,0,0,0-.46.67,14,14,0,0,0,.92,5.37,35.08,35.08,0,0,0,1.56,3.74,20.09,20.09,0,0,0,1.71,2.5c.35.48.26.88-.29,1.11a1.51,1.51,0,0,1-1.28-.12A5.39,5.39,0,0,1,90.19,518c-.27-.61-.57-1.22-.86-1.82l-.14,0a.65.65,0,0,0,0,.28A16.77,16.77,0,0,0,90,518,12.7,12.7,0,0,0,91,519.56c.46.56,1,1.07,1.48,1.6a1.15,1.15,0,0,1,.26.4.45.45,0,0,1-.07.34,1,1,0,0,1-1.4-.22c.44.15.85.31,1.28,0a2.38,2.38,0,0,0-.26-.31c-.32-.26-.64-.51-1-.75s-.53,0-.77.09a1.83,1.83,0,0,0-.26.21c-.2-.22-.41-.43-.59-.65-.5-.62-1-1.23-1.48-1.86s-.7-1-1-1.51a3,3,0,0,0-.18-.3s-.1,0-.16,0,0,.13,0,.16a15.23,15.23,0,0,0,1.34,2.07c.37.34.64.78,1,1.16a11.32,11.32,0,0,1,1.66,2.18c.19.35.15.4-.22.49a1.83,1.83,0,0,1-1.62-.43,15.55,15.55,0,0,1-2.92-3c-.14-.2-.27-.4-.43-.59s-.15-.07-.21-.09c.59,1,1.16,1.91,1.72,2.85a.88.88,0,0,1,.14.38c0,.2,0,.54,0,.57a.84.84,0,0,1-.68,0,4.48,4.48,0,0,1-.94-.8c-.86-.94-1.64-2-2.57-2.84A7.47,7.47,0,0,1,81.14,515c-.21-.75-.51-1.48-.72-2.23a17.78,17.78,0,0,1-.33-1.77c0-.26-.1-.52-.13-.79-.1-1.29-.21-2.58-.28-3.88,0-.8,0-1.61,0-2.41,0-.54-.08-1.09-.11-1.63-.11-1.64-.24-3.28-.31-4.92,0-.54,0-1.08,0-1.63l-.21.12c.06,1.58.13,3.15.22,4.73.06,1.15.18,2.3.25,3.45,0,.51,0,1,0,1.55,0,1,.06,1.92.12,2.88,0,.8.14,1.6.21,2.4a11.34,11.34,0,0,0,.67,2.93c.3.81.52,1.65.79,2.48a5.94,5.94,0,0,0,1.42,2.4c.69.69,1.3,1.45,2,2.17.42.46.84.91,1.29,1.32a6.79,6.79,0,0,0,.84.57h.06a1.2,1.2,0,0,0,.27-.08h0c.44-.32.5-.46.34-.88-.1-.26-.24-.51-.37-.77l-.09-.23a.4.4,0,0,1,.27.12l1.61,1.43a1.87,1.87,0,0,0,1.95.4c.31-.1.35-.16.2-.47l-.22-.45.07-.06.29.22a1.29,1.29,0,0,0,1.32.31c.45-.17.6-.54.33-.92a4.36,4.36,0,0,0-.35-.4l-.35-.37a2.46,2.46,0,0,1,.62.26,2,2,0,0,0,1.3.28.9.9,0,0,0,.58-1.55,11.81,11.81,0,0,1-2.22-3.7c-.29-.82-.67-1.62-1-2.44a11.63,11.63,0,0,1-.69-2.85c0-.41-.12-.81-.18-1.23h.09a.84.84,0,0,1-.05-.17,2,2,0,0,1,.05-1.2c.24-.49.88-.22,1.27-.09a16.32,16.32,0,0,0,2.27.65,3,3,0,0,0,1.2-.09,2,2,0,0,0,.83-.34A1,1,0,0,0,96.31,506.57Z"/><path d="M90.64,520.88c.46-.27,1,0,1.57.68C91.82,521.79,91,521.44,90.64,520.88Z"/><path d="M92.68,520.13c-.68-.42-.67-.44-.09-1,.26-.27.38-.28.7-.06a7.64,7.64,0,0,0,.79.58.43.43,0,0,1,.18.61c-.07.17-.28.27-.46.43C93.39,520.47,93,520.33,92.68,520.13Zm.69.15a.48.48,0,0,0,.31.05c.13,0,.34-.08.35-.16a.51.51,0,0,0-.13-.42,3.78,3.78,0,0,0-.68-.51c-.28-.18-.58,0-.83.5C92.73,519.93,93.05,520.12,93.37,520.28Z"/><path d="M90.26,521.66a3.75,3.75,0,0,0-.12.36c0,.24-.21.34-.38.25a3.61,3.61,0,0,1-1.62-1.18C88.67,520.33,89.73,520.93,90.26,521.66Zm-.49.42c.17.08.21-.07.19-.22a1.13,1.13,0,0,0-.88-.84c-.22,0-.48-.17-.67.13A3.38,3.38,0,0,0,89.77,522.08Z"/><path d="M94.29,507.81c-.37,0-.54-.2-.53-.53s.28-.67.61-.61a8.43,8.43,0,0,1,1.09.31c.17.06.23.18.11.37a1.06,1.06,0,0,1-1,.44A1.62,1.62,0,0,1,94.29,507.81Zm.07-.93c-.24-.05-.33.13-.35.34s0,.37.28.37a1.26,1.26,0,0,0,1.17-.41C95.05,507.06,94.71,507,94.36,506.88Z"/><path d="M86.23,521.68a6.49,6.49,0,0,1-.89-.76.48.48,0,0,1-.09-.44.54.54,0,0,1,.41-.2,1.77,1.77,0,0,1,1.1.84.06.06,0,0,1,0,.06l-.1.57C86.54,521.73,86.34,521.76,86.23,521.68Zm-.38-1.16a1.14,1.14,0,0,0-.4.08,1.11,1.11,0,0,0,.15.31c.26.23.53.45.8.67A1.11,1.11,0,0,0,85.85,520.52Z"/><path class="cls-5" d="M90.64,520.88c.35.56,1.18.91,1.57.68C91.66,520.86,91.1,520.61,90.64,520.88Z"/><path class="cls-5" d="M92.39,519.74c.34.19.66.38,1,.54a.48.48,0,0,0,.31.05c.13,0,.34-.08.35-.16a.51.51,0,0,0-.13-.42,3.78,3.78,0,0,0-.68-.51C92.94,519.06,92.64,519.23,92.39,519.74Z"/><path class="cls-5" d="M88.41,521.15a3.38,3.38,0,0,0,1.36.93c.17.08.21-.07.19-.22a1.13,1.13,0,0,0-.88-.84C88.86,521,88.6,520.85,88.41,521.15Z"/><path class="cls-5" d="M95.46,507.18c-.41-.12-.75-.23-1.1-.3s-.33.13-.35.34,0,.37.28.37A1.26,1.26,0,0,0,95.46,507.18Z"/><path class="cls-5" d="M86.4,521.58a1.11,1.11,0,0,0-.55-1.06,1.14,1.14,0,0,0-.4.08,1.11,1.11,0,0,0,.15.31C85.86,521.14,86.13,521.36,86.4,521.58Z"/></g><g id="Left-hand"><path class="cls-2" d="M174.28,500.77c0,.12-.28,3.09-.28,3.09l-.26,1.37-.21,1.33-.24,1.25-.46.75-1,.64-1,.44-.62.21-1.33.25-.94.36-.23.48.2.54.59.47,1.07.22,1.1-.16,1.39-.4.84-.32.62.06.2.3.08.42v1l-.14,1-.25,1.5L173,516.9l-.66,1.7s-.53,1.26-.52,1.28-.73,1.53-.73,1.53l-.44.65-.65.9-.46.59-.12.29v.35l.24.34.39.21.39.07.56-.11.54-.28.9-.42-.26.35-.25.28-.32.36-.18.27v.37l.24.26.39.13.55-.09.4-.26s.46-.53.5-.53a7.42,7.42,0,0,0,.65-.53s-.25.32-.28.38-.39.61-.39.61l-.21.36,0,.33.3.13.44.07.51,0,.42-.13.42-.33.5-.42,1.16-1,.83-.81-.22.45-.34.58-.34.68-.11.46.18.29.27.13.38-.06.67-.45,1.66-1.84,1.18-1.32,1-1.14s.4-.84.43-.86.61-1.9.61-1.9l.83-2.56.3-2.08.18-1.7.11-2.55,0-2.13.14-1.32.14-2.22.06-1.71v-2Z"/><path d="M185.09,494.11c-.05.73-.07,1.45-.09,2.18,0,1.61,0,3.22-.11,4.83s-.2,3.27-.3,4.91c0,.55-.11,1.09-.12,1.63,0,.81.06,1.61,0,2.41-.06,1.3-.18,2.59-.28,3.89a7,7,0,0,1-.12.78c-.11.59-.18,1.19-.33,1.77-.21.76-.52,1.48-.72,2.23a7.47,7.47,0,0,1-1.89,3.69c-.93.88-1.71,1.9-2.58,2.85a4.38,4.38,0,0,1-.93.79.84.84,0,0,1-.68,0c-.08,0-.06-.37-.05-.57a.89.89,0,0,1,.15-.38l1.71-2.85c-.06,0-.16,0-.21.09s-.28.39-.42.59a15.56,15.56,0,0,1-2.92,3,1.78,1.78,0,0,1-1.62.43c-.37-.09-.41-.13-.23-.48A11.13,11.13,0,0,1,175,523.7c.34-.37.61-.82,1-1.16a16.24,16.24,0,0,0,1.34-2.07s0-.11,0-.16-.14,0-.17,0-.11.2-.18.3c-.34.51-.66,1-1,1.52s-1,1.24-1.48,1.85c-.19.23-.39.43-.6.65a3.1,3.1,0,0,0-.25-.21c-.25-.12-.5-.27-.77-.08s-.67.48-1,.74a3.4,3.4,0,0,0-.25.31c.42.35.84.19,1.28.05a1,1,0,0,1-1.4.21.41.41,0,0,1-.07-.34,1.24,1.24,0,0,1,.25-.39c.5-.54,1-1.05,1.48-1.61a12.06,12.06,0,0,0,1.07-1.57c.28-.49.5-1,.74-1.54a1.23,1.23,0,0,0,0-.28l-.14,0c-.29.61-.59,1.21-.87,1.83a5.27,5.27,0,0,1-2.76,2.7,1.53,1.53,0,0,1-1.29.12c-.54-.22-.63-.63-.29-1.1a18.85,18.85,0,0,0,1.71-2.51,35.14,35.14,0,0,0,1.57-3.74,14.37,14.37,0,0,0,.92-5.36.66.66,0,0,0-.47-.68,1.27,1.27,0,0,0-.88.07c-.8.23-1.59.51-2.41.67a2.39,2.39,0,0,1-2-.56c-.13-.12-.29-.37-.25-.48a1,1,0,0,1,.48-.49,4.13,4.13,0,0,1,1.19-.33,9.77,9.77,0,0,0,2.57-.88,2.27,2.27,0,0,0,1.52-2c.06-.63.18-1.25.28-1.87s.28-1.43.35-2.16c.1-1,.13-1.94.22-2.91s.22-2.11.29-3.18.13-2.42.17-3.63c0-.67,0-1.35,0-2l-.1,0a1.29,1.29,0,0,0-.08.26c0,.67,0,1.34,0,2,0,1.05-.12,2.09-.18,3.14,0,.59,0,1.19-.1,1.77-.09.87-.3,1.72-.31,2.58a17.6,17.6,0,0,1-.2,2.52c-.16,1-.31,2.05-.48,3.07a1,1,0,0,1-.09.35h0a1.29,1.29,0,0,1-.14.46c-.07.15-.09.33-.15.49a1.25,1.25,0,0,1-.56.6c-.32.2-.66.35-1,.55a2,2,0,0,1-.41.21c-.15.05-.3.06-.45.1a3,3,0,0,0-.47.25,2.64,2.64,0,0,1-.4.12,5,5,0,0,1-.56.08,2.56,2.56,0,0,0-1.3.38,1,1,0,0,0,.13,1.5,2.24,2.24,0,0,0,.83.34,3,3,0,0,0,1.2.08,15.4,15.4,0,0,0,2.27-.65c.39-.13,1-.4,1.27.1a2.09,2.09,0,0,1,.05,1.19c0,.06,0,.12-.05.17h.08c-.06.42-.13.82-.17,1.22a11.73,11.73,0,0,1-.7,2.86c-.31.82-.69,1.61-1,2.44a11.61,11.61,0,0,1-2.23,3.69c-.55.66-.26,1.37.59,1.56a2,2,0,0,0,1.3-.29,2.69,2.69,0,0,1,.62-.26l-.35.38a4.64,4.64,0,0,0-.36.4.56.56,0,0,0,.34.91,1.31,1.31,0,0,0,1.32-.3l.28-.22.08,0c-.08.15-.16.3-.23.45-.14.31-.1.37.21.48a1.89,1.89,0,0,0,1.95-.4c.54-.47,1.07-1,1.6-1.44a.43.43,0,0,1,.28-.12,2.29,2.29,0,0,1-.1.23c-.12.26-.26.51-.36.78-.16.42-.1.55.34.87v0a1.19,1.19,0,0,0,.27.07h0a5.45,5.45,0,0,0,.85-.57c.45-.41.87-.86,1.28-1.31.66-.72,1.27-1.49,1.95-2.18a5.9,5.9,0,0,0,1.43-2.4c.26-.83.49-1.66.79-2.48a11.34,11.34,0,0,0,.67-2.93c.07-.8.16-1.6.21-2.4.06-1,.09-1.92.11-2.88,0-.51,0-1,0-1.55.07-1.15.19-2.3.26-3.45.1-1.78.18-3.57.25-5.35,0-1.38.06-2.76.13-4.13,0-.84.14-1.69.21-2.53,0-.15,0-.29-.21-.22C185.24,492.77,185.14,493.44,185.09,494.11Z"/><path d="M172,525.36c.55-.71,1.11-1,1.57-.69C173.19,525.23,172.35,525.58,172,525.36Z"/><path d="M170.38,524.46c-.18-.16-.4-.26-.47-.42a.43.43,0,0,1,.19-.62c.28-.15.52-.39.79-.57s.43-.21.7.06c.58.57.58.59-.1,1A10.45,10.45,0,0,1,170.38,524.46Zm1.4-.92c-.25-.52-.54-.69-.82-.51a3.83,3.83,0,0,0-.68.52.52.52,0,0,0-.14.41c0,.08.23.14.36.17a.53.53,0,0,0,.3,0C171.13,523.91,171.44,523.72,171.78,523.54Z"/><path d="M176,524.88a3.59,3.59,0,0,1-1.63,1.19c-.16.09-.34,0-.38-.25a2,2,0,0,0-.11-.37C174.44,524.72,175.5,524.13,176,524.88Zm-.27.06c-.2-.3-.45-.16-.68-.13a1.13,1.13,0,0,0-.87.84c0,.15,0,.3.19.22A3.28,3.28,0,0,0,175.77,524.94Z"/><path d="M169.57,511.59a1.08,1.08,0,0,1-1-.44c-.13-.2-.06-.32.11-.37a7.09,7.09,0,0,1,1.09-.31c.33-.07.59.22.61.6s-.17.52-.53.53C169.79,511.61,169.68,511.59,169.57,511.59Zm-.86-.62a1.31,1.31,0,0,0,1.18.42c.24,0,.3-.17.28-.37s-.11-.4-.36-.35S169.13,510.86,168.71,511Z"/><path d="M177.51,525.54l-.1-.56a.13.13,0,0,1,0-.06,1.78,1.78,0,0,1,1.1-.85.54.54,0,0,1,.41.2.48.48,0,0,1-.1.44,6.31,6.31,0,0,1-.88.76C177.83,525.55,177.64,525.52,177.51,525.54Zm.27-.17c.26-.22.54-.43.79-.67a.91.91,0,0,0,.16-.31,1,1,0,0,0-.41-.07A1.08,1.08,0,0,0,177.78,525.37Z"/><path class="cls-5" d="M173.54,524.67c-.35.56-1.19.91-1.57.69C172.52,524.65,173.08,524.4,173.54,524.67Z"/><path class="cls-5" d="M171.78,523.54c-.34.18-.65.37-1,.54a.53.53,0,0,1-.3,0c-.13,0-.34-.09-.36-.17a.52.52,0,0,1,.14-.41A3.83,3.83,0,0,1,171,523C171.24,522.85,171.53,523,171.78,523.54Z"/><path class="cls-5" d="M175.77,524.94a3.28,3.28,0,0,1-1.36.93c-.18.08-.21-.07-.19-.22a1.13,1.13,0,0,1,.87-.84C175.32,524.78,175.57,524.64,175.77,524.94Z"/><path class="cls-5" d="M168.71,511c.42-.11.76-.23,1.1-.3s.34.13.36.35,0,.36-.28.37A1.31,1.31,0,0,1,168.71,511Z"/><path class="cls-5" d="M177.78,525.37a1.08,1.08,0,0,1,.54-1,1,1,0,0,1,.41.07.91.91,0,0,1-.16.31C178.32,524.94,178,525.15,177.78,525.37Z"/></g><g id="jacket"><polyline class="cls-9" points="140.37 346.65 137.23 349.62 137.2 355.01 136.76 361.18 137.4 362.07 138.56 361.55 142.26 361.43 146.78 360.24 150.14 359.28 153.02 357.1 155.37 354.98 156.18 353.39 156.18 351.52 151 349.05 146.07 347.87 140.37 346.65 140.37 346.65"/><path class="cls-9" d="M127.17,347.22l-1.91.68-5,1.44-5.64,1.77-2.93,1.63-1.18.57-.82,1.91.2.9,2.51,1.08,5,.74,5.24,1.11,3.26.95,2.79.66c.06,0,2.89.38,3.09.38s.63-1,.63-1l.29-4-.38-4.6-.72-2.09-3.12-1.53Z"/><path class="cls-10" d="M156.61,359.63l-.54,2.43-.69,2-.53,1.77-.3,1.35-.58,1.41-1.49,2.08-2.08,1.63-.56,1.23-.77,1.31-1.51,1.44-1.44,1.3-1.87,1.2s.06.15.16.15l2.51-.15,2.37-.23,2.41.11,2.62-.23,2.7-1.08,1.65-.81a11.42,11.42,0,0,1,1.7-1.36,4.87,4.87,0,0,1,1.39-.35l1.07,0s2.39-1.69,2.49-1.74,1.17-.41,1.17-.41-.69-1.53-.74-1.63-.63-1.9-.64-2-.51-3.21-.51-3.21l-.45-.78-.77-1.86-1.62-1.36-1.12-.78-1.42-.77-1.36-.44Z"/><path class="cls-10" d="M109.76,358.61l-.67.52-.37,1-.36,1.37-.65,1.16-1,1.43-.79,1.22L104.81,367l-.92,1.68-.48,1.49-.19,1.8.38,1.25.55.5,1.39.13.95.42,1.21.87,4.53,1.69,2.65.4,1.11.28,1.7.51,1.19.15,3.79.5s1.29.17,1.45.17,1.13-.18,1.13-.18l-.14-.57-.57-.26-1-1L122.18,375l-.78-.92-1-.85L119,371.87l-.85-1.32-.64-.54-2.12-2.25-.66-1-.32-1.89-.9-2-1-1.61-1.59-1.61Z"/><path class="cls-11" d="M133,361.67l.58.95V366l0,4.33-.43,8L133,380h-1.38l-1.51-.64a10.26,10.26,0,0,0-1.16-.14l-1,.08-2-.88-1.53-.8-2.57-3.11-2.34-2.13-1.44-2-2.29-2.27-1-1.59-.37-1.86-1.41-2.86-1.46-1.61-1.18-1.14-.64-1.47-.07-2.1.5.77.94.44s1.83.56,1.94.56,3.88.65,3.88.65l3.51.68,3.29.61,2.44,1a11,11,0,0,1,2.41.22,14.16,14.16,0,0,0,2.61.51Z"/><path class="cls-11" d="M137.55,380a4.38,4.38,0,0,1-.81,0v-5.9l.34-7.19.32-4.88.71-.52h4.53l3.5-1.15,2.87-.66,1.64-.79,1.81-1.59,2.91-2.38.67-.79.25-1-.19-1.55.58.63a5.94,5.94,0,0,1,.72.84c0,.13,0,1.78,0,1.78l-.22,1.66-.5,2.37-.71,3.42-1,3.11-.39,1.73-.77,1.74-1.09,1.56-2.09,1.43-.86,1.89-1.05,1.44L147,376.88l-1.11.87-1.7.85-1.24.73-2.84.51-2.59.48Z"/><path class="cls-11" d="M178.9,379.57l-.15.87-.44,2.84-1.39,5.1-1.12,3.87,1.4-.35,3.34-1.07,2.17-1.36c.09-.07.93-.58.93-.58s-.91-3.14-.95-3.24-1.1-1.91-1.1-1.91l-1-1.2-.67-1.88Z"/><path class="cls-11" d="M170.45,422.35h2.76l3.08-.11L180,422l2.6-.29,3-.49,2.24-.25.37,1.61,1,2,.26,2-.14,1.49-.42,3.4.14,3.08s.13,4.84.13,4.91.21,2.11.21,2.11l.71,2.89,0,2.62.12,5.73.17,8.11v6.23l-.57,3.72.21,2.69s.5,3,.5,3.12-.29,1.56-.29,1.56l-.23,2.68v5.5l-.25,2.79-.28,2,.34.16.16.62-.19.8.2.92,0,.85-.35.63-.08,1.59.15.68.14,1.26v.86l-.5.55v1.18l-.32.72-1.15.15-3.65.11-2.49-.2-1.49-.27-1.89-.1-1.53,0-2-.56-1.65-.49-1-1-.44-2.29.21-3.56,0-3.23-.26-2.71-.7-7.73-.24-4.75-.32-4.06.08-2.1,0-2.47-.82-7.33-.14-2.58.08-2.69,0-4.12-.23-6-.12-3.3.09-3.14.45-4.2.39-3.31.19-3.39v-3.54Z"/><path class="cls-11" d="M103.7,373.29l-.8.51-1.67,1.05-2,.94-2.65,1-4,2.05-1.83.87.24.77.53,1.56,0,1.81.23,1.39,1,2.62.43,1.59.38,3.53,1.28.16,3.11.51h2.25l3-.59,2.34-.08,4.31.17H116l6.54.06,5.45,0,4.92.1V383.07c0-.11-.22-3-.22-3h-.59l-2.47-.78h-1.36l-2.66-.8-.77.35-4.81-.51-3.51-.64-1.87-.46-2.47-.42-1.28-.43-1.38-.56L108,374.9l-.69-.11-1.76-1-1.49-.21Z"/><path class="cls-11" d="M168.81,455.77l-2,.71-2.25.47-3.21.64-3.64.33-5.17.39-5.24.41-3.4.77h-3.07l-4.12-.68-.17,2.58,0,13,.07,12.83-.07,10.62.51,5.48.73,6.71,1.58-.24,3.53.2s1.11-.61,1.28-.53a17.12,17.12,0,0,0,2.5-.65l3.25,0,5.19-.44c.14,0,5.86-1.32,5.86-1.32l3.69-1.33,2.72-1.67,1.13-1.71s.22-2.22.24-2.36.11-9.2.11-9.2V479.46l.19-4.82.27-6.93.2-3.11s.59-2.22.58-2.36-.41-6.74-.41-6.74Z"/><path class="cls-11" d="M90.46,379.91l-1.08,1.37-1.13,1.37-1.52,1.19-1.58,1.36-.6.9-.29,1.33-.13,1.74-.93,2.74-.64,2.82-.42,1.78-.49,5.5-.21,3.47-.5,3.2-.56,6.59-.7,2.88-.42,1.91L79,423.65,78.74,430l-.45,3.65-.56,2.29v2.52l-.39,2.74L77,443.68V446l.09,2.4.41,4,.1,3.57-.15,1.35-.06,1.35.16,1.1.41,2.49.06,2.15.24,8.77-.11,6.89-.38,5-.32,3,.08,2.08-.27.75-.43,1.7.07.9.55.74,0,1.54-.39.91L76.62,498a7.45,7.45,0,0,0,0,.82,3.81,3.81,0,0,0,.38.65c0,.06.4.85.4.85l.32,1.18.76.49,1.08.24,1.49-.09,2.49-.1,5.08.07,2.64-.24c.07,0,1.63-.21,1.63-.21l.67-.06s.75-.69.77-.76.18-1.9.18-1.9l.4-3.74.7-7.18.2-7.27s-.1-3.57,0-3.85a14.85,14.85,0,0,0,0-2.12s.75-2.18.8-2.34.33-4.29.33-4.29l-.16-7.5.47-6.32.37-6.18-.24-9-.15-8.51,0-9.11.42-5s.08-3.94.16-4.24a45.77,45.77,0,0,0-.85-4.5c0-.06-1-4.46-1-4.54s-.27-2.64-.27-2.64L95.26,398l-1.5-5L93,388.63l-1.2-3.43-.23-1.75,0-1.45-.58-1.8Z"/><polygon class="cls-12" points="101.74 456.59 98.38 456.22 97 455.95 96.76 460.36 96.95 469.08 97.34 471.68 97.36 475.78 97.39 485.21 97 496.58 96.56 501.01 96.57 502.48 96.83 504.1 97.78 505.72 99.09 506.62 100.56 507.25 100.78 504.92 101.44 498.24 101.74 495.06 102.72 490.41 103.17 488.08 103.3 483.42 103.47 480.03 103.92 475.83 103.92 470.21 103.52 463.64 102.97 460.17 101.74 456.59"/><path class="cls-13" d="M183.64,388.89l-.93.58-1.94,1.31-2,.68-2,.56-.9.23a1.76,1.76,0,0,0-.53.27,4.41,4.41,0,0,1-1.13.05l-3.63.49-2,.33s-1.89.23-2,.22l-2.39-.1-2.51-.3-4.51-.25-4.7.28-3.77,0-4.15-.2L140.2,393l-2.57.36-.58.3-.19,10.31-.14,6.86.33,8.48s-.29,4.51,0,4.51,3-.44,3-.44l2.38-.18h4.56l3.6.11h5.92l6.65-.24,3.53-.66s2.3-.6,2.48-.66,1.33-.29,1.33-.29l0,1,1-.08,7.2-.18,4.12-.39,3.4-.5,1.69-.22s-.63-3.63-.66-3.77-.6-3.51-.6-3.51l-1-6.12s-.88-4.91-.85-5.06.45-3.82.45-3.82-.17-2-.17-2.08-.42-4.91-.42-4.91Z"/><path class="cls-5" d="M166.49,372.68s-1.3.48-1.4.54a6.48,6.48,0,0,1-.8.24l-2,1.38-1.35.07-1.19.72-1.12.93-1.45.7-1.75.91-1.43.38-3,.11-1.79-.09-.93.09-2.19.14-1.58.14-1.35.16-2.38.62-2.69.47-1.41.25.25,7.42.1,2.94-.05,2.51,1-.1,3.35-.28,2.92.13,3.8.27h3.07l3.18-.21,2.22-.15,2.88,0,3,.33,2.45.22h2.36l1.6-.32,2-.22,2-.08,1.23-.36,1.54-.27,1-2.89,1.51-5.38.62-3.11-.12-1.58-1.24-1.06-1.34-1.13L174.33,376l-2.17-.73-2-.85-1.86-.94Z"/><path class="cls-5" d="M93.87,393.61l.75,2.28.7,2.27.31,2.62L96,404l.69,2.81.85,3.31.25,3.44-.25,2.76-.32,4.83a9.1,9.1,0,0,0-.11,1.56l1.57.12,1.64,0,2.46-.19,3.11-.34s1.53,0,1.74,0,2.9.36,2.9.36l3.64.38,3.39.22,5.31.19,5.23.19,4,.06h1L133,412.5V393.31l-1.14-.1h-5.29l-5.28-.07-7-.08L104,393l-2.45.49c-.07,0-2.22.38-2.22.38L97,393.31l-2-.18-1.45-.19Z"/><path class="cls-5" d="M100.56,507.25l1.91.59,3.08.66,2.63.59,2.94.57,2.35.33c.1,0,2.82.26,2.76.18s-.57-4.18-.57-4.18l-.14-6-.42-8.28.18-5.83.45-7-.07-5.61,0-6.86s-.31-5.71-.31-5.78S115,458,115,458l-2.71-.31-1.92-.38-3.53-.17-4.16-.36-1-.18.73,1.88s.79,3.09.82,3.24.26,3.29.26,3.29l.12,2.6.23,5.37,0,2.86-.46,4.38-.16,3.21.11,2.93-.31,2.25-.59,2.72-.66,3.22-.3,2-.1,2.47s-.37,2.91-.38,3-.32,3.3-.32,3.3Z"/><polygon class="cls-5" points="170.43 421.4 166.62 422.35 162.27 422.82 158.31 423.18 154.21 423.3 147.47 423.3 142.89 423.07 139.09 423.47 137.01 423.77 137.11 427.13 137.02 432.95 136.95 438.38 136.95 447.62 136.72 458.28 136.69 458.81 140.53 459.44 144.03 459.24 147.28 458.72 152.98 458.27 159.92 457.67 164.21 457.02 168.37 455.95 169.66 455.12 169.36 443 169.27 439.73 170.41 428.15 170.49 424.18 170.43 421.4"/><path class="cls-14" d="M146.92,423.14h-4.56v.62l.69,1.23,1.59,2,1.79,2.2,1.2,2,1.73,2.38.92,1.83.89,1.77,1.48,1.88.71,1.7-2.3,2.76L149.22,446l-2.51,4.07-1.12,2-1.85,2.77L142.36,457l-1,1.06-.56,1.39h2.29l2.49-.5.34-.89a6.37,6.37,0,0,0,.76-.8c-.05-.05,1.33-1.82,1.4-1.92s1.49-3.29,1.49-3.29l1.27-1.74,1.17-1.48,1.34-2.18,2-2.17.74,1.31,1.28,2.51,1.16,2.44.78,1.91a15.66,15.66,0,0,1,.85,1.34,9.91,9.91,0,0,0,.6,1.1l1.23,1.5.78.67,3.75-.77-.62-1-1.39-2.17a7.47,7.47,0,0,1-1-1.13,12.55,12.55,0,0,0-1.26-1.46L161,448.52l-1.17-2.09-.39-1.17-.6-1.87-.88-1.42-.71-1.55.14-1.24.46-1.14,1-1.16,1.52-3.61,2.72-4.18.71-1.59,1-1.34,1.41-2.09.74-1.72-1.59.24-1.81.37-.2.54-1,1.5-1.91,3.14-2.26,3.5L157.12,434l-1.05,1.77-.69,1.09-1.17-2.07-2.4-4.26-1.28-2.41-1.17-1.38-1-1.62-1.11-1.33Z"/><path class="cls-11" d="M136.49,362.26l-2.47-.2.22,7L134,376l-.07,4,.18,6.38,0,9.5,0,6.3v9.38l.06,4.58.18,9v7.9l-.09,7.61-.09,8.87-.08,7.75,0,8.74.1,7.45.1,7.69,0,10.5v8.7l-.21,9.05,2.37.57-.21-9.2-.4-7.59-.11-9.81.15-8.89-.09-9.51-.06-8.84.13-8,0-12.76.2-10.54-.1-7.67-.12-9.34.07-8.13v-7.91l0-6.53s-.25-5.8-.15-6.08.3-5.54.3-5.54l.21-7.72Z"/><path class="cls-15" d="M135,505.72l-.77.55s0,1.79,0,1.88v2.75l-.39,1.63h.61l.71.31.65-.11.34-.52-.17-2.44,0-.72s.2.09.24-.1a16.8,16.8,0,0,0,0-2c0-.05-.39-1.05-.39-1.05Z"/><path class="cls-15" d="M107.92,374.78l-.43.59a3.21,3.21,0,0,0,.07.36s.54.26.58.28.6.43.63.45.7.56.74.58l.67.36.37.15.39-.74v-.3l-1.77-1.16Z"/><path class="cls-4" d="M108.86,374.66s-.1.41,0,.45a3.07,3.07,0,0,1,.38.23l.15-1,0-1.66-.23-.88s-.19-.73-.19-.73l.15-.38-.23-.74-.41-.39-.87.3a2.11,2.11,0,0,0-.1.3s.3.34.32.38.62.74.62.74l.34,1.17,0,1Z"/><path class="cls-4" d="M110.42,375.87l.59-.23.51-.27a1.89,1.89,0,0,0,.35,0s.37-.54.37-.54l.24,1.21s-.1.55-.1.55l-.4-.08s-.34-.47-.35-.47l-.64.21-.23.26-.62-.55A2.33,2.33,0,0,0,110.42,375.87Z"/><path class="cls-15" d="M163.16,373.78,163,375l.09.84.73.16.39-.4s.29-.23.31-.34,0-1.12,0-1.12l-.21-.68a4.57,4.57,0,0,0-.76.09C163.47,373.6,163.16,373.78,163.16,373.78Z"/><path class="cls-4" d="M163.11,373.48l.16-.56a4.36,4.36,0,0,0,.41-.55l-.49-.44-.65.24-.21.44,0,.26s.43.24.44.26Z"/><path class="cls-4" d="M162.4,374.37l-1.27-.22h-1.27l-1.54.31-1.47.22-.17-.62.83-.24,1.48-.15s1.79-.16,1.91-.11,1,.19,1,.19l.74.32Z"/><polygon class="cls-16" points="132.95 423.77 131 423.77 124.66 423.61 116.69 423.3 110.91 422.78 107.18 422.36 103.54 422.63 99.52 422.95 97.11 422.74 97.46 442 97.55 449.93 97 455.95 99.52 456.59 105.43 456.9 111.19 457.54 116.43 458.06 122.02 458.12 126.02 458.12 128.28 458.24 131.32 458.67 133.14 458.65 133.18 448.09 133.18 435.75 133.09 423.77 132.95 423.77"/><path class="cls-16" d="M133,509.28l-.48-.3-1.64.45h-2.59l-5.12.3-4.82.45h-2.07s-.59-4.24-.57-4.45-.12-4.78-.12-4.88-.19-4.18-.19-4.18l-.26-4.28v-4.07l.31-4.27.26-3.51s.18-4.95.18-5.06-.09-3.85-.09-3.85l-.1-4-.11-3.82L115,458h1.8l2.51.15,2.9,0,2.65,0,3.4.12,2.3.41h2.56l.07,3.31,0,8.31.08,9.41v7.57l.13,5.75.2,6.92-.09,2.83-.23,3Z"/><path class="cls-3" d="M134.84,362.66c0,.55,0,1.09,0,1.63a1.4,1.4,0,0,0,0,.58c.31-.13.64-.16.94-.29,0-.33-.26-.64-.26-1s.08-.64.07-1A2.83,2.83,0,0,1,134.84,362.66Z"/><path class="cls-8" d="M134.13,509.43H133s.52-4.92.59-6.48-.1-9.95-.1-9.95l-.21-21.21,0-18.33v-23.3L133,413.4V380.16l.49-6.21.1-7.95-.1-3.94h.71l.19,4.7-.19,4.45-.21,8.38.21,5.59-.07,24.76.26,21.83-.3,29.51.3,22.54v20.41Z"/><path class="cls-15" d="M134.84,362.13l-.5.65-.14.83a5.47,5.47,0,0,0,.14,1.17,2.83,2.83,0,0,0,.28.47c0,.06-.1,1.19-.1,1.19l-.21.92-1.25,1.34a19.9,19.9,0,0,0,3,.24,23.22,23.22,0,0,1-.24-2.78c.11-.06,0-.92.17-1.11a15.83,15.83,0,0,0,.41-2.17l-.5-.67Z"/><path class="cls-17" d="M135,362.07a5.31,5.31,0,0,0-.72.85c-.21.35,0,.6,0,1a3.64,3.64,0,0,0,.05.81c0,.15.07.38.23.45"/><path class="cls-17" d="M136,365.05a2.5,2.5,0,0,0,.44-1.37c.07-.39.2-.71-.06-1a1.18,1.18,0,0,0-1.28-.53"/><path class="cls-17" d="M134.68,365a3.17,3.17,0,0,0,.38.17c.22,0,.35-.2.54-.2s.24.18.26.37c.06.54,0,1.15,0,1.71,0,.35.05.71.05,1.07,0,.16.14.56.07.7s-.8.08-1,0a9.85,9.85,0,0,0-1.88-.12c.1-.3.48-.56.69-.79a3.6,3.6,0,0,0,.84-1.62A7.22,7.22,0,0,1,134.68,365Z"/><path class="cls-18" d="M134.6,367.66c-.1.27-.15.58-.26.84.35.12.92.26,1.15-.08.12-.18.14-.32-.05-.41S134.75,367.94,134.6,367.66Z"/><path class="cls-8" d="M136.5,510h1.23s-1.37-11.31-1.23-15.06,0-16.85,0-16.85v-15.2l.29-13.22.33-22.54-.42-14.39.42-22.12s-.42-12-.42-12.17.42-12.31.42-12.31.43-4.21.29-4.07a2.63,2.63,0,0,1-.91.19l-.28,8.14-.35,8.57.16,8-.16,10.13v18.71l.21,8.24-.21,15.15V462.6s.16,15.72,0,15.86,0,13.07,0,13.07Z"/><path class="cls-17" d="M134.72,506.4c0,.51.15,1,.16,1.51a2.41,2.41,0,0,0,0,.71.45.45,0,0,0,.35-.57,6,6,0,0,1,0-.85c0-.21-.07-.44-.05-.64a2.65,2.65,0,0,1-.48.07s0,.1,0,.14"/><path class="cls-17" d="M134.61,507.57c-.44.24-.45.63-.39,1.08a7.81,7.81,0,0,1,0,1.45c0,.41-.07.8-.12,1.2s-.21.82-.27,1.23c.32.08.58-.09.88.08a1.21,1.21,0,0,0,.92.19.7.7,0,0,0,.49-.44c.08-.24,0-.56,0-.81s0-.37,0-.56c0-.88-.2-1.74-.2-2.62,0-.28.2-1.74-.28-1.67"/><path class="cls-3" d="M134.29,511.53c0,.12,0,.45.1.53s.47.11.59.11.56.14.63-.12a.43.43,0,0,0-.22-.39.74.74,0,0,0-.39,0A1,1,0,0,1,134.29,511.53Z"/><path class="cls-17" d="M134.34,506.42c.13-.51.55-.66,1-.7s.65.36.72.71a8.41,8.41,0,0,1,.11.84c0,.12,0,.24.07.37a3,3,0,0,1,0,.67c0,.14.09.88-.23.72"/><path class="cls-3" d="M124.54,378.31c-1.81-.42-3.57-1-5.39-1.28a7.31,7.31,0,0,1-3-1.43c-1-.7-2.09-.71-3.14-1.27a7.38,7.38,0,0,1-2.19-2.52,6.91,6.91,0,0,1-1.11-2.3,19.52,19.52,0,0,1-.33-6.1c.07-1.21.16-2.9,1.19-3.64,0-.37-.2-.77-.23-1.13-1.66-.29-1.52,1.8-2,2.82A38.7,38.7,0,0,1,106,365a20.87,20.87,0,0,0-2.44,4.47c-.31,1-.72,3.19.3,3.93.45.33,1.17.17,1.67.36a6.6,6.6,0,0,1,1,.6,4.35,4.35,0,0,0,1.33.57"/><path class="cls-3" d="M112,376.75a34,34,0,0,1,3.38.54,26.81,26.81,0,0,0,2.7.73c1.09.14,2.17.22,3.25.38.75.1,4,.78,4,.12"/><path class="cls-3" d="M124.75,377.88c-.69-.17-1.73-1.88-2.27-2.48s-.81-1-1.29-1.48a11.11,11.11,0,0,1-2.65-2.65c-.33-.62-.26-.67-.82-1.08a8.5,8.5,0,0,1-1.49-1.45,5.77,5.77,0,0,1-1.39-1.93c-.19-.64-.21-1.31-.45-1.94a12.79,12.79,0,0,0-2.07-3.77c-.87-.93-2.47-2.19-2.7-3.49a7.11,7.11,0,0,1,.6-4c.5-.67,1.67-1.05,2.39-1.5a15.8,15.8,0,0,1,3.22-1.45c2.71-.94,5.56-1.27,8.21-2.32a24.89,24.89,0,0,1,8.45-1.49,38.52,38.52,0,0,1,8.52.09c3.12.54,6.32,1.12,9.39,1.93,2.15.56,3.76,1.81,5.7,2.79,1.37.68,1.44,1.59,1.4,3.07a25.14,25.14,0,0,1-.66,3.33c-.17,1.05-.28,2.17-.54,3.2-.46,1.78-1.26,3.39-1.57,5.17a8.77,8.77,0,0,1-1.91,3.92c-.64.79-1.6,1.09-2.27,1.78s-.65,1.61-1.12,2.28a11.94,11.94,0,0,1-1.87,1.89c-.57.52-.87,1.06-1.55,1.35a18.6,18.6,0,0,0-2.24,1.2,10.91,10.91,0,0,1-3.76,1,19.6,19.6,0,0,0-2.9.59"/><path class="cls-3" d="M118.29,372.41c-1.57-2-4.59-2.06-5.82-4.31-.22-.42-.4-1-1.1-.75a3.44,3.44,0,0,0-1.32,2.15"/><path class="cls-3" d="M109.55,367.37a9,9,0,0,0,2.91-.79c.42-.27.74-.86,1.28-.84"/><path class="cls-3" d="M113.67,368.29c.07-.43.47-.65.57-1.06"/><path class="cls-3" d="M117.58,375.33a12.23,12.23,0,0,1,2.77-.06c.45.08.82.35,1.28.41"/><path class="cls-3" d="M146.92,377.6a7.61,7.61,0,0,0,2-.85c.67-.39,1.44-.63,2.07-1.06a23,23,0,0,1,2.3-1.82,31.83,31.83,0,0,1,3.82-2.05c1.07-.39,2.23-.49,3.31-.83a4.48,4.48,0,0,0,3.77-5.07,4.54,4.54,0,0,0-2.51-4.23,15.77,15.77,0,0,0-3.16-1.69c-.5-.15-1-.21-1.51-.37"/><path class="cls-3" d="M108,374.9c-.35.12-.73.64-.32.94.15.1.41.12.58.23a5.5,5.5,0,0,1,.61.47,5.55,5.55,0,0,0,1,.71,1.66,1.66,0,0,1,.63.4,10.1,10.1,0,0,0,.49-1c-1-.55-1.86-1.65-3.07-1.88C107.9,374.85,107.87,374.92,108,374.9Z"/><path class="cls-3" d="M110.26,375.92c.22-.18.55-.17.8-.3.1-.05.2-.17.32-.19s.35.08.52-.07.19-.37.35-.51a7,7,0,0,1,.14,1.11c0,.21.21.67-.2.65s-.13-.74-.77-.52a2,2,0,0,0-.56.3"/><path class="cls-3" d="M109.39,375.26c-.14-.1,0-.25,0-.4a6,6,0,0,0,0-.85,13,13,0,0,0,0-1.77c0-.37-.38-.82-.33-1.18,0-.13.11-.17.14-.29a1.73,1.73,0,0,0-.34-1c-.21-.28-.6-.09-.87,0s-.36.1-.39.29.29.51.42.63.21.12.32.27a1.68,1.68,0,0,1,.27.44,3.24,3.24,0,0,1,.28,1.14c0,.49,0,1,0,1.49a7.39,7.39,0,0,1,.1.92"/><path class="cls-3" d="M163.79,373.44c-.42,0-.94,1-1,1.39,0,.65.17,1.4,1,1.17s.77-1,.67-1.73c0-.17,0-.69-.18-.81S163.55,373.5,163.79,373.44Z"/><path class="cls-3" d="M163.11,373.55c-.35-.1-.41-.76-.78-.67A.78.78,0,0,1,163,372a.49.49,0,0,1,.58.25C163.86,372.72,163.09,372.75,163.11,373.55Z"/><path class="cls-3" d="M162.72,374.26c-.85-.94-2.17-.6-3.32-.6a7.51,7.51,0,0,0-2.72.39c.06.19.09.47.25.57s.63,0,.86-.06c.72-.15,1.4-.3,2.14-.4a3.3,3.3,0,0,1,1.62.1A1.49,1.49,0,0,0,162.72,374.26Z"/><path class="cls-3" d="M144.25,379c.64,0,1.28-.15,1.92-.15a5.79,5.79,0,0,0,1.51-.1,10.06,10.06,0,0,1,2.9-.07,10.26,10.26,0,0,0,5.59-.78,20.13,20.13,0,0,1,2-1,2.84,2.84,0,0,0,1-.62,8,8,0,0,1,1.46-1.15c.65-.35,1.32-.07,2-.33"/><path class="cls-3" d="M164.71,373.52a3.52,3.52,0,0,1,1.78-.84c-.33-.61-.51-1.27-.87-1.86a5.53,5.53,0,0,1-.57-2.29,14.68,14.68,0,0,0-.55-3"/><path class="cls-3" d="M155.16,366.09c.3.43.68.8,1,1.21a6,6,0,0,1,.95,1.79,4.73,4.73,0,0,0,.46.93c.1.15.41.37.41.48"/><path class="cls-3" d="M161.44,369.93c-.35-.56-1.1-.8-1.56-1.25-.51.29-.79,1-1.21,1.39"/><path class="cls-3" d="M162.19,368.4c.17-.43.29-1.63-.09-2s-1-.45-1.4-.65a1.56,1.56,0,0,1-.61-.49,7.12,7.12,0,0,0-3.3-2.34c0-.33.2-.47.53-.54"/><path class="cls-3" d="M158.17,360.73a6.42,6.42,0,0,0,2.35,2.7,7,7,0,0,1,1.24.82"/><path class="cls-3" d="M150.4,374.33c.55-.4.93-1,1.53-1.4a7.62,7.62,0,0,0,1.21-.61c.41-.36.84-.71,1.26-1.05s.58-.4.54-.89-.54-1.34-.39-1.73"/><path class="cls-3" d="M138,361.55a23.29,23.29,0,0,0,5.91-.43c1.05-.29,2-.71,3.08-.92a9.57,9.57,0,0,0,3.51-1.12c.92-.6,1.65-1.5,2.53-2.17s1.62-1.24,2.37-1.93c1.14-1.06,1-1.74.71-3.09"/><path class="cls-3" d="M133.06,361.83c-.51-.81-1.64-.89-2.5-.92a27.11,27.11,0,0,1-4.5-.88c-1.68-.34-3.29-1.06-5-1.32-1.38-.21-2.74-.49-4.12-.76-1.67-.32-3.38-.48-5-.95-.64-.18-3-.66-1.86-1.78"/><path class="cls-3" d="M125.65,378.45a20.4,20.4,0,0,0,2.24.88c.49.13.74-.06,1.21-.12a1.73,1.73,0,0,1,1,.18c.66.26,1.31.85,2.06.58"/><path class="cls-3" d="M103.16,373.67a25.78,25.78,0,0,0-2.54,1.57,16,16,0,0,1-2.67.95c-1.17.46-2.48,1-3.59,1.56a21.58,21.58,0,0,1-2.6,1.42c-1.36.47-1.77,1.22-2.6,2.45-1.1,1.61-2.85,2.23-4.1,3.67s-.63,2.76-1,4.3A20.89,20.89,0,0,0,83,392.9c-.11,1.08-.59,2.12-.79,3.2-.26,1.5-.23,3-.39,4.56a35.37,35.37,0,0,0-.34,4,45.37,45.37,0,0,1-.65,4.92c-.22,2.09-.21,4.17-.51,6.23-.16,1.06-.92,2.94-1,4.05-.53,5.59-.14,10.26-1.27,15.14-.4,1.72,0,3.39-.42,5.1a21.4,21.4,0,0,0-.71,5.23c0,3.38.68,6.38.71,9.78a35,35,0,0,0-.22,3.95c.06.51.58,2.45.35,2.65"/><path class="cls-3" d="M77.87,461.37c.14,3.21.16,6.45.28,9.66.1,2.61.12,5.16,0,7.77a69,69,0,0,1-.5,6.89c-.27,1.91.07,4.24-.45,6.08"/><path class="cls-3" d="M77.26,490.54c1.11.1,2.49.9,3.64.36.25.78-.08,1.84,0,2.68a11.39,11.39,0,0,0,.25,1.27,4.39,4.39,0,0,1-2.28-.23c-.71-.16-1.63-.1-2-.83C76.4,492.62,77.21,491.61,77.26,490.54Z"/><path class="cls-3" d="M77.45,495.8c.44.31.51.57,1.09.73a4.22,4.22,0,0,0,1.12.17,4,4,0,0,0,1.72-.15,10.26,10.26,0,0,1,.38,3.47c0,.42.11.51-.37.61a6.32,6.32,0,0,1-2.52-.19c-.75-.21-2.06-.78-2.25-1.66S77.05,496.87,77.45,495.8Z"/><path class="cls-3" d="M77.21,500.15c.34.64.32,1,.85,1.52.78.72,2.09.51,3.1.42,3-.26,6,.16,9.07-.1.67-.06,1.32-.25,2-.35a6.54,6.54,0,0,0,1.47-.11c.66-.26.83-1.11.82-1.77a18,18,0,0,1,.19-2.54c.42-3.87.93-7.72,1-11.62,0-1.85.15-3.7,0-5.55,0-1,.09-2,0-3a4.25,4.25,0,0,1,.1-2"/><path class="cls-3" d="M77.4,494.61v.9"/><path class="cls-3" d="M80.15,490.45c3,0,6,0,9.07-.24,1.42-.1,2.86,0,4.27-.19.54,0,1.52,0,2-.38"/><path class="cls-3" d="M95.87,475.1c.28-1.5,1-2.93,1-4.44.09-2.12,0-4.25-.1-6.36a83.3,83.3,0,0,1,.48-11.5c.62-5.91,0-12.1,0-18s-.43-11.83.21-17.62a20.68,20.68,0,0,0-.34-8.62,40.69,40.69,0,0,1-1.37-5.95c-.17-1.37-.14-2.79-.43-4.12-.38-1.76-1.18-3.43-1.58-5.18s-.36-3.69-1-5.45a20.12,20.12,0,0,1-1.16-3.35c-.14-.82,0-1.66-.08-2.47-.1-.62-.48-1.18-.58-1.8"/><path class="cls-3" d="M94.28,393c1.85.26,3.81.83,5.69.63,1.27-.13,2.5-.59,3.78-.68a34.7,34.7,0,0,1,3.53.12c1.9.08,3.82,0,5.73,0,6.47,0,12.94.15,19.42.15"/><path class="cls-3" d="M97.55,422.7c3.64.72,7.27-.7,10.9-.23,3.24.42,6.48.77,9.73.88,4.81.16,9.57.42,14.39.42"/><path class="cls-3" d="M97.62,456c1.11.57,2.76.42,3.94.55.59.06,1.17.16,1.75.23,1.66.19,3.35.43,5,.5,2.28.09,4.43.62,6.69.76,3.42.22,6.84.13,10.26.09,2.66,0,5.24.54,7.86.57"/><path class="cls-3" d="M97.34,470.65c0,9.28.31,18.33-.46,27.57-.28,3.36-1.17,6.7,2.21,8.4,2.56,1.28,5.21,1.57,8,2.22a40.58,40.58,0,0,0,10.46,1.31c3.17-.12,6.26-.56,9.46-.72,1.81-.1,4.16.27,5.7-.56"/><path class="cls-3" d="M101.74,456.59a21.29,21.29,0,0,1,1.85,8.93c0,3.43.51,7,.27,10.36a76,76,0,0,0-.55,8.11,22,22,0,0,1-.37,5.43,58.2,58.2,0,0,0-1.34,6.79c-.14,1.42-.18,2.86-.35,4.28a44.88,44.88,0,0,0-.5,5.68"/><path class="cls-3" d="M115.09,458.72c.64,4.71.51,9.56.71,14.3.25,6.05-.71,12.05-.71,18.17,0,3.83.42,7.6.57,11.43.09,2.38-.08,5.38.57,7.67"/><path class="cls-3" d="M166.62,372.72c1.81.79,3.48,1.9,5.39,2.54a12.34,12.34,0,0,1,4.46,2.2c1.46,1.33,3.58,2.64,4.07,4.64.28,1.18,1.4,1.93,1.93,3,.62,1.29.73,2.68,1.26,4a9.41,9.41,0,0,1,1,3.59,29.21,29.21,0,0,0,.36,4.77c.35,1.72-.13,3.22-.25,4.94a21.72,21.72,0,0,0,.54,4.11c.32,2.89,1.29,5.63,1.44,8.56.08,1.67.65,3.23.87,4.88a9.43,9.43,0,0,0,1.11,3.89c1.42,2,.09,5.16.09,7.6s.42,5,.28,7.55a13.07,13.07,0,0,0,.72,4.6,10.39,10.39,0,0,1,.23,3.35c0,4.37.29,8.72.29,13.09,0,2.8.28,5.75-.19,8.51a23.88,23.88,0,0,0,.38,8.71"/><path class="cls-3" d="M189.49,491.25c-.61.13-1.51.68-2.12.23a8.58,8.58,0,0,0,.41,3.18c.21.62.3.6,1,.53a1.59,1.59,0,0,0,1-.31c.39-.46.09-1.46.09-2C189.92,492.06,190.28,491.46,189.49,491.25Z"/><path class="cls-3" d="M189.72,496.79a5.39,5.39,0,0,1-1.72.32,2.49,2.49,0,0,1-.59-.23c0,.91-.06,1.82-.1,2.72a2,2,0,0,0,.17,1.12,8.2,8.2,0,0,0,1.92-.65c.5-.25.51-.47.47-1.05a8.43,8.43,0,0,0-.13-1.52C189.67,497.26,189.51,497.08,189.72,496.79Z"/><path class="cls-3" d="M190.53,476.81a18.46,18.46,0,0,0-.52,3.53c0,1.88,0,3.76,0,5.65,0,1.26-.17,2.5-.29,3.75a11,11,0,0,0-.14,1.51"/><path class="cls-3" d="M189.68,495a8,8,0,0,0-.05,1.61"/><path class="cls-3" d="M189.35,500.39c0,.33.11,1.29-.11,1.55s-1.51.24-2,.3a26,26,0,0,1-4.75,0c-1-.08-1.92-.37-2.89-.45-.78-.07-1.57,0-2.35,0a5.56,5.56,0,0,1-2.13-.52,16.1,16.1,0,0,1-1.83-.55c-1.76-.94-1.34-2.81-1.34-4.56s.25-3.45.13-5.16-.46-3.64-.59-5.46c-.15-2-.29-4.05-.53-6.06-.22-1.83-.13-3.7-.19-5.53a18.76,18.76,0,0,1-.24-3.74c.37-2.36-.2-5.26-.48-7.64a40.1,40.1,0,0,1-.37-7.34,81.11,81.11,0,0,0-.15-10.69,52.07,52.07,0,0,1,.05-8.19c.27-2.87.82-5.82.93-8.69.1-2.63-.06-5.27-.08-7.89,0-3.77-1.15-8.37-.26-12A22.9,22.9,0,0,1,173,401c1.09-1.65,1.38-3.76,1.92-5.64.83-2.89,1.73-5.82,2.49-8.72.53-2.06,1.51-4.76,1.35-6.91"/><path class="cls-3" d="M138,510c1.71-.58,3.83.36,5.63-.19a20.3,20.3,0,0,1,2.43-.93,16.7,16.7,0,0,1,2.83,0A40.53,40.53,0,0,0,164,506c2.53-1,4.07-1.75,4.54-4.64a49.77,49.77,0,0,0,.47-8.11c0-3.32.09-6.59-.2-9.9a38.41,38.41,0,0,1,.11-6.44c.2-2.95.14-5.94.39-8.88.12-1.32-.07-3.16.46-4.37"/><path class="cls-3" d="M136.69,458.81c1.85.23,3.8.82,5.69.65,1.64-.14,3.26-.59,4.9-.74,2.65-.24,5.29-.42,7.94-.58s5.39-.64,8.08-1a30.08,30.08,0,0,0,4.3-.88,7.34,7.34,0,0,1,1.67-.57"/><path class="cls-3" d="M137.26,423.77c5.11-1.14,10.79-.47,16-.47,5.57,0,11.45.21,16.58-1.9"/><path class="cls-3" d="M137.26,393.37c4.16-1,8.6.11,12.79,0,3-.08,6.19-.55,9.22-.37,3.19.18,6.51,1.11,9.69.29a30.2,30.2,0,0,1,3.8-.39c.58-.07,1.13-.33,1.72-.37"/><path class="cls-3" d="M176.56,392.14c1.6-.67,3.26-.85,4.76-1.69a16.41,16.41,0,0,1,2.06-1.34"/><path class="cls-3" d="M170.88,422.26a34.73,34.73,0,0,0,6.2-.11c1.67-.2,3.42,0,5.07-.35,1.13-.22,2.28-.39,3.42-.57a7.56,7.56,0,0,0,2-.25"/><path class="cls-3" d="M172.3,489.21c1.14.1,2.24.6,3.39.76.73.11,1.3.34,2,.51a25.23,25.23,0,0,0,5.5,1.06c.89,0,1.81-.23,2.7-.29a13.21,13.21,0,0,0,2.9-.28"/><path class="cls-3" d="M146.92,423.49a5.45,5.45,0,0,1,1.46,1.64,11.81,11.81,0,0,0,1.16,2,9.72,9.72,0,0,1,1.5,2c.43.9,1,1.74,1.45,2.61,1,1.77,2,3.64,2.94,5.44a8.94,8.94,0,0,1,1.29-2.37c.4-.67.69-1.43,1-2.13a34.48,34.48,0,0,1,2.23-3.81c.77-1.16,1.46-2.38,2.22-3.55.28-.44.62-.86.88-1.3.16-.26.2-.51.45-.71"/><path class="cls-3" d="M145.59,458.72a19.82,19.82,0,0,1,1.61-2.07,16.82,16.82,0,0,0,1.62-2.86,10.28,10.28,0,0,1,1.2-2.36c.38-.5.81-.94,1.21-1.42a12.34,12.34,0,0,0,1.25-1.86,10.78,10.78,0,0,1,.85-1.43c.62-.77,1.46-1.44,2-2.25.77,1.29,1.52,2.57,2.19,3.92s1,2.76,1.71,4.08a13.77,13.77,0,0,0,1,1.55c.31.46.5,1,.82,1.42s1.26,1.64,1.82,1.76"/><path class="cls-3" d="M166.62,456.63c-.66-1.12-1.37-2.22-2.14-3.28a39.45,39.45,0,0,1-2.55-3.21c-.75-1.3-1.55-2.59-2.23-3.95-.43-.89-.5-2-.86-2.89s-1.54-1.69-1.7-2.81c-.2-1.47,1.14-2.63,1.8-3.88.41-.77.71-1.59,1.09-2.37a57.69,57.69,0,0,1,3-5.12c.41-.65.63-1.45,1.08-2.06a14.07,14.07,0,0,0,1.12-1.54,12.07,12.07,0,0,0,1.43-2.7"/><path class="cls-3" d="M141.19,458.67a8.16,8.16,0,0,1,1.7-2.38,17.62,17.62,0,0,0,1.58-2.45c1.3-2.14,2.77-4.1,3.92-6.32a11.13,11.13,0,0,1,1.46-2.29,20.7,20.7,0,0,0,1.52-2.18c.33-.5.8-.9,1.17-1.37a10.83,10.83,0,0,1,.82-1.1c-.44-.44-.58-1.34-1-1.87-.25-.32-.52-.61-.76-.94a10.74,10.74,0,0,1-1.37-2.45,14.84,14.84,0,0,0-2.33-3.92c-.54-.7-1-1.48-1.5-2.19s-1.16-1.35-1.66-2.09-1.21-1.44-1.76-2.2a12.24,12.24,0,0,1-.81-1.62"/></g><g id="Man-Bag"><path class="cls-19" d="M167.38,373.22c-1.68,1.74-4.14,2.91-6,4.64-2.61,2.46-3.7,5.88-5.55,8.79-4,6.28-11,10.33-13.68,17.62-3,8.08-10.95,13.75-16.71,20.13-3.72,4.12-8.69,6.62-12.73,10.34-2.14,2-3.86,4.62-5.72,6.84-3.56,4.27-5.19,4-10.12,5.74L97.15,461c-.4-3.14,2.73-3.07,4.13-.64.93,1.64,0,5.21.71,7.21,1.05,2.91,3.15,5.68,3.58,8.83.36,2.63-.42,6.06-.82,8.65-1,6.88-3.27,17.15,6.87,15.81,10.35-1.37,20.72-7.17,30.58-10.28,4.27-1.34,9.54-1.81,13.6-3.32a6.22,6.22,0,0,0,4.1-4.59c1.35-4.32-1.74-14-4-18-2.55-4.62-4.39-6.26-7.17-10.45-3.2-4.83-4-10.31-4.27-16.36a111,111,0,0,1,.51-16.79c.22-2.06,1.12-3.76,1.46-5.69s-.32-3.87,0-5.72c1-5.31,6.17-9.92,8.48-14.6,3.7-7.5,10-16.3,17.25-20.9C171.37,374.63,167.38,373.22,167.38,373.22Z"/><path class="cls-5" d="M123.1,483.26a.33.33,0,1,1-.61.23v0a.33.33,0,0,1,.17-.4h0c0-.12-.13-.13-.25-.09a.43.43,0,0,0-.2.15c-.06.07-.29.45-.21.68l.93,2.77.46-.16.05.16-1.48.49,0-.15.47-.16-1.09-3.23-.47.15,0-.11,1-.34.13.39a.86.86,0,0,1,.16-.41.62.62,0,0,1,.34-.28.71.71,0,0,1,.45,0,.52.52,0,0,1,.21.23"/><path class="cls-5" d="M123.85,486.11a.36.36,0,0,1,.23-.47.39.39,0,0,1,.28,0,.36.36,0,0,1,.16.49.36.36,0,0,1-.21.19.39.39,0,0,1-.28,0A.31.31,0,0,1,123.85,486.11Z"/><path class="cls-5" d="M135.16,482.64l-1.56.53,0-.16.47-.16-1-1.67-1.16.39a7.58,7.58,0,0,0,.19,1.23c.06.17.23.55.47.49l.33-.06.05.15-1.56.53,0-.16a1.27,1.27,0,0,0,.39-.26s.24-.17.19-.72l-.58-4.95.39-.13,2.88,5,.5-.17ZM133,481.08l-1.41-2.52.31,2.88Z"/><path class="cls-5" d="M140.19,480.35h0c0,.25,0,.34,0,.39a.62.62,0,0,1-.32.33c-.48.16-.65,0-.79-.21h0c0,.27-.09.51-.42.62a1,1,0,0,1-.7,0h0a.94.94,0,0,1-.47-.49,1,1,0,0,1,.35-1.16c.13-.13.3-.1.53-.48a.44.44,0,0,0,.07-.2l-.31-.93a.46.46,0,0,0-.6-.23.6.6,0,0,0-.38.3c-.05.1-.05.39.17.37s.31,0,.35.15a.34.34,0,0,1-.21.41.37.37,0,0,1-.53-.3.79.79,0,0,1,.05-.62,1.07,1.07,0,0,1,.58-.45.82.82,0,0,1,.73,0,1,1,0,0,1,.56.65l.78,2.25a.33.33,0,0,0,.31.16c.12,0,.31-.11.09-.77l-.17-.53s0,0,0,0l.08,0s0,0,0,0Zm-1.31.22-.42-1.24s0,0,0,0h0a1.2,1.2,0,0,1-.27.28c-.2.17-.45.33-.17,1.14s.45.72.73.62S138.93,480.71,138.88,480.57Z"/><path class="cls-5" d="M145.05,479.33l-1.32.44-.06-.16.31-.1-1-2.88a.45.45,0,0,0-.59-.33.5.5,0,0,0-.39.65l1,2.89.39-.14,0,.16-1.29.43,0-.15.35-.12-1-2.88a.49.49,0,0,0-.59-.33.78.78,0,0,0-.38.65l1,2.88.43-.14.06.16-1.45.48-.05-.16.47-.15-1.09-3.24-.5.17-.05-.15,1.05-.36.1.32a.86.86,0,0,1,.49-.6.88.88,0,0,1,1,.15.74.74,0,0,1,.51-.65c.08,0,.93-.35,1.2.47l.9,2.69.47-.16.05.16Z"/><path class="cls-5" d="M146,476.36a2.37,2.37,0,0,0-.54-.79.55.55,0,0,0-.51-.12.46.46,0,0,0-.27.22.51.51,0,0,0,0,.34.93.93,0,0,0,.3.38,3.62,3.62,0,0,0,.71.32,1.5,1.5,0,0,1,1,1,1,1,0,0,1,0,.79.73.73,0,0,1-.44.42.64.64,0,0,1-.45,0c-.15,0-.22,0-.25,0a1.18,1.18,0,0,0-.07.2l-.11,0-.49-1.45.12,0a1.56,1.56,0,0,0,.61.93.73.73,0,0,0,.62.18.44.44,0,0,0,.26-.26.64.64,0,0,0,0-.43.84.84,0,0,0-.29-.47,3.62,3.62,0,0,0-.72-.36c-.56-.23-.91-.49-1-.87a.8.8,0,0,1,.39-1.09.81.81,0,0,1,.41,0,.51.51,0,0,0,.21,0,.29.29,0,0,0,.14-.22l.12,0,.41,1.24-.15.05Z"/><path class="cls-5" d="M122.06,487l-1,.34-.12-.35c-.1.34-.21.46-.43.54a.93.93,0,0,1-.71-.07,2.22,2.22,0,0,1-.93-1.33,2.92,2.92,0,0,1-.12-1.52.9.9,0,0,1,.59-.72.68.68,0,0,1,.54.08l-.65-1.95-.59.2,0-.16,1.13-.38,1.79,5.34.5-.17Zm-2.72-3a.45.45,0,0,0-.29.31c0,.18,0,.26.08.54l.62,1.83a1.48,1.48,0,0,0,.31.63.59.59,0,0,0,.51.09c.15-.05.2-.2.27-.35a.45.45,0,0,0,0-.39l-.81-2.43a.56.56,0,0,0-.65-.23"/><path class="cls-5" d="M137.64,481.81l-1,.34-.11-.35c-.11.34-.21.46-.43.53a.88.88,0,0,1-.71-.06,2.25,2.25,0,0,1-.93-1.34,2.91,2.91,0,0,1-.12-1.52.89.89,0,0,1,.58-.71.7.7,0,0,1,.55.07l-.65-1.95-.58.2-.06-.16,1.13-.38,1.79,5.34.49-.16Zm-2.72-3a.41.41,0,0,0-.29.31c0,.17,0,.26.08.53l.62,1.83a1.53,1.53,0,0,0,.31.64.58.58,0,0,0,.5.09c.16-.06.21-.21.28-.35a.51.51,0,0,0,0-.4l-.81-2.43a.56.56,0,0,0-.65-.22"/><polygon class="cls-20" points="126.15 479.04 127.62 480.97 129.94 480.23 128.54 482.18 129.97 484.19 127.63 483.44 126.21 485.45 126.17 482.97 123.85 482.27 126.18 481.45 126.15 479.04"/></g><g id="Head"><polygon class="cls-5" points="136.34 358 136.33 358.28 131.72 358.28 132.36 351 132.47 351.17 132.47 358 136.34 358"/><path class="cls-2" d="M174.57,247.37l.35,3.08-.71,3.79s-2.09,2.83-2.17,2.89-1.44,1-1.54,1-2,.83-2,.83l-1.26,3.77c0,.09-3.31,14-3.31,14l-2,9.54-2.34,9.17-2.17,8.16L154,313.37l-2.21,6.28-.67,4.2-2.91,6.44-1.57,4.42s-2,4.74-2,4.84-2.2,4-2.2,4-1.33,2.27-1.41,2.43-1.55,1.56-1.55,1.56l-2.16,1.26s-.38,2.09-.34,2.17-.11,11.24-.11,11.24h-1.8l-1.41-.39-1.29-.54.12-10.12-.11-.17-.83-1.29-2.66-1.61L126,345.28l-4.2-5.7-4.42-6-3.5-6.25-4.63-9.91-2.35-5.82-.74-4.3L104.69,302l-3-8.91L98.8,282.22l-2-8.43-2.61-8.9-1.56-4.26H89.39c-.24,0-2.28-.57-2.28-.57l-1.19-5.15.09-5.44L92.78,222l19.59-25.51H125.3l15.61,11.37,20.44,17.33,14.79,19.54-1.78,1.41-1.34-.33Z"/><path d="M214.81,242.13c-3.2-1.28-6.43-2.49-9.64-3.72-6.13-2.34-10.63-6.8-14.39-11.7-2.55-3.33-4.81-6.94-7.59-10.15a8.86,8.86,0,0,1-2.5-5.94c0-1.56.39-3.33-.21-4.64a23.22,23.22,0,0,0-5-7.26,12.08,12.08,0,0,1-3.83-7.52c-.69-7.29-5.39-12.11-10.46-16.17-6.87-5.49-14.6-9.78-23.9-9.76-3.71,0-7.38-.54-11,1.33a39,39,0,0,1-21.3,4.76,11.68,11.68,0,0,0-7.28,2.27c-5.12,3.46-7.46,8.29-7.41,14.41,0,.81.76,2.19-.64,2.41-1.81.29-3.07,1.67-4.67,2.1-7.46,2-14.24,15.36-13,23.56.86,5.72,3.71,10.62,5.59,15.89,2.14,6,1.48,9.75-3.83,13-1.61,1-2.25,2.07-1.83,4,.56,2.53,7.19,8.32,9.6,8.09a4,4,0,0,0,1.29-.59l3.07-1.57c-1.06,5,0,6.26,4.8,6.21A2.28,2.28,0,0,1,93.24,263c1.23,4.51,2.63,9,3.62,13.54a189,189,0,0,0,7.3,26.11c.74,2,1.72,4,1.74,6a17.44,17.44,0,0,0,2.07,8.12c4.18,7.75,7,16.3,13.14,22.93,3,3.2,4.35,7.89,8.62,9.74,2,.86,2.3,2,2.17,3.75s-.19,5.91-.19,7.76l1.24.47c-.2-.17.3-3.11.23-3.5a31,31,0,0,1,0-6.88c.06-1.07,1.08-.9,1.8-1,.9-.09,1.12.55,1.14,1.29,0,1,0,2.11,0,3.16H136c0,1.05,0,2.11,0,3.16,0,.47.26,4.31,0,4.55l1.38-.15c-.59-2.62.61-8.64.15-11.25-.1-.52.32-.87.71-1.16,2.61-2,3.87-4.9,5.62-7.5,2.58-3.84,3.4-8.41,5.47-12.48,1.08-2.14,3.16-5.83,2.06-8.7-1.78,4.35-3.83,9.9-5.6,14.26a51.28,51.28,0,0,1-5.41,10.42c-2.89,4.1-10.24,4.36-13.07.24a54.31,54.31,0,0,0-4-5.23c-6.46-7.29-10.23-16.15-14.22-24.79-2.61-5.67-3.12-12.18-5.27-18.11-4-11-5.52-22.65-9-33.78-1.28-4.06-1.23-4.12-5.48-3.94a1.49,1.49,0,0,1-1.81-1.37A16.1,16.1,0,0,1,87.9,251a3.1,3.1,0,0,1,2.32-2c1.16-.28,1.65.67,2.19,1.48.28.43.31,1.18,1.11,1.1,0-3.14-1.57-4.13-5.14-3.1.13-3.25,2.23-5.68,3.21-8.5,3.2-9.31,7.85-18.08,10.82-27.48,1.74-5.49,6.32-8.15,10.28-11.55,2.18-1.87,3.89-1.81,6.6-.74A57.49,57.49,0,0,1,134,209c1,.76,2,1.76,3.15,1.94,3.7.56,5.22,3.42,7.19,6,3.59,4.67,8.35,8.11,12.92,11.74a8.73,8.73,0,0,1,2.59,3.26c2.36,4.92,6.63,8.07,11,11.12,1.31.92,3,1.38,3.74,3V246c1.73,1.92,2.5,4.58,4.54,6.23,6,4.86,17.57,6.66,24.39,1.42.6-.46,1.36-.7,2-1.14,3.09-2.25,6.79-3.5,9.68-6.06C216.88,244.85,216.83,242.93,214.81,242.13Z"/><path d="M174.53,246.05V246a10.71,10.71,0,0,1-1.94,11.71c-.25.29-.42.81-.71.89-4.83,1.29-4.45,5.83-5.31,9.21-2.44,9.64-3.88,19.56-6.65,29.11-1.74,6-3.28,12.19-5.94,17.91-1.11,2.39-.5,5.43-2.64,7.39,0,0-.27.08-.32-.07a7,7,0,0,1,.58-3.37c1.86-5.73,3.85-11.41,5.55-17.17,1.86-6.31,4.07-12.61,5-19.07,1.13-7.81,3.78-15.18,5.35-22.83a1.89,1.89,0,0,1,1.36-1.66,7.57,7.57,0,0,0,5.32-7.64c-.22-3.69-1.56-4.61-5.23-3.65-.41.11-.92.34-1.21-.26C170.48,244.66,170.63,244.65,174.53,246.05Z"/><path d="M141.31,263.4c1.39,2.33.95,5.56,1.08,8.05.52,9.55.74,19.12,1.17,28.67.25,5.67-1.27,7.56-6.91,7.33a27.7,27.7,0,0,1-8.2-1.05c-1.9-.66-3-1.79-3.1-3.65-.38-8.51-.68-17,1-25.47.16-1,.28-.9.81-1l0-.06c-.33,3.43-.82,6.86-1,10.26a75.57,75.57,0,0,0,.79,16.78,2.26,2.26,0,0,0,1.73,2c3.49,1.08,7,1.66,10.66.74,2.52-.63,3.39-2,3.4-4.48,0-8-.58-15.88-1-23.81-.23-4.57-.48-9.74-.59-14.32Z"/><path d="M126.56,276.78c-.75-8,.46-16.62.36-24.66-.06-5-.27-9.91-.4-14.86,0-1.76-.69-2.76-2.67-3a36.71,36.71,0,0,0-13.38.81c-5.6,1.43-11.48,1.88-16.66,4.83,1.58-1.87,3.35-2.69,8.37-3.92,7-1.72,14-3.26,21.26-2.78,2.54.17,4,.71,4.12,3.74.42,12.52-.17,25-.11,37.54a10.45,10.45,0,0,1-.36,1.87Z"/><path d="M142.74,243.32c2.71-2.74,6.29-3,9.8-2.92s6.51,2.56,7.06,5.45a15.34,15.34,0,0,0-6.56-4.33c-.63,1.21,0,3.42-2.09,3.2s-.71-1.95-.88-3.18A55.58,55.58,0,0,0,142.74,243.32Z"/><path d="M100.64,245.36c.15-1.61.75-2.12,1.41-2.44,5.74-2.77,11.57-3.83,17.55-.71.46.24,1.33.26.87,1.08s-1,.26-1.45-.08a9.1,9.1,0,0,0-3.94-1.63c-1.62-.3-3.61-1.06-3.6,2,0,.79-.52,1.84-1.6,1.65-.84-.16-1.07-1.09-.9-1.89.32-1.55-.47-1.5-1.59-1.28A12.38,12.38,0,0,0,100.64,245.36Z"/><path d="M137.75,234.3c5.59-2.48,21.68.6,25.23,5-4.48-1.51-8.14-3.74-12.44-4.2A109.77,109.77,0,0,0,137.75,234.3Z"/><path d="M141.15,264a37.67,37.67,0,0,1-1.28-9,110.45,110.45,0,0,0-3-18.62c-.09-.41-.09-.74.7-1.51.72,3.16,1.62,6,2,8.86.77,6.16,1.27,12.36,1.85,18.54.05.55.05.45.1,1.65Z"/><path d="M126.41,322.58c2.29-.41,3.83-.8,4.72-2.53.43-.83,1.84-.55,2.68-.27a8.3,8.3,0,0,0,4.14.35c-1.1,1.45-2.45,1.28-3.92.93-1.05-.25-2.48-.84-2.94.69C130.3,324.32,128.86,323.93,126.41,322.58Z"/><path d="M132.24,326.48c3.79.19,7-.76,9.11-4.21C140,326.83,136.88,328.29,132.24,326.48Z"/><path d="M136.08,334.68c-2.45.23-5,.1-7.21,1.67C129.4,334.25,132.57,333.5,136.08,334.68Z"/></g><path class="cls-8" d="M114.82,704.08c.36.83.72,1.74,1.74,1.85.46.05.79-.28,1.16-.49a3.32,3.32,0,0,0,1-.89c.53-.7,1.06-1.42,1.53-2.18.29-.46.55-1,.86-1.43s.63-.86.91-1.35c.11-.2.26-.45.37-.67a6.26,6.26,0,0,0,.37-.85,7.35,7.35,0,0,1,.67-1.44c.54.53,0,1.33-.15,1.89-.07.28-.15.56-.23.84a8.11,8.11,0,0,1-.4,1c-.5,1.07-.84,2.26-1.36,3.36-.37.78-.72,1.58-1.09,2.35a7.23,7.23,0,0,1-1.2,2,2.48,2.48,0,0,1-3.64-.4,4.18,4.18,0,0,1-1-2.49,3.36,3.36,0,0,1,0-1.05C114.52,703.8,114.87,703.77,114.82,704.08Z"/><path class="cls-21" d="M94.44,19.67,86.66,52.19H76.91l-5.2-21.76L66.47,52.19H56.72L48.94,19.67H57.5l4.18,23.55,5.71-23.55H76l5.7,23.55,4.24-23.55Z"/><path class="cls-21" d="M106.44,19.67V52.19H98.57V19.67Z"/><path class="cls-21" d="M119.73,46.16h10.49v6H111.87V19.67h7.86Z"/><path class="cls-21" d="M141.72,46.16h10.49v6H133.86V19.67h7.86Z"/><path class="cls-21" d="M163.71,19.67V52.19h-7.87V19.67Z"/><path class="cls-21" d="M189.29,46.26H177.1l-2,5.93h-8.28L178.71,19.9h9.06l11.91,32.29h-8.37Zm-2-6-4-12-4.09,12Z"/><path class="cls-21" d="M239.29,19.9V52.19h-7.87V32l-7,20.2h-6.81l-7-20.24V52.19h-7.86V19.9h9.61l8.79,22.49,8.6-22.49Z"/></svg>