<svg id="Layer_2" data-name="Layer 2" xmlns="http://www.w3.org/2000/svg" viewBox="0 0 274 684"><defs><style>.cls-1{fill:#95c7eb;}.cls-2{fill:#fff;}.cls-3,.cls-5{fill:none;stroke-miterlimit:10;}.cls-3,.cls-5,.cls-6{stroke:#231f20;}.cls-3{stroke-width:0.5px;}.cls-4,.cls-6{fill:#231f20;}.cls-7{fill:#e01f2a;}</style></defs><title>young-boy</title><rect class="cls-1" x="-0.48" y="-0.35" width="273.7" height="684.15"/><g id="Pants"><path class="cls-2" d="M105.9,601.09v6.81l7.18,2.77,8.16,1.46.29-2.25v-2.47L120.42,605s-.64-3-.64-3-.27-2.23-.27-2.23Z"/><polygon class="cls-2" points="139.38 592.01 139.14 594.86 138.72 596.53 138.56 597.79 139.66 600.36 141.62 601.76 142.97 601.73 145.43 602.27 147.62 602.45 148.88 602.35 149.44 600.89 150.31 598.42 149.44 592.97 139.38 592.01"/><path class="cls-3" d="M139.29,594.31c.21-.06.1-.85.3-1"/><path class="cls-3" d="M121.6,608.18c-.24-1-1-2.71-1.4-3.74a47.74,47.74,0,0,1-.7-4.73"/><circle class="cls-2" cx="124.7" cy="415.81" r="3.28"/><path class="cls-4" d="M169,494.91c0-6.76,0-13.52,0-20.28a6.1,6.1,0,0,0,0-1.76c-1.2-3.7-.56-7.48-.53-11.24l-1.43-.21a3.79,3.79,0,0,1,.49-3.79,2.82,2.82,0,0,0-.11-3.18c-.32-4.72-.24-9.52-2.93-13.75a1.62,1.62,0,0,1-.16-.85c.2-2.71-.92-5.18-1.51-7.73a9.37,9.37,0,0,1,.05-4.53,4.92,4.92,0,0,0,.16-2.3c-.5-2.16-1-4.34-1.7-6.45a8.47,8.47,0,0,1-.28-5.13,7.73,7.73,0,0,0-2.59-8.27l-1.31.08c-4.65.73-9.1,2.24-13.66,3.3-4.78,1.12-9.54,2.33-14.52,2-6,.41-12,1-18.06.19-5.42-.71-10.68-1.93-16-3.11a18.47,18.47,0,0,1-2.13-.92c-1.71,4.29-1.58,9.14-3.91,13.26a1.33,1.33,0,0,0,0,.57,44.83,44.83,0,0,1-1.34,11.77,20.53,20.53,0,0,0-.5,5.24c0,7.15,0,14.3,0,21.45,1.35.75,2,1.63.47,2.85-.43.35-.33.86-.46,1.31a.63.63,0,0,1,.06.52c.23,1.78,1.23,3.48.54,5.36q.87,8,1.73,16.06c.29,2.73.49,5.47.84,8.19.72,5.43,2,10.79,2.23,16.29a23.13,23.13,0,0,1-.06,4.92c-.31,2,.71,3.93.44,5.78-.65,4.52.2,9.06-.44,13.57-.37,2.6.41,5.19.45,7.82a40.56,40.56,0,0,0,.69,8.76c.66,2.85.85,5.79,1.29,8.69.47,3.08,1,6.15,1.5,9.24,1,6.18,3.4,12,4.57,18.11.29,1.52,1,3.11.67,4.56-.6,2.46-.36,4.89-.39,7.33a11.58,11.58,0,0,1-.56,3.88,18.7,18.7,0,0,0,10.76,1.35c.94-.62.46-.77.82-1,2.25-1.2,2.67-1,4.45-1.93a5.49,5.49,0,0,1,2.07-.9,5.22,5.22,0,0,1,1.31-.06c.71-.41.85-.65.63-1.29a11.32,11.32,0,0,1-1.18-3.13,136.83,136.83,0,0,1-.76-16.69c0-2.54-.05-5.1-.14-7.64-.16-4.7-1.45-9.31-1.25-14,.26-6,.31-12,.41-17.92,0-2.57-.81-5-.54-7.59.49-4.58.64-9.19,1.27-13.75.42-3,.29-6.06,1.24-8.95a7.81,7.81,0,0,0,.38-3.47,18.24,18.24,0,0,1,.79-7c.22-.78.59-1.58.21-2.26a3,3,0,0,1,.22-3.05,6,6,0,0,0,.58-2.54,52.23,52.23,0,0,1,2-12.12c1.84-7,3.25-14.1,3.16-21.4,0-.47.16-1,.82-.92.4.25.42.62.5,1,1.27,5.88,1.84,11.89,4.15,17.57a133.74,133.74,0,0,1,7.13,21.29c.25,1.12,1.08,2.1,1.1,3.31a41.83,41.83,0,0,0,1.93,11.76,9.93,9.93,0,0,1,.45,3.19,25.82,25.82,0,0,0,1.25,8.93c1.55,4.49-1.07,8.65-.32,13,.06.32-.32.69-.42,1a7.46,7.46,0,0,0-.34,1.73c-.15,5.87-.5,11.75-.29,17.61a28.2,28.2,0,0,1-.71,7.48c-.2.87-.29,1.73-.44,2.6-.48,2.78-.7,5.63-1.35,8.36-1.12,4.72-2.7,9.35-2.75,14.27a2.63,2.63,0,0,1-.42,1.39c-.07.11-.13.24-.2.36a.52.52,0,0,1,.21.17,19.55,19.55,0,0,0,10.49,7c2.48.66,4.77-.12,7.24.23l.53.1a9.62,9.62,0,0,1,.61-2.4c1.32-3.37,2.67-6.74,2.05-10.51a4,4,0,0,1,.26-2c1.86-4.45,2.71-9.17,3.74-13.83,1.24-5.61,2.31-11.27,3.34-16.92.78-4.23,1.37-8.49,2-12.74a7.17,7.17,0,0,0,.11-3.22A7.71,7.71,0,0,1,168,532c.85-2.29-.62-4.8.75-7-1-2.06-.21-4.24-.15-6.29C168.88,510.73,169,502.83,169,494.91Zm-45.31-77a2.17,2.17,0,0,1,.39-4.32,2.56,2.56,0,0,1,1.81,2.33A2.39,2.39,0,0,1,123.67,417.94Z"/></g><g id="Right-shoe"><path class="cls-2" d="M110.85,602.05l.14,0-2.38.38-1.88.9,1.28-.64s.86-.77,1.25-.66A7.25,7.25,0,0,0,110.85,602.05Z"/><polygon class="cls-2" points="114.22 605.06 113.83 604.51 113.28 603.32 113.53 603.62 114.04 604.58 114.22 605.06"/><path class="cls-2" d="M125.63,623.19l-.09,1-.22,1.12-.34.58-.5.91-.8.92-1,.7-3.37,1.24-2.89.83-1.71.87-1.29,1.2L111,636.3,108,638l-2.68.88-3.6.69-6.35.2-3.91-.27L87.4,639l-1.14-.46-1.13-1.09-.89-1.86V634l.6-.78.22-.28-.08-.78s.15-.92.18-1l1.13-1.77s1.72-3,1.87-3.09.31-.68.31-.68l.65-1,1.69-1.71,1.47-1.46,2-1.86L96,617.88l1.25-1.77,1.45-2.19,1.13-1.87.56-1.68s.79-1.72.86-1.77,1.28-1.6,1.28-1.6l.06-.93v-1.76a1.54,1.54,0,0,1,.18-.37c.06,0,.34.23.34.23l.25.51.19.17.06,0,1.28-.68.14-.06,1.66-.8,1.88-.9,2.38-.38,1.24.32.72.53.33.39.55,1.19.39.55.23.6.44.73.55.59s.26.31.3.28l0,0h0l.78-.63.67-.43,1.14.4,1.12,1.23.51.8.47.74,1.07,1.36v-.45c0-.08,0-.65,0-.78s.06-1.16.06-1.16l.22-.74a3.68,3.68,0,0,0,.32-.69,4.06,4.06,0,0,1,.14-.71s.09-.44.09-.44l.37.54.38.78.53,1.13.15.86a4.34,4.34,0,0,1,.11.76,3.47,3.47,0,0,0,.32.76l.27.74.17.92-.24.72-.32.83-.2,1.05.16.7.45.9.29.81,0,1.24-.26,1.06s0,.73,0,.82.14.57.14.57l.53.2s.22.52.23.56.12.59.12.59Z"/><polygon class="cls-2" points="103.59 604.85 104.93 604.22 103.65 604.9 103.59 604.85"/><polygon class="cls-2" points="113.24 603.24 113.28 603.32 112.95 602.93 112.23 602.4 110.99 602.08 111.14 602.06 112.56 602.42 113.24 603.24"/><path class="cls-2" d="M115.77,607.23l0,0s-.3-.28-.3-.28l-.55-.59-.44-.73-.23-.6Z"/><path class="cls-3" d="M103.31,604.44c.12,2-.64,3.62-1.06,5.47A26.41,26.41,0,0,1,97,620.65a24.37,24.37,0,0,1-4,3.82c-1.16.79-4,.71-4.64,1.81,0-1.41,2.81-3.55,3.58-4.38,1.17-1.27,2.55-2.33,3.71-3.58A39.94,39.94,0,0,0,98.78,614c1.1-1.55,1.32-3.08,2.09-4.74.44-.94,1.45-1.56,1.76-2.56s-.15-1.91.18-2.8A.83.83,0,0,1,103.31,604.44Z"/><path class="cls-3" d="M85.23,633.08c.74-.31,1.78.53,2.56.85a13.68,13.68,0,0,0,3.66.93,74.68,74.68,0,0,0,7.93.11c3.44,0,8.17-.29,10.64-2.77,2.09-2.11,3.61-4.68,5.79-6.69,1.11-1,2.22-1.15,3.61-1.62a14.49,14.49,0,0,0,3.5-2c1.28-.86,2.12-2,2.56-.06a6.28,6.28,0,0,1-.86,4.74c-2.24,3.72-7.62,2.58-10.53,5.32a16.32,16.32,0,0,0-2.42,3.44,3,3,0,0,1-1.65,1.55,20,20,0,0,1-3.11,1.46A34,34,0,0,1,93,639.56c-2.11-.2-4.54,0-6.51-.94a4.57,4.57,0,0,1-2.18-4.33C84.43,633.41,84.68,633.28,85.23,633.08Z"/><path class="cls-3" d="M101,624.14a8.67,8.67,0,0,1,3.29,4.91c.26.87.77,1.67,1,2.47.39,1.3-.69,1.82-.44,2.91"/><path class="cls-3" d="M100.62,624.14c1.22-2.5,4.18-3.9,6.08-5.75s3-4.06,4.8-5.95c1-1.07,2-2.32,3-3.38.53-.56,1.77-2.56,2.55-2.76,2.4-.61,3.32,4.61,5.42,4.86,1.33.16,1.54-1.12,1.25-2.35-.14-.61-1-2.95-1.47-3.15.14,1-.59,1.85-.71,2.81-.09.77,0,1.62,0,2.38"/><path class="cls-3" d="M89.62,625.42c-1.37.26-2.36,2.41-3.05,3.52s-2.07,2.91-1.48,4.23"/><path class="cls-3" d="M124.68,620.92c-.38-.87,0-1.92.13-2.84.13-1.38-.43-1.63-.81-2.7s.33-1.91.57-3-.89-2.45-.57-3.11"/><path class="cls-3" d="M103.4,605.26c1.74-1.14,3-1.56,4.26-2.34a5.86,5.86,0,0,1,4-.76,4.07,4.07,0,0,1,2.51,2.69,4.72,4.72,0,0,0,1.76,2.56"/><path class="cls-3" d="M102.22,608.6c3.34,0,8.48-.06,11.24,3.53"/><path class="cls-3" d="M101.17,610.54c2.08-.55,4.43.74,6.48,1.35a11,11,0,0,1,3.86,2"/><path class="cls-3" d="M100.63,612.82c1.57-.06,3.45,1.27,5,1.71,1.4.38,3.21.51,4.19,1.7"/><path class="cls-3" d="M99.55,615.11c3,1.37,5.8,2,8.74,3"/><path class="cls-3" d="M98.74,617c1.37,0,2.7,1.33,3.92,1.86a14,14,0,0,0,3.92,1.23"/><path class="cls-3" d="M97,619.32c1.52.23,5.37,1.6,6.29,2.58"/><path class="cls-3" d="M95.63,621.33c1.26.36,2.6.55,3.89.84a5.22,5.22,0,0,1,2.56,1"/><path class="cls-3" d="M94,622.83c2.92-.28,4.39,1,7.07,1.49"/><path class="cls-3" d="M103.48,604.9c.8-.91,3.31-1.3,3-2.81a2.24,2.24,0,0,1,.52,0"/><path class="cls-3" d="M123.84,614.13c-1-.49-3,1.37-3.41,2.34a6.07,6.07,0,0,0-.21,2.9c.23,2.35-.46,5-3.76,5.64"/><path class="cls-3" d="M116.28,606.78c1-.1.84.73,1.16,1.24s1,.88,1.4,1.38.86.84,1.19,1.35.55,1.16,1.33,1.43a5,5,0,0,0,3.29,0"/><path class="cls-3" d="M113.59,612c-.19,0-.44.2-.32.39s.41.09.51,0a.17.17,0,0,0,0-.26C113.68,612,113.62,612,113.59,612Z"/><path class="cls-3" d="M111.47,613.56a.29.29,0,0,0-.33.33.29.29,0,0,0,.06.22.47.47,0,0,0,.31,0,.24.24,0,0,0,.16-.22s0-.23,0-.28S111.52,613.57,111.47,613.56Z"/><path class="cls-3" d="M109.87,615.93c-.17.07-.35.11-.33.34a.36.36,0,0,0,.13.22c.09,0,.24,0,.3-.1A.44.44,0,0,0,110,616C110,615.93,110,615.94,109.87,615.93Z"/><path class="cls-3" d="M108.42,617.83c-.2,0-.53.27-.36.51s.31.06.42,0,.09-.27.06-.4a.11.11,0,0,0-.06-.09S108.38,617.85,108.42,617.83Z"/><path class="cls-3" d="M106.64,620c-.16-.05-.3.15-.33.3a.18.18,0,0,0,.11.19c.11.06.17,0,.25-.06s.27-.28.14-.39S106.64,619.92,106.64,620Z"/><path class="cls-3" d="M103.46,621.69c-.16,0-.27.1-.28.28s0,.19.07.22a.47.47,0,0,0,.32-.08.36.36,0,0,0,0-.37A.19.19,0,0,0,103.46,621.69Z"/><path class="cls-3" d="M102.37,622.88a.41.41,0,0,0-.31.14c-.07.08-.1.24,0,.28a.28.28,0,0,0,.35-.22C102.46,623,102.47,622.81,102.37,622.88Z"/><path class="cls-3" d="M102.19,608.32c-.26,0-.28.48,0,.36C102.28,608.63,102.39,608.38,102.19,608.32Z"/><path class="cls-3" d="M101.3,610.22c-.13.06-.26.18-.21.34s.21.09.32,0a.16.16,0,0,0,.06-.23C101.43,610.26,101.34,610.27,101.3,610.22Z"/><path class="cls-3" d="M100.7,612.5c-.13,0-.4.15-.34.32s.13.09.2.09a.3.3,0,0,0,.21-.14S100.81,612.52,100.7,612.5Z"/><path class="cls-3" d="M99.56,614.77c-.15.05-.32.12-.33.28s0,.17.13.13a.38.38,0,0,0,.28-.45Z"/><path class="cls-3" d="M98.5,616.64c-.11.07-.39.22-.34.39a.23.23,0,0,0,.36.09C98.67,617,98.68,616.46,98.5,616.64Z"/><path class="cls-3" d="M97,618.87c-.09-.06-.45.2-.48.34a.23.23,0,0,0,0,.18c.07.1.22.06.31,0S97.25,618.89,97,618.87Z"/><path class="cls-3" d="M95.51,620.86a.33.33,0,0,0-.38.3c0,.18,0,.27.21.23a.39.39,0,0,0,.26-.17c.09-.16,0-.32,0-.48C95.54,620.75,95.52,620.76,95.51,620.86Z"/><path class="cls-3" d="M94.1,622.39a.34.34,0,0,0-.37.27c0,.14.08.28.21.24a.47.47,0,0,0,.27-.3c0-.14-.06-.16-.1-.26S94.08,622.35,94.1,622.39Z"/><path class="cls-3" d="M86.12,633.12a19.86,19.86,0,0,1-.2,2.89c0,.39-.19.79-.22,1.18s-.06.72.13.91"/><path class="cls-3" d="M88.51,634.27a7.66,7.66,0,0,0-.32,4.89"/><path class="cls-3" d="M90.52,634.71c0,.77,0,1.54,0,2.31a12.84,12.84,0,0,0-.15,1.39c0,.36.08.73.09,1.08"/><path class="cls-3" d="M92.66,635.19c0,1.06.13,2.09.13,3.15,0,.39-.13.74-.13,1.13"/><path class="cls-3" d="M94.7,635.22c0,1,.06,1.94.06,2.9a4.9,4.9,0,0,1-.06,1.44"/><path class="cls-3" d="M96.62,635.13c0,.46.15.91.18,1.37s0,.67,0,1,0,.69,0,1,0,.54,0,.81,0,.43-.06.41"/><path class="cls-3" d="M98.59,635.13c.69,1.38.31,3.07.74,4.5"/><path class="cls-3" d="M100.13,635a8.87,8.87,0,0,1,1.11,3c.07.45.06.91.13,1.35"/><path class="cls-3" d="M102.81,634.94c.36,1.44,1.25,2.73,1.47,4.22"/><path class="cls-3" d="M105.1,634.68c.45,1,1.31,1.8,1.44,2.94a4.15,4.15,0,0,1,.06.83"/><path class="cls-3" d="M107.37,634c.46.83,1.45,1.45,1.66,2.4.07.34,0,.69.13,1"/><path class="cls-3" d="M109.22,632.93a1.25,1.25,0,0,1,.56.38c.35.3.73.61,1,.94a1.85,1.85,0,0,1,.34.53,1.65,1.65,0,0,1,.29.73"/><path class="cls-3" d="M110.88,631.46c.32.09.58.45.84.65a2.13,2.13,0,0,1,.56.56,5.67,5.67,0,0,1,.39.83"/><path class="cls-3" d="M112.25,629.64c.13.33.66.47.94.61a3,3,0,0,1,1.2.83,1.16,1.16,0,0,1,.13.41"/><path class="cls-3" d="M113.5,628.3a3.67,3.67,0,0,1,1.72.92,1.82,1.82,0,0,1,.45.58,4.52,4.52,0,0,1,.41.86"/><path class="cls-3" d="M115.35,626.29c1.6.56,2.35,2.27,2.65,3.8"/><path class="cls-3" d="M117.58,624.53a4.15,4.15,0,0,1,1.65,2c.17.4.42.77.59,1.17a6.42,6.42,0,0,1,.38,1.67"/><path class="cls-3" d="M120.17,623.48a13.53,13.53,0,0,0,1.63,2.17,4.07,4.07,0,0,1,.66,1.51,10,10,0,0,1,.13,1.33"/><path class="cls-3" d="M121.83,622.78a7.2,7.2,0,0,1,2.34,4.46"/><path class="cls-3" d="M123.74,621.28c.21.75,1.06,1.33,1.34,2.1.14.36.36.29.48.65"/><polygon class="cls-4" points="116.67 612.11 117.71 615.07 120.02 615.54 118.35 617.85 118.74 621.1 116.67 619.57 114.61 621.1 115 617.85 113.33 615.54 115.64 615.07 116.67 612.11"/></g><g id="Left-shoe"><polygon class="cls-2" points="154.07 598.71 154.29 598.77 153.99 598.7 154.07 598.71"/><polygon class="cls-2" points="157.85 601.2 157.28 600.19 156.36 599.49 155.28 599.04 156.11 599.26 157.54 600.38 157.85 601.2"/><path class="cls-2" d="M171.93,633.88l-.14.77-.38,1.16-.46,1.33-.44.63-1.08.42-1.52.18-1.63-.22-1.89-.55-2.84-.8-2.85-1.24-6.41-3.07-5.52-3.67-1.17-1.2-1.85-2.51-2.25-2.63-1.86-1.77-3.25-1.85-1.66-1.09L132.81,616l-4-3.25-1.1-.71.09-.46.61-1.35.49-2.35.34-1.51.1-.73.44-.33.55,0,.68-.56.74-.93,1.86-2.16,1.49-2.35.64-1.74.5-1.43.77-.34.38-.33,1.07-1.15,1.1-.27s-.44,1.56-.49,1.75-.61,1.52-.61,1.52l.43,1.51,1.52,1.9,1.23.75,1.51.33,1-.07L146,602l1.66.36,1.42.1.19-.71.21-1.41L150,599l.57-.44h2.26l1.19.17.3.07,1,.27,1.08.45.92.7.57,1,.16.42.05.13h.51l1.76.27.23.45-.35.78-.7.59-.29,1.25c0,.08,0,1.78,0,1.78l1,1.83,1,4.36.69,2.79.86,1.49.51,1.72.86,1.46.41,1.12.26,1L166,624l1.5,1.59,1.44,1.06,1,1.56.73,1.51.76,2.24Z"/><polygon class="cls-2" points="149.44 599.58 149.97 598.97 149.44 600.34 149.23 601.75 149.35 600.56 149.44 599.58"/><polygon class="cls-2" points="150.1 598.82 150.54 598.53 149.97 598.97 150.1 598.82"/><polygon class="cls-2" points="153.91 598.68 153.99 598.7 152.8 598.53 150.54 598.53 150.7 598.42 152.13 598.42 153.91 598.68"/><polygon class="cls-2" points="155.1 598.96 155.28 599.04 154.29 598.77 155.1 598.96"/><polygon class="cls-2" points="158.01 601.48 158.01 601.62 157.85 601.2 158.01 601.48"/><path class="cls-3" d="M139.52,594c-.27.85-.4,1.64-.76,2.49a3.16,3.16,0,0,0,.34,2.81,5.86,5.86,0,0,0,3.32,2.42,10.68,10.68,0,0,0,1.7,0c.71.06,1.46.23,2.15.32a6.12,6.12,0,0,1,1.23.28,7.48,7.48,0,0,0,2.11.13,11.6,11.6,0,0,1,2.35-.05,3.71,3.71,0,0,1,2.27,1.39,20,20,0,0,1,1.26,3.11,13.69,13.69,0,0,1,.53,3.46,8.85,8.85,0,0,0,1.23,3.48c.74,1.22.57,2.45,1.06,3.69a17.7,17.7,0,0,0,1.43,2.55c.28.47.75,1.11.54,1.71s-.86.91-1.15,1.44-.54,1.19-.9,1.76a10.11,10.11,0,0,1-.87,1.5,7,7,0,0,1-1.6,1c-.5.33-1.47,1.33-2.17,1.15"/><path class="cls-3" d="M149.44,602.46c-.51-.62,0-2.64.34-3.18.64-1,.81-.87,2-.82,2.34.09,6.16.7,6.28,3.62a4,4,0,0,1-.35,1.44c-.17.65.15,1,.32,1.62s.27,1.43.46,2.12a11.7,11.7,0,0,1,.39,1.83c.06.53.2,1.07.25,1.6a18.92,18.92,0,0,0,.61,2.35c.22.92.8,1.37,1.19,2.21.27.57.36,1.28.58,1.89s.28,1.38.56,2.05a6.39,6.39,0,0,0,1.45,2,25.33,25.33,0,0,0,1.66,2.06c.88.74,1.68,1.62,2.5,2.42"/><path class="cls-3" d="M167.63,625.65a8.37,8.37,0,0,1,2.7,3.13,13.54,13.54,0,0,1,.73,2.08,12.61,12.61,0,0,1,.58,1.7c.1.52.47,1.67.19,2.08a6.71,6.71,0,0,1-2.86,0,31.4,31.4,0,0,1-3.48-.52,54.88,54.88,0,0,1-7.81-3.18,34.07,34.07,0,0,1-3.43-1.82,30.59,30.59,0,0,1-3.13-2.37c-1-.76-2-1.7-2.92-2.53a4.71,4.71,0,0,1-1-1.38,13.54,13.54,0,0,0-1.37-1.56,40,40,0,0,1-2.8-3,10.45,10.45,0,0,0-2.64-2.54"/><path class="cls-3" d="M140.48,615.81a25.73,25.73,0,0,1-2.46-1.66,14.75,14.75,0,0,1-1.66-1.29c-.62-.61-1.16-1.3-1.82-1.85a27.84,27.84,0,0,1-2.56-2.16,19.17,19.17,0,0,0-2.73-2.68c-.48.84-.28,1.62-.53,2.51s-.28,1.49-.55,2.29c-.09.25-.48.62-.5.84,0,.52,1,.87,1.47,1.16,1,.7,1.85,1.71,2.89,2.44s2.07,2,3.26,2.78,2.82,1.52,4.18,2.4A11.34,11.34,0,0,1,142,623c.85,1,1.75,2,2.51,3a13.2,13.2,0,0,0,2.31,2.79c1.17.94,2.46,1.7,3.7,2.54a33.78,33.78,0,0,0,5.06,2.78c1.79.78,3.56,1.62,5.34,2.39,1.54.67,3.14.89,4.72,1.42a6.21,6.21,0,0,0,4.37,0,2.46,2.46,0,0,0,.73-.35c.34-.36.26-.75.42-1.19a9.2,9.2,0,0,0,.38-.87c.13-.46,0-.64.39-1"/><path class="cls-3" d="M139.49,594.28a1.47,1.47,0,0,0-1.28.19c-.41.21-.56.6-.86,1-.59.78-.42.94,0,1.85a22.37,22.37,0,0,0,.73,2.44,17.46,17.46,0,0,0,2,2.35c.44.27.78.39,1,.51s.33.34.59.45a4.28,4.28,0,0,0,1.23.2c.54.07,1.08.09,1.62.14,1.19.09,2.37.21,3.55.31.52,0,1,.18,1.55.23s.79.11,1.18.14a9.14,9.14,0,0,0,1,0,14.16,14.16,0,0,0,1.59-.23,4.49,4.49,0,0,0,.83-.08.1.1,0,0,0-.07-.07"/><path class="cls-3" d="M136.77,595.79c-.77.33-.87,1-1.08,1.77a10.68,10.68,0,0,1-1.08,2.59,36.18,36.18,0,0,1-3.4,4.25c-.27.34-.45.76-.92.89-.27.08-.54-.06-.79.13-.43.33-.07.56-.3,1"/><path class="cls-3" d="M159.91,622.34a3.06,3.06,0,0,1,2.2-.79,6.92,6.92,0,0,1,2,.7c.39.25.66.67,1,1"/><path class="cls-3" d="M157.08,620.47c-.06-.39,2.69-.52,3.21-.51a20,20,0,0,1,2,.27c.3,0,1.27.33,1.31.21"/><path class="cls-3" d="M156.29,618.59c.19-.54,2.73-.71,3.32-.71.81,0,2,.65,2.69.45"/><path class="cls-3" d="M154,615.61c1.34,0,2.57-.48,3.88-.55a8.17,8.17,0,0,1,3.21.44"/><path class="cls-3" d="M152.79,612.51c1.56.23,3.16-.16,4.74,0,.56.07,2.62.19,2.84.52"/><path class="cls-3" d="M151.84,609.28c.47-.36,1.78-.07,2.35,0s1.39.16,2.09.22a11.27,11.27,0,0,1,3.63.92"/><path class="cls-3" d="M150.84,605.83c.32-.48,2-.27,2.51-.25a16.67,16.67,0,0,1,2.74.32,15.36,15.36,0,0,1,3.27,1"/><path class="cls-3" d="M166.77,624.75a8.66,8.66,0,0,1-1.33-1.55,3.44,3.44,0,0,1-.83-1.7c-.18-.69-.84-1.33-1.07-2a12.63,12.63,0,0,0-.77-2.19,20.76,20.76,0,0,1-1.86-5.64c-.24-.88-.29-1.76-.52-2.64s-.91-1.39-1.15-2.27a5.26,5.26,0,0,1,.09-2.3c.09-.53.11-.67.58-1,.76-.52.4-.55.59-1.31a3.85,3.85,0,0,0-2.29-.37"/><path class="cls-3" d="M135.13,599.58a6.59,6.59,0,0,1,.81,2.16c.24.74.46,1.61.65,2.41a9,9,0,0,1,.26,1.44c.14,1.42.36,2.86.42,4.3a13.2,13.2,0,0,1-.15,2,5.91,5.91,0,0,1-.11.87"/><path class="cls-3" d="M151,605.47c-.3,0-.92.35-.51.63s.56-.29.56-.55"/><path class="cls-3" d="M151.63,609c-.14.26,0,.65,0,.93.28-.09.65-.29.5-.64s-.3-.23-.53-.21"/><path class="cls-3" d="M152.73,612c-.5.15-.1,1,.27.69s-.33-.87-.4-.6"/><path class="cls-3" d="M154,615.34c-.37.26-.19.89.3.62a.29.29,0,0,0,.09-.41.39.39,0,0,0-.39-.17"/><path class="cls-3" d="M156.21,618.08c-.41.2-.22,1.13.35.65.36-.31-.09-.64-.44-.58"/><path class="cls-3" d="M157.1,620.12c-.4,0-.38,1.07.13.74.21-.14.34-.33.14-.53s-.28-.11-.44-.16"/><path class="cls-3" d="M160,610.12a.73.73,0,0,0-.15.66c.19-.09.51-.57.13-.66"/><path class="cls-3" d="M160.39,612.7c0,.13,0,.64.1.75s.26-.16.26-.3-.18-.61-.41-.45"/><path class="cls-3" d="M162.26,618.08a1.47,1.47,0,0,0,.12.58c.47-.14.34-.4.07-.67a.53.53,0,0,0-.23.24"/><path class="cls-3" d="M130.58,607.27a12.45,12.45,0,0,0-.29,1.83c-.09.68-.34,1.33-.47,2a4.7,4.7,0,0,1-.66,1.87"/><path class="cls-3" d="M132.31,609.29a7,7,0,0,0-.54,1.14c-.21.42-.4.85-.59,1.28a9.54,9.54,0,0,0-.51,1.18,8.1,8.1,0,0,1-.24,1.21"/><path class="cls-3" d="M133.82,610.44a10.25,10.25,0,0,0-.78,2.24,9.77,9.77,0,0,1-.41,1.33c-.16.31-.48.52-.63.83a1.61,1.61,0,0,1-.16.38"/><path class="cls-3" d="M135.84,612.39c-.19.16-.25.51-.35.73a6.87,6.87,0,0,1-.42.81c-.29.48-.64.9-.89,1.4a4.5,4.5,0,0,0-.4.93,1.09,1.09,0,0,1-.15.39"/><path class="cls-3" d="M137.09,613.59c-.17.14-.24.46-.34.65a8.63,8.63,0,0,0-.37,1c-.18.55-.39,1.09-.62,1.63-.18.39-.42.75-.62,1.12"/><path class="cls-3" d="M139,614.86a6.11,6.11,0,0,0-.84,1.81c-.2.44-.39.87-.61,1.29a7,7,0,0,0-.53,1.35"/><path class="cls-3" d="M140.86,616.1a17.93,17.93,0,0,0-1.73,3.16,6.13,6.13,0,0,0-.42.9"/><path class="cls-3" d="M142.31,617.48c-.46.92-1,1.77-1.47,2.7a4.22,4.22,0,0,1-.6,1.06"/><path class="cls-3" d="M143.75,619.1a5.79,5.79,0,0,1-.23,1,6.29,6.29,0,0,1-.43,1.24,10.3,10.3,0,0,1-.52,1,7.72,7.72,0,0,1-.56.72"/><path class="cls-3" d="M145.48,621.05a8.65,8.65,0,0,1-.93,1.75,13.55,13.55,0,0,0-.61,1.48,2.77,2.77,0,0,0-.29.6"/><path class="cls-3" d="M147.16,622.86c-.09.17-.16.36-.25.54-.19.38-.46.71-.67,1.08s-.41.85-.66,1.26c-.13.22-.75,1-.7,1.06"/><path class="cls-3" d="M148.86,624.76a7,7,0,0,1-.66,1.55,11.72,11.72,0,0,1-.89,1.77c-.18.24-.27.47-.43.72"/><path class="cls-3" d="M150.46,626.35c.12.27-.28.93-.38,1.19a12.17,12.17,0,0,1-.72,1.61,5.22,5.22,0,0,0-.37,1.07"/><path class="cls-3" d="M152.31,627.82c-.23.52-.34,1.07-.56,1.59s-.44.91-.65,1.37a3.35,3.35,0,0,1-.32.72"/><path class="cls-3" d="M154,629a4.53,4.53,0,0,0-.52,1.24c-.17.5-.35,1-.54,1.47a4.17,4.17,0,0,0-.39.93"/><path class="cls-3" d="M155.37,629.84c-.14.6-.18,1.22-.37,1.82-.12.37-.28.73-.38,1.1s-.12.59-.21.83"/><path class="cls-3" d="M157.2,630.69a11.52,11.52,0,0,1-.46,1.84c-.15.44-.35.86-.49,1.29a1.94,1.94,0,0,0-.11.68"/><path class="cls-3" d="M159,631.65c-.24.89-.49,1.81-.72,2.71a3.9,3.9,0,0,1-.22.78"/><path class="cls-3" d="M161.18,632.71a4.17,4.17,0,0,1-.27,1.2,9.34,9.34,0,0,1-.4,1.16,3,3,0,0,0-.39,1.15"/><path class="cls-3" d="M162.78,633.29a2.48,2.48,0,0,0-.41.94c-.16.49-.31,1-.42,1.52a3.61,3.61,0,0,1-.12.57,1.29,1.29,0,0,0-.16.41"/><path class="cls-3" d="M164.54,634a15.87,15.87,0,0,1-.64,2.89,3,3,0,0,0-.1.49"/><path class="cls-3" d="M166.67,634.46c0,.54,0,1.06,0,1.6a8.37,8.37,0,0,1-.28,1.32,2.8,2.8,0,0,0-.13.69"/><path class="cls-3" d="M169.26,635c0,.39-.14.79-.19,1.18s-.06.86-.13,1.28a4.2,4.2,0,0,1-.19.83s0-.06,0-.1"/><polygon class="cls-4" points="143.44 604.32 143.89 607.33 146.51 608.56 143.92 610.04 143.54 613.08 141.48 610.99 138.62 611.64 139.94 608.87 138.56 606.23 141.43 606.61 143.44 604.32"/></g><g id="Right-hand"><path class="cls-2" d="M66.65,412.85l.1,1.22.18,2.65.14,2.13v2.6l.22,3.16.24,2.38.83,2.81.8,2.31.79,1.47L71.37,435l.93,1.14.91.94.91.85.52.23a4.14,4.14,0,0,0,.43-.2s.15-.41.15-.41l-.2-.6-.5-1.09.39.31.44.37.59.53.72.63.62.46.51.14.68,0,.42-.17v-.28l-.23-.47s-.41-.76-.39-.77a5.81,5.81,0,0,1,.56.45l.36.43.53.28.46,0a2.83,2.83,0,0,0,.41-.11s.26-.29.26-.29V437l-.43-.46-.44-.48-.41-.52.89.54.68.3s.71.21.73.2.43-.16.43-.16l.46-.3.13-.28,0-.49L82.6,435l-1-1.23-.72-1.16-.46-1.06-.7-1.71-.43-1.09L79,428l-.24-.89-.24-1.17-.18-1.19s0-1,0-1,0-.9,0-.9a2.59,2.59,0,0,1,.34-.3l.44-.05,1.13.35,1,.31,1,.24,1.12-.06s.64-.26.68-.3.48-.53.49-.56v-.56l-.4-.39-.62-.19-1.15-.21-.87-.23-.62-.3-1-.45-.76-.6-.46-.77-.13-.87-.24-1.66-.31-1.64-.18-1.07-.19-1.83-11.21-.57Z"/><path d="M66.52,404.58c.06.76.08,1.51.1,2.27,0,1.68,0,3.35.11,5s.21,3.41.32,5.12c0,.57.11,1.13.12,1.7,0,.83-.06,1.67,0,2.5.06,1.35.18,2.7.29,4.05a7.58,7.58,0,0,0,.13.81c.11.62.18,1.25.34,1.85.22.78.54,1.54.75,2.32a7.74,7.74,0,0,0,2,3.84c1,.91,1.78,2,2.68,3a4.53,4.53,0,0,0,1,.83.92.92,0,0,0,.71,0c.08,0,.06-.39.05-.6a.88.88,0,0,0-.16-.39c-.58-1-1.17-2-1.78-3,.06,0,.17,0,.22.08s.29.42.44.62a15.94,15.94,0,0,0,3,3.1,1.88,1.88,0,0,0,1.68.45c.39-.09.43-.14.24-.5A12,12,0,0,0,77,435.38c-.36-.39-.64-.85-1-1.21a16.85,16.85,0,0,1-1.4-2.15s0-.11,0-.17.14,0,.16,0,.12.22.19.32c.36.52.7,1.06,1.08,1.57.5.66,1,1.29,1.54,1.93.19.24.41.45.62.68a2.19,2.19,0,0,1,.27-.22c.25-.13.52-.28.8-.09s.69.51,1,.78a1.83,1.83,0,0,1,.26.32c-.43.37-.87.2-1.33.05a1,1,0,0,0,1.46.22.4.4,0,0,0,.07-.35,1.06,1.06,0,0,0-.26-.41c-.51-.56-1.06-1.09-1.54-1.68a11.41,11.41,0,0,1-1.11-1.63c-.3-.51-.52-1.06-.77-1.6a.69.69,0,0,1,0-.29l.14,0c.31.64.62,1.26.91,1.91A5.46,5.46,0,0,0,81,436.18a1.55,1.55,0,0,0,1.33.13c.57-.24.66-.66.3-1.15a20.73,20.73,0,0,1-1.78-2.61,40.38,40.38,0,0,1-1.63-3.89,14.79,14.79,0,0,1-1-5.59.68.68,0,0,1,.48-.7,1.32,1.32,0,0,1,.92.07,25.27,25.27,0,0,0,2.51.69,2.45,2.45,0,0,0,2.12-.58c.14-.12.3-.38.26-.5a1,1,0,0,0-.5-.5,4.43,4.43,0,0,0-1.23-.35,10,10,0,0,1-2.68-.91,2.37,2.37,0,0,1-1.58-2.05c-.07-.66-.19-1.3-.3-1.95S78,414.8,77.88,414c-.11-1-.14-2-.22-3s-.24-2.21-.31-3.31c-.09-1.26-.14-2.52-.18-3.78,0-.7,0-1.41,0-2.11l.1,0a.92.92,0,0,1,.09.28c0,.69,0,1.38,0,2.08,0,1.09.13,2.17.19,3.26,0,.62,0,1.24.11,1.85.09.9.3,1.79.32,2.68a17.47,17.47,0,0,0,.2,2.62c.17,1.07.33,2.14.5,3.2a.82.82,0,0,0,.1.36h0a1.17,1.17,0,0,0,.15.48c.07.16.08.34.15.51a1.36,1.36,0,0,0,.58.63c.33.2.69.36,1,.57a1.93,1.93,0,0,0,.43.22c.15.05.31.06.46.1a3,3,0,0,1,.5.26,1.48,1.48,0,0,0,.41.12,5.58,5.58,0,0,0,.59.09,2.62,2.62,0,0,1,1.34.39,1.05,1.05,0,0,1-.13,1.56,2.05,2.05,0,0,1-.86.36,3.28,3.28,0,0,1-1.25.09,17.66,17.66,0,0,1-2.36-.68c-.41-.14-1.07-.42-1.33.1a2.18,2.18,0,0,0,0,1.24,1.21,1.21,0,0,0,0,.18h-.09c.06.44.13.86.18,1.28a12.16,12.16,0,0,0,.72,3c.33.85.73,1.68,1,2.54A12.11,12.11,0,0,0,82.69,435c.57.68.27,1.42-.61,1.61a1.92,1.92,0,0,1-1.35-.3,3.15,3.15,0,0,0-.65-.26l.36.39a2.86,2.86,0,0,1,.37.41.58.58,0,0,1-.34.95,1.35,1.35,0,0,1-1.38-.31l-.3-.23-.08.06c.08.15.17.31.24.47.15.32.11.38-.21.49a1.94,1.94,0,0,1-2-.42c-.57-.49-1.12-1-1.68-1.49a.37.37,0,0,0-.28-.13,2.44,2.44,0,0,0,.1.24c.13.27.27.53.38.81.17.44.1.58-.35.91v0a1,1,0,0,1-.29.07h-.06a6.26,6.26,0,0,1-.87-.59c-.47-.43-.91-.9-1.34-1.37-.68-.75-1.32-1.54-2-2.26a6,6,0,0,1-1.48-2.5c-.28-.86-.51-1.73-.82-2.58a11.45,11.45,0,0,1-.7-3.05c-.08-.83-.17-1.66-.22-2.5-.06-1-.09-2-.12-3,0-.54,0-1.08,0-1.62-.07-1.2-.2-2.39-.27-3.59-.1-1.86-.18-3.72-.26-5.57-.06-1.44-.07-2.87-.13-4.3,0-.88-.15-1.75-.23-2.63,0-.16,0-.31.22-.23C66.37,403.18,66.47,403.88,66.52,404.58Z"/><path d="M78.55,436.39c.47-.28,1.06,0,1.63.71C79.78,437.34,78.92,437,78.55,436.39Z"/><path d="M80.68,435.61c-.71-.44-.7-.46-.1-1.06.27-.28.39-.29.72-.06a9.71,9.71,0,0,0,.83.6.45.45,0,0,1,.19.64c-.07.17-.29.28-.48.44C81.42,436,81,435.82,80.68,435.61Zm.72.16a.51.51,0,0,0,.32.05c.13,0,.35-.09.36-.17a.54.54,0,0,0-.14-.43,4.51,4.51,0,0,0-.7-.54c-.3-.19-.6,0-.86.53C80.73,435.4,81.06,435.6,81.4,435.77Z"/><path d="M78.15,437.21a3.09,3.09,0,0,0-.12.37c0,.25-.22.36-.39.26a3.8,3.8,0,0,1-1.7-1.23C76.5,435.82,77.61,436.44,78.15,437.21Zm-.51.43c.18.08.22-.07.2-.23a1.16,1.16,0,0,0-.91-.87c-.23,0-.5-.18-.7.13A3.44,3.44,0,0,0,77.64,437.64Z"/><path d="M82.34,422.79c-.37,0-.56-.21-.54-.55s.29-.7.63-.64a9.25,9.25,0,0,1,1.14.33c.17.06.24.18.11.38a1.13,1.13,0,0,1-1,.46Zm.09-1c-.26-.05-.35.14-.38.36s0,.38.29.38a1.33,1.33,0,0,0,1.23-.43C83.14,422,82.79,421.89,82.43,421.82Z"/><path d="M74,437.22a6.29,6.29,0,0,1-.92-.79.49.49,0,0,1-.1-.46c0-.11.27-.19.42-.2a1.83,1.83,0,0,1,1.15.88.13.13,0,0,1,0,.06c0,.17-.07.35-.11.59C74.28,437.28,74.08,437.31,74,437.22Zm-.39-1.2a1.31,1.31,0,0,0-.43.08,1.38,1.38,0,0,0,.17.32c.26.25.55.47.83.7A1.17,1.17,0,0,0,73.57,436Z"/><path class="cls-2" d="M78.55,436.39c.37.58,1.23.95,1.63.71C79.61,436.37,79,436.11,78.55,436.39Z"/><path class="cls-2" d="M80.38,435.21c.35.19.68.39,1,.56a.51.51,0,0,0,.32.05c.13,0,.35-.09.36-.17a.54.54,0,0,0-.14-.43,4.51,4.51,0,0,0-.7-.54C80.94,434.49,80.64,434.67,80.38,435.21Z"/><path class="cls-2" d="M76.23,436.67a3.44,3.44,0,0,0,1.41,1c.18.08.22-.07.2-.23a1.16,1.16,0,0,0-.91-.87C76.7,436.51,76.43,436.36,76.23,436.67Z"/><path class="cls-2" d="M83.57,422.13c-.43-.12-.78-.24-1.14-.31s-.35.14-.38.36,0,.38.29.38A1.33,1.33,0,0,0,83.57,422.13Z"/><path class="cls-2" d="M74.14,437.12a1.17,1.17,0,0,0-.57-1.1,1.31,1.31,0,0,0-.43.08,1.38,1.38,0,0,0,.17.32C73.57,436.67,73.86,436.89,74.14,437.12Z"/></g><g id="Left-hand"><path class="cls-2" d="M171.9,413.46c0,.13-.3,3.21-.3,3.21l-.26,1.43-.22,1.38-.25,1.31-.48.77-1.08.67-1,.46-.64.22-1.39.26-1,.37-.23.5.19.56.63.5,1.11.23,1.14-.18,1.45-.41s.85-.33.88-.33l.64.06.21.31.08.44v1l-.14,1L171,428.8l-.42,1.44-.69,1.77s-.55,1.31-.54,1.34-.76,1.59-.76,1.59l-.46.68-.68.93-.48.62-.12.3v.37l.25.35.41.21.41.08.57-.12.57-.28.93-.44-.27.36s-.23.27-.26.29l-.33.38-.19.28v.38l.25.28.41.13.57-.1.41-.26a6.88,6.88,0,0,1,.53-.55,7.92,7.92,0,0,0,.67-.56,4.79,4.79,0,0,0-.29.4c0,.07-.4.63-.4.63l-.22.37-.06.35.32.13.45.08.53-.05.44-.13s.44-.35.44-.35l.52-.43,1.21-1.08.87-.85-.24.47-.36.61-.35.7-.11.49.19.29.27.14.4-.06.7-.47,1.73-1.91,1.23-1.38,1.08-1.19s.41-.87.43-.89.64-2,.64-2l.87-2.67.31-2.16.19-1.77.12-2.65,0-2.22.15-1.37.14-2.31.07-1.78v-2.07Z"/><path d="M183.15,406.53c-.05.75-.07,1.51-.09,2.27,0,1.67,0,3.35-.11,5s-.21,3.41-.32,5.11c0,.57-.11,1.14-.12,1.7,0,.84.06,1.68,0,2.51-.06,1.35-.19,2.7-.29,4a7.37,7.37,0,0,1-.13.82c-.11.61-.18,1.24-.35,1.84-.21.79-.53,1.54-.75,2.32a7.68,7.68,0,0,1-2,3.84c-1,.92-1.78,2-2.68,3a4.74,4.74,0,0,1-1,.82.92.92,0,0,1-.71,0c-.08,0-.06-.39-.05-.59a1,1,0,0,1,.15-.4l1.79-3c-.06,0-.18,0-.22.09s-.3.41-.44.62a16.28,16.28,0,0,1-3,3.1,1.84,1.84,0,0,1-1.68.44c-.39-.09-.43-.14-.23-.5a11.55,11.55,0,0,1,1.73-2.27c.36-.39.64-.85,1-1.21a17.7,17.7,0,0,0,1.4-2.16s0-.11,0-.17-.14,0-.17,0a3.14,3.14,0,0,0-.18.31c-.36.53-.7,1.07-1.08,1.58s-1,1.29-1.54,1.93c-.2.23-.41.45-.62.68a1.45,1.45,0,0,0-.27-.22c-.25-.13-.52-.29-.8-.09s-.69.51-1,.78a2,2,0,0,0-.27.32c.44.36.88.19,1.33,0a1,1,0,0,1-1.45.23.46.46,0,0,1-.08-.36,1.22,1.22,0,0,1,.27-.41c.51-.56,1.06-1.08,1.54-1.67a13.77,13.77,0,0,0,1.11-1.63c.29-.51.52-1.07.77-1.61,0-.08,0-.19,0-.29l-.15,0c-.3.63-.61,1.26-.9,1.9a5.58,5.58,0,0,1-2.88,2.82,1.59,1.59,0,0,1-1.33.12c-.57-.23-.67-.65-.31-1.15a19.72,19.72,0,0,0,1.78-2.61,35.88,35.88,0,0,0,1.63-3.89,14.55,14.55,0,0,0,1-5.58.7.7,0,0,0-.48-.71,1.41,1.41,0,0,0-.93.07,24.42,24.42,0,0,1-2.5.7,2.44,2.44,0,0,1-2.12-.58c-.14-.12-.31-.39-.26-.5a1,1,0,0,1,.5-.51,4.41,4.41,0,0,1,1.23-.34,10.47,10.47,0,0,0,2.68-.91,2.38,2.38,0,0,0,1.58-2.06c.07-.65.19-1.3.3-1.95s.28-1.49.36-2.24c.11-1,.14-2,.22-3s.23-2.2.31-3.31.14-2.52.17-3.78c0-.7,0-1.4,0-2.1l-.1,0a1.09,1.09,0,0,0-.08.28c0,.69,0,1.39,0,2.08-.05,1.09-.13,2.18-.19,3.27,0,.61,0,1.23-.11,1.84-.09.9-.3,1.79-.32,2.69a19.14,19.14,0,0,1-.2,2.62c-.17,1.06-.33,2.13-.51,3.19a1.05,1.05,0,0,1-.09.36h0a1.18,1.18,0,0,1-.15.47c-.07.17-.09.34-.15.51a1.29,1.29,0,0,1-.59.63c-.33.21-.68.36-1,.57a2.55,2.55,0,0,1-.43.23c-.15,0-.31,0-.47.09a3.29,3.29,0,0,0-.49.26,2,2,0,0,1-.41.13c-.19,0-.39.06-.59.09a2.56,2.56,0,0,0-1.35.39,1.06,1.06,0,0,0,.13,1.56,2.22,2.22,0,0,0,.87.35,3.06,3.06,0,0,0,1.24.09,16.42,16.42,0,0,0,2.37-.68c.41-.13,1.07-.42,1.32.1a2.1,2.1,0,0,1,0,1.24.78.78,0,0,1,0,.18h.09c-.07.43-.14.85-.19,1.27a11.62,11.62,0,0,1-.72,3c-.33.86-.72,1.68-1,2.54a12.19,12.19,0,0,1-2.32,3.85c-.57.68-.27,1.42.61,1.62a2.05,2.05,0,0,0,1.35-.3,2.69,2.69,0,0,1,.65-.27l-.36.39a3.59,3.59,0,0,0-.37.42.58.58,0,0,0,.34,1,1.35,1.35,0,0,0,1.38-.32l.3-.23.07.06c-.08.16-.16.31-.23.47-.15.32-.11.38.21.49a2,2,0,0,0,2-.41c.57-.49,1.11-1,1.67-1.5a.46.46,0,0,1,.29-.12l-.1.24c-.13.27-.27.53-.38.8-.17.44-.1.58.35.92h0a1.47,1.47,0,0,0,.28.08h.06a6.71,6.71,0,0,0,.88-.59c.47-.43.91-.9,1.34-1.37.68-.75,1.32-1.55,2-2.26a6.22,6.22,0,0,0,1.48-2.51c.28-.86.51-1.73.82-2.57a12.39,12.39,0,0,0,.7-3.05c.07-.84.17-1.67.22-2.5.06-1,.09-2,.12-3,0-.54,0-1.08,0-1.62.07-1.19.2-2.39.26-3.59.11-1.85.19-3.71.27-5.57.05-1.43.06-2.86.13-4.29,0-.88.15-1.76.22-2.64,0-.15.05-.3-.21-.22C183.31,405.13,183.21,405.83,183.15,406.53Z"/><path d="M169.5,439.05c.57-.74,1.15-1,1.63-.71C170.76,438.91,169.9,439.28,169.5,439.05Z"/><path d="M167.84,438.12c-.19-.17-.41-.28-.48-.45a.44.44,0,0,1,.19-.64,9,9,0,0,0,.82-.6c.33-.23.45-.21.73.07.6.6.61.62-.1,1.05C168.65,437.77,168.26,437.91,167.84,438.12Zm1.46-1c-.26-.53-.56-.71-.86-.52a4.68,4.68,0,0,0-.71.53.59.59,0,0,0-.14.44c0,.08.24.14.37.17a.51.51,0,0,0,.32-.06C168.62,437.54,169,437.35,169.3,437.15Z"/><path d="M173.73,438.55a3.74,3.74,0,0,1-1.69,1.24c-.17.09-.36,0-.39-.26a2.45,2.45,0,0,0-.13-.38C172.07,438.39,173.17,437.77,173.73,438.55Zm-.28.06c-.2-.3-.47-.16-.7-.13a1.19,1.19,0,0,0-.91.88c0,.15,0,.31.2.22A3.44,3.44,0,0,0,173.45,438.61Z"/><path d="M167,424.72a1.1,1.1,0,0,1-1-.46c-.13-.2-.07-.33.11-.39a7.41,7.41,0,0,1,1.14-.32c.34-.07.61.23.63.63s-.17.54-.55.55C167.22,424.74,167.11,424.72,167,424.72Zm-.89-.65a1.33,1.33,0,0,0,1.22.44c.25,0,.31-.18.29-.39s-.12-.41-.37-.35S166.54,424,166.11,424.07Z"/><path d="M175.27,439.24c-.05-.24-.08-.41-.11-.59v-.06a1.86,1.86,0,0,1,1.15-.88.56.56,0,0,1,.43.21.5.5,0,0,1-.1.46,7,7,0,0,1-.92.79C175.6,439.25,175.4,439.22,175.27,439.24Zm.27-.18c.28-.23.56-.45.83-.69a1.13,1.13,0,0,0,.16-.33,1.06,1.06,0,0,0-.42-.07A1.11,1.11,0,0,0,175.54,439.06Z"/><path class="cls-2" d="M171.13,438.34c-.37.57-1.23.94-1.63.71C170.07,438.31,170.65,438.05,171.13,438.34Z"/><path class="cls-2" d="M169.3,437.15c-.35.2-.68.39-1,.56a.51.51,0,0,1-.32.06c-.13,0-.35-.09-.37-.17a.59.59,0,0,1,.14-.44,4.68,4.68,0,0,1,.71-.53C168.74,436.44,169,436.62,169.3,437.15Z"/><path class="cls-2" d="M173.45,438.61a3.44,3.44,0,0,1-1.41,1c-.19.09-.22-.07-.2-.22a1.19,1.19,0,0,1,.91-.88C173,438.45,173.25,438.31,173.45,438.61Z"/><path class="cls-2" d="M166.11,424.07c.43-.12.78-.23,1.14-.3s.35.13.37.35,0,.38-.29.39A1.33,1.33,0,0,1,166.11,424.07Z"/><path class="cls-2" d="M175.54,439.06a1.11,1.11,0,0,1,.57-1.09,1.06,1.06,0,0,1,.42.07,1.13,1.13,0,0,1-.16.33C176.1,438.61,175.82,438.83,175.54,439.06Z"/></g><g id="Jacket"><path class="cls-2" d="M191.25,343.16s0,.89,0,1-.51,1.39-.51,1.39l-.38,1.6s0,1.59,0,1.65.49,2.8.49,2.8l-.14,2.07s-.21,1.89-.21,2,.35,1.38.35,1.38l-.17,2.53-.55,1.17s0,1.17,0,1.26a5.66,5.66,0,0,0,.42.79s-.17,1.59-.16,1.65,0,2.24,0,2.32a11,11,0,0,1,0,1.27l.14,1.9-.27,1.67-.61,1.65c0,.11,0,1.77-.07,1.83s-.19,2.51-.19,2.51S189,380,189,380s-.32,1.83-.32,1.83l.22,2.07v2s-.41.55-.48.61-.23,1.17-.25,1.24a8.39,8.39,0,0,0,.51,1l-.33,1.35-.7.91-.82,2.66-.2,1.7-.07,1.26,0,.37.12,2h0v.05L187,401l-.63.52-.62.89-.45.93-.1.12a5.15,5.15,0,0,0-.21,1l.4.4.05.24.59.35.44,1.58-.44.75.86,1v1.12l-.86.53-1.7,1-.54.58.52,1.62a.13.13,0,0,1,0,.06h0l-.58,1.3-.4.2-.76.18-1.48.15-1.52.15h-.85l-2.67-.08h-.21l-2.42.18-1.55.1-1.65-.11,0-2,.13-2.38-.5-.36-.36-.2-.1-.13-1.48-1.94,0-2,.94-1,.56-1.23-.07-1.34-.34-1-.64-1.13-.47-1.09.13-1.08.64-.81.16-1v-1.51l-.42-1.25-.74-.8v-1l.07-1.08.24-1.69-.56-1.63-.52-1.71.18-1.07.53-.94-.05-.95-.65-1.57-.08-1.51.08-1.23-.69-2.22-.35-2.41.35-2.2.14-1.6-.53-1.72-.69-1.3v-1.25l.77-1.62,0-1.35-.73-1.86-.63-2.9-.22-2.54.22-2.06-.22-1.5-.18-2.49.75-1.74-.09-1.57-.7-2.3-.88-.69s.23,3.27.2,3.43-1,3.93-1,3.93l-.49,3.65s.09,2.65.09,2.74.4,2.29.4,2.29.59,4,.71,4.18a8.62,8.62,0,0,1-.53,2l-.79.81.08,1.5L163,370l.68,2.18-.91,1.48s-.73,2.5-.73,2.6.86,1.43.86,1.43l1.08.51.33,1-.86,3.36-.56,1.43.25.92.66,1.18.41,1.69.16,1.47.45,1.92.29,2.32v2l-.39,2.5.75.88.38,1,.09.51.29,1.68-.21,1.6s-1.15.76-1.26.78a9.85,9.85,0,0,0-.66,1.41l-.7,1.21s-4.27,1.33-4.52,1.33-8.09,1.17-8.09,1.17-8,1.18-8.42,1.23-7.64.42-7.89.51-10,.89-10,.89l-10.7-1.63-12-1.13-8.35-1.05-2.9-1-2.1-1.81L87,403.87l.3-1.56a13.09,13.09,0,0,0,.71-1.66c0-.19-.28-1.14-.28-1.14l-.14-1.25.25-1.13-.46-2,.06-3,.33-2.17.36-1.17v-1l-.54-.94-.29-2.35.29-3.05-.06-1.77.25-1.73.76-1.39.27-1.06-.2-2.08s-.28-1.58-.29-1.68.07-1.55.07-1.55l.42-1.15.8-1.07.26-1.11.13-1.31-.78-1.44-1-1.49.32-3.22.47-2.61.54-5.23s-.19-5.29-.25-5.48-1.08-3.79-1.08-3.79l-.46,2.64.13,3.7s-.51,4.28-.54,4.44L87,354.85l.23,1.89-.42,2.45-.47,1.92-.33,1.72.54,1.88v1.48l-.93,1.94-.48,2.71s-.57,1.66-.64,1.76-.41,2.26-.41,2.26l.06,4.79L84,381.59a8,8,0,0,1-.8.86,2.3,2.3,0,0,0-.45.52l.64,1.15.66,1.72.09,2.87-.38,2.38-.56,1.41.4,1.67-.48,1.93-.53,3.14-.19,2.08-.06.62v0l-.08.67.24,1,.33.68.09,1.1-.23.56h0l-.12.27-.17.36v.5l0,.08v1.27l-.2.88-.57.46-.83.18v.63l-.37.56-.46,1-.58.54-.09.08,0,0-1.91.95-.21,0H75l-1.62-.13-1.25-.24H70.69l-1.27-.17-1.49-.06a7.59,7.59,0,0,0-1.29-.67c0-.21-.12-.71-.12-.71l-.23-1,0-.17.19-.69v0l.17-.26-1.17-.86-.57-.78-.17-.25-.74-1.5-.33-2.41v-.53l.1-.24-.1-1.12-.21-1.5-.19-1-.52-2.11-.57-1.72.39-1.21.64-1.46-.29-1-.49-1.68-.25-1.72-.47-2.39.47-1.55.42-1.89L62,381l-.48-1.8.05-2.2.2-2,.38-1.8L62,371.74s-.35-1.79-.35-1.89,0-1.72,0-1.82-.19-1.82-.19-1.82l-.29-.88L61,363.61l.32-1,.41-1.16-.56-1.17L60.74,359V357.7l.7-1.22.15-1.82.17-1.24s-.27-1.35-.33-1.47-.23-.86-.23-.86l.1-.95.18-.91-.1-2-.22-2.19,0-2,.47-1,.26-.79-.77-1.58V337.2l.11-1.69-.1-1.82.5-1.31a9.85,9.85,0,0,0,.4-1.18c0-.22-.4-.67-.4-.67l-.5-1.49.21-1.74.23-2.54V322l.43-3.27.15-3.35.17-1.85.63-1.35.52-1.74-.25-2.11.28-2.14,1-4,1.1-4,.55-1.73-.24-1.7.58-1.87,1.21-2.88.23-2.73,1-2.85,2-5.61,2.21-4.15L77,271.2l5.35-3,7.52-1.76,4.89-2,4.64-2.11-.24-.54-1.1-3.05-.78-2.57-.46-2.62L97,251.6l1.11-1.31L98,248.77l.61-2,1.19-1.47.42-1.85,2-2.06,3.69-1.94,4.37-1.16,4.06-.26,4.38-.85,2.71-.51,2.69-.16,3.27.32.74,0,2.54.2,2.48.22,4.6.49,2.4.49,2.3.39,1.85.4,1.8.26,1.08.79.83.88s.89.84.94.92,1.11.89,1.11.89l1.13.73,1.16,1.2.85,1.19s-.11.87-.13.94.63,1.11.63,1.11l.59.91s.24,1.25.24,1.28-.23,1.39-.23,1.39-.09.57-.09.6,0,1.55,0,1.58.67,1.09.67,1.09l.74,1.29-.42,1.34.09,1.11.29,2.62s-.37,1.22-.4,1.29a5,5,0,0,1-.71.63,4.52,4.52,0,0,0-.12.62l1.12.69,2.67.74,2.51.75,5.71,1.92,1.73.72,2.66.74,2,.92,1.77.89,1.36.34,1.37,1.31,1.42,2.29,1.5,2.94.68,2.6c0,.1.9,1.15.9,1.15l.38.73.62,2.14,1.19,3.53.77,1.14.62,1.34-.15.79-.58,1,.25,1.37.53.62.94,2.1.39,1.34-.32,1,.46,1.34.82,1.08s0,1.68,0,1.79.1,1.56.1,1.56l.11,2.21.08,1.55,1,3s.07,1.84.07,1.93-.19,1.53-.19,1.59.07,1.3.07,1.47.5,1.42.5,1.42l.33,2,0,1.75.64,3.38.21,2.74-.14,2.09-.39,1.64.18,2.13,1,2.21s-.38,2-.4,2.16-.4,2.18-.41,2.24.29,1.79.29,1.79Z"/><path class="cls-2" d="M63.63,402l.1,1.12-.1.24v-.49l-.33-1.63-.07-1.72.19,1Z"/><path class="cls-2" d="M75,413.8H77.1l-1.52.22-3.92-.48-2.84-.16L66.58,413l0-1.08-.24-1.14.23,1s.1.5.12.71a7.59,7.59,0,0,1,1.29.67l1.49.06,1.27.17h1.43l1.25.24Z"/><polygon class="cls-2" points="66.44 409.93 65.79 409.33 64.87 408.03 65.44 408.81 66.61 409.67 66.44 409.93"/><polygon class="cls-2" points="81.58 409.83 82.15 409.37 82.12 409.51 80.95 410.32 80.59 411.82 79.25 412.8 79.34 412.72 79.92 412.18 80.38 411.2 80.75 410.64 80.75 410.01 81.58 409.83"/><polygon class="cls-2" points="82.36 407.6 82.38 408.37 82.36 408.44 82.36 407.6"/><polygon class="cls-2" points="83.02 405.16 82.9 405.44 82.81 404.34 82.48 403.66 82.24 402.65 82.32 401.98 82.54 403.39 82.91 404.38 83.02 405.16"/><polygon class="cls-2" points="82.38 406.64 82.55 406.28 82.37 407.14 82.38 406.64"/><polygon class="cls-2" points="169.49 410.9 168.34 410.27 167.66 408.25 167.88 406.86 167.91 408.83 169.39 410.77 169.49 410.9"/><polygon class="cls-2" points="176.06 415.64 172.75 415.97 171.9 415.91 173.45 415.81 175.87 415.63 176.06 415.64"/><polygon class="cls-2" points="179.6 415.71 179.24 415.74 178.75 415.72 179.6 415.71"/><polygon class="cls-2" points="183.36 415.23 183.08 415.36 182.6 415.41 183.36 415.23"/><path class="cls-2" d="M184.37,414l-.34.87-.27.13.58-1.3C184.36,413.91,184.37,414,184.37,414Z"/><path class="cls-2" d="M187.28,409.14s-.42,1.06-.48,1.13l-.75.58-1.83.95s0,.78,0,.84.06.62.1,1l-.52-1.62.54-.58,1.7-1,.86-.53v-1.12l-.86-1,.44-.75-.44-1.58-.59-.35-.05-.24.28.29,1,.59-.11.72.05,1.49Z"/><path class="cls-2" d="M187,401v.14s-.85,1.19-.9,1.24l-.8,1,.45-.93.62-.89Z"/><path class="cls-2" d="M187,400.2V401l-.41-1.87v-.05Z"/><path class="cls-2" d="M66.64,412.53c0,.09,0,.13,0,.05S66.61,412.53,66.64,412.53Z"/><path class="cls-2" d="M63.63,403.87l.33,2.41-.33-.93s-.28-1.05-.3-1.17a5.24,5.24,0,0,1,.3-.84Z"/><polygon class="cls-2" points="63.96 406.28 64.7 407.78 64.29 407.22 63.96 406.28"/><polygon class="cls-2" points="66.18 410.35 66.44 409.95 66.25 410.64 66.18 410.35"/><polygon class="cls-2" points="77.31 413.77 79.22 412.82 78.62 413.29 77.85 413.8 77.1 413.8 77.31 413.77"/><polygon class="cls-2" points="82.15 409.37 82.35 408.49 82.24 409.3 82.15 409.37"/><polygon class="cls-2" points="82.35 407.22 82.37 407.14 82.36 407.37 82.36 407.6 82.35 407.22"/><polygon class="cls-2" points="82.32 401.94 82.38 401.32 82.38 401.46 82.32 401.94"/><polygon class="cls-2" points="82.91 405.54 82.67 406 82.9 405.44 82.91 405.54"/><polygon class="cls-2" points="169.38 404.65 168.82 405.88 167.88 406.86 167.88 406.65 168.44 406.09 169.12 404.66 169.31 403.31 169.38 404.65"/><polygon class="cls-2" points="170.22 413.84 170.25 415.8 170.06 414.46 169.9 412.33 169.9 411.46 169.49 410.9 169.85 411.1 170.35 411.46 170.22 413.84"/><polygon class="cls-2" points="171.9 415.91 171.33 415.95 170.25 415.8 171.9 415.91"/><polygon class="cls-2" points="178.75 415.72 178.05 415.74 176.08 415.64 178.75 415.72"/><polygon class="cls-2" points="182.6 415.41 182.31 415.48 179.85 415.7 179.6 415.71 181.12 415.56 182.6 415.41"/><polygon class="cls-2" points="183.76 415.03 183.71 415.14 183.36 415.23 183.76 415.03"/><path class="cls-2" d="M184.35,413.71h0a.13.13,0,0,0,0-.06Z"/><path class="cls-2" d="M185.41,404.92l-.4-.4a5.15,5.15,0,0,1,.21-1l.1-.12-.17.36Z"/><path class="cls-2" d="M186.61,399.11l-.12-2,0-.37C186.81,396.87,186.65,398.75,186.61,399.11Z"/><path class="cls-5" d="M125.45,236.54a10.35,10.35,0,0,0-4.85.12,48,48,0,0,1-5.64,1.27c-2.37.35-4.59,0-6.91.76A17.15,17.15,0,0,0,101.5,242a3.6,3.6,0,0,0-1.58,2.89c0,.45-.33.24.17.68s1.84.26,2.44.26c1.88,0,3.77-.22,5.64-.09,1.39.09,2.7.56,4.1.56,6.55,0,13.08.11,19.59.19,1.56,0,3-.25,4.62-.09,2,.22,4,.7,6,.74s4.08.46,6.1.38a6.76,6.76,0,0,0,2.48-.44c.58-.28,1-.82,1.58-1.07.15-2.25-2.32-2.88-3.78-4.11-.58-.49-.89-1.2-1.46-1.7a5.45,5.45,0,0,0-2.36-1c-2.49-.66-4.91-.95-7.45-1.4a27.74,27.74,0,0,0-4-.54c-1.38,0-2.85,0-4.22-.14-.79-.09-7.17-1.12-7.06-.24"/><path class="cls-5" d="M99.63,245.27c-.6,0-1.47,2.74-1.58,3.34s.17,1.29.1,1.68c-.15.79-.76.66-1.11,1.31-.52.94.11,2.68.17,3.69a9,9,0,0,0,.86,3.42,5.22,5.22,0,0,1,.73,1.87c.13.65.64,1.21.2,1.88a10.85,10.85,0,0,1,6.72-.85"/><path class="cls-5" d="M104.59,254.59c-.79.59-.66,1.56-.74,2.43a5.7,5.7,0,0,0-.19,2.2c.27.77,1.36,1,2.15,1.34,1.1.5.81.58.65,1.61s.25,1.51.87,2.34c.2.27.23.63.53.84.49.34,1,.1,1.48.53a5.1,5.1,0,0,1,.66,1.27c.39.7.49.71,1.33,1.1a28.93,28.93,0,0,0,3,1.59c1.39.44,3.06.19,4.51.27.73.05,4.46.64,3.79-.65"/><path class="cls-5" d="M121.05,246.92c.94.52,1.21,2.19,1.49,3.05a14.24,14.24,0,0,1,1,3.26c.12,1.22-.27,2.45-.2,3.63s.72,2.79.56,4.12-.74,2.55-.82,3.91c-.1,1.67.58,2.83.56,4.39s-.36,2.81-.28,4.34c0,.83,0,1.67.1,2.48s.5,1.56.37,2.35-.57,1.56-.75,2.42a7.82,7.82,0,0,0,.09,2.6c.14,1.6-.4,4.06.56,5.44"/><path class="cls-5" d="M136.86,247.49c-.77.17-2.9,2.91-1,3.06,1,.08,1.58-.8,1.8-1.66s-.24-2.12-1.24-1.31"/><path class="cls-5" d="M134.89,249.17c-.44,0-3.32-.76-2.79.41.23.52,3,.51,3.35.34"/><path class="cls-5" d="M115.35,248.42a6.7,6.7,0,0,0,1.4.75,10.12,10.12,0,0,0,2.52,0c-.19-.89-1.38-1.09-2.11-1.24a3.72,3.72,0,0,1-2.37-1c-.4-.38-1.69-.78-1.69-.09"/><path class="cls-5" d="M113,247.39c-.24.56-.65,1.37,0,2a1.46,1.46,0,0,0,2-.05c1-1.12-.79-2.21-1.81-2.38-.13.34.09.23.26.37"/><path class="cls-5" d="M130.22,271.15a1.22,1.22,0,0,1,0-.27,42.83,42.83,0,0,0,8-.88c2.75-.66,3.78-3.92,5.51-5.77a17.36,17.36,0,0,1,2.33-2,4.5,4.5,0,0,1,3-.75"/><path class="cls-5" d="M142.47,260.86c1.27-.79,5.44-2.21,6.24-.17.36.91.12,1.55,1.1,1.95a16.59,16.59,0,0,0,2.64.48c.82.2,1.36.71,2.08.05a4.29,4.29,0,0,0,.84-2.08c.36-1.35-.4-2.51-.16-3.79.21-1.1.35-1.23-.31-2.25a5.2,5.2,0,0,1-.81-1.57c-.31-1.34.79-2.72.36-4-.21-.61-.84-1-1-1.63a7,7,0,0,1-.19-2,.58.58,0,0,0-.65.08"/><path class="cls-5" d="M154.35,263.76c1.53,1.3,4.05,1.37,5.94,1.94,2.18.66,4.42,1.34,6.51,2.2s4.29,1.24,6.34,2.5c1.12.69,2.78.79,3.75,1.73.41.4.46,1,.78,1.49s.78.93,1.1,1.51a17.4,17.4,0,0,1,1.76,3.87,9.8,9.8,0,0,0,.47,1.92c.28.56,1.19,1,1.12,1.63s.85,2.4,1.12,3.19a12.44,12.44,0,0,0,1.35,3.58c.51.67.93,1.11.7,2s-1,1.41-.46,2.3c.28.48.87.79,1,1.42a19.71,19.71,0,0,0,.66,1.87,3.08,3.08,0,0,1,.18,1c0,.35-.35.64-.38.93-.07.83.58,1.14,1,1.72.76,1.22.11,2.52.46,3.89.41,1.55.14,3,.38,4.65a17.19,17.19,0,0,0,.78,2,9.2,9.2,0,0,1,.06,2.57c0,.82-.13,1.68-.1,2.47a16.57,16.57,0,0,0,.76,2.95c.18.85,0,1.89.13,2.74.23,2.11.9,3.92.7,6.1a12.66,12.66,0,0,1-.21,3c-.49,1.6-.13,2.11.49,3.6.56,1.31.22,2.5,0,3.85s-.61,2.19,0,3.59.74,1.92.07,3.29c-1,2-.07,4.82,0,7.06.05,1.46-.58,2.89-.11,4.34.36,1.15.18,1.13-.07,2.33a11.26,11.26,0,0,0-.56,2.92c.76,0,.22,2.08.19,2.71a14.38,14.38,0,0,0,.18,3.22,8,8,0,0,1,0,3.27c-.28,1.18-.94,1.95-.89,3.23a18,18,0,0,1-.1,3.28c-.07.56,0,1.12-.09,1.68s-.37.92-.47,1.4a23.9,23.9,0,0,0,.1,3.37,14.06,14.06,0,0,1-.1,1.72c-.12.73-.77,1.18-.85,1.87s.8,1.29.48,2.07c-.2.48-.8.89-1,1.49a23.17,23.17,0,0,0-.76,3.42"/><path class="cls-5" d="M186.83,394.06a3.14,3.14,0,0,1-.39,1.1c-.07,1.4.17,2.69.17,4,0,.74.48,1.23.41,1.87s-1,1.36-1.37,1.87-.85,1.26-.54,1.88,1.12.56,1.38,1.23-.23,1.46,0,2c.43,1,1.24.77.4,1.87-2.88,3.75-7.44,2-11.53,2-1.27,0-2.59,0-3.87-.09-1-.07-1.35-.5-2.12-1-1-.7-1.29-.65-1.48-1.95s-.45-1.46.47-2.64a4.82,4.82,0,0,0,.93-2.87c-.1-1.1-1.13-2-1.41-3-.38-1.37.9-2.08,1-3.32.08-.79-.49-3.14-1.31-3.32a21.68,21.68,0,0,1,.19-2.94,3.74,3.74,0,0,0-.06-1.3,8.81,8.81,0,0,0-.7-1.9,4.31,4.31,0,0,1-.16-1.85c.13-.46.65-.73.73-1.26.15-1-.69-1.49-.88-2.34s.29-1.87.13-2.85-.52-1.8-.74-2.67c-.49-1.94.08-3.74.1-5.74,0-1.2-.91-2.32-1.14-3.38-.26-1.22.89-2.26.85-3.6,0-.57-.52-1-.75-1.49a6.49,6.49,0,0,1-.27-1.78,29.9,29.9,0,0,1-.66-3.72c0-1.39.54-2.41.18-3.76a5.93,5.93,0,0,1-.37-2.36c.13-1,.82-1.67.84-2.67a9.82,9.82,0,0,0-.56-2.44c-.15-.68-.3-1.66-1.1-1.87-.08,1.13.33,2,.26,3.14a16,16,0,0,1-.7,2.89c-.49,2-1.1,4.52-.79,6.49.12.81-.11,1.68.08,2.48a22.27,22.27,0,0,1,.65,3c.12,1.24.6,3.16-.06,4.31-.31.56-.94.72-1.05,1.35a2.74,2.74,0,0,0,.71,1.78,8.77,8.77,0,0,1,1.21,2.23c.41,1.28-.24,1.37-.9,2.44a4.41,4.41,0,0,0-.46,2.3c0,1.52.49,1.78,1.87,2.44a.7.7,0,0,0,0-.95c0,.4.31,1.22.23,1.78s-.31,1.29-.42,1.92a16.23,16.23,0,0,1-.91,2.38c-.35,1,.35,1.3.75,2.15a5,5,0,0,1,.26,2,11.93,11.93,0,0,0,.63,2.59,17.43,17.43,0,0,1,.49,5.44,17,17,0,0,0-.28,2.35c.08.45.54.6.75.95a3.74,3.74,0,0,1,.37,1.57,9.09,9.09,0,0,1,.1,2.39c-.25,1.22-1.67,1.48-2,2.67-.26.82.17.77-.61,1.32a8.5,8.5,0,0,1-2.71.91,26.17,26.17,0,0,1-4.21.85c-3.19.37-6.34.91-9.54,1.22-1.52.14-3,.61-4.57.75-1.7.15-3.44-.2-5.12.1s-3.61.4-5.43.74c-.87.16-2.17-.16-2.91.19a.54.54,0,0,0,.29-.38"/><path class="cls-5" d="M170.16,411.71a22.25,22.25,0,0,0,.09,4.09c1.82.48,3.76-.26,5.62-.17a23.26,23.26,0,0,0,4.57,0c1-.15,2.37,0,3.27-.49,1.09-.56.57-2.24.36-3.17"/><path class="cls-5" d="M128.91,412c-1.83-1,.24-3.91-.26-5.42-.6-1.8-.39-3.65-.58-5.52a34.18,34.18,0,0,1,.09-6.07c.12-1.36.19-2.69.19-4.07,0-2-.44-3.93-.28-5.88.12-1.55,1.51-3,1.08-4.51-.17-.6-.71-1-.9-1.58a6.89,6.89,0,0,1-.1-1.82.34.34,0,0,0-.27.09"/><path class="cls-5" d="M127.69,376.82a7.8,7.8,0,0,0,0-4.49c-.36-1.36,0-2.85.08-4.21.07-1.54.75-3,.65-4.53s-1.07-2.81-.66-4.44c.26-1,.84-1.61.45-2.72-.11-.32-.45-.55-.54-.93-.14-.58.19-1.08-.28-1.59a21.38,21.38,0,0,1,.64-3,11.84,11.84,0,0,0,.11-3.56,22,22,0,0,1-.75-2.89c0-1,0-2,0-3.05a17.91,17.91,0,0,1,0-3.66,14.85,14.85,0,0,0-.29-4c-.14-1.34.37-2.23.48-3.49s-.93-2.2-.66-3.66c.23-1.28,1.09-2.49,1-3.84,0-.66-.53-1.16-.47-1.87s.61-1.19.65-1.87c.08-1.49-.56-3.2-.56-4.73,0-1.9-.37-3.63-.37-5.51s-.52-3.69-.19-5.47c.18-1,.89-1.38.47-2.53a5,5,0,0,1-.38-2.43,11,11,0,0,1,.19-2.81c.15-.46.42-.75.21-1.33s-.62-.6-.59-1.28a32.56,32.56,0,0,1,.09-4.49,8.62,8.62,0,0,0,.48-2.19c0-.77,0-1.54,0-2.31a7,7,0,0,0-.54-2,5.08,5.08,0,0,1-.12-2.1c.08-1.37.15-2.95.28-4.26.08-.74-.33-4.8-.09-4.95a7.8,7.8,0,0,1,.44-2.9,10.62,10.62,0,0,0,.4-3.19,10.19,10.19,0,0,0-.39-2.86,17.68,17.68,0,0,1-.17-2.93c0-1.06-.21-2.07-.18-3.16,1.33-.09.7-3.68,1-4.6s1.1-4.26,2.41-4.3"/><path class="cls-5" d="M123.86,249.92c.36-.25,2.88-.64,3.35,0s-.49,2.51-.36,3.44c.21,1.5,1.08,2.26-1,3.12-1.91.78-1.25-1.38-1.5-2.47S122.19,250.25,123.86,249.92Z"/><path class="cls-5" d="M124.7,250.85c-.4.89.69,2.84,1.29,1.5a1.09,1.09,0,0,0-.47-1.38c-.72-.44-.87.05-1.38.44"/><path class="cls-5" d="M140.55,268.6c1.41-.17,4.18.7,5.7,1a39.59,39.59,0,0,1,4.87,1.13c1.39.51,2.51,1.35,4,1.77a24.88,24.88,0,0,1,5.08,2.14c2.22,1.23,6.35,1.92,8.63,2.67"/><path class="cls-5" d="M173,271.05c-.45,1-1.18,1.81-1.59,2.77-.5,1.16-.89,2.35-1.31,3.54a19.83,19.83,0,0,0-1.13,3.39,31.11,31.11,0,0,0,0,3.74c0,1.64.79,2.92.94,4.42.19,1.84-1.17,3.23-1.5,4.95a6.1,6.1,0,0,0-.09,2.13,9.08,9.08,0,0,1,.47,2.16c-.12,1.08-1.12,2.05-1.41,3.11a3.66,3.66,0,0,0-.09,2.38,3.93,3.93,0,0,1,.47,1.74c-.1,1-1.25,1.9-.75,3.08"/><path class="cls-5" d="M179.6,278c-.54-.14-2.6,1.64-3.24,2.06a14,14,0,0,0-2.4,2.41,32.68,32.68,0,0,0-2.05,2.64,6.08,6.08,0,0,0-1,1.42c-.24.57-.1,1.91-.47,2.23"/><path class="cls-5" d="M168.23,295.37c1.49-.16,4.06-1.65,5.24-2.53a16.57,16.57,0,0,1,3.55-2c1.18-.51,2.46-.92,3.69-1.35,1-.36,2.56-1.33,3.65-1.22"/><path class="cls-5" d="M168,304.25c1.88-.15,3.05-1.29,4.68-2a22.15,22.15,0,0,1,3.95-1.42c1.44-.34,3-.46,4.44-.72a33.71,33.71,0,0,0,5.42-1,4.19,4.19,0,0,1-.63.19"/><path class="cls-5" d="M167.72,313.79c1.55.23,3.64-1.15,5.35-1.38s3.48-.46,5.18-.58a27.48,27.48,0,0,0,5.7-1.17,47.47,47.47,0,0,1,5.19-.81l-.94.11"/><path class="cls-5" d="M163.14,343.62c0-1.57.93-3.25.93-5,0-1.46.64-3.6.36-5.23a2.31,2.31,0,0,1,0-.75,3.64,3.64,0,0,1,.43-2.24c.28-.54,1-1,1.14-1.59s-.2-.94-.21-1.24a10.19,10.19,0,0,1,1.51-4.86c.62-1.25.36-2.91.36-4.3,0-3.24-.56-8.63-.63-10.07"/><path class="cls-5" d="M166.69,325.11c.3-.42,2-.52,2.64-.57s1.56,0,2.34-.09c1.61-.2,3.1-1,4.75-1.12a59.31,59.31,0,0,0,9.41-1.68,15.26,15.26,0,0,1,4-.38h-.64"/><path class="cls-5" d="M167.53,325.29a18.3,18.3,0,0,0,.66,3.18,25,25,0,0,0,1.2,2.85c.67,1.89.56,4,1.32,5.81a17.63,17.63,0,0,1,.56,2.47,25.65,25.65,0,0,0,.39,2.88c.19.45.51.69.64,1.19s0,1.08.12,1.63c.17,1.15,1.09,1.92,1.19,3.07a23.07,23.07,0,0,1-.1,4.16c-.11,1.16-.57,3.11.29,3.9.12.73-.36,1.42-.47,2.06a11.68,11.68,0,0,0,0,1.87c0,1.58-.09,3.07-.19,4.62s.89,2.67,1,4.07a45.24,45.24,0,0,1,.55,4.85,22.76,22.76,0,0,0,0,3.09,7.1,7.1,0,0,1,.18,2.38,3.87,3.87,0,0,0-.18,1.05,5.6,5.6,0,0,1-.49,1.62,9,9,0,0,0-.26,3.25c0,1.81.28,3.55.28,5.41,0,1.2-.36,2.33-.28,3.51a14.51,14.51,0,0,0,.72,3.21c.69,2.22.31,5,.31,7.31,0,1.3,0,2.61,0,3.91,0,.78.52,2-.09,3.07"/><path class="cls-5" d="M164.82,335.86c.45-.27,1.32.06,1.89.09a11.2,11.2,0,0,0,2.59-.09c1.34-.24,2.63-.63,4-.75a53.87,53.87,0,0,0,10.48-1.68,20.7,20.7,0,0,1,3.09-.73c.54-.07,1.11-.17,1.64-.21.19,0,1.17,0,.89,0"/><path class="cls-5" d="M164.42,345.87c1.07-.61,3.72-.58,5-.75a17.68,17.68,0,0,0,3.39-.75,17.66,17.66,0,0,1,4.66-.35,47.36,47.36,0,0,0,7-.49,22.19,22.19,0,0,1,4-.38c.56,0,1.57.07,1.87-.18"/><path class="cls-5" d="M164.91,354.28c1.81-.15,3.53.2,5.33.1,1.6-.09,3.22-.44,4.77-.57,3.1-.25,6.2-.07,9.31-.18,1.6-.06,4.38-.75,5.84-.09"/><path class="cls-5" d="M166.41,363.73c1.64-.24,3.52.28,5.22.28,1.87,0,3.68,0,5.54.09a60.61,60.61,0,0,0,7.13-.39,20.38,20.38,0,0,1,6.12.51"/><path class="cls-5" d="M166.5,374.2c4,0,7.94-1.1,11.93-.74,2,.18,4.12,0,6.12.27,1.42.19,4.09,1,5.43.47"/><path class="cls-5" d="M168.28,384.3a28.12,28.12,0,0,0,5.79-.72,14.68,14.68,0,0,1,4.63.09c3.55.42,6.74,1.24,10.34,1"/><path class="cls-5" d="M168.37,394.68c1.09-.92,3.3-.59,4.59-.46s2.72-.08,4.06,0c1.69.1,3.25.65,5,.65,1.37,0,3.43-.09,4.8-.09"/><path class="cls-5" d="M169.22,404.29c1.32-.73,3.84.11,4.63.4a6,6,0,0,0,3.78.46,17.56,17.56,0,0,1,4.28-.55,12.85,12.85,0,0,0,2.32-.12c.52-.1.62-.5,1-.45"/><path class="cls-5" d="M129.1,408.62c-.13,0-.21,0-.24-.1a20.85,20.85,0,0,0,4.88-.46,24.91,24.91,0,0,1,3.11-.38c1.39-.06,2.74-.45,4.11-.56s2.66,0,4-.1c4.92-.39,9.57-1.51,14.44-2.23,2.25-.33,4.91-.85,6.83-3"/><path class="cls-5" d="M147,406.28c-.16-.07-.2-.14-.1-.2,3.85,0,7.13-2,10.71-3a29.3,29.3,0,0,0,4-1.68c1.21-.55,2.9-1.06,3.53-2.31a1.22,1.22,0,0,1-.2.25"/><path class="cls-5" d="M128.26,402.56c2.65-.44,5.58-2.18,8-3.06s5-1.58,7.54-2.29c3-.82,6.11-1.37,8.95-2.61,2.06-.91,3.83-2.27,5.84-3.21.85-.41,1.66-.86,2.45-1.31s2.14-.77,2.9-1.48"/><path class="cls-5" d="M128.32,392.42c.85-.38,6.68-1.84,7.7-2.28,1.58-.7,2.93-1.74,4.58-2.29,4.46-1.52,9-2.46,13.33-4.34.87-.38,1.62-1,2.49-1.35.59-.26,2.2-.56,2.72-1.13"/><path class="cls-5" d="M129.38,380.47a22.68,22.68,0,0,0,6.07-1.19c2-.55,4.08-.91,6.05-1.59,4.23-1.45,8.57-2.4,12.59-4.52,1.71-.89,3.5-1.72,5.12-2.71"/><path class="cls-5" d="M128.91,369.62a23.42,23.42,0,0,0,7.67-1.69c2.76-1,5.51-1.85,8.33-2.71,2.65-.82,5.32-1.62,7.93-2.6,1.32-.49,2.63-1,3.91-1.63.37-.18,1.56-.53,1.72-.93s-.32-1.07-.41-1.43a4.58,4.58,0,0,1,.48-3c.48-1.18.1-2.38.36-3.6.58-2.69,2.6-5.85,5.62-6.14a.34.34,0,0,1,0,.28"/><path class="cls-5" d="M129,359c2.13.11,4-.72,6-1.12a21.35,21.35,0,0,0,3.88-1.09c2.79-1.07,5.74-1.49,8.57-2.42a61.71,61.71,0,0,0,7.24-2.83c.86-.41,1.68-.87,2.55-1.24s1.84-.48,2.31-1.21"/><path class="cls-5" d="M127.32,347.83c1.79,0,3.87-.75,5.61-1.22,2.8-.76,5.55-1.74,8.35-2.57a80.21,80.21,0,0,1,9.24-2.36,21,21,0,0,0,6.66-2.27c1.14-.61,2.24-1.29,3.41-1.87a35.37,35.37,0,0,0,3.75-2.48"/><path class="cls-5" d="M127.79,336.33a44.3,44.3,0,0,0,8.75-.78c2.47-.5,4.78-1.39,7.29-1.77,5.19-.79,9.92-2.62,14.77-4.46,2.34-.9,4.85-1.53,7.25-2.25"/><path class="cls-5" d="M128.53,325.57c2.74.14,5.74-.68,8.38-1.31s5.49-1,8.24-1.49c5.31-1,10.45-2.49,15.67-3.74,1-.23,1.88-.54,2.84-.75s3.09-.22,4-.94"/><path class="cls-5" d="M129.38,314.63c.77-.64,2.48-.68,3.5-.86s2.19-.52,3.3-.83a17,17,0,0,1,2.85-.51,33.33,33.33,0,0,0,4.91-1c4.53-1.18,9.16-1.71,13.72-2.72,2.78-.61,6.69-1.41,9.48-1.91"/><path class="cls-5" d="M127,303.52c3.33-.13,7.94-1.77,11.24-2.24,3.52-.51,7-1.07,10.57-1.57s7.25-1.28,10.86-2c3.1-.63,6.14-.73,9.26-1.13"/><path class="cls-5" d="M127,292.29c1.13.51,4.29.12,5.48-.11a30.82,30.82,0,0,0,3.68-.89,46.62,46.62,0,0,1,8.11-1.72c3.43-.48,6.78-1.38,10.22-1.79,2.58-.3,5.18-.51,7.75-.94a44.82,44.82,0,0,1,7.49-.73"/><path class="cls-5" d="M140,294.71c.45.05.6.52,1,.57.59.07,1.25-.47,1.87-.47.15,0,.29.27.5.28.68,0,1.46-.77,2-1.09.85-.54,1.5-.93,1.39.33,1,.16,1.87-.51,2.89-.55.35,0,.74.05,1.1,0,.84-.11,1.81-1,2.6-1,.44,0,.51.35.87.43.68.14,1.4-.36,2-.51,1-.26,1.72.31,2.74-.53"/><path class="cls-5" d="M126.88,281.3a73.83,73.83,0,0,0,14.27-1.61A64.61,64.61,0,0,1,152,278.62c2.94-.16,5.8-.57,8.73-.83,1.35-.12,2.71-.21,4.06-.31.93-.06,5,.18,5.48-.63"/><path class="cls-5" d="M132.09,257.12c-.4.81,1.43,1.61,1.88,2.11.82.92.39,1.66.73,2.74a3.92,3.92,0,0,0,1.89,2c1.85,1.24,3.17,1.36,5.13-.42"/><path class="cls-5" d="M131.81,411.71l7.67-.95,10-.93,9.77-1.41,3.92-1.12c.55-.44-1.24-1.1-1.12-2.37.07-.74.63-1.12.73-1.78s-.47-1-.73-1.64c-.42-1,0-1.85.19-2.81a12.93,12.93,0,0,0,.19-2.43,3.06,3.06,0,0,0-.47-2,2.88,2.88,0,0,1-.37-2.48c.31-2.06,0-2.82-1.31-4.47s-.66-2.48-.56-4.37a4.14,4.14,0,0,0-.54-2,6.77,6.77,0,0,1-.31-2.46,8.14,8.14,0,0,1,.24-2.56c.25-.77.73-1.35.6-2.24-.19-1.38-.58-2.86-.72-4.34s.81-2.95.17-4.32c-.88-1.87-1.2-2.92-.66-4.94"/><path class="cls-5" d="M123.58,288.82c.8,1,.18,2.47.18,3.93,0,1.61-.8,2.9-.35,4.32.86,2.7,0,6,.17,8.86,0,1.2-.1,2.4,0,3.6.1,1.42.57,2.47.1,3.92a4.87,4.87,0,0,0-.28,2.35c.12.67.57,1.32.66,2a9.35,9.35,0,0,1-.1,2.48c-.13.82-.55,1.55-.7,2.33a7.7,7.7,0,0,0,.07,2.3c.08.88.21,1.7.26,2.57a10.21,10.21,0,0,0,.47,2.24c.52,2-.54,4-.29,6a25.92,25.92,0,0,1,.29,4.72c-.08,1.49.17,3.17-.36,4.56-.62,1.65.1,2.88.26,4.51a45.38,45.38,0,0,1,.38,4.82c0,1,0,1.89-.1,2.85s-.62,2.5-.18,3.51c-.13.05-.09,3.84-.1,4.52a30.15,30.15,0,0,0,.26,4.29,13,13,0,0,1,.12,4.53,7.84,7.84,0,0,0,.18,4.89,2.88,2.88,0,0,1-.07,2.83,5.69,5.69,0,0,0-.39,2.69c0,3.49.73,6.89.55,10.38a7.44,7.44,0,0,0,.52,2.85c.4,1.24-.11,1.75-.4,2.88a8.25,8.25,0,0,0-.51,2.5,14.31,14.31,0,0,0,.63,2.48,4.22,4.22,0,0,1-.39,3.41c-.48.93-.89,2.59,0,3.27"/><path class="cls-5" d="M99.08,262.54c-1.22.14-2.46,1.3-3.67,1.69a22,22,0,0,0-2.9.86c-.65.31-1.21.81-1.85,1.08a48.14,48.14,0,0,1-5.07,1.26c-1,.26-2,.48-3,.7a8.47,8.47,0,0,0-2.72,1.36c-3,1.76-6,3.2-7.62,6.52-.76,1.6-1.7,3.22-2.31,4.86s-.82,3-1.33,4.49a11.48,11.48,0,0,0-.83,2.48,13.43,13.43,0,0,1-.19,2.47c-.36,1.09-2.65,4.78-1.39,6.18a17.86,17.86,0,0,0-1.12,3.57,30.31,30.31,0,0,0-.93,3.58c-.23,1.19-.73,2.38-.85,3.56s.31,2.47.12,3.69-1.17,2-1.24,3.37,0,2.83-.1,4.21-.5,2.58-.55,4a27,27,0,0,1-.07,4.23,7.43,7.43,0,0,0-.31,2.6c.15.83,1.09,1.28.83,2.24-.12.45-.54.71-.64,1.15a6.87,6.87,0,0,0,0,1.2c0,.67-.41,1.93.28,2.33"/><path class="cls-5" d="M61.27,335.94c-.53.35-.2,5,.66,5.27.06.64-.54,1-.73,1.57a5.83,5.83,0,0,0-.1,2.13,36.3,36.3,0,0,1,.38,4.32c0,.85-.5,1.31-.3,2.08s.49.85.49,1.66-.06,1.36-.09,2c0,.34.05.71,0,1-.11.74-.63,1-.84,1.68-.46,1.45,1,2.91.85,4.38-.07.79-.63,1.21-.63,2,0,1.05.66,2,.71,3.11s-.12,2.38,0,3.55a14.54,14.54,0,0,0,.57,1.69,3.37,3.37,0,0,1-.25,1.72,25,25,0,0,0-.5,4.08,7,7,0,0,0,.87,3.63c.75,1.69-.75,2.66-.68,4.31,0,1.25.59,2.37.65,3.6.07,1.38,1.18,2.91.55,4.09s-1,1.37-.48,2.58a9.86,9.86,0,0,1,.68,2.24,12.11,12.11,0,0,1,.38,2.36,10.77,10.77,0,0,0,.28,2.06c-.37,1.24.39,3.47.56,4.11.35,1.31,1.4,1.7,2.31,2.46s2.57.52,3.91.63c1.75.15,3.53.22,5.3.3a16,16,0,0,0,4.93-.35c2.12-.56,1.53-1.42,1.6-3.22,0-.72.24-.78.48-1.29.38-.79.23-1-.2-1.75-.56-1-.16-2-.1-3.23a18.38,18.38,0,0,1,.35-3.95c.39-1.35,1.06-2.48.5-3.9"/><path class="cls-5" d="M83,393a14.79,14.79,0,0,0,1-3,17.93,17.93,0,0,0,.11-3.36,4.85,4.85,0,0,0-.37-1.79c-.21-.5-.91-1.18-.94-1.68,0-.8.72-.75,1-1.23a3.71,3.71,0,0,0,.28-1.58c.25-2.48-.41-6,.57-8.2.62-1.39.56-2.83,1.16-4.23.38-.9,1-1.77.8-2.83a10.76,10.76,0,0,1-.56-1.85c-.1-1.74.73-3,1-4.68a10.53,10.53,0,0,0,0-3.17c-.07-.69-.18-1.76.57-2.06-.32-.35,0-2.05,0-2.69,0-.87.17-1.67.26-2.53.17-1.63-.64-3.61-.08-5.07.32-.84.9-1.35.85-2.33s-.58-1.93-.47-3,.68-1.66.77-2.62a12.29,12.29,0,0,0-.12-2.78c-.15-1.13-.69-2-.75-3.18a29.65,29.65,0,0,0-.18-3c-.53-.5-.23-2.26-.38-3-.26-1.29-.72-2.51-.93-3.83s.38-1.8.56-2.95c.25-1.56-.7-2.55-.84-4a6.5,6.5,0,0,0-.38-2.14c-.25-.65-.7-1.48-.37-2.23s1-1.07,1.12-2a3.22,3.22,0,0,0-.51-2.05c-.46-1-.22-1.74-.44-2.77s-1.32-1.73-1.65-2.81.18-2.29.17-3.36c0-.83-.72-1.05-1.13-1.77a6.31,6.31,0,0,1-.6-2.71,19.35,19.35,0,0,1,.05-2.95,4.12,4.12,0,0,1,.18-1.21c.2-.44.65-.66.66-1.18a6.83,6.83,0,0,1-.65-2.47,15,15,0,0,1-.66-2.72c-.08-2.11-1.65-3.84-2.1-6a4.57,4.57,0,0,0-.89-2.06c-.26-.38-.68-.9-.47-1.26"/><path class="cls-5" d="M66.06,409.83c0,.47.3.71.38,1.13s-.08.92,0,1.35c.34,1.21,2.24.81,3.43,1a41.71,41.71,0,0,0,5.59.45c1.49.05,2.4.19,3.55-.8a6,6,0,0,0,1.27-1.3c.28-.47.36-1.15.8-1.53"/><path class="cls-5" d="M63.63,402.54a32.21,32.21,0,0,0,5.56-.09,21,21,0,0,1,4.89-.38c1.31.06,2.55.5,3.88.56,1,.05,3.5,0,4.28-.65"/><path class="cls-5" d="M63.17,392.44c1.22.65,4.06.18,5.61.19,2.19,0,4.31-.65,6.52-.66,1.67,0,3.22.55,4.89.56.76,0,2.67-.31,3.18.28"/><path class="cls-5" d="M62.14,382.15c3,0,5.79-.79,8.7-1.12a22.49,22.49,0,0,1,5.12-.21,31.83,31.83,0,0,0,3.8.49c1,0,3.27.11,4.17.14"/><path class="cls-5" d="M62.32,372.05c.07-.32,3.3-.83,3.94-.93,1.47-.24,3-.14,4.46-.29s3.27-.06,4.89-.18a28,28,0,0,1,4.3-.09,29.6,29.6,0,0,1,4.76,1.12"/><path class="cls-5" d="M62,361.39c-.11,0-.17-.13-.19.07,2.81,1,6.42.3,9.31,0a43.29,43.29,0,0,1,9.59-.16c1.5.19,4.06,1.44,5.42,1.28"/><path class="cls-5" d="M61.2,350.82c1.27.88,3.86.73,5.49.66,2-.09,4-.15,5.94-.28a23.69,23.69,0,0,1,5.77.09c1.29.22,2.4.78,3.66,1a27.71,27.71,0,0,0,2.8.46,6.78,6.78,0,0,1,2.25.29"/><path class="cls-5" d="M62,341.19a17.67,17.67,0,0,1,2.34.48c1,.11,1.93.11,2.86.29,1.76.34,3.52.74,5.29.91,2,.2,3.93.06,5.88.66a23,23,0,0,0,4.11.75,20.59,20.59,0,0,0,5.25-.43c-.47.07-.94.11-1.41.15"/><path class="cls-5" d="M62.6,331.65c-.05-.17,0-.29-.08-.45.66-.06,1.18.82,1.7,1.16a4.13,4.13,0,0,0,2.53.6,20.9,20.9,0,0,1,4.94.35c2.21.53,4.42.61,6.53,1.5a10.52,10.52,0,0,0,4.78.87c1.16-.06,2.3-.3,3.45-.43a8.28,8.28,0,0,0,2.06-.23"/><path class="cls-5" d="M61.67,320.62c.58-.27,2.19.42,2.91.56,1.11.2,2.19.42,3.32.56a11.11,11.11,0,0,1,3.29.54c.79.34,1.54.89,2.35,1.18,1.7.63,3.5.65,5.2,1.42a11.15,11.15,0,0,0,3.42,1.21c1.45.16,3.69.49,5.13,0"/><path class="cls-5" d="M63.26,310a56.73,56.73,0,0,0,5.68,1.4c1.75.31,3.37,1,5.12,1.32,2.44.39,4.74.4,7.13,1.11,1.66.49,3.42.77,5.06,1.11,0-.15.09-.21.11-.27"/><path class="cls-5" d="M65.45,299.22c1.29,1.49,4.4,1.85,6.41,2.34s4,.2,6,.55c1.45.25,2.73,1.36,4,2a12.54,12.54,0,0,1,3.66,3.87"/><path class="cls-5" d="M68,287.32c.4,1.11,2.48,2.54,3.53,3.09.73.38,1.38.89,2.11,1.24a15.83,15.83,0,0,1,3.3,1.56c.74.58,1.48,1.26,2.17,1.88a12.76,12.76,0,0,1,2,1.77c.37.53.33,1.18.6,1.68.48.91,1.79,1,3,1.19"/><path class="cls-5" d="M71.43,277.81A34.08,34.08,0,0,0,76,281.22c1.66.67,3.27,1.07,3.8,3.06a6.9,6.9,0,0,0,1.17,3c.71.87,1.36,1.41,1.45,2.62"/><path class="cls-5" d="M81.87,278.53c.92-.26,3.23-.26,4.16-.61s1.77-.87,2.64-1.25a46.41,46.41,0,0,1,4.51-1.85A29.79,29.79,0,0,0,99.81,272a18.18,18.18,0,0,1,4.57-2.59,19.93,19.93,0,0,1,6.39-.4"/><path class="cls-5" d="M86.26,318.28a17.42,17.42,0,0,1-.75,1.87c-.27.5-.4,1-.65,1.49a13.48,13.48,0,0,0-1.49,3.56,14.43,14.43,0,0,1-.38,2c-.29.75-1,1.37-1.22,2.13s0,1.64-.25,2.41-.31,1.41-.49,2.08a19.12,19.12,0,0,1-1.87,4.36c-.79,1.39-.59,3.23-.66,4.8a44.86,44.86,0,0,0-.09,4.49,10.31,10.31,0,0,1-.15,3.8,4.42,4.42,0,0,0-.41,2c.06.79.48,1.43.37,2.25s-.78,1.11-1,1.86c-.2.59.24.67-.46,1.72a3.26,3.26,0,0,0,.12,2.09,11.64,11.64,0,0,1,.91,2.22c.26,1.55,0,3.27.11,4.82.18,2-.56,3.56-.76,5.43a10.76,10.76,0,0,0-.19,2.38c.14.9.88,1.49.94,2.46.08,1.22-.72,1.79-1.36,2.72a3.63,3.63,0,0,0-.42,2.39c0,1.87.74,3.8.75,5.71,0,1.71-.58,3.4-.66,5.12a6.84,6.84,0,0,1,0,1.43c-.2.69-1,1.05-1.36,1.66a4.56,4.56,0,0,0-.52,2.39c0,1.31,1.07,1.74,1,3,0,.85-.57,1.46-.65,2.34s.07,1.81,0,2.71a5,5,0,0,0,0,2.68"/><path class="cls-5" d="M87.39,386.45c-.07.1.92.62,1.35.66a2.75,2.75,0,0,0,1.6-.52c1.41-.81,1.62-1.65,1.82-3.2a12,12,0,0,1,.68-3.29c.63-1.45-.16-2.48,0-4,.21-2.37,2-4.58,1.78-7.07-.11-1.37-.75-2.6-.89-4a35,35,0,0,1,.14-3.69c0-.85,0-1.68-.09-2.53a6.22,6.22,0,0,0-1.13-2.93,5.56,5.56,0,0,1-.37-2.62c0-.46-.08-.9-.1-1.36,0-.26,0-.53,0-.79s.11-.64.16-1c.09-.53.18-1.06.29-1.59.05-.34.06-.35,0,0-.51-.17-.39-.95-.65-1.4a1.23,1.23,0,0,0-1.64-.71c-1.19.32-1.21,2.3-1.35,3.42a18.1,18.1,0,0,0-.38,4.2c.11.83.71,1.24.84,2A3.37,3.37,0,0,1,89,358a11.3,11.3,0,0,0-.77,4.05c0,1.78,2,2.28,1.78,4.11-.15,1.47-1.47,2.73-1.7,4.32s.56,3.12.48,4.87c-.05,1.23-.52,1.54-1,2.6s-.14,2.23-.19,3.34c-.08,1.88-.48,4.18.11,5.93C87.86,387.17,87.39,386.67,87.39,386.45Z"/><path class="cls-5" d="M87.86,276.93c4.58.47,10,1.43,14.64,1.6s9.06,1.42,13.67,1.69c2.21.13,4.75.09,6.75.09"/><path class="cls-5" d="M83.45,285.59a17.17,17.17,0,0,1,4.36.61c1.54.29,3.1.26,4.65.49s3,.56,4.54.81,3.09.26,4.63.45c2.46.31,4.66,1.46,7.12,1.57a53.78,53.78,0,0,1,8,1.05,27.14,27.14,0,0,0,6.93.87"/><path class="cls-5" d="M84,297c1.79-.59,5,0,6.87.16,2.37.2,4.79.58,7.14.92,4.87.69,9.65,2,14.51,2.73,1.92.31,3.86.82,5.77,1,1.49.17,4,.18,5.42.52"/><path class="cls-5" d="M87.11,306.4c2.07,1,4.8.49,7,1.14,2.47.73,5,.64,7.59,1.14a48.42,48.42,0,0,1,6.45,2,47.66,47.66,0,0,0,7,1.79c1.22.24,2.41.62,3.64.8,1.52.21,3.09.12,4.59.37h-.24"/><path class="cls-5" d="M88,316.6c1.5,1,4.74,1.08,6.68,1.48,2.38.5,4.79,1.05,7.16,1.52a35,35,0,0,1,5.24,1.56,17.27,17.27,0,0,0,3.92.58c1.49.18,2.92.63,4.4.84a39.82,39.82,0,0,1,4.32,1c.83.21,3.07.28,3.63.77"/><path class="cls-5" d="M88.23,326c2.36.05,5,1.51,7.23,2.34s4.61,1,6.77,2c4.08,1.81,8.8,2.65,13.25,3.35a32.6,32.6,0,0,1,4.26,1c1,.3,2.57.35,3.37.82l-.28.12"/><path class="cls-5" d="M88.88,336c4.08,1.05,8,3.37,11.88,5.15,2,.93,4.33,1.3,6.36,2.25a13.24,13.24,0,0,0,3.56.64c1.26.21,2.54.6,3.8.87,1.54.33,2.91,1.05,4.42,1.45a27.2,27.2,0,0,0,4.4.68"/><path class="cls-5" d="M88.79,343.34a.49.49,0,0,0-.27,0c0,1.34,0,2.7,0,4.05a12.13,12.13,0,0,1-.19,1.92c-.15,1,.78,2.25.38,3.08"/><path class="cls-5" d="M92.62,347.64l-.22-.08c4.45,1.59,9.2,2.43,13.32,4.83,3.57,2.09,8.19,3.14,12.16,4.14,1.89.48,3.6,1.58,5.41,2.06l-1.21-1"/><path class="cls-5" d="M94.12,358.58a11.51,11.51,0,0,1,2.5,1c1.21.51,2.51.77,3.71,1.26a50.26,50.26,0,0,1,5.17,2.36,27.67,27.67,0,0,0,4.68,2.43c2,.67,4,1.28,6,2,2.2.83,4.59,1,6.76,1.92h-.33"/><path class="cls-5" d="M88,400.39l-.84,2.05,0,1.49,2.26,2.72,6,2,8.61,1.21,11,.81,9,1.25a.43.43,0,0,1,.22.4,21.74,21.74,0,0,1-2.77-.31,42.77,42.77,0,0,1-5.31-.49,21.56,21.56,0,0,0-3.77-.44c-1.08-.05-2.09-.44-3.14-.54-2.2-.21-4.23-.5-6.39-.89-3-.52-5.87-.71-8.82-1.07a8.13,8.13,0,0,1-5.41-2.69,10.73,10.73,0,0,1-1.47-1.93c-.39-1,.38-1.56.76-2.37.55-1.14-.57-2.23-.28-3.61a2.94,2.94,0,0,0,.07-1.68,16.66,16.66,0,0,1-.35-1.87,21.88,21.88,0,0,1,.3-3.72c.1-1.12,1-2.29.36-3.2"/><path class="cls-5" d="M94.49,369.68a16.81,16.81,0,0,0,4,1.67c2.3.58,4.66.94,6.72,2.19,1.5.91,2.94,1.7,4.5,2.54a25,25,0,0,0,6.24,2,63.27,63.27,0,0,1,7.12,2.29"/><path class="cls-5" d="M123.11,391.5c-1.72-1.07-3.45-.86-5.33-1.42a35.88,35.88,0,0,1-7-2.47c-1.85-1-3.76-1.85-5.58-2.85-2.06-1.12-4.43-1.34-6.5-2.47-1.72-.94-4.1-1.2-5.74-2.21"/><path class="cls-5" d="M124.14,408.8a12.78,12.78,0,0,0-2.48-.09c-1.17,0-2.38-.32-3.55-.49-2.54-.38-5-1.18-7.54-1.31a25.31,25.31,0,0,1-7.17-1.17c-2.55-.86-5.7-.81-8.36-1.24-1.75-.27-3.37-1.06-5.11-1.38-.75-.14-2.86-.39-2.64-1.61"/><path class="cls-5" d="M87.57,396.27c.39,2.7,4,4.4,6.41,4.9a72.77,72.77,0,0,1,10.27,3,15.66,15.66,0,0,1,2.4,1.09c.89.51,2.38.75,3.09,1.4"/><path class="cls-5" d="M123.67,401.51c-2.59.29-4.81-.77-7.22-1.61-2.71-.95-5.39-2-8.1-3-2.11-.81-3.85-2-5.89-2.92a24.31,24.31,0,0,0-3.78-.95c-1.36-.36-2.71-.73-4.09-1a13,13,0,0,1-4.27-1.29c-.67-.39-2.42-1.06-2.19-2"/><path class="cls-5" d="M124.49,408.87c.15.25-.31.92-.37,1.18a1.8,1.8,0,0,0,0,.73,1,1,0,0,0,.11.34c.11.16.29.22.35.41s-.08.35.21.43a7,7,0,0,0,1.52,0c.47,0,1.49.29,1.6-.4a2.92,2.92,0,0,0-.11-1.28,2.59,2.59,0,0,1-.16-.72.63.63,0,0,1,.17-.37c-1.19-.07-2.38-.08-3.56-.2C124.31,409,124.34,409,124.49,408.87Z"/></g><g id="Man-Bag"><path class="cls-6" d="M162.14,266.22c-1.75,1.81-4.32,3-6.22,4.83-2.71,2.56-3.84,6.12-5.77,9.15-4.17,6.54-11.44,10.75-14.24,18.33-3.1,8.42-11.39,14.32-17.39,21-3.87,4.29-9,6.89-13.25,10.76-2.23,2.05-4,4.81-6,7.13-3.71,4.44-5.41,4.11-10.53,6L89,357.63c-.42-3.27,2.84-3.2,4.29-.67,1,1.7,0,5.43.74,7.5,1.09,3,3.28,5.92,3.73,9.19.37,2.74-.44,6.31-.85,9-1.1,7.16-3.41,17.85,7.14,16.45,10.78-1.42,21.58-7.46,31.83-10.69,4.45-1.41,9.94-1.89,14.16-3.47,2.43-.9,3.51-2.33,4.27-4.77,1.4-4.5-1.81-14.53-4.15-18.77-2.66-4.8-4.58-6.51-7.47-10.87-3.33-5-4.13-10.73-4.45-17a119,119,0,0,1,.53-17.48c.24-2.14,1.17-3.9,1.53-5.92s-.34-4,0-5.95c1-5.53,6.42-10.32,8.82-15.19,3.86-7.82,10.39-17,18-21.77C166.28,267.68,162.14,266.22,162.14,266.22Z"/><path class="cls-2" d="M116.05,380.76a.36.36,0,0,1-.2.44.35.35,0,0,1-.44-.2v0a.33.33,0,0,1,.17-.41h0c0-.13-.13-.14-.25-.1a.5.5,0,0,0-.22.16c-.06.08-.3.46-.21.7l1,2.88.49-.16,0,.17-1.54.51-.06-.16.49-.16L114.15,381l-.48.17,0-.13,1.06-.35.13.4a1.1,1.1,0,0,1,.17-.42.65.65,0,0,1,.36-.29.67.67,0,0,1,.46,0,.49.49,0,0,1,.22.25"/><path class="cls-2" d="M116.82,383.72a.39.39,0,0,1,.24-.49.41.41,0,0,1,.29,0,.39.39,0,0,1,.17.51.34.34,0,0,1-.22.2.42.42,0,0,1-.29,0A.35.35,0,0,1,116.82,383.72Z"/><path class="cls-2" d="M128.59,380.11l-1.62.55,0-.17.48-.16-1-1.74-1.21.4a6.93,6.93,0,0,0,.21,1.28c0,.18.23.58.48.52l.34-.07.06.16-1.63.55,0-.17a1.09,1.09,0,0,0,.4-.27s.26-.18.2-.74l-.6-5.16.4-.13,3,5.17.53-.18Zm-2.26-1.63-1.46-2.62.33,3Z"/><path class="cls-2" d="M133.83,377.73h0a.76.76,0,0,1,0,.41.71.71,0,0,1-.34.33c-.5.17-.68,0-.83-.22h0c-.06.28-.1.53-.44.64a1.08,1.08,0,0,1-.73,0h0a.94.94,0,0,1-.49-.51,1.09,1.09,0,0,1,.37-1.21c.13-.13.3-.1.55-.5a.4.4,0,0,0,.07-.2l-.33-1a.48.48,0,0,0-.62-.24.67.67,0,0,0-.4.32c-.05.11-.05.41.18.39s.33,0,.37.15a.37.37,0,0,1-.22.43.4.4,0,0,1-.56-.31.82.82,0,0,1,.06-.65,1.11,1.11,0,0,1,.6-.47.9.9,0,0,1,.77,0,1.1,1.1,0,0,1,.58.68l.81,2.34a.32.32,0,0,0,.32.16c.13,0,.33-.11.1-.79l-.19-.56s0,0,0,0l.09,0h0Zm-1.36.23-.44-1.3s0,0,0,0h0a1.28,1.28,0,0,1-.28.29c-.21.18-.46.35-.18,1.19s.47.75.76.65S132.52,378.1,132.47,378Z"/><path class="cls-2" d="M138.89,376.66l-1.38.46,0-.16.32-.11-1-3a.47.47,0,0,0-.61-.34.53.53,0,0,0-.4.68l1,3,.4-.14.06.17-1.34.45,0-.17.36-.12-1-3a.52.52,0,0,0-.62-.34.84.84,0,0,0-.4.68l1,3,.44-.15.06.16-1.5.51-.06-.17.49-.16-1.13-3.37-.52.18-.06-.16,1.09-.37.11.33a.92.92,0,0,1,1.52-.47.78.78,0,0,1,.54-.68c.08,0,1-.36,1.24.49l.94,2.8.49-.17,0,.17Z"/><path class="cls-2" d="M139.89,373.57a2.6,2.6,0,0,0-.56-.82.53.53,0,0,0-.53-.12.44.44,0,0,0-.28.23.48.48,0,0,0,0,.35.9.9,0,0,0,.31.39,4.61,4.61,0,0,0,.74.34,1.56,1.56,0,0,1,1.07,1,1,1,0,0,1,0,.82.74.74,0,0,1-.46.44.76.76,0,0,1-.47,0c-.15,0-.23,0-.26,0a1.18,1.18,0,0,0-.07.2l-.12,0-.5-1.5.12,0a1.55,1.55,0,0,0,.64,1,.71.71,0,0,0,.64.19.45.45,0,0,0,.27-.27.7.7,0,0,0,0-.45.91.91,0,0,0-.3-.48,3.49,3.49,0,0,0-.76-.38,1.7,1.7,0,0,1-1.07-.91.82.82,0,0,1,.42-1.12.75.75,0,0,1,.42,0,.56.56,0,0,0,.22,0c.08,0,.16-.19.14-.23l.12,0,.44,1.29-.16.06Z"/><path class="cls-2" d="M115,384.68l-1,.36-.13-.37c-.1.35-.21.48-.44.56a1,1,0,0,1-.74-.07,2.31,2.31,0,0,1-1-1.39,3,3,0,0,1-.12-1.58.92.92,0,0,1,.61-.75.76.76,0,0,1,.57.08l-.68-2-.61.21-.06-.17,1.18-.39,1.86,5.55.52-.17Zm-2.83-3.1a.46.46,0,0,0-.3.32c0,.18,0,.27.09.56l.64,1.91a1.46,1.46,0,0,0,.32.65.62.62,0,0,0,.53.1c.16-.06.21-.22.28-.37s0-.25,0-.41l-.85-2.53a.59.59,0,0,0-.68-.23"/><path class="cls-2" d="M131.17,379.24l-1,.36-.12-.37c-.11.35-.21.48-.45.56a1,1,0,0,1-.74-.07,2.3,2.3,0,0,1-1-1.39,3,3,0,0,1-.13-1.58,1,1,0,0,1,.61-.75.76.76,0,0,1,.57.08l-.68-2-.61.2-.05-.17,1.17-.39,1.87,5.56.51-.18Zm-2.83-3.1a.46.46,0,0,0-.3.32c0,.19,0,.27.09.56l.64,1.91a1.76,1.76,0,0,0,.32.66.65.65,0,0,0,.53.09c.16-.06.21-.21.28-.37s0-.25,0-.41l-.85-2.53a.58.58,0,0,0-.68-.23"/><polygon class="cls-7" points="119.22 376.36 120.75 378.37 123.16 377.6 121.71 379.63 123.2 381.72 120.75 380.94 119.29 383.04 119.24 380.45 116.83 379.72 119.25 378.87 119.22 376.36"/></g><g id="Head"><polygon class="cls-2" points="128.79 245.7 128.77 245.99 123.97 245.99 124.64 238.41 124.76 238.59 124.76 245.7 128.79 245.7"/><path class="cls-2" d="M168.58,130.55l.36,3.2-.74,3.95s-2.17,2.94-2.26,3-1.5,1-1.6,1.06-2,.86-2,.86L161,146.54c0,.1-3.45,14.62-3.45,14.62l-2,9.93-2.43,9.54-2.26,8.49-3.61,10.12-2.3,6.54-.7,4.37-3,6.7-1.63,4.6s-2.07,4.94-2.14,5l-2.29,4.18-1.47,2.52c-.1.16-1.61,1.63-1.61,1.63l-2.25,1.31s-.39,2.17-.35,2.26-.26,7.31-.26,7.31h-4.41v-7.11l-.12-.18-.86-1.34L121,235.39l-3-2.93-4.37-5.94-4.6-6.25-3.64-6.51-4.82-10.31-2.45-6.06-.77-4.48-1.51-5.49-3.15-9.28-3-11.32-2-8.77L85,148.78l-1.62-4.43H79.92c-.25,0-2.38-.59-2.38-.59l-1.23-5.37.09-5.66,7-28.55,20.39-26.55h13.45l16.25,11.83,21.28,18,15.39,20.34-1.85,1.47L167,129Z"/><path d="M210.45,125.09c-3.32-1.33-6.68-2.59-10-3.87-6.38-2.43-11.07-7.08-15-12.18-2.66-3.46-5-7.23-7.91-10.57A9.23,9.23,0,0,1,175,92.29c0-1.62.4-3.46-.22-4.83a24.19,24.19,0,0,0-5.19-7.55,12.58,12.58,0,0,1-4-7.82c-.72-7.6-5.62-12.61-10.89-16.84-7.15-5.72-15.2-10.18-24.88-10.16-3.86,0-7.68-.56-11.4,1.39a40.92,40.92,0,0,1-22.18,5,12.18,12.18,0,0,0-7.58,2.36c-5.32,3.59-7.76,8.62-7.7,15,0,.85.79,2.28-.67,2.51-1.88.3-3.19,1.74-4.86,2.19-7.77,2.09-14.82,16-13.54,24.52.9,6,3.86,11,5.81,16.54,2.23,6.28,1.55,10.15-4,13.52-1.67,1-2.35,2.15-1.91,4.15.59,2.64,7.49,8.66,10,8.42a4.23,4.23,0,0,0,1.34-.61l3.19-1.64c-1.09,5.17,0,6.52,5,6.47a2.37,2.37,0,0,1,2.62,1.92c1.28,4.69,2.73,9.35,3.76,14.09a198.23,198.23,0,0,0,7.6,27.19c.77,2,1.79,4.16,1.81,6.25a18,18,0,0,0,2.16,8.45c4.35,8.08,7.32,17,13.67,23.87,3.07,3.34,4.53,8.21,9,10.15,2.06.89,2.39,2.11,2.26,3.9s-.21,3.85-.2,5.77h2a1.38,1.38,0,0,1-.43-.85,31.75,31.75,0,0,1,0-7.16c.05-1.12,1.12-.94,1.86-1,1-.09,1.18.57,1.19,1.34,0,1.09,0,2.19,0,3.29h-.09v3.29a1.39,1.39,0,0,1-.42,1.1h1.67c-.61-2.72.82-5.51.33-8.23-.1-.54.33-.9.75-1.21,2.71-2,4-5.1,5.85-7.81,2.68-4,3.53-8.75,5.68-13,1.13-2.23,3.3-6.07,2.15-9.06-1.85,4.53-4,10.3-5.83,14.84A53.2,53.2,0,0,1,133,232.85c-3,4.27-10.66,4.54-13.6.25a54.37,54.37,0,0,0-4.17-5.44c-6.72-7.59-10.65-16.81-14.8-25.81C97.72,196,97.2,189.18,95,183c-4.16-11.45-5.74-23.58-9.38-35.16-1.33-4.24-1.27-4.3-5.69-4.1-1.1,0-1.7-.35-1.89-1.43a16.62,16.62,0,0,1,.38-8,3.18,3.18,0,0,1,2.41-2.06c1.21-.3,1.72.69,2.28,1.54.29.44.32,1.22,1.16,1.14,0-3.27-1.64-4.3-5.36-3.23.14-3.38,2.33-5.91,3.34-8.84,3.34-9.7,8.18-18.82,11.27-28.61,1.8-5.71,6.58-8.48,10.69-12,2.27-2,4.06-1.88,6.88-.77a60.14,60.14,0,0,1,15.28,9.1c1,.8,2.11,1.85,3.29,2,3.85.59,5.43,3.57,7.48,6.24,3.74,4.85,8.69,8.44,13.45,12.21a9.13,9.13,0,0,1,2.69,3.39c2.45,5.13,6.91,8.4,11.41,11.58,1.36,1,3.11,1.44,3.9,3.12v-.08c1.8,2,2.6,4.76,4.73,6.48,6.26,5.07,18.28,6.94,25.39,1.48.62-.48,1.41-.73,2.05-1.19,3.21-2.33,7.06-3.64,10.07-6.31C212.62,127.92,212.56,125.93,210.45,125.09Z"/><path d="M168.54,129.17v-.08a11.16,11.16,0,0,1-2,12.19c-.26.3-.43.84-.73.92-5,1.34-4.64,6.07-5.53,9.58-2.54,10.05-4,20.37-6.92,30.3-1.81,6.26-3.42,12.69-6.19,18.65-1.15,2.49-.51,5.65-2.74,7.69,0,0-.29.09-.34-.07a7.22,7.22,0,0,1,.61-3.51c1.93-6,4-11.87,5.78-17.87,1.94-6.57,4.23-13.13,5.2-19.85,1.17-8.13,3.93-15.8,5.56-23.76a2,2,0,0,1,1.42-1.73,7.87,7.87,0,0,0,5.54-7.95c-.23-3.84-1.62-4.8-5.44-3.8-.43.11-1,.36-1.27-.27C164.32,127.72,164.48,127.71,168.54,129.17Z"/><path d="M134,147.23c1.45,2.42,1,5.79,1.12,8.38.54,9.94.77,19.9,1.21,29.84.27,5.9-1.32,7.87-7.19,7.63-2.83-.11-5.73-.11-8.53-1.09-2-.69-3.14-1.87-3.23-3.8-.39-8.86-.71-17.73,1-26.51.18-1,.3-.94.85-1.1l0-.06c-.35,3.57-.85,7.14-1.1,10.68a79.37,79.37,0,0,0,.82,17.47,2.38,2.38,0,0,0,1.81,2.09c3.63,1.12,7.26,1.72,11.09.77,2.62-.65,3.53-2.08,3.54-4.67,0-8.27-.6-16.52-1-24.78-.24-4.76-.5-10.13-.62-14.9Z"/><path d="M118.6,161.16c-.77-8.36.48-17.3.38-25.67-.07-5.16-.28-10.31-.42-15.47,0-1.83-.71-2.87-2.78-3.1a38.33,38.33,0,0,0-13.92.84c-5.83,1.5-12,2-17.34,5,1.65-1.94,3.49-2.8,8.71-4.08,7.26-1.79,14.54-3.39,22.13-2.89,2.64.17,4.17.74,4.28,3.89.44,13-.17,26.05-.11,39.07a11.34,11.34,0,0,1-.37,1.95Z"/><path d="M135.44,126.33c2.82-2.85,6.55-3.11,10.21-3,3.49.06,6.77,2.67,7.34,5.67a16,16,0,0,0-6.82-4.51c-.66,1.26-.06,3.56-2.18,3.34s-.74-2-.92-3.31A58.94,58.94,0,0,0,135.44,126.33Z"/><path d="M91.62,128.45c.16-1.67.79-2.2,1.47-2.53,6-2.89,12-4,18.27-.74.48.25,1.38.26.9,1.12s-1,.26-1.5-.09a9.72,9.72,0,0,0-4.1-1.7c-1.69-.3-3.77-1.1-3.75,2,0,.82-.54,1.92-1.66,1.71-.88-.16-1.12-1.13-1-2,.34-1.62-.48-1.57-1.64-1.34A13,13,0,0,0,91.62,128.45Z"/><path d="M130.25,116.94c5.82-2.58,22.57.63,26.26,5.19-4.67-1.56-8.47-3.89-12.95-4.36A114.19,114.19,0,0,0,130.25,116.94Z"/><path d="M133.79,147.9a38.87,38.87,0,0,1-1.33-9.39,115.24,115.24,0,0,0-3.1-19.38c-.1-.43-.09-.78.72-1.57.76,3.28,1.69,6.22,2.07,9.22.8,6.41,1.32,12.86,1.92,19.29.06.58.05.47.11,1.72Z"/><path d="M118.45,208.82c2.38-.42,4-.82,4.91-2.63.45-.86,1.91-.57,2.79-.28a8.63,8.63,0,0,0,4.31.37c-1.14,1.51-2.55,1.33-4.08,1-1.09-.26-2.58-.88-3.06.71C122.5,210.64,121,210.24,118.45,208.82Z"/><path d="M124.52,212.89c3.94.19,7.28-.8,9.48-4.38C132.54,213.25,129.35,214.77,124.52,212.89Z"/><path d="M128.51,221.42c-2.55.24-5.16.1-7.5,1.74C121.56,221,124.86,220.19,128.51,221.42Z"/></g></svg>