<?xml version="1.0" encoding="utf-8"?>
<!-- Generator: Adobe Illustrator 23.1.0, SVG Export Plug-In . SVG Version: 6.00 Build 0)  -->
<svg version="1.1" id="Layer_1" xmlns="http://www.w3.org/2000/svg" xmlns:xlink="http://www.w3.org/1999/xlink" x="0px" y="0px"
	 viewBox="0 0 48.8 59.2" style="enable-background:new 0 0 48.8 59.2;" xml:space="preserve">
<style type="text/css">
	.st0{fill:#FFFFFF;}
</style>
<g>
	<path d="M34.5,14c-0.8,4.4,1.6,7.5,4.1,10.7c2.4,2.9,4.3,6.1,5,9.9c0.4,1.8,0.4,3.7-0.1,5.5c-0.2,0.6,0,0.9,0.4,1.3
		c0.5,0.6,1,1.4,1.2,2.2c0.4,1.3,0.8,2.5,1.6,3.6c1.6,2.2,1.3,3.6-1.2,4.9c-2.2,1.1-4.3,2.2-5.9,4.1c-0.9,1.1-2.2,1.8-3.7,2.1
		c-2.3,0.5-4.3-0.4-5.3-2.5c-0.3-0.5-0.6-0.7-1.1-0.8c-1-0.1-2-0.3-3-0.3c-1.8,0-3.5,0.1-5.3,0.2c-0.5,0-1,0.1-1.4,0.2
		c-0.4,0.1-0.8,0.3-1,0.6c-1.3,1.7-3,2.1-5,1.8c-1-0.1-2-0.4-2.9-0.9c-2.1-1.2-4.4-1.4-6.7-1.8c-0.4-0.1-0.9-0.1-1.3-0.3
		c-1.5-0.4-2.3-1.5-1.9-3c0.5-1.7,0.4-3.4,0.3-5.2c-0.1-1.8,0.5-2.8,2.2-3.3c1.7-0.5,2.6-1.7,3.5-3c0.1-0.2,0.2-0.4,0.2-0.6
		c-0.2-4.5,1.6-8.3,4-11.9c0.8-1.2,1.6-2.4,2.6-3.5c2.4-2.6,3.2-5.7,3.2-9.2c0-2-0.1-4.1,0-6.1c0.2-4.7,3.4-7.7,8.1-7.8
		c4.3-0.1,6.8,1.5,8.1,5.2c0.4,1.1,0.6,2.2,0.7,3.3C34.4,11,34.4,12.5,34.5,14z M17.3,48.5c0.6,1.5,1.5,2.3,3.1,2.9
		c3.5,1.4,6.8,0.7,9.9-1.2c0.7-0.4,1.2-1,1.3-1.8c0.2-1.5,0.4-3.1,0.6-4.6c0.2-1.8,0.6-3.5,2.3-4.6c0.3-0.2,0.4-0.5,0.6-0.8
		c0.5-1.2,1.2-1.6,2.4-1.3c1.9,0.4,3.7,1,4.6,3.3c0.3-1.3-0.2-2.2-0.9-3c-1-1-2.3-1.6-3.7-1.7c-0.9-0.1-1.2-0.5-1.4-1.3
		c-0.3-1.2-0.7-2.5-1.2-3.7c-1.3-3.1-2.6-6.2-3.9-9.4c-0.4-0.9-0.6-1.8-0.9-2.7c-1.5,0.8-2.9,1.6-4.3,2.4C24,22,22.5,21.8,21,20.8
		c-0.6-0.4-1.2-0.9-1.8-1.4c-0.1,0.2-0.2,0.2-0.2,0.3c-0.5,3.1-1.9,5.9-3.4,8.6c-1.2,2.4-2.5,4.7-2.8,7.4c-0.2,2.3,0.1,4.4,2.3,5.9
		c1.3,0.9,2.4,2.1,3.3,3.4C19.5,46.7,19,47.7,17.3,48.5z M14.3,55.8c2.9-0.2,4.3-2.3,3-4.9c-0.4-0.7-0.9-1.3-1.3-2
		c-0.9-1.5-1.8-2.9-2.8-4.4c-0.5-0.8-0.9-1.7-1.5-2.5c-1.2-1.7-3-1.7-4.2,0.1c-0.7,1.1-1.6,1.7-2.8,2.1c-1.4,0.5-1.7,1.2-1.6,2.6
		c0.1,1.2,0,2.5-0.2,3.7c-0.3,1.8,0.1,2.4,1.8,2.7c0.2,0,0.3,0.1,0.5,0.1c2.1,0.3,4.2,0.6,6.1,1.6C12.2,55.4,13.3,55.5,14.3,55.8z
		 M35.1,41c-0.3,0.3-0.6,0.5-0.7,0.8c-0.3,0.7-0.6,1.4-0.7,2.1c-0.4,2-0.6,3.9-1,5.9c-0.2,1-0.5,2-0.7,3c-0.3,2.4,1.4,4.1,3.8,3.6
		c1.1-0.2,2.4-0.9,3.2-1.7c1.5-1.4,3.1-2.7,5.1-3.6c0.4-0.2,0.8-0.5,1.2-0.7c0.8-0.6,1-1.3,0.4-2.1c-1.1-1.4-1.6-2.9-2-4.5
		c-0.4-1.5-2-1.9-3.3-1c-0.4,0.3-0.8,0.6-1.3,0.8c-1.6,0.8-3,0.2-3.6-1.5C35.4,41.9,35.3,41.5,35.1,41z M23.8,21.1
		c1.6-0.8,3.3-1.6,4.9-2.7c1.4-0.9,1.1-2.1-0.4-2.8c-1.2-0.5-2.3-1.1-3.5-1.6c-1.1-0.5-2.2-0.4-3.2,0.4c-0.7,0.6-1.5,1.1-2.2,1.6
		c-1,0.8-1.1,1.6-0.2,2.4c0.9,0.7,1.8,1.4,2.7,2.1C22.4,20.8,23,20.9,23.8,21.1z M25.5,13.3c0.1-0.5,0.2-1,0.4-1.4
		c0.2-0.4,0.8-0.9,1.1-0.8c0.4,0.1,1,0.5,1.1,1c0.2,0.6,0.1,1.3,0,1.9c-0.1,0.5-0.1,0.8,0.4,1c0.6,0.2,0.8-0.2,1-0.6
		c0.5-1.2,0.5-2.4,0-3.6c-0.8-1.9-2.8-2.4-4.1-0.9c-0.5,0.6-0.7,1.4-1,2.1C24.3,12.7,24.6,13.2,25.5,13.3z M21.4,13.5
		c0.1,0.1,0.2,0.1,0.3,0.2c0.2-0.4,0.5-0.8,0.5-1.2c0-1.1-0.3-2.1-1.3-2.7c-0.4-0.2-1.1,0-1.6,0.1c-0.1,0-0.2,0.2-0.3,0.3
		c-0.8,1.1-0.9,3.2-0.2,4.3c0.1,0.2,0.4,0.3,0.6,0.4c0-0.2,0.1-0.5,0.1-0.7c0-0.7-0.1-1.4,0-2.1c0-0.2,0.4-0.5,0.7-0.5
		c0.2,0,0.5,0.3,0.6,0.5C21,12.5,21.2,13,21.4,13.5z"/>
	<path class="st0" d="M17.3,48.5c1.7-0.8,2.1-1.9,1.1-3.4c-0.9-1.3-2-2.5-3.3-3.4c-2.2-1.5-2.5-3.6-2.3-5.9c0.3-2.7,1.5-5.1,2.8-7.4
		c1.5-2.8,2.9-5.5,3.4-8.6c0-0.1,0.1-0.2,0.2-0.3c0.6,0.5,1.2,0.9,1.8,1.4c1.5,1,3,1.1,4.6,0.3c1.4-0.8,2.8-1.6,4.3-2.4
		c0.3,0.9,0.5,1.8,0.9,2.7c1.3,3.1,2.7,6.2,3.9,9.4c0.5,1.2,0.9,2.4,1.2,3.7c0.2,0.8,0.5,1.2,1.4,1.3c1.4,0.2,2.7,0.7,3.7,1.7
		c0.7,0.8,1.3,1.6,0.9,3c-0.9-2.2-2.7-2.8-4.6-3.3c-1.2-0.3-1.9,0.2-2.4,1.3c-0.1,0.3-0.3,0.7-0.6,0.8c-1.7,1.1-2.1,2.8-2.3,4.6
		c-0.2,1.5-0.4,3.1-0.6,4.6c-0.1,0.8-0.6,1.4-1.3,1.8c-3.1,1.8-6.4,2.6-9.9,1.2C18.8,50.8,18,50,17.3,48.5z"/>
	<path class="st0" d="M14.3,55.8c-1-0.3-2.1-0.4-3-0.9c-1.9-1-4-1.3-6.1-1.6c-0.2,0-0.3,0-0.5-0.1c-1.8-0.4-2.1-1-1.8-2.7
		c0.2-1.2,0.2-2.4,0.2-3.7c-0.1-1.4,0.3-2.1,1.6-2.6c1.2-0.4,2.1-1,2.8-2.1c1.2-1.8,3-1.8,4.2-0.1c0.6,0.8,1,1.7,1.5,2.5
		c0.9,1.5,1.8,3,2.8,4.4c0.4,0.7,0.9,1.3,1.3,2C18.6,53.5,17.2,55.7,14.3,55.8z"/>
	<path class="st0" d="M35.1,41c0.2,0.5,0.3,0.8,0.4,1.1c0.6,1.7,1.9,2.2,3.6,1.5c0.5-0.2,0.8-0.6,1.3-0.8c1.3-0.9,2.9-0.5,3.3,1
		c0.4,1.6,1,3.2,2,4.5c0.6,0.7,0.3,1.5-0.4,2.1c-0.4,0.3-0.8,0.6-1.2,0.7c-2,0.8-3.6,2.1-5.1,3.6c-0.9,0.8-2.1,1.4-3.2,1.7
		c-2.3,0.5-4-1.2-3.8-3.6c0.1-1,0.5-2,0.7-3c0.4-2,0.6-3.9,1-5.9c0.1-0.7,0.4-1.4,0.7-2.1C34.5,41.5,34.8,41.4,35.1,41z"/>
	<path class="st0" d="M23.8,21.1c-0.8-0.3-1.4-0.4-1.8-0.7c-1-0.6-1.9-1.3-2.7-2.1c-0.9-0.8-0.8-1.6,0.2-2.4
		c0.7-0.6,1.5-1.1,2.2-1.6c1-0.8,2.1-0.8,3.2-0.4c1.2,0.5,2.4,1,3.5,1.6c1.5,0.7,1.7,1.9,0.4,2.8C27.2,19.5,25.4,20.3,23.8,21.1z
		 M23.3,19.6c0.2,0,0.6-0.1,0.9-0.2c1.3-0.6,2.5-1.1,3.8-1.8c0.3-0.1,0.4-0.4,0.6-0.7c-0.3,0-0.7-0.1-0.9,0
		c-0.7,0.4-1.4,0.9-2.1,1.2c-2.1,1.1-3.5,1-5.3-0.7c-0.1-0.1-0.2-0.3-0.4-0.3c-0.2-0.1-0.4-0.1-0.6-0.1c0,0.2,0,0.4,0.1,0.6
		C20.4,18.8,21.6,19.5,23.3,19.6z"/>
	<path class="st0" d="M25.5,13.3c-0.9-0.1-1.2-0.6-1-1.3c0.2-0.7,0.5-1.5,1-2.1c1.2-1.5,3.3-1,4.1,0.9c0.5,1.2,0.5,2.4,0,3.6
		c-0.2,0.4-0.3,0.8-1,0.6c-0.6-0.2-0.6-0.5-0.4-1c0.1-0.6,0.2-1.3,0-1.9c-0.1-0.4-0.7-0.9-1.1-1c-0.3,0-0.8,0.4-1.1,0.8
		C25.7,12.3,25.7,12.8,25.5,13.3z"/>
	<path class="st0" d="M21.4,13.5c-0.2-0.5-0.3-1-0.6-1.5c-0.1-0.2-0.4-0.5-0.6-0.5c-0.3,0-0.6,0.3-0.7,0.5c-0.1,0.7,0,1.4,0,2.1
		c0,0.2-0.1,0.5-0.1,0.7c-0.2-0.1-0.5-0.2-0.6-0.4c-0.8-1.2-0.7-3.2,0.2-4.3c0.1-0.1,0.2-0.3,0.3-0.3c0.5-0.1,1.2-0.3,1.6-0.1
		c1,0.5,1.3,1.6,1.3,2.7c0,0.4-0.4,0.8-0.5,1.2C21.6,13.6,21.5,13.5,21.4,13.5z"/>
	<path d="M23.3,19.6c-1.6-0.1-2.8-0.8-3.8-1.9c-0.1-0.1-0.1-0.4-0.1-0.6c0.2,0,0.4,0,0.6,0.1c0.1,0.1,0.2,0.2,0.4,0.3
		c1.8,1.6,3.1,1.8,5.3,0.7c0.7-0.4,1.4-0.9,2.1-1.2c0.2-0.1,0.6,0,0.9,0c-0.2,0.2-0.4,0.5-0.6,0.7c-1.2,0.6-2.5,1.2-3.8,1.8
		C23.9,19.5,23.5,19.5,23.3,19.6z"/>
</g>
</svg>
