<?xml version="1.0" encoding="utf-8"?>
<!-- Generator: Adobe Illustrator 24.0.0, SVG Export Plug-In . SVG Version: 6.00 Build 0)  -->
<svg version="1.1" id="Layer_1" xmlns="http://www.w3.org/2000/svg" xmlns:xlink="http://www.w3.org/1999/xlink" x="0px" y="0px"
	 viewBox="0 0 52 61.6" style="enable-background:new 0 0 52 61.6;" xml:space="preserve">
<style type="text/css">
	.st0{fill:#FFFFFF;}
</style>
<g>
	<path class="st0" d="M18.4,15.2c2.2,0,4.2,0.7,6.1,1.7c1.9,1,3.7,0.9,5.6,0c4.4-2,8.8-2.3,13.3-0.3c1.8,0.8,3.3,2.1,4.6,3.6
		c0.7,0.8,0.6,1-0.2,1.7c-1.7,1.4-3.3,3-4.2,5.1c-2.5,5.4-1,11.4,3.8,15c0.5,0.4,1,0.8,1.5,1c0.9,0.4,1,1,0.7,1.9
		c-1.7,4.6-4.2,8.6-7.7,12c-2.6,2.5-5.5,3-8.8,1.5c-0.9-0.4-1.8-0.7-2.8-1c-2.3-0.7-4.6-0.5-6.9,0.3c-0.6,0.2-1.2,0.4-1.8,0.7
		c-3.8,1.5-6.2,1-8.9-1.9c-5.5-6.1-8.6-13.2-9.2-21.3c-0.3-4,0-8,1.8-11.7C8,17.6,12.6,15.2,18.4,15.2z"/>
	<path class="st0" d="M37.8,5.2c-0.3,4.2-2.7,8-7.3,10.3c-0.9,0.4-1.9,0.6-2.9,0.7c-1,0.2-1.3-0.1-1.3-1.1c-0.1-2.5,0.6-4.8,2-6.9
		c1.9-2.8,4.3-4.9,7.6-5.7C37.8,2.1,37.9,2.2,37.8,5.2z"/>
</g>
</svg>
