<?xml version="1.0" encoding="utf-8"?>
<!-- Generator: Adobe Illustrator 24.0.0, SVG Export Plug-In . SVG Version: 6.00 Build 0)  -->
<svg version="1.1" id="Layer_1" xmlns="http://www.w3.org/2000/svg" xmlns:xlink="http://www.w3.org/1999/xlink" x="0px" y="0px"
	 viewBox="0 0 71.8 69.2" style="enable-background:new 0 0 71.8 69.2;" xml:space="preserve">
<style type="text/css">
	.st0{fill:#FFFFFF;}
</style>
<g>
	<path class="st0" d="M50.1,32.7c-5.5,0-10.9,0-16.4,0c-1.3,0-1.3,0-1.3-1.3c0-7.9,0-15.8,0-23.7c0-1,0.3-1.3,1.3-1.4
		c6.3-0.9,12.7-1.9,19-2.8c4.6-0.7,9.2-1.3,13.7-1.9c1.5-0.2,1.5-0.2,1.5,1.3c0,9.4,0,18.8,0,28.1c0,1.5,0,1.5-1.5,1.5
		c-5.4,0-10.9,0-16.3,0C50.1,32.5,50.1,32.6,50.1,32.7z"/>
	<path class="st0" d="M50.1,35.9c5.5,0,11.1,0,16.6,0c0.9,0,1.2,0.2,1.2,1.1c0,9.5,0,19,0,28.5c0,1.4,0,1.3-1.3,1.2
		c-10.7-1.5-21.3-3-32-4.5c-2.2-0.3-2.2-0.3-2.2-2.5c0-7.5,0-14.9-0.1-22.4c0-1.4,0-1.4,1.3-1.4C39.1,35.9,44.6,35.9,50.1,35.9z"/>
	<path class="st0" d="M29.1,7c0,0.4,0.1,0.7,0.1,1.1c0,7.8,0,15.6,0,23.4c0,1.3,0,1.3-1.4,1.3c-8,0-16.1,0.1-24.1,0.1
		c-1.4,0-1.4,0-1.4-1.3c0-6.6,0-13.2,0-19.8c0-0.9,0.3-1.2,1.2-1.3c8-1.1,16-2.2,23.9-3.2C28,7.1,28.5,7.1,29.1,7z"/>
	<path class="st0" d="M29.1,61.5c-1.9-0.3-3.7-0.5-5.5-0.8c-6.5-0.9-12.9-1.8-19.4-2.6c-1.7-0.2-1.7-0.2-1.7-1.9
		c0-6.5,0-12.9,0-19.4c0-1,0.3-1.3,1.3-1.2c8.1,0.1,16.2,0.1,24.4,0.1c0.8,0,1.2,0.1,1.2,1.1c0,8,0,15.9,0,23.9
		C29.1,60.8,29.1,61.1,29.1,61.5z"/>
</g>
</svg>
