<?xml version="1.0" encoding="utf-8"?>
<!-- Generator: Adobe Illustrator 24.0.2, SVG Export Plug-In . SVG Version: 6.00 Build 0)  -->
<svg version="1.1" id="Layer_1" xmlns="http://www.w3.org/2000/svg" xmlns:xlink="http://www.w3.org/1999/xlink" x="0px" y="0px"
	 viewBox="0 0 248.2 112" style="enable-background:new 0 0 248.2 112;" xml:space="preserve">
<style type="text/css">
	.st0{fill:#FFFFFF;stroke:#00FFC7;stroke-miterlimit:10;}
	.st1{fill:none;stroke:#FF00FF;stroke-miterlimit:10;}
</style>
<path class="st0" d="M241,55.9c-77.4,5.4-82.1,10.3-36.1,38.9c-61.4-21.3-72.1-19.1-83.8,15.4c-11.8-34.6-22.4-36.8-83.8-15.4
	c46-28.4,41.3-33.3-36.1-38.9c77.4-5.4,82.1-10.3,36.1-38.7c61.4,21.4,72.1,19.1,83.8-15.4c11.8,34.6,22.4,36.8,83.8,15.4
	C158.9,45.6,163.7,50.5,241,55.9z"/>
<title>points-background1 copy</title>
<path class="st1" d="M244.7,56.2c-75.7,5.3-80.3,10.1-35.3,38c-60.1-20.8-70.5-18.7-82,15.1c-11.5-33.8-21.9-36-82-15.1
	c45-27.8,40.4-32.6-35.3-38c75.7-5.3,80.3-10.1,35.3-37.9c60.1,20.9,70.5,18.7,82-15.1c11.5,33.8,21.9,36,82,15.1
	C164.4,46.1,169,50.9,244.7,56.2z"/>
</svg>
